<svg id="Layer_1" data-name="Layer 1" xmlns="http://www.w3.org/2000/svg" viewBox="0 0 80 80"><defs><style>.cls-1{fill:#fff;}</style></defs><path class="cls-1" d="M55.69,49.66c2.76-2.32,5.3-4.53,7.93-6.63a4.12,4.12,0,0,1,6.8,2.47,5,5,0,0,1-.74,3.15c-2,3.26-4.27,6.4-6.42,9.59a1.13,1.13,0,0,1-.1.13c-4.86,4.24-9.92,8.14-16.76,8.39-3.09.11-6.2,0-9.3,0a8.25,8.25,0,0,1-5.73-2.08A21.43,21.43,0,0,0,29,63.18c.2,4.77-3.5,5.55-6.31,7.06a3.74,3.74,0,0,1-5-1.65q-3.86-6.47-7.54-13a4.06,4.06,0,0,1,1.58-5.69c1.14-.71,2.3-1.36,3.47-2a3.74,3.74,0,0,1,4-.06,1.77,1.77,0,0,0,2.17-.17c2.09-1.3,4.15-2.65,6.32-3.79a9,9,0,0,1,3.49-1c2.12-.15,4.27,0,6.41,0a5.9,5.9,0,0,1,5.22,2.6A3.37,3.37,0,0,0,45.89,47c1.28,0,2.57.06,3.85,0C52.12,46.86,54.2,47.38,55.69,49.66Zm-34.14.85c2,3.45,3.89,6.78,5.85,10.07a1.38,1.38,0,0,0,1.09.4A5.56,5.56,0,0,1,33,62.64a5.91,5.91,0,0,0,4.39,1.62c2.94,0,5.89.11,8.83,0,6.06-.3,10.56-3.83,14.93-7.55a1.2,1.2,0,0,0,.18-.26c2-2.92,4-5.85,5.94-8.76.6-.86,1-1.72.12-2.58s-1.75-.37-2.54.3C62.23,47.59,59.59,49.77,57,52a4.22,4.22,0,0,0-1.08,1.52,4.85,4.85,0,0,1-4.85,3.25c-3.26,0-6.52,0-9.79,0-1,0-2.58.51-2.6-1.24s1.56-1.26,2.58-1.27c3.26,0,6.53,0,9.79,0a2.42,2.42,0,0,0,2.54-2.36A2.33,2.33,0,0,0,51,49.65c-1.61,0-3.21,0-4.82,0A6.7,6.7,0,0,1,40.6,47a4.9,4.9,0,0,0-3-1.49,41.11,41.11,0,0,0-5.77-.06,5.27,5.27,0,0,0-2.34.29C26.88,47.24,24.31,48.86,21.55,50.51Zm4.79,13.83a6.66,6.66,0,0,0-.39-1q-3.59-6.24-7.2-12.48a1.65,1.65,0,0,0-2.57-.63c-.93.53-1.84,1.08-2.78,1.59-1.29.71-1.52,1.6-.76,2.9,2.33,3.95,4.6,7.94,6.91,11.91.21.36.51,1,.77,1a5.08,5.08,0,0,0,2.48-.41C24.1,66.46,25.91,66.18,26.34,64.34Z"/><path class="cls-1" d="M31.87,35.7C32.16,34,32.6,32,32.8,30a3.28,3.28,0,0,0-.74-2.2c-1.23-1.41-2.63-2.66-4-4a3,3,0,0,1-.92-3.2,3,3,0,0,1,2.59-2.11c1.84-.29,3.69-.58,5.55-.8a2.26,2.26,0,0,0,2.05-1.48c.72-1.66,1.59-3.27,2.39-4.9a3.06,3.06,0,0,1,2.86-2,3,3,0,0,1,2.87,1.94c.8,1.63,1.66,3.24,2.38,4.91A2.37,2.37,0,0,0,50,17.71c1.7.17,3.39.47,5.09.69a3.13,3.13,0,0,1,2.87,2A3.21,3.21,0,0,1,56.94,24c-1.3,1.2-2.48,2.51-3.82,3.67a2.26,2.26,0,0,0-.77,2.41c.33,1.68.62,3.36.9,5.05.22,1.38.19,2.71-1.13,3.59a3.42,3.42,0,0,1-3.79-.13c-1.5-.82-3-1.55-4.53-2.4a2.08,2.08,0,0,0-2.36,0c-1.71,1-3.46,1.92-5.26,2.74C33.9,40,31.77,38.47,31.87,35.7Zm2.53.73.39.29a14.32,14.32,0,0,0,2.36-1.25c3.67-2.91,7.27-2.86,10.94,0a16.54,16.54,0,0,0,2.79,1.36c-.43-2.6-.68-4.76-1.17-6.87a3.5,3.5,0,0,1,1.19-3.82c1.64-1.48,3.09-3.18,4.8-5a22.91,22.91,0,0,0-4.07-.64c-3.67.07-6-1.48-7-5.06a28.07,28.07,0,0,0-2-4c-1.21,2.42-2.28,4.32-3.11,6.33a3.56,3.56,0,0,1-3.37,2.39c-2.14.19-4.27.62-6.73,1C31.13,23,32.5,24.6,34.1,26a3.75,3.75,0,0,1,1.36,4.22C35,32.23,34.74,34.34,34.4,36.43Z"/><path class="cls-1" d="M17.91,25.23a5,5,0,0,1-1.73-.05c-.45-.18-1-.78-1-1.15a1.74,1.74,0,0,1,1-1.28,12.62,12.62,0,0,1,3.63,0A1.67,1.67,0,0,1,20.91,24c0,.43-.63,1.05-1.11,1.24a5.66,5.66,0,0,1-1.89,0Z"/><path class="cls-1" d="M67.2,25.26c-.48,0-1,.16-1.41,0A9,9,0,0,1,64.24,24c.48-.45.89-1.18,1.45-1.3a6.9,6.9,0,0,1,3,0c.56.12,1,.83,1.5,1.28a9.16,9.16,0,0,1-1.57,1.25A3.36,3.36,0,0,1,67.2,25.26Z"/><path class="cls-1" d="M21.49,37.71a1.26,1.26,0,0,1-1.07-1.94,16.13,16.13,0,0,1,2.8-2.8,1.19,1.19,0,0,1,1.91,1C25.14,34.85,22.35,37.69,21.49,37.71Z"/><path class="cls-1" d="M61,15.12c-.15-.11-.67-.3-.75-.6a1.85,1.85,0,0,1,.15-1.47,16.22,16.22,0,0,1,2.48-2.49,1.83,1.83,0,0,1,1.48-.13c.28.09.55.65.59,1C65.05,12.36,62.19,15.14,61,15.12Z"/><path class="cls-1" d="M65.29,36c-.24,1.37-1.35,2.09-2.2,1.45a14.72,14.72,0,0,1-2.83-2.8c-.65-.85.26-2.25,1.06-1.79A28.81,28.81,0,0,1,65.29,36Z"/><path class="cls-1" d="M25.15,14.19c-.12.17-.32.68-.62.76a2,2,0,0,1-1.48-.15,16.75,16.75,0,0,1-2.48-2.5,1.85,1.85,0,0,1-.12-1.47c.09-.27.66-.52,1-.55C22.37,10.19,25.18,13.07,25.15,14.19Z"/><path class="cls-1" d="M16,55.34c-.28-.52-.82-1.06-.77-1.54a1.56,1.56,0,0,1,1.19-1,1.58,1.58,0,0,1,1.12,1.13c0,.48-.6,1-.94,1.46Z"/></svg>