<svg id="Layer_1" data-name="Layer 1" xmlns="http://www.w3.org/2000/svg" viewBox="0 0 80 80"><defs><style>.cls-1{fill:#fff;}</style></defs><path class="cls-1" d="M26.57,62.67c0-2.14-.11-4.29,0-6.42a2.93,2.93,0,0,0-2-3.12c-1-.47-2.06-.9-3.11-1.28A6.38,6.38,0,0,1,17,45.36,11.78,11.78,0,0,0,14.66,38a6.77,6.77,0,0,1,0-8.75A11.72,11.72,0,0,0,17,22a6.22,6.22,0,0,1,4.54-6.47,13.06,13.06,0,0,0,6.85-5,6.16,6.16,0,0,1,7.4-2.35,14,14,0,0,0,8.65,0,6,6,0,0,1,7,2.2,13.87,13.87,0,0,0,7.23,5.27A6.07,6.07,0,0,1,63,21.87a12.23,12.23,0,0,0,2.46,7.61,6.61,6.61,0,0,1,0,8.35A12.21,12.21,0,0,0,63,45.28c0,3.36-1.71,5.53-4.89,6.76-4.71,1.82-4.68,1.9-4.68,6.85,0,3.53,0,7.07,0,10.6,0,2.67-1.36,3.44-3.71,2.12-2.8-1.58-5.61-3.11-8.35-4.79a2.52,2.52,0,0,0-2.93,0c-2.73,1.58-5.51,3.07-8.29,4.56-2.28,1.23-3.57.44-3.58-2.16C26.56,67.06,26.57,64.86,26.57,62.67ZM33.5,10.31,33.25,10a11.14,11.14,0,0,0-2.71,2,15.32,15.32,0,0,1-8.14,5.9,3.6,3.6,0,0,0-2.77,3.69,15.44,15.44,0,0,1-3.25,9.84A3.49,3.49,0,0,0,16.46,36a15,15,0,0,1,3.14,9.54,3.8,3.8,0,0,0,2.92,3.94,14.31,14.31,0,0,1,7.87,5.73,3.69,3.69,0,0,0,4.5,1.57,15.23,15.23,0,0,1,10.21,0,3.59,3.59,0,0,0,4.39-1.45,15,15,0,0,1,8.27-6,3.42,3.42,0,0,0,2.59-3.47A15.52,15.52,0,0,1,63.53,36a3.57,3.57,0,0,0,0-4.61,15,15,0,0,1-3.15-9.54,3.88,3.88,0,0,0-3.07-4,13.94,13.94,0,0,1-7.62-5.55,4,4,0,0,0-5.06-1.59,13.51,13.51,0,0,1-9.11.05A17.4,17.4,0,0,0,33.5,10.31ZM45.41,66.12c0-2.27,0-4.17,0-6.07a1,1,0,0,0-.54-.68,13,13,0,0,0-9.67,0,1,1,0,0,0-.55.69c0,1.88,0,3.76,0,5.94,1.64-.88,2.93-1.51,4.16-2.24a2.16,2.16,0,0,1,2.52,0C42.49,64.53,43.77,65.2,45.41,66.12Zm5.36-8C48,59.33,48,59.33,48,62v3.69c0,2.14.41,2.6,2.79,3.1ZM29.2,68.68C31.89,67.9,32,67.74,32,65.3V61.79c0-2.64,0-2.64-2.82-3.57Z"/><path class="cls-1" d="M40.05,52.61A18.84,18.84,0,0,1,21,33.55c0-10.64,8.47-18.85,19.55-18.86,9.95,0,18.34,8.63,18.36,18.91A18.82,18.82,0,0,1,40.05,52.61ZM40,50a16.42,16.42,0,1,0-.26-32.84c-8.53,0-16.16,7.57-16.18,16.09A16.46,16.46,0,0,0,40,50Z"/><path class="cls-1" d="M31.59,41.38c.17-1,.32-2.35.63-3.65a2.36,2.36,0,0,0-.82-2.68A11.63,11.63,0,0,1,29,32.69a5.08,5.08,0,0,1-.9-2.84c.09-1.27,1.26-1.73,2.45-1.91a14,14,0,0,1,2.38-.32c1.92.09,2.93-.89,3.52-2.58a6.58,6.58,0,0,1,1.15-2.27c.63-.69,1.57-1.56,2.34-1.53a4,4,0,0,1,2.46,1.61c.75.94,1,2.24,1.72,3.24A3.8,3.8,0,0,0,46,27.44c1.12.33,2.39.18,3.47.58a3.91,3.91,0,0,1,2.31,1.8c.26.78-.37,1.92-.78,2.83a3.32,3.32,0,0,1-1.23,1.24c-2.11,1.37-2.5,3.24-1.75,5.52a7.44,7.44,0,0,1,.32,2.05A2.51,2.51,0,0,1,44.61,44a36.71,36.71,0,0,1-3.4-1.79,2.06,2.06,0,0,0-2.37,0A30.55,30.55,0,0,1,35.3,44C33.39,44.86,31.63,43.71,31.59,41.38Zm14.24.28c-.33-1.92-.54-3.39-.84-4.85a2.48,2.48,0,0,1,.84-2.71c1.18-1,2.3-2,3.44-3.05L49,30.54c-1.35-.2-2.7-.46-4.06-.58A3.05,3.05,0,0,1,42,27.91c-.5-1.31-1.22-2.53-2-4.14a36.24,36.24,0,0,0-1.74,3.53A3.67,3.67,0,0,1,34.45,30a26.89,26.89,0,0,0-3.73.61C32,32,33,33.08,34.14,34.07A2.54,2.54,0,0,1,35,36.78c-.31,1.49-.52,3-.83,4.87,1.73-.89,3.16-1.57,4.53-2.35a2.3,2.3,0,0,1,2.54,0C42.62,40.08,44.06,40.75,45.83,41.66Z"/></svg>