<svg id="Layer_1" data-name="Layer 1" xmlns="http://www.w3.org/2000/svg" viewBox="0 0 80 80"><defs><style>.cls-1{fill:#fff;}</style></defs><path class="cls-1" d="M33,6.85c1.83.4,3.11.59,4.32,1a8.39,8.39,0,0,0,5.51,0C46.92,6.24,50.2,7.3,52.63,11a8.35,8.35,0,0,0,4.76,3.34c3.73,1.14,5.74,3.53,5.65,7.54a9.71,9.71,0,0,0,2,6.28c2.42,3.16,2.44,6.41,0,9.58A9.64,9.64,0,0,0,63,44c.09,3.92-1.82,6.27-5.46,7.51-3,1-3,1.14-1.93,4.05,1.35,3.71,2.74,7.42,4,11.15.19.54.27,1.46,0,1.74a2.33,2.33,0,0,1-1.86.36,41.18,41.18,0,0,1-4.62-1.31,1.25,1.25,0,0,0-1.73.59A44.08,44.08,0,0,1,48.84,72a2.68,2.68,0,0,1-1.72,1.08c-.43,0-1-.82-1.25-1.4C44.28,67.46,42.8,63.22,41.2,59c-.2-.53-.83-.91-1.26-1.36-.38.43-.94.8-1.13,1.31-1.53,4.05-3,8.13-4.52,12.17a9,9,0,0,1-1.52,2,14.23,14.23,0,0,1-2-1.66,16.43,16.43,0,0,1-2-2.92c-.63-1.21-1.42-1.34-2.61-.9a31.23,31.23,0,0,1-4.15,1.19,2.16,2.16,0,0,1-1.73-.32,2.14,2.14,0,0,1-.07-1.75c1.46-4.19,2.95-8.37,4.55-12.51.49-1.27.2-1.93-1-2.23-5.14-1.24-7.14-4.56-7.1-9.74,0-1.68-1.19-3.49-2.17-5-1.83-2.91-2-5.68,0-8.53a6.23,6.23,0,0,0,.85-1.35c.54-1.53,1.06-3.08,1.46-4.65a27.37,27.37,0,0,0,.31-2.87,5.13,5.13,0,0,1,3.19-4.49A19.49,19.49,0,0,0,29.27,9C30.15,7.83,31.92,7.41,33,6.85Zm.89,2.87a3.75,3.75,0,0,0-3.61,1.93,13.58,13.58,0,0,1-7.5,5.44,4.16,4.16,0,0,0-3.18,4.45,12.76,12.76,0,0,1-2.67,8.38,4.46,4.46,0,0,0,0,6,13,13,0,0,1,2.72,8.53,4,4,0,0,0,3,4.26,14.12,14.12,0,0,1,7.77,5.61,4,4,0,0,0,5.08,1.58,13.55,13.55,0,0,1,9.27,0,4.09,4.09,0,0,0,5.18-1.72,13.19,13.19,0,0,1,7.37-5.35,4.23,4.23,0,0,0,3.27-4.56,12.63,12.63,0,0,1,2.69-8.37,4.38,4.38,0,0,0,0-5.88,12.86,12.86,0,0,1-2.72-8.52c.06-2-.73-3.65-2.75-4.25a15.36,15.36,0,0,1-8.38-6.1,2.91,2.91,0,0,0-3.19-1.42,20.19,20.19,0,0,1-12.28,0ZM32.33,69c1.33-3.68,2.53-7,3.85-10.61-3.94,1.2-6.59-.39-8.85-3.49L23.4,65.79c1.66-.46,2.89-.8,4.11-1.16a1.89,1.89,0,0,1,2.44.91C30.59,66.63,31.37,67.64,32.33,69Zm15.33,0c.8-1.17,1.35-2,1.88-2.75,1.4-2.08,1.4-2.08,3.76-1.41,1,.27,1.92.52,3.29.88-1.37-3.75-2.61-7.13-4-10.9-2.22,3.28-4.9,4.67-8.8,3.59Z"/><path class="cls-1" d="M40,51.92A19,19,0,1,1,59,33,18.91,18.91,0,0,1,40,51.92ZM56.37,33A16.41,16.41,0,1,0,39.91,49.39,16.4,16.4,0,0,0,56.37,33Z"/><path class="cls-1" d="M43.18,33.49c0-1.72,0-3.43,0-5.14,0-.94.32-1.62,1.34-1.61A46.79,46.79,0,0,1,50,27a3.84,3.84,0,0,1,3.25,3.82,3.78,3.78,0,0,1-3,4.16,9,9,0,0,1-3,.22c-1.58-.18-2,.5-1.83,1.91a4.29,4.29,0,0,1,0,1.75,6.28,6.28,0,0,1-1,1.5c-.37-.53-1-1-1.07-1.59a13,13,0,0,1,0-2.72V33.49Zm2.17-2.69c0,2.43,0,2.49,1.92,2.51,2.56,0,3.64-.65,3.66-2.31s-.92-2.34-3.39-2.38C45.38,28.58,45.38,28.58,45.35,30.8Z"/><path class="cls-1" d="M32.35,37l2.37-6.71a15.07,15.07,0,0,1,.94-2.54c.25-.43.93-.6,1.42-.88.22.52.73,1.15.59,1.55q-1.94,5.6-4.1,11.11a1.77,1.77,0,0,1-1.33.83,1.54,1.54,0,0,1-1.17-.82c-1.42-3.68-2.8-7.38-4.09-11.11-.14-.4.38-1,.59-1.56.51.34,1.3.56,1.48,1,.92,2.33,1.67,4.72,2.49,7.09C31.73,35.49,32,36,32.35,37Z"/><path class="cls-1" d="M41.12,33.63c0,1.71,0,3.42,0,5.13,0,.77,0,1.7-1,1.52a1.82,1.82,0,0,1-1-1.41q-.13-5.37,0-10.73c0-.46.64-.92,1-1.38.38.48,1,.93,1.08,1.43.13,1.81,0,3.63,0,5.44Z"/></svg>