<svg id="Layer_1" data-name="Layer 1" xmlns="http://www.w3.org/2000/svg" viewBox="0 0 80 80"><defs><style>.cls-1{fill:#fff;}</style></defs><path class="cls-1" d="M57.49,35.08A14.59,14.59,0,0,1,56,37.55c-1.5,1.61-3.16,3.05-4.66,4.65a2.48,2.48,0,0,0-.6,1.78c.27,2.28.7,4.54,1.09,6.8.23,1.33,0,2.67-1.22,3.21a5.05,5.05,0,0,1-3.44.22,45.62,45.62,0,0,1-6-3.07,2.13,2.13,0,0,0-2.36,0c-1.81,1-3.68,2-5.52,2.93A3.41,3.41,0,0,1,29.36,54a3.32,3.32,0,0,1-1.13-3.6c.42-2,.68-4,1.06-6a2.42,2.42,0,0,0-.82-2.55c-1.56-1.37-3-2.9-4.51-4.33a3.33,3.33,0,0,1-1-3.64,3.08,3.08,0,0,1,2.89-2.15c2.12-.27,4.25-.52,6.34-1a3.22,3.22,0,0,0,1.89-1.36c1-1.8,1.91-3.7,2.79-5.58A3.35,3.35,0,0,1,40,21.58a3.39,3.39,0,0,1,3.14,2.33c.87,1.84,1.86,3.61,2.67,5.47A2.36,2.36,0,0,0,48,30.89c2.22.26,4.44.61,6.65,1A3.47,3.47,0,0,1,57.49,35.08Zm-32.44-.5c2.3,2.38,4.18,4.41,6.16,6.34a2.6,2.6,0,0,1,.86,2.57c-.3,1.58-.59,3.15-.84,4.74-.19,1.22-.33,2.45-.54,4.08.89-.38,1.38-.55,1.83-.78,2-1,4-2,5.95-3.14a2.76,2.76,0,0,1,3,0c2,1.13,4.05,2.18,6.1,3.21a5.75,5.75,0,0,0,1.46.32,7.21,7.21,0,0,0,.08-1.53c-.35-2.27-.74-4.54-1.17-6.79a2.66,2.66,0,0,1,.91-2.71c1.7-1.55,3.31-3.19,4.95-4.81.34-.35.62-.76,1-1.26a5.46,5.46,0,0,0-1.09-.47c-2.22-.35-4.43-.75-6.66-1a3.44,3.44,0,0,1-3.31-2.23c-.8-2-1.85-3.86-2.82-5.76a18.22,18.22,0,0,0-1-1.61,37.68,37.68,0,0,0-2.42,4.86c-1.14,3.58-3.44,5.18-7.18,5.14A31.54,31.54,0,0,0,25.05,34.58Z"/><path class="cls-1" d="M38.68,66.57a3.52,3.52,0,0,1,0-1.42,7.4,7.4,0,0,1,1.19-1.46c.46.43,1.23.81,1.31,1.31a11.11,11.11,0,0,1,0,3.5A1.69,1.69,0,0,1,40,69.6c-.43,0-1-.64-1.23-1.13a5.71,5.71,0,0,1,0-1.9Z"/><path class="cls-1" d="M18.35,49.87c-.45.69-.59,1.17-.9,1.34A18.82,18.82,0,0,1,14,52.79a1.75,1.75,0,0,1-1.5-.71,1.54,1.54,0,0,1,.42-1.46A15.22,15.22,0,0,1,16.53,49C17,48.87,17.62,49.5,18.35,49.87Z"/><path class="cls-1" d="M25.94,59.56a1.27,1.27,0,0,1,1.19,1.94,16.7,16.7,0,0,1-2,3,1.62,1.62,0,0,1-1.5.3c-.34-.12-.77-1-.64-1.23a45.5,45.5,0,0,1,2.48-3.83C25.54,59.63,25.82,59.61,25.94,59.56Z"/><path class="cls-1" d="M65.22,36.94c-.29-.29-1.06-.72-1.07-1.17a1.89,1.89,0,0,1,1.11-1.38,9.16,9.16,0,0,1,3.15-.51c.53,0,1.06.62,1.58.95-.35.51-.61,1.3-1.09,1.46A23.56,23.56,0,0,1,65.22,36.94Z"/><path class="cls-1" d="M63.22,48.7c1.46.74,2.81,1.34,4,2.12a1.38,1.38,0,0,1,.18,1.37,1.69,1.69,0,0,1-1.41.62,16.11,16.11,0,0,1-3.45-1.59,1.74,1.74,0,0,1-.46-1.5C62.19,49.35,62.8,49.07,63.22,48.7Z"/><path class="cls-1" d="M14.7,36.92a21.24,21.24,0,0,1-3.57-.61c-.48-.17-.75-.93-1.12-1.42.5-.36,1-1,1.5-1a8.49,8.49,0,0,1,3.11.5c.54.2,1.25.94,1.23,1.41S15,36.67,14.7,36.92Z"/><path class="cls-1" d="M34,15c-.31.34-.62,1-1,1.05a1.62,1.62,0,0,1-1.43-.58,16.16,16.16,0,0,1-1.13-3.66c-.07-.41.42-1.26.77-1.32a1.74,1.74,0,0,1,1.53.62A31,31,0,0,1,34,15Z"/><path class="cls-1" d="M21.91,22.58c-.12,1.08-.85,1.63-1.65,1.13a19.28,19.28,0,0,1-3.35-2.92c-.19-.19,0-1,.22-1.28s1-.55,1.24-.38C19.56,20,20.66,21,21.77,22,21.9,22.12,21.87,22.41,21.91,22.58Z"/><path class="cls-1" d="M46,14.94a29.53,29.53,0,0,1,1.25-3.79,1.69,1.69,0,0,1,1.48-.73,1.66,1.66,0,0,1,.86,1.38,13.2,13.2,0,0,1-1.05,3.48,1.74,1.74,0,0,1-1.49.72C46.61,15.93,46.27,15.24,46,14.94Z"/><path class="cls-1" d="M57.46,63.71c-.52.57-.78,1.09-1.14,1.18a1.66,1.66,0,0,1-1.4-.29,19.23,19.23,0,0,1-2.07-3.2A1.63,1.63,0,0,1,53.1,60c.21-.27,1.09-.43,1.23-.27C55.41,61,56.38,62.3,57.46,63.71Z"/><path class="cls-1" d="M61.62,18.77c1.27.27,2,1.47,1.38,2.2a14.31,14.31,0,0,1-3.15,2.66c-.94.58-2.15-.43-1.61-1.26A27.23,27.23,0,0,1,61.62,18.77Z"/></svg>