<svg xmlns="http://www.w3.org/2000/svg" width="669.307" height="796.313" viewBox="0 0 669.307 796.313">
    <defs>
        <style>
            .cls-1{opacity:.2}.cls-2{fill:#192a44}.cls-3{fill:none;stroke:#192a44;stroke-miterlimit:10;stroke-width:2px}.cls-4{opacity:.15}
        </style>
    </defs>
    <g id="Group_457" data-name="Group 457" transform="translate(-75 -158.001)">
        <g id="Group_453" data-name="Group 453" class="cls-1" transform="translate(445.523 -210.283)">
            <g id="Group_226" data-name="Group 226" transform="translate(60.477 368.284)">
                <g id="Group_218" data-name="Group 218" transform="translate(0 82.616)">
                    <path id="Path_792" data-name="Path 792" class="cls-2" d="M64.385 409.152a1.954 1.954 0 1 1-1.955-1.952 1.955 1.955 0 0 1 1.955 1.952z" transform="translate(-60.477 -407.199)"/>
                    <path id="Path_793" data-name="Path 793" class="cls-2" d="M70.275 409.152a1.954 1.954 0 1 1-1.955-1.952 1.954 1.954 0 0 1 1.955 1.952z" transform="translate(-53.863 -407.199)"/>
                    <path id="Path_794" data-name="Path 794" class="cls-2" d="M76.165 409.152a1.954 1.954 0 1 1-1.955-1.952 1.954 1.954 0 0 1 1.955 1.952z" transform="translate(-47.248 -407.199)"/>
                    <path id="Path_795" data-name="Path 795" class="cls-2" d="M82.055 409.152A1.954 1.954 0 1 1 80.1 407.2a1.953 1.953 0 0 1 1.955 1.952z" transform="translate(-40.634 -407.199)"/>
                    <path id="Path_796" data-name="Path 796" class="cls-2" d="M87.944 409.152a1.953 1.953 0 1 1-1.953-1.953 1.953 1.953 0 0 1 1.953 1.953z" transform="translate(-34.018 -407.199)"/>
                    <path id="Path_797" data-name="Path 797" class="cls-2" d="M93.834 409.152a1.953 1.953 0 1 1-1.953-1.953 1.953 1.953 0 0 1 1.953 1.953z" transform="translate(-27.404 -407.199)"/>
                    <path id="Path_798" data-name="Path 798" class="cls-2" d="M99.726 409.152a1.954 1.954 0 1 1-1.955-1.953 1.954 1.954 0 0 1 1.955 1.953z" transform="translate(-20.79 -407.199)"/>
                    <path id="Path_799" data-name="Path 799" class="cls-2" d="M105.616 409.152a1.954 1.954 0 1 1-1.955-1.953 1.954 1.954 0 0 1 1.955 1.953z" transform="translate(-14.175 -407.199)"/>
                </g>
                <g id="Group_219" data-name="Group 219" transform="translate(0 70.812)">
                    <path id="Path_800" data-name="Path 800" class="cls-2" d="M64.385 403.594a1.954 1.954 0 1 1-1.955-1.955 1.955 1.955 0 0 1 1.955 1.955z" transform="translate(-60.477 -401.639)"/>
                    <path id="Path_801" data-name="Path 801" class="cls-2" d="M70.275 403.594a1.954 1.954 0 1 1-1.955-1.955 1.954 1.954 0 0 1 1.955 1.955z" transform="translate(-53.863 -401.639)"/>
                    <path id="Path_802" data-name="Path 802" class="cls-2" d="M76.165 403.594a1.954 1.954 0 1 1-1.955-1.955 1.954 1.954 0 0 1 1.955 1.955z" transform="translate(-47.248 -401.639)"/>
                    <path id="Path_803" data-name="Path 803" class="cls-2" d="M82.055 403.594a1.954 1.954 0 1 1-1.953-1.955 1.953 1.953 0 0 1 1.953 1.955z" transform="translate(-40.634 -401.639)"/>
                    <path id="Path_804" data-name="Path 804" class="cls-2" d="M87.944 403.594a1.953 1.953 0 1 1-1.953-1.955 1.953 1.953 0 0 1 1.953 1.955z" transform="translate(-34.018 -401.639)"/>
                    <path id="Path_805" data-name="Path 805" class="cls-2" d="M93.834 403.594a1.953 1.953 0 1 1-1.953-1.955 1.953 1.953 0 0 1 1.953 1.955z" transform="translate(-27.404 -401.639)"/>
                    <path id="Path_806" data-name="Path 806" class="cls-2" d="M99.726 403.594a1.954 1.954 0 1 1-1.955-1.955 1.954 1.954 0 0 1 1.955 1.955z" transform="translate(-20.79 -401.639)"/>
                    <path id="Path_807" data-name="Path 807" class="cls-2" d="M105.616 403.594a1.954 1.954 0 1 1-1.955-1.955 1.954 1.954 0 0 1 1.955 1.955z" transform="translate(-14.175 -401.639)"/>
                </g>
                <g id="Group_220" data-name="Group 220" transform="translate(0 59.01)">
                    <path id="Path_808" data-name="Path 808" class="cls-2" d="M64.385 398.035a1.954 1.954 0 1 1-1.955-1.955 1.955 1.955 0 0 1 1.955 1.955z" transform="translate(-60.477 -396.08)"/>
                    <path id="Path_809" data-name="Path 809" class="cls-2" d="M70.275 398.035a1.954 1.954 0 1 1-1.955-1.955 1.954 1.954 0 0 1 1.955 1.955z" transform="translate(-53.863 -396.08)"/>
                    <path id="Path_810" data-name="Path 810" class="cls-2" d="M76.165 398.035a1.954 1.954 0 1 1-1.955-1.955 1.954 1.954 0 0 1 1.955 1.955z" transform="translate(-47.248 -396.08)"/>
                    <path id="Path_811" data-name="Path 811" class="cls-2" d="M82.055 398.035a1.954 1.954 0 1 1-1.955-1.955 1.953 1.953 0 0 1 1.955 1.955z" transform="translate(-40.634 -396.08)"/>
                    <path id="Path_812" data-name="Path 812" class="cls-2" d="M87.944 398.035a1.953 1.953 0 1 1-1.953-1.955 1.953 1.953 0 0 1 1.953 1.955z" transform="translate(-34.018 -396.08)"/>
                    <path id="Path_813" data-name="Path 813" class="cls-2" d="M93.834 398.035a1.953 1.953 0 1 1-1.953-1.955 1.953 1.953 0 0 1 1.953 1.955z" transform="translate(-27.404 -396.08)"/>
                    <path id="Path_814" data-name="Path 814" class="cls-2" d="M99.726 398.035a1.954 1.954 0 1 1-1.955-1.955 1.954 1.954 0 0 1 1.955 1.955z" transform="translate(-20.79 -396.08)"/>
                    <path id="Path_815" data-name="Path 815" class="cls-2" d="M105.616 398.035a1.954 1.954 0 1 1-1.955-1.955 1.954 1.954 0 0 1 1.955 1.955z" transform="translate(-14.175 -396.08)"/>
                </g>
                <g id="Group_221" data-name="Group 221" transform="translate(0 47.209)">
                    <path id="Path_816" data-name="Path 816" class="cls-2" d="M64.385 392.474a1.954 1.954 0 1 1-1.955-1.953 1.956 1.956 0 0 1 1.955 1.953z" transform="translate(-60.477 -390.521)"/>
                    <path id="Path_817" data-name="Path 817" class="cls-2" d="M70.275 392.474a1.954 1.954 0 1 1-1.955-1.953 1.954 1.954 0 0 1 1.955 1.953z" transform="translate(-53.863 -390.521)"/>
                    <path id="Path_818" data-name="Path 818" class="cls-2" d="M76.165 392.474a1.954 1.954 0 1 1-1.955-1.953 1.954 1.954 0 0 1 1.955 1.953z" transform="translate(-47.248 -390.521)"/>
                    <path id="Path_819" data-name="Path 819" class="cls-2" d="M82.055 392.474a1.954 1.954 0 1 1-1.953-1.953 1.954 1.954 0 0 1 1.953 1.953z" transform="translate(-40.634 -390.521)"/>
                    <path id="Path_820" data-name="Path 820" class="cls-2" d="M87.944 392.474a1.953 1.953 0 1 1-1.953-1.953 1.954 1.954 0 0 1 1.953 1.953z" transform="translate(-34.018 -390.521)"/>
                    <path id="Path_821" data-name="Path 821" class="cls-2" d="M93.834 392.474a1.953 1.953 0 1 1-1.953-1.953 1.954 1.954 0 0 1 1.953 1.953z" transform="translate(-27.404 -390.521)"/>
                    <path id="Path_822" data-name="Path 822" class="cls-2" d="M99.726 392.474a1.954 1.954 0 1 1-1.955-1.953 1.954 1.954 0 0 1 1.955 1.953z" transform="translate(-20.79 -390.521)"/>
                    <path id="Path_823" data-name="Path 823" class="cls-2" d="M105.616 392.474a1.954 1.954 0 1 1-1.955-1.953 1.954 1.954 0 0 1 1.955 1.953z" transform="translate(-14.175 -390.521)"/>
                </g>
                <g id="Group_222" data-name="Group 222" transform="translate(0 35.407)">
                    <path id="Path_824" data-name="Path 824" class="cls-2" d="M64.385 386.915a1.954 1.954 0 1 1-1.955-1.953 1.955 1.955 0 0 1 1.955 1.953z" transform="translate(-60.477 -384.962)"/>
                    <path id="Path_825" data-name="Path 825" class="cls-2" d="M70.275 386.915a1.954 1.954 0 1 1-1.955-1.953 1.954 1.954 0 0 1 1.955 1.953z" transform="translate(-53.863 -384.962)"/>
                    <path id="Path_826" data-name="Path 826" class="cls-2" d="M76.165 386.915a1.954 1.954 0 1 1-1.955-1.953 1.954 1.954 0 0 1 1.955 1.953z" transform="translate(-47.248 -384.962)"/>
                    <path id="Path_827" data-name="Path 827" class="cls-2" d="M82.055 386.915a1.954 1.954 0 1 1-1.953-1.953 1.953 1.953 0 0 1 1.953 1.953z" transform="translate(-40.634 -384.962)"/>
                    <path id="Path_828" data-name="Path 828" class="cls-2" d="M87.944 386.915a1.953 1.953 0 1 1-1.953-1.953 1.953 1.953 0 0 1 1.953 1.953z" transform="translate(-34.018 -384.962)"/>
                    <path id="Path_829" data-name="Path 829" class="cls-2" d="M93.834 386.915a1.953 1.953 0 1 1-1.953-1.953 1.953 1.953 0 0 1 1.953 1.953z" transform="translate(-27.404 -384.962)"/>
                    <path id="Path_830" data-name="Path 830" class="cls-2" d="M99.726 386.915a1.954 1.954 0 1 1-1.955-1.953 1.954 1.954 0 0 1 1.955 1.953z" transform="translate(-20.79 -384.962)"/>
                    <path id="Path_831" data-name="Path 831" class="cls-2" d="M105.616 386.915a1.954 1.954 0 1 1-1.955-1.953 1.954 1.954 0 0 1 1.955 1.953z" transform="translate(-14.175 -384.962)"/>
                </g>
                <g id="Group_223" data-name="Group 223" transform="translate(0 23.605)">
                    <path id="Path_832" data-name="Path 832" class="cls-2" d="M64.385 381.356a1.954 1.954 0 1 1-1.955-1.956 1.955 1.955 0 0 1 1.955 1.956z" transform="translate(-60.477 -379.403)"/>
                    <path id="Path_833" data-name="Path 833" class="cls-2" d="M70.275 381.356a1.954 1.954 0 1 1-1.955-1.956 1.954 1.954 0 0 1 1.955 1.956z" transform="translate(-53.863 -379.403)"/>
                    <path id="Path_834" data-name="Path 834" class="cls-2" d="M76.165 381.356a1.954 1.954 0 1 1-1.955-1.956 1.954 1.954 0 0 1 1.955 1.956z" transform="translate(-47.248 -379.403)"/>
                    <path id="Path_835" data-name="Path 835" class="cls-2" d="M82.055 381.356A1.954 1.954 0 1 1 80.1 379.4a1.954 1.954 0 0 1 1.955 1.956z" transform="translate(-40.634 -379.403)"/>
                    <path id="Path_836" data-name="Path 836" class="cls-2" d="M87.944 381.356a1.953 1.953 0 1 1-1.953-1.953 1.953 1.953 0 0 1 1.953 1.953z" transform="translate(-34.018 -379.403)"/>
                    <path id="Path_837" data-name="Path 837" class="cls-2" d="M93.834 381.356a1.953 1.953 0 1 1-1.953-1.953 1.954 1.954 0 0 1 1.953 1.953z" transform="translate(-27.404 -379.403)"/>
                    <path id="Path_838" data-name="Path 838" class="cls-2" d="M99.726 381.356a1.954 1.954 0 1 1-1.955-1.953 1.954 1.954 0 0 1 1.955 1.953z" transform="translate(-20.79 -379.403)"/>
                    <path id="Path_839" data-name="Path 839" class="cls-2" d="M105.616 381.356a1.954 1.954 0 1 1-1.955-1.953 1.954 1.954 0 0 1 1.955 1.953z" transform="translate(-14.175 -379.403)"/>
                </g>
                <g id="Group_224" data-name="Group 224" transform="translate(0 11.802)">
                    <path id="Path_840" data-name="Path 840" class="cls-2" d="M64.385 375.8a1.954 1.954 0 1 1-1.955-1.955 1.955 1.955 0 0 1 1.955 1.955z" transform="translate(-60.477 -373.843)"/>
                    <path id="Path_841" data-name="Path 841" class="cls-2" d="M70.275 375.8a1.954 1.954 0 1 1-1.955-1.955 1.954 1.954 0 0 1 1.955 1.955z" transform="translate(-53.863 -373.843)"/>
                    <path id="Path_842" data-name="Path 842" class="cls-2" d="M76.165 375.8a1.954 1.954 0 1 1-1.955-1.955 1.954 1.954 0 0 1 1.955 1.955z" transform="translate(-47.248 -373.843)"/>
                    <path id="Path_843" data-name="Path 843" class="cls-2" d="M82.055 375.8a1.954 1.954 0 1 1-1.953-1.955 1.953 1.953 0 0 1 1.953 1.955z" transform="translate(-40.634 -373.843)"/>
                    <path id="Path_844" data-name="Path 844" class="cls-2" d="M87.944 375.8a1.953 1.953 0 1 1-1.953-1.955 1.953 1.953 0 0 1 1.953 1.955z" transform="translate(-34.018 -373.843)"/>
                    <path id="Path_845" data-name="Path 845" class="cls-2" d="M93.834 375.8a1.953 1.953 0 1 1-1.953-1.955 1.953 1.953 0 0 1 1.953 1.955z" transform="translate(-27.404 -373.843)"/>
                    <path id="Path_846" data-name="Path 846" class="cls-2" d="M99.726 375.8a1.954 1.954 0 1 1-1.955-1.955 1.954 1.954 0 0 1 1.955 1.955z" transform="translate(-20.79 -373.843)"/>
                    <path id="Path_847" data-name="Path 847" class="cls-2" d="M105.616 375.8a1.954 1.954 0 1 1-1.955-1.955 1.954 1.954 0 0 1 1.955 1.955z" transform="translate(-14.175 -373.843)"/>
                </g>
                <g id="Group_225" data-name="Group 225">
                    <path id="Path_848" data-name="Path 848" class="cls-2" d="M64.385 370.237a1.954 1.954 0 1 1-1.955-1.953 1.956 1.956 0 0 1 1.955 1.953z" transform="translate(-60.477 -368.284)"/>
                    <path id="Path_849" data-name="Path 849" class="cls-2" d="M70.275 370.237a1.954 1.954 0 1 1-1.955-1.953 1.954 1.954 0 0 1 1.955 1.953z" transform="translate(-53.863 -368.284)"/>
                    <path id="Path_850" data-name="Path 850" class="cls-2" d="M76.165 370.237a1.954 1.954 0 1 1-1.955-1.953 1.954 1.954 0 0 1 1.955 1.953z" transform="translate(-47.248 -368.284)"/>
                    <path id="Path_851" data-name="Path 851" class="cls-2" d="M82.055 370.237a1.954 1.954 0 1 1-1.953-1.953 1.954 1.954 0 0 1 1.953 1.953z" transform="translate(-40.634 -368.284)"/>
                    <path id="Path_852" data-name="Path 852" class="cls-2" d="M87.944 370.237a1.953 1.953 0 1 1-1.953-1.953 1.954 1.954 0 0 1 1.953 1.953z" transform="translate(-34.018 -368.284)"/>
                    <path id="Path_853" data-name="Path 853" class="cls-2" d="M93.834 370.237a1.953 1.953 0 1 1-1.953-1.953 1.954 1.954 0 0 1 1.953 1.953z" transform="translate(-27.404 -368.284)"/>
                    <path id="Path_854" data-name="Path 854" class="cls-2" d="M99.726 370.237a1.954 1.954 0 1 1-1.955-1.953 1.954 1.954 0 0 1 1.955 1.953z" transform="translate(-20.79 -368.284)"/>
                    <path id="Path_855" data-name="Path 855" class="cls-2" d="M105.616 370.237a1.954 1.954 0 1 1-1.955-1.953 1.954 1.954 0 0 1 1.955 1.953z" transform="translate(-14.175 -368.284)"/>
                </g>
            </g>
            <rect id="Rectangle_17" data-name="Rectangle 17" class="cls-3" width="86.82" height="86.819" rx="1.633" transform="translate(104.277 409.503)"/>
        </g>
        <g id="Group_454" data-name="Group 454" class="cls-4" transform="translate(14.59 241.482)">
            <path id="Path_679" data-name="Path 679" class="cls-2" d="M60.41 53.518 78.393 63.9 60.41 74.282z"/>
            <path id="Path_680" data-name="Path 680" class="cls-2" d="M74.63 53.518 92.613 63.9 74.63 74.282z" transform="translate(11.767)"/>
            <path id="Path_681" data-name="Path 681" class="cls-2" d="M88.851 53.518 106.833 63.9 88.851 74.282z" transform="translate(23.535)"/>
            <path id="Path_682" data-name="Path 682" class="cls-2" d="M103.071 53.518 121.054 63.9l-17.983 10.382z" transform="translate(35.302)"/>
            <path id="Path_683" data-name="Path 683" class="cls-2" d="M117.291 53.518 135.274 63.9l-17.983 10.382z" transform="translate(47.07)"/>
        </g>
        <g id="Group_455" data-name="Group 455" class="cls-4" transform="translate(311.656 880.031)">
            <path id="Path_679-2" data-name="Path 679" class="cls-2" d="M60.41 53.518 78.393 63.9 60.41 74.282z"/>
            <path id="Path_680-2" data-name="Path 680" class="cls-2" d="M74.63 53.518 92.613 63.9 74.63 74.282z" transform="translate(11.767)"/>
            <path id="Path_681-2" data-name="Path 681" class="cls-2" d="M88.851 53.518 106.833 63.9 88.851 74.282z" transform="translate(23.535)"/>
            <path id="Path_682-2" data-name="Path 682" class="cls-2" d="M103.071 53.518 121.054 63.9l-17.983 10.382z" transform="translate(35.302)"/>
            <path id="Path_683-2" data-name="Path 683" class="cls-2" d="M117.291 53.518 135.274 63.9l-17.983 10.382z" transform="translate(47.07)"/>
        </g>
        <g id="Group_456" data-name="Group 456" class="cls-1" transform="translate(459.766 431.764)">
            <rect id="Rectangle_18" data-name="Rectangle 18" class="cls-3" width="69.928" height="69.928" rx=".841" transform="rotate(45 -288.733 450.072)"/>
            <rect id="Rectangle_19" data-name="Rectangle 19" class="cls-2" width="29.723" height="29.723" rx=".358" transform="rotate(45 -323.05 464.286)"/>
        </g>
    </g>
</svg>
