<svg xmlns="http://www.w3.org/2000/svg" width="63" height="63" viewBox="0 0 63 63">
    <g data-name="Group 764" transform="translate(-228 -10440)">
        <rect data-name="Rectangle 238" width="63" height="63" rx="11" transform="translate(228 10440)" style="fill:#da540a"/>
        <path data-name="Icon ionic-md-call" d="M35.84 27.544a21.637 21.637 0 0 1-6.54-1.013 1.724 1.724 0 0 0-1.843.461L23.4 31.047a27.723 27.723 0 0 1-12.171-12.168l4.056-4.055a1.921 1.921 0 0 0 .461-1.844 20.049 20.049 0 0 1-1.106-6.637A1.849 1.849 0 0 0 12.8 4.5H6.344A1.849 1.849 0 0 0 4.5 6.344a31.314 31.314 0 0 0 31.34 31.34 1.849 1.849 0 0 0 1.844-1.844v-6.452a1.849 1.849 0 0 0-1.844-1.844z" transform="translate(238.5 10450.5)" style="fill:#fff"/>
    </g>
</svg>
