<svg xmlns="http://www.w3.org/2000/svg" width="119.611" height="118.445" viewBox="0 0 119.611 118.445">
  <g id="Group_3516" data-name="Group 3516" transform="translate(-2027.895 -422.435)">
    <path id="Path_6410" data-name="Path 6410" d="M2146.706,481.6c0,10.192-.064,20.386.049,30.577.026,2.345-.607,3.653-2.888,4.616-17.871,7.541-35.668,15.257-53.55,22.771a7.222,7.222,0,0,1-5.062.064c-17.88-7.517-35.673-15.241-53.534-22.8-2.175-.921-3.087-2.022-3.075-4.477q.141-30.738.012-61.477c-.007-2.107.593-3.249,2.628-4.112,18.058-7.648,36.052-15.445,54.118-23.074a6.375,6.375,0,0,1,4.478-.047c18.171,7.656,36.269,15.484,54.428,23.171,1.934.819,2.454,1.915,2.438,3.891C2146.66,461,2146.706,471.3,2146.706,481.6Zm-60.425,55.754c.089-1.128.166-1.659.166-2.188.007-19.418-.03-38.835.055-58.252.009-2.112-.847-2.961-2.643-3.723-16.671-7.071-33.3-14.232-49.955-21.351a22.515,22.515,0,0,0-2.381-.716,12.512,12.512,0,0,0-.23,1.559c-.013,19.632.016,39.265-.065,58.9-.009,2.1,1.132,2.708,2.7,3.373q14.946,6.336,29.855,12.764C2071.146,530.867,2078.507,534.021,2086.282,537.353Zm57.634-86.283a14.28,14.28,0,0,0-1.658.433c-17.045,7.294-34.072,14.632-51.147,21.855-1.909.808-2.12,2.01-2.116,3.745q.055,28,.023,56v4.129c1.674-.629,2.868-1.025,4.022-1.519,16.056-6.879,32.085-13.82,48.182-20.6,2.261-.953,2.929-2.156,2.917-4.535-.1-18.775-.052-37.551-.061-56.327C2144.076,453.307,2143.983,452.361,2143.916,451.069Zm-110.194-2.5a22.634,22.634,0,0,0,1.975,1.141c16.745,7.2,33.48,14.421,50.276,21.5a5.994,5.994,0,0,0,4.168-.287c16.294-6.886,32.542-13.878,48.8-20.857.8-.345,1.553-.811,2.5-1.313a7.566,7.566,0,0,0-.88-.619c-17.041-7.321-34.071-14.67-51.162-21.873a6.1,6.1,0,0,0-4.195.284c-7.239,2.97-14.4,6.124-21.594,9.21C2053.78,439.966,2043.951,444.178,2033.722,448.565Z" transform="translate(0 0)" fill="#ff6c1a" stroke="#ff6c1a" stroke-width="1.5"/>
  </g>
</svg>
