<svg id="digital-icon" xmlns="http://www.w3.org/2000/svg" width="101.709" height="109.05" viewBox="0 0 101.709 109.05">
  <path id="Path_6409" data-name="Path 6409" d="M53.02,23.288a9.726,9.726,0,0,0-2.512,2.725.434.434,0,0,1-.142.142.5.5,0,0,1-.683-.142,9.994,9.994,0,0,0-2.512-2.725,8.02,8.02,0,0,0-3.16-1.393h-.018a8.6,8.6,0,0,0-3.231-.036A9.539,9.539,0,0,0,37.6,23.031a10,10,0,0,0-2.556,2.121,9.024,9.024,0,0,0-1.633,2.734h0a3.93,3.93,0,0,0-.16.488,4.067,4.067,0,0,0-.124.5.486.486,0,0,1-.47.391,9.292,9.292,0,0,0-3.337,1.207,11.5,11.5,0,0,0-2.938,2.547,12.78,12.78,0,0,0-2.077,3.63,13.511,13.511,0,0,0-.825,4.18c-.009.2-.009.382-.009.577,0,.178.009.364.009.559a.513.513,0,0,1-.2.435,17.024,17.024,0,0,0-1.89,1.562,14.1,14.1,0,0,0-1.509,1.713,11.4,11.4,0,0,0-1.58,2.982,10.357,10.357,0,0,0-.559,3.2,10.2,10.2,0,0,0,.417,3.018,11.625,11.625,0,0,0,1.3,2.876h0a13.575,13.575,0,0,0,2.423,2.893.521.521,0,0,1,.151.462,12.012,12.012,0,0,0-.231,1.917,11.318,11.318,0,0,0,1.074,5.148,12.494,12.494,0,0,0,1.89,2.92c.213.248.444.5.675.728l1.038-3.9a7.735,7.735,0,0,1-.586-1.065,8.582,8.582,0,0,1-.7-2.308v-.018a7.173,7.173,0,0,1-.036-1.855,8.332,8.332,0,0,1,.4-1.837l.009-.027a1.729,1.729,0,0,0,.009-1.038l-.009-.018a1.682,1.682,0,0,0-.639-.852l-.018-.018a10.559,10.559,0,0,1-1.473-1.322,9.85,9.85,0,0,1-1.163-1.518,8.415,8.415,0,0,1-.905-2.024,7.282,7.282,0,0,1-.293-2.095,6.8,6.8,0,0,1,.391-2.192,8.02,8.02,0,0,1,1.1-2.059A10.311,10.311,0,0,1,24.1,46.009a13.71,13.71,0,0,1,2.024-1.482,1.585,1.585,0,0,0,.621-.683l.009-.027A1.611,1.611,0,0,0,26.9,42.9a.432.432,0,0,1-.009-.106v-.018c-.044-.3-.071-.595-.089-.888-.018-.32-.018-.63-.009-.941a10.277,10.277,0,0,1,.6-3.115,9.619,9.619,0,0,1,1.535-2.707,8.141,8.141,0,0,1,1.74-1.6,6.221,6.221,0,0,1,1.953-.888h0a.49.49,0,0,1,.612.328A8.216,8.216,0,0,0,35.7,36.876l.053.044a1.56,1.56,0,0,0,1.127.408,1.544,1.544,0,0,0,1.083-.5l.027-.036a1.56,1.56,0,0,0,.408-1.127,1.621,1.621,0,0,0-.515-1.109,4.833,4.833,0,0,1-1.562-2.494,4.724,4.724,0,0,1,.053-3.133,5.676,5.676,0,0,1,1.092-1.811,6.8,6.8,0,0,1,1.669-1.385l.027-.018a6.549,6.549,0,0,1,2.077-.781,5.5,5.5,0,0,1,2.086.009A5.3,5.3,0,0,1,46.1,26.554a9.182,9.182,0,0,1,1.917,3.266l.009.018a1.728,1.728,0,0,0,1.438,1,3.775,3.775,0,0,0,.95.062h.009a3.946,3.946,0,0,0,.923-.169,1.4,1.4,0,0,0,1-.79v-.2a4.523,4.523,0,0,1,1.4-2.9,6.388,6.388,0,0,1,3.071-1.882,5.642,5.642,0,0,1,1.89-.044,6.7,6.7,0,0,1,1.873.6l.053.018a6.957,6.957,0,0,1,1.642,1.163,6.5,6.5,0,0,1,1.2,1.553,4.746,4.746,0,0,1,.55,3,3.943,3.943,0,0,1-.967,2.494l-.009.009a1.586,1.586,0,0,0,.169,2.21l.053.044a1.59,1.59,0,0,0,2.192-.186l.044-.062a7.026,7.026,0,0,0,1.456-2.92h0a.51.51,0,0,1,.444-.346,4.53,4.53,0,0,1,1.092.053,6.553,6.553,0,0,1,1.127.284A8.228,8.228,0,0,1,71.7,33.9,9.185,9.185,0,0,1,73.5,35.545l.009.018a9.314,9.314,0,0,1,1.376,2.192,8.4,8.4,0,0,1,.648,2.4,7.688,7.688,0,0,1-.009,1.748,8.008,8.008,0,0,1-.382,1.7l-.009.035a1.745,1.745,0,0,0,0,1.065,1.633,1.633,0,0,0,.657.852l.027.018A11.324,11.324,0,0,1,77.4,47a9.747,9.747,0,0,1,1.225,1.66,7.923,7.923,0,0,1,.843,1.988,6.649,6.649,0,0,1,.249,2.032,6.579,6.579,0,0,1-.4,2.086A7.8,7.8,0,0,1,78.27,56.7l-.009.009a10.14,10.14,0,0,1-1.571,1.669,14.472,14.472,0,0,1-2.077,1.464l-.027.018a1.56,1.56,0,0,0-.683.772,1.693,1.693,0,0,0-.107,1l.009.071a10.728,10.728,0,0,1-.08,3.213l1.961,4.393A13.35,13.35,0,0,0,76.743,66.7a13.863,13.863,0,0,0,.5-4.26.485.485,0,0,1,.213-.444,16.508,16.508,0,0,0,1.961-1.571,13.461,13.461,0,0,0,1.553-1.748h0A10.8,10.8,0,0,0,82.5,55.816a10.371,10.371,0,0,0,.577-3.08,10.732,10.732,0,0,0-.346-2.955,11.2,11.2,0,0,0-1.18-2.822l-.018-.018a12.706,12.706,0,0,0-1.189-1.7A14.286,14.286,0,0,0,78.865,43.7a.5.5,0,0,1-.16-.47,12.043,12.043,0,0,0,.222-1.757,11.277,11.277,0,0,0-.959-5.1,12.6,12.6,0,0,0-1.89-3.026,13.008,13.008,0,0,0-2.485-2.263,11.238,11.238,0,0,0-2.849-1.456l-.027-.009a9.235,9.235,0,0,0-1.571-.391h-.018A8.911,8.911,0,0,0,67.6,29.11a.5.5,0,0,1-.515-.373,8.046,8.046,0,0,0-.328-1.021,9.284,9.284,0,0,0-2.245-3.31,10.419,10.419,0,0,0-2.441-1.731,9.628,9.628,0,0,0-2.938-.932,8.714,8.714,0,0,0-2.955.089,9.77,9.77,0,0,0-3.16,1.455ZM42.405,81.518a1.5,1.5,0,0,1-.24-.151c-.967-.763-2.032-1.633-2.955-2.379-1.34-1.1-2.884-2.37-3.958-3.266a5.611,5.611,0,0,0-2.361-1.189,2.569,2.569,0,0,0-1.34.053,1.421,1.421,0,0,0-.719.737,4.678,4.678,0,0,0-.275,2.148,8.46,8.46,0,0,0,.737,2.663,16.5,16.5,0,0,0,1.944,3.275.519.519,0,0,1,.089.151l11.609,16.579a1.444,1.444,0,0,1,.257.692,10.518,10.518,0,0,0,1.234,4.251,1.905,1.905,0,0,0,1.7.967H66.386a5.434,5.434,0,0,0,3.115-1.012,9.934,9.934,0,0,0,2.84-3.337c.018-.018.035-.053.053-.071.328-.568.772-1.3,1.189-2,1.855-3.044,3.47-5.707,3.648-9.479l-.107-5.2a.937.937,0,0,1-.018-.222c0-.071,0-.568.018-1.234.035-3.452.089-7.7-3.062-8.227H72.031c-.018.967-.071,1.961-.133,2.911-.053.861-.107,1.669-.107,2.458a1.527,1.527,0,1,1-3.053,0c0-.79.053-1.7.106-2.663.2-3.248.444-6.967-2.148-7.42H64.682a2.063,2.063,0,0,1-.328-.035c.018,1.172-.053,2.379-.133,3.559-.035.861-.089,1.669-.089,2.45a1.527,1.527,0,0,1-3.053,0c0-.79.053-1.7.107-2.663.2-3.248.444-6.967-2.148-7.42H57.023a1.4,1.4,0,0,1-.4-.053v5.92a1.527,1.527,0,1,1-3.053,0V54.387c0-2.663-1.083-4.349-2.476-5.041a3.58,3.58,0,0,0-1.6-.382,3.7,3.7,0,0,0-1.6.382c-1.376.692-2.441,2.379-2.441,5.112V84.34a1.527,1.527,0,1,1-3.053,0V81.518Zm14.227-18.07a1.5,1.5,0,0,1,.4-.053h2.112a2.288,2.288,0,0,1,.346.035,5.137,5.137,0,0,1,4.588,4.2,1.648,1.648,0,0,1,.648-.151h2.112a2.288,2.288,0,0,1,.346.035,5.2,5.2,0,0,1,4.677,4.677,1.013,1.013,0,0,1,.24-.018h2.112a2.53,2.53,0,0,1,.355.035c5.8.9,5.716,6.656,5.671,11.3v1.207l.133,5.352v.16c-.222,4.571-2.015,7.517-4.083,10.934-.355.568-.692,1.154-1.172,1.961-.018.018-.018.035-.035.053a12.939,12.939,0,0,1-3.763,4.331,8.413,8.413,0,0,1-4.819,1.544H48.21a4.793,4.793,0,0,1-4.278-2.308,12.281,12.281,0,0,1-1.686-5.2L30.885,85.281l-.062-.053a20.684,20.684,0,0,1-2.29-3.87,11.342,11.342,0,0,1-.985-3.692,7.5,7.5,0,0,1,.533-3.594,4.271,4.271,0,0,1,2.37-2.308,5.255,5.255,0,0,1,3.062-.222,8.512,8.512,0,0,1,3.719,1.837c.914.772,2.458,2.015,3.958,3.248l1.251,1.03V54.484c0-4.056,1.793-6.656,4.127-7.837a6.489,6.489,0,0,1,5.937,0c2.325,1.172,4.162,3.79,4.162,7.775v9.035l-.035-.009ZM85.689,74.631a3.39,3.39,0,0,1,0-2.592,3.226,3.226,0,0,1,.719-1.065l.018-.027A3.291,3.291,0,0,1,87,70.486c.115-.071.231-.133.355-.2V64.913H80.737c.009-.346.009-.7-.009-1.056a.553.553,0,0,1,.24-.506A19.133,19.133,0,0,0,82.832,61.9h6.017A1.515,1.515,0,0,1,90.358,63.4v6.94c.107.053.2.115.311.178a3.64,3.64,0,0,1,.506.408l.027.027a3.381,3.381,0,0,1,.994,2.4,3.4,3.4,0,0,1-.248,1.269l-.009.027a3.425,3.425,0,0,1-.737,1.1,3.381,3.381,0,0,1-2.4.994,3.549,3.549,0,0,1-1.3-.257,3.331,3.331,0,0,1-1.1-.737,4.088,4.088,0,0,1-.719-1.118ZM95.284,57.36h-9a10.8,10.8,0,0,0,.408-1,11.011,11.011,0,0,0,.515-2.015h8.076c.062-.115.115-.222.186-.328a3.012,3.012,0,0,1,.444-.55,3.425,3.425,0,0,1,1.1-.737,3.477,3.477,0,0,1,1.3-.257,3.4,3.4,0,0,1,1.269.249l.027.009a3.425,3.425,0,0,1,1.1.737,3.381,3.381,0,0,1,.994,2.4,3.549,3.549,0,0,1-.257,1.3,3.331,3.331,0,0,1-.737,1.1,3.381,3.381,0,0,1-2.4.994A3.4,3.4,0,0,1,97.041,59l-.027-.009a3.425,3.425,0,0,1-1.1-.737,2.908,2.908,0,0,1-.435-.541l-.018-.027c-.062-.107-.124-.213-.177-.328Zm2.858-8.254H86.826a13.642,13.642,0,0,0-1.207-2.769L85.6,46.31c-.044-.08-.089-.142-.124-.222H96.65V36.237c-.089-.053-.169-.106-.257-.16a3.33,3.33,0,0,1-.47-.391,3.381,3.381,0,0,1-.994-2.4,3.513,3.513,0,0,1,.257-1.3,3.425,3.425,0,0,1,.737-1.1,3.381,3.381,0,0,1,2.4-.994,3.549,3.549,0,0,1,1.3.257,3.331,3.331,0,0,1,1.1.737,3.381,3.381,0,0,1,.994,2.4,3.4,3.4,0,0,1-.249,1.269l-.009.027a3.425,3.425,0,0,1-.737,1.1,4.008,4.008,0,0,1-.639.506,3.567,3.567,0,0,1-.408.213V47.6a1.5,1.5,0,0,1-.444,1.065,1.537,1.537,0,0,1-1.083.444ZM86.32,41.82H82.468a12.1,12.1,0,0,0,.186-1.686,13.286,13.286,0,0,0-.009-1.331h2.166V34.347a2.559,2.559,0,0,1-.337-.2,3.082,3.082,0,0,1-.568-.462h0a3.381,3.381,0,0,1-.994-2.387,3.549,3.549,0,0,1,.257-1.3,3.483,3.483,0,0,1,.71-1.074l.027-.027A3.387,3.387,0,0,1,87.6,28.17a3.357,3.357,0,0,1,1.074.719l.027.018a3.431,3.431,0,0,1,.728,1.074l.009.027a3.477,3.477,0,0,1,.257,1.3,3.513,3.513,0,0,1-.257,1.3,3.381,3.381,0,0,1-.71,1.074L88.7,33.7a3.36,3.36,0,0,1-.541.444,2.249,2.249,0,0,1-.32.178v5.991a1.5,1.5,0,0,1-.444,1.065,1.548,1.548,0,0,1-1.074.444ZM26.546,16.011a3.39,3.39,0,0,0,2.592,0,3.138,3.138,0,0,0,1.065-.719l.027-.018a3.291,3.291,0,0,0,.462-.577c.071-.115.133-.231.2-.355h5.378v4.651a11.158,11.158,0,0,1,3.018-1.083V12.833a1.515,1.515,0,0,0-1.509-1.509h-6.94a2.77,2.77,0,0,0-.178-.311,3.64,3.64,0,0,0-.408-.506l-.027-.027a3.381,3.381,0,0,0-2.4-.994,3.369,3.369,0,0,0-1.269.249l-.027.009a3.425,3.425,0,0,0-1.1.737,3.381,3.381,0,0,0-.994,2.4,3.549,3.549,0,0,0,.257,1.3,3.331,3.331,0,0,0,.737,1.1,3.883,3.883,0,0,0,1.118.737Zm17.28-9.585V18.079a9.693,9.693,0,0,1,2.911,1.411l.107.08c0-.027.009-.053.009-.08V6.426c.106-.062.222-.115.328-.186a3.012,3.012,0,0,0,.55-.444,3.575,3.575,0,0,0,.737-1.1,3.477,3.477,0,0,0,.257-1.3,3.4,3.4,0,0,0-.249-1.269L48.467,2.1A3.425,3.425,0,0,0,47.731,1a3.381,3.381,0,0,0-2.4-.994,3.549,3.549,0,0,0-1.3.257,3.331,3.331,0,0,0-1.1.737,3.381,3.381,0,0,0-.994,2.4,3.4,3.4,0,0,0,.249,1.269l.009.027a3.425,3.425,0,0,0,.737,1.1,2.908,2.908,0,0,0,.541.435l.018.009c.107.062.213.124.328.186ZM52.07,3.559V20.6a10.659,10.659,0,0,1,1.287-1.109,8.663,8.663,0,0,1,1.731-.985V5.059h9.851c.053.089.107.169.16.257a3.329,3.329,0,0,0,.391.47,3.381,3.381,0,0,0,2.4.994,3.513,3.513,0,0,0,1.3-.257,3.331,3.331,0,0,0,1.1-.737,3.381,3.381,0,0,0,.994-2.4,3.549,3.549,0,0,0-.257-1.3,3.331,3.331,0,0,0-.737-1.1A3.766,3.766,0,0,0,69.164.257,3.333,3.333,0,0,0,66.617.249L66.59.257a3.425,3.425,0,0,0-1.1.737,4.008,4.008,0,0,0-.506.639,3.565,3.565,0,0,0-.213.408H53.588a1.5,1.5,0,0,0-1.065.444,1.524,1.524,0,0,0-.453,1.074Zm7.286,11.831v2.334a8.3,8.3,0,0,1,.932.1,10.273,10.273,0,0,1,2.086.533V16.916H66.83a2.559,2.559,0,0,0,.2.337,3.083,3.083,0,0,0,.462.568h0a3.381,3.381,0,0,0,2.387.994,3.549,3.549,0,0,0,1.3-.257,3.381,3.381,0,0,0,1.074-.71l.027-.027a3.387,3.387,0,0,0,.737-3.692,3.263,3.263,0,0,0-.719-1.074l-.018-.027A3.431,3.431,0,0,0,71.2,12.3l-.027-.009a3.477,3.477,0,0,0-1.3-.257A3.382,3.382,0,0,0,67.5,13l-.027.027a3.084,3.084,0,0,0-.444.55,2.249,2.249,0,0,0-.178.32H60.866a1.5,1.5,0,0,0-1.065.444,1.4,1.4,0,0,0-.444,1.047ZM16.011,30.016a3.39,3.39,0,0,1,0,2.592,3.226,3.226,0,0,1-.719,1.065l-.018.027a3.291,3.291,0,0,1-.577.462c-.115.071-.231.133-.355.2v5.378h5.582V40c0,.2.009.417.018.639a.57.57,0,0,1-.231.5,18.732,18.732,0,0,0-1.988,1.624H12.842a1.515,1.515,0,0,1-1.509-1.509v-6.94c-.107-.053-.2-.115-.311-.178a3.64,3.64,0,0,1-.506-.408L10.49,33.7A3.381,3.381,0,0,1,9.5,31.3a3.4,3.4,0,0,1,.249-1.269l.018-.027a3.425,3.425,0,0,1,.737-1.1,3.381,3.381,0,0,1,2.4-.994,3.549,3.549,0,0,1,1.3.257,3.331,3.331,0,0,1,1.1.737,3.913,3.913,0,0,1,.719,1.109ZM6.426,47.287H14.44c-.133.311-.257.621-.364.932a11.832,11.832,0,0,0-.515,2.077H6.426c-.062.115-.115.222-.186.328a3.012,3.012,0,0,1-.444.55,3.425,3.425,0,0,1-1.1.737,3.477,3.477,0,0,1-1.3.257A3.4,3.4,0,0,1,2.13,51.92H2.095a3.425,3.425,0,0,1-1.1-.737A3.381,3.381,0,0,1,0,48.787a3.549,3.549,0,0,1,.257-1.3,3.331,3.331,0,0,1,.737-1.1,3.381,3.381,0,0,1,2.4-.994,3.4,3.4,0,0,1,1.269.249l.027.009a3.425,3.425,0,0,1,1.1.737,2.908,2.908,0,0,1,.435.541l.018.027c.062.107.124.222.186.328ZM3.559,55.55H13.987a12.584,12.584,0,0,0,1.393,2.973v.009l.018.036H5.059v9.851c.089.053.169.107.257.16a3.33,3.33,0,0,1,.47.391,3.381,3.381,0,0,1,.994,2.4,3.513,3.513,0,0,1-.257,1.3,3.425,3.425,0,0,1-.737,1.1,3.381,3.381,0,0,1-2.4.994,3.549,3.549,0,0,1-1.3-.257,3.331,3.331,0,0,1-1.1-.737,3.883,3.883,0,0,1-.737-1.118A3.477,3.477,0,0,1,0,71.347a3.4,3.4,0,0,1,.249-1.269l.009-.027a3.425,3.425,0,0,1,.737-1.1,4.008,4.008,0,0,1,.639-.506,3.567,3.567,0,0,1,.408-.213V57.049a1.5,1.5,0,0,1,.444-1.065,1.547,1.547,0,0,1,1.074-.435Zm11.831,7.278H18.2a11.923,11.923,0,0,0-.16,1.66,11.483,11.483,0,0,0,.027,1.358H16.9V70.3a2.559,2.559,0,0,1,.337.2,3.083,3.083,0,0,1,.568.462h0a3.381,3.381,0,0,1,.994,2.4,3.382,3.382,0,0,1-.967,2.37l-.027.027a3.387,3.387,0,0,1-3.692.737,3.357,3.357,0,0,1-1.074-.719l-.027-.018a3.431,3.431,0,0,1-.728-1.074l-.009-.027a3.477,3.477,0,0,1-.257-1.3,3.382,3.382,0,0,1,.967-2.37l.027-.027a3.36,3.36,0,0,1,.541-.444,2.249,2.249,0,0,1,.32-.177V64.345a1.5,1.5,0,0,1,.444-1.065,1.439,1.439,0,0,1,1.074-.453Z" fill="#ff6c1a"/>
</svg>
