<svg width="75" height="75" viewBox="0 0 75 75" fill="none" xmlns="http://www.w3.org/2000/svg">
<g id="Layer_1" clip-path="url(#clip0_2036_6025)">
<path id="Vector" d="M56.27 68.17C56.27 68.47 56.26 68.67 56.27 68.87C56.33 69.66 55.96 70.16 55.27 70.53C51.89 72.34 48.32 73.6 44.56 74.27C37.14 75.58 29.91 74.91 22.92 72.04C21.89 71.62 20.92 71.05 19.89 70.61C19.02 70.23 18.63 69.61 18.73 68.67C18.75 68.53 18.72 68.38 18.7 68.17C17.7 68.25 16.75 68.35 15.79 68.4C10.51 68.68 5.52001 67.63 0.850007 65.12C0.250007 64.8 0.0100067 64.36 6.68818e-06 63.69C-0.0499933 59.78 1.81001 56.9 4.88001 54.71C10.87 50.43 20.5 50.93 25.63 56.29C25.91 56.58 26.11 56.58 26.45 56.4C33.83 52.47 41.22 52.47 48.6 56.4C48.96 56.59 49.14 56.55 49.42 56.27C55.11 50.49 65.46 50.44 71.41 55.7C73.81 57.82 75.08 60.47 75 63.72C74.98 64.36 74.74 64.79 74.18 65.09C69.54 67.61 64.57 68.64 59.32 68.4C58.33 68.36 57.35 68.25 56.28 68.16L56.27 68.17ZM37.59 72.55C42.96 72.55 48.17 71.42 53.11 69.02C53.8 68.69 53.97 68.3 53.89 67.59C53.57 64.71 52.26 62.35 50.15 60.42C46.9 57.46 42.99 56.1 38.68 55.87C33.94 55.62 29.54 56.71 25.73 59.66C23.18 61.64 21.52 64.18 21.12 67.47C21.03 68.2 21.14 68.66 21.91 69.04C26.84 71.41 32.02 72.55 37.59 72.56V72.55ZM24.09 57.96C23.85 57.75 23.66 57.59 23.48 57.43C18.71 53.13 10.08 53.08 5.27001 57.34C3.69001 58.74 2.64001 60.42 2.38001 62.56C2.31001 63.11 2.48001 63.35 2.96001 63.58C7.94001 65.95 13.16 66.59 18.57 65.76C18.81 65.72 19.12 65.37 19.2 65.11C19.98 62.54 21.41 60.41 23.38 58.62C23.6 58.42 23.81 58.22 24.08 57.97L24.09 57.96ZM50.97 57.95C51.05 58.05 51.1 58.13 51.17 58.19C53.42 60.11 55.05 62.42 55.86 65.29C55.92 65.49 56.26 65.72 56.49 65.75C61.7 66.55 66.73 65.96 71.56 63.79C72.78 63.24 72.79 63.21 72.53 61.89C72.53 61.84 72.5 61.79 72.49 61.75C71.86 59.06 70.11 57.27 67.78 56C64.86 54.39 61.71 53.86 58.42 54.34C55.58 54.76 53.04 55.85 50.97 57.95Z" fill="#FF6C1A"/>
<path id="Vector_2" d="M37.95 26.7C39.93 26.71 41.86 26.99 43.69 27.79C47.08 29.28 49.04 32.51 48.6 36.18C48.41 37.74 47.85 39.25 47.49 40.79C47.35 41.39 47.26 42 47.22 42.61C46.95 46.58 43.79 50.31 39.93 51.18C34.16 52.48 28.75 48.15 28.58 42.13C28.56 41.55 28.43 40.95 28.22 40.41C27.48 38.48 27.02 36.51 27.26 34.44C27.67 30.88 29.7 28.57 33.04 27.49C34.6 26.99 36.28 26.83 37.9 26.51C37.91 26.57 37.93 26.64 37.94 26.7H37.95ZM37.92 37.14C36.5 37.14 35.09 37.12 33.67 37.14C32.07 37.16 30.98 38.28 30.95 39.88C30.94 40.58 30.95 41.27 30.95 41.97C30.99 45.43 33.33 48.33 36.56 48.93C39.94 49.55 43.16 47.67 44.44 44.35C44.99 42.92 44.97 41.43 44.94 39.94C44.91 38.24 43.8 37.16 42.11 37.14C40.72 37.13 39.33 37.14 37.93 37.14H37.92ZM29.71 36.7C31.04 35.11 32.71 34.71 34.6 34.76C36.84 34.82 39.08 34.76 41.31 34.78C41.88 34.78 42.45 34.8 43.02 34.86C44.28 35.01 45.25 35.72 46.15 36.6C46.77 33.57 45.36 31.04 42.93 30.03C39.61 28.64 36.23 28.63 32.93 30.04C30.35 31.14 29.14 33.72 29.71 36.69V36.7Z" fill="#FF6C1A"/>
<path id="Vector_3" d="M14.94 31.72C15.77 31.86 16.87 31.94 17.91 32.23C21.75 33.3 23.65 36.46 22.79 40.35C22.43 41.99 22 43.61 21.64 45.25C20.91 48.57 17.85 50.89 14.55 50.87C11.26 50.85 8.29998 48.58 7.62998 45.28C7.28998 43.61 6.82998 41.97 6.49998 40.31C5.62998 35.88 8.14998 32.53 12.67 31.94C13.33 31.85 14 31.81 14.94 31.72ZM14.7 40.17C13.66 40.17 12.61 40.15 11.57 40.17C10.4 40.2 9.74998 40.88 9.72998 42.06C9.72998 42.56 9.72998 43.05 9.72998 43.55C9.75998 45.98 11.31 47.91 13.65 48.42C15.8 48.89 18 47.74 19.05 45.63C19.59 44.54 19.61 43.39 19.6 42.21C19.58 40.82 18.94 40.17 17.53 40.16C16.59 40.16 15.64 40.16 14.7 40.16V40.17ZM8.78998 38.84C9.94998 37.79 11.34 37.83 12.74 37.85C13.93 37.87 15.12 37.85 16.32 37.85C17.8 37.85 19.32 37.7 20.64 38.93C20.67 37.16 20.13 35.83 18.71 35.1C16.05 33.73 13.3 33.74 10.63 35.1C9.22998 35.81 8.55998 37.32 8.79998 38.84H8.78998Z" fill="#FF6C1A"/>
<path id="Vector_4" d="M60.64 31.77C62.67 31.8 64.33 32.04 65.87 32.84C68.69 34.31 69.92 37.3 69.05 40.74C68.7 42.13 68.31 43.49 68.06 44.91C67.46 48.34 64.33 50.87 60.94 50.87C57.51 50.87 54.46 48.44 53.9 44.97C53.65 43.44 53.18 42 52.88 40.5C51.97 35.97 54.32 32.64 58.89 31.94C59.58 31.84 60.27 31.8 60.65 31.76L60.64 31.77ZM61.06 40.16C60.07 40.16 59.07 40.16 58.08 40.16C58.03 40.16 57.98 40.16 57.93 40.16C56.75 40.21 56.09 40.85 56.05 42.03C56.03 42.6 56.02 43.17 56.05 43.74C56.2 46.23 57.98 48.2 60.31 48.48C62.68 48.77 64.98 47.28 65.65 44.89C65.9 44 65.89 43.03 65.9 42.09C65.91 40.82 65.24 40.18 63.96 40.16C62.99 40.14 62.02 40.16 61.05 40.16H61.06ZM55.06 38.9C56.22 37.85 57.52 37.8 58.85 37.84C59.67 37.86 60.49 37.81 61.31 37.85C63.2 37.94 65.2 37.39 66.9 38.84C67.01 36.89 66.17 35.47 64.43 34.77C62.17 33.86 59.86 33.86 57.6 34.75C55.83 35.45 54.96 36.87 55.06 38.9Z" fill="#FF6C1A"/>
<path id="Vector_5" d="M46.9 9.39C46.9 10.12 46.41 10.55 45.5 10.59C42.33 10.75 39.72 12.81 38.93 15.83C38.79 16.35 38.74 16.9 38.7 17.45C38.63 18.31 38.22 18.8 37.52 18.8C36.81 18.8 36.37 18.32 36.31 17.48C36.06 13.54 33.34 10.8 29.45 10.59C28.59 10.54 28.1 10.12 28.09 9.42C28.09 8.7 28.58 8.27 29.49 8.21C32.32 8.05 34.4 6.7 35.61 4.15C36 3.32 36.14 2.35 36.28 1.43C36.42 0.53 36.77 0 37.48 0C38.2 0 38.65 0.51 38.69 1.4C38.88 5.18 41.7 8.01 45.47 8.21C46.4 8.26 46.89 8.67 46.9 9.39ZM34.16 9.41C35.25 10.5 36.43 11.68 37.5 12.75C38.6 11.65 39.79 10.47 40.85 9.41C39.74 8.29 38.56 7.12 37.51 6.06C36.42 7.15 35.26 8.32 34.17 9.41H34.16Z" fill="#FF6C1A"/>
<path id="Vector_6" d="M66.89 20.89C66.83 21.43 66.55 21.85 65.92 21.97C65.53 22.04 65.13 22.04 64.74 22.14C63.11 22.55 61.99 23.94 61.84 25.7C61.76 26.59 61.38 27.03 60.67 27.03C59.96 27.03 59.56 26.58 59.47 25.7C59.26 23.57 57.97 22.27 55.85 22.03C55.78 22.03 55.7 22.02 55.63 22.01C54.86 21.9 54.45 21.48 54.46 20.82C54.47 20.16 54.91 19.76 55.67 19.68C57.93 19.46 59.22 18.18 59.46 15.93C59.55 15.09 60.02 14.6 60.7 14.63C61.37 14.66 61.76 15.11 61.83 15.94C62.01 18.06 63.42 19.47 65.58 19.67C66.4 19.75 66.87 20.16 66.88 20.89H66.89ZM59.5 20.79C59.86 21.2 60.29 21.68 60.59 22.02C61.07 21.62 61.53 21.22 61.92 20.9C61.46 20.45 61.03 20.03 60.65 19.65C60.27 20.02 59.84 20.45 59.5 20.79Z" fill="#FF6C1A"/>
<path id="Vector_7" d="M14.34 27.03C13.7 27.03 13.25 26.61 13.17 25.93C12.87 23.44 11.82 22.37 9.30998 22.01C8.55998 21.9 8.10998 21.45 8.11998 20.83C8.11998 20.19 8.58998 19.75 9.33998 19.68C11.66 19.45 12.94 18.16 13.18 15.8C13.25 15.1 13.67 14.65 14.29 14.62C14.9 14.59 15.39 15.02 15.51 15.69C15.57 16.03 15.56 16.39 15.64 16.72C16.05 18.39 17.42 19.49 19.25 19.66C20.09 19.74 20.53 20.12 20.55 20.79C20.57 21.47 20.14 21.89 19.32 22C16.92 22.32 15.86 23.39 15.54 25.83C15.44 26.61 15.03 27.02 14.36 27.02L14.34 27.03ZM14.37 22.09C14.77 21.7 15.22 21.25 15.5 20.97C15.1 20.48 14.71 20 14.41 19.63C13.97 20.08 13.54 20.51 13.15 20.9C13.51 21.25 13.95 21.67 14.38 22.09H14.37Z" fill="#FF6C1A"/>
</g>
<defs>
<clipPath id="clip0_2036_6025">
<rect width="75" height="74.91" fill="white"/>
</clipPath>
</defs>
</svg>
