<svg width="80" height="80" viewBox="0 0 80 80" fill="none" xmlns="http://www.w3.org/2000/svg">
<g clip-path="url(#clip0_1701_10)">
<path d="M66.4633 64.1028L52.1076 39.9599L66.4633 15.8169L73.3842 39.9599L66.4633 64.1028ZM34.5243 61.7503L16.4914 43.8699H45.1947L59.5424 68.0128L34.5163 61.7583L34.5243 61.7503ZM34.5243 18.1052L59.4781 11.8507L45.1224 35.9936H16.4111L34.5163 18.1052H34.5243ZM71.1682 0L38.5628 8.46247L33.7053 16.7804L23.9181 16.7081L0 39.9679L23.9181 63.2276L33.7053 63.1554L38.5628 71.4733L71.1682 80.008L79.9277 48.2858L74.998 40.0401L79.9277 31.7945L71.1682 0Z" fill="#110B09"/>
</g>
<defs>
<clipPath id="clip0_1701_10">
<rect width="80" height="80" fill="white"/>
</clipPath>
</defs>
</svg>
