<svg width="80" height="80" viewBox="0 0 80 80" fill="none" xmlns="http://www.w3.org/2000/svg">
<path d="M31.4699 44.0561C31.7614 38.8559 34.3079 34.2745 38.1497 31.0268C41.9172 27.8368 46.9882 25.8871 52.5212 25.8871C58.0487 25.8871 63.1198 27.8368 66.89 31.0268C70.729 34.2745 73.2755 38.856 73.5698 44.0507C73.8613 49.3939 71.7135 54.3576 67.946 58.037C64.1043 61.7798 58.64 64.1282 52.5212 64.1282C46.4024 64.1282 40.9272 61.7798 37.0882 58.037C33.3179 54.3576 31.1757 49.3938 31.4699 44.0561Z" fill="white"/>
<path d="M41.704 44.5263C41.8536 41.858 43.1602 39.5072 45.1314 37.8408C47.0646 36.204 49.6665 35.2036 52.5056 35.2036C55.3418 35.2036 57.9437 36.204 59.8783 37.8408C61.8481 39.5072 63.1547 41.858 63.3057 44.5235C63.4553 47.2651 62.3533 49.812 60.4201 51.6999C58.4489 53.6204 55.6451 54.8254 52.5056 54.8254C49.366 54.8254 46.5566 53.6204 44.5868 51.6999C42.6522 49.812 41.553 47.2651 41.704 44.5263Z" fill="#265787"/>
<path d="M24.5034 49.9304C24.5217 50.9746 24.8547 53.0037 25.3542 54.5883C26.404 57.9423 28.1848 61.0451 30.6626 63.7797C33.2053 66.5904 36.3364 68.8481 39.9529 70.451C43.7543 72.1344 47.8731 72.9923 52.1514 72.9852C56.4226 72.9796 60.5415 72.1047 64.3428 70.4087C67.9594 68.7902 71.0876 66.5227 73.6261 63.7105C76.1025 60.9647 77.8804 57.8562 78.933 54.5022C79.4622 52.8075 79.7966 51.0875 79.9307 49.3618C80.0619 47.6615 80.0069 45.9584 79.7656 44.2567C79.2943 40.9408 78.1471 37.8294 76.3804 34.9933C74.7648 32.3871 72.6821 30.1055 70.2057 28.1851L70.2114 28.1809L45.2203 8.99228C45.1978 8.97535 45.1794 8.95703 45.1554 8.94151C43.5158 7.68287 40.7586 7.68711 38.9553 8.94857C37.1322 10.2241 36.9234 12.3336 38.5461 13.6642L38.539 13.6713L48.9624 22.1473L17.1927 22.1812H17.1504C14.5245 22.184 12.0001 23.9068 11.5006 26.0841C10.987 28.3022 12.7705 30.1422 15.5009 30.152L15.4967 30.162L31.5995 30.1309L2.86497 52.1867C2.82828 52.2135 2.78877 52.2417 2.7549 52.2685C0.0442841 54.3441 -0.831955 57.7955 0.87541 59.9798C2.60817 62.2007 6.29241 62.205 9.03125 59.9925L24.7136 47.1578C24.7136 47.1578 24.485 48.8905 24.5034 49.9304ZM64.8014 55.7326C61.5701 59.0245 57.0463 60.8913 52.1514 60.9012C47.2494 60.9097 42.7256 59.0598 39.4943 55.7735C37.9153 54.172 36.7555 52.3292 36.0401 50.3665C35.3388 48.4376 35.0664 46.3902 35.2471 44.3244C35.4178 42.3052 36.0189 40.3792 36.9784 38.6366C37.921 36.9236 39.2192 35.3757 40.8221 34.0663C43.9631 31.5067 47.962 30.121 52.1443 30.1154C56.3309 30.1097 60.327 31.4827 63.4708 34.0338C65.0709 35.3376 66.3677 36.8798 67.3103 38.59C68.274 40.3312 68.8709 42.2502 69.0487 44.275C69.2265 46.3379 68.9541 48.3826 68.2528 50.3128C67.536 52.2812 66.3804 54.124 64.8014 55.7326Z" fill="#EA7600"/>
</svg>
