<svg width="80" height="80" viewBox="0 0 80 80" fill="none" xmlns="http://www.w3.org/2000/svg">
<path d="M14.1667 1H65.8333C73.6667 1 80 7.33333 80 15.1667V64.8333C80 72.6667 73.6667 79 65.8333 79H14.1667C6.33333 79 0 72.6667 0 64.8333V15.1667C0 7.33333 6.33333 1 14.1667 1Z" fill="#00005B"/>
<path d="M32.1333 47.6667H19.7333L17.2 55.5333C17.1333 55.8333 16.8667 56.0333 16.5667 56H10.3C9.93334 56 9.83334 55.8 9.93334 55.4L20.6667 24.6333C20.7667 24.3 20.8667 24 21 23.6C21.1333 22.9 21.2 22.1666 21.2 21.4333C21.1667 21.2666 21.3 21.1 21.4667 21.0667H21.5667H30.1C30.3333 21.0667 30.5 21.1667 30.5333 21.3333L42.7 55.3333C42.8 55.7 42.7 55.8666 42.3667 55.8666H35.4C35.1667 55.9 34.9333 55.7333 34.8667 55.5L32.1333 47.5V47.6667ZM21.6667 41.0333H30.1333C29.9333 40.3333 29.6667 39.5 29.3667 38.6333C29.0667 37.7333 28.7667 36.7667 28.4667 35.7667C28.1333 34.7333 27.8333 33.7333 27.5 32.7C27.1667 31.6666 26.8667 30.7 26.6 29.7333C26.3333 28.8 26.1 27.9333 25.8667 27.1333H25.8C25.5 28.5667 25.1333 30 24.6667 31.4333C24.1667 33.0333 23.6667 34.7 23.1333 36.3666C22.7 38.0666 22.1667 39.6333 21.6667 41.0333Z" fill="#9999FF"/>
<path d="M62.3333 44.6666H51.7667C51.9 45.6999 52.2333 46.7333 52.8 47.6333C53.4 48.5333 54.2333 49.2333 55.2333 49.6333C56.5667 50.1999 58.0333 50.4999 59.5 50.4666C60.6667 50.4333 61.8333 50.3333 62.9667 50.0999C64 49.9666 65 49.6999 65.9333 49.3333C66.1 49.1999 66.2 49.2666 66.2 49.5999V54.6999C66.2 54.8333 66.1667 54.9666 66.1333 55.0999C66.0667 55.1999 66 55.2666 65.9 55.3333C64.8333 55.7999 63.7333 56.1333 62.5667 56.3333C61 56.6333 59.4333 56.7666 57.8333 56.7333C55.3 56.7333 53.1667 56.3333 51.4333 55.5666C49.8 54.8666 48.3667 53.7666 47.2333 52.3999C46.1667 51.0999 45.4 49.6333 44.9333 48.0333C44.4667 46.4666 44.2333 44.8333 44.2333 43.1666C44.2333 41.3666 44.5 39.5999 45.0667 37.8666C45.6 36.1999 46.4333 34.6666 47.5667 33.2999C48.6667 31.9666 50.0333 30.8999 51.6 30.1333C53.1667 29.3666 55.0333 29.0999 57.1667 29.0999C58.9333 29.0666 60.7 29.3999 62.3333 30.1333C63.7 30.7333 64.9 31.6333 65.8333 32.7999C66.7 33.9333 67.4 35.1999 67.8333 36.5999C68.2667 37.9333 68.4667 39.2999 68.4667 40.6666C68.4667 41.4666 68.4333 42.1666 68.4 42.7999C68.3333 43.4333 68.3 43.8999 68.2667 44.1999C68.2333 44.4333 68.0333 44.6333 67.8 44.6333C67.6 44.6333 67.2333 44.6666 66.7 44.6999C66.1667 44.7666 65.5333 44.7999 64.7667 44.7999C64 44.7999 63.2 44.6666 62.3333 44.6666ZM51.7667 39.7999H58.8C59.6667 39.7999 60.3 39.7999 60.7 39.7666C60.9667 39.7333 61.2333 39.6666 61.4667 39.4999V39.1666C61.4667 38.7333 61.4 38.3333 61.2667 37.9333C60.6667 36.0666 58.9 34.7999 56.9333 34.8666C55.1 34.7666 53.3667 35.7333 52.5 37.3999C52.1 38.1666 51.8667 38.9666 51.7667 39.7999Z" fill="#9999FF"/>
</svg>
