<svg width="80" height="80" viewBox="0 0 80 80" fill="none" xmlns="http://www.w3.org/2000/svg">
<path d="M14.1667 1H65.8333C73.6667 1 80 7.33333 80 15.1667V64.8333C80 72.6667 73.6667 79 65.8333 79H14.1667C6.33333 79 0 72.6667 0 64.8333V15.1667C0 7.33333 6.33333 1 14.1667 1Z" fill="#00005B"/>
<path d="M19 55.6667V21.3334C19 21.1001 19.1 20.9667 19.3333 20.9667C19.9 20.9667 20.4333 20.9667 21.2 20.9334C22 20.9001 22.8333 20.9001 23.7333 20.8667C24.6333 20.8334 25.6 20.8334 26.6333 20.8001C27.6667 20.7667 28.6667 20.7667 29.6667 20.7667C32.4 20.7667 34.6667 21.1001 36.5333 21.8001C38.2 22.3667 39.7333 23.3001 41 24.5334C42.0667 25.6001 42.9 26.9001 43.4333 28.3334C43.9333 29.7334 44.2 31.1667 44.2 32.6667C44.2 35.5334 43.5333 37.9001 42.2 39.7667C40.8667 41.6334 39 43.0334 36.8333 43.8334C34.5667 44.6667 32.0667 44.9667 29.3333 44.9667C28.5333 44.9667 28 44.9667 27.6667 44.9334C27.3333 44.9001 26.8667 44.9001 26.2333 44.9001V55.6001C26.2667 55.8334 26.1 56.0334 25.8667 56.0667H25.7333H19.4C19.1333 56.0667 19 55.9334 19 55.6334V55.6667ZM26.2667 27.4334V38.6334C26.7333 38.6667 27.1667 38.7001 27.5667 38.7001H29.3333C30.6333 38.7001 31.9333 38.5001 33.1667 38.1001C34.2333 37.8001 35.1667 37.1667 35.9 36.3334C36.6 35.5001 36.9333 34.3667 36.9333 32.9001C36.9667 31.8667 36.7 30.8334 36.1667 29.9334C35.6 29.0667 34.8 28.4001 33.8333 28.0334C32.6 27.5334 31.2667 27.3334 29.9 27.3667C29.0333 27.3667 28.2667 27.3667 27.6333 27.4001C26.9667 27.3667 26.5 27.4001 26.2667 27.4334Z" fill="#9999FF"/>
<path d="M49 29.4H54.8333C55.1667 29.4 55.4333 29.6333 55.5333 29.9333C55.6333 30.2 55.7 30.4667 55.7333 30.7667C55.8 31.1 55.8667 31.4667 55.9 31.8C55.9333 32.1667 55.9667 32.5667 55.9667 33C56.9667 31.8333 58.1667 30.8667 59.5333 30.1333C61.0667 29.2667 62.8333 28.8333 64.6 28.8333C64.8333 28.8 65.0333 28.9667 65.0667 29.2V29.3333V35.8333C65.0667 36.1 64.9 36.2 64.5333 36.2C63.3333 36.1667 62.1 36.2667 60.9333 36.5333C59.9667 36.7333 59.0333 37.0333 58.1333 37.4333C57.5 37.7333 56.9 38.1333 56.4333 38.6667V55.6667C56.4333 56 56.3 56.1333 56 56.1333H49.4333C49.1667 56.1667 48.9333 56 48.9 55.7333V55.6V37.1333C48.9 36.3333 48.9 35.5 48.8667 34.6333C48.8333 33.7667 48.8333 32.9 48.8 32.0333C48.8 31.2667 48.7333 30.5333 48.6667 29.7667C48.6333 29.6 48.7333 29.4333 48.9 29.4C48.9 29.3667 48.9667 29.3667 49 29.4Z" fill="#9999FF"/>
</svg>
