<svg width="80" height="80" viewBox="0 0 80 80" fill="none" xmlns="http://www.w3.org/2000/svg">
<path d="M14.1667 1H65.8333C73.6667 1 80 7.33333 80 15.1667V64.8333C80 72.6667 73.6667 79 65.8333 79H14.1667C6.33333 79 0 72.6667 0 64.8333V15.1667C0 7.33333 6.33333 1 14.1667 1Z" fill="#001E36"/>
<path d="M18 55.7V21.4C18 21.1666 18.1 21.0333 18.3333 21.0333C18.9 21.0333 19.4333 21.0333 20.2 21C21 20.9666 21.8333 20.9666 22.7333 20.9333C23.6333 20.9 24.6 20.9 25.6333 20.8666C26.6667 20.8333 27.6667 20.8333 28.6667 20.8333C31.4 20.8333 33.6667 21.1666 35.5333 21.8666C37.2 22.4333 38.7333 23.3666 40 24.6C41.0667 25.6666 41.9 26.9666 42.4333 28.4C42.9333 29.8 43.2 31.2333 43.2 32.7333C43.2 35.6 42.5333 37.9666 41.2 39.8333C39.8667 41.7 38 43.1 35.8333 43.9C33.5667 44.7333 31.0667 45.0333 28.3333 45.0333C27.5333 45.0333 27 45.0333 26.6667 45C26.3333 44.9666 25.8667 44.9666 25.2333 44.9666V55.6666C25.2667 55.9 25.1 56.1 24.8667 56.1333C24.8333 56.1333 24.8 56.1333 24.7333 56.1333H18.4C18.1333 56.1333 18 56 18 55.7ZM25.2667 27.4666V38.6666C25.7333 38.7 26.1667 38.7333 26.5667 38.7333H28.3333C29.6333 38.7333 30.9333 38.5333 32.1667 38.1333C33.2333 37.8333 34.1667 37.2 34.9 36.3666C35.6 35.5333 35.9333 34.4 35.9333 32.9333C35.9667 31.9 35.7 30.8666 35.1667 29.9666C34.6 29.1 33.8 28.4333 32.8333 28.0666C31.6 27.5666 30.2667 27.3666 28.9 27.4C28.0333 27.4 27.2667 27.4 26.6333 27.4333C25.9667 27.4 25.5 27.4333 25.2667 27.4666Z" fill="#31A8FF"/>
<path d="M64 36.6333C63 36.1 61.9333 35.7333 60.8 35.5C59.5667 35.2333 58.3333 35.0666 57.0667 35.0666C56.4 35.0333 55.7 35.1333 55.0667 35.3C54.6333 35.4 54.2667 35.6333 54.0333 35.9666C53.8667 36.2333 53.7667 36.5666 53.7667 36.8666C53.7667 37.1666 53.9 37.4666 54.1 37.7333C54.4 38.1 54.8 38.4 55.2333 38.6333C56 39.0333 56.8 39.4 57.6 39.7333C59.4 40.3333 61.1333 41.1666 62.7333 42.1666C63.8333 42.8666 64.7333 43.8 65.3667 44.9333C65.9 46 66.1667 47.1666 66.1333 48.3666C66.1667 49.9333 65.7 51.5 64.8333 52.8C63.9 54.1333 62.6 55.1666 61.1 55.7666C59.4667 56.4666 57.4667 56.8333 55.0667 56.8333C53.5333 56.8333 52.0333 56.7 50.5333 56.4C49.3667 56.2 48.2 55.8333 47.1333 55.3333C46.9 55.2 46.7333 54.9666 46.7667 54.7V48.9C46.7667 48.8 46.8 48.6666 46.9 48.6C47 48.5333 47.1 48.5666 47.2 48.6333C48.5 49.4 49.8667 49.9333 51.3333 50.2666C52.6 50.6 53.9333 50.7666 55.2667 50.7666C56.5333 50.7666 57.4333 50.6 58.0333 50.3C58.5667 50.0666 58.9333 49.5 58.9333 48.9C58.9333 48.4333 58.6667 48 58.1333 47.5666C57.6 47.1333 56.5 46.6333 54.8667 46C53.1667 45.4 51.6 44.6 50.1333 43.6C49.1 42.8666 48.2333 41.9 47.6 40.7666C47.0667 39.7 46.8 38.5333 46.8333 37.3666C46.8333 35.9333 47.2333 34.5666 47.9667 33.3333C48.8 32 50.0333 30.9333 51.4667 30.2666C53.0333 29.4666 55 29.1 57.3667 29.1C58.7333 29.1 60.1333 29.2 61.5 29.4C62.5 29.5333 63.4667 29.8 64.3667 30.1666C64.5 30.2 64.6333 30.3333 64.7 30.4666C64.7333 30.6 64.7667 30.7333 64.7667 30.8666V36.3C64.7667 36.4333 64.7 36.5666 64.6 36.6333C64.3 36.7 64.1333 36.7 64 36.6333Z" fill="#31A8FF"/>
</svg>
