<svg width="75" height="75" viewBox="0 0 75 75" fill="none" xmlns="http://www.w3.org/2000/svg">
<g id="Layer_1" clip-path="url(#clip0_2036_6033)">
<path id="Vector" d="M75 21.98C73.17 23.83 71.35 25.7 69.5 27.54C69.01 28.03 68.36 28.01 67.86 27.52C66.13 25.83 64.41 24.13 62.72 22.41C62.21 21.9 62.26 21.25 62.76 20.71C62.99 20.46 63.24 20.22 63.49 19.99C63.73 19.78 63.98 19.59 64.24 19.38C53.67 11.26 38.03 10.83 26.94 18.71C28.08 21.44 27.84 23.98 25.57 26.04C23.55 27.87 21.2 27.99 18.75 26.91C11.42 36.78 10.62 52.71 19.37 64.23C19.81 63.74 20.21 63.25 20.66 62.81C21.27 62.21 21.92 62.21 22.53 62.81C24.19 64.46 25.84 66.13 27.48 67.8C28.01 68.34 28.05 68.98 27.54 69.5C25.7 71.35 23.84 73.17 21.98 75H21.25C20.81 74.62 20.35 74.25 19.94 73.84C18.55 72.47 17.17 71.09 15.8 69.7C15.08 68.97 15.09 68.41 15.8 67.68C16.36 67.1 16.93 66.53 17.49 65.96C17.51 65.94 17.51 65.92 17.56 65.83C13.91 60.9 11.65 55.37 10.92 49.24C10.2 43.14 11.04 37.24 13.31 31.46C12.97 31.82 12.64 32.2 12.29 32.55C10.65 34.19 9.01 35.83 7.36 37.45C7.01 37.79 6.88 38.06 7.04 38.58C7.53 40.19 6.84 41.84 5.41 42.66C3.98 43.48 2.18 43.24 1.04 42.06C-0.099999 40.89 -0.309999 39.06 0.550001 37.67C1.42 36.27 3.06 35.66 4.69 36.11C4.94 36.18 5.34 36.14 5.5 35.98C9.19 32.32 12.85 28.63 16.55 24.92C15.02 22.09 15.2 19.41 17.61 17.1C19.53 15.26 22.08 15.11 24.97 16.52C25.1 16.4 25.25 16.28 25.38 16.15C28.88 12.65 32.38 9.12999 35.89 5.63999C36.22 5.30999 36.31 5.04999 36.16 4.56999C35.66 3.01999 36.33 1.35999 37.71 0.509992C39.1 -0.350008 40.92 -0.140007 42.1 0.999992C43.25 2.11999 43.5 3.89999 42.72 5.30999C41.93 6.72999 40.31 7.44999 38.73 7.01999C38.19 6.86999 37.86 6.94999 37.47 7.35999C35.68 9.18999 33.85 10.99 32.04 12.8C31.87 12.96 31.72 13.14 31.58 13.36C37.27 11 43.17 10.16 49.27 10.88C55.38 11.6 60.9 13.85 65.99 17.63C66.59 16.98 67.18 16.31 67.82 15.68C68.42 15.09 69.02 15.09 69.62 15.68C71.29 17.32 72.94 18.99 74.59 20.65C74.76 20.82 74.88 21.04 75.03 21.23V21.96L75 21.98ZM21.62 25.25C23.67 25.23 25.26 23.6 25.24 21.54C25.21 19.53 23.58 17.91 21.59 17.91C19.59 17.91 17.9 19.6 17.91 21.61C17.92 23.64 19.58 25.27 21.62 25.25ZM21.61 65.35C20.52 66.45 19.39 67.6 18.32 68.68C19.39 69.76 20.52 70.89 21.6 71.98C22.7 70.89 23.83 69.76 24.93 68.67C23.83 67.57 22.7 66.44 21.61 65.35ZM71.93 21.64C70.84 20.54 69.7 19.41 68.7 18.41C67.65 19.46 66.52 20.59 65.55 21.56C66.59 22.62 67.7 23.75 68.75 24.82C69.81 23.76 70.92 22.65 71.93 21.64ZM40.8 3.61999C40.81 2.92999 40.24 2.35999 39.56 2.35999C38.9 2.35999 38.36 2.87999 38.33 3.54999C38.3 4.24999 38.83 4.82999 39.52 4.84999C40.21 4.86999 40.79 4.30999 40.8 3.62999V3.61999ZM4.84 39.56C4.84 38.89 4.32 38.36 3.64 38.34C2.95 38.32 2.47 38.77 2.46 39.45C2.45 40.16 2.99 40.72 3.69 40.72C4.35 40.72 4.84 40.22 4.85 39.56H4.84Z" fill="#FF6C1A"/>
<path id="Vector_2" d="M55.23 75C54.94 74.65 54.59 74.33 54.38 73.94C53.24 71.73 52.16 69.49 51.01 67.29C50.82 66.93 50.43 66.57 50.05 66.42C46.2 64.91 42.33 63.43 38.46 61.96C37.82 61.72 37.42 61.35 37.16 60.7C33.24 50.85 29.31 41.02 25.36 31.18C25.05 30.4 25.11 29.81 25.74 29.21C26.94 28.07 28.11 26.89 29.26 25.69C29.79 25.15 30.32 25.02 31.03 25.3C40.96 29.28 50.89 33.24 60.82 37.2C61.43 37.44 61.73 37.87 61.95 38.44C63.42 42.31 64.9 46.18 66.41 50.03C66.56 50.41 66.92 50.8 67.28 50.99C69.48 52.14 71.72 53.22 73.93 54.36C74.32 54.56 74.64 54.92 74.99 55.21V55.94C74.76 56.22 74.54 56.52 74.29 56.78C68.48 62.6 62.66 68.42 56.84 74.23C56.57 74.5 56.25 74.73 55.95 74.98H55.22L55.23 75ZM45.11 43.33C49.24 41.43 52.62 42.06 54.74 45.15C56.63 47.9 56.25 51.68 53.86 53.99C51.43 56.33 47.72 56.58 45 54.62C42.71 52.97 40.88 49.17 43.32 45.15C38.29 40.12 33.28 35.11 28.25 30.08C27.82 30.32 27.65 30.62 27.89 31.22C31.63 40.51 35.35 49.8 39.05 59.1C39.25 59.61 39.55 59.86 40.04 60.05C43.55 61.38 47.05 62.71 50.55 64.08C51.1 64.3 51.44 64.25 51.87 63.82C55.85 59.8 59.86 55.8 63.88 51.81C64.27 51.43 64.35 51.13 64.15 50.62C62.78 47.13 61.43 43.63 60.11 40.12C59.89 39.54 59.59 39.22 59.01 38.99C49.77 35.32 40.55 31.63 31.33 27.92C30.7 27.67 30.34 27.75 30.09 28.3C35.12 33.33 40.12 38.33 45.13 43.34L45.11 43.33ZM55.86 71.67C61.15 66.38 66.4 61.13 71.67 55.87C69.83 54.95 67.92 53.99 66.07 53.07C61.72 57.41 57.41 61.72 53.06 66.07C53.99 67.93 54.95 69.84 55.87 71.68L55.86 71.67ZM44.51 49.04C44.51 51.56 46.56 53.61 49.06 53.6C51.53 53.59 53.58 51.55 53.6 49.08C53.62 46.57 51.58 44.51 49.06 44.51C46.51 44.51 44.51 46.51 44.5 49.05L44.51 49.04Z" fill="#FF6C1A"/>
</g>
<defs>
<clipPath id="clip0_2036_6033">
<rect width="75" height="75" fill="white"/>
</clipPath>
</defs>
</svg>
