<svg xmlns="http://www.w3.org/2000/svg" width="117.788" height="117.821" viewBox="0 0 117.788 117.821">
  <g id="Group_1158" data-name="Group 1158" transform="translate(-88.982 -280.369)">
    <g id="Group_1151" data-name="Group 1151">
      <circle id="Ellipse_1076" data-name="Ellipse 1076" cx="41.754" cy="41.754" r="41.754" transform="translate(106.123 297.544)" fill="#fff" stroke="#ff6c1a" stroke-width="1.5"/>
      <g id="Group_1145" data-name="Group 1145">
        <circle id="Ellipse_1077" data-name="Ellipse 1077" cx="51.233" cy="51.233" r="51.233" transform="translate(96.644 288.065)" fill="none" stroke="#ff6c1a" stroke-width="1.5"/>
        <path id="Path_4082" data-name="Path 4082" d="M147.877,391.664A52.367,52.367,0,1,1,200.244,339.3h0A52.427,52.427,0,0,1,147.877,391.664Zm0-102.465a50.1,50.1,0,1,0,50.1,50.1,50.1,50.1,0,0,0-50.1-50.1Z" fill="#ff6c1a" stroke="#ff6c1a" stroke-width="1.5"/>
      </g>
      <g id="Group_1146" data-name="Group 1146">
        <circle id="Ellipse_1078" data-name="Ellipse 1078" cx="41.754" cy="41.754" r="41.754" transform="translate(106.123 297.544)" fill="#fff" stroke="#ff6c1a" stroke-width="1.5"/>
        <path id="Path_4083" data-name="Path 4083" d="M147.876,382.186A42.888,42.888,0,1,1,190.764,339.3,42.888,42.888,0,0,1,147.876,382.186Zm0-83.507A40.619,40.619,0,1,0,188.495,339.3h0a40.665,40.665,0,0,0-40.619-40.62Z" fill="#ff6c1a" stroke="#ff6c1a" stroke-width="1.5"/>
      </g>
      <g id="Group_1147" data-name="Group 1147">
        <path id="Path_4084" data-name="Path 4084" d="M90.867,339.3" fill="#fff" stroke="#ff6c1a" stroke-width="1.5"/>
        <path id="Path_4085" data-name="Path 4085" d="M111.127,340.432H90.867a1.135,1.135,0,0,1,0-2.27h20.26a1.135,1.135,0,0,1,0,2.27Z" fill="#ff6c1a" stroke="#ff6c1a" stroke-width="1.5"/>
      </g>
      <g id="Group_1148" data-name="Group 1148">
        <path id="Path_4086" data-name="Path 4086" d="M184.625,339.3" fill="#fff" stroke="#ff6c1a" stroke-width="1.5"/>
        <path id="Path_4087" data-name="Path 4087" d="M204.885,340.432H184.626a1.135,1.135,0,0,1,0-2.27h20.259a1.135,1.135,0,1,1,0,2.27Z" fill="#ff6c1a" stroke="#ff6c1a" stroke-width="1.5"/>
      </g>
      <g id="Group_1149" data-name="Group 1149">
        <path id="Path_4088" data-name="Path 4088" d="M146.964,396.306" fill="#fff" stroke="#ff6c1a" stroke-width="1.5"/>
        <path id="Path_4089" data-name="Path 4089" d="M146.964,397.44a1.134,1.134,0,0,1-1.135-1.133v-20.26a1.135,1.135,0,0,1,2.269,0v20.26A1.134,1.134,0,0,1,146.964,397.44Z" fill="#ff6c1a" stroke="#ff6c1a" stroke-width="1.5"/>
      </g>
      <g id="Group_1150" data-name="Group 1150">
        <path id="Path_4090" data-name="Path 4090" d="M146.964,302.548" fill="#fff" stroke="#ff6c1a" stroke-width="1.5"/>
        <path id="Path_4091" data-name="Path 4091" d="M146.964,303.682a1.134,1.134,0,0,1-1.135-1.133V282.287a1.135,1.135,0,0,1,2.269-.066q0,.033,0,.066v20.26a1.134,1.134,0,0,1-1.133,1.135Z" fill="#ff6c1a" stroke="#ff6c1a" stroke-width="1.5"/>
      </g>
    </g>
    <g id="Group_1157" data-name="Group 1157">
      <g id="Group_1153" data-name="Group 1153">
        <g id="Group_1152" data-name="Group 1152">
          <path id="Path_4092" data-name="Path 4092" d="M159.933,328.659l11.624,9.674-11.624,9.674Z" fill="#fff"/>
          <path id="Path_4093" data-name="Path 4093" d="M159.93,349.147a1.135,1.135,0,0,1-.728-2.007l10.577-8.8-10.577-8.8a1.135,1.135,0,0,1,1.453-1.745l11.625,9.674a1.138,1.138,0,0,1,.142,1.6,1.191,1.191,0,0,1-.142.142l-11.625,9.673A1.129,1.129,0,0,1,159.93,349.147Z" fill="#ff6c1a" stroke="#ff6c1a" stroke-width="1.5"/>
        </g>
      </g>
      <g id="Group_1155" data-name="Group 1155">
        <g id="Group_1154" data-name="Group 1154">
          <path id="Path_4094" data-name="Path 4094" d="M137.414,328.66l-11.625,9.674,11.625,9.674Z" fill="#fff"/>
          <path id="Path_4095" data-name="Path 4095" d="M137.412,349.143a1.133,1.133,0,0,1-.726-.262l-11.624-9.674a1.138,1.138,0,0,1-.144-1.6,1.216,1.216,0,0,1,.144-.143l11.624-9.674a1.135,1.135,0,1,1,1.453,1.745l-10.577,8.8,10.577,8.8a1.135,1.135,0,0,1-.727,2.007Z" fill="#ff6c1a" stroke="#ff6c1a" stroke-width="1.5"/>
        </g>
      </g>
      <g id="Group_1156" data-name="Group 1156">
        <path id="Path_4096" data-name="Path 4096" d="M145.052,351.518l6.421-26.256Z" fill="#fff" stroke="#ff6c1a" stroke-width="1.5"/>
        <path id="Path_4097" data-name="Path 4097" d="M145.054,352.654a1.138,1.138,0,0,1-1.132-1.144,1.106,1.106,0,0,1,.032-.262l6.421-26.255a1.135,1.135,0,0,1,2.2.54l-6.421,26.255A1.137,1.137,0,0,1,145.054,352.654Z" fill="#ff6c1a" stroke="#ff6c1a" stroke-width="1.5"/>
      </g>
    </g>
  </g>
</svg>
