<svg width="63" height="75" viewBox="0 0 63 75" fill="none" xmlns="http://www.w3.org/2000/svg">
<g id="Layer_1" clip-path="url(#clip0_2037_6075)">
<path id="Vector" d="M62.3 23.18C62.11 24.24 61.96 25.3 61.72 26.35C59.1 37.88 47.39 45.13 35.86 42.36C34.95 42.14 34.51 41.6 34.68 40.9C34.86 40.19 35.45 39.89 36.37 40.08C43.88 41.6 50.28 39.62 55.35 33.86C64.68 23.26 59.06 6.02001 45.29 2.87001C34.21 0.33001 23.55 7.54001 21.88 18.75C21.27 22.85 22 26.75 23.91 30.43C24.08 30.76 24.29 31.07 24.41 31.41C24.61 31.99 24.43 32.49 23.89 32.8C23.36 33.1 22.84 33.01 22.43 32.55C22.29 32.39 22.19 32.18 22.08 31.99C14.85 19.21 22.51 2.94001 36.97 0.35001C49.31 -1.85999 60.77 6.73001 62.17 19.24C62.19 19.43 62.25 19.62 62.3 19.81V23.19V23.18Z" fill="#FF6C1A"/>
<path id="Vector_2" d="M18.52 41.89C21.56 38.85 24.56 35.85 27.55 32.85C28.6 31.79 29.84 31.26 31.34 31.51C33.01 31.79 34.15 32.75 34.69 34.35C35.23 35.96 34.86 37.42 33.68 38.62C31.62 40.72 29.53 42.79 27.44 44.87C27.25 45.06 27.03 45.22 26.75 45.45C28.59 46.27 29.56 47.56 29.67 49.54C31.11 49.65 32.36 50.18 33.21 51.42C34.05 52.65 34.1 53.98 33.67 55.4C33.88 55.49 34.07 55.58 34.27 55.67C36.91 56.84 37.73 60.22 35.74 62.3C32.93 65.24 30.12 68.21 27.07 70.89C22.38 75 16.86 76.03 11 73.98C5.01001 71.89 1.36001 67.52 0.270012 61.27C-0.649988 56.04 0.780012 51.34 4.43001 47.43C6.66001 45.05 9.01001 42.79 11.33 40.49C13.63 38.2 16.86 38.74 18.34 41.63C18.37 41.69 18.42 41.75 18.52 41.88V41.89ZM15.83 72.59C20.23 72.53 23.57 71.17 26.33 68.43C28.78 65.99 31.22 63.54 33.67 61.1C33.83 60.94 33.98 60.78 34.11 60.61C34.66 59.84 34.57 58.85 33.9 58.2C33.23 57.56 32.23 57.5 31.48 58.08C31.25 58.26 31.05 58.48 30.84 58.68C30.14 59.36 29.44 59.44 28.92 58.9C28.42 58.38 28.5 57.7 29.15 57.03C29.72 56.45 30.3 55.89 30.86 55.31C31.75 54.41 31.83 53.28 31.07 52.51C30.28 51.7 29.17 51.77 28.21 52.7C27.75 53.15 27.32 53.62 26.85 54.04C26.32 54.52 25.66 54.52 25.2 54.07C24.71 53.6 24.71 52.92 25.23 52.37C25.68 51.89 26.2 51.46 26.62 50.95C26.9 50.6 27.17 50.18 27.26 49.75C27.43 48.99 27.02 48.27 26.36 47.9C25.63 47.49 24.83 47.56 24.19 48.16C23.52 48.77 22.91 49.45 22.24 50.06C21.74 50.51 21.09 50.47 20.65 50.04C20.21 49.62 20.18 48.95 20.58 48.44C20.73 48.25 20.91 48.08 21.09 47.91C24.58 44.42 28.06 40.94 31.55 37.45C31.77 37.22 32.01 37 32.2 36.75C32.64 36.14 32.7 35.48 32.34 34.81C32 34.17 31.42 33.73 30.74 33.85C30.16 33.94 29.53 34.26 29.11 34.68C23.36 40.38 17.65 46.11 11.93 51.83C11.72 52.04 11.52 52.34 11.27 52.4C10.88 52.49 10.36 52.55 10.05 52.36C9.76001 52.19 9.53001 51.68 9.54001 51.33C9.54001 51 9.84001 50.62 10.1 50.35C11.94 48.48 13.81 46.64 15.65 44.77C16.52 43.9 16.57 42.8 15.81 42.02C15.05 41.23 13.93 41.24 13.07 42.1C10.75 44.4 8.36001 46.62 6.18001 49.04C2.17001 53.48 1.23001 58.64 3.59001 64.12C5.96001 69.62 10.43 72.3 15.85 72.59H15.83Z" fill="#FF6C1A"/>
<path id="Vector_3" d="M52 23.57H29.52C29.84 24.44 30.09 25.27 30.43 26.06C30.67 26.62 31.04 27.12 31.31 27.67C31.61 28.26 31.43 28.9 30.89 29.21C30.32 29.53 29.75 29.47 29.38 28.94C28.12 27.15 27.32 25.16 27.12 22.96C27.04 22.1 27.66 21.4 28.51 21.23C28.75 21.18 29 21.17 29.24 21.17C36.94 21.17 44.64 21.17 52.33 21.17C52.43 21.17 52.53 21.17 52.62 21.17C53.95 21.25 54.66 22.12 54.45 23.45C53.23 31.04 45.76 36.25 38.21 34.77C38.11 34.75 38.02 34.72 37.93 34.7C37.17 34.5 36.82 34 36.94 33.32C37.06 32.66 37.61 32.28 38.37 32.42C40.33 32.77 42.28 32.77 44.18 32.13C48.14 30.8 50.71 28.12 51.89 24.11C51.94 23.95 51.95 23.79 51.99 23.57H52Z" fill="#FF6C1A"/>
<path id="Vector_4" d="M33.45 18.22C31.17 18.22 29.34 16.38 29.34 14.1C29.34 11.84 31.22 9.98 33.47 9.99C35.73 9.99 37.58 11.86 37.58 14.12C37.58 16.39 35.73 18.22 33.45 18.21V18.22ZM33.45 15.86C34.44 15.86 35.22 15.08 35.21 14.1C35.21 13.16 34.43 12.38 33.49 12.36C32.52 12.34 31.7 13.13 31.69 14.1C31.68 15.08 32.46 15.86 33.45 15.86Z" fill="#FF6C1A"/>
<path id="Vector_5" d="M48.2 17.63C46.07 17.64 44.35 15.94 44.35 13.83C44.35 11.72 46.08 9.98999 48.18 9.98999C50.26 9.98999 51.97 11.7 51.99 13.77C52.01 15.89 50.32 17.61 48.19 17.62L48.2 17.63ZM48.17 15.27C48.98 15.27 49.63 14.64 49.64 13.84C49.65 13.05 49 12.38 48.21 12.36C47.39 12.34 46.7 13.03 46.71 13.84C46.72 14.64 47.37 15.27 48.18 15.27H48.17Z" fill="#FF6C1A"/>
</g>
<defs>
<clipPath id="clip0_2037_6075">
<rect width="62.3" height="75" fill="white"/>
</clipPath>
</defs>
</svg>
