<svg width="75" height="75" viewBox="0 0 75 75" fill="none" xmlns="http://www.w3.org/2000/svg">
<g id="Layer_1" clip-path="url(#clip0_2037_6060)">
<path id="Vector" d="M18.82 74.99C17.89 74.99 16.92 74.92 15.96 74.78C11.67 74.15 7.71 72.01 4.79 68.78C1.88 65.55 0.190001 61.42 0.0300013 57.16C-0.339999 47.36 6.94 38.86 16.64 37.72V37.24C11.14 36.45 6.78 33.91 3.68 29.69C0.410002 25.24 -0.689999 20.28 0.420001 14.93C2.15 6.55001 9.23 0.43001 17.64 0.0500098C17.96 0.0400098 18.29 0.0300098 18.61 0.0300098C23.21 0.0300098 27.32 1.55001 30.81 4.55001C34.39 7.63001 36.55 11.69 37.25 16.65H37.74C38.66 10.46 41.72 5.76001 46.83 2.67001C49.75 0.90001 52.88 0.0100098 56.16 0.0100098C57.14 0.0100098 58.13 0.0900098 59.13 0.25001C67.99 1.65001 74.66 9.05001 74.99 17.84C75.17 22.63 73.55 27.26 70.43 30.88C67.34 34.46 63.07 36.73 58.39 37.28V37.76C63.88 38.54 68.25 41.08 71.35 45.31C74.62 49.76 75.72 54.73 74.61 60.07C72.87 68.44 65.79 74.56 57.39 74.95C57.06 74.97 56.72 74.97 56.4 74.97C51.82 74.97 47.72 73.45 44.23 70.44C40.65 67.36 38.48 63.29 37.79 58.35H37.3C36.37 64.54 33.32 69.24 28.21 72.34C25.3 74.1 22.16 74.99 18.85 74.99H18.82ZM39.79 51.6V52.74C39.79 53.83 39.79 54.85 39.79 55.9C39.8 56.85 39.85 57.63 39.93 58.35C40.81 66.33 47.79 72.72 55.81 72.9H56.2C64.74 72.9 71.72 66.7 72.78 58.16C73.83 49.78 67.77 41.54 59.55 40.16C57.89 39.88 56.17 39.86 54.52 39.85C53.76 39.85 53 39.83 52.25 39.8C52.14 39.8 51.78 39.8 51.78 39.8H51.58V35.22C51.58 35.22 53.65 35.23 54.09 35.23C54.78 35.23 55.34 35.23 55.87 35.2C57.04 35.16 58.29 35.09 59.49 34.88C63.62 34.16 67.41 31.69 69.91 28.11C72.42 24.5 73.42 20.05 72.65 15.89C71.15 7.79001 64.42 2.14001 56.28 2.14001C55.62 2.14001 54.95 2.18001 54.28 2.25001C47.29 3.02001 41.21 8.72001 40.14 15.51C39.88 17.15 39.86 18.84 39.84 20.48C39.84 21.23 39.82 21.99 39.79 22.73C39.79 22.91 39.79 23.08 39.79 23.26V23.46H35.21V22.27C35.22 21.31 35.23 20.21 35.2 19.15C35.15 17.8 35.08 16.66 34.89 15.53C33.56 7.87001 26.61 2.09001 18.72 2.09001C17.78 2.09001 16.83 2.18001 15.91 2.35001C7.02 3.98001 1.28 11.73 2.25 20.77C2.94 27.18 7.92 32.96 14.1 34.53C15.75 34.95 17.53 35.07 19.09 35.18C19.62 35.22 20.18 35.23 20.86 35.23C21.32 35.23 21.79 35.23 22.25 35.21L23.4 35.19V39.77H20.86C20.14 39.77 19.55 39.77 19.01 39.77C18.02 39.79 17.04 39.81 16.09 39.97C11.61 40.71 7.73 43.11 5.17 46.72C2.59 50.35 1.61 54.84 2.4 59.35C3.54 65.87 8.88 71.29 15.39 72.54C16.45 72.74 17.54 72.85 18.62 72.85C24.39 72.85 29.62 70 32.61 65.23C34.34 62.48 35.21 59.44 35.22 56.2V51.57H39.8L39.79 51.6Z" fill="#FF6C1A"/>
<path id="Vector_2" d="M18.82 74.79C17.89 74.79 16.94 74.72 15.99 74.58C11.75 73.95 7.82 71.84 4.94 68.64C2.06 65.45 0.389998 61.37 0.229998 57.16C-0.140002 47.41 7.16 38.95 16.83 37.91V37.08C11.31 36.32 6.93 33.8 3.83 29.58C0.599998 25.17 -0.480002 20.26 0.609998 14.97C2.32 6.66999 9.33 0.619991 17.65 0.249991C17.97 0.239991 18.3 0.229991 18.61 0.229991C23.16 0.229991 27.22 1.73999 30.68 4.70999C34.26 7.78999 36.41 11.87 37.08 16.85H37.91C38.79 10.64 41.83 5.92999 46.93 2.83999C49.81 1.08999 52.92 0.209991 56.15 0.209991C57.11 0.209991 58.1 0.289991 59.09 0.449991C67.85 1.83999 74.45 9.15999 74.78 17.85C74.96 22.59 73.35 27.17 70.27 30.75C67.18 34.34 62.89 36.59 58.18 37.1V37.93C63.7 38.68 68.07 41.2 71.18 45.43C74.42 49.84 75.5 54.75 74.4 60.03C72.68 68.31 65.67 74.37 57.36 74.75C57.03 74.77 56.7 74.77 56.38 74.77C51.84 74.77 47.79 73.26 44.34 70.29C40.76 67.21 38.61 63.12 37.94 58.15H37.11C36.22 64.36 33.19 69.07 28.09 72.16C25.22 73.9 22.1 74.79 18.83 74.79H18.82ZM39.59 52.74C39.59 53.83 39.59 54.86 39.59 55.91C39.6 56.87 39.65 57.65 39.73 58.38C40.62 66.46 47.69 72.93 55.81 73.1C55.94 73.1 56.07 73.1 56.21 73.1C64.85 73.1 71.91 66.83 72.99 58.18C74.05 49.7 67.91 41.36 59.59 39.96C57.92 39.68 56.19 39.66 54.53 39.64C53.79 39.64 53.02 39.62 52.27 39.59C52.15 39.59 52.04 39.59 51.92 39.59C51.87 39.59 51.83 39.59 51.79 39.59V35.41C52.11 35.41 52.43 35.41 52.75 35.41C53.2 35.41 53.65 35.41 54.1 35.41C54.79 35.41 55.36 35.41 55.88 35.38C57.06 35.34 58.31 35.27 59.52 35.06C63.7 34.33 67.54 31.83 70.07 28.2C72.61 24.55 73.62 20.04 72.85 15.83C71.33 7.63999 64.52 1.90999 56.28 1.90999C55.61 1.90999 54.93 1.94999 54.26 2.01999C47.18 2.79999 41.03 8.57999 39.94 15.45C39.68 17.11 39.66 18.81 39.63 20.47C39.63 21.2 39.61 21.96 39.58 22.7C39.58 22.88 39.58 23.06 39.58 23.24H38.25C37.28 23.24 36.34 23.24 35.4 23.24C35.4 22.91 35.4 22.58 35.4 22.25C35.4 21.22 35.42 20.16 35.38 19.12C35.33 17.76 35.26 16.61 35.06 15.48C33.71 7.71999 26.68 1.86999 18.69 1.86999C17.74 1.86999 16.78 1.95999 15.85 2.12999C6.88 3.80999 1.07 11.65 2.05 20.79C2.75 27.28 7.79 33.14 14.05 34.73C15.72 35.15 17.5 35.28 19.08 35.39C19.61 35.43 20.17 35.44 20.86 35.44C21.32 35.44 21.79 35.44 22.25 35.42C22.57 35.42 22.88 35.41 23.2 35.41V39.59C22.87 39.59 22.54 39.59 22.22 39.59C21.76 39.59 21.31 39.59 20.86 39.59C20.14 39.59 19.55 39.59 19 39.61H18.97C18.01 39.63 17.01 39.65 16.04 39.81C11.51 40.56 7.59 42.99 5 46.64C2.39 50.32 1.4 54.86 2.2 59.42C3.35 66.02 8.76 71.51 15.34 72.77C16.42 72.98 17.52 73.08 18.6 73.08C24.43 73.08 29.73 70.2 32.76 65.36C34.51 62.58 35.39 59.5 35.4 56.22C35.4 55.11 35.4 54 35.4 52.89V51.79H39.59C39.59 52.11 39.59 52.42 39.59 52.73V52.74Z" fill="#FF6C1A"/>
<path id="Vector_3" d="M50.86 67.43C49.03 67.43 47.71 66.63 46.95 65.06C46.2 63.5 46.39 61.97 47.54 60.53L47.82 60.16L47.74 60.03C45.97 57.33 46.1 55.68 48.27 53.52L48.38 53.41L48.32 53.27C47.34 50.99 47.93 48.97 49.84 48.13C50.33 47.91 50.94 47.79 51.57 47.78C51.94 47.78 52.32 47.78 52.69 47.78C53.38 47.78 54.07 47.78 54.76 47.79H55.02C55.8 47.79 56.58 47.81 57.36 47.81C58.7 47.81 59.8 47.79 60.83 47.74C60.9 47.74 60.98 47.74 61.05 47.74C62.47 47.74 63.73 48.42 64.41 49.55C65.07 50.65 65.06 52.01 64.38 53.28L64.29 53.44L64.43 53.56C65.47 54.39 66.05 55.43 66.16 56.63C66.27 57.84 65.88 58.92 64.97 59.95L64.85 60.08L65.3 60.71C66.33 62.15 66.48 63.64 65.72 65.14C64.96 66.65 63.71 67.43 62 67.44C60.53 67.45 58.96 67.46 57.07 67.46H50.86V67.43ZM60.21 65.36C60.76 65.36 61.31 65.36 61.85 65.36C62.52 65.36 63.12 65.11 63.54 64.69C63.91 64.3 64.11 63.78 64.1 63.22C64.08 62.03 63.16 61.18 61.86 61.16C61.65 61.16 61.43 61.16 61.22 61.16C61.05 61.16 60.4 61.16 60.4 61.16V59.08H61.31C61.53 59.08 61.75 59.08 61.97 59.08C63.2 59.04 64.1 58.16 64.1 56.99C64.1 55.83 63.2 54.92 61.99 54.88C61.76 54.88 61.53 54.87 61.3 54.87H60.37V52.8C60.37 52.8 60.87 52.8 61.01 52.8C61.21 52.8 61.38 52.8 61.54 52.77C62.35 52.66 62.82 52.13 62.83 51.34C62.84 50.5 62.34 49.92 61.55 49.88C61.07 49.85 60.56 49.84 59.93 49.84C59.55 49.84 57.42 49.86 57.42 49.86V65.36H60.19H60.21ZM51.28 61.14C50.99 61.14 50.74 61.14 50.52 61.16C49.45 61.24 48.62 62.11 48.59 63.19C48.56 64.16 49.27 65.23 50.35 65.29C50.92 65.32 51.52 65.33 52.27 65.33C52.73 65.33 53.19 65.33 53.66 65.32H55.26V49.82H52.82C52.24 49.82 51.76 49.82 51.31 49.82C50.48 49.84 49.85 50.47 49.85 51.29C49.85 52.1 50.45 52.7 51.31 52.75C51.45 52.75 51.6 52.76 51.78 52.76H52.32V54.83H51.4C51.17 54.83 50.94 54.83 50.72 54.83C49.51 54.87 48.6 55.78 48.6 56.93C48.6 58.08 49.51 58.98 50.72 59.03C50.95 59.03 51.17 59.04 51.41 59.04H52.36V61.12H51.29L51.28 61.14Z" fill="#FF6C1A"/>
<path id="Vector_4" d="M57.07 67.24C55.73 67.24 54.39 67.24 53.05 67.24H50.86C49.11 67.24 47.85 66.47 47.13 64.97C46.41 63.48 46.6 62.03 47.7 60.65C47.75 60.59 47.79 60.53 47.83 60.47L48.06 60.17L47.9 59.92C46.17 57.29 46.29 55.76 48.4 53.66L48.6 53.46L48.49 53.2C47.56 51.03 48.11 49.11 49.91 48.32C50.37 48.12 50.96 48 51.57 47.99C51.94 47.99 52.32 47.99 52.69 47.99C53.47 47.99 54.24 47.99 55.02 48C55.8 48 56.58 48.02 57.36 48.02C58.72 48.02 59.82 48 60.84 47.95C60.91 47.95 60.98 47.95 61.05 47.95C62.4 47.95 63.6 48.59 64.24 49.66C64.86 50.7 64.85 51.99 64.2 53.19L64.04 53.5L64.31 53.72C65.31 54.52 65.86 55.51 65.96 56.65C66.06 57.8 65.69 58.84 64.81 59.82L64.59 60.07C64.59 60.07 65.05 60.72 65.13 60.83C66.12 62.21 66.25 63.63 65.54 65.05C64.82 66.49 63.62 67.23 61.99 67.24C60.52 67.25 58.96 67.26 57.06 67.26L57.07 67.24ZM57.24 65.56H57.66C58.1 65.56 58.53 65.56 58.96 65.56C59.38 65.56 59.8 65.56 60.22 65.56C60.77 65.56 61.32 65.56 61.87 65.56C62.6 65.56 63.25 65.29 63.7 64.83C64.11 64.41 64.33 63.83 64.32 63.22C64.29 61.92 63.29 60.99 61.89 60.96C61.67 60.96 61.46 60.96 61.25 60.96C61.07 60.96 60.66 60.96 60.63 60.96V59.29C60.69 59.29 60.74 59.29 60.8 59.29C60.98 59.29 61.17 59.29 61.34 59.29C61.56 59.29 61.78 59.29 62.01 59.28C63.35 59.23 64.33 58.27 64.34 57C64.34 55.73 63.36 54.74 62.04 54.69C61.81 54.69 61.58 54.68 61.35 54.68C61.16 54.68 60.98 54.68 60.79 54.68C60.74 54.68 60.68 54.68 60.62 54.68V53C60.62 53 60.62 53 60.63 53C60.77 53 60.92 53 61.06 53C61.27 53 61.45 52.99 61.62 52.97C62.52 52.84 63.07 52.23 63.08 51.34C63.09 50.4 62.5 49.73 61.61 49.68C61.13 49.65 60.61 49.64 59.98 49.64C59.6 49.64 59.22 49.64 58.83 49.64C58.45 49.64 58.07 49.64 57.69 49.64H57.27V65.54L57.24 65.56ZM51.29 60.95C50.99 60.95 50.74 60.95 50.51 60.97C49.34 61.06 48.43 62.01 48.4 63.2C48.37 64.26 49.15 65.44 50.35 65.51C50.92 65.54 51.53 65.56 52.28 65.56C52.74 65.56 53.21 65.56 53.67 65.55C54.13 65.55 54.59 65.54 55.05 65.54H55.47V49.66H55.05C54.67 49.66 54.29 49.66 53.92 49.66C53.55 49.66 53.19 49.66 52.82 49.66C52.23 49.66 51.75 49.66 51.31 49.68C50.36 49.7 49.65 50.42 49.66 51.35C49.66 52.27 50.34 52.95 51.3 53.01C51.45 53.01 51.6 53.02 51.79 53.02C51.9 53.02 52.02 53.02 52.13 53.02V54.69C52.08 54.69 52.02 54.69 51.97 54.69C51.78 54.69 51.59 54.69 51.41 54.69C51.18 54.69 50.95 54.69 50.72 54.7C49.4 54.75 48.41 55.74 48.41 57C48.41 58.26 49.41 59.25 50.72 59.3C50.95 59.3 51.18 59.31 51.41 59.31C51.59 59.31 51.78 59.31 51.97 59.31C52.03 59.31 52.1 59.31 52.16 59.31V60.99C52.07 60.99 51.99 60.99 51.9 60.99C51.69 60.99 51.48 60.99 51.28 60.99L51.29 60.95Z" fill="#FF6C1A"/>
<path id="Vector_5" d="M17.46 67.43C16.83 67.43 16.46 67.15 16.31 66.55L16.19 66.06C16.13 65.79 16.06 65.52 15.99 65.25C15.83 64.64 15.45 64.28 14.96 64.28C14.73 64.28 14.49 64.36 14.25 64.52C13.29 65.16 12.75 65.42 12.38 65.42C12.01 65.42 11.72 65.13 11.22 64.61C11.05 64.43 10.85 64.22 10.61 64C10.47 63.86 9.95 63.34 9.95 63.34C9.51 62.9 9.45 62.44 9.77 61.9C9.87 61.72 10.38 60.9 10.38 60.9C10.68 60.4 10.76 60 10.62 59.67C10.48 59.34 10.12 59.1 9.53 58.96C9.15 58.87 8.77 58.78 8.39 58.68C7.84 58.54 7.57 58.2 7.56 57.65C7.54 56.83 7.54 55.98 7.56 55.07C7.57 54.51 7.84 54.17 8.38 54.03C8.59 53.98 8.79 53.93 9 53.88C9.31 53.81 9.57 53.75 9.83 53.68C10.2 53.58 10.48 53.35 10.6 53.05C10.73 52.74 10.7 52.38 10.51 52.03C10.49 51.99 10.48 51.97 10.46 51.94C9.23 50.13 9.32 49.94 10.35 48.95C10.52 48.78 10.72 48.59 10.94 48.37C11.24 48.06 11.48 47.82 11.71 47.6C11.94 47.38 12.18 47.27 12.44 47.27C12.63 47.27 12.83 47.33 13.04 47.45C13.24 47.56 13.43 47.68 13.64 47.81C13.89 47.97 14.1 48.1 14.32 48.22C14.53 48.34 14.74 48.4 14.95 48.4C15.42 48.4 15.81 48.07 15.96 47.54C16.05 47.22 16.13 46.9 16.2 46.58L16.3 46.16C16.45 45.55 16.81 45.27 17.44 45.27H18.75H19.87C20.47 45.27 20.83 45.55 20.97 46.11C21.02 46.31 21.29 47.4 21.29 47.4C21.45 48.03 21.84 48.41 22.34 48.41C22.58 48.41 22.82 48.33 23.07 48.16C24.01 47.53 24.55 47.27 24.92 47.27C25.29 47.27 25.58 47.56 26.08 48.09C26.26 48.28 26.43 48.46 26.64 48.67C26.96 48.99 27.24 49.34 27.53 49.71L27.87 50.13L27.59 50.62C27.36 51.03 27.17 51.37 26.97 51.7C26.73 52.1 26.48 52.62 26.66 53.05C26.84 53.47 27.36 53.65 27.8 53.75C28.77 53.98 29.3 54.11 29.52 54.38C29.74 54.66 29.74 55.2 29.74 56.19V56.81C29.76 57.64 29.75 58.05 29.53 58.31C29.26 58.62 28.59 58.81 27.6 59.01C27.13 59.1 26.8 59.34 26.67 59.67C26.53 60 26.6 60.4 26.87 60.8C28.03 62.55 28.03 62.72 26.88 63.84C26.73 63.98 25.67 65.04 25.67 65.04C25.41 65.3 25.14 65.43 24.86 65.43C24.64 65.43 24.41 65.36 24.17 65.21L23.78 64.97C23.54 64.82 23.28 64.66 23.02 64.51C22.8 64.38 22.58 64.32 22.36 64.32C21.87 64.32 21.48 64.66 21.33 65.22C21.26 65.49 21.19 65.75 21.13 66.02L20.99 66.59C20.85 67.16 20.49 67.44 19.9 67.44C19.56 67.44 19.21 67.44 18.87 67.44H17.47L17.46 67.43ZM14.59 62.07C15.52 62.24 16.5 62.61 17.33 63.12C17.5 63.22 17.6 63.49 17.73 63.89C17.8 64.11 17.87 64.33 17.97 64.52C18.07 64.72 18.2 64.89 18.34 65.05L18.51 65.26L18.7 65.51L19.02 65.04C19.14 64.88 19.25 64.72 19.34 64.54C19.45 64.34 19.53 64.12 19.61 63.91C19.76 63.53 19.91 63.14 20.15 62.99C20.93 62.51 21.76 62.07 22.6 62.07C23.24 62.07 23.82 62.33 24.37 62.86C24.43 62.91 24.5 62.94 24.6 62.94L24.73 62.92C24.99 62.8 25.14 62.66 25.2 62.47C25.28 62.22 25.16 61.96 25.02 61.72C24.96 61.63 24.9 61.53 24.84 61.43C24.55 60.97 24.33 60.61 24.38 60.34C24.55 59.4 24.91 58.45 25.4 57.67C25.52 57.48 25.82 57.37 26.24 57.23C26.47 57.16 26.67 57.09 26.86 56.99C27.05 56.89 27.21 56.77 27.37 56.65L27.57 56.5L27.82 56.33L27.58 56.15C27.51 56.1 27.45 56.05 27.39 55.99C27.25 55.87 27.08 55.73 26.89 55.63C26.69 55.53 26.47 55.46 26.26 55.39C25.9 55.27 25.57 55.16 25.38 54.95C24.32 53.74 24.2 52.29 25.05 50.87C25.23 50.57 25.28 50.33 25.2 50.13C25.14 49.95 24.99 49.83 24.75 49.74L24.67 49.71L24.59 49.75C24.35 49.86 24.14 49.98 23.92 50.1C23.47 50.36 23.09 50.58 22.78 50.58C21.88 50.48 20.94 50.12 19.98 49.54C19.81 49.44 19.71 49.15 19.58 48.76C19.51 48.55 19.44 48.34 19.35 48.14C19.25 47.94 19.11 47.77 18.98 47.6L18.82 47.39L18.64 47.14L18.46 47.4C18.42 47.46 18.37 47.52 18.32 47.58C18.17 47.76 18.01 47.95 17.98 48.18C17.84 49.23 17.31 49.84 16.33 50.09C16.01 50.17 15.7 50.32 15.43 50.45C15.13 50.59 14.92 50.64 14.72 50.64C14.45 50.64 14.2 50.55 13.93 50.37C13.63 50.17 13.34 49.97 13.02 49.83C12.95 49.8 12.85 49.78 12.74 49.78C12.62 49.78 12.41 49.8 12.3 49.95C12.16 50.13 12.1 50.43 12.17 50.66C12.24 50.92 12.41 51.15 12.56 51.34C13.05 51.96 13.1 52.58 12.71 53.29C12.56 53.57 12.45 53.83 12.39 54.07C12.17 54.96 11.59 55.46 10.58 55.62C10.34 55.66 10.14 55.81 9.96 55.96C9.89 56.02 9.82 56.07 9.75 56.12L9.47 56.3L9.74 56.49C9.81 56.54 9.88 56.59 9.95 56.65C10.13 56.79 10.31 56.93 10.52 57.01C10.69 57.07 10.86 57.12 11.02 57.16C11.47 57.27 11.85 57.37 12.05 57.8L12.24 58.2C13.01 59.8 13.38 60.86 12.06 61.99L11.93 62.1L12 62.25C12.14 62.55 12.35 62.88 12.72 62.88C12.87 62.88 13.04 62.82 13.23 62.7C13.32 62.64 13.41 62.58 13.51 62.52C13.92 62.25 14.26 62.04 14.52 62.04H14.59V62.07Z" fill="#FF6C1A"/>
<path id="Vector_6" d="M17.46 67.23C16.92 67.23 16.63 67.01 16.51 66.5C16.47 66.34 16.43 66.17 16.39 66.01C16.33 65.74 16.26 65.47 16.19 65.2C16.01 64.5 15.55 64.08 14.96 64.08C14.69 64.08 14.41 64.17 14.14 64.35C13.23 64.96 12.7 65.22 12.38 65.22C12.09 65.22 11.86 64.99 11.36 64.47C11.18 64.29 10.99 64.08 10.75 63.85C10.61 63.71 10.47 63.57 10.33 63.44C10.25 63.36 10.17 63.27 10.08 63.19C9.7 62.81 9.66 62.46 9.93 61.99C10.05 61.79 10.17 61.6 10.29 61.4C10.37 61.26 10.46 61.13 10.54 60.99C10.88 60.43 10.96 59.97 10.8 59.58C10.63 59.18 10.23 58.91 9.57 58.75C9.19 58.66 8.81 58.57 8.44 58.47C7.98 58.35 7.77 58.09 7.76 57.63C7.74 56.81 7.74 55.97 7.76 55.06C7.76 54.59 7.98 54.33 8.43 54.21C8.63 54.16 8.84 54.11 9.05 54.06C9.32 54 9.61 53.93 9.89 53.85C10.32 53.73 10.64 53.47 10.79 53.11C10.94 52.75 10.91 52.32 10.69 51.92C10.67 51.87 10.65 51.84 10.63 51.81C9.45 50.07 9.55 49.98 10.49 49.08C10.67 48.91 10.87 48.72 11.09 48.49C11.38 48.19 11.63 47.94 11.85 47.73C12.04 47.55 12.24 47.46 12.44 47.46C12.59 47.46 12.76 47.51 12.94 47.61C13.15 47.73 13.36 47.86 13.58 47.99C13.79 48.12 14 48.25 14.22 48.37C14.46 48.51 14.71 48.58 14.95 48.58C15.52 48.58 15.98 48.19 16.15 47.58C16.24 47.24 16.32 46.9 16.4 46.58C16.43 46.45 16.46 46.33 16.49 46.2C16.62 45.68 16.9 45.46 17.43 45.46C17.87 45.46 18.3 45.46 18.74 45.46C19.11 45.46 19.49 45.46 19.86 45.46C20.37 45.46 20.65 45.68 20.77 46.15C20.83 46.38 20.88 46.61 20.94 46.84C20.99 47.04 21.04 47.24 21.09 47.44C21.27 48.17 21.74 48.6 22.33 48.6C22.61 48.6 22.89 48.5 23.17 48.32C24.07 47.72 24.59 47.46 24.91 47.46C25.2 47.46 25.43 47.69 25.92 48.22C26.08 48.39 26.27 48.59 26.48 48.8C26.79 49.1 27.06 49.45 27.36 49.82C27.44 49.93 27.53 50.03 27.61 50.14C27.54 50.27 27.47 50.39 27.4 50.51C27.18 50.9 26.98 51.24 26.78 51.58C26.51 52.02 26.24 52.59 26.45 53.11C26.66 53.62 27.24 53.81 27.72 53.93C28.61 54.14 29.15 54.27 29.33 54.49C29.51 54.71 29.51 55.26 29.51 56.17C29.51 56.4 29.51 56.6 29.51 56.79C29.52 57.57 29.51 57.95 29.34 58.16C29.11 58.43 28.45 58.61 27.52 58.8C26.99 58.91 26.6 59.18 26.44 59.57C26.28 59.96 26.35 60.43 26.65 60.88C27.79 62.6 27.74 62.64 26.69 63.66C26.54 63.8 26.38 63.96 26.2 64.15C26.06 64.29 25.92 64.43 25.78 64.57C25.68 64.67 25.58 64.77 25.48 64.87C25.26 65.09 25.04 65.2 24.81 65.2C24.63 65.2 24.43 65.13 24.22 65C24.09 64.92 23.96 64.84 23.83 64.76C23.58 64.61 23.33 64.45 23.07 64.3C22.82 64.16 22.57 64.08 22.31 64.08C21.73 64.08 21.26 64.48 21.08 65.13C21.01 65.4 20.94 65.67 20.88 65.94C20.84 66.13 20.79 66.32 20.74 66.51C20.62 66.99 20.34 67.21 19.84 67.21C19.5 67.21 19.16 67.21 18.81 67.21C18.52 67.21 17.41 67.21 17.41 67.21L17.46 67.23ZM14.53 62.26C14.53 62.26 14.55 62.26 14.56 62.26C15.47 62.43 16.42 62.79 17.23 63.28C17.35 63.35 17.46 63.69 17.54 63.95C17.61 64.17 17.68 64.39 17.78 64.6C17.89 64.82 18.03 65 18.17 65.17C18.22 65.24 18.28 65.31 18.33 65.37L18.68 65.85L19.01 65.35C19.06 65.28 19.1 65.21 19.15 65.15C19.27 64.99 19.38 64.82 19.49 64.63C19.6 64.42 19.69 64.2 19.77 63.98C19.9 63.63 20.04 63.27 20.23 63.16C20.98 62.7 21.79 62.27 22.58 62.27C23.16 62.27 23.7 62.51 24.21 63C24.3 63.09 24.43 63.14 24.57 63.14H24.59L24.68 63.15L24.79 63.1C25.1 62.96 25.29 62.77 25.37 62.53C25.47 62.2 25.33 61.89 25.17 61.62C25.11 61.53 25.05 61.43 24.99 61.33C24.79 61.02 24.52 60.6 24.56 60.39C24.72 59.47 25.08 58.55 25.55 57.8C25.64 57.66 25.98 57.54 26.29 57.45C26.51 57.38 26.73 57.31 26.94 57.2C27.14 57.1 27.31 56.97 27.48 56.84C27.54 56.79 27.61 56.74 27.67 56.7L28.14 56.37L27.69 56.02C27.63 55.97 27.57 55.92 27.51 55.87C27.36 55.74 27.18 55.59 26.97 55.49C26.76 55.38 26.53 55.31 26.31 55.24C25.98 55.13 25.67 55.03 25.52 54.86C24.52 53.72 24.41 52.35 25.21 51.01C25.42 50.66 25.47 50.36 25.38 50.1C25.3 49.87 25.1 49.7 24.81 49.59L24.65 49.53L24.49 49.6C24.24 49.72 24 49.85 23.77 49.99C23.39 50.21 23.03 50.42 22.77 50.42C22.75 50.42 22.74 50.42 22.72 50.42C21.92 50.32 21.01 49.98 20.07 49.41C19.95 49.34 19.84 49 19.76 48.74C19.69 48.52 19.62 48.3 19.52 48.09C19.41 47.87 19.27 47.69 19.13 47.52C19.08 47.45 19.02 47.38 18.97 47.31L18.62 46.83L18.28 47.33C18.24 47.39 18.19 47.45 18.14 47.51C17.99 47.69 17.81 47.91 17.77 48.2C17.64 49.17 17.17 49.71 16.27 49.95C15.93 50.04 15.63 50.18 15.33 50.32L15.25 50.36C15.06 50.45 14.88 50.49 14.7 50.49C14.47 50.49 14.25 50.41 14.03 50.26C13.73 50.05 13.42 49.85 13.09 49.7C12.96 49.64 12.82 49.63 12.73 49.63C12.58 49.63 12.3 49.66 12.13 49.87C11.95 50.1 11.88 50.47 11.97 50.76C12.05 51.05 12.23 51.3 12.4 51.51C12.84 52.07 12.88 52.6 12.53 53.24C12.37 53.54 12.26 53.81 12.19 54.06C11.99 54.88 11.48 55.31 10.54 55.47C10.25 55.52 10.02 55.69 9.83 55.85C9.76 55.9 9.7 55.96 9.63 56L9.1 56.34L9.61 56.7C9.68 56.75 9.75 56.8 9.81 56.85C9.99 56.99 10.18 57.15 10.43 57.24C10.61 57.31 10.78 57.35 10.95 57.4C11.42 57.52 11.7 57.61 11.85 57.93C11.91 58.06 11.98 58.2 12.04 58.33C12.76 59.84 13.14 60.83 11.91 61.89L11.67 62.1L11.81 62.39C11.91 62.59 12.16 63.14 12.71 63.14C12.9 63.14 13.1 63.07 13.33 62.93C13.42 62.87 13.52 62.81 13.62 62.74C13.92 62.54 14.3 62.29 14.52 62.29L14.53 62.26Z" fill="#FF6C1A"/>
<path id="Vector_7" d="M30.13 48.58C29.41 48.58 28.97 48.25 28.96 47.71V47.25C28.92 46.02 28.89 44.74 29.05 43.52C29.33 41.45 30.53 39.92 32.61 38.96C33.02 38.77 34.61 38.07 34.61 38.07L34.94 37.92L34.66 37.69C32.15 35.65 32.49 33.04 32.86 30.27L32.88 30.15C33.15 28.07 35.09 26.46 37.4 26.41C37.92 26.4 38.47 26.39 39.1 26.39C39.76 26.39 40.42 26.39 41.08 26.4C41.94 26.4 42.3 26.78 42.31 27.63C42.32 29.61 42.33 31.73 42.31 33.83C42.29 35.31 41.66 36.56 40.37 37.68L40.11 37.91L41.22 38.41C41.75 38.64 42.25 38.86 42.73 39.11C44.85 40.22 45.98 42 46.09 44.4C46.13 45.28 46.12 46.17 46.1 47.03V47.37C46.08 48.19 45.71 48.57 44.92 48.57C42.5 48.57 40.07 48.57 37.65 48.57C35.23 48.57 32.66 48.57 30.16 48.57L30.13 48.58ZM44 46.46V44.79C44.01 42.92 43.16 41.58 41.46 40.82L41.23 40.72C40.2 40.25 39.14 39.78 38.09 39.34C37.89 39.26 37.66 39.21 37.45 39.21C37.3 39.21 37.16 39.23 37.04 39.28C35.59 39.88 34.32 40.45 33.17 41.01C32.03 41.56 31.32 42.49 31.12 43.69C31.02 44.26 31 44.82 30.98 45.42C30.98 45.7 30.96 45.97 30.94 46.24V46.47H43.99L44 46.46ZM38.28 28.47C37.88 28.47 37.55 28.47 37.25 28.5C35.93 28.59 34.85 29.69 34.78 31.02C34.73 31.95 34.73 32.93 34.78 33.94C34.84 35.25 36.22 36.68 37.47 36.72C38.71 36.72 40.17 35.23 40.2 33.97C40.24 32.78 40.23 31.61 40.22 30.37C40.22 29.8 40.22 28.49 40.22 28.49C40.22 28.49 38.55 28.47 38.28 28.47Z" fill="#FF6C1A"/>
<path id="Vector_8" d="M37.62 48.39C35.12 48.39 32.63 48.39 30.13 48.39C29.84 48.39 29.17 48.32 29.16 47.72V47.26C29.12 46.03 29.09 44.76 29.25 43.56C29.52 41.56 30.68 40.08 32.7 39.15C33.12 38.96 33.55 38.77 34 38.56L34.69 38.25L35.31 37.97L34.78 37.54C32.36 35.57 32.69 33.01 33.05 30.3L33.07 30.18C33.33 28.2 35.19 26.66 37.4 26.62C37.92 26.61 38.47 26.6 39.09 26.6C39.75 26.6 40.41 26.6 41.07 26.61C41.82 26.61 42.1 26.9 42.1 27.64C42.11 29.62 42.12 31.74 42.1 33.84C42.09 35.26 41.47 36.47 40.23 37.54L39.73 37.97L40.33 38.24C40.6 38.36 40.87 38.48 41.12 38.59C41.65 38.82 42.14 39.04 42.61 39.29C44.66 40.37 45.75 42.09 45.86 44.42C45.9 45.29 45.89 46.18 45.87 47.04V47.38C45.85 48.09 45.57 48.39 44.88 48.39C42.46 48.39 40.03 48.39 37.61 48.39H37.62ZM37.45 39C37.27 39 37.11 39.03 36.97 39.09C35.51 39.69 34.24 40.26 33.09 40.82C31.89 41.4 31.14 42.38 30.93 43.64C30.83 44.23 30.81 44.8 30.79 45.41C30.79 45.67 30.77 45.94 30.75 46.21L30.72 46.66H44.2V45.75C44.2 45.42 44.2 45.1 44.2 44.79C44.21 42.83 43.32 41.43 41.54 40.63L41.31 40.53C40.28 40.07 39.22 39.59 38.16 39.15C37.94 39.06 37.68 39.01 37.45 39.01V39ZM38.28 28.27C37.88 28.27 37.54 28.27 37.23 28.3C35.81 28.39 34.65 29.58 34.58 31.01C34.53 31.95 34.53 32.94 34.58 33.95C34.64 35.38 36.1 36.88 37.47 36.92H37.52C38.83 36.92 40.37 35.35 40.41 33.98C40.45 32.77 40.44 31.59 40.43 30.33C40.43 29.8 40.43 29.26 40.43 28.71V28.29H40.01C39.71 28.29 39.41 28.29 39.12 28.29C38.84 28.29 38.56 28.29 38.29 28.29L38.28 28.27Z" fill="#FF6C1A"/>
<path id="Vector_9" d="M21.83 28.99C21.43 28.99 21.1 28.59 20.63 27.86L16.33 21.18L14.41 23.22C14.33 23.3 14.26 23.39 14.19 23.48C14.02 23.69 13.91 23.83 13.77 23.89C13.52 23.99 13.07 24.19 12.73 24.19C12.65 24.19 12.58 24.18 12.52 24.16C12.29 24.07 11.99 23.57 11.94 23.19C11.87 22.59 11.89 21.98 11.92 21.35C11.93 21.07 11.94 20.81 11.95 20.56C11.95 20.56 12.08 12.24 12.12 9.96999C12.14 9.14999 12.49 8.67999 13.09 8.67999C13.3 8.67999 13.54 8.73999 13.79 8.84999C16.13 9.85999 18.47 10.89 20.81 11.91L25.78 14.08C26.4 14.35 26.66 14.69 26.62 15.22C26.59 15.71 26.32 16.01 25.7 16.22C24.99 16.46 22.3 17.37 22.3 17.37L26.71 24.23C27.44 25.37 27.37 25.7 26.25 26.43C25.2 27.11 24.14 27.79 23.08 28.46C22.63 28.75 22.16 29.02 21.82 29.02L21.83 28.99ZM16.52 18.46C16.87 18.46 17.21 18.72 17.54 19.22C18.44 20.6 19.33 21.99 20.22 23.38L21.61 25.55C21.72 25.72 21.83 25.88 21.94 26.04L22.26 26.51L24.71 24.93L24.12 23.98L22.83 21.97C21.87 20.48 20.91 18.98 19.97 17.51C19.71 17.1 19.63 16.74 19.73 16.44C19.83 16.14 20.12 15.9 20.58 15.73C20.9 15.61 21.23 15.5 21.61 15.37L22.74 14.98L14.14 11.23V20.48C14.14 20.48 15.31 19.24 15.52 19.02C15.88 18.65 16.21 18.46 16.52 18.46Z" fill="#FF6C1A"/>
<path id="Vector_10" d="M21.83 28.79C21.56 28.79 21.29 28.52 20.8 27.75L16.37 20.85L14.27 23.07C14.18 23.16 14.11 23.26 14.04 23.35C13.92 23.5 13.8 23.65 13.7 23.69C13.49 23.78 13.04 23.97 12.74 23.97C12.68 23.97 12.64 23.97 12.6 23.95C12.46 23.9 12.19 23.48 12.16 23.15C12.09 22.55 12.12 21.95 12.14 21.31C12.15 21.05 12.16 20.8 12.16 20.54L12.2 18.11C12.24 15.39 12.28 12.67 12.33 9.95001C12.33 9.54001 12.45 8.85001 13.1 8.85001C13.28 8.85001 13.49 8.90001 13.72 9.00001C16.17 10.06 18.61 11.13 21.06 12.2C22.61 12.88 24.16 13.55 25.71 14.23C26.34 14.5 26.46 14.81 26.44 15.17C26.42 15.51 26.28 15.78 25.65 15.99C24.94 16.23 24.23 16.47 23.49 16.72L22.01 17.22C22.01 17.22 25.55 22.74 26.56 24.3C27.23 25.34 27.18 25.56 26.16 26.22C25.11 26.9 24.05 27.58 22.99 28.25C22.58 28.51 22.13 28.78 21.84 28.78L21.83 28.79ZM16.52 18.66C16.8 18.66 17.08 18.88 17.37 19.33C18.27 20.71 19.16 22.1 20.05 23.49C20.51 24.21 20.98 24.94 21.44 25.66C21.55 25.83 21.67 26.01 21.79 26.18L22.2 26.78L24.98 24.99L24.59 24.37C24.48 24.19 24.38 24.03 24.28 23.87C23.85 23.2 23.42 22.53 22.99 21.86C22.05 20.4 21.08 18.89 20.13 17.4C19.97 17.16 19.81 16.8 19.91 16.5C20.01 16.2 20.36 16.01 20.64 15.91C20.96 15.79 21.29 15.68 21.67 15.55C21.86 15.49 22.05 15.42 22.26 15.35L23.28 15L13.93 10.92V20.97L14.99 19.84C15.22 19.6 15.43 19.37 15.65 19.14C15.96 18.82 16.26 18.64 16.5 18.64L16.52 18.66Z" fill="#FF6C1A"/>
<path id="Vector_11" d="M48.36 29.04L54.93 22.56L52.49 20.25L46.06 26.82L44.57 25.22L44.93 24.85L46.69 23.09C48.17 21.61 49.7 20.08 51.2 18.56C51.5 18.26 51.74 17.89 51.88 17.52C53.87 12.22 58.79 8.79999 64.42 8.79999C64.63 8.79999 64.84 8.79999 65.04 8.80999C65.8 8.83999 66.17 9.20999 66.2 9.97999C66.46 15.8 62.96 21.1 57.48 23.15C57.12 23.29 56.75 23.53 56.44 23.83C54.93 25.32 53.4 26.85 51.92 28.34L50.23 30.03C50.1 30.16 49.99 30.26 49.88 30.37L49.74 30.51L48.38 29.05L48.36 29.04ZM63.66 10.95C59.86 10.95 55.85 13.67 54.12 17.42C53.9 17.9 53.74 18.52 54.46 19.08C54.73 19.3 54.98 19.56 55.22 19.81C55.33 19.93 55.44 20.05 55.56 20.16C56.17 20.77 56.47 21.07 56.9 21.07C57.22 21.07 57.55 20.9 58.16 20.56C61.74 18.6 63.74 15.44 64.13 11.18L64.15 10.95H63.67H63.66Z" fill="#FF6C1A"/>
<path id="Vector_12" d="M48.63 29.05L55.21 22.56L52.47 19.98L46.04 26.54L44.82 25.23C44.89 25.15 44.97 25.07 45.05 24.99C45.64 24.4 46.22 23.82 46.81 23.23C48.29 21.75 49.82 20.22 51.32 18.7C51.64 18.38 51.89 17.98 52.04 17.59C54 12.37 58.85 8.98999 64.4 8.98999C64.6 8.98999 64.81 8.98999 65.01 8.99999C65.67 9.02999 65.95 9.30999 65.98 9.96999C66.24 15.71 62.79 20.92 57.39 22.94C57 23.09 56.6 23.34 56.28 23.66C54.76 25.16 53.24 26.69 51.76 28.17C51.19 28.74 50.63 29.31 50.06 29.87C49.95 29.98 49.84 30.08 49.73 30.19L48.64 29.02L48.63 29.05ZM63.66 10.75C59.79 10.75 55.7 13.52 53.94 17.33C53.71 17.83 53.5 18.57 54.34 19.24C54.6 19.44 54.83 19.69 55.08 19.95C55.19 20.07 55.31 20.19 55.42 20.3L55.44 20.32C56.05 20.93 56.39 21.27 56.9 21.27C57.27 21.27 57.62 21.09 58.25 20.74C61.89 18.74 63.93 15.54 64.32 11.21L64.36 10.77H63.92C63.84 10.75 63.75 10.75 63.67 10.75H63.66Z" fill="#FF6C1A"/>
<path id="Vector_13" d="M18.6 59.89C16.67 59.86 15.1 58.27 15.11 56.33C15.11 54.38 16.72 52.8 18.68 52.8C20.62 52.82 22.22 54.45 22.2 56.36C22.18 58.31 20.59 59.89 18.65 59.89H18.6ZM18.65 54.87C17.87 54.87 17.22 55.5 17.18 56.28C17.16 56.68 17.31 57.07 17.59 57.36C17.87 57.65 18.25 57.82 18.65 57.82C19.45 57.82 20.11 57.17 20.13 56.37C20.14 55.57 19.5 54.9 18.7 54.88L18.66 54.68V54.88L18.65 54.87Z" fill="#FF6C1A"/>
<path id="Vector_14" d="M18.6 59.69C16.78 59.67 15.3 58.16 15.31 56.33C15.31 54.49 16.83 53 18.68 53H18.71C20.51 53.02 22.02 54.55 22 56.36C21.99 58.2 20.48 59.69 18.65 59.69H18.6ZM18.65 54.67C17.77 54.67 17.02 55.39 16.98 56.27C16.96 56.72 17.13 57.17 17.44 57.5C17.76 57.83 18.19 58.02 18.64 58.02C19.55 58.02 20.3 57.28 20.31 56.37C20.33 55.46 19.6 54.7 18.69 54.67H18.64H18.65Z" fill="#FF6C1A"/>
</g>
<defs>
<clipPath id="clip0_2037_6060">
<rect width="75" height="74.99" fill="white"/>
</clipPath>
</defs>
</svg>
