<svg xmlns="http://www.w3.org/2000/svg" width="121.495" height="98.114" viewBox="0 0 121.495 98.114">
  <path id="Visual_hierarchy" data-name="Visual hierarchy" d="M205.906,218.157a1.535,1.535,0,0,1,1.594-1.594H235a1.594,1.594,0,1,1,0,3.189H207.633a1.648,1.648,0,0,1-1.727-1.594Zm30.821,11.824a1.535,1.535,0,0,0-1.594-1.594h-27.5a1.594,1.594,0,1,0,0,3.189h27.5A1.617,1.617,0,0,0,236.727,229.98Zm-17,28.032V244.993H202.452a9.469,9.469,0,0,1-9.433-9.433V212.577a9.469,9.469,0,0,1,9.433-9.433h37.73a9.469,9.469,0,0,1,9.433,9.433v23.116a9.469,9.469,0,0,1-9.433,9.433H222.912v13.019h41.582a1.535,1.535,0,0,1,1.594,1.594v16.872h8.5a6.86,6.86,0,0,1,6.908,6.908v9.832a6.86,6.86,0,0,1-6.908,6.908H254.4a6.86,6.86,0,0,1-6.908-6.908v-9.832a6.86,6.86,0,0,1,6.908-6.908h8.5V261.333H222.911v15.278h8.5a6.86,6.86,0,0,1,6.908,6.908v9.832a6.86,6.86,0,0,1-6.908,6.908H211.22a6.86,6.86,0,0,1-6.908-6.908v-9.832a6.86,6.86,0,0,1,6.908-6.908h8.5V261.333H179.735v15.278h8.5a6.86,6.86,0,0,1,6.908,6.908v9.832a6.86,6.86,0,0,1-6.908,6.908H167.911A6.86,6.86,0,0,1,161,293.35v-9.832a6.86,6.86,0,0,1,6.908-6.908h8.5V259.738a1.535,1.535,0,0,1,1.594-1.594h41.717ZM188.237,279.8H167.911a3.571,3.571,0,0,0-3.587,3.586v9.832a3.571,3.571,0,0,0,3.587,3.586H188.1a3.571,3.571,0,0,0,3.586-3.586v-9.832A3.382,3.382,0,0,0,188.237,279.8Zm43.175,0H211.219a3.571,3.571,0,0,0-3.587,3.586v9.832a3.571,3.571,0,0,0,3.587,3.586h20.193A3.571,3.571,0,0,0,235,293.217v-9.832A3.489,3.489,0,0,0,231.412,279.8Zm43.31,0H254.4a3.571,3.571,0,0,0-3.586,3.586v9.832A3.571,3.571,0,0,0,254.4,296.8h20.193a3.571,3.571,0,0,0,3.586-3.586v-9.832a3.382,3.382,0,0,0-3.453-3.586Zm-72.271-38h37.73a6.1,6.1,0,0,0,6.111-6.111V212.576a6.1,6.1,0,0,0-6.111-6.111h-37.73a6.1,6.1,0,0,0-6.111,6.111v23.116A6.181,6.181,0,0,0,202.451,241.8Z" transform="translate(-160.503 -202.644)" fill="#ff6c1a" stroke="#ff6c1a" stroke-width="1"/>
</svg>
