<svg xmlns="http://www.w3.org/2000/svg" width="63" height="63" viewBox="0 0 63 63">
  <defs>
    <style>
      .cls-1 {
        fill: #af4a11;
      }

      .cls-2 {
        fill: #fff;
      }
    </style>
  </defs>
  <g id="Group_422" data-name="Group 422" transform="translate(-216 -14369)">
    <rect id="Rectangle_238" data-name="Rectangle 238" class="cls-1" width="63" height="63" rx="11" transform="translate(216 14369)"/>
    <path id="Icon_simple-skype" data-name="Icon simple-skype" class="cls-2" d="M16.941,26.488c-5.646,0-8.168-2.777-8.168-4.861a1.774,1.774,0,0,1,1.871-1.819c2.418,0,1.787,3.476,6.3,3.476,2.3,0,3.579-1.256,3.579-2.542,0-.773-.378-1.628-1.9-2.005L13.6,17.481c-4.042-1.016-4.776-3.208-4.776-5.264,0-4.276,4.015-5.882,7.787-5.882,3.468,0,7.569,1.927,7.569,4.489a1.848,1.848,0,0,1-2.039,1.74c-2.062,0-1.681-2.859-5.844-2.859-2.062,0-3.217.932-3.217,2.269s1.618,1.765,3.027,2.087l3.7.824c4.057.911,5.086,3.292,5.086,5.535,0,3.475-2.669,6.068-8.03,6.068M32.42,19.638l-.041.189-.062-.337c.021.063.062.1.083.168a16.469,16.469,0,0,0,.254-2.88,15.891,15.891,0,0,0-4.666-11.25,16.113,16.113,0,0,0-5.045-3.4A14.044,14.044,0,0,0,16.869.82a16.047,16.047,0,0,0-3.007.286l.167.084-.335-.046.167-.035A9.411,9.411,0,0,0,1.232,14l.028-.174.058.335L1.234,14a15.763,15.763,0,0,0-.241,2.744,16.014,16.014,0,0,0,1.241,6.2A15.338,15.338,0,0,0,5.639,28a15.9,15.9,0,0,0,5.045,3.427,15.682,15.682,0,0,0,8.955,1.009l-.167-.087.337.065-.189.042a9.394,9.394,0,0,0,14.019-8.2,9.5,9.5,0,0,0-1.2-4.583" transform="translate(230.826 14383.875)"/>
  </g>
</svg>
