<svg xmlns="http://www.w3.org/2000/svg" width="36.282" height="46.748" viewBox="0 0 36.282 46.748">
  <g id="django" transform="translate(-119.7 -10)">
    <g id="_x35_151e0c8492e5103c096af88a51f62ed" transform="translate(119.7 10)">
      <path id="Path_4397" data-name="Path 4397" d="M143.823,10h-7.647V21.654a12.287,12.287,0,0,0-3.325-.4c-7.99,0-13.151,5.061-13.151,12.856,0,8.09,4.866,12.312,14.2,12.312a50.444,50.444,0,0,0,9.927-1.04V10Zm-7.647,30.071a17.915,17.915,0,0,1-2.628.2c-3.921,0-6.058-2.232-6.058-6.3,0-4.169,2.237-6.554,6.106-6.554a7.623,7.623,0,0,1,2.581.4Zm19.806-30.028v7.842H148.34V10.043ZM148.34,21.806h7.642V39.527c0,6.106-.448,9.035-1.789,11.563-1.24,2.433-2.876,3.969-6.254,5.657l-7.1-3.377c3.373-1.588,5.013-2.977,6.058-5.114,1.092-2.185,1.441-4.718,1.441-11.367V21.806Z" transform="translate(-119.7 -10)"/>
    </g>
  </g>
</svg>
