<svg id="golang.611371dc" xmlns="http://www.w3.org/2000/svg" width="182.066" height="68.021" viewBox="0 0 182.066 68.021">
    <defs>
        <style>
            .cls-1{fill:#00aed8}
        </style>
    </defs>
    <path id="Path_1089" data-name="Path 1089" class="cls-1" d="M13.74 20.6c-.355 0-.443-.177-.266-.443l1.862-2.393a1.27 1.27 0 0 1 .975-.443h31.646c.355 0 .443.266.266.532l-1.507 2.3a1.35 1.35 0 0 1-.886.532zM.355 28.751c-.355 0-.443-.177-.266-.443l1.861-2.393a1.27 1.27 0 0 1 .975-.443h40.422a.407.407 0 0 1 .443.532l-.709 2.128a.775.775 0 0 1-.8.532zm21.452 8.155c-.355 0-.443-.266-.266-.532l1.241-2.216a1.176 1.176 0 0 1 .886-.532H41.4c.355 0 .532.266.532.62l-.177 2.127a.666.666 0 0 1-.62.621zM113.82 19c-5.585 1.418-9.4 2.482-14.892 3.9-1.33.355-1.418.443-2.571-.886a11.865 11.865 0 0 0-4.166-3.368C86.606 15.9 81.2 16.7 76.146 19.976A18.852 18.852 0 0 0 67.1 36.818a13.9 13.9 0 0 0 11.971 13.917c6.028.8 11.081-1.33 15.07-5.851.8-.975 1.507-2.039 2.393-3.28H79.426c-1.861 0-2.3-1.152-1.684-2.659 1.152-2.748 3.28-7.358 4.521-9.662a2.394 2.394 0 0 1 2.216-1.418h32.267c-.177 2.393-.177 4.787-.532 7.18a37.806 37.806 0 0 1-7.269 17.374c-6.382 8.421-14.715 13.651-25.264 15.07-8.687 1.152-16.754-.532-23.845-5.851a27.844 27.844 0 0 1-11.259-19.679c-1.152-9.659 1.685-18.349 7.535-25.972A39.338 39.338 0 0 1 80.933.651c8.332-1.507 16.31-.532 23.491 4.344a27.787 27.787 0 0 1 10.283 12.5c.531.796.177 1.239-.887 1.505z"/>
    <path id="Path_1090" data-name="Path 1090" class="cls-1" d="M851.336 73.233c-8.066-.177-15.424-2.482-21.629-7.8a27.8 27.8 0 0 1-9.574-17.108c-1.6-10.017 1.152-18.881 7.18-26.771 6.471-8.51 14.272-12.942 24.821-14.8 9.041-1.6 17.551-.709 25.263 4.521 7 4.787 11.347 11.258 12.5 19.768 1.507 11.967-1.951 21.718-10.195 30.051a40.616 40.616 0 0 1-21.274 11.347c-2.393.443-4.787.532-7.092.8zm21.1-35.813a25.553 25.553 0 0 0-.265-2.925 14.6 14.6 0 0 0-18.084-11.79c-8.244 1.862-13.562 7.092-15.513 15.424a14.6 14.6 0 0 0 8.155 16.754 16.251 16.251 0 0 0 14.449-.532c7-3.634 10.814-9.308 11.257-16.931z" transform="translate(-708.175 -5.212)"/>
</svg>
