<svg xmlns="http://www.w3.org/2000/svg" width="74.445" height="100.939" viewBox="0 0 74.445 100.939">
    <defs>
        <style>
            .cls-1{fill:#5382a1}.cls-2{fill:#e76f00}
        </style>
    </defs>
    <g id="java-seeklogo.com" transform="translate(-.517 -.371)">
        <path id="Path_1205" data-name="Path 1205" class="cls-1" d="M70.8 267.473s-3.857 2.243 2.745 3c8 .912 12.087.782 20.9-.887A36.368 36.368 0 0 0 100 272.3c-19.76 8.469-44.721-.491-29.2-4.827" transform="translate(-46.311 -189.04)"/>
        <path id="Path_1206" data-name="Path 1206" class="cls-1" d="M61.136 229.659s-4.326 3.2 2.281 3.886c8.544.881 15.292.954 26.968-1.295a11.971 11.971 0 0 0 4.154 2.533c-23.891 6.986-50.5.551-33.4-5.124" transform="translate(-39.058 -162.277)"/>
        <path id="Path_1207" data-name="Path 1207" class="cls-2" d="M133.127 98.562c4.869 5.605-1.279 10.65-1.279 10.65s12.363-6.382 6.685-14.374c-5.3-7.453-9.369-11.156 12.645-23.923 0 0-34.556 8.63-18.051 27.648" transform="translate(-90.694 -49.926)"/>
        <path id="Path_1208" data-name="Path 1208" class="cls-1" d="M68.568 293.375s2.854 2.352-3.144 4.171c-11.406 3.455-47.472 4.5-57.491.138-3.6-1.567 3.152-3.741 5.277-4.2a13.692 13.692 0 0 1 3.482-.391c-4.005-2.822-25.889 5.54-11.116 7.935 40.288 6.534 73.442-2.942 62.991-7.656" transform="translate(0 -206.767)"/>
        <path id="Path_1209" data-name="Path 1209" class="cls-1" d="M45.978 190.44s-18.346 4.357-6.5 5.94c5 .67 14.976.518 24.266-.26 7.592-.64 15.216-2 15.216-2a32.209 32.209 0 0 0-4.614 2.469c-18.63 4.9-54.618 2.62-44.258-2.392a34.713 34.713 0 0 1 15.886-3.755" transform="translate(-19.631 -134.508)"/>
        <path id="Path_1210" data-name="Path 1210" class="cls-1" d="M200.585 206.514c18.938-9.841 10.182-19.3 4.07-18.024a14.154 14.154 0 0 0-2.166.582 3.451 3.451 0 0 1 1.618-1.248c12.091-4.251 21.389 12.537-3.9 19.186a1.642 1.642 0 0 0 .381-.5" transform="translate(-141.327 -132.187)"/>
        <path id="Path_1211" data-name="Path 1211" class="cls-2" d="M105.934.371S116.422 10.863 95.987 27C79.6 39.938 92.25 47.317 95.98 55.747c-9.565-8.63-16.585-16.227-11.88-23.299 6.912-10.379 26.062-15.412 21.83-32.077" transform="translate(-58.095)"/>
        <path id="Path_1212" data-name="Path 1212" class="cls-1" d="M60.71 322.273c18.178 1.164 46.092-.646 46.753-9.247 0 0-1.271 3.261-15.023 5.85-15.515 2.92-34.651 2.579-46 .708 0 0 2.323 1.923 14.271 2.689" transform="translate(-32.501 -221.279)"/>
    </g>
</svg>
