<svg xmlns="http://www.w3.org/2000/svg" width="98.052" height="100.939" viewBox="0 0 98.052 100.939">
    <path data-name="laravel.97793601 (1)" d="M98 22.835a1.593 1.593 0 0 1 .055.413v21.666a1.58 1.58 0 0 1-.794 1.371l-18.188 10.47v20.752a1.584 1.584 0 0 1-.79 1.371l-37.96 21.852a1.7 1.7 0 0 1-.276.114c-.036.012-.069.034-.107.043a1.586 1.586 0 0 1-.81 0 1.336 1.336 0 0 1-.124-.051 1.618 1.618 0 0 1-.261-.107L.794 78.877A1.582 1.582 0 0 1 0 77.507v-65a1.615 1.615 0 0 1 .055-.415c.012-.045.039-.087.055-.132a1.557 1.557 0 0 1 .1-.245 1.479 1.479 0 0 1 .109-.14 1.608 1.608 0 0 1 .14-.184 1.541 1.541 0 0 1 .156-.118 1.288 1.288 0 0 1 .174-.136L19.769.211a1.584 1.584 0 0 1 1.58 0l18.976 10.926a1.919 1.919 0 0 1 .174.134 1.846 1.846 0 0 1 .154.118 1.82 1.82 0 0 1 .142.186 1.438 1.438 0 0 1 .107.14 1.637 1.637 0 0 1 .1.245c.016.045.044.087.055.134a1.6 1.6 0 0 1 .055.413v40.6L56.932 44V23.246a1.6 1.6 0 0 1 .055-.411c.014-.047.04-.089.055-.134a1.753 1.753 0 0 1 .1-.245c.029-.051.073-.093.107-.14a1.608 1.608 0 0 1 .142-.184 1.535 1.535 0 0 1 .154-.119 1.585 1.585 0 0 1 .174-.136L76.7 10.951a1.582 1.582 0 0 1 1.58 0l18.98 10.926a1.758 1.758 0 0 1 .178.134c.049.04.107.075.152.119a1.862 1.862 0 0 1 .142.186 1.187 1.187 0 0 1 .107.14 1.559 1.559 0 0 1 .1.245 1.106 1.106 0 0 1 .055.134zM94.888 44V25.983l-6.641 3.823-9.175 5.282v18.017L94.89 44zM75.911 76.592V58.563l-9.024 5.154-25.77 14.708v18.2zM3.163 15.242v61.35l34.79 20.029V78.427L19.779 68.141h-.014a60.294 60.294 0 0 0-.32-.245v-.006a1.513 1.513 0 0 1-.13-.166 1.681 1.681 0 0 1-.118-.154v-.006a1.27 1.27 0 0 1-.083-.2 1.174 1.174 0 0 1-.075-.178 1.512 1.512 0 0 1-.039-.238 1.37 1.37 0 0 1-.024-.178V24.348L9.8 19.063l-6.637-3.819zm17.4-11.836-15.811 9.1 15.807 9.1 15.81-9.1-15.81-9.1zm8.223 56.8 9.172-5.28V15.242l-6.641 3.823-9.177 5.283v39.683zm48.71-46.06-15.809 9.1 15.809 9.1 15.808-9.1zm-1.585 20.942-9.174-5.282-6.637-3.823V44l9.173 5.28 6.643 3.825zM39.534 75.69l23.188-13.239 11.591-6.615-15.8-9.1-18.186 10.477-16.577 9.543z" style="fill:#ff291a"/>
</svg>
