<svg xmlns="http://www.w3.org/2000/svg" width="92.948" height="101.734" viewBox="0 0 92.948 101.734">
    <defs>
        <radialGradient id="b" cx=".443" cy=".439" r=".128" gradientTransform="matrix(-.691 -.149 -.208 1.978 -19.227 -9.973)" gradientUnits="objectBoundingBox">
            <stop offset="0" stop-color="#ee352c"/>
            <stop offset="1" stop-color="#a91d22"/>
        </radialGradient>
        <linearGradient id="a" x1="-8.133" y1="37.388" x2="-6.64" y2="37.388" gradientUnits="objectBoundingBox">
            <stop offset="0" stop-color="#939fab"/>
            <stop offset="1" stop-color="#dcdee1"/>
        </linearGradient>
    </defs>
    <g data-name="Group 347">
        <path data-name="Path 1269" d="m391.2 463.277-20.374 6.653-17.726 7.823-4.959 1.309a109.222 109.222 0 0 1-4.019 3.65c-1.571 1.355-3.034 2.587-4.158 3.48a31.013 31.013 0 0 0-4.035 4 18.152 18.152 0 0 0-2.988 5.051 8.48 8.48 0 0 0 1.2 7.623c2.094 3.08 6.268 6.221 11.134 8.362a70.755 70.755 0 0 0 9.794 3.28 129.68 129.68 0 0 0 20.882 2.972 23.923 23.923 0 0 0 2.695 0 36.693 36.693 0 0 0 1.987-3.773 95.383 95.383 0 0 0 7.222-19.111 90.566 90.566 0 0 0 1.848-13.243c.108-1.494.154-6.5.062-8.193a57.533 57.533 0 0 0-.77-7.222 1.667 1.667 0 0 1-.046-.631 26.592 26.592 0 0 1 2.756-.832l-.508-1.2zM386.546 466a49.88 49.88 0 0 1 .8 7.715 4.128 4.128 0 0 1-.015 1.047c-.123 0-2.6-1.463-4.373-2.572-1.54-.97-4.466-2.911-4.928-3.28-.154-.108-.139-.123 1.124-.554 2.141-.721 7.223-2.356 7.392-2.356zm-10.379 3.419a5.111 5.111 0 0 1 1.34.724 95.463 95.463 0 0 0 9.332 5.19c.57.246.631.154-.678 1.047a67.127 67.127 0 0 1-10.58 5.682c-.754.339-1.386.6-1.4.6a3.991 3.991 0 0 1 .184-.847 45.405 45.405 0 0 0 1.648-10.826c.015-1.54.015-1.54.154-1.586-.031.019-.016.019 0 .019zm-2.14.816a33.2 33.2 0 0 1-.093 4.481 39.19 39.19 0 0 1-1.416 6.7 10.277 10.277 0 0 1-.354 1.078 27.093 27.093 0 0 1-2.865-2.787 20.836 20.836 0 0 1-2.833-4.127 12.973 12.973 0 0 1-.862-2.094c.245-.168 8.361-3.31 8.423-3.248zm-10.072 3.965a.057.057 0 0 1 .046.015 2.877 2.877 0 0 1 .231.554 20.812 20.812 0 0 0 2.556 4.574 26.062 26.062 0 0 0 3.557 3.834c.37.308.708.6.754.647.093.092.123.077-2.387 1.032-2.91 1.109-6.083 2.217-9.717 3.388q-1.3.42-2.6.847c-.139.046-.093-.031.308-.662a86.6 86.6 0 0 0 6.083-12.258c.262-.678.524-1.355.57-1.509a.555.555 0 0 1 .339-.4 1.49 1.49 0 0 1 .26-.062zm-3.08 1.278a34.428 34.428 0 0 1-1.509 3.188c-1.494 2.91-3.126 5.775-5.313 9.255-.37.6-.724 1.155-.77 1.217-.077.108-.108.077-.354-.4a14.122 14.122 0 0 1-1.186-3.573 14.377 14.377 0 0 1 .077-4.589c.2-.955.185-.939.647-1.17 1.971-1 8.347-3.989 8.408-3.927zm26.564 1.078v.647a83.773 83.773 0 0 1-.909 11.581c-.092.6-.17 1.093-.185 1.109 0 0-.447-.123-.97-.277a39.738 39.738 0 0 1-7.084-3.034 31.362 31.362 0 0 1-3.6-2.218c.015-.015.662-.354 1.416-.755a90.74 90.74 0 0 0 8.424-4.943c.939-.631 2.356-1.648 2.664-1.925l.246-.185zm-38.191 4.558c.062 0 .046.123-.046.678-.062.4-.139 1.14-.169 1.648a11.393 11.393 0 0 0 1.355 6.191 12.793 12.793 0 0 1 .539 1.17c-.108.093-10.3 3.08-13.505 3.958-.955.262-1.786.493-1.848.508-.108.031-.123.016-.077-.246.354-2.264 2.079-5.22 4.481-7.715a19.918 19.918 0 0 1 5.067-3.881c1.571-.893 3.988-2.233 4.173-2.294 0-.021.015-.021.03-.021zm24.023 4.3a6.211 6.211 0 0 1 .831.447 46.394 46.394 0 0 0 11.8 4.589l.354.077-.493.277c-2.048 1.14-8.778 3.942-15.661 6.514-1 .369-1.987.739-2.172.816a1.111 1.111 0 0 1-.354.108c0-.016.277-.555.631-1.217a75.988 75.988 0 0 0 4.851-11.041c.121-.301.198-.562.214-.578zm-2.449.8a4.433 4.433 0 0 1-.262.708 97.519 97.519 0 0 1-5.344 10.764c-.57 1.017-1.047 1.833-1.063 1.833s-.477-.277-1.032-.616a31.67 31.67 0 0 1-8.054-6.853l-.277-.339 1.4-.385a100.554 100.554 0 0 0 13.521-4.666 33.378 33.378 0 0 1 1.112-.453zm15.215 5.313c.015.354-.77 3.527-1.417 5.821-.539 1.925-1 3.434-1.848 6.1-.37 1.171-.693 2.141-.708 2.141a1.02 1.02 0 0 1-.2-.046 64.366 64.366 0 0 1-12.52-3.527c-1.078-.431-2.618-1.124-2.71-1.2a17.966 17.966 0 0 1 2.064-.97c7.007-3.065 14.275-6.545 16.77-8.038a2.008 2.008 0 0 1 .57-.277zm-35.126 1.2c.031.031-1.925 2.849-4.666 6.683-.955 1.34-2.063 2.91-2.479 3.5s-1.047 1.509-1.4 2.064l-.647 1-.693-.585a25.652 25.652 0 0 1-2.864-2.926 12.638 12.638 0 0 1-2.572-4.974c-.169-.739-.169-1.109-.016-1.155.231-.062 4.343-1.032 8.193-1.925 2.141-.493 4.62-1.078 5.513-1.293s1.62-.395 1.632-.395zm1.971.755.493.554a28.917 28.917 0 0 0 7.223 5.913 4.045 4.045 0 0 1 .831.539c-.107.077-9.517 3.418-13.875 4.928a373.798 373.798 0 0 1-4.481 1.555 2.646 2.646 0 0 1-.308-.2l-.277-.2.447-.647c1.447-2.094 3.265-4.389 7.223-9.163l2.726-3.28zm12.289 8.793c.015-.015.693.231 1.524.539a49.3 49.3 0 0 0 5.713 1.771 63.242 63.242 0 0 0 8.639 1.494c.339.031.524.062.462.108-.108.062-2.371.816-4.035 1.34-2.649.831-10.734 3.218-17.325 5.113a176.89 176.89 0 0 1-2.325.662 1.22 1.22 0 0 1-.662-.169 11.144 11.144 0 0 1 .816-1.032 91.411 91.411 0 0 0 6.252-8.408c.51-.778.942-1.409.942-1.424zm-2.711.077c.015.015-1.078 1.771-2.987 4.789-.816 1.278-1.725 2.726-2.048 3.234-.308.493-.77 1.263-1.032 1.694l-.447.785-.231-.062c-.555-.154-4.451-1.525-5.482-1.94a38.125 38.125 0 0 1-3.588-1.648A15 15 0 0 1 344 507.52c.031-.015 2.141-.585 4.681-1.278 6.745-1.833 10.487-2.9 12.936-3.665a6.156 6.156 0 0 1 .847-.231zm19.172 4.5h.015c.062.154-2.433 7.084-3.342 9.271-.2.493-.277.616-.385.6-.262-.015-3.881-.523-6.083-.847-3.834-.585-10.271-1.71-11.888-2.079l-.37-.077 2.294-.524c4.928-1.109 7.3-1.709 9.7-2.448a68.575 68.575 0 0 0 9.07-3.5 7.434 7.434 0 0 1 .991-.406z" transform="translate(-332.512 -415.784)" style="fill:#e4e4e4"/>
        <path data-name="Path 1270" d="M478.484 82.735a97.894 97.894 0 0 0-9.332 3.357 58.275 58.275 0 0 0-10.733 5.39 8.14 8.14 0 0 0-2.079 2.079 1.44 1.44 0 0 0-.093.524l2.064 1.956 4.912 1.571 11.688 2.094L488.278 102l.139-1.155c-.046 0-.077-.015-.123-.015l-1.756-.277-.354-.631c-1.817-3.2-3.819-7.176-4.989-9.856a50.938 50.938 0 0 1-2.248-6.206c-.262-1.047-.292-1.109-.462-1.124zm-.247.786h.016c.015.015.077.447.138.955a32.173 32.173 0 0 0 1.494 6.483c.57 1.694.57 1.6-.092 1.4-1.571-.431-8.608-1.648-13.706-2.356-.816-.108-1.509-.216-1.509-.231-.062-.062 3.68-2.017 5.328-2.787 2.111-.97 7.901-3.385 8.332-3.464zm-14.845 6.9.6.2a91.792 91.792 0 0 0 16 3.049c.508.046.939.093.955.093a7.119 7.119 0 0 1-.97.508c-2.186 1.093-4.589 2.433-6.252 3.465a6.382 6.382 0 0 1-1 .554c-.062 0-.385-.062-.724-.108l-.616-.093-1.54-1.509a642.909 642.909 0 0 0-5.652-5.436zm-.616.477 2.171 2.71c1.186 1.494 2.387 2.957 2.649 3.28a5.056 5.056 0 0 1 .462.6c-.062.046-3.141-.555-4.774-.924-1.679-.385-2.372-.57-3.4-.893l-.847-.277v-.216c.015-1.032 1.324-2.572 3.542-4.142l.2-.139zm18.449 3.7c.062 0 .138.139.323.554.524 1.155 2.156 4.266 2.556 4.866.124.2.339.216-1.832-.138-5.22-.847-6.9-1.124-6.9-1.155a1.6 1.6 0 0 1 .354-.231 30.059 30.059 0 0 0 4.7-3.249c.354-.293.678-.57.739-.616.015-.031.046-.046.062-.031z" transform="translate(-440.804 -82.734)" style="fill:url(#a)"/>
        <path data-name="Path 1271" d="M400.94 167.757a1.534 1.534 0 0 0-.015 1.34 6.084 6.084 0 0 0 1.448 1.709s6.853 6.683 7.684 7.638a21.41 21.41 0 0 1 5.59 14.63 23.687 23.687 0 0 1-2.433 11.072c-3.2 6.991-9.964 14.707-20.389 23.269l1.525-.508a48.959 48.959 0 0 1 5.467-3.249 194.867 194.867 0 0 1 25.425-11.38c14.414-5.421 38.114-11.766 51.6-13.829l1.4-.216-.216-.339a47.482 47.482 0 0 0-3.1-4.358 37 37 0 0 0-10.934-9.1c-6.037-3.372-13.844-6.006-23.731-7.961-1.863-.37-5.96-1.078-9.286-1.586a950.26 950.26 0 0 1-16.632-2.71c-1.8-.308-4.5-.77-6.283-1.155a39.907 39.907 0 0 1-4.081-1.093c-1.098-.431-2.7-.865-3.039-2.174zm3.973 3.85a4.291 4.291 0 0 1 .585.185c.585.2 1.34.431 2.233.678q1.014.279 2.033.539c.924.231 1.694.447 1.709.447.108.108 1.663 5.082 2.187 6.991.2.724.354 1.34.339 1.34a3.115 3.115 0 0 1-.385-.6 32.053 32.053 0 0 0-7.946-8.978 6.571 6.571 0 0 1-.755-.602zm7.577 2.094a6.05 6.05 0 0 1 .831.139c2.618.585 7.315 1.478 10.318 1.987a3.77 3.77 0 0 1 .909.2 1.555 1.555 0 0 1-.416.262c-.508.262-2.556 1.478-3.234 1.94a29.5 29.5 0 0 0-4.358 3.48c-.447.447-.832.816-.832.816s-.092-.262-.169-.585a49.9 49.9 0 0 0-2.756-7.546 6.613 6.613 0 0 1-.308-.708c0 .031 0 .015.016.015zm13.336 2.541a5.926 5.926 0 0 1 .554 1.709 25.212 25.212 0 0 1 .74 7.049 13.274 13.274 0 0 1-.093 1.324l-.046.154-.8-.262c-1.648-.524-4.327-1.309-6.622-1.956-1.309-.354-2.371-.678-2.371-.708a36.4 36.4 0 0 1 2.726-2.726 71.46 71.46 0 0 1 5.912-4.584zm1.063.154c.046-.046 6.375 1.047 9.255 1.6 2.141.416 5.251 1.063 5.436 1.14.092.031-.231.215-1.263.677a66.845 66.845 0 0 0-10.087 5.487 47.78 47.78 0 0 1-1.463.955 8.4 8.4 0 0 1-.031-.986 21.508 21.508 0 0 0-1.663-8.377 2.329 2.329 0 0 1-.185-.492zm16.37 3.234a11.587 11.587 0 0 1-.339 2.033 38.608 38.608 0 0 1-3.88 8.9 10.151 10.151 0 0 1-.647 1.047 6.574 6.574 0 0 1-.924-.493 50.144 50.144 0 0 0-6.037-2.957c-.616-.262-1.155-.477-1.17-.508-.108-.093 4.851-3.373 7.469-4.943 2.078-1.262 5.469-3.14 5.527-3.079zm1.17.185c.139 0 2.941.77 4.4 1.2a90.853 90.853 0 0 1 10.487 3.834l1.124.508-.785.185a114.794 114.794 0 0 0-17.756 5.5c-.447.185-.847.339-.878.339a3.967 3.967 0 0 1 .323-.785 31.185 31.185 0 0 0 2.972-10.256c.016-.293.062-.524.108-.524zm-27.9 6.406c.046-.046 2.187.462 3.342.785 1.756.493 5.482 1.74 5.482 1.833 0 .015-.416.37-.908.8-2.017 1.679-3.958 3.449-6.283 5.7-.693.662-1.278 1.2-1.309 1.2s-.046-.093-.031-.216a34.719 34.719 0 0 0-.215-9.286c-.052-.431-.098-.8-.082-.816zm44.982.046a29.564 29.564 0 0 1-1.632 2.541c-.924 1.324-2.279 3.08-5.344 6.93a851.66 851.66 0 0 0-4.034 5.1c-.616.77-1.124 1.417-1.14 1.417a5.309 5.309 0 0 1-.431-.616 31.823 31.823 0 0 0-6.237-6.884c-.462-.385-.97-.8-1.139-.924a1.716 1.716 0 0 1-.308-.262c0-.046 2.618-1.171 4.6-1.971 3.48-1.417 8.223-3.111 11.781-4.2 1.862-.592 3.849-1.161 3.88-1.13zm1.186.308a3.549 3.549 0 0 1 .878.431 52.233 52.233 0 0 1 10.3 7.731c.816.8 2.833 2.9 2.8 2.911 0 0-.708.062-1.54.123a151.793 151.793 0 0 0-22.76 3.788c-.539.123-1.016.231-1.047.231s.57-.6 1.325-1.324c4.681-4.512 6.822-7.361 9.347-12.443.354-.754.662-1.4.693-1.447zm-34.297 3.512c.216.046 2.218.986 3.727 1.74 1.386.693 3.465 1.8 3.573 1.894.015.015-.724.4-1.632.847a106.468 106.468 0 0 0-7.962 4.389c-.739.447-1.355.816-1.37.816-.062 0-.046-.062.37-.816a32.156 32.156 0 0 0 3.126-8.485c.061-.231.123-.385.169-.385zm-2 .369a29.384 29.384 0 0 1-.8 2.972 37.92 37.92 0 0 1-2.726 6.252c-.247.431-.616 1.062-.816 1.417l-.385.616-.862-.831a11.313 11.313 0 0 0-2.864-2.11 4.136 4.136 0 0 1-.739-.431c0-.123 2.633-2.51 4.651-4.235 1.447-1.247 4.5-3.7 4.543-3.65zm12.243 5.036.755.493a58.552 58.552 0 0 1 5.313 3.927c.878.724 2.571 2.248 2.91 2.618l.185.2-1.247.354c-7.053 1.956-12.5 3.7-18.865 6.037-.708.262-1.309.477-1.355.477-.092 0-.169.077 1.417-1.386a67.612 67.612 0 0 0 10.344-11.889l.539-.831zm-3.219.8c.031.031-2.079 3-3.342 4.681-1.509 2-4.189 5.359-6.037 7.546-.77.909-1.432 1.663-1.463 1.679-.046.015-.062-.216-.062-.57a12.907 12.907 0 0 0-1.309-5.544c-.354-.708-.416-.878-.339-.955.292-.262 4.774-2.818 7.607-4.343 1.91-1.016 4.9-2.525 4.943-2.495zm-19.465 4.774a6.8 6.8 0 0 1 .8.4 16.915 16.915 0 0 1 2.649 1.786 4.594 4.594 0 0 1-.893.739 144.058 144.058 0 0 0-4.974 3.758c-1.356 1.078-1.4 1.109-1.248.878a26.426 26.426 0 0 0 3.357-6.776 2.611 2.611 0 0 1 .305-.785zm5.19 4.065c.077-.015.169.123.585.739a11.11 11.11 0 0 1 1.725 4.481l.03.308-2.109.816c-3.773 1.463-7.253 2.91-9.61 3.988-.662.308-1.817.862-2.571 1.232s-1.371.677-1.371.662.477-.37 1.062-.8a62.092 62.092 0 0 0 11.581-10.672c.323-.385.616-.739.647-.755h.031zm-2.387.585a32.55 32.55 0 0 1-2.9 3.265 51.076 51.076 0 0 1-9.562 7.719c-.462.292-.878.554-.924.585-.108.062.031-.093 1.632-1.833a41.912 41.912 0 0 0 2.664-3.157 5.206 5.206 0 0 1 1.54-1.463c2.264-1.632 7.488-5.177 7.546-5.115z" transform="translate(-385.297 -157.146)" style="fill:url(#b)"/>
    </g>
</svg>
