<svg xmlns="http://www.w3.org/2000/svg" width="101" height="101" viewBox="0 0 101 101">
    <defs>
        <style>
            .cls-3{fill:#fff}.cls-4{fill:#f2f2f2}
        </style>
    </defs>
    <g id="NET_Core_Logo" transform="translate(.892)">
        <circle id="Ellipse_475" data-name="Ellipse 475" cx="49.806" cy="49.806" r="49.806" transform="translate(.496)" style="fill:#5c2d91"/>
        <path id="Path_1219" data-name="Path 1219" d="M15.78 9A49.806 49.806 0 1 0 86.1 79.32z" transform="translate(0 5.008)" style="opacity:.1;fill:#fff"/>
        <path id="Path_1220" data-name="Path 1220" class="cls-3" d="M8.185 38.836a2.1 2.1 0 0 1-1.556-.654 2.148 2.148 0 0 1-.638-1.556 2.179 2.179 0 0 1 .638-1.556 2.086 2.086 0 0 1 1.556-.67 2.132 2.132 0 0 1 1.556.669 2.163 2.163 0 0 1 .654 1.556 2.232 2.232 0 0 1-2.21 2.21z" transform="translate(3.829 19.141)"/>
        <path id="Path_1221" data-name="Path 1221" class="cls-3" d="M35.439 47.144h-4.078L16.777 24.513a9.339 9.339 0 0 1-.9-1.774h-.127a29.137 29.137 0 0 1 .156 3.891v20.514H12.59V18.77h4.31L31.1 41q.887 1.385 1.152 1.9h.078a30.008 30.008 0 0 1-.2-4.171V18.77h3.315z" transform="translate(7.502 10.444)"/>
        <path id="Path_1222" data-name="Path 1222" class="cls-3" d="M47.082 47.144H32V18.77h14.382v3H35.393v9.432h10.241v2.988H35.393v9.837H47.1z" transform="translate(18.302 10.444)"/>
        <path id="Path_1223" data-name="Path 1223" class="cls-3" d="M63.05 21.774H54.8v25.37h-3.314v-25.37H43.33v-3h19.72z" transform="translate(24.607 10.444)"/>
        <path id="Path_1224" data-name="Path 1224" class="cls-4" d="M29.611 53.942A7.673 7.673 0 0 1 26 54.7a5.821 5.821 0 0 1-4.467-1.79 6.63 6.63 0 0 1-1.681-4.669 6.942 6.942 0 0 1 1.883-5.074 6.413 6.413 0 0 1 4.794-1.93 7.673 7.673 0 0 1 3.113.545v1.556a6.226 6.226 0 0 0-3.113-.778 4.763 4.763 0 0 0-3.658 1.556 5.665 5.665 0 0 0-1.4 4.016 5.4 5.4 0 0 0 1.307 3.813 4.451 4.451 0 0 0 3.44 1.416 6.444 6.444 0 0 0 3.409-.872z" transform="translate(11.539 22.946)"/>
        <path id="Path_1225" data-name="Path 1225" class="cls-4" d="M31.838 53.414a4.327 4.327 0 0 1-3.315-1.385 4.841 4.841 0 0 1-1.23-3.471 5.043 5.043 0 0 1 1.292-3.673 4.669 4.669 0 0 1 3.471-1.323 4.187 4.187 0 0 1 3.253 1.292 5.105 5.105 0 0 1 1.167 3.564A5.012 5.012 0 0 1 35.215 52a4.42 4.42 0 0 1-3.377 1.416zm.109-8.514a2.848 2.848 0 0 0-2.272.981 4.031 4.031 0 0 0-.84 2.708 3.813 3.813 0 0 0 .84 2.615 2.879 2.879 0 0 0 2.272.965 2.739 2.739 0 0 0 2.226-.934 4.078 4.078 0 0 0 .778-2.677 4.14 4.14 0 0 0-.778-2.693 2.724 2.724 0 0 0-2.226-.965z" transform="translate(15.678 24.236)"/>
        <path id="Path_1226" data-name="Path 1226" class="cls-4" d="M39.607 45.316a1.837 1.837 0 0 0-1.136-.3 1.914 1.914 0 0 0-1.556.9 4.171 4.171 0 0 0-.638 2.459v4.763H34.72v-9.331h1.556v1.946a3.269 3.269 0 0 1 .981-1.556 2.226 2.226 0 0 1 1.463-.545 2.443 2.443 0 0 1 .887.125z" transform="translate(19.816 24.288)"/>
        <path id="Path_1227" data-name="Path 1227" class="cls-4" d="M46.65 48.894h-6.583a3.486 3.486 0 0 0 .794 2.4 2.9 2.9 0 0 0 2.21.84 4.669 4.669 0 0 0 2.895-1.043v1.4a5.416 5.416 0 0 1-3.253.887A3.953 3.953 0 0 1 39.6 52.1a5.214 5.214 0 0 1-1.136-3.58 5.105 5.105 0 0 1 1.23-3.549 3.969 3.969 0 0 1 3.113-1.37 3.518 3.518 0 0 1 2.833 1.183 4.949 4.949 0 0 1 1 3.3zm-1.556-1.261a3.113 3.113 0 0 0-.623-2.008 2.132 2.132 0 0 0-1.712-.716 2.412 2.412 0 0 0-1.79.763 3.44 3.44 0 0 0-.918 1.977z" transform="translate(21.893 24.259)"/>
    </g>
</svg>
