<svg id="nodejs.7fcba3ab" xmlns="http://www.w3.org/2000/svg" width="91.378" height="100.697" viewBox="0 0 91.378 100.697">
    <defs>
        <style>
            .cls-1{fill:#539e43}
        </style>
    </defs>
    <path id="Path_1087" data-name="Path 1087" class="cls-1" d="M41.566 1.074a8.444 8.444 0 0 1 8.244 0q18.826 10.638 37.653 21.269a7.751 7.751 0 0 1 3.915 6.676v42.666a7.836 7.836 0 0 1-4.207 6.821Q68.407 89.084 49.652 99.672a8.205 8.205 0 0 1-8.335-.232q-5.626-3.261-11.258-6.509a6.627 6.627 0 0 1-2.172-1.564c.479-.645 1.334-.725 2.029-1.007a26.281 26.281 0 0 0 4.441-2.072 1.036 1.036 0 0 1 1.156.069c3.207 1.839 6.386 3.731 9.6 5.552.686.4 1.381-.13 1.968-.457Q65.5 83.046 83.925 72.663a1.218 1.218 0 0 0 .669-1.2q.013-21.112 0-42.227a1.32 1.32 0 0 0-.786-1.316Q65.113 17.39 46.423 6.847a1.3 1.3 0 0 0-1.468 0Q26.26 17.382 7.57 27.927a1.3 1.3 0 0 0-.79 1.31v42.229a1.194 1.194 0 0 0 .678 1.185q4.989 2.829 9.984 5.639a7.715 7.715 0 0 0 6.243.836 4.736 4.736 0 0 0 3.066-4.45c.017-13.993-.009-27.987.013-41.978a1.054 1.054 0 0 1 1.148-1.076c1.6-.011 3.2-.022 4.8 0a1.107 1.107 0 0 1 1.044 1.279c-.006 14.081.017 28.163-.011 42.244 0 3.753-1.537 7.836-5.009 9.672-4.276 2.215-9.562 1.745-13.787-.379-3.657-1.825-7.148-3.98-10.74-5.936A7.817 7.817 0 0 1 0 71.685V29.018a7.765 7.765 0 0 1 4.049-6.76Q22.81 11.67 41.566 1.074z"/>
    <path id="Path_1088" data-name="Path 1088" class="cls-1" d="M200.628 151.538c5.455-.351 11.294-.208 16.2 2.479 3.8 2.059 5.907 6.381 5.974 10.6a1.147 1.147 0 0 1-1.245.844c-1.583 0-3.166.022-4.748-.011a1.224 1.224 0 0 1-1.146-1.187 7.229 7.229 0 0 0-3.458-5c-2.919-1.462-6.3-1.388-9.486-1.357-2.323.123-4.822.324-6.791 1.691a4.3 4.3 0 0 0-1.431 4.807c.509 1.208 1.9 1.6 3.044 1.957 6.574 1.719 13.54 1.548 19.988 3.811 2.67.923 5.281 2.716 6.2 5.511a11.773 11.773 0 0 1-1.994 11.232 15.738 15.738 0 0 1-8.449 4.554 40.594 40.594 0 0 1-12.754.542c-3.989-.455-8.14-1.5-11.219-4.22a11.774 11.774 0 0 1-3.791-9.287 1.064 1.064 0 0 1 1.165-.938c1.594-.013 3.187-.017 4.781 0a1.117 1.117 0 0 1 1.141 1.1 7.245 7.245 0 0 0 2.7 5.086c3.239 2.09 7.3 1.947 11.013 2.005 3.073-.136 6.522-.178 9.03-2.209a4.987 4.987 0 0 0 1.348-4.748c-.387-1.408-1.86-2.064-3.124-2.492-6.49-2.053-13.534-1.308-19.96-3.63-2.609-.922-5.132-2.665-6.134-5.346a10.95 10.95 0 0 1 2.187-11.392c2.871-2.891 7.016-4 10.957-4.4z" transform="translate(-148.151 -120.908)"/>
</svg>
