<svg xmlns="http://www.w3.org/2000/svg" width="175.711" height="91.466" viewBox="0 0 175.711 91.466">
    <ellipse data-name="Ellipse 474" cx="87.855" cy="45.733" rx="87.855" ry="45.733" style="fill:#8993be"/>
    <path data-name="Path 1204" d="m35.945 78.036 9.628-48.742h22.264c9.628.6 14.442 5.415 14.442 13.841C82.279 57.577 70.846 66 60.616 65.4h-10.83l-2.407 12.636zm16.247-21.663L55.2 38.321h7.823c4.212 0 7.221 1.805 7.221 5.415-.6 10.23-5.415 12.035-10.831 12.637h-7.22zm27.85 9.027 9.628-48.742h11.43l-2.4 12.636h10.831c9.628.6 13.239 5.415 12.036 11.434L117.351 65.4h-12.035l4.212-22.264c.6-3.009.6-4.814-3.61-4.814h-9.027L91.476 65.4zm36.538 12.636 9.628-48.742h22.264c9.628.6 14.443 5.415 14.443 13.841 0 14.442-11.434 22.866-21.663 22.264H130.42l-2.407 12.637zm16.246-21.663 3.009-18.053h7.823c4.212 0 7.221 1.805 7.221 5.415-.6 10.23-5.415 12.035-10.831 12.637h-7.221z" transform="translate(-11.273 -5.224)" style="fill:#232531;fill-rule:evenodd"/>
</svg>
