<svg xmlns:xlink="http://www.w3.org/1999/xlink" xmlns="http://www.w3.org/2000/svg" width="90" height="90" viewBox="0 0 100.937 100.94">
    <path data-name="Path 1091" d="M18.231 7.37v-.017z" transform="translate(58.442 23.569)" style="fill:#fff"/>
    <path data-name="Path 1092" d="M66.566 55.018c7.007 0 9.6-4.887 12.033-12.213 2.523-7.545 2.414-14.8 0-24.469-1.737-6.96-5.022-12.213-12.033-12.213h-9.03v10.686a15.455 15.455 0 0 1-15.047 15.275H18.424A12.276 12.276 0 0 0 6.391 44.318v22.938c0 6.531 5.678 10.363 12.033 12.234a40.52 40.52 0 0 0 24.061 0c6.06-1.758 12.033-5.3 12.033-12.234v-9.172H30.473v-3.062h36.093zM43.994 64.19a4.587 4.587 0 1 1-4.53 4.576 4.557 4.557 0 0 1 4.53-4.576z" transform="translate(20.487 19.622)" style="fill:#ffd644"/>
    <path data-name="Path 1093" d="M14.483 74.645h8.268v-11A15.3 15.3 0 0 1 37.8 48.683h24.061a12.131 12.131 0 0 0 12.032-12.234V13.494c0-6.531-5.5-11.427-12.033-12.525A74.186 74.186 0 0 0 37.8.995c-10.186 1.8-12.028 5.56-12.028 12.52v9.173h24.09v3.062H16.738C9.731 25.75 3.6 29.964 1.69 37.963c-2.208 9.173-2.3 14.892 0 24.469 1.71 7.12 5.791 12.213 12.793 12.213zm21.811-58.089a4.587 4.587 0 1 1 4.53-4.576 4.557 4.557 0 0 1-4.53 4.576z" transform="translate(0 -.001)" style="fill:#3477ac"/>
</svg>