<svg xmlns="http://www.w3.org/2000/svg" width="139.205" height="85.438" viewBox="0 0 139.205 85.438">
    <defs>
        <style>
            .cls-1{fill:#c00;fill-rule:evenodd}
        </style>
    </defs>
    <g id="Group_339" data-name="Group 339" transform="translate(16772 10563.868)">
        <path id="Path_1215" data-name="Path 1215" class="cls-1" d="M7 89.719h48.488S46.22 47.429 76.909 30.3C83.6 27.052 104.9 14.9 139.76 40.678c1.1-.921 2.148-1.657 2.148-1.657s-31.916-31.855-67.454-28.3c-17.861 1.6-39.834 17.861-52.724 39.343S7 89.719 7 89.719z" transform="translate(-16774.703 -10568.148)"/>
        <path id="Path_1216" data-name="Path 1216" class="cls-1" d="M7 89.719h48.488S46.22 47.429 76.909 30.3C83.6 27.052 104.9 14.9 139.76 40.678c1.1-.921 2.148-1.657 2.148-1.657s-31.916-31.855-67.454-28.3c-17.861 1.6-39.834 17.861-52.724 39.343S7 89.719 7 89.719z" transform="translate(-16774.703 -10568.148)"/>
        <path id="Path_1217" data-name="Path 1217" class="cls-1" d="M7 88.117h48.488S46.22 45.827 76.909 28.7C83.6 25.45 104.9 13.3 139.76 39.076c1.1-.921 2.148-1.657 2.148-1.657S109.992 5.563 74.454 9.123c-17.922 1.6-39.9 17.861-52.785 39.343S7 88.117 7 88.117zm101.028-75.556.246-4.112A30.015 30.015 0 0 0 102.32 6.3l-.246 4.051a98.243 98.243 0 0 1 5.954 2.21z" transform="translate(-16774.703 -10566.546)"/>
        <path id="Path_1218" data-name="Path 1218" class="cls-1" d="m99.493 23.294-.246 3.867a34.227 34.227 0 0 1 6.076.737l.246-3.805a43.464 43.464 0 0 0-6.076-.799zM76.784 4.144h.616L76.17.4a48.974 48.974 0 0 0-5.892.368l1.166 3.622a51.817 51.817 0 0 1 5.34-.246zm2.946 22.587 1.412 4.235a38.831 38.831 0 0 1 5.34-2.148l-1.35-4.051a44.533 44.533 0 0 0-5.402 1.964zM51.864 10.589 49.1 6.354c-1.534.8-3.13 1.657-4.787 2.639l2.823 4.3c1.598-.986 3.132-1.906 4.728-2.704zm12.582 27.62 2.946 4.419a34.081 34.081 0 0 1 3.621-4.358l-2.761-4.17a33.956 33.956 0 0 0-3.805 4.109zm-8.9 19.764 4.973 3.927a49.018 49.018 0 0 1 1.289-7.181l-4.419-3.5a58.357 58.357 0 0 0-1.842 6.753zM28.663 28.818l-4.358-3.805c-1.6 1.534-3.13 3.069-4.542 4.6l4.726 4.051a62.16 62.16 0 0 1 4.174-4.846zM10.127 56.254l-7.058-2.578C1.9 56.315.614 59.384 0 61.041l7.058 2.578c.798-2.087 2.087-5.094 3.069-7.365zm44.5 17.309a62.354 62.354 0 0 0 .737 7.734l7.365 2.639a81.124 81.124 0 0 1-1.473-7.979z" transform="translate(-16772 -10564.268)"/>
    </g>
</svg>
