<svg id="Ruby_on_Rails-Logo.wine" xmlns="http://www.w3.org/2000/svg" width="131.758" height="46.327" viewBox="0 0 131.758 46.327">
  <path id="Path_4392" data-name="Path 4392" d="M199.752,85.605v6.024h10.883a6.224,6.224,0,0,0,6.19-6.19v-2.33a6.147,6.147,0,0,0-6.19-6.19H205.21v-2.8h10.75V68.066H205.643a6.334,6.334,0,0,0-6.223,6.29v2.1a6.221,6.221,0,0,0,6.223,6.19c7.488.033-1.8,0,5.125,0v2.929m-69.324-1.431s5.824-.5,5.824-8.021a7.951,7.951,0,0,0-7.055-8.22H127.5V91.629h6.39V85.9l5.525,5.724h9.452Zm-2.463-4.859H133.89V73.857h5.125a2.674,2.674,0,0,1,1.431,2.7A2.746,2.746,0,0,1,138.982,79.282Zm24.062-11.216h-6.49c-4.626,0-6.19,4.193-6.19,6.19V91.629h6.49v-4.16h6.09v4.16h6.29V74.257C169.234,69.2,164.641,68.066,163.044,68.066Zm-.1,12.68H156.82V74.989s0-1.3,2.03-1.3h2.23c1.8,0,1.83,1.3,1.83,1.3v5.758Zm9.252-12.68h6.756V91.629H172.2Zm9.518,0V91.629h15.808v-6.09h-9.086V68.066Z" transform="translate(-85.067 -45.302)" fill="#c00" fill-rule="evenodd"/>
  <path id="Path_4393" data-name="Path 4393" d="M7,53.03H33.292S28.266,30.1,44.907,20.815c3.628-1.764,15.176-8.353,34.079,5.624.6-.5,1.165-.9,1.165-.9S62.845,8.268,43.575,10.2c-9.685.865-21.6,9.685-28.588,21.333S7,53.03,7,53.03Z" transform="translate(-4.67 -6.704)" fill="#c00" fill-rule="evenodd"/>
  <path id="Path_4394" data-name="Path 4394" d="M7,53.03H33.292S28.266,30.1,44.907,20.815c3.628-1.764,15.176-8.353,34.079,5.624.6-.5,1.165-.9,1.165-.9S62.845,8.268,43.575,10.2c-9.685.865-21.6,9.685-28.588,21.333S7,53.03,7,53.03Z" transform="translate(-4.67 -6.704)" fill="#c00" fill-rule="evenodd"/>
  <path id="Path_4395" data-name="Path 4395" d="M7,50.263H33.292s-5.025-22.93,11.615-32.216c3.628-1.764,15.176-8.353,34.079,5.624.6-.5,1.165-.9,1.165-.9S62.845,5.5,43.575,7.431c-9.718.865-21.632,9.685-28.621,21.333S7,50.263,7,50.263ZM61.78,9.295l.133-2.23A16.275,16.275,0,0,0,58.685,5.9l-.133,2.2C59.65,8.463,60.715,8.862,61.78,9.295Z" transform="translate(-4.67 -3.936)" fill="#c00" fill-rule="evenodd"/>
  <path id="Path_4396" data-name="Path 4396" d="M53.948,12.414l-.133,2.1a18.559,18.559,0,0,1,3.295.4l.133-2.063A23.567,23.567,0,0,0,53.948,12.414ZM41.634,2.03h.333L41.3,0a26.555,26.555,0,0,0-3.195.2l.632,1.964A28.1,28.1,0,0,1,41.634,2.03Zm1.6,12.247.765,2.3a21.055,21.055,0,0,1,2.9-1.165l-.732-2.2a24.147,24.147,0,0,0-2.929,1.065ZM28.122,5.525l-1.5-2.3c-.832.433-1.7.9-2.6,1.431l1.531,2.33c.865-.532,1.7-1.032,2.563-1.464ZM34.945,20.5l1.6,2.4a18.479,18.479,0,0,1,1.964-2.363l-1.5-2.263a18.412,18.412,0,0,0-2.063,2.23ZM30.119,31.217l2.7,2.13a26.579,26.579,0,0,1,.7-3.894l-2.4-1.9a31.643,31.643,0,0,0-1,3.661ZM15.542,15.409l-2.363-2.063c-.865.832-1.7,1.664-2.463,2.5l2.563,2.2a33.7,33.7,0,0,1,2.263-2.629ZM5.491,30.285l-3.827-1.4C1.032,30.319.333,31.983,0,32.881l3.827,1.4C4.26,33.148,4.959,31.517,5.491,30.285ZM29.62,39.671a33.81,33.81,0,0,0,.4,4.193l3.994,1.431a43.988,43.988,0,0,1-.8-4.326Z" fill="#c00" fill-rule="evenodd"/>
</svg>
