<svg id="software-architecture-icon-1" xmlns="http://www.w3.org/2000/svg" width="71.002" height="71" viewBox="0 0 71.002 71">
    <defs>
        <style>
            .cls-2{fill:none;stroke:#ff6c1a;stroke-linecap:round;stroke-linejoin:round;stroke-width:3px}
        </style>
    </defs>
    <path id="Path_1063" data-name="Path 1063" d="M56.9 33.441 33.833 56.5 22.5 58.767l2.267-11.333 23.063-23.06a6.386 6.386 0 0 1 9.039 0l.027.024a6.4 6.4 0 0 1 0 9.042z" transform="translate(10.733 10.733)" style="fill-rule:evenodd;fill:none;stroke:#ff6c1a;stroke-linecap:round;stroke-linejoin:round;stroke-width:3px"/>
    <path id="Path_1064" data-name="Path 1064" class="cls-2" d="M24.167 60.433H6.033A4.533 4.533 0 0 1 1.5 55.9V6.033A4.533 4.533 0 0 1 6.033 1.5h25.324a4.533 4.533 0 0 1 3.2 1.327l10.95 10.946a4.534 4.534 0 0 1 1.327 3.2v16.239"/>
    <path id="Path_1065" data-name="Path 1065" class="cls-2" d="M7.5 10.5h9.067" transform="translate(3.067 4.6)"/>
    <path id="Path_1066" data-name="Path 1066" class="cls-2" d="M7.5 19.5h9.067" transform="translate(3.067 9.2)"/>
    <path id="Path_1067" data-name="Path 1067" class="cls-2" d="M7.5 28.5h9.067" transform="translate(3.067 13.8)"/>
    <path id="Path_1068" data-name="Path 1068" class="cls-2" d="M19.5 10.5v27.2" transform="translate(9.2 4.6)"/>
    <path id="Path_1069" data-name="Path 1069" class="cls-2" d="M28.567 19.5H19.5" transform="translate(9.2 9.2)"/>
</svg>
