<svg xmlns="http://www.w3.org/2000/svg" width="187.722" height="110.32" viewBox="0 0 187.722 110.32">
  <path id="left-quote.e7130e0b" d="M149.934,0a38.662,38.662,0,0,0-16.456,3.677A41.725,41.725,0,0,0,118.85,14.1a32.7,32.7,0,0,0-7.923,14.709,56.232,56.232,0,0,0-2.438,16.548q0,23.9,12.189,41.676t34.741,23.29V99.9Q142.01,91.32,141.4,76.611a30.773,30.773,0,0,0,8.533,1.226A36.377,36.377,0,0,0,176.751,66.8q10.971-11.645,10.971-26.967V38A37.661,37.661,0,0,0,152.981,0h-3.047ZM2.438,28.806A56.237,56.237,0,0,0,0,45.354q0,23.9,12.19,41.676T46.93,110.32V99.9Q32.912,91.32,32.912,76.611a30.772,30.772,0,0,0,8.533,1.226q15.237,0,26.817-11.032Q79.233,55.16,79.233,39.838V38A37.661,37.661,0,0,0,44.493,0H41.445A38.623,38.623,0,0,0,17.066,8.58Q5.485,16.548,2.438,28.806Z" transform="translate(0)" fill="#f9f9f9"/>
</svg>
