<svg xmlns="http://www.w3.org/2000/svg" width="187.722" height="110.32" viewBox="0 0 187.722 110.32">
  <path id="left-quote.e7130e0b" d="M37.788,110.32a38.662,38.662,0,0,0,16.456-3.677A41.725,41.725,0,0,0,68.872,96.224,32.7,32.7,0,0,0,76.8,81.514a56.232,56.232,0,0,0,2.438-16.548q0-23.9-12.189-41.676T32.3,0V10.419Q45.712,19,46.321,33.709a30.773,30.773,0,0,0-8.533-1.226A36.377,36.377,0,0,0,10.971,43.515Q0,55.16,0,70.482v1.839a37.661,37.661,0,0,0,34.741,38h3.047Zm147.5-28.806a56.237,56.237,0,0,0,2.438-16.548q0-23.9-12.19-41.676T140.791,0V10.419Q154.81,19,154.81,33.709a30.773,30.773,0,0,0-8.533-1.226q-15.237,0-26.817,11.032Q108.489,55.16,108.489,70.482v1.839a37.661,37.661,0,0,0,34.741,38h3.048a38.623,38.623,0,0,0,24.379-8.58Q182.237,93.772,185.284,81.514Z" fill="#f9f9f9"/>
</svg>
