<svg id="Shopify_logo_2018" xmlns="http://www.w3.org/2000/svg" width="164.217" height="46.781" viewBox="0 0 164.217 46.781">
  <path id="Path_4409" data-name="Path 4409" d="M35.565,8.86a.446.446,0,0,0-.4-.375c-.167-.014-3.443-.064-3.443-.064s-2.74-2.66-3.01-2.931a1.119,1.119,0,0,0-1-.128l-1.376.426a9.649,9.649,0,0,0-.659-1.619,4.639,4.639,0,0,0-4.13-2.848h-.006c-.12,0-.239.011-.359.022-.051-.061-.1-.121-.156-.18A3.616,3.616,0,0,0,18.148,0C15.919.066,13.7,1.676,11.9,4.535a17.949,17.949,0,0,0-2.5,6.5l-4.389,1.36c-1.292.406-1.333.445-1.5,1.663C3.38,14.975,0,41.114,0,41.114l28.329,4.9,12.278-3.052S35.6,9.093,35.565,8.86ZM24.91,6.228l-2.2.68a12.173,12.173,0,0,0-.677-4.056C23.727,3.173,24.559,5.087,24.91,6.228Zm-3.68,1.14L16.5,8.832A11.211,11.211,0,0,1,18.888,4.2a4.772,4.772,0,0,1,1.606-1.169A10.63,10.63,0,0,1,21.229,7.368ZM18.193,1.485a2.274,2.274,0,0,1,1.34.351A6.452,6.452,0,0,0,17.8,3.185a12.987,12.987,0,0,0-2.934,6.152l-3.885,1.2C11.751,6.958,14.752,1.585,18.193,1.485Z" fill="#95bf47"/>
  <path id="Path_4410" data-name="Path 4410" d="M43.774,10.1c-.167-.014-3.443-.064-3.443-.064s-2.74-2.66-3.01-2.931a.669.669,0,0,0-.38-.175v40.7l12.277-3.051s-5.009-33.868-5.041-34.1A.447.447,0,0,0,43.774,10.1Z" transform="translate(-8.611 -1.616)" fill="#5e8e3e"/>
  <path id="Path_4411" data-name="Path 4411" d="M23.818,19.15l-1.426,5.335a8.1,8.1,0,0,0-3.476-.605c-2.765.175-2.795,1.919-2.766,2.357.151,2.386,6.428,2.907,6.78,8.5.277,4.4-2.332,7.4-6.092,7.642a9.13,9.13,0,0,1-7-2.377L10.8,35.93s2.5,1.887,4.5,1.76a1.769,1.769,0,0,0,1.727-1.9c-.2-3.112-5.308-2.928-5.631-8.042-.272-4.3,2.554-8.664,8.79-9.057A7.666,7.666,0,0,1,23.818,19.15Z" transform="translate(-2.294 -4.351)" fill="#fff"/>
  <path id="Path_4412" data-name="Path 4412" d="M70.968,31.35c-1.412-.766-2.137-1.412-2.137-2.3,0-1.129,1.008-1.855,2.582-1.855a9.22,9.22,0,0,1,3.468.766l1.29-3.953s-1.186-.928-4.678-.928c-4.86,0-8.228,2.783-8.228,6.7,0,2.218,1.573,3.912,3.671,5.122,1.694.967,2.3,1.654,2.3,2.662,0,1.048-.847,1.9-2.42,1.9a10.863,10.863,0,0,1-4.557-1.21L60.887,42.2a10.5,10.5,0,0,0,5.485,1.371c5,0,8.591-2.46,8.591-6.9C74.961,34.294,73.147,32.6,70.968,31.35Z" transform="translate(-14.193 -5.38)"/>
  <path id="Path_4413" data-name="Path 4413" d="M95.514,20.516a7.529,7.529,0,0,0-5.888,2.944l-.081-.041,2.137-11.171H86.116l-5.4,28.433h5.566l1.855-9.719c.725-3.671,2.621-5.928,4.4-5.928,1.25,0,1.735.847,1.735,2.058a12.758,12.758,0,0,1-.242,2.46l-2.1,11.131h5.566l2.177-11.494a20.749,20.749,0,0,0,.4-3.63C100.071,22.412,98.417,20.516,95.514,20.516Z" transform="translate(-18.814 -2.855)"/>
  <path id="Path_4414" data-name="Path 4414" d="M118.98,23.03c-6.7,0-11.131,6.05-11.131,12.785,0,4.315,2.661,7.783,7.663,7.783,6.574,0,11.01-5.888,11.01-12.785C126.522,26.821,124.182,23.03,118.98,23.03Zm-2.742,16.294c-1.9,0-2.7-1.613-2.7-3.63,0-3.186,1.654-8.388,4.679-8.388,1.976,0,2.62,1.694,2.62,3.348C120.834,34.081,119.182,39.324,116.237,39.324Z" transform="translate(-25.14 -5.368)"/>
  <path id="Path_4415" data-name="Path 4415" d="M146.03,23.03a7.617,7.617,0,0,0-5.889,3.307h-.08l.323-2.984h-4.92c-.242,2.017-.686,5.081-1.129,7.381L130.463,51.1h5.566l1.531-8.228h.122a6.485,6.485,0,0,0,3.267.726c6.533,0,10.808-6.694,10.808-13.471C151.757,26.377,150.1,23.03,146.03,23.03ZM140.706,39.4a3.539,3.539,0,0,1-2.3-.807l.928-5.2c.646-3.468,2.46-5.767,4.4-5.767,1.694,0,2.218,1.573,2.218,3.065C145.949,34.282,143.812,39.4,140.706,39.4Z" transform="translate(-30.411 -5.368)"/>
  <path id="Path_4416" data-name="Path 4416" d="M167.622,12.617a3.176,3.176,0,0,0-3.186,3.226,2.564,2.564,0,0,0,2.621,2.783h.081A3.143,3.143,0,0,0,170.4,15.4,2.646,2.646,0,0,0,167.622,12.617Z" transform="translate(-38.33 -2.941)"/>
  <path id="Path_4417" data-name="Path 4417" d="M158.441,43.33h5.565L167.8,23.609h-5.607Z" transform="translate(-36.933 -5.503)"/>
  <path id="Path_4418" data-name="Path 4418" d="M185.117,20.8h-3.872l.2-.928c.323-1.9,1.452-3.59,3.308-3.59a5.8,5.8,0,0,1,1.774.282l1.089-4.356a7.35,7.35,0,0,0-3.025-.484,8.265,8.265,0,0,0-5.444,1.855,10.565,10.565,0,0,0-3.226,6.292l-.16.928h-2.582l-.807,4.195h2.582L172.009,40.56h5.566l2.944-15.568h3.831Z" transform="translate(-40.096 -2.733)"/>
  <path id="Path_4419" data-name="Path 4419" d="M201.914,23.609s-3.479,8.766-5.042,13.551h-.081c-.106-1.541-1.371-13.551-1.371-13.551h-5.848l3.349,18.107a1.181,1.181,0,0,1-.121.928,9.545,9.545,0,0,1-3.025,3.348,12.059,12.059,0,0,1-3.145,1.573l1.532,4.719a12.708,12.708,0,0,0,5.444-3.025c2.542-2.379,4.88-6.05,7.3-11.051l6.816-14.6h-5.807Z" transform="translate(-43.504 -5.503)"/>
</svg>
