<svg xmlns="http://www.w3.org/2000/svg" width="206.567" height="41.652" viewBox="0 0 206.567 41.652">
  <g id="woocommerce-logo-vector" transform="translate(-20.1 -261.296)">
    <path id="Path_4420" data-name="Path 4420" d="M20.651,265.256a6.558,6.558,0,0,1,5.886-3.959H83.471a6.509,6.509,0,0,1,6.643,6.643v21.824a6.54,6.54,0,0,1-6.162,6.3c-6.919.034-13.838,0-20.757,0,.929,2.306,1.859,4.578,2.788,6.884-4.131-2.272-8.192-4.613-12.358-6.85-9.087-.069-18.209,0-27.331-.034a6.565,6.565,0,0,1-6.162-6.3c-.034-7.125,0-14.251-.034-21.342a7.693,7.693,0,0,1,.551-3.167" transform="translate(0 0)" fill="#945c87" fill-rule="evenodd"/>
    <path id="Path_4421" data-name="Path 4421" d="M54.245,273.04a2.524,2.524,0,0,1,3.821.516,2.348,2.348,0,0,1,.1,2.237,33.245,33.245,0,0,0-2.616,9.225,60.168,60.168,0,0,0-1,12.426,2.433,2.433,0,0,1-1.583,2.616,3.051,3.051,0,0,1-2.754-1.239c-3.1-3.339-4.854-7.642-6.127-11.944-1.274,2.513-2.547,5.06-3.786,7.573a18.157,18.157,0,0,1-3.167,4.854c-.585.585-1.583,1.1-2.341.516-1.136-1-1.411-2.582-1.893-3.924a166.288,166.288,0,0,1-3.924-19.276,2.417,2.417,0,0,1,1.274-2.788,2.742,2.742,0,0,1,2.719.275,2.909,2.909,0,0,1,.757,1.824c.757,5.026,1.618,10.017,2.857,14.939,2.065-3.924,4.131-7.848,6.2-11.807a3.828,3.828,0,0,1,1.239-1.515,2.028,2.028,0,0,1,2.513.241,4.092,4.092,0,0,1,.861,2.065,53.643,53.643,0,0,0,2.651,9.535A54.8,54.8,0,0,1,52.9,275.656a9.891,9.891,0,0,1,1.342-2.616m11.669,2.513a7.194,7.194,0,0,1,6.162,2.169,9.554,9.554,0,0,1,2.169,5.06,15.616,15.616,0,0,1-1.721,9.225,10.124,10.124,0,0,1-3.545,4.062,7.279,7.279,0,0,1-7.642-.241,8.415,8.415,0,0,1-3.2-5.37,14.749,14.749,0,0,1,4.131-13.218,6.742,6.742,0,0,1,3.649-1.687m.447,4.819a4.917,4.917,0,0,0-2.341,2.237,8.523,8.523,0,0,0-.688,7.917,2.4,2.4,0,0,0,1.583,1.515,2.734,2.734,0,0,0,2.169-.861,7.919,7.919,0,0,0,2.306-4.509,7.719,7.719,0,0,0-.929-5.645,1.935,1.935,0,0,0-2.1-.654m17.418-4.819a7.17,7.17,0,0,1,6.058,2.031,9.334,9.334,0,0,1,2.306,5.439,15.562,15.562,0,0,1-1.687,8.881,10.149,10.149,0,0,1-3.649,4.165,7.323,7.323,0,0,1-7.366-.1,7.638,7.638,0,0,1-3.064-4.027,14.854,14.854,0,0,1,3.339-14.423,7.625,7.625,0,0,1,4.062-1.962m.482,4.819a5.4,5.4,0,0,0-2.478,2.547,8.444,8.444,0,0,0-.447,7.745,2.1,2.1,0,0,0,1.687,1.377,3.254,3.254,0,0,0,2.237-1.1,8.108,8.108,0,0,0,2.134-4.991,7.206,7.206,0,0,0-1.067-4.957,1.906,1.906,0,0,0-2.065-.62" transform="translate(-5.781 -7.268)" fill="#fff" fill-rule="evenodd"/>
    <path id="Path_4422" data-name="Path 4422" d="M243.588,282.882a13.118,13.118,0,0,1,5.783.069V287.6c-1.549-.379-3.3-.723-4.785,0a5.441,5.441,0,0,0-2.788,4.853,5.732,5.732,0,0,0,2.272,5.2c1.583,1.033,3.614.826,5.335.344v4.647a11.493,11.493,0,0,1-7.057-.241,9.474,9.474,0,0,1-5.645-6.093,12.886,12.886,0,0,1-.207-6.471,9.526,9.526,0,0,1,7.091-6.953m13.975-.241a9.263,9.263,0,0,1,6.781,1.583,9.14,9.14,0,0,1,3.064,5.921,17,17,0,0,1-.516,7.332,7.994,7.994,0,0,1-3.924,4.785,9.862,9.862,0,0,1-6.368.516,7.149,7.149,0,0,1-4.613-3.477,14.418,14.418,0,0,1-1.48-7.779,10.452,10.452,0,0,1,2.2-6.4,7.644,7.644,0,0,1,4.854-2.478m.723,4.441a2.809,2.809,0,0,0-1.824,2.169,17.484,17.484,0,0,0-.275,5.68,5.324,5.324,0,0,0,.964,2.96,2.558,2.558,0,0,0,3.786-.172,4.805,4.805,0,0,0,.861-2.547,17.136,17.136,0,0,0,0-4.785,5.082,5.082,0,0,0-1.136-2.685,2.518,2.518,0,0,0-2.375-.62m91.8-4.131a13.489,13.489,0,0,1,6.093-.034c.034,1.549,0,3.1.034,4.681a7.273,7.273,0,0,0-4.681-.069,5.305,5.305,0,0,0-2.891,4.44c-.207,2.065.344,4.406,2.169,5.611,1.583,1.1,3.649.895,5.4.379-.034,1.549.034,3.132-.034,4.681a11.7,11.7,0,0,1-7.435-.447,9.461,9.461,0,0,1-5.267-6.127,12.866,12.866,0,0,1-.1-6.368,9.44,9.44,0,0,1,6.712-6.747m-79.618.138h6.643c.792,3.58,1.549,7.194,2.237,10.809.62-3.649,1.48-7.229,2.341-10.809h6.816q1.342,9.759,2.616,19.483h-5.2c-.482-4.44-.895-8.915-1.411-13.356-1.067,4.44-2.169,8.915-3.236,13.356h-3.545c-1.136-4.44-2.237-8.915-3.408-13.39-.448,4.44-.9,8.915-1.342,13.39h-4.991q1.239-9.707,2.478-19.483m23.82,0h6.643c.792,3.58,1.549,7.194,2.237,10.809.654-3.614,1.48-7.229,2.341-10.809h6.781q1.342,9.759,2.616,19.483h-5.2c-.482-4.44-.929-8.915-1.411-13.356-1.067,4.44-2.134,8.915-3.236,13.356h-3.545c-1.136-4.475-2.272-8.915-3.408-13.39-.447,4.475-.895,8.915-1.342,13.39h-4.991q1.291-9.707,2.513-19.483m22.133.069c3.545-.069,7.125,0,10.671-.034v4.165c-1.79.034-3.58,0-5.37,0v3.58h4.647V294.9h-4.647v3.58h5.4v4.165H316.46c-.034-6.506.034-12.977-.034-19.483m12.185-.069c2.237,0,4.44-.034,6.678,0a8.851,8.851,0,0,1,5.886,2.065,5.294,5.294,0,0,1,1.342,5.3,5.517,5.517,0,0,1-2.926,3.339c1.377,2.926,2.788,5.852,4.2,8.778h-5.542c-1.446-2.995-2.857-5.989-4.337-8.95-.034,2.995,0,5.989,0,8.95h-5.267c-.034-6.471-.034-12.977-.034-19.483m5.267,3.752v4.647a5.168,5.168,0,0,0,2.788-.688,2.257,2.257,0,0,0,.241-2.995c-.723-.861-2-.861-3.029-.964m23.82-3.718h10.636v4.165h-5.4v3.58h4.647V294.9H362.93v3.58h5.439v4.165H357.7c-.034-6.54,0-13.046,0-19.517" transform="translate(-141.702 -13.943)" fill-rule="evenodd"/>
  </g>
</svg>
