<svg width="75" height="72" viewBox="0 0 75 72" fill="none" xmlns="http://www.w3.org/2000/svg">
<g id="Layer_1" clip-path="url(#clip0_1793_61)">
<path id="Vector" d="M65.2998 33.3499C62.3498 42.2799 59.4098 51.1699 56.4098 60.2199C58.6898 60.0499 60.5698 60.6199 61.9098 62.4099C62.8598 63.6799 63.1798 65.1099 62.9298 66.6599C62.4598 69.6499 59.4898 71.7199 56.4898 71.1699C53.1198 70.5499 51.5098 67.6599 52.3198 63.3099H23.1698C23.9398 65.2099 23.9098 67.1799 22.5898 68.9799C21.6898 70.2099 20.4598 70.9599 18.9498 71.1799C15.9498 71.6299 13.0998 69.5299 12.6798 66.5999C12.1798 63.0499 14.2898 60.7399 18.7398 60.0699C15.7498 51.1599 12.7598 42.2599 9.71984 33.2099C7.95984 34.7399 6.04984 35.4299 3.82984 34.7299C2.36984 34.2699 1.28984 33.3299 0.58984 31.9799C-0.79016 29.2999 0.27984 25.9599 2.94984 24.5699C6.03984 22.9599 9.08984 24.2899 11.0398 28.1699C19.1198 22.3099 27.1898 16.4699 35.3698 10.5399C33.4798 9.22988 32.3398 7.59988 32.4398 5.29988C32.5098 3.76988 33.1098 2.47988 34.2398 1.44988C36.5498 -0.670119 40.1298 -0.430119 42.1598 1.95988C44.3898 4.57988 43.7998 7.86988 40.5298 10.5899C48.3498 16.4699 56.1398 22.3399 63.9498 28.2099C65.7998 24.3399 68.8998 22.9599 71.9998 24.5399C74.7598 25.9499 75.8198 29.4499 74.3098 32.1499C72.5498 35.2999 69.2098 35.7699 65.2998 33.3399V33.3499ZM36.8998 12.0999C28.5298 18.1699 20.3898 24.0599 12.1298 30.0499C12.6398 30.2699 12.9698 30.4099 13.3098 30.5499C14.9698 31.2299 16.6298 31.8899 18.2798 32.5799C19.0598 32.9099 20.1698 33.1499 19.6698 34.3499C19.1998 35.4699 18.2998 34.8999 17.5298 34.5899C17.0698 34.4099 16.5998 34.2199 16.1398 34.0299C14.7298 33.4699 13.3298 32.8999 11.6898 32.2399C14.8198 41.5499 17.8498 50.5799 20.9498 59.7899C23.2598 57.0899 25.4298 54.5699 27.5898 52.0399C28.1298 51.4099 28.7098 50.7299 29.5498 51.4699C30.3298 52.1599 29.7798 52.7999 29.2698 53.3999C27.4498 55.5099 25.6398 57.6299 23.8298 59.7599C23.5598 60.0799 23.3198 60.4199 22.8298 61.0499H52.3198C52.1298 60.7499 51.9498 60.4299 51.7498 60.1399C50.1898 57.8799 48.6298 55.6099 47.0698 53.3599C46.6298 52.7199 46.1298 52.0199 46.9898 51.4099C47.9098 50.7599 48.4198 51.4899 48.8798 52.1799C49.2998 52.7999 49.7298 53.4199 50.1498 54.0299C51.4598 55.9299 52.7798 57.8299 54.2498 59.9399C57.3198 50.6499 60.3098 41.6099 63.3798 32.3199C62.6798 32.5799 62.2598 32.7299 61.8498 32.8899C60.1798 33.5399 58.5198 34.1899 56.8498 34.8399C56.1698 35.1099 55.4698 35.0199 55.3398 34.2899C55.2698 33.8599 55.7398 33.2699 56.0998 32.8599C56.3198 32.6099 56.7698 32.5699 57.1198 32.4299C58.9898 31.6899 60.8698 30.9399 62.9398 30.1199C54.9298 24.0899 47.1098 18.2099 39.0398 12.1299C39.0398 12.8299 39.0398 13.2299 39.0398 13.6299C39.0398 16.0899 39.0398 18.5399 39.0398 20.9999C39.0398 21.7099 38.7998 22.2599 37.9898 22.2599C37.1898 22.2599 36.9198 21.7399 36.9198 21.0199C36.9198 20.6499 36.9198 20.2699 36.9198 19.8999C36.9198 17.4099 36.9198 14.9099 36.9198 12.0899L36.8998 12.0999ZM21.4998 65.6699C21.4798 63.8299 19.9898 62.3499 18.1498 62.3299C16.2998 62.3099 14.7198 63.9099 14.7498 65.7599C14.7798 67.5799 16.2998 69.0799 18.1198 69.0899C20.0098 69.0999 21.5198 67.5599 21.4998 65.6599V65.6699ZM5.46984 32.8399C7.35984 32.8699 8.91984 31.3399 8.90984 29.4699C8.90984 27.6499 7.40984 26.1199 5.58984 26.0799C3.76984 26.0399 2.21984 27.5199 2.16984 29.3399C2.10984 31.2499 3.57984 32.8099 5.46984 32.8399ZM41.3498 5.56988C41.3698 3.72988 39.9098 2.21988 38.0598 2.16988C36.1498 2.11988 34.6098 3.59988 34.5898 5.49988C34.5698 7.36988 36.1298 8.92988 37.9998 8.91988C39.8098 8.90988 41.3398 7.37988 41.3498 5.56988ZM69.4498 32.8399C71.3298 32.8599 72.8898 31.3099 72.8798 29.4399C72.8698 27.6299 71.3398 26.1099 69.5198 26.0799C67.6998 26.0499 66.1598 27.5399 66.1098 29.3699C66.0598 31.2699 67.5498 32.8299 69.4398 32.8399H69.4498ZM60.8898 65.7399C60.9098 63.8799 59.3298 62.3099 57.4698 62.3199C55.6398 62.3299 54.1598 63.8299 54.1398 65.6799C54.1198 67.5399 55.5598 69.0399 57.3998 69.0899C59.2698 69.1399 60.8598 67.6099 60.8798 65.7399H60.8898Z" fill="#FF6C1A"/>
<path id="Vector_2" d="M37.62 46.7399C34.34 46.7399 31.05 46.6099 27.77 46.7799C25.18 46.9099 21.63 44.4999 20.86 42.0899C19.91 39.1299 20.28 36.4199 22.45 34.0899C23.88 32.5499 25.71 31.7899 27.8 31.7899C28.52 31.7899 28.87 31.6199 29.17 30.9099C31.45 25.5699 37.51 23.5999 42.51 26.4999C42.93 26.7499 43.51 26.8799 44 26.8299C46.96 26.5499 49.66 28.3099 50.46 31.1899C50.67 31.9299 50.99 32.3699 51.68 32.7499C54.67 34.3899 56.14 37.8299 55.32 41.0299C54.45 44.4199 51.56 46.7499 48.09 46.7899C44.6 46.8199 41.11 46.7899 37.62 46.7899C37.62 46.7699 37.62 46.7499 37.62 46.7299V46.7399ZM46.69 44.5199C46.69 44.5199 46.69 44.5499 46.69 44.5699C47.31 44.5699 47.94 44.6199 48.56 44.5699C50.97 44.3399 53.06 42.2799 53.37 39.8799C53.67 37.5599 52.28 35.1499 49.99 34.3299C48.95 33.9599 48.6 33.4199 48.49 32.3699C48.26 30.0899 46.15 28.5599 43.93 29.0799C43 29.2999 42.38 29.0699 41.64 28.5699C37.65 25.8499 32.26 27.8099 30.87 32.4499C30.5234 33.6099 29.73 34.1232 28.49 33.9899C25.56 33.6799 23.15 35.4899 22.53 38.4799C22.03 40.9099 23.78 43.7499 26.43 44.3199C27.98 44.6599 29.64 44.5199 31.25 44.5299C36.39 44.5499 41.54 44.5299 46.68 44.5299L46.69 44.5199Z" fill="#FF6C1A"/>
</g>
<defs>
<clipPath id="clip0_1793_61">
<rect width="75" height="71.26" fill="white"/>
</clipPath>
</defs>
</svg>
