<svg width="75" height="63" viewBox="0 0 75 63" fill="none" xmlns="http://www.w3.org/2000/svg">
<g id="Layer_1" clip-path="url(#clip0_1745_215)">
<path id="Vector" d="M40.0301 0C50.2401 0 60.4501 0 70.6601 0C73.5401 0 75.0001 1.44 75.0001 4.3C75.0001 19.36 75.0001 34.41 75.0001 49.47C75.0001 52.29 73.5401 53.77 70.7301 53.77C57.6601 53.77 44.5801 53.77 31.5101 53.76C30.9101 53.76 30.5601 53.91 30.2301 54.47C26.7201 60.5 19.8401 63.56 12.9401 62.19C6.38013 60.89 1.14013 55.4 0.18013 48.71C-0.56987 43.46 0.94013 38.89 4.54013 34.99C4.77013 34.74 4.95013 34.33 4.96013 33.99C5.00013 32.43 4.96013 30.86 4.99013 29.3C4.99013 28.87 4.88013 28.69 4.43013 28.56C2.47013 28.01 1.22013 26.32 1.23013 24.34C1.24013 22.4 2.49013 20.73 4.42013 20.2C4.95013 20.06 4.98013 19.81 4.98013 19.38C4.98013 14.3 4.98013 9.22 4.98013 4.14C4.99013 1.51 6.51013 0 9.17013 0C19.4501 0 29.7401 0 40.0301 0ZM26.8401 19.54C28.2601 18.68 29.7301 18.45 31.2301 19.21C31.7201 19.46 32.0001 19.35 32.3801 19.04C34.4101 17.33 36.4601 15.63 38.5201 13.97C38.9301 13.64 39.0001 13.36 38.8801 12.86C38.2301 10.21 40.1901 7.63 42.9101 7.52C44.7301 7.44 46.4201 8.52 47.1201 10.2C47.8101 11.85 47.4101 13.77 46.1201 15.02C44.8101 16.29 42.8601 16.6 41.2001 15.8C40.8501 15.63 40.6001 15.44 40.1801 15.8C38.0801 17.59 35.9301 19.32 33.8201 21.11C33.6301 21.27 33.5801 21.65 33.5601 21.93C33.5101 22.8 33.6901 23.72 33.4601 24.53C32.8101 26.76 30.4301 27.97 28.1801 27.35C25.9501 26.74 24.5801 24.45 25.1201 22.19C25.2401 21.7 25.1901 21.41 24.7601 21.09C23.2201 19.93 21.7401 18.7 20.2001 17.53C19.9801 17.36 19.5901 17.29 19.3101 17.36C18.2501 17.6 17.2501 17.52 16.2501 17.1C16.0501 17.02 15.6801 17.06 15.5301 17.19C13.6401 18.83 11.7701 20.49 9.93013 22.17C9.76013 22.32 9.66013 22.72 9.72013 22.94C10.3301 25.07 9.70013 26.85 7.87013 28.11C7.71013 28.22 7.50013 28.39 7.50013 28.54C7.47013 29.85 7.48013 31.16 7.48013 32.5C13.9501 28.98 20.2701 28.94 26.1001 33.42C31.9901 37.94 33.5501 44.11 31.7801 51.25C31.9701 51.25 32.1701 51.28 32.3701 51.28C45.2101 51.28 58.0501 51.28 70.8901 51.28C72.0601 51.28 72.4801 50.85 72.4801 49.67C72.4801 34.48 72.4801 19.3 72.4801 4.11C72.4801 2.94 72.0501 2.52 70.8701 2.52C68.5501 2.52 66.2301 2.52 63.9201 2.52C45.6901 2.52 27.4601 2.52 9.23013 2.52C7.93013 2.52 7.48013 2.91 7.48013 4.05C7.48013 9.34 7.48013 14.63 7.48013 19.91C7.48013 20.12 7.59013 20.33 7.64013 20.54C7.86013 20.45 8.11013 20.4 8.28013 20.25C10.0601 18.69 11.8201 17.1 13.6101 15.54C14.0201 15.19 14.1001 14.9 13.9401 14.36C13.2101 12.01 14.6101 9.55 16.9601 8.91C19.3701 8.26 21.7601 9.69 22.3601 12.12C22.6601 13.33 22.3801 14.44 21.7801 15.55C23.4601 16.88 25.1301 18.2 26.8201 19.54H26.8401ZM4.85013 53.82C7.01013 57.58 12.7301 61.17 19.3101 59.67C25.0501 58.36 29.8101 52.91 29.8501 47.51H29.0101C25.3101 47.51 21.6201 47.53 17.9201 47.5C16.9801 47.5 16.1601 47.69 15.3401 48.15C11.8601 50.07 8.35013 51.94 4.85013 53.82ZM3.62013 51.6C3.75013 51.54 3.85013 51.51 3.94013 51.46C7.46013 49.56 10.9801 47.66 14.5201 45.78C14.9601 45.55 15.0001 45.25 14.9901 44.84C14.9901 40.99 14.9901 37.14 14.9901 33.29C14.9901 33.07 14.9601 32.85 14.9501 32.63C5.66013 33.41 -0.04987 43.27 3.62013 51.61V51.6ZM17.5201 44.96H29.8701C29.3301 37.64 22.8301 32.77 17.5201 32.67V44.96ZM44.9901 11.85C44.9701 10.82 44.1001 9.98 43.0701 10.01C42.0801 10.03 41.2501 10.87 41.2501 11.87C41.2501 12.9 42.1001 13.76 43.1301 13.75C44.1601 13.75 45.0101 12.88 44.9901 11.85ZM18.1201 15C19.1501 15 20.0001 14.13 19.9801 13.1C19.9701 12.1 19.1401 11.27 18.1401 11.25C17.1101 11.23 16.2501 12.08 16.2401 13.11C16.2401 14.14 17.0901 15 18.1201 14.99V15ZM29.3301 21.26C28.3001 21.28 27.4601 22.15 27.4901 23.18C27.5201 24.21 28.4001 25.04 29.4301 25C30.4201 24.96 31.2401 24.11 31.2301 23.12C31.2301 22.09 30.3501 21.24 29.3301 21.26ZM7.48013 24.38C7.48013 23.35 6.61013 22.5 5.59013 22.51C4.59013 22.52 3.76013 23.35 3.74013 24.34C3.72013 25.37 4.57013 26.24 5.59013 26.25C6.61013 26.26 7.48013 25.4 7.48013 24.38Z" fill="#FF6C1A"/>
<path id="Vector_2" d="M41.24 46.25C41.24 43.46 41.24 40.73 41.24 37.99C41.24 36.24 41.24 34.5 41.24 32.75C41.24 31 42.25 30.01 44.02 30C44.7 30 45.37 30 46.05 30C47.7 30.01 48.73 31.04 48.74 32.69C48.74 36.91 48.74 41.13 48.74 45.35C48.74 45.63 48.74 45.91 48.74 46.22H49.99V45.4C49.99 39.98 49.99 34.56 49.99 29.15C49.99 27.22 50.95 26.26 52.86 26.26C53.51 26.26 54.16 26.26 54.81 26.26C56.45 26.28 57.48 27.3 57.49 28.96C57.49 34.43 57.49 39.9 57.49 45.37C57.49 45.65 57.49 45.93 57.49 46.24H58.74V45.4C58.74 42.46 58.74 39.51 58.74 36.57C58.74 34.75 59.73 33.77 61.54 33.77C62.03 33.77 62.53 33.81 63.02 33.77C65.22 33.57 66.33 34.96 66.26 36.95C66.16 39.73 66.23 42.52 66.23 45.31C66.23 45.59 66.23 45.88 66.23 46.28C67.01 46.28 67.75 46.28 68.5 46.28C69.42 46.29 69.98 46.77 69.98 47.53C69.98 48.28 69.42 48.78 68.5 48.78C59.41 48.78 50.32 48.79 41.23 48.78C39.1 48.78 37.49 47.14 37.48 44.99C37.47 38.43 37.48 31.86 37.48 25.3C37.48 24.37 37.94 23.81 38.69 23.79C39.47 23.77 39.97 24.35 39.97 25.31C39.97 31.77 39.97 38.23 39.97 44.69C39.97 45.71 40.2 46.01 41.22 46.27L41.24 46.25ZM52.54 28.8V46.21H54.95V28.8H52.54ZM43.79 32.55V46.23H46.19V32.55H43.79ZM63.7 36.32H61.29V46.23H63.7V36.32Z" fill="#FF6C1A"/>
<path id="Vector_3" d="M61.8099 9.99999C60.0699 9.99999 58.3199 9.99999 56.5799 9.99999C55.5899 9.99999 55.0199 9.53999 55.0099 8.76999C54.9999 7.98999 55.5799 7.50999 56.5499 7.50999C60.0899 7.50999 63.6299 7.50999 67.1699 7.50999C68.1599 7.50999 68.7299 7.95999 68.7399 8.73999C68.7499 9.51999 68.1699 9.99999 67.1999 10.01C65.3999 10.01 63.6099 10.01 61.8099 10.01V9.99999Z" fill="#FF6C1A"/>
<path id="Vector_4" d="M61.88 12.51C63.65 12.51 65.42 12.51 67.19 12.51C68.17 12.51 68.74 12.99 68.74 13.77C68.74 14.55 68.16 15.01 67.17 15.01C63.63 15.01 60.09 15.01 56.55 15.01C55.57 15.01 55 14.53 55 13.75C55 12.97 55.58 12.51 56.57 12.51C58.34 12.51 60.11 12.51 61.88 12.51Z" fill="#FF6C1A"/>
<path id="Vector_5" d="M61.87 20.01C60.1 20.01 58.33 20.01 56.56 20.01C55.58 20.01 55 19.54 55 18.76C55 17.98 55.57 17.51 56.56 17.51C60.1 17.51 63.64 17.51 67.18 17.51C68.17 17.51 68.74 17.98 68.74 18.76C68.74 19.54 68.17 20.01 67.18 20.01C65.41 20.01 63.64 20.01 61.87 20.01Z" fill="#FF6C1A"/>
<path id="Vector_6" d="M53.7401 8.72999C53.7601 9.39999 53.2101 9.97999 52.5401 9.99999C51.8401 10.03 51.2401 9.43999 51.2501 8.73999C51.2501 8.06999 51.8101 7.50999 52.4901 7.50999C53.1601 7.50999 53.7301 8.05999 53.7401 8.72999Z" fill="#FF6C1A"/>
<path id="Vector_7" d="M52.5001 12.51C53.1701 12.51 53.7301 13.07 53.7401 13.74C53.7401 14.41 53.2001 14.98 52.5301 15C51.8301 15.02 51.2401 14.43 51.2501 13.73C51.2601 13.06 51.8201 12.51 52.5001 12.51Z" fill="#FF6C1A"/>
<path id="Vector_8" d="M53.74 18.82C53.71 19.49 53.12 20.03 52.45 20C51.75 19.97 51.19 19.35 51.25 18.65C51.31 17.98 51.9 17.46 52.57 17.51C53.24 17.56 53.77 18.15 53.73 18.82H53.74Z" fill="#FF6C1A"/>
</g>
<defs>
<clipPath id="clip0_1745_215">
<rect width="75" height="62.51" fill="white"/>
</clipPath>
</defs>
</svg>
