<svg width="73" height="73" viewBox="0 0 73 73" fill="none" xmlns="http://www.w3.org/2000/svg">
<g id="Layer_1" clip-path="url(#clip0_1745_316)">
<path id="Vector" d="M67.8498 25.67C67.8498 25.97 67.8498 26.26 67.8498 26.55C67.8498 40.54 67.8498 54.53 67.8498 68.52C67.8498 71.17 66.4798 72.54 63.8598 72.54C43.8998 72.54 23.9498 72.54 3.98977 72.54C1.39977 72.54 0.00976562 71.16 0.00976562 68.58C0.00976562 53.28 0.00976562 37.97 0.00976562 22.67C0.00976562 20.13 1.40977 18.72 3.92977 18.72C11.6498 18.72 19.3798 18.72 27.0998 18.72H28.0798C28.0798 18.43 28.0798 18.18 28.0798 17.92C28.0798 14 28.0798 10.07 28.0798 6.15C28.0798 2.49 30.5698 0 34.2298 0C44.9498 0 55.6698 0 66.3898 0C69.9998 0 72.5098 2.5 72.5198 6.1C72.5198 10.56 72.5198 15.02 72.5198 19.48C72.5198 22.56 71.0598 24.58 68.1398 25.55C68.0498 25.58 67.9698 25.61 67.8498 25.66V25.67ZM2.33977 30.42V31.23C2.33977 43.66 2.33977 56.08 2.33977 68.51C2.33977 69.86 2.67977 70.2 4.00977 70.2C23.9398 70.2 43.8698 70.2 63.7898 70.2C65.1698 70.2 65.4998 69.87 65.4998 68.47C65.4998 56.07 65.4998 43.67 65.4998 31.26C65.4998 31 65.4998 30.74 65.4998 30.51C65.3798 30.46 65.3398 30.43 65.2898 30.43C59.9498 30.43 54.6198 30.42 49.2798 30.43C49.0798 30.43 48.8098 30.64 48.7098 30.83C48.2198 31.7 47.5298 32.32 46.5698 32.59C44.9898 33.04 43.6598 32.56 42.6898 31.28C42.1798 30.61 41.6298 30.39 40.7898 30.4C28.2898 30.43 15.7898 30.42 3.29977 30.42C3.00977 30.42 2.71977 30.42 2.32977 30.42H2.33977ZM46.7898 23.4C47.1698 23.4 47.4598 23.4 47.7398 23.4C53.9798 23.4 60.2098 23.4 66.4498 23.4C68.6898 23.4 70.1798 21.93 70.1798 19.7C70.1798 15.14 70.1798 10.59 70.1798 6.03C70.1798 3.83 68.6998 2.34 66.5198 2.34C55.6998 2.34 44.8898 2.34 34.0698 2.34C31.8898 2.34 30.4098 3.84 30.4098 6.03C30.4098 10.59 30.4098 15.14 30.4098 19.7C30.4098 21.92 31.8998 23.39 34.1398 23.4C35.5998 23.4 37.0598 23.42 38.5198 23.39C38.9898 23.38 39.2798 23.54 39.5598 23.89C41.1198 25.79 42.6998 27.68 44.2698 29.57C44.6998 30.09 45.1398 30.61 45.9198 30.35C46.7198 30.08 46.7898 29.41 46.7798 28.69C46.7598 26.96 46.7798 25.24 46.7798 23.4H46.7898ZM39.9698 28.04C39.3198 27.26 38.7598 26.56 38.1698 25.9C38.0498 25.77 37.7798 25.74 37.5798 25.74C36.5598 25.72 35.5298 25.74 34.5098 25.74C31.1798 25.74 29.2498 24.34 28.1998 21.18C28.1898 21.14 28.1398 21.12 28.0698 21.06H27.6698C19.7298 21.06 11.7898 21.06 3.84977 21.06C3.69977 21.06 3.55977 21.05 3.40977 21.07C2.80977 21.16 2.37977 21.51 2.35977 22.11C2.31977 24.08 2.34977 26.04 2.34977 28.04H39.9798H39.9698ZM65.4698 25.78H49.1898V28.03H65.4698V25.78Z" fill="#FF6C1A"/>
<path id="Vector_2" d="M59.6801 56.19V58.24C60.5101 58.65 61.3501 58.9 61.9701 59.42C63.7401 60.9 63.7201 65.35 62.0201 66.92C61.3701 67.52 60.5901 67.85 59.7001 67.85C53.4401 67.85 47.1801 67.87 40.9201 67.85C38.9601 67.85 37.4701 66.32 37.4301 64.36C37.4201 63.78 37.4301 63.19 37.4301 62.61C37.4301 60.09 38.4201 58.9 40.9101 58.44V56.22C40.6701 56.17 40.4201 56.12 40.1701 56.06C38.5601 55.67 37.4801 54.35 37.4301 52.7C37.4101 52.04 37.4301 51.38 37.4301 50.73C37.4301 48.4 38.5601 47.1 40.8901 46.77V44.71C40.0601 44.29 39.1901 44.02 38.5701 43.48C36.8501 41.99 36.9001 37.58 38.5701 36.03C39.2201 35.43 40.0001 35.1 40.8901 35.1C47.1701 35.1 53.4601 35.08 59.7401 35.1C61.6201 35.1 63.1001 36.63 63.1601 38.51C63.1801 39.12 63.1601 39.73 63.1601 40.34C63.1601 42.85 62.1701 44.05 59.6801 44.51V46.74C62.1601 47.2 63.1601 48.4 63.1601 50.91C63.1601 51.35 63.1601 51.79 63.1601 52.23C63.1601 54.55 62.0301 55.85 59.6701 56.2L59.6801 56.19ZM50.3001 42.12C53.3501 42.12 56.3901 42.12 59.4401 42.12C60.3901 42.12 60.8101 41.69 60.8301 40.73C60.8301 40.1 60.8301 39.46 60.8301 38.83C60.8201 37.88 60.4001 37.45 59.4401 37.44C57.9301 37.44 56.4201 37.44 54.9101 37.44C50.3501 37.44 45.8001 37.44 41.2401 37.44C40.1901 37.44 39.7901 37.85 39.7801 38.9C39.7801 39.46 39.7801 40.02 39.7801 40.58C39.7801 41.73 40.1701 42.11 41.3201 42.11C44.3201 42.11 47.3101 42.11 50.3101 42.11L50.3001 42.12ZM50.2301 53.82C53.3001 53.82 56.3701 53.82 59.4401 53.82C60.3901 53.82 60.8101 53.39 60.8301 52.43C60.8301 51.82 60.8301 51.21 60.8301 50.6C60.8301 49.55 60.4201 49.14 59.3701 49.14C57.7401 49.14 56.1001 49.14 54.4701 49.14C50.0601 49.14 45.6501 49.14 41.2401 49.14C40.1901 49.14 39.7901 49.55 39.7801 50.6C39.7801 51.16 39.7801 51.72 39.7801 52.28C39.7801 53.43 40.1701 53.81 41.3201 53.81C44.2901 53.81 47.2701 53.81 50.2401 53.81L50.2301 53.82ZM50.3001 60.84C47.2501 60.84 44.2101 60.84 41.1601 60.84C40.2001 60.84 39.7901 61.27 39.7701 62.23C39.7701 62.84 39.7701 63.45 39.7701 64.06C39.7701 65.11 40.1801 65.52 41.2301 65.52C42.8601 65.52 44.5001 65.52 46.1301 65.52C50.5401 65.52 54.9501 65.52 59.3601 65.52C60.4101 65.52 60.8101 65.11 60.8201 64.06C60.8201 63.5 60.8201 62.94 60.8201 62.38C60.8201 61.23 60.4301 60.85 59.2801 60.85C56.2801 60.85 53.2901 60.85 50.2901 60.85L50.3001 60.84ZM43.3201 46.75H57.2701V44.5H43.3201V46.75ZM43.3201 58.45H57.2701V56.2H43.3201V58.45Z" fill="#FF6C1A"/>
<path id="Vector_3" d="M32.7501 45.65C32.7501 52.74 26.9401 58.51 19.8401 58.5C12.7501 58.48 6.99014 52.68 7.02014 45.57C7.04014 38.51 12.8201 32.76 19.8901 32.76C26.9901 32.76 32.7601 38.55 32.7501 45.65ZM30.3601 46.8C27.0301 46.8 23.8501 46.8 20.6601 46.82C20.4201 46.82 20.1401 47.05 19.9501 47.24C17.8901 49.28 15.8501 51.33 13.8001 53.38C13.6501 53.53 13.5201 53.7 13.3401 53.9C16.7201 56.31 20.2901 56.92 24.0701 55.26C27.6901 53.67 29.7101 50.8 30.3601 46.8ZM13.5201 37.3C15.7101 39.49 17.8601 41.65 19.9101 43.7C21.9801 41.63 24.1301 39.48 26.2701 37.34C23.1401 34.36 16.9101 34.35 13.5201 37.29V37.3ZM18.1701 45.58C16.0401 43.4 13.9101 41.22 11.7601 39.03C8.23014 43.21 8.97014 49.32 11.7001 52.06C13.8301 49.93 15.9601 47.8 18.1701 45.58ZM28.2201 39.24C26.4601 41.01 24.7301 42.75 23.0501 44.43H30.3101C30.1001 42.43 29.3601 40.7 28.2201 39.24Z" fill="#FF6C1A"/>
<path id="Vector_4" d="M35.0601 60.89V63.14H9.39014V60.89H35.0601Z" fill="#FF6C1A"/>
<path id="Vector_5" d="M35.0301 67.85H14.1001V65.57H35.0401V67.85H35.0301Z" fill="#FF6C1A"/>
<path id="Vector_6" d="M11.6602 65.56V67.81H4.72021V65.56H11.6602Z" fill="#FF6C1A"/>
<path id="Vector_7" d="M4.74023 60.87H6.98023V63.14H4.74023V60.87Z" fill="#FF6C1A"/>
<path id="Vector_8" d="M67.79 18.68H65.52V12.33C65.52 12.33 65.43 12.31 65.38 12.3C64.93 13.64 64.47 14.99 64.01 16.35H59.99C59.54 15.02 59.08 13.67 58.63 12.32C58.6 12.32 58.57 12.32 58.54 12.32V18.65H56.21V7.05999H59.35C59.78 8.34999 60.23 9.67999 60.68 11.01C60.97 11.86 61.24 12.72 61.55 13.57C61.62 13.76 61.87 14.04 61.97 14.01C62.17 13.96 62.41 13.76 62.48 13.56C63.23 11.4 63.95 9.22999 64.68 7.04999H67.81V18.69L67.79 18.68Z" fill="#FF6C1A"/>
<path id="Vector_9" d="M46.7798 14.04V18.68H44.5098V7.02002C45.3598 7.02002 46.2298 7.02002 47.0998 7.02002C48.0998 7.02002 49.0998 7.02002 50.0998 7.02002C51.5698 7.01002 52.7098 7.60002 53.3998 8.90002C54.0998 10.21 53.9398 11.48 53.0698 12.67C53.0298 12.73 52.9998 12.79 52.9498 12.89C54.3998 14.63 53.5798 16.7 53.8698 18.68H51.4798C51.4798 17.68 51.4798 16.67 51.4798 15.66C51.4798 14.41 51.1198 14.05 49.8798 14.04C48.8898 14.04 47.8898 14.04 46.7898 14.04H46.7798ZM46.8198 11.7C48.0398 11.7 49.1798 11.72 50.3198 11.7C50.9698 11.68 51.4498 11.2 51.4598 10.6C51.4598 9.96002 51.1298 9.46002 50.5098 9.42002C49.2898 9.34002 48.0598 9.40002 46.8298 9.40002V11.71L46.8198 11.7Z" fill="#FF6C1A"/>
<path id="Vector_10" d="M42.07 11.68H39.83C39.77 11.45 39.73 11.24 39.66 11.04C39.31 9.93001 38.25 9.24001 37.13 9.38001C36.01 9.53001 35.14 10.46 35.1 11.62C35.07 12.37 35.09 13.13 35.1 13.88C35.11 15.23 35.96 16.24 37.18 16.37C38.4 16.51 39.45 15.7 39.75 14.39C39.77 14.3 39.78 14.2 39.81 14.07H42.11C42.05 15.72 41.38 17.01 40.05 17.9C38.56 18.9 36.95 19.02 35.34 18.2C33.69 17.35 32.81 15.95 32.78 14.09C32.76 12.93 32.72 11.74 32.94 10.6C33.38 8.30002 35.7 6.74001 38 7.05001C40.35 7.36001 42.13 9.35002 42.08 11.68H42.07Z" fill="#FF6C1A"/>
<path id="Vector_11" d="M6.96022 25.71H4.72021V23.44H6.96022V25.71Z" fill="#FF6C1A"/>
<path id="Vector_12" d="M9.39014 25.69V23.44H11.6401V25.69H9.39014Z" fill="#FF6C1A"/>
<path id="Vector_13" d="M16.3501 23.44V25.69H14.0801V23.44H16.3501Z" fill="#FF6C1A"/>
</g>
<defs>
<clipPath id="clip0_1745_316">
<rect width="72.53" height="72.54" fill="white"/>
</clipPath>
</defs>
</svg>
