<svg width="75" height="63" viewBox="0 0 75 63" fill="none" xmlns="http://www.w3.org/2000/svg">
<g id="Layer_1" clip-path="url(#clip0_1745_228)">
<path id="Vector" d="M37.48 62.9C26.77 62.9 16.06 62.9 5.36 62.9C1.97 62.9 0 60.94 0 57.56C0 40.15 0 22.74 0 5.33C0 1.96 1.97 0 5.36 0C26.8 0 48.24 0 69.68 0C73.02 0 74.99 1.97 74.99 5.3C74.99 22.74 74.99 40.17 74.99 57.61C74.99 60.93 73.01 62.9 69.67 62.9C58.94 62.9 48.2 62.9 37.47 62.9H37.48ZM2.42 14.55V15.35C2.42 29.44 2.42 43.52 2.42 57.61C2.42 59.56 3.33 60.48 5.28 60.48C26.75 60.48 48.22 60.48 69.69 60.48C71.7 60.48 72.59 59.59 72.59 57.57C72.59 43.51 72.59 29.45 72.59 15.39C72.59 15.12 72.59 14.85 72.59 14.55H2.42ZM72.58 12.06C72.58 9.73 72.58 7.49 72.58 5.25C72.58 3.35 71.65 2.42 69.76 2.42C55.66 2.42 41.55 2.42 27.45 2.42H26.67V12.06H72.58ZM2.42 12.05H24.13V2.42C22.95 2.42 21.81 2.42 20.68 2.42C15.47 2.42 10.26 2.42 5.05 2.42C3.56 2.42 2.46 3.32 2.43 4.67C2.38 7.11 2.42 9.55 2.42 12.05Z" fill="#FF6C1A"/>
<path id="Vector_2" d="M70.1599 48.32C70.8499 48.52 71.3699 48.85 71.3599 49.61C71.3599 50.38 70.7899 50.66 70.1799 50.9C68.6599 51.5 67.1299 52.09 65.6299 52.74C65.3099 52.88 64.9799 53.2 64.8399 53.52C64.1599 55.09 63.5399 56.68 62.9099 58.27C62.6599 58.9 62.2699 59.32 61.5599 59.25C60.8899 59.18 60.5799 58.73 60.4499 58.09C60.1999 56.89 59.9099 55.69 59.6299 54.43C59.3099 54.43 59.0099 54.43 58.7099 54.43C52.1899 54.43 45.6599 54.43 39.1399 54.43C35.8599 54.43 33.8599 52.44 33.8599 49.17C33.8599 41.39 33.8599 33.6 33.8599 25.82C33.8599 22.55 35.8499 20.57 39.1399 20.56C39.3699 20.56 39.5999 20.54 39.8199 20.56C40.7299 20.66 41.3399 20.44 41.9499 19.56C43.4199 17.43 46.5999 17.71 47.8699 19.99C48.1199 20.44 48.3699 20.56 48.8499 20.56C50.9699 20.54 53.0799 20.54 55.1999 20.56C55.5999 20.56 55.8599 20.51 56.0799 20.08C56.7399 18.82 57.8299 18.14 59.2599 18.15C60.6899 18.15 61.7699 18.83 62.4299 20.09C62.6299 20.47 62.8499 20.57 63.2399 20.56C64.1199 20.54 65.0099 20.49 65.8799 20.6C68.3899 20.9 70.1199 22.95 70.1299 25.56C70.1299 32.82 70.1299 40.07 70.1299 47.33C70.1299 47.63 70.1299 47.93 70.1299 48.31L70.1599 48.32ZM67.6899 47.77V30.3H36.2899C36.2899 30.61 36.2899 30.86 36.2899 31.11C36.2899 37.13 36.2899 43.15 36.2899 49.17C36.2899 51.12 37.1999 52.02 39.1699 52.02C45.5399 52.02 51.9199 52.02 58.2899 52.02H59.1099C58.7799 50.54 58.4699 49.12 58.1599 47.7C57.8999 46.49 58.5899 45.8 59.7999 46.06C60.8199 46.28 61.8299 46.5 62.8499 46.72V44.73H59.3299V42.34C60.8599 42.34 62.3499 42.34 63.8299 42.34C64.9099 42.34 65.3199 42.77 65.3299 43.86C65.3299 44.99 65.3299 46.12 65.3299 47.27C66.0499 47.43 66.7099 47.59 67.3699 47.73C67.4699 47.75 67.5699 47.75 67.6999 47.77H67.6899ZM67.7399 27.79C67.7399 26.92 67.7599 26.14 67.7399 25.36C67.6999 24.04 66.6999 23.04 65.3799 22.99C64.6799 22.97 63.9699 23.01 63.2599 22.98C62.8499 22.96 62.6499 23.1 62.4499 23.46C61.7799 24.72 60.6899 25.39 59.2699 25.39C57.8399 25.39 56.7599 24.71 56.0999 23.45C55.8999 23.07 55.6799 22.98 55.2899 22.98C53.1999 23 51.1099 23 49.0199 22.98C48.4799 22.98 48.1499 23.08 47.8399 23.62C46.5799 25.82 43.4499 26.1 42.0099 24.03C41.3399 23.06 40.6499 22.9 39.6699 22.99C39.3199 23.02 38.9599 22.99 38.6099 23C37.4999 23.06 36.5199 23.8 36.3699 24.9C36.2399 25.85 36.3399 26.83 36.3399 27.8H67.7299L67.7399 27.79ZM61.9799 53.75C62.0599 53.8 62.1299 53.84 62.2099 53.89C62.4499 51.61 63.7799 50.42 65.9499 50.07C65.9199 50.01 65.8799 49.94 65.8499 49.88C64.2299 49.52 62.6099 49.16 60.8699 48.78C61.2599 50.54 61.6199 52.15 61.9799 53.75ZM59.3099 20.57C58.6599 20.56 58.0999 21.08 58.0799 21.73C58.0499 22.41 58.6099 22.99 59.2899 22.98C59.9399 22.98 60.4799 22.44 60.4899 21.79C60.4899 21.14 59.9599 20.59 59.3099 20.58V20.57ZM44.7299 22.98C45.3799 23 45.9399 22.48 45.9699 21.83C45.9999 21.18 45.4899 20.61 44.8399 20.57C44.1599 20.53 43.5699 21.08 43.5599 21.76C43.5499 22.41 44.0799 22.96 44.7299 22.98Z" fill="#FF6C1A"/>
<path id="Vector_3" d="M26.6098 36.29C27.8098 36.29 28.9098 36.29 30.0198 36.29C31.0098 36.29 31.4498 36.74 31.4498 37.73C31.4498 42.42 31.4498 47.1 31.4498 51.79C31.4498 52.78 30.9998 53.22 30.0098 53.22C22.0998 53.22 14.1898 53.22 6.27984 53.22C5.28984 53.22 4.83984 52.78 4.83984 51.79C4.83984 42.27 4.83984 32.74 4.83984 23.22C4.83984 22.22 5.27984 21.78 6.25984 21.77C12.5598 21.77 18.8598 21.77 25.1598 21.77C26.1798 21.77 26.6098 22.21 26.6098 23.26C26.6098 27.29 26.6098 31.32 26.6098 35.35C26.6098 35.62 26.6098 35.9 26.6098 36.28V36.29ZM24.1398 36.29V24.25H7.31984V50.76H16.9398V49.9C16.9398 46.02 16.9398 42.14 16.9398 38.26C16.9398 36.54 17.1998 36.28 18.8898 36.28C20.6298 36.28 22.3598 36.28 24.1498 36.28L24.1398 36.29ZM28.9698 50.79V38.76H19.4098V50.79H28.9698Z" fill="#FF6C1A"/>
<path id="Vector_4" d="M21.7602 6.10999V8.40999H19.4102V6.10999H21.7602Z" fill="#FF6C1A"/>
<path id="Vector_5" d="M16.8998 6.10001V8.43001H14.5698V6.10001H16.8998Z" fill="#FF6C1A"/>
<path id="Vector_6" d="M9.72998 6.07999H12.06V8.40999H9.72998V6.07999Z" fill="#FF6C1A"/>
<path id="Vector_7" d="M4.87988 6.07999H7.19988V8.40999H4.87988V6.07999Z" fill="#FF6C1A"/>
<path id="Vector_8" d="M42.3501 42.34C43.1101 42.34 43.8601 42.33 44.6201 42.34C45.4801 42.36 45.9501 42.8 45.9701 43.63C45.9901 45.19 45.9901 46.75 45.9701 48.32C45.9601 49.12 45.4901 49.58 44.6801 49.59C43.1201 49.61 41.5601 49.61 39.9901 49.59C39.1901 49.58 38.7301 49.11 38.7201 48.3C38.7001 46.74 38.7001 45.18 38.7201 43.61C38.7301 42.81 39.2001 42.36 40.0101 42.34C40.7901 42.32 41.5701 42.34 42.3501 42.34ZM41.1801 44.8V47.13H43.5001V44.8H41.1801Z" fill="#FF6C1A"/>
<path id="Vector_9" d="M61.6202 39.92C60.8602 39.92 60.1102 39.94 59.3502 39.92C58.5502 39.9 58.0802 39.44 58.0702 38.64C58.0502 37.08 58.0502 35.52 58.0702 33.95C58.0802 33.14 58.5402 32.68 59.3502 32.67C60.9102 32.65 62.4702 32.65 64.0402 32.67C64.8402 32.68 65.3102 33.14 65.3202 33.95C65.3402 35.51 65.3402 37.07 65.3202 38.64C65.3102 39.44 64.8502 39.9 64.0402 39.92C63.2302 39.94 62.4302 39.92 61.6202 39.92ZM62.8802 35.14H60.5302V37.46H62.8802V35.14Z" fill="#FF6C1A"/>
<path id="Vector_10" d="M52.0198 32.66C52.7998 32.66 53.5798 32.64 54.3598 32.66C55.1598 32.68 55.6298 33.14 55.6398 33.94C55.6598 35.5 55.6598 37.06 55.6398 38.63C55.6298 39.43 55.1598 39.9 54.3598 39.91C52.7998 39.93 51.2398 39.93 49.6698 39.91C48.8698 39.9 48.4098 39.43 48.3998 38.63C48.3798 37.07 48.3798 35.51 48.3998 33.94C48.4098 33.14 48.8698 32.69 49.6798 32.66C50.4598 32.64 51.2398 32.66 52.0198 32.66ZM50.8698 35.11V37.46H53.1898V35.11H50.8698Z" fill="#FF6C1A"/>
<path id="Vector_11" d="M45.9699 36.24C45.9699 37 45.9699 37.75 45.9699 38.51C45.9599 39.46 45.5199 39.91 44.5899 39.92C43.0999 39.93 41.6199 39.93 40.1299 39.92C39.1799 39.92 38.7299 39.47 38.7199 38.54C38.7099 37.05 38.7099 35.57 38.7199 34.08C38.7199 33.13 39.1699 32.68 40.0999 32.67C41.5899 32.66 43.0699 32.66 44.5599 32.67C45.5399 32.67 45.9599 33.12 45.9699 34.13C45.9699 34.84 45.9699 35.54 45.9699 36.25V36.24ZM43.4999 37.47V35.14H41.1699V37.47H43.4999Z" fill="#FF6C1A"/>
<path id="Vector_12" d="M55.6401 45.94C55.6401 47.96 54.0001 49.59 52.0001 49.59C50.0301 49.59 48.4001 47.96 48.3901 45.99C48.3901 43.98 50.0201 42.35 52.0301 42.35C54.0001 42.35 55.6401 43.99 55.6401 45.95V45.94ZM53.2201 45.98C53.2301 45.33 52.7001 44.78 52.0501 44.76C51.4001 44.74 50.8401 45.26 50.8101 45.91C50.7801 46.59 51.3401 47.17 52.0201 47.17C52.6701 47.17 53.2101 46.63 53.2201 45.98Z" fill="#FF6C1A"/>
<path id="Vector_13" d="M14.4802 33.84H9.74023V31.5H14.4802V33.84Z" fill="#FF6C1A"/>
<path id="Vector_14" d="M21.7402 26.65V28.97H16.9902V26.65H21.7402Z" fill="#FF6C1A"/>
<path id="Vector_15" d="M14.4802 26.66V28.99H9.74023V26.66H14.4802Z" fill="#FF6C1A"/>
<path id="Vector_16" d="M21.7302 33.84H16.9902V31.5H21.7302V33.84Z" fill="#FF6C1A"/>
<path id="Vector_17" d="M9.72021 36.33H14.4602V38.67H9.72021V36.33Z" fill="#FF6C1A"/>
<path id="Vector_18" d="M9.68994 43.49V41.19H14.4599V43.49H9.68994Z" fill="#FF6C1A"/>
<path id="Vector_19" d="M9.72998 45.98H14.46V48.33H9.72998V45.98Z" fill="#FF6C1A"/>
<path id="Vector_20" d="M26.5598 43.52H21.8198V41.17H26.5598V43.52Z" fill="#FF6C1A"/>
<path id="Vector_21" d="M26.6001 46.02V48.33H21.8301V46.02H26.6001Z" fill="#FF6C1A"/>
</g>
<defs>
<clipPath id="clip0_1745_228">
<rect width="75" height="62.9" fill="white"/>
</clipPath>
</defs>
</svg>
