<svg width="75" height="71" viewBox="0 0 75 71" fill="none" xmlns="http://www.w3.org/2000/svg">
<g id="Layer_1" clip-path="url(#clip0_1793_76)">
<path id="Vector" d="M9.82999 61.23C8.16999 61.23 6.80999 61.17 5.54999 61.05C2.33999 60.74 0.0599865 58.07 0.0199865 54.55C-1.34893e-05 53.13 -1.34888e-05 51.71 0.00998651 50.29V48.42V6.96C0.00998651 3.59 1.78999 1.09 4.75999 0.27C5.36999 0.1 6.07999 0.01 6.78999 0.01C19.34 0.01 31.89 0 44.44 0H68.18C72.18 0 74.97 2.79 74.98 6.78C75 22.67 75 38.56 74.98 54.46C74.98 58.42 72.2 61.18 68.23 61.19H64.11C62.74 61.19 61.36 61.19 59.99 61.19C59.29 61.19 58.79 60.81 58.65 60.17C58.52 59.61 58.82 59.01 59.32 58.8C59.57 58.7 59.89 58.65 60.33 58.65C61.29 58.65 64.35 58.65 64.35 58.65C64.35 58.65 67.33 58.65 68.24 58.65C70.79 58.64 72.38 57.06 72.38 54.55C72.38 45.67 72.38 36.79 72.38 27.91V17.46C72.38 17.35 72.38 17.24 72.36 17.09L72.32 16.39H57.41C52.13 16.39 46.85 16.39 41.57 16.41C40.57 16.41 39.97 16.09 39.49 15.3C38.89 14.3 38.19 13.25 37.22 11.91C36.95 11.54 36.4 11.24 35.98 11.24C28.7 11.22 21.41 11.22 14.13 11.22H3.60999C3.49999 11.22 3.37999 11.23 3.23999 11.24L2.59999 11.29V54.28C2.59999 57.09 4.14999 58.64 6.96999 58.65H11.52C12.67 58.65 13.81 58.65 14.96 58.66C15.51 58.66 16 58.92 16.24 59.33C16.43 59.66 16.43 60.05 16.23 60.4C16.03 60.75 15.57 61.13 15.34 61.13C14.73 61.14 14.12 61.16 13.51 61.17C12.28 61.2 11.06 61.23 9.82999 61.23ZM36.89 8.59C37.86 8.59 38.45 8.9 38.9 9.66C39.25 10.24 39.63 10.8 40.01 11.36C40.36 11.87 40.68 12.34 40.98 12.83C41.39 13.5 41.91 13.78 42.7 13.78C48.58 13.77 54.45 13.76 60.33 13.76H72.38C72.38 13.76 72.38 11.84 72.39 11.11C72.4 9.38 72.41 7.74 72.36 6.06C72.31 4.56 71.44 3.39 69.97 2.86C69.39 2.65 68.69 2.54 67.84 2.54C56.25 2.54 44.65 2.53 33.06 2.53H7.16999C6.60999 2.53 6.14999 2.57 5.72999 2.64C4.16999 2.91 2.92999 4.13 2.69999 5.59C2.60999 6.16 2.62999 6.73 2.64999 7.33C2.64999 7.59 2.66999 7.86 2.66999 8.14V8.58H18.31C24.5 8.58 30.69 8.58 36.88 8.57L36.89 8.59Z" fill="#FF6C1A"/>
<path id="Vector_2" d="M37.4602 70.88C37.2702 70.88 37.0902 70.83 36.9102 70.74C29.9502 67.02 25.1902 62.97 21.9302 57.99C19.9302 54.94 18.9402 51.58 18.9802 48.02C19.0202 44.56 19.0102 41.06 19.0002 37.68C19.0002 36.12 19.0002 34.55 19.0002 32.98C19.0002 31.54 19.2602 31.24 20.6202 31.13C26.3702 30.66 31.3902 28.38 35.9502 24.18C36.6802 23.51 37.0902 23.25 37.4402 23.25C37.8402 23.25 38.3402 23.61 39.0002 24.2C41.5402 26.43 45.0302 29.13 49.5102 30.23C50.8602 30.56 52.2402 30.78 53.5802 30.99L54.6202 31.15C55.6602 31.32 56.0002 31.69 56.0002 32.7C56.0002 34.62 56.0002 36.54 56.0002 38.46V41.18C56.0002 41.8 56.0002 42.43 55.9802 43.05C55.9602 44.42 55.9502 45.81 56.0102 47.18C56.2502 52.13 54.5802 56.61 50.9102 60.88C47.6902 64.62 43.5802 67.81 38.3402 70.6C38.0002 70.78 37.7102 70.87 37.4602 70.87V70.88ZM37.1902 26.32C32.9402 29.94 27.9402 32.28 21.9002 33.46L21.5402 33.53V38.73C21.5502 41.82 21.5602 44.9 21.5302 47.98C21.5002 50.84 22.2402 53.53 23.7202 55.96C26.5502 60.61 30.7602 64.38 36.9702 67.81C37.1002 67.88 37.2602 67.92 37.4502 67.92C37.7002 67.92 37.9802 67.85 38.1902 67.73C42.4802 65.39 45.9602 62.64 48.8402 59.33C52.1502 55.53 53.6702 51.46 53.4802 46.88C53.3702 44.08 53.4002 41.24 53.4202 38.5C53.4302 37.26 53.4402 36.02 53.4402 34.78V33.47L53.0502 33.42C47.4402 32.74 42.4402 30.41 37.7502 26.31L37.4602 26.06L37.1702 26.31L37.1902 26.32Z" fill="#FF6C1A"/>
<path id="Vector_3" d="M59.8999 9.45993C59.2099 9.45993 58.6499 8.89993 58.6299 8.20993C58.6299 7.86993 58.7499 7.54993 58.9899 7.30993C59.2299 7.05993 59.5599 6.92993 59.9099 6.92993C60.6399 6.92993 61.1599 7.43993 61.1599 8.15993C61.1599 8.51993 61.0399 8.84993 60.7999 9.08993C60.5699 9.32993 60.2499 9.45993 59.9099 9.45993H59.8999Z" fill="#FF6C1A"/>
<path id="Vector_4" d="M46.1099 9.45993C45.4199 9.45993 44.8699 8.89993 44.8599 8.19993C44.8599 7.48993 45.3799 6.94993 46.0699 6.92993C46.8099 6.92993 47.3799 7.46993 47.3899 8.17993C47.3899 8.51993 47.2599 8.83993 47.0199 9.07993C46.7799 9.32993 46.4599 9.45993 46.1199 9.45993H46.0999H46.1099Z" fill="#FF6C1A"/>
<path id="Vector_5" d="M53.0102 9.45992C52.3202 9.45992 51.7502 8.88992 51.7402 8.19992C51.7402 7.86992 51.8602 7.54992 52.1002 7.30992C52.3402 7.05992 52.6702 6.91992 53.0302 6.91992C53.7402 6.91992 54.3002 7.46992 54.3102 8.15992C54.3102 8.48992 54.1802 8.80992 53.9402 9.05992C53.7002 9.30992 53.3702 9.44992 53.0302 9.44992H53.0202L53.0102 9.45992Z" fill="#FF6C1A"/>
<path id="Vector_6" d="M66.7998 9.45992C66.4698 9.45992 66.1498 9.32992 65.9198 9.08992C65.6798 8.84992 65.5498 8.51992 65.5498 8.16992C65.5498 7.46992 66.0798 6.92992 66.7798 6.91992C67.1498 6.91992 67.4698 7.04992 67.7198 7.29992C67.9498 7.53992 68.0798 7.84992 68.0798 8.18992C68.0798 8.86992 67.5098 9.43992 66.8298 9.45992H66.7998Z" fill="#FF6C1A"/>
<path id="Vector_7" d="M35.9599 54.5499C35.6199 54.5499 35.2699 54.3799 34.9399 54.0499C32.6399 51.7499 30.3599 49.4299 28.0799 47.0999C27.4699 46.4799 27.4299 45.7499 27.9699 45.1999C28.2199 44.9399 28.5199 44.7999 28.8299 44.7999C29.1899 44.7999 29.5699 44.9799 29.9199 45.3199L35.9899 51.1599L41.3799 44.6399L42.4999 43.2699C43.3499 42.2299 44.1999 41.1899 45.0799 40.1699C45.3699 39.8299 45.7799 39.6299 46.1799 39.6299C46.7399 39.6299 47.1599 39.9699 47.2899 40.5299C47.3799 40.9099 47.2499 41.4899 47.0099 41.7799C43.6099 45.9899 40.1699 50.1299 36.9599 53.9899C36.6599 54.3499 36.3099 54.5499 35.9499 54.5499H35.9599Z" fill="#FF6C1A"/>
</g>
<defs>
<clipPath id="clip0_1793_76">
<rect width="75" height="70.88" fill="white"/>
</clipPath>
</defs>
</svg>
