<svg width="69" height="75" viewBox="0 0 69 75" fill="none" xmlns="http://www.w3.org/2000/svg">
<g id="Layer_1" clip-path="url(#clip0_1793_84)">
<path id="Vector" d="M15.9601 75C14.9501 75 14.6201 74.67 14.6201 73.63C14.6201 72.09 14.6201 67.17 14.6201 67.17V66.06H1.51012C0.280117 66.06 0.0201169 65.79 0.0201169 64.55C0.0201169 63.68 0.0201169 62.81 0.0301169 61.94C0.0401169 60.08 0.0601169 58.15 0.000116865 56.26C-0.149883 51.25 3.92012 48.08 7.94012 47.9C8.01012 47.9 8.08012 47.89 8.17012 47.88L8.67012 47.82C8.67012 47.82 8.12012 47.02 8.03012 46.89C5.90012 43.69 5.31012 40.44 6.29012 37.24C7.26012 34.04 10.2501 31.89 13.7101 31.89C14.2901 31.89 14.8801 31.95 15.4501 32.08C19.3201 32.92 21.9501 36.59 21.5601 40.62C21.2901 43.41 20.4601 45.6 18.9301 47.52L18.6801 47.84L19.0901 47.86C20.9901 47.95 22.6101 48.46 24.0401 49.43C24.1501 49.51 24.3101 49.55 24.4701 49.55C25.3601 49.5 26.2001 49.44 27.0801 49.38L28.0401 49.31L27.0701 48.24C25.0101 45.92 23.7701 42.96 23.2701 39.18C22.9401 36.67 23.2201 34.47 24.1401 32.46C25.9201 28.55 29.8801 26.03 34.2101 26.03C34.7901 26.03 35.3801 26.08 35.9601 26.16C40.7601 26.9 44.5801 30.87 45.0501 35.62C45.5601 40.75 44.1201 45.16 40.7601 48.74C40.7201 48.78 40.7001 48.82 40.6301 48.9L40.1301 49.57L40.6701 49.46C40.9401 49.4 41.2301 49.38 41.5601 49.38C41.8501 49.38 42.1401 49.4 42.4201 49.42C42.7101 49.44 42.9901 49.46 43.2801 49.46C43.7801 49.46 44.4501 49.41 45.1501 48.98C45.9301 48.51 46.8501 48.26 47.8101 48C48.2401 47.88 48.6801 47.77 49.1001 47.63L49.3701 47.54L49.2101 47.31C49.1301 47.21 49.0201 47.06 48.9201 46.91C46.6901 43.41 46.1501 40.16 47.2601 36.99C48.3201 33.95 51.2701 31.9 54.5801 31.9C55.1601 31.9 55.7401 31.96 56.3101 32.09C60.0501 32.9 62.6801 36.4 62.4401 40.24C62.2501 43.26 61.7601 44.62 59.8301 47.55L59.6301 47.86L59.9901 47.88C62.5501 48 64.5701 48.87 66.1601 50.54C67.5701 52.02 68.2801 53.8 68.2901 55.83C68.2901 58.25 68.2901 60.67 68.2901 63.09V64.65C68.2901 65.79 68.0001 66.08 66.8801 66.08H53.6901C53.6901 66.08 53.6901 72.11 53.6901 73.65C53.6901 74.69 53.3601 75.03 52.3601 75.03H34.1601H15.9601V75ZM24.2501 64.29C24.9101 64.29 25.2501 64.74 25.2501 65.6C25.2501 67.01 25.2501 68.42 25.2501 69.83V72.94H43.0501C43.0501 72.94 43.0501 67.12 43.0501 65.64C43.0501 64.74 43.3901 64.29 44.0601 64.29C44.3201 64.29 45.0601 64.3 45.0601 65.61C45.0601 67.14 45.0601 71.92 45.0601 71.92V72.93H51.5801L51.6301 72.65C51.6501 72.57 51.6601 72.51 51.6601 72.45C51.6601 71.35 51.6601 70.25 51.6601 69.14C51.6701 66.19 51.6801 63.13 51.6101 60.13C51.5801 58.99 51.2601 57.74 50.7301 56.7C48.9701 53.25 46.0001 51.48 41.9001 51.44C39.7801 51.42 37.6601 51.41 35.5401 51.41C33.4201 51.41 31.4701 51.41 29.4401 51.42H26.4701C25.8201 51.43 25.1401 51.49 24.4701 51.59C19.8401 52.32 16.6101 56.1 16.6001 60.78V72.94H23.1601L23.1801 72.47C23.1901 72.29 23.2001 72.12 23.2001 71.95V65.57C23.2201 64.29 23.9501 64.29 24.1901 64.29H24.2101H24.2501ZM55.7301 49.89C54.1701 49.89 52.6101 49.89 51.0501 49.91H48.9101C48.5901 49.92 48.2901 49.98 47.9301 50.04C47.7501 50.07 47.5601 50.11 47.3601 50.14L46.8401 50.22L47.5101 50.69C47.6101 50.76 47.6601 50.8 47.7101 50.83C51.8101 53.14 53.8201 56.67 53.7101 61.3C53.7001 61.87 53.7001 62.43 53.7101 63.01V64.03H66.3001V56.15C66.3001 52.61 63.7501 49.99 60.2501 49.94C58.7501 49.92 57.2501 49.91 55.7501 49.91L55.7301 49.89ZM12.6101 49.89C11.0401 49.89 9.48012 49.9 7.91012 49.93C4.56012 50 2.03012 52.63 2.02012 56.06C2.02012 58 2.02012 59.94 2.02012 61.89V63.06C2.02012 63.24 2.03012 63.41 2.04012 63.59L2.06012 64H14.6001V63.79C14.6001 63.36 14.6001 62.94 14.6001 62.51C14.5901 60.27 14.5701 58.15 15.5301 56.13C16.6101 53.85 18.3401 52 20.8201 50.49L21.3101 50.19L20.7401 50.11C20.6101 50.09 20.4801 50.07 20.3501 50.04C20.0601 49.99 19.7601 49.93 19.4601 49.93H16.7501C15.3601 49.91 13.9801 49.9 12.6001 49.9L12.6101 49.89ZM31.8201 35.42C31.6601 35.42 31.5101 35.46 31.4001 35.52C29.3201 36.75 27.4901 37.86 25.8201 38.91C25.5701 39.07 25.3701 39.52 25.4101 39.82C25.7501 42.11 26.5301 44.14 27.7401 45.87C29.3201 48.13 31.6501 49.43 34.1201 49.43C36.5001 49.43 38.7701 48.21 40.3701 46.1C41.6601 44.39 42.4901 42.33 42.9101 39.79L42.9401 39.59L42.7401 39.55C38.8935 38.77 35.4068 37.4367 32.2801 35.55C32.1401 35.47 31.9801 35.43 31.8101 35.43L31.8201 35.42ZM54.6201 33.91C51.6401 33.91 49.2001 36.03 48.8201 38.96C48.5201 41.21 49.0301 43.38 50.3201 45.4C51.3401 46.99 52.8901 47.91 54.5701 47.91C56.2601 47.91 57.8301 46.99 58.8701 45.39C59.7701 44 60.3001 42.31 60.4101 40.49C60.6501 37.2 58.4501 34.33 55.3901 33.96C55.1301 33.93 54.8701 33.91 54.6101 33.91H54.6201ZM13.7201 33.92C10.6601 33.92 8.17012 36.19 7.91012 39.19C7.72012 41.43 8.23012 43.52 9.45012 45.4C10.4801 46.99 12.0301 47.9 13.7101 47.9C15.3901 47.9 16.9701 46.98 18.0001 45.38C19.0801 43.7 19.6101 41.76 19.5601 39.63C19.4901 36.43 16.9301 33.93 13.7401 33.92H13.7201ZM31.9201 33.01C32.1801 33.01 32.4801 33.19 33.0001 33.52C34.8301 34.67 36.3901 35.59 38.0301 36.36C39.3401 36.98 40.8801 37.32 42.8701 37.43H43.0701L43.0801 37.24C43.2401 35.13 42.3901 32.82 40.8301 31.07C39.6801 29.78 37.6201 28.21 34.3901 28.08C34.2901 28.08 34.1801 28.08 34.0801 28.08C31.7501 28.08 29.3201 29.15 27.5801 30.95C26.0201 32.56 25.1901 34.52 25.2601 36.47V36.8L25.7901 36.53C25.9501 36.45 26.1001 36.37 26.2401 36.28L30.9801 33.41C31.4701 33.12 31.7101 33.01 31.9201 33.01Z" fill="#FF6C1A"/>
<path id="Vector_2" d="M40.7 22.01C40.5 22.01 40.26 21.94 39.99 21.81L39.44 21.53C37.93 20.77 36.37 19.99 34.81 19.27C34.64 19.19 34.41 19.14 34.17 19.14C33.93 19.14 33.7 19.19 33.53 19.27C32.47 19.76 31.43 20.27 30.39 20.79C29.69 21.14 28.98 21.48 28.28 21.82C28.06 21.93 27.84 21.98 27.62 21.98C27.33 21.98 27.08 21.88 26.9 21.69C26.72 21.49 26.63 21.22 26.65 20.91L26.88 19.31C27.07 17.96 27.26 16.64 27.48 15.32C27.62 14.48 27.45 13.92 26.89 13.39C26.07 12.61 25.27 11.77 24.49 10.97C24.03 10.49 23.58 10.02 23.11 9.54998C22.68 9.10998 22.55 8.74998 22.68 8.32998C22.82 7.89998 23.13 7.67998 23.8 7.56998L24.02 7.52998C25.79 7.23998 27.62 6.93998 29.41 6.58998C29.79 6.51998 30.23 6.18998 30.43 5.81998C31.35 4.16998 32.24 2.45998 33.09 0.80998C33.39 0.22998 33.65 -0.0200195 33.96 -0.0200195C34.01 -0.0200195 34.06 -0.0200195 34.12 -1.95317e-05C34.51 0.0899805 34.96 0.43998 35.17 0.79998C36.13 2.47998 37 4.16998 37.79 5.74998C38.06 6.27998 38.43 6.53998 39.03 6.63998C40.06 6.79998 41.08 6.97998 42.1 7.15998C42.9 7.29998 43.69 7.43998 44.49 7.56998C45.05 7.65998 45.46 7.82998 45.62 8.31998C45.76 8.74998 45.62 9.11998 45.16 9.59998C44.64 10.12 44.13 10.65 43.62 11.18C42.85 11.98 42.07 12.78 41.28 13.56C40.85 13.99 40.7 14.42 40.79 15.01C40.93 15.91 41.06 16.8 41.19 17.7C41.33 18.66 41.46 19.61 41.61 20.57C41.71 21.18 41.61 21.53 41.25 21.81C41.07 21.95 40.89 22.01 40.68 22.01H40.7ZM33.98 3.49998C33.76 3.91998 33.54 4.30998 33.33 4.69998C32.85 5.57998 32.4 6.40998 32 7.26998C31.65 8.02998 31.13 8.40998 30.26 8.52998C29.33 8.65998 28.4 8.81998 27.42 8.99998C26.99 9.07998 25.71 9.29998 25.71 9.29998L26.94 10.58C27.69 11.36 28.4 12.11 29.14 12.83C29.61 13.29 29.76 13.77 29.64 14.42C29.47 15.41 29.33 16.41 29.19 17.46L28.94 19.24C28.94 19.24 30.13 18.66 30.53 18.47C31.43 18.04 32.28 17.64 33.1 17.18C33.48 16.97 33.82 16.87 34.17 16.87C34.52 16.87 34.87 16.97 35.25 17.18C36.08 17.63 36.93 18.04 37.83 18.47C38.22 18.66 39.4 19.23 39.4 19.23L39.14 17.42C38.99 16.35 38.85 15.34 38.68 14.34C38.58 13.73 38.72 13.29 39.14 12.88C39.89 12.13 40.63 11.37 41.36 10.6L41.9 10.04C41.99 9.94998 42.07 9.83998 42.15 9.71998L42.48 9.26998L42.15 9.20998C41.74 9.13998 41.35 9.05998 40.96 8.97998C40.07 8.79998 39.23 8.63998 38.37 8.55998C37.28 8.45998 36.62 7.99998 36.18 7.00998C35.82 6.19998 35.4 5.42998 34.95 4.60998C34.75 4.24998 34.55 3.86998 34.34 3.48998L34.16 3.13998L33.98 3.48998V3.49998Z" fill="#FF6C1A"/>
<path id="Vector_3" d="M53.5802 22.03C53.3802 22.03 53.2202 21.96 53.0902 21.81C52.8402 21.51 52.6902 21.01 52.7202 20.61C52.7702 19.92 52.8802 19.22 52.9802 18.54C53.0602 17.98 53.1502 17.42 53.2002 16.86C53.2402 16.51 53.0802 16.05 52.8402 15.78C52.0902 14.95 51.3002 14.15 50.5302 13.37L50.2602 13.09C49.8302 12.65 49.7102 12.3 49.8402 11.88C49.9702 11.46 50.2802 11.24 50.8902 11.14L51.8902 10.97C52.8002 10.82 53.7202 10.66 54.6302 10.47C54.9602 10.4 55.3202 10.14 55.4902 9.85C56.1002 8.78 56.6702 7.68 57.2202 6.61C57.5002 6.06 57.7702 5.75 58.3002 5.75C58.8302 5.75 59.0902 6.06 59.3602 6.59L59.6302 7.11C60.0902 8 60.5702 8.93 61.0802 9.82C61.2602 10.13 61.6402 10.41 61.9902 10.48C62.9302 10.68 63.8802 10.84 64.8302 11L65.5802 11.13C66.2002 11.23 66.6102 11.4 66.7702 11.91C66.9202 12.41 66.6802 12.78 66.2702 13.18C65.9002 13.55 65.5302 13.93 65.1602 14.31C64.7002 14.78 64.2402 15.26 63.7702 15.72C63.3902 16.09 63.2702 16.46 63.3602 16.97C63.5202 17.9 63.6502 18.84 63.7802 19.73L63.9202 20.74C63.9402 21.17 63.8202 21.54 63.6002 21.77C63.4402 21.94 63.2302 22.02 62.9802 22.02C62.8002 22.02 62.6102 21.97 62.4102 21.88C61.1702 21.31 60.0602 20.76 59.0302 20.2C58.7802 20.07 58.5502 20 58.3202 20C58.0902 20 57.8502 20.07 57.5702 20.21C56.9302 20.55 56.2702 20.87 55.6102 21.19C55.1802 21.4 54.7402 21.61 54.3102 21.83C54.0302 21.97 53.7802 22.04 53.5802 22.04V22.03ZM57.7202 9.97C57.4302 10.5 57.1702 10.99 56.9202 11.5C56.6702 12.01 56.3002 12.28 55.7402 12.35C55.1802 12.43 54.6302 12.53 54.0702 12.64L53.2802 12.79L52.9602 13.28C52.9602 13.28 54.4102 14.53 54.8202 14.88C55.3202 15.31 55.4802 15.81 55.3402 16.52C55.2402 17.02 55.1802 17.54 55.1102 18.09C55.0802 18.34 54.9602 19.25 54.9602 19.25L56.0702 18.71C56.6102 18.45 57.0902 18.22 57.5602 17.97C57.8202 17.83 58.0602 17.76 58.3102 17.76C58.5602 17.76 58.7802 17.82 59.0302 17.95C59.5202 18.2 60.0202 18.44 60.5502 18.7L61.6602 19.24L61.5002 18.07C61.4302 17.54 61.3702 17.04 61.2702 16.56C61.1202 15.8 61.3002 15.26 61.8502 14.8C62.2302 14.49 62.6002 14.16 62.9602 13.83L63.5702 13.29L63.3002 12.78L62.5102 12.63C61.9702 12.53 61.4302 12.42 60.8902 12.35C60.3002 12.27 59.9202 12 59.6502 11.46C59.4102 10.96 59.1402 10.47 58.8602 9.95L58.2902 8.89L57.7102 9.97H57.7202Z" fill="#FF6C1A"/>
<path id="Vector_4" d="M14.7401 22.03C14.5401 22.03 14.2901 21.96 14.0101 21.82L13.5001 21.56C12.5801 21.09 11.6201 20.6 10.6501 20.18C10.4801 20.1 10.2601 20.06 10.0301 20.06C9.80012 20.06 9.56012 20.1 9.37012 20.19C8.72012 20.48 8.09012 20.79 7.45012 21.11C6.93012 21.37 6.41012 21.63 5.88012 21.87C5.69012 21.96 5.50012 22 5.33012 22C5.09012 22 4.87012 21.91 4.71012 21.75C4.49012 21.53 4.38012 21.17 4.38012 20.74L4.52012 19.79C4.66012 18.87 4.80012 17.89 4.91012 16.91C4.95012 16.53 4.80012 16.05 4.55012 15.77C3.81012 14.94 3.01012 14.14 2.24012 13.36L1.96012 13.08C1.27012 12.39 1.48012 12.04 1.55012 11.92C1.76012 11.58 2.22012 11.25 2.63012 11.15C3.29012 10.99 3.98012 10.87 4.64012 10.77C5.19012 10.68 5.74012 10.59 6.28012 10.47C6.64012 10.39 7.05012 10.09 7.24012 9.75999C7.52012 9.27999 7.78012 8.77999 8.03012 8.28999C8.34012 7.68999 8.66012 7.07999 9.01012 6.49999C9.21012 6.17999 9.64012 5.86999 10.0201 5.75999C10.0801 5.73999 10.1401 5.73999 10.1901 5.73999C10.4901 5.73999 10.7401 5.96999 11.0001 6.46999L11.3101 7.06999C11.7701 7.95999 12.2401 8.87999 12.7601 9.75999C12.9501 10.09 13.3601 10.39 13.7201 10.47C14.5701 10.66 15.4401 10.8 16.3101 10.95L17.3201 11.12C17.9201 11.23 18.3001 11.38 18.4601 11.87C18.6301 12.37 18.4101 12.73 18.0001 13.14C17.7001 13.44 17.4001 13.75 17.1101 14.06C16.6001 14.59 16.0901 15.12 15.5601 15.63C15.1301 16.04 14.9901 16.49 15.0901 17.09L15.1501 17.48C15.3201 18.51 15.5001 19.56 15.5701 20.61C15.6001 21.01 15.4401 21.51 15.2001 21.81C15.0701 21.96 14.9101 22.04 14.7101 22.04L14.7401 22.03ZM9.47012 9.92999C9.20012 10.42 8.96012 10.87 8.73012 11.34C8.43012 11.99 8.01012 12.29 7.34012 12.37C6.82012 12.42 6.30012 12.53 5.76012 12.64C5.51012 12.69 4.59012 12.86 4.59012 12.86L5.42012 13.73C5.83012 14.17 6.22012 14.57 6.62012 14.96C7.01012 15.34 7.15012 15.75 7.06012 16.28C6.97012 16.84 6.90012 17.4 6.82012 18.01L6.66012 19.23L7.73012 18.72C8.25012 18.48 8.72012 18.26 9.17012 18C9.47012 17.83 9.74012 17.75 10.0101 17.75C10.2801 17.75 10.5401 17.83 10.8301 17.98C11.2901 18.23 11.7701 18.45 12.2801 18.69L13.3601 19.2L13.1901 18.01C13.1101 17.43 13.0401 16.91 12.9501 16.39C12.8401 15.78 12.9801 15.33 13.4001 14.93C13.8001 14.55 14.1801 14.15 14.5901 13.72L15.4401 12.84L14.2301 12.62C13.6401 12.51 13.0901 12.41 12.5401 12.33C11.9901 12.25 11.6401 12.01 11.4001 11.53C11.1401 11.02 10.8701 10.51 10.5801 9.95999L10.0001 8.86999L9.44012 9.90999L9.47012 9.92999Z" fill="#FF6C1A"/>
</g>
<defs>
<clipPath id="clip0_1793_84">
<rect width="68.31" height="75" fill="white"/>
</clipPath>
</defs>
</svg>
