<svg width="75" height="75" viewBox="0 0 75 75" fill="none" xmlns="http://www.w3.org/2000/svg">
<g id="Layer_1" clip-path="url(#clip0_1745_109)">
<path id="Vector" d="M66.95 18.26C68.3 18.26 69.55 18.26 70.81 18.26C73.42 18.26 75 19.85 75.01 22.45C75.01 36.77 75.01 51.08 75.01 65.4C75.01 67.94 73.39 69.56 70.85 69.56C57.19 69.56 43.53 69.56 29.88 69.55C29.33 69.55 28.93 69.68 28.57 70.1C28.11 70.63 27.57 71.1 27.08 71.61C26.58 72.13 25.99 72.31 25.38 71.91C24.35 71.24 23.43 71.38 22.31 71.84C21.27 72.27 20.66 72.82 20.4 73.88C20.21 74.67 19.64 75.01 18.82 74.99C17.71 74.96 16.6 74.97 15.49 74.99C14.74 74.99 14.2 74.71 14.02 73.96C13.74 72.82 13.06 72.24 11.95 71.78C10.92 71.36 10.09 71.27 9.16 71.84C8.43 72.29 7.79 72.14 7.21 71.51C6.45 70.7 5.66 69.92 4.86 69.16C4.34 68.66 4.17 68.08 4.54 67.46C5.16 66.43 5.1 65.51 4.61 64.38C4.18 63.39 3.67 62.79 2.65 62.48C1.62 62.17 1.5 61.9 1.49 60.82C1.49 59.69 1.49 58.55 1.49 57.42C1.49 56.82 1.72 56.3 2.28 56.18C3.75 55.89 4.42 54.92 4.81 53.58C4.97 53.03 5.31 52.59 4.96 51.96C4.72 51.53 4.5 51.35 4 51.33C1.92 51.25 0.49 50.09 0.1 48.2C0.03 47.86 0.02 47.5 0.02 47.15C0 32.82 0 18.5 0 4.19C0 1.65 1.62 0 4.15 0C23.7 0 43.26 0 62.81 0C65.29 0 66.93 1.64 66.94 4.13C66.96 8.52 66.94 12.9 66.94 17.29C66.94 17.58 66.94 17.88 66.94 18.25L66.95 18.26ZM72.58 30.88H10.53V47.28C11.02 47.06 11.41 46.8 11.84 46.71C13.07 46.44 13.76 45.7 14.04 44.48C14.2 43.81 14.7 43.52 15.4 43.53C16.46 43.55 17.52 43.53 18.57 43.53C19.85 43.53 20.06 43.63 20.45 44.82C20.74 45.72 21.15 46.41 22.17 46.55C22.24 46.55 22.32 46.58 22.38 46.62C23.35 47.31 24.3 47.22 25.29 46.62C25.96 46.21 26.57 46.37 27.12 46.95C27.86 47.74 28.63 48.51 29.42 49.25C30.04 49.83 30.23 50.47 29.78 51.2C29.2 52.14 29.31 52.96 29.71 53.99C30.15 55.11 30.73 55.79 31.87 56.07C32.53 56.23 32.89 56.69 32.9 57.39C32.9 58.62 32.96 59.86 32.87 61.09C32.84 61.51 32.48 62.19 32.16 62.26C30.59 62.61 29.91 63.67 29.52 65.06C29.49 65.16 29.43 65.24 29.39 65.33C28.95 66.25 29.5 67.13 30.52 67.13C43.85 67.13 57.18 67.13 70.5 67.13C72.14 67.13 72.57 66.7 72.57 65.09C72.57 53.98 72.57 42.86 72.57 31.75C72.57 31.48 72.57 31.2 72.57 30.87L72.58 30.88ZM2.45 12.62C2.44 12.84 2.42 12.99 2.42 13.14C2.42 24.48 2.42 35.83 2.42 47.17C2.42 47.89 2.61 48.56 3.32 48.75C4.11 48.97 4.99 49.25 5.72 48.49C6.3 47.89 6.84 47.24 7.5 46.75C7.98 46.4 8.07 46.03 8.07 45.5C8.06 37.84 8.07 30.17 8.06 22.51C8.06 21.47 8.26 20.51 8.94 19.69C9.82 18.62 10.98 18.24 12.35 18.24C29.41 18.26 46.47 18.24 63.53 18.24H64.48V12.61H2.45V12.62ZM72.58 28.37C72.58 26.37 72.58 24.44 72.58 22.5C72.58 21.16 72.09 20.67 70.76 20.67C67.81 20.67 64.86 20.67 61.92 20.67C45.42 20.67 28.91 20.67 12.41 20.67C10.94 20.67 10.48 21.14 10.47 22.62C10.47 23.68 10.47 24.74 10.47 25.8C10.47 26.65 10.47 27.5 10.47 28.37H72.58ZM2.43 10.11H64.53C64.53 8.22 64.53 6.39 64.53 4.55C64.53 2.86 64.09 2.42 62.37 2.42C43.1 2.42 23.83 2.42 4.56 2.42C4.28 2.42 4 2.41 3.73 2.45C2.99 2.56 2.45 3.08 2.44 3.81C2.41 5.9 2.43 7.98 2.43 10.11ZM17.2 72.51C18.14 72.87 18.53 72.3 18.74 71.47C18.94 70.65 19.47 70.23 20.28 70.01C21.03 69.81 21.79 69.55 22.44 69.14C23.32 68.58 24.1 68.56 24.97 69.07C25.22 69.22 25.65 69.44 25.78 69.35C26.32 68.95 26.84 68.48 27.23 67.94C27.36 67.76 27.15 67.24 26.98 66.94C26.51 66.11 26.55 65.36 27.06 64.54C27.44 63.93 27.76 63.23 27.9 62.53C28.11 61.51 28.67 60.95 29.64 60.69C29.92 60.62 30.38 60.47 30.4 60.3C30.5 59.64 30.54 58.94 30.43 58.28C30.39 58.06 29.86 57.85 29.52 57.75C28.64 57.49 28.13 56.98 27.93 56.05C27.78 55.37 27.53 54.67 27.14 54.1C26.47 53.13 26.52 52.25 27.08 51.29C27.2 51.08 27.38 50.72 27.29 50.61C26.86 50.09 26.41 49.56 25.86 49.18C25.67 49.05 25.15 49.28 24.84 49.45C24.03 49.91 23.32 49.85 22.51 49.38C21.76 48.94 20.91 48.65 20.07 48.4C19.43 48.2 19.01 47.88 18.81 47.24C18.72 46.95 18.64 46.64 18.47 46.41C18.32 46.21 18.07 46.03 17.83 45.96C17.58 45.88 17.27 45.98 17.01 45.94C16.25 45.81 15.85 46.11 15.69 46.86C15.5 47.8 14.89 48.27 13.96 48.52C13.17 48.73 12.4 49.08 11.68 49.48C11.02 49.85 10.44 49.9 9.76 49.58C8.58 49.03 8.61 49.09 7.68 49.92C7.09 50.44 6.95 50.91 7.39 51.58C7.91 52.38 7.81 53.15 7.3 53.97C6.9 54.63 6.6 55.38 6.42 56.12C6.21 56.99 5.75 57.49 4.93 57.73C4.6 57.83 4.05 57.95 4.01 58.15C3.88 58.8 3.86 59.5 3.95 60.17C3.98 60.38 4.44 60.62 4.74 60.7C5.71 60.97 6.26 61.54 6.48 62.55C6.63 63.23 6.9 63.91 7.28 64.49C7.85 65.36 7.87 66.16 7.36 67.03C7.21 67.28 6.98 67.71 7.08 67.84C7.48 68.38 7.94 68.9 8.48 69.29C8.67 69.42 9.19 69.22 9.49 69.05C10.32 68.57 11.07 68.62 11.89 69.13C12.52 69.52 13.25 69.82 13.97 70C14.88 70.22 15.48 70.66 15.67 71.58C15.85 72.41 16.29 72.79 17.2 72.53V72.51Z" fill="#FF6C1A"/>
<path id="Vector_2" d="M50.66 54.43C45.77 54.43 40.88 54.43 36 54.43C35.1 54.43 34.61 54.12 34.48 53.49C34.33 52.79 34.75 52.15 35.45 52.03C35.7 51.99 35.95 52.01 36.2 52.01C45.8 52.01 55.4 52.01 65 52.01C65.1 52.01 65.2 52.01 65.3 52.01C66.23 52.02 66.81 52.51 66.79 53.25C66.77 53.97 66.22 54.43 65.32 54.43C60.43 54.43 55.54 54.43 50.66 54.43Z" fill="#FF6C1A"/>
<path id="Vector_3" d="M51.78 62.92C47.37 62.92 42.97 62.92 38.56 62.92C38.31 62.92 38.05 62.94 37.81 62.9C37.18 62.82 36.8 62.45 36.75 61.82C36.7 61.19 37 60.75 37.61 60.57C37.89 60.49 38.21 60.5 38.51 60.5C47.35 60.5 56.19 60.5 65.02 60.5C65.25 60.5 65.48 60.49 65.7 60.52C66.36 60.62 66.82 61.16 66.79 61.76C66.76 62.38 66.28 62.85 65.61 62.91C65.38 62.93 65.16 62.91 64.93 62.91C60.55 62.91 56.17 62.91 51.79 62.91L51.78 62.92Z" fill="#FF6C1A"/>
<path id="Vector_4" d="M27.8202 35.04C31.0702 35.04 34.3202 35.04 37.5702 35.04C37.8202 35.04 38.0802 35.02 38.3202 35.06C38.9202 35.15 39.2702 35.5 39.3302 36.1C39.3902 36.69 39.1402 37.15 38.5602 37.34C38.2302 37.44 37.8702 37.45 37.5202 37.45C31.0502 37.45 24.5802 37.45 18.1102 37.45C17.9302 37.45 17.7602 37.45 17.5802 37.45C16.7502 37.39 16.2702 36.91 16.3002 36.17C16.3302 35.47 16.8002 35.04 17.6202 35.04C21.0202 35.04 24.4202 35.04 27.8202 35.04Z" fill="#FF6C1A"/>
<path id="Vector_5" d="M47.4499 42.26C48.6399 43.27 49.7999 44.24 50.9499 45.21C51.1399 45.37 51.3399 45.53 51.5199 45.7C52.0899 46.24 52.1699 46.91 51.7199 47.44C51.2699 47.98 50.5899 48.04 49.9799 47.54C48.5399 46.36 47.1299 45.15 45.6999 43.95C45.4099 43.71 45.1099 43.48 44.8399 43.22C44.1999 42.62 44.1599 41.88 44.8099 41.32C46.5199 39.84 48.2599 38.38 49.9999 36.94C50.5999 36.44 51.2999 36.53 51.7399 37.08C52.1699 37.62 52.1099 38.29 51.4999 38.82C50.3799 39.79 49.2299 40.74 48.0999 41.7C47.8899 41.88 47.6899 42.06 47.4499 42.27V42.26Z" fill="#FF6C1A"/>
<path id="Vector_6" d="M63.7002 42.25C62.3302 41.1 61.0202 40 59.7202 38.89C59.0602 38.33 58.9402 37.68 59.3702 37.11C59.7802 36.57 60.4802 36.42 61.0402 36.88C62.8502 38.36 64.6402 39.87 66.4102 41.4C66.9702 41.89 66.9502 42.64 66.3802 43.13C64.6302 44.65 62.8602 46.14 61.0702 47.61C60.5102 48.07 59.8102 47.94 59.3902 47.41C58.9802 46.89 59.0202 46.22 59.5902 45.73C60.9202 44.58 62.2702 43.45 63.7002 42.25Z" fill="#FF6C1A"/>
<path id="Vector_7" d="M57.0698 35.05C58.0598 35.05 58.5398 35.79 58.2798 36.77C57.6798 39.03 57.0698 41.29 56.4698 43.54C56.0498 45.12 55.6298 46.7 55.1998 48.27C54.9498 49.19 54.3898 49.6 53.6498 49.42C52.9298 49.24 52.6298 48.57 52.8798 47.66C53.8998 43.85 54.9298 40.04 55.9298 36.22C56.1098 35.54 56.4198 35.07 57.0698 35.05Z" fill="#FF6C1A"/>
<path id="Vector_8" d="M32.3898 43.53C34.1998 43.53 36.0098 43.53 37.8298 43.53C38.8098 43.53 39.3298 43.95 39.3398 44.71C39.3398 45.49 38.8198 45.94 37.8698 45.94C34.1898 45.94 30.5198 45.94 26.8398 45.94C25.8798 45.94 25.3598 45.49 25.3698 44.71C25.3698 43.94 25.8998 43.53 26.8798 43.53C28.7198 43.53 30.5598 43.53 32.3898 43.53Z" fill="#FF6C1A"/>
<path id="Vector_9" d="M23.8001 22.97C24.6501 22.95 25.3901 23.68 25.3901 24.53C25.3901 25.36 24.6901 26.06 23.8601 26.08C23.0101 26.1 22.2601 25.37 22.2701 24.52C22.2701 23.7 22.9701 22.99 23.8001 22.97Z" fill="#FF6C1A"/>
<path id="Vector_10" d="M31.37 24.49C31.39 25.34 30.72 26.05 29.88 26.08C29.04 26.11 28.32 25.44 28.28 24.6C28.24 23.73 28.94 22.98 29.81 22.97C30.66 22.97 31.35 23.64 31.37 24.49Z" fill="#FF6C1A"/>
<path id="Vector_11" d="M16.3 24.56C16.28 23.7 16.93 23 17.78 22.97C18.66 22.94 19.37 23.63 19.37 24.52C19.37 25.37 18.69 26.06 17.85 26.08C17.01 26.09 16.31 25.41 16.29 24.56H16.3Z" fill="#FF6C1A"/>
<path id="Vector_12" d="M17.3199 6.32C17.3199 7.17 16.6199 7.85 15.7699 7.85C14.8899 7.85 14.1899 7.13 14.2099 6.25C14.2399 5.4 14.9399 4.74 15.7899 4.75C16.6399 4.77 17.3199 5.47 17.3099 6.31L17.3199 6.32Z" fill="#FF6C1A"/>
<path id="Vector_13" d="M11.33 6.27C11.35 7.1 10.66 7.82 9.81996 7.85C8.94996 7.88 8.20996 7.16 8.20996 6.3C8.20996 5.46 8.90996 4.77 9.75996 4.76C10.61 4.76 11.31 5.43 11.33 6.27Z" fill="#FF6C1A"/>
<path id="Vector_14" d="M23.3002 6.31C23.3002 7.17 22.6302 7.84 21.7702 7.85C20.8802 7.85 20.2002 7.15 20.2202 6.26C20.2402 5.4 20.9202 4.75 21.7902 4.76C22.6502 4.78 23.3102 5.45 23.3002 6.31Z" fill="#FF6C1A"/>
<path id="Vector_15" d="M17.1898 51.2C21.6398 51.2 25.2698 54.84 25.2398 59.29C25.2198 63.7 21.5898 67.3 17.1798 67.3C12.7598 67.3 9.15981 63.72 9.11981 59.29C9.08981 54.86 12.7298 51.21 17.1898 51.21V51.2ZM17.1698 53.62C14.0698 53.62 11.5498 56.14 11.5398 59.24C11.5298 62.35 14.0998 64.89 17.2298 64.88C20.3198 64.86 22.8398 62.31 22.8198 59.22C22.7998 56.12 20.2698 53.61 17.1698 53.62Z" fill="#FF6C1A"/>
</g>
<defs>
<clipPath id="clip0_1745_109">
<rect width="75" height="74.99" fill="white"/>
</clipPath>
</defs>
</svg>
