<svg width="75" height="69" viewBox="0 0 75 69" fill="none" xmlns="http://www.w3.org/2000/svg">
<g id="Layer_1" clip-path="url(#clip0_1745_251)">
<path id="Vector" d="M37.53 0C47.95 0 58.37 0 68.8 0C71.79 0 74.03 1.59 74.75 4.24C74.91 4.84 74.99 5.49 74.99 6.11C75 21.81 75 37.51 74.99 53.21C74.99 56.91 72.53 59.35 68.83 59.35C65.29 59.35 61.76 59.36 58.22 59.34C57.68 59.34 57.28 59.48 56.9 59.87C55.3 61.51 53.67 63.13 52.04 64.75C51.2 65.58 50.7 65.61 49.77 64.9C48.62 64.02 47.48 63.12 46.31 62.26C46.08 62.09 45.67 61.98 45.44 62.07C45.21 62.16 44.98 62.53 44.94 62.81C44.7 64.32 44.52 65.84 44.31 67.35C44.18 68.26 43.76 68.65 42.84 68.65C39.46 68.66 36.09 68.66 32.71 68.65C31.74 68.65 31.33 68.23 31.19 67.19C31.01 65.78 30.87 64.36 30.65 62.95C30.6 62.62 30.38 62.19 30.11 62.05C29.9 61.94 29.44 62.12 29.18 62.31C28.01 63.16 26.87 64.07 25.72 64.95C24.86 65.6 24.33 65.56 23.57 64.8C21.92 63.16 20.27 61.53 18.65 59.87C18.27 59.48 17.88 59.33 17.34 59.34C13.59 59.36 9.85 59.36 6.1 59.35C2.45 59.35 0 56.9 0 53.23C0 40.41 0 27.59 0 14.77C0 12 0 9.23 0 6.46C0 2.37 2.36 0 6.42 0C16.79 0 27.16 0 37.53 0ZM59.82 56.82C62.7 56.82 65.7 56.74 68.7 56.85C71 56.93 72.48 55.34 72.47 53.08C72.43 40.41 72.45 27.75 72.45 15.08C72.45 14.8 72.45 14.52 72.45 14.21H2.52V15.13C2.52 27.77 2.52 40.41 2.52 53.05C2.52 53.29 2.52 53.53 2.53 53.76C2.67 55.38 3.9 56.75 5.46 56.78C8.94 56.84 12.42 56.8 15.78 56.8C16.1 56.28 16.34 55.81 16.65 55.4C17.47 54.3 18.32 53.22 19.15 52.13C19.67 51.44 19.45 50.88 18.62 50.77C17.13 50.57 15.64 50.38 14.15 50.18C13.12 50.04 12.77 49.67 12.77 48.63C12.77 45.31 12.77 41.98 12.77 38.66C12.77 37.55 13.14 37.17 14.26 37.04C15.65 36.87 17.03 36.7 18.42 36.52C19.53 36.38 19.74 35.89 19.07 35.01C18.19 33.86 17.3 32.71 16.42 31.56C15.78 30.72 15.81 30.22 16.54 29.48C18.89 27.12 21.24 24.77 23.59 22.43C24.35 21.67 24.85 21.64 25.73 22.31C26.87 23.17 27.97 24.06 29.13 24.9C29.4 25.1 29.89 25.28 30.14 25.17C30.4 25.05 30.59 24.59 30.65 24.25C30.87 22.84 31.01 21.43 31.2 20.02C31.34 19.01 31.73 18.64 32.68 18.64C36.08 18.64 39.49 18.64 42.89 18.64C43.79 18.64 44.18 18.99 44.31 19.89C44.52 21.38 44.7 22.87 44.94 24.35C44.99 24.66 45.2 25.08 45.44 25.17C45.69 25.27 46.13 25.12 46.38 24.93C47.55 24.08 48.69 23.17 49.84 22.29C50.71 21.63 51.2 21.67 51.98 22.44C54.32 24.77 56.65 27.1 58.98 29.44C59.73 30.19 59.76 30.75 59.12 31.59C58.22 32.76 57.31 33.93 56.42 35.1C55.89 35.79 56.09 36.34 56.95 36.46C58.44 36.67 59.93 36.84 61.42 37.03C62.42 37.16 62.82 37.59 62.82 38.59C62.82 41.94 62.82 45.29 62.82 48.64C62.82 49.61 62.43 50.03 61.47 50.16C59.93 50.36 58.39 50.56 56.84 50.77C56.17 50.86 55.92 51.45 56.33 52C57.15 53.1 58.01 54.17 58.83 55.27C59.17 55.73 59.44 56.23 59.81 56.81L59.82 56.82ZM15.36 47.77C15.93 47.84 16.45 47.9 16.98 47.97C17.53 48.04 18.08 48.21 18.62 48.19C20.44 48.13 21.43 48.98 21.96 50.72C22.24 51.65 22.31 52.33 21.66 53.11C20.72 54.23 19.86 55.42 19.08 56.44C21.08 58.47 23 60.42 24.94 62.39C25.75 61.77 26.58 61.13 27.42 60.48C29.77 58.66 29.15 58.96 31.54 59.82C32.55 60.19 33.01 60.75 33.09 61.82C33.2 63.25 33.45 64.68 33.65 66.11H41.96C42.12 64.89 42.35 63.7 42.41 62.5C42.48 61.06 42.92 59.99 44.49 59.7C44.72 59.66 44.93 59.53 45.14 59.42C45.85 59.04 46.47 59.14 47.11 59.65C48.29 60.61 49.52 61.51 50.62 62.35C52.63 60.38 54.6 58.45 56.58 56.51C55.87 55.59 55.22 54.58 54.41 53.72C53.38 52.62 53.03 51.53 53.93 50.2C54.06 50.01 54.1 49.76 54.18 49.54C54.41 48.84 54.86 48.48 55.62 48.4C57.18 48.23 58.73 47.99 60.32 47.78C60.32 46.32 60.32 44.96 60.32 43.59C60.32 42.22 60.32 40.86 60.32 39.47C59.27 39.33 58.3 39.12 57.34 39.1C55.47 39.07 54.16 38.49 53.63 36.47C53.39 35.55 53.35 34.9 53.96 34.16C54.9 33.03 55.76 31.84 56.57 30.79C54.58 28.78 52.65 26.84 50.69 24.87C49.84 25.52 48.88 26.15 48.05 26.92C46.88 28.02 45.69 28.44 44.26 27.46C44.11 27.36 43.92 27.3 43.75 27.26C42.98 27.05 42.67 26.51 42.59 25.75C42.44 24.41 42.24 23.08 42.09 21.75C42.04 21.29 41.85 21.13 41.38 21.14C39.01 21.16 36.63 21.16 34.26 21.14C33.77 21.14 33.62 21.33 33.58 21.78C33.48 22.75 33.27 23.71 33.25 24.69C33.21 26.27 32.67 27.38 30.98 27.67C30.83 27.7 30.68 27.78 30.54 27.85C29.8 28.25 29.16 28.12 28.5 27.59C27.32 26.63 26.09 25.74 24.97 24.89C22.97 26.89 21.04 28.82 19.07 30.79C19.66 31.56 20.23 32.47 20.96 33.22C22.21 34.5 22.53 35.75 21.61 37.44C21.1 38.37 20.6 38.86 19.56 38.95C18.17 39.07 16.8 39.29 15.38 39.48V47.81L15.36 47.77ZM72.36 11.56C72.4 11.46 72.44 11.41 72.44 11.36C72.44 9.75 72.46 8.14 72.46 6.53C72.46 3.73 71.26 2.52 68.48 2.52C47.82 2.52 27.16 2.52 6.5 2.52C6.21 2.52 5.92 2.52 5.63 2.53C4 2.66 2.71 3.75 2.6 5.35C2.47 7.39 2.57 9.45 2.57 11.54H72.37L72.36 11.56Z" fill="#FF6C1A"/>
<path id="Vector_2" d="M24.42 43.58C24.46 36.16 30.5 30.18 37.93 30.23C45.26 30.28 51.21 36.33 51.16 43.68C51.11 51.08 45.12 57.01 37.71 56.98C30.38 56.94 24.39 50.91 24.42 43.58ZM33.72 53.62C33.72 52.87 33.67 52.18 33.73 51.5C33.8 50.68 33.5 50.12 32.85 49.62C32.04 48.99 31.22 48.33 30.62 47.52C29.73 46.34 29.74 41.38 30.61 40.16C31.54 38.85 32.59 37.62 33.62 36.39C34.09 35.82 34.76 35.73 35.43 35.99C36.08 36.23 36.44 36.75 36.45 37.46C36.47 38.88 36.45 40.31 36.47 41.73C36.47 42.04 36.5 42.35 36.52 42.74C37.21 42.74 37.84 42.71 38.47 42.74C39.05 42.78 39.19 42.53 39.18 42C39.16 40.58 39.18 39.15 39.18 37.73C39.18 36.92 39.46 36.28 40.24 35.96C40.95 35.67 41.67 35.91 42.26 36.63C43.1 37.65 43.92 38.68 44.74 39.71C45.32 40.44 45.61 41.26 45.6 42.2C45.59 43.28 45.59 44.36 45.6 45.44C45.62 46.68 45.14 47.69 44.19 48.48C43.62 48.95 43.03 49.39 42.48 49.89C42.24 50.11 41.97 50.42 41.95 50.71C41.88 51.65 41.93 52.59 41.93 53.55C46.08 52.39 49.14 47.16 48.58 42.26C48 37.1 43.54 33.01 38.23 32.77C32.94 32.53 28.24 36.29 27.17 41.61C26.18 46.55 29.06 51.89 33.74 53.61L33.72 53.62ZM33.88 40.18C32.82 41.04 32.43 42 32.56 43.2C32.63 43.88 32.6 44.57 32.56 45.26C32.53 45.9 32.76 46.35 33.27 46.75C36.47 49.26 36.26 49.23 36.25 53.07C36.25 54.45 36.25 54.45 37.67 54.46C39.32 54.47 39.46 54.46 39.29 52.83C39.03 50.22 39.83 48.23 42.12 46.89C42.86 46.45 43.1 45.79 43.04 44.94C42.99 44.23 42.96 43.51 43.04 42.81C43.18 41.65 42.5 40.97 41.74 40.17C41.49 41.65 42.07 43.19 40.93 44.4C39.73 45.66 38.17 45.33 36.75 45.24C33.48 45.03 33.95 42.46 33.89 40.18H33.88Z" fill="#FF6C1A"/>
<path id="Vector_3" d="M61.0701 5.49998C61.5201 5.49998 61.9701 5.47998 62.4101 5.49998C63.1201 5.54998 63.5001 5.97998 63.5901 6.65998C63.6701 7.27998 63.1701 7.92998 62.5001 7.97998C61.5101 8.03998 60.5001 8.04998 59.5101 7.96998C58.8301 7.90998 58.4601 7.39998 58.4401 6.70998C58.4301 6.05998 58.9501 5.56998 59.6501 5.49998C59.7001 5.49998 59.7501 5.49998 59.8101 5.49998C60.2301 5.49998 60.6501 5.49998 61.0701 5.49998C61.0701 5.49998 61.0701 5.49998 61.0701 5.50998V5.49998Z" fill="#FF6C1A"/>
<path id="Vector_4" d="M53.6199 5.49998C54.0699 5.49998 54.5199 5.47998 54.9599 5.49998C55.6699 5.54998 56.0499 5.97998 56.1399 6.65998C56.2199 7.27998 55.7299 7.93998 55.0499 7.97998C54.0599 8.03998 53.0499 8.04998 52.0599 7.97998C51.3799 7.91998 51.0099 7.40998 50.9899 6.71998C50.9799 6.06998 51.4999 5.55998 52.1999 5.50998C52.6699 5.47998 53.1499 5.50998 53.6199 5.50998V5.49998Z" fill="#FF6C1A"/>
<path id="Vector_5" d="M68.1998 5.50001C68.6498 5.50001 69.0998 5.47001 69.5398 5.50001C70.2498 5.55001 70.6598 5.99001 70.6998 6.66001C70.7498 7.35001 70.3598 7.89001 69.6798 7.95001C68.6598 8.04001 67.6298 8.04001 66.6098 7.95001C65.9298 7.90001 65.5598 7.37001 65.5498 6.68001C65.5498 6.03001 66.0698 5.53001 66.7698 5.48001C67.2398 5.45001 67.7198 5.48001 68.1898 5.48001L68.1998 5.50001Z" fill="#FF6C1A"/>
</g>
<defs>
<clipPath id="clip0_1745_251">
<rect width="75" height="68.67" fill="white"/>
</clipPath>
</defs>
</svg>
