<svg width="75" height="75" viewBox="0 0 75 75" fill="none" xmlns="http://www.w3.org/2000/svg">
<g id="Layer_1" clip-path="url(#clip0_1793_64)">
<path id="Vector" d="M61.5002 32.0501C59.0302 32.0501 57.6602 30.6801 57.6502 28.1901V25.1801H47.4702C47.3802 25.1801 47.3002 25.1801 47.2102 25.1801C46.5102 25.1201 46.0902 24.6901 46.1002 24.0601C46.1102 23.4301 46.5502 23.0401 47.2702 23.0401C48.3002 23.0401 49.3202 23.0401 50.3502 23.0401H57.6502V22.9401C57.6502 22.5301 57.6502 22.1301 57.6702 21.7401C57.6902 20.8701 57.7002 20.0501 57.6402 19.2201C57.5302 17.7601 57.8602 16.5801 58.5902 15.7901C59.2702 15.0601 60.3002 14.6701 61.5802 14.6701C61.7702 14.6701 61.9602 14.6701 62.1602 14.6901C62.5102 14.7201 62.8702 14.7301 63.2202 14.7301C63.5202 14.7301 63.8202 14.7301 64.1202 14.7201C64.4202 14.7201 64.7102 14.7101 65.0102 14.7101H65.0902L65.1102 14.6301C65.4402 13.3801 65.2202 12.1301 64.5102 11.2101C63.8002 10.2901 62.6902 9.7801 61.4002 9.7801H25.9502C25.8502 9.7801 25.7602 9.7801 25.6602 9.7801C24.9202 9.7401 24.4802 9.3101 24.5002 8.6501C24.5202 8.0201 24.9502 7.6401 25.6702 7.6301C26.0502 7.6301 26.4302 7.6201 26.8002 7.6201H46.5602C51.4402 7.6301 56.3102 7.6201 61.1902 7.6001C64.5802 7.6001 66.6102 9.7101 67.1402 11.7901C67.2902 12.3801 67.3402 13.0101 67.3902 13.6601C67.4102 13.9701 67.4402 14.2901 67.4802 14.6201V14.7101H67.5802C67.8702 14.7101 68.1702 14.7101 68.4702 14.7201C68.7802 14.7201 69.0902 14.7301 69.4002 14.7301C69.7702 14.7301 70.1502 14.7301 70.5202 14.6901C70.7102 14.6801 70.8902 14.6701 71.0602 14.6701C73.0302 14.6701 74.3102 15.5701 74.9902 17.4201V29.2801C74.0302 31.5101 73.2002 32.0701 70.7402 32.0701H65.2602H61.4902L61.5002 32.0501ZM61.3502 16.8401C60.2702 16.8401 59.8102 17.2901 59.8002 18.3501C59.7902 19.5101 59.8002 20.6701 59.8002 21.8401V24.8601C59.8002 25.9901 59.8002 27.1201 59.8002 28.2401C59.8002 29.4801 60.2202 29.9001 61.4202 29.9001H66.4202C68.0302 29.9001 69.6402 29.9001 71.2502 29.9001C72.4002 29.9001 72.8502 29.4401 72.8502 28.2801C72.8502 25.0101 72.8502 21.7301 72.8502 18.4601C72.8502 17.3101 72.3902 16.8401 71.2602 16.8401H66.4102H61.3602H61.3502Z" fill="#FF6C1A"/>
<path id="Vector_2" d="M61.3498 74.9699C59.1098 74.9699 57.6898 73.5699 57.6498 71.3399C57.6398 70.6099 57.6498 69.8799 57.6498 69.1199V67.9399H56.0998C55.8098 67.9399 55.5198 67.9399 55.2298 67.9399C54.4698 67.9299 54.0198 67.5499 54.0098 66.8899C54.0098 66.2299 54.4498 65.8199 55.1998 65.8099C55.4998 65.8099 55.7998 65.8099 56.0998 65.8099H57.6498V64.4899C57.6498 63.4999 57.6498 62.5299 57.6498 61.5599C57.6498 61.0599 57.6698 60.5699 57.7898 60.1299C58.1798 58.6599 59.4598 57.6899 61.0698 57.6599C61.5698 57.6599 62.0798 57.6499 62.5798 57.6499H65.0798L65.0998 57.5799C65.4198 56.1999 65.1898 54.9199 64.4398 53.9799C63.7098 53.0599 62.5498 52.5499 61.1898 52.5399H46.9298C46.7898 52.5399 46.6598 52.5399 46.5298 52.5099C45.9898 52.4099 45.6998 52.0799 45.6498 51.5499C45.6098 50.9999 45.8498 50.6399 46.3598 50.4699C46.5898 50.3999 46.8498 50.3899 47.0498 50.3899H55.5498C57.4898 50.3899 59.4198 50.3899 61.3598 50.3899C64.3798 50.3899 66.7598 52.3299 67.2698 55.1899C67.3598 55.6799 67.3698 56.1899 67.3798 56.7299C67.3798 56.9899 67.3898 57.2599 67.4098 57.5399V57.6399H69.9698H71.3798C72.7498 57.6399 73.7698 58.1799 74.4498 59.2499C74.5998 59.4899 74.7198 59.7699 74.8298 60.0399C74.8798 60.1699 74.9398 60.2999 74.9898 60.4299V72.2799C74.3898 73.7799 73.5298 74.6199 72.2498 74.8799C71.8998 74.9499 71.5298 74.9599 71.2498 74.9599H65.6298H61.3498V74.9699ZM66.3998 59.7599C64.6998 59.7599 62.9998 59.7599 61.2998 59.7699C60.2498 59.7699 59.7998 60.2199 59.7998 61.2499C59.7898 64.5999 59.7898 67.9399 59.7998 71.2899C59.7998 72.3599 60.2598 72.8099 61.3298 72.8199H66.3098H71.2898C72.3698 72.8199 72.8298 72.3399 72.8298 71.2299C72.8298 70.0999 72.8298 68.9599 72.8298 67.8299V64.7599C72.8298 63.6199 72.8298 62.4799 72.8298 61.3299C72.8298 60.2399 72.3798 59.7699 71.3298 59.7699C69.6798 59.7699 68.0398 59.7599 66.3898 59.7599H66.3998Z" fill="#FF6C1A"/>
<path id="Vector_3" d="M3.80993 17.34C1.40993 17.34 0.0399258 15.96 0.0399258 13.57C0.0399258 12.62 0.0399258 11.67 0.0499258 10.72C0.0599258 8.65 0.0799258 6.5 0.00992578 4.39C-0.0700742 2.09 0.799926 0.7 2.74993 0H14.6099C14.7399 0.1 14.9299 0.19 15.1199 0.29C15.5299 0.5 15.9499 0.71 16.2999 0.99C17.0299 1.6 17.3799 2.48 17.3799 3.68C17.3799 4.55 17.3799 5.43 17.3799 6.34V7.61H18.8999C19.1799 7.61 19.4599 7.61 19.7399 7.61C20.2099 7.61 20.5899 7.75 20.8199 7.99C20.9999 8.18 21.0799 8.42 21.0699 8.71C21.0499 9.35 20.5399 9.76 19.7499 9.77C19.3499 9.77 18.9499 9.78 18.5499 9.78H17.6999C17.6499 9.78 17.6099 9.81 17.5499 9.84L17.3799 9.93V13.38C17.3799 16.01 16.0399 17.34 13.4199 17.34H7.89993H3.80993ZM3.74993 2.16C2.63993 2.16 2.17993 2.62 2.17993 3.72C2.17993 7.02 2.17993 10.32 2.17993 13.63C2.17993 14.75 2.62993 15.2 3.74993 15.21C5.37993 15.21 7.01993 15.21 8.64993 15.21C10.2799 15.21 11.9799 15.21 13.6499 15.21C14.7599 15.21 15.2199 14.75 15.2199 13.63C15.2199 10.33 15.2199 7.03 15.2199 3.73C15.2199 2.62 14.7599 2.16 13.6499 2.16H5.77993H3.74993Z" fill="#FF6C1A"/>
<path id="Vector_4" d="M35.5499 53.22C34.7499 53.22 34.3799 52.9 34.2399 52.11L34.1399 51.58C34.0199 50.94 33.8999 50.3 33.8099 49.66C33.7499 49.19 33.5199 48.98 33.1499 48.79C32.5299 48.47 31.9199 48.11 31.3199 47.75C30.8399 47.46 30.3499 47.18 29.8599 46.91C29.6599 46.8 29.3999 46.74 29.1599 46.74C29.0599 46.74 28.9599 46.75 28.8799 46.78C28.3499 46.93 27.8299 47.13 27.3199 47.32C27.0299 47.43 26.7499 47.53 26.4599 47.63C26.2199 47.71 26.0199 47.75 25.8499 47.75C25.4699 47.75 25.1899 47.55 24.9199 47.08C24.5499 46.45 24.1799 45.81 23.8099 45.17C23.5099 44.64 23.1999 44.12 22.8999 43.59C22.5499 42.99 22.6399 42.48 23.1699 42.02C23.3799 41.84 23.5899 41.67 23.8099 41.49C24.2699 41.11 24.7499 40.72 25.1799 40.3C25.4199 40.07 25.5299 39.66 25.5399 39.37C25.5699 38.11 25.5699 36.85 25.5399 35.64C25.5299 35.32 25.4099 34.88 25.1699 34.65C24.7799 34.27 24.3499 33.91 23.9299 33.57C23.6899 33.37 23.4499 33.18 23.2099 32.97C22.5999 32.44 22.5299 32.05 22.9199 31.35L23.1399 30.96C23.7199 29.93 24.3099 28.87 24.9499 27.87C25.0899 27.64 25.3399 27.47 25.5699 27.29C25.6599 27.22 25.7499 27.16 25.8299 27.09C26.1299 27.2 26.4199 27.3 26.6999 27.39C27.3499 27.61 27.9599 27.82 28.5399 28.08C28.7899 28.19 28.9999 28.24 29.2099 28.24C29.5099 28.24 29.7999 28.13 30.1499 27.88C30.7199 27.48 31.3599 27.13 31.9699 26.8C32.3699 26.58 32.7799 26.36 33.1699 26.12C33.4199 25.97 33.7099 25.67 33.7899 25.35C33.9299 24.79 34.0299 24.21 34.1199 23.65C34.1699 23.37 34.2099 23.1 34.2599 22.83C34.4099 22.04 34.7599 21.74 35.5799 21.74C36.2299 21.74 36.8799 21.74 37.5199 21.74C38.1599 21.74 38.8199 21.74 39.4599 21.74C40.3099 21.74 40.6399 22.04 40.7899 22.9L40.9099 23.6C41.0099 24.21 41.1099 24.82 41.2499 25.43C41.3099 25.71 41.5699 25.98 41.7899 26.11C42.9599 26.82 44.1099 27.48 45.2099 28.08C45.3999 28.18 45.6399 28.24 45.8599 28.24C45.9599 28.24 46.0499 28.23 46.1299 28.2C46.6399 28.04 47.1499 27.85 47.6499 27.66C47.9499 27.55 48.2399 27.44 48.5399 27.33C48.7899 27.24 48.9899 27.2 49.1699 27.2C49.5599 27.2 49.8599 27.41 50.1499 27.91C50.8199 29.05 51.4799 30.19 52.1299 31.34C52.5299 32.05 52.4599 32.42 51.8499 32.96C51.5999 33.18 51.3399 33.4 51.0699 33.61C50.6499 33.96 50.2299 34.31 49.8399 34.68C49.6199 34.89 49.5099 35.28 49.4999 35.55C49.4699 36.85 49.4699 38.15 49.4999 39.42C49.4999 39.69 49.6199 40.08 49.8399 40.29C50.2299 40.66 50.6499 41 51.0699 41.35C51.3099 41.55 51.5599 41.75 51.7999 41.96C52.4499 42.52 52.5299 42.91 52.1299 43.63C51.4799 44.78 50.8199 45.92 50.1499 47.06C49.8599 47.55 49.5699 47.76 49.1699 47.76C48.9899 47.76 48.7799 47.72 48.5399 47.63C48.2399 47.53 47.9399 47.41 47.6399 47.3C47.1399 47.11 46.6299 46.92 46.1199 46.76C46.0399 46.74 45.9599 46.73 45.8599 46.73C45.6399 46.73 45.3899 46.79 45.1999 46.9C44.0799 47.51 42.9299 48.17 41.7799 48.87C41.5699 49 41.3199 49.28 41.2599 49.56C41.1299 50.15 41.0299 50.74 40.9299 51.34L40.7999 52.09C40.6499 52.93 40.2999 53.22 39.4499 53.23C38.7899 53.23 38.1299 53.23 37.4599 53.23C36.7899 53.23 36.1899 53.23 35.5599 53.23L35.5499 53.22ZM29.6499 44.27C30.0099 44.27 30.3399 44.43 30.6899 44.76C31.8499 45.87 33.1199 46.62 34.4899 46.98C35.3099 47.2 35.7099 47.66 35.8099 48.53C35.8799 49.1 35.9899 49.68 36.0999 50.24C36.1499 50.48 36.2599 51.04 36.2599 51.04H38.7699L38.9299 50.17C39.0399 49.57 39.1499 48.97 39.2399 48.37C39.3499 47.63 39.7099 47.21 40.4199 47.02C41.8999 46.62 43.2199 45.85 44.3599 44.74C44.6899 44.42 45.0099 44.27 45.3699 44.27C45.5799 44.27 45.7999 44.32 46.0499 44.42C46.6199 44.66 47.2099 44.86 47.8099 45.06L48.6699 45.36L49.9099 43.16L49.1499 42.51C48.6499 42.08 48.1699 41.67 47.6799 41.27C47.2199 40.89 47.0699 40.45 47.2199 39.88C47.6099 38.3 47.6199 36.7 47.2299 35.11C47.0699 34.47 47.2299 34 47.7499 33.6C48.3499 33.13 48.9399 32.63 49.4899 32.12C49.6399 31.98 49.7999 31.62 49.7099 31.43C49.4899 30.99 49.2399 30.56 48.9799 30.13L48.6599 29.59L47.7799 29.9C47.1799 30.11 46.5999 30.31 46.0299 30.54C45.7999 30.64 45.5899 30.68 45.3899 30.68C45.0399 30.68 44.7299 30.54 44.3999 30.23C43.2299 29.11 41.9299 28.35 40.5399 27.97C39.7299 27.75 39.3399 27.31 39.2399 26.48C39.1699 25.9 39.0599 25.32 38.9399 24.75C38.8899 24.5 38.7799 23.91 38.7799 23.91H36.2599L36.0999 24.8C35.9899 25.4 35.8799 25.99 35.7899 26.58C35.6799 27.32 35.3199 27.74 34.6199 27.93C33.1399 28.34 31.8199 29.1 30.6799 30.2C30.3499 30.52 30.0199 30.68 29.6599 30.68C29.4599 30.68 29.2399 30.63 28.9999 30.53C28.4199 30.29 27.8299 30.09 27.2499 29.88L26.4099 29.58L26.0699 30.17C25.8499 30.55 25.6499 30.9 25.4299 31.24C25.1799 31.62 25.2299 31.89 25.5899 32.17C25.9399 32.44 26.2699 32.72 26.5999 33C26.8599 33.22 27.1299 33.45 27.3999 33.66C27.8599 34.03 28.0099 34.47 27.8599 35.05C27.4599 36.62 27.4599 38.22 27.8399 39.82C27.9899 40.45 27.8399 40.92 27.3199 41.33C26.8399 41.71 26.3699 42.12 25.8799 42.53L25.1399 43.16L26.4099 45.36L27.2999 45.04C27.8999 44.83 28.4699 44.63 29.0299 44.4C29.2599 44.3 29.4699 44.26 29.6699 44.26L29.6499 44.27Z" fill="#FF6C1A"/>
<path id="Vector_5" d="M8.68004 60.29C6.93004 60.29 5.18004 60.28 3.43004 60.25C1.47004 60.22 0.0400391 58.72 0.0400391 56.68C0.0400391 53.3 0.0400391 49.93 0.0400391 46.55C0.0400391 44.39 1.44004 42.96 3.60004 42.92C3.99004 42.92 4.37004 42.92 4.76004 42.92H6.75004C6.91004 42.92 7.06004 42.92 7.24004 42.9L7.64004 42.88V38.69C7.64004 36.2 7.62004 33.72 7.64004 31.23C7.68004 27.07 10.47 23.81 14.58 23.12C15.01 23.05 15.45 23.04 15.88 23.04H28.24C28.3 23.04 28.36 23.04 28.41 23.04C29.05 23.08 29.45 23.45 29.49 24.02C29.53 24.63 29.13 25.09 28.5 25.17C28.34 25.19 28.18 25.19 28.02 25.19H27.49H20.41C18.93 25.19 17.45 25.19 15.97 25.19C12.28 25.19 9.80004 27.68 9.79004 31.38C9.79004 33.84 9.79004 36.31 9.79004 38.77V42.93H9.89004C10.25 42.93 10.61 42.93 10.97 42.94C11.32 42.94 11.66 42.95 12 42.95C12.42 42.95 12.83 42.95 13.25 42.91C13.37 42.91 13.48 42.9 13.6 42.9C14.76 42.9 15.77 43.3 16.45 44.02C17.15 44.77 17.48 45.83 17.4 47.08C17.35 47.78 17.37 48.48 17.38 49.21C17.38 49.56 17.39 49.91 17.39 50.27V50.37H27.44C27.53 50.37 27.61 50.37 27.69 50.37C28.33 50.43 28.76 50.88 28.75 51.46C28.74 52.06 28.29 52.49 27.66 52.5C26.93 52.51 26.2 52.51 25.47 52.51H17.45L17.42 52.89C17.4 53.08 17.39 53.25 17.39 53.43C17.39 53.83 17.39 54.23 17.39 54.63C17.39 55.38 17.39 56.13 17.37 56.87C17.29 58.82 15.9 60.21 14 60.23C12.23 60.25 10.46 60.27 8.69004 60.27L8.68004 60.29ZM3.72004 45.08C2.63004 45.08 2.18004 45.55 2.18004 46.68C2.18004 47.81 2.18004 48.95 2.18004 50.08V53.15C2.18004 54.29 2.18004 55.44 2.18004 56.58C2.18004 57.64 2.66004 58.12 3.71004 58.12C5.37004 58.12 7.04004 58.12 8.70004 58.12C10.36 58.12 12.03 58.12 13.69 58.12C14.75 58.12 15.22 57.64 15.23 56.59C15.24 53.27 15.24 49.94 15.23 46.62C15.23 45.55 14.77 45.09 13.7 45.08C12.04 45.08 10.38 45.08 8.71004 45.08C7.04004 45.08 5.38004 45.08 3.72004 45.08Z" fill="#FF6C1A"/>
<path id="Vector_6" d="M39.22 72.5999C38.96 72.5999 38.69 72.4999 38.42 72.2999C37.38 71.5499 36.35 70.7899 35.32 70.0299L33.81 68.9099C33.81 68.9099 32.58 68.0199 32.33 67.8299C31.96 67.5499 31.75 67.2099 31.75 66.8599C31.75 66.5199 31.95 66.1899 32.3 65.9299C34.29 64.4599 36.28 63.0099 38.27 61.5499C38.61 61.2999 38.95 61.1699 39.25 61.1699C39.55 61.1699 39.81 61.2999 40.01 61.5699C40.18 61.7999 40.25 62.0499 40.22 62.2999C40.17 62.6399 39.93 62.9799 39.51 63.2899C38.85 63.7899 38.18 64.2799 37.51 64.7699L36.51 65.4999L36.55 65.6399L36.67 65.7999C36.67 65.7999 47.25 65.7999 49.35 65.7999C49.65 65.7999 49.93 65.7999 50.18 65.8899C50.69 66.0599 50.94 66.4399 50.89 66.9699C50.84 67.4999 50.53 67.8299 50 67.9199C49.89 67.9399 49.77 67.9399 49.65 67.9399H49.28H36.61L36.46 68.1999L38.94 70.0399C39.18 70.2199 39.42 70.3899 39.66 70.5799C40.25 71.0399 40.39 71.6499 40.02 72.1599C39.81 72.4499 39.53 72.5999 39.22 72.5999Z" fill="#FF6C1A"/>
<path id="Vector_7" d="M66.1901 27.05C65.9901 27.05 65.7601 26.98 65.5501 26.85C64.6701 26.33 63.7501 25.75 62.8301 25.13C62.2901 24.77 62.1601 24.19 62.4801 23.67C62.6701 23.35 62.9901 23.17 63.3601 23.17C63.5801 23.17 63.8101 23.24 64.0201 23.36C64.3901 23.58 64.7501 23.81 65.1401 24.06L65.7801 24.48L68.1101 20.62C68.2001 20.48 68.2801 20.33 68.3801 20.2C68.6201 19.89 68.9301 19.72 69.2601 19.72C69.4501 19.72 69.6301 19.77 69.8101 19.88C70.2501 20.14 70.5201 20.73 70.2001 21.27C69.0801 23.18 68.0301 24.92 66.9701 26.59C66.7801 26.89 66.5101 27.05 66.2001 27.05H66.1901Z" fill="#FF6C1A"/>
<path id="Vector_8" d="M66.1798 69.9601C65.9398 69.9601 65.6698 69.8601 65.3298 69.6501C64.5198 69.1501 63.7298 68.6301 62.9298 68.1001C62.2998 67.6801 62.1298 67.1001 62.4798 66.5501C62.6798 66.2301 62.9698 66.0701 63.3098 66.0701C63.5498 66.0701 63.8098 66.1501 64.0798 66.3101C64.4298 66.5201 64.7798 66.7401 65.1498 66.9701L65.7798 67.3601C65.7798 67.3601 67.6498 64.2701 68.1998 63.3701C68.4998 62.8901 68.8698 62.6201 69.2598 62.6201C69.4498 62.6201 69.6298 62.6801 69.8198 62.8001C70.3798 63.1601 70.4598 63.7501 70.0398 64.4601C69.0798 66.0501 68.1298 67.6401 67.1498 69.2101C66.8298 69.7201 66.5298 69.9501 66.1798 69.9501V69.9601Z" fill="#FF6C1A"/>
<path id="Vector_9" d="M8.5399 12.34C8.3299 12.34 8.0999 12.27 7.8799 12.14C6.9899 11.6 6.0999 11.03 5.2299 10.44C4.6899 10.07 4.5399 9.50002 4.8499 8.98002C5.0499 8.65002 5.3599 8.47002 5.7199 8.47002C5.9299 8.47002 6.1499 8.53002 6.3699 8.66002C6.7399 8.88002 7.0999 9.11002 7.4899 9.36002L8.1399 9.78002L8.9499 8.44002C9.5199 7.49002 10.0799 6.56002 10.6599 5.64002C10.9099 5.24002 11.2599 5.02002 11.6399 5.02002C11.8999 5.02002 12.1499 5.13002 12.3599 5.34002C12.7599 5.74002 12.8199 6.20002 12.5199 6.69002C11.4899 8.41002 10.4599 10.12 9.3999 11.82C9.1799 12.17 8.8799 12.35 8.5399 12.35V12.34Z" fill="#FF6C1A"/>
<path id="Vector_10" d="M37.4699 44.4001C33.6599 44.3701 30.5799 41.2601 30.5899 37.4701C30.6099 33.6701 33.7099 30.5801 37.4999 30.5801C41.2899 30.5801 44.3999 33.6701 44.4099 37.4701C44.4099 39.3001 43.6999 41.0401 42.3799 42.3601C41.0699 43.6801 39.3399 44.4101 37.5199 44.4101H37.4599L37.4699 44.4001ZM37.4899 32.7201C34.8999 32.7301 32.7699 34.8501 32.7399 37.4501C32.7299 38.7101 33.2099 39.9001 34.1099 40.8201C35.0199 41.7401 36.2099 42.2501 37.4799 42.2601C40.0899 42.2601 42.2699 40.0801 42.2699 37.4901C42.2699 36.2301 41.7699 35.0401 40.8599 34.1301C39.9499 33.2201 38.7599 32.7201 37.4999 32.7201H37.4799H37.4899Z" fill="#FF6C1A"/>
<path id="Vector_11" d="M8.54981 55.2599C8.30981 55.2599 8.03981 55.1599 7.72981 54.9699C6.91981 54.4699 6.12981 53.9499 5.33981 53.4199C4.69981 52.9899 4.51981 52.4199 4.85981 51.8699C5.05981 51.5499 5.34981 51.3799 5.69981 51.3799C5.93981 51.3799 6.19981 51.4599 6.45981 51.6199C6.81981 51.8299 7.16981 52.0599 7.54981 52.2999L8.15981 52.6799L10.4198 48.9399C10.5198 48.7699 10.6198 48.5999 10.7398 48.4399C10.9798 48.1099 11.3098 47.9199 11.6598 47.9199C11.8498 47.9199 12.0298 47.9699 12.2098 48.0799C12.7098 48.3899 12.8598 49.0099 12.5498 49.5499C12.2598 50.0699 11.9498 50.5799 11.6398 51.0899L10.8198 52.4399C10.3898 53.1499 9.95981 53.8599 9.51981 54.5699C9.22981 55.0399 8.91981 55.2599 8.55981 55.2599H8.54981Z" fill="#FF6C1A"/>
</g>
<defs>
<clipPath id="clip0_1793_64">
<rect width="75" height="74.97" fill="white"/>
</clipPath>
</defs>
</svg>
