<svg width="75" height="75" viewBox="0 0 75 75" fill="none" xmlns="http://www.w3.org/2000/svg">
<g id="Layer_1" clip-path="url(#clip0_1745_225)">
<path id="Vector" d="M70.01 74.95H4.98C4.16 74.6 3.29 74.34 2.54 73.89C1.09 73.01 0.41 71.56 0 69.98V66.03C0.77 63.81 2.42 63 4.69 63.26V62.27C4.69 48.63 4.69 34.99 4.69 21.35C4.69 18.38 6.67 16.4 9.65 16.4C11.58 16.4 13.51 16.38 15.43 16.41C15.88 16.41 16.12 16.27 16.36 15.9C17.65 13.88 19.45 12.48 21.78 11.95C22.86 11.71 23.18 11.27 23.39 10.22C24.56 4.42 29.23 0.470005 35.23 0.0300049C40.62 -0.359995 45.88 3.15 47.82 8.47001C47.98 8.90001 48.15 9.06001 48.62 9.10001C51.95 9.37001 54.42 11.6 55.08 14.89C55.11 15.05 55.14 15.3 55.24 15.36C55.99 15.72 56.75 16.3 57.53 16.34C60.04 16.46 62.56 16.38 65.07 16.38C68.4 16.38 70.29 18.26 70.29 21.59C70.29 35.16 70.29 48.72 70.29 62.29C70.29 62.6 70.29 62.9 70.29 63.23C70.72 63.23 71.03 63.23 71.35 63.23C73.46 63.25 74.95 64.73 74.97 66.82C74.98 67.63 75 68.43 74.97 69.24C74.85 71.58 73.74 73.31 71.64 74.36C71.13 74.62 70.55 74.76 70 74.95H70.01ZM19.92 43.32C19.92 44.89 19.9 46.35 19.94 47.82C19.94 48.03 20.19 48.3 20.4 48.43C21.86 49.28 22.55 50.83 22.14 52.41C21.73 53.97 20.37 55.04 18.77 55.05C17.14 55.05 15.76 53.98 15.35 52.39C14.95 50.81 15.63 49.24 17.13 48.45C17.5 48.26 17.59 48.04 17.58 47.66C17.56 45.98 17.58 44.29 17.58 42.61C17.58 41.36 17.94 41 19.19 41C22.68 41 26.17 41 29.66 41H30.43V30.46C28.52 30.46 26.65 30.46 24.78 30.46C20.17 30.46 16.87 28.17 15.26 23.87C15.2 23.7 15.01 23.46 14.88 23.45C13.84 23.42 12.8 23.43 11.78 23.43V58.53H63.23V23.46H60.16C60.12 23.58 60.1 23.65 60.08 23.72C59.52 27.24 57.02 29.87 53.49 30.29C51.49 30.53 49.45 30.4 47.42 30.42C46.48 30.43 45.53 30.42 44.57 30.42V40.96H45.41C48.88 40.96 52.34 40.96 55.81 40.96C57.05 40.96 57.41 41.33 57.41 42.58C57.41 44.26 57.42 45.95 57.41 47.63C57.41 48.02 57.51 48.23 57.87 48.42C59.02 49.01 59.65 50 59.75 51.28C59.88 53.04 58.69 54.58 56.94 54.96C55.31 55.32 53.61 54.38 52.98 52.79C52.33 51.15 52.99 49.33 54.54 48.44C54.75 48.32 55.05 48.11 55.05 47.94C55.09 46.41 55.07 44.88 55.07 43.31H54.19C50.7 43.31 47.21 43.31 43.72 43.31C42.58 43.31 42.19 42.92 42.19 41.77C42.19 38.26 42.19 34.74 42.19 31.23C42.19 30.97 42.19 30.72 42.19 30.47H38.7C38.69 30.62 38.67 30.74 38.67 30.86C38.67 36.47 38.67 42.09 38.65 47.7C38.65 48.18 38.9 48.3 39.23 48.49C40.63 49.28 41.3 50.89 40.88 52.43C40.46 53.98 39.09 55.04 37.49 55.04C35.89 55.04 34.52 53.98 34.11 52.42C33.7 50.88 34.36 49.25 35.78 48.49C36.22 48.26 36.34 48.01 36.34 47.54C36.32 42.07 36.33 36.61 36.33 31.14C36.33 30.93 36.33 30.71 36.33 30.48H32.81C32.81 30.79 32.81 31.05 32.81 31.32C32.81 34.83 32.81 38.35 32.81 41.86C32.81 42.91 32.4 43.32 31.34 43.32C28.19 43.32 25.04 43.32 21.89 43.32C21.26 43.32 20.63 43.32 19.92 43.32ZM38.29 28.09C43 28.09 47.71 28.11 52.42 28.09C55.16 28.08 57.28 26.26 57.7 23.64C58.16 20.76 56.77 18.4 54.08 17.5C53.03 17.15 52.91 16.99 52.85 15.89C52.73 13.26 50.48 11.22 47.94 11.43C46.4 11.56 46.26 11.46 45.86 9.99C44.53 5.14 39.76 1.82 34.91 2.36C29.58 2.96 25.67 7.07001 25.45 12.31C25.4 13.53 25.1 13.83 23.86 13.9C19.74 14.13 16.65 17.88 17.24 21.94C17.76 25.5 20.63 28.06 24.23 28.08C28.92 28.11 33.6 28.08 38.29 28.08V28.09ZM37.47 72.61C37.69 72.61 37.91 72.61 38.13 72.61C48.38 72.61 58.63 72.61 68.88 72.61C71.17 72.61 72.64 71.15 72.65 68.87C72.65 68.21 72.66 67.55 72.65 66.89C72.63 66.03 72.2 65.58 71.33 65.58C64.33 65.58 57.32 65.58 50.32 65.59C50.07 65.59 49.74 65.8 49.59 66.01C49.04 66.75 48.54 67.53 48.03 68.31C47.67 68.87 47.19 69.1 46.5 69.09C42.18 69.07 37.86 69.09 33.54 69.09C31.88 69.09 30.22 69.06 28.56 69.06C27.83 69.06 27.26 68.87 26.88 68.16C26.49 67.43 25.95 66.79 25.52 66.08C25.28 65.67 24.99 65.55 24.52 65.55C20.23 65.57 15.93 65.56 11.64 65.56C9.1 65.56 6.56 65.56 4.03 65.56C2.72 65.56 2.37 65.91 2.36 67.19C2.36 67.65 2.36 68.12 2.36 68.58C2.36 71.22 3.73 72.59 6.37 72.59C16.74 72.59 27.11 72.59 37.48 72.59L37.47 72.61ZM59.15 18.72C59.4 19.35 59.69 19.87 59.79 20.43C59.91 21.02 60.22 21.08 60.71 21.07C61.83 21.04 62.96 21.06 64.08 21.07C65.22 21.07 65.61 21.46 65.61 22.62C65.61 34.87 65.61 47.12 65.61 59.37C65.61 60.51 65.22 60.9 64.07 60.9C46.35 60.9 28.63 60.9 10.91 60.9C9.76 60.9 9.38 60.51 9.38 59.36C9.38 47.11 9.38 34.86 9.38 22.61C9.38 21.46 9.77 21.08 10.92 21.07C12.21 21.07 13.5 21.07 14.77 21.07C14.87 20.25 14.96 19.51 15.06 18.73C13.29 18.73 11.56 18.73 9.83 18.73C7.92 18.73 7.05 19.6 7.05 21.49C7.05 35.13 7.05 48.77 7.05 62.41C7.05 62.67 7.05 62.93 7.05 63.19H67.98C67.98 62.9 67.98 62.66 67.98 62.42C67.98 48.78 67.98 35.14 67.98 21.5C67.98 21.33 67.98 21.16 67.98 20.99C67.91 19.75 66.96 18.76 65.71 18.75C63.56 18.72 61.42 18.75 59.18 18.75L59.15 18.72ZM28.08 65.59C28.37 66.48 28.87 66.78 29.78 66.77C34.97 66.72 40.17 66.74 45.36 66.74C46.38 66.74 46.54 66.61 46.86 65.59H28.09H28.08ZM18.73 50.35C18.09 50.35 17.57 50.89 17.58 51.53C17.58 52.17 18.12 52.69 18.76 52.68C19.39 52.68 19.92 52.13 19.91 51.5C19.91 50.86 19.37 50.34 18.73 50.35ZM37.5 50.35C36.86 50.35 36.33 50.87 36.32 51.5C36.32 52.14 36.84 52.67 37.47 52.68C38.1 52.68 38.64 52.16 38.65 51.52C38.65 50.88 38.13 50.35 37.49 50.34L37.5 50.35ZM56.18 52.68C56.81 52.71 57.37 52.2 57.4 51.57C57.43 50.94 56.92 50.38 56.29 50.35C55.66 50.32 55.1 50.82 55.07 51.46C55.04 52.09 55.55 52.65 56.18 52.68Z" fill="#FF6C1A"/>
</g>
<defs>
<clipPath id="clip0_1745_225">
<rect width="75" height="74.95" fill="white"/>
</clipPath>
</defs>
</svg>
