<svg width="75" height="70" viewBox="0 0 75 70" fill="none" xmlns="http://www.w3.org/2000/svg">
<g id="Layer_1" clip-path="url(#clip0_1745_205)">
<path id="Vector" d="M75.0001 59.62C74.5601 60.94 73.6001 61.54 72.2601 61.68C71.5601 61.76 70.8801 61.92 70.0601 62.07C70.48 62.99 70.8701 63.84 71.2601 64.69C71.8001 65.86 71.7601 67.02 71.0701 68.11C69.6301 70.39 66.3001 70.23 65.0401 67.83C64.5701 66.93 64.1701 65.99 63.7001 65.01C62.96 65.62 62.28 66.17 61.62 66.74C60.76 67.47 59.8 67.69 58.7701 67.2C57.7601 66.72 57.35 65.86 57.37 64.75C57.39 63.36 57.37 61.97 57.37 60.46C56.99 60.46 56.6601 60.46 56.3301 60.46C39.9201 60.46 23.5201 60.46 7.11005 60.46C4.19005 60.46 1.90005 59.34 0.65005 56.65C0.19005 55.67 4.99133e-05 54.49 4.99133e-05 53.4C-0.00995009 37.96 4.99133e-05 22.5 4.99133e-05 7.05C4.99133e-05 6.61 4.99152e-05 6.17 0.0600499 5.74C0.60005 2.3 3.27005 0 6.77005 0C16.3801 0 26 0 35.62 0C44.97 0 54.32 0 63.67 0C66.91 0 69.5101 2.02 70.2301 5.1C70.3901 5.78 70.4201 6.5 70.4301 7.21C70.4401 22.59 70.4401 37.97 70.4301 53.35C70.4301 53.89 70.5701 54.25 71.0001 54.58C71.8101 55.2 72.6101 55.86 73.3501 56.56C73.9501 57.14 74.4601 57.81 75.0101 58.44V59.61L75.0001 59.62ZM67.9501 11.15H2.45005C2.44005 11.39 2.41005 11.6 2.41005 11.82C2.41005 25.73 2.41005 39.65 2.41005 53.56C2.41005 56.32 4.16005 58.02 6.91005 58.02C23.46 58.02 40.0101 58.02 56.5601 58.02H57.39C57.39 57.65 57.39 57.39 57.39 57.13C57.39 54.27 57.39 51.42 57.39 48.56C57.39 47.48 57.84 46.66 58.82 46.21C59.7901 45.76 60.72 45.92 61.55 46.62C62.05 47.04 62.5601 47.47 63.0601 47.89C64.66 49.24 66.26 50.58 67.9501 52V11.15ZM2.50005 8.62H67.9201C67.9201 7.63 68.0601 6.66 67.8901 5.74C67.5101 3.6 65.76 2.41 63.23 2.41C44.5601 2.41 25.89 2.41 7.22005 2.41C6.78005 2.41 6.34005 2.43 5.91005 2.49C4.25005 2.72 2.74005 4.13 2.53005 5.79C2.41005 6.7 2.51005 7.63 2.51005 8.62H2.50005ZM72.6701 59.14C68.3501 55.5 64.2001 52 59.89 48.36V64.92C61.0401 64.01 62.12 63.14 63.21 62.29C64.1301 61.57 64.87 61.74 65.3801 62.8C65.9601 64.01 66.5101 65.23 67.0801 66.44C67.4401 67.21 68.0401 67.49 68.6401 67.19C69.2101 66.9 69.3501 66.31 69.0001 65.54C68.4401 64.32 67.87 63.11 67.3101 61.89C66.8201 60.8 67.2101 60.11 68.3901 59.9C69.7501 59.66 71.1101 59.41 72.6601 59.13L72.6701 59.14Z" fill="#FF6C1A"/>
<path id="Vector_2" d="M28.0599 41C28.2099 41.6 28.3199 42.07 28.4499 42.53C28.6399 43.2 29.0799 43.53 29.7999 43.53C31.5799 43.52 33.3599 43.53 35.1399 43.53C39.6099 43.53 44.0699 43.53 48.5399 43.53C48.8099 43.53 49.0899 43.53 49.3399 43.59C49.9199 43.75 50.2499 44.16 50.2399 44.77C50.2299 45.35 49.9199 45.74 49.3599 45.89C49.0799 45.96 48.7799 45.97 48.4899 45.97C42.3599 45.97 36.2399 45.97 30.1099 45.97C27.8499 45.97 26.6299 45.03 26.0399 42.85C24.1999 35.98 22.3599 29.11 20.5199 22.24C20.2399 21.19 20.1699 21.14 19.0599 21.13C18.6499 21.13 18.2299 21.15 17.8199 21.12C17.1399 21.07 16.6899 20.56 16.6999 19.92C16.7099 19.3 17.1499 18.79 17.7899 18.77C18.5699 18.74 19.3599 18.69 20.1299 18.79C21.3999 18.95 22.2599 19.72 22.6599 20.93C22.8699 21.55 23.0499 22.19 23.1599 22.84C23.2799 23.54 23.5899 23.75 24.3199 23.75C33.1099 23.72 41.8899 23.73 50.6799 23.73C52.3199 23.73 53.4699 24.63 53.6799 26.14C53.7499 26.6 53.6599 27.12 53.5399 27.58C52.6999 30.79 51.8499 33.99 50.9899 37.19C50.3299 39.63 48.5399 41.01 46.0199 41.01C40.3599 41.01 34.6999 41.01 29.0399 41.01H28.0599V41ZM39.0099 26.16V31.15C40.3899 31.15 41.7299 31.15 43.0599 31.14C43.1899 31.14 43.4199 30.94 43.4399 30.81C43.6699 29.28 43.8599 27.74 44.0699 26.16H39.0099ZM36.4799 31.12V26.18H31.4299C31.6599 27.87 31.8799 29.49 32.0999 31.12H36.4799ZM28.9899 26.19H24.0999C24.5299 27.8 24.9299 29.32 25.3599 30.83C25.3999 30.96 25.6199 31.13 25.7699 31.13C27.0299 31.15 28.2899 31.14 29.6599 31.14C29.4299 29.43 29.2099 27.8 28.9899 26.18V26.19ZM45.8599 31.15C47.2099 31.15 48.4499 31.16 49.6899 31.13C49.8699 31.13 50.1499 30.93 50.1899 30.76C50.5699 29.45 50.9099 28.13 51.2599 26.82C51.3799 26.36 51.1999 26.12 50.7099 26.12C49.4699 26.12 48.2199 26.11 46.9799 26.14C46.8099 26.14 46.5099 26.35 46.4899 26.5C46.2599 28.01 46.0699 29.53 45.8599 31.15ZM39.0299 33.59V38.53C39.1599 38.55 39.2399 38.56 39.3099 38.56C39.9399 38.56 40.5799 38.56 41.2099 38.56C42.3899 38.56 42.3999 38.56 42.5699 37.41C42.7499 36.15 42.9099 34.88 43.0699 33.59H39.0299ZM32.4399 33.59C32.6699 35.27 32.8899 36.89 33.1099 38.51H36.4899V33.59H32.4399ZM26.0799 33.58C26.4999 35.14 26.8899 36.67 27.3199 38.18C27.3599 38.33 27.5499 38.53 27.6799 38.53C28.6399 38.56 29.6099 38.55 30.6599 38.55C30.4299 36.84 30.2099 35.22 29.9799 33.58H26.0699H26.0799ZM44.8499 38.56C45.3099 38.56 45.7199 38.56 46.1199 38.56C47.0699 38.57 47.9399 38.24 48.2999 37.37C48.7999 36.18 49.0899 34.89 49.4799 33.6H45.5199C45.2999 35.25 45.0799 36.85 44.8499 38.56Z" fill="#FF6C1A"/>
<path id="Vector_3" d="M30.4302 49.56C30.4202 47.95 31.6702 46.68 33.2802 46.67C34.8702 46.67 36.1702 47.96 36.1602 49.54C36.1602 51.08 34.8802 52.37 33.3302 52.41C31.7602 52.44 30.4402 51.15 30.4302 49.56ZM33.9002 49.53C33.6102 49.32 33.4402 49.1 33.3002 49.12C33.1402 49.14 33.0002 49.36 32.8502 49.49C32.9902 49.63 33.1202 49.84 33.2802 49.87C33.4202 49.89 33.6002 49.71 33.9102 49.53H33.9002Z" fill="#FF6C1A"/>
<path id="Vector_4" d="M44.08 46.68C45.67 46.68 46.98 47.96 46.97 49.54C46.97 51.11 45.64 52.43 44.08 52.42C42.54 52.41 41.25 51.13 41.23 49.58C41.2 48 42.49 46.69 44.09 46.68H44.08ZM44.12 50.06C44.3 49.81 44.52 49.63 44.5 49.5C44.47 49.35 44.23 49.13 44.08 49.13C43.94 49.13 43.71 49.38 43.69 49.53C43.68 49.66 43.91 49.82 44.12 50.06Z" fill="#FF6C1A"/>
<path id="Vector_5" d="M13.1601 4.41C15.1601 4.41 17.1601 4.37 19.1601 4.44C19.5701 4.45 20.0701 4.76 20.3301 5.09C20.5001 5.3 20.4401 5.9 20.2601 6.14C20.0501 6.42 19.5801 6.66 19.2201 6.66C15.1701 6.7 11.1301 6.69 7.08014 6.68C6.26014 6.68 5.77014 6.19 5.79014 5.5C5.82014 4.85 6.31014 4.41 7.09014 4.41C9.11014 4.4 11.1401 4.41 13.1601 4.41Z" fill="#FF6C1A"/>
<path id="Vector_6" d="M59.64 5.52C59.65 6.2 59.14 6.74 58.47 6.75C57.79 6.75 57.27 6.24 57.27 5.55C57.27 4.89 57.75 4.39 58.41 4.37C59.1 4.35 59.64 4.84 59.65 5.53L59.64 5.52Z" fill="#FF6C1A"/>
<path id="Vector_7" d="M54.6501 5.55C54.6501 6.23 54.1201 6.75 53.4401 6.74C52.7601 6.74 52.2501 6.2 52.2701 5.51C52.2901 4.85 52.7801 4.37 53.4401 4.36C54.1301 4.36 54.6501 4.86 54.6501 5.55Z" fill="#FF6C1A"/>
<path id="Vector_8" d="M63.4402 6.75C62.7602 6.75 62.2402 6.22 62.2402 5.54C62.2402 4.86 62.7702 4.35 63.4602 4.36C64.1202 4.37 64.6102 4.87 64.6202 5.52C64.6302 6.21 64.1202 6.73 63.4402 6.74V6.75Z" fill="#FF6C1A"/>
</g>
<defs>
<clipPath id="clip0_1745_205">
<rect width="75" height="69.74" fill="white"/>
</clipPath>
</defs>
</svg>
