<svg id="aws-dynamodb" xmlns="http://www.w3.org/2000/svg" width="89.568" height="100.939" viewBox="0 0 89.568 100.939">
    <defs>
        <style>
            .cls-3{fill:#2d72b8}
        </style>
    </defs>
    <path id="Path_1332" data-name="Path 1332" d="M165.23 100.939h1.227l20.034-10.018.333-.471V10.484l-.333-.474L166.457 0h-1.242l.015 100.939" transform="translate(-107.41)" style="fill:#5294cf"/>
    <path id="Path_1333" data-name="Path 1333" d="M50.1 100.939h-1.249L28.834 90.921l-.406-.7-.206-79.331.612-.881L48.851 0h1.26L50.1 100.939" transform="translate(-18.348)" style="fill:#1f5b98"/>
    <path id="Path_1334" data-name="Path 1334" class="cls-3" d="M87.285 0h28.489v100.939H87.285z" transform="translate(-56.746)"/>
    <path id="Path_1335" data-name="Path 1335" d="m89.568 66.8-.677-.15-9.666-.9-.143.071-20.052-.8H30.539l-20.052.8v-15.29l-.021.011.021-.045 20.052-4.646h28.49L79.081 50.5l7.372 3.918V51.9l3.115-.341-.323-.629-9.864-7.053-.3.1-20.052-6.219h-28.49l-20.053 6.213V28.61L0 40.9v10.724l.081-.059 3.034.331v2.571L0 56.135V66.81l.081-.01 3.034.045v4.481L.5 71.367l-.5-.048V82l3.115 1.675v2.6L.131 86.6 0 86.507v10.727l10.486 12.287v-15.36l20.052 6.213h28.49l20.112-6.231.267.117 9.734-6.949.426-.692-3.115-.344v-2.548l-.408-.163-6.663 3.591-.241.5-20.111 4.623v.006h-28.49v-.006l-20.053-4.639V72.292l20.052.8v.02h28.49l20.052-.819.457.21 9.369-.807.661-.323-3.115-.045v-4.481l3.115-.045" transform="translate(0 -18.6)" style="fill:#1a476f"/>
    <path id="Path_1336" data-name="Path 1336" class="cls-3" d="M226.027 94.161v15.36l10.487-12.287V86.577l-10.426 7.566-.061.018m0-6.488.061-.014 10.426-5.608V71.328l-10.487.965v15.38m.061-37.161-.061-.014v15.324l10.487.98V56.084l-10.426-5.572m0-6.48 10.426 7.524V40.9l-10.487-12.29v15.361l.061.021v.039" transform="translate(-146.946 -18.6)"/>
</svg>
