<svg xmlns="http://www.w3.org/2000/svg" width="91.861" height="100.394" viewBox="0 0 91.861 100.394">
    <path data-name="Path 1252" d="M147.128 115.5H120.9c.126.627.376 1.255.5 1.757a46.126 46.126 0 0 1 1.631 9.412c.125 1.255.125 2.635.125 3.89s0 2.635-.125 3.89a46.125 46.125 0 0 1-1.631 9.412c-.125.627-.376 1.255-.5 1.757h26.228a15.06 15.06 0 0 0 0-30.118z" transform="translate(-78.107 -80.362)" style="fill:#00a9e5"/>
    <path data-name="Path 1253" d="M131.727 134.449c.125-1.255.125-2.635.125-3.89s0-2.635-.125-3.89a46.125 46.125 0 0 0-1.631-9.412c-.125-.627-.376-1.255-.5-1.757H89.059a51.326 51.326 0 0 0 0 30.118h40.534c.126-.627.376-1.255.5-1.757a46.126 46.126 0 0 0 1.634-9.412z" transform="translate(-86.8 -80.362)" style="fill:#353535"/>
    <path data-name="Path 1254" d="M155.776 143.5h-32.629a51.586 51.586 0 0 1-3.388 6.4 48.714 48.714 0 0 1-6.651 8.534c-.878.878-1.757 1.631-2.635 2.51a49.934 49.934 0 0 1-5.773 4.392 49.663 49.663 0 0 0 27.608 8.283 50.3 50.3 0 0 0 41.792-22.338 25.594 25.594 0 0 0-18.322-7.781z" transform="translate(-82.237 -73.224)" style="fill:#00bfb3"/>
    <path data-name="Path 1255" d="M123.481 149.9a51.584 51.584 0 0 0 3.388-6.4H90.1a49.62 49.62 0 0 0 18.447 21.836 63.655 63.655 0 0 0 5.773-4.392c.878-.753 1.757-1.631 2.635-2.51a49.462 49.462 0 0 0 6.526-8.534z" transform="translate(-85.959 -73.224)" style="fill:#019b8f"/>
    <path data-name="Path 1256" d="M116.856 101c-.878-.878-1.757-1.631-2.635-2.51a49.929 49.929 0 0 0-5.773-4.392A51.3 51.3 0 0 0 90 115.936h36.77a51.586 51.586 0 0 0-3.388-6.4 39.467 39.467 0 0 0-6.526-8.536z" transform="translate(-85.984 -85.817)" style="fill:#f9b110"/>
    <path data-name="Path 1257" d="M132.309 87.5a49.663 49.663 0 0 0-27.609 8.283 63.656 63.656 0 0 1 5.773 4.392c.878.753 1.757 1.631 2.635 2.51a48.714 48.714 0 0 1 6.651 8.534 51.585 51.585 0 0 1 3.388 6.4h32.628a25.594 25.594 0 0 0 18.322-7.781A50.3 50.3 0 0 0 132.309 87.5z" transform="translate(-82.237 -87.5)" style="fill:#fed10a"/>
</svg>
