<svg xmlns="http://www.w3.org/2000/svg" width="73.235" height="100.697" viewBox="0 0 73.235 100.697">
    <defs>
        <linearGradient id="b" x1=".537" y1=".247" x2=".462" y2=".269" gradientUnits="objectBoundingBox">
            <stop offset="0" stop-color="#a52714"/>
            <stop offset=".4" stop-color="#a52714" stop-opacity=".502"/>
            <stop offset=".8" stop-color="#a52714" stop-opacity="0"/>
        </linearGradient>
        <linearGradient id="c" x1=".474" y1=".308" x2=".455" y2=".326" gradientUnits="objectBoundingBox">
            <stop offset="0" stop-color="#a52714" stop-opacity=".8"/>
            <stop offset=".5" stop-color="#a52714" stop-opacity=".212"/>
            <stop offset="1" stop-color="#a52714" stop-opacity="0"/>
        </linearGradient>
        <linearGradient id="d" x1="-5.175" y1="7.275" x2="-4.783" y2="7.56" gradientUnits="objectBoundingBox">
            <stop offset="0" stop-color="#fff" stop-opacity=".102"/>
            <stop offset="1" stop-color="#fff" stop-opacity="0"/>
        </linearGradient>
        <clipPath id="a">
            <path data-name="Path 1237" d="M129.094 120.543a2.315 2.315 0 0 0-2.632-1.888 2.207 2.207 0 0 0-1.259.629l-11.9 11.9-9.326-17.794a2.272 2.272 0 0 0-3.09-.973 2.644 2.644 0 0 0-.973.973l-5.092 9.726L82.007 99.2a2.267 2.267 0 0 0-3.09-.915 2.378 2.378 0 0 0-1.2 1.659L65.3 179.245l33.127 18.595a6.956 6.956 0 0 0 6.694 0l33.413-18.595z" transform="translate(-65.3 -98.001)"/>
        </clipPath>
    </defs>
    <g data-name="Group 345">
        <g data-name="Group 344" style="clip-path:url(#a)">
            <path data-name="Path 1229" d="m65.3 179.26 12.416-79.3a2.244 2.244 0 0 1 2.632-1.888 2.378 2.378 0 0 1 1.659 1.2l12.816 23.918 5.092-9.726a2.272 2.272 0 0 1 3.09-.973 2.644 2.644 0 0 1 .973.973l34.558 65.8z" transform="translate(-65.3 -98.016)" style="fill:#ffa000"/>
            <path data-name="Path 1230" d="M93.948 95.149 33.3 90v109.852l18.309-24.03z" transform="translate(-51.609 -94.578)" style="opacity:.12;fill:url(#b)"/>
            <path data-name="Path 1231" d="M108.154 167.132 94.823 141.9 65.3 198.028z" transform="translate(-65.3 -116.783)" style="fill:#f57c00"/>
            <path data-name="Path 1232" d="M33.3 90h109.852v109.852H33.3V90z" transform="translate(-51.609 -94.578)" style="fill:url(#c);opacity:.2"/>
            <path data-name="Path 1233" d="m138.535 194.63-9.5-58.759a2.315 2.315 0 0 0-2.632-1.888 2.207 2.207 0 0 0-1.259.629L65.3 194.63l33.127 18.595a6.956 6.956 0 0 0 6.694 0z" transform="translate(-65.3 -113.386)" style="fill:#ffca28"/>
            <path data-name="Path 1234" d="M129.052 120.543a2.315 2.315 0 0 0-2.632-1.888 2.207 2.207 0 0 0-1.259.629l-11.9 11.9-9.326-17.794a2.272 2.272 0 0 0-3.09-.973 2.644 2.644 0 0 0-.973.973l-5.092 9.726L81.964 99.2a2.267 2.267 0 0 0-3.09-.915 2.378 2.378 0 0 0-1.2 1.659l-12.416 79.3H65.2l.057.057.343.172 47.66-47.717 11.9-11.9a2.28 2.28 0 0 1 3.261 0 2.047 2.047 0 0 1 .629 1.259l9.383 58.187.114-.057zm-63.68 58.588 12.3-78.613A2.244 2.244 0 0 1 80.3 98.63a2.378 2.378 0 0 1 1.659 1.2l12.821 23.917 5.092-9.726a2.272 2.272 0 0 1 3.09-.973 2.644 2.644 0 0 1 .973.973l9.154 17.393z" transform="translate(-65.257 -98.001)" style="fill:rgba(255,255,255,.2)"/>
            <path data-name="Path 1235" d="M105.121 257.638a6.956 6.956 0 0 1-6.694 0L65.357 239.1l-.057.515 33.127 18.595a6.956 6.956 0 0 0 6.694 0l33.413-18.595-.057-.515z" transform="translate(-65.3 -158.371)" style="fill:#a52714;opacity:.2"/>
            <path data-name="Path 1236" d="M129.094 120.543a2.315 2.315 0 0 0-2.632-1.888 2.207 2.207 0 0 0-1.259.629l-11.9 11.9-9.326-17.794a2.272 2.272 0 0 0-3.09-.973 2.644 2.644 0 0 0-.973.973l-5.092 9.726L82.007 99.2a2.267 2.267 0 0 0-3.09-.915 2.378 2.378 0 0 0-1.2 1.659L65.3 179.245l33.127 18.595a6.956 6.956 0 0 0 6.694 0l33.413-18.595z" transform="translate(-65.3 -98.001)" style="fill:url(#d)"/>
        </g>
    </g>
</svg>
