<svg xmlns="http://www.w3.org/2000/svg" width="151.193" height="100.476" viewBox="0 0 151.193 100.476">
    <defs>
        <style>
            .cls-1,.cls-4{fill:#002b64}.cls-1{fill-rule:evenodd}
        </style>
    </defs>
    <g id="Group_358" data-name="Group 358" transform="translate(-592.19 -125.772)">
        <g id="Group_357" data-name="Group 357" transform="translate(592.19 125.772)">
            <path id="Path_1324" data-name="Path 1324" class="cls-1" d="M401.05 292.964c-2.338.075-1.6.749-6.652 1.993-5.1 1.253-11.354.866-16.82 3.171-16.4 6.88-19.68 30.361-34.566 38.771-11.1 6.291-22.371 6.8-32.463 9.924a60.042 60.042 0 0 0-19.932 11.522c-4.668 4.029-4.794 7.569-9.672 12.615-5.223 5.4-20.773.092-27.754 8.36 2.271 2.288 3.263 2.935 7.729 2.338-.925 1.749-6.375 3.23-5.307 5.811 1.127 2.717 14.3 4.55 26.24-2.683 5.576-3.372 10.008-8.225 18.671-9.419 11.27-1.5 24.221.959 37.173 2.843-1.934 5.753-5.8 9.588-8.915 14.129-.959 1.034 1.934 1.152 5.231.526 5.938-1.463 10.176-2.649 14.718-5.256 5.5-3.2 6.333-11.438 13.12-13.2 3.759 5.786 13.961 7.149 20.353 2.523-5.568-1.581-7.107-13.456-5.231-18.671 1.783-4.945 3.541-12.868 5.332-19.428 1.926-7.023 2.632-15.9 4.97-19.428 3.507-5.383 7.384-7.233 10.765-10.26 3.364-3.036 6.442-5.988 6.341-12.952-.033-2.237-1.186-3.482-3.314-3.415z" transform="translate(-253.19 -292.772)"/>
            <path id="Path_1325" data-name="Path 1325" d="M258.579 387.983c8.494 1.219 13.709 0 20.605-2.969 5.828-2.531 11.438-7.737 18.334-9.924 10.092-3.246 21.194 0 32.043.652a46.57 46.57 0 0 0 7.83-.121c4.029-2.473 3.944-11.69 7.864-12.615-.115 12.952-5.441 20.773-11.017 28.258 11.774-2.069 18.755-8.831 23.464-17.914a64.929 64.929 0 0 0 3.751-8.831c1.682 1.287.727 5.214 1.573 7.334 8.082-4.5 12.7-14.8 15.811-25.147 3.549-12.027 5-24.221 7.283-27.754 2.229-3.473 5.7-5.618 8.915-7.838 3.6-2.531 6.812-5.164 7.367-10.008-3.8-.352-4.676-1.228-5.24-3.145a11.279 11.279 0 0 1-5.626 1.362c-1.716.052-3.6-.024-5.9.212-19.007 1.951-21.446 22.96-33.641 34.818a29.464 29.464 0 0 1-2.859 2.431c-4.272 3.179-9.5 5.458-14.3 7.3-7.8 2.977-15.223 3.2-22.539 5.769a66.331 66.331 0 0 0-15.223 7.645 44.346 44.346 0 0 0-3.095 2.313 30.4 30.4 0 0 0-5.938 6.888 45.87 45.87 0 0 1-5.828 7.5c-4.045 3.97-19.175 1.161-24.474 4.844a4.427 4.427 0 0 0-1.388 1.489c2.9 1.32 4.844.51 8.183.875.438 3.171-6.888 5.055-5.8 6.51z" transform="translate(-253.692 -293.597)" style="fill:#c49a6c"/>
            <path id="Path_1326" data-name="Path 1326" d="M394.615 377c.227 3.633 2.338 10.849 4.2 12.615-3.65.891-9.924-.579-11.522-3.154.828-3.717 5.139-7.115 7.342-9.419z" transform="translate(-274.509 -306.162)" style="fill:#c49a6c;fill-rule:evenodd"/>
            <path id="Path_1327" data-name="Path 1327" class="cls-1" d="M402 308.2c2.691 2.338 8.343.462 7.334-4.188-4.189-.348-6.611 1.075-7.334 4.188z" transform="translate(-276.848 -294.55)"/>
            <path id="Path_1328" data-name="Path 1328" class="cls-4" d="M423.51 301.88a14.02 14.02 0 0 0-2.086 7.266c-.006.657-.5 1.11-.507.094a14.269 14.269 0 0 1 2.077-7.477c.489-.875.783-.511.517.119z" transform="translate(-279.855 -294.119)"/>
            <path id="Path_1329" data-name="Path 1329" class="cls-4" d="M423.294 301.88c-.841 1.43-2.876 4.054-3.213 7.864-.062.653-.594 1.06-.513.048.367-3.717 1.993-6.047 3.23-8.074.56-.823.823-.44.5.165z" transform="translate(-279.639 -294.119)"/>
            <path id="Path_1330" data-name="Path 1330" class="cls-4" d="M422 300.877c-.959 1.354-4.1 4.5-4.752 8.267-.118.645-.681 1.009-.516.005.678-3.675 3.381-6.568 4.777-8.494.627-.775.858-.37.488.206z" transform="translate(-279.185 -293.957)"/>
            <path id="Path_1331" data-name="Path 1331" class="cls-4" d="M420.743 299.874c-1.144 1.211-4.878 5.214-6.055 8.831-.209.622-.817.9-.511-.067 1.186-3.549 4.457-7.367 6.114-9.083.731-.679.9-.246.454.273z" transform="translate(-278.77 -293.795)"/>
        </g>
    </g>
</svg>
