<svg xmlns="http://www.w3.org/2000/svg" width="45.199" height="100.698" viewBox="0 0 45.199 100.698">
    <g data-name="Group 346">
        <path data-name="Path 1258" d="M50.714 44.763c-5.3-23.4-16.362-29.633-19.182-34.037a50.1 50.1 0 0 1-3.084-6.036c-.149 2.079-.423 3.389-2.19 4.965C22.71 12.819 7.641 25.1 6.372 51.69 5.191 76.482 24.6 91.77 27.163 93.35c1.972.97 4.373.021 5.544-.87 9.356-6.421 22.138-23.538 18.018-47.717" transform="translate(-6.32 -4.69)" style="fill:#10aa50"/>
        <path data-name="Path 1259" d="M68.579 222.46c-.489 6.137-.839 9.7-2.079 13.209 0 0 .814 5.842 1.386 12.031h2.024a112.524 112.524 0 0 1 2.207-12.956c-2.617-1.289-3.437-6.899-3.538-12.284z" transform="translate(-45.647 -147.002)" style="fill:#b8c4c2"/>
        <path data-name="Path 1260" d="M74.969 93.429c-2.647-1.223-3.413-6.951-3.531-12.287a251.506 251.506 0 0 0 .572-26.456c-.139-4.629.066-42.876-1.14-48.476a46.533 46.533 0 0 0 2.845 5.506C76.535 16.123 87.6 22.354 92.9 45.757c4.128 24.137-8.586 41.209-17.931 47.672z" transform="translate(-48.503 -5.684)" style="fill:#12924f"/>
    </g>
</svg>
