<svg xmlns="http://www.w3.org/2000/svg" width="102.358" height="100.477" viewBox="0 0 102.358 100.477">
    <defs>
        <style>
            .cls-1{fill:#00546b}
        </style>
    </defs>
    <g id="mysql-6" transform="translate(-.024)">
        <path id="Path_1337" data-name="Path 1337" class="cls-1" d="M94.307 77.712c-5.569-.139-9.885.418-13.505 1.949-1.044.417-2.715.418-2.855 1.741.557.557.627 1.462 1.114 2.228a16.321 16.321 0 0 0 3.62 4.247c1.462 1.114 2.924 2.227 4.455 3.2 2.715 1.671 5.779 2.645 8.424 4.316 1.532.974 3.063 2.228 4.594 3.272.766.556 1.253 1.462 2.228 1.81v-.208c-.488-.627-.627-1.532-1.114-2.228-.7-.7-1.392-1.323-2.089-2.019a33.02 33.02 0 0 0-7.24-7.031c-2.228-1.532-7.1-3.62-8.006-6.2l-.139-.139a28.312 28.312 0 0 0 4.8-1.114c2.367-.627 4.525-.487 6.962-1.114 1.114-.278 2.228-.627 3.341-.975v-.626c-1.252-1.253-2.158-2.924-3.48-4.107a92.821 92.821 0 0 0-11.487-8.563c-2.158-1.392-4.943-2.3-7.241-3.481-.835-.418-2.228-.627-2.715-1.323-1.254-1.531-1.95-3.55-2.855-5.36-2.018-3.829-3.968-8.076-5.709-12.113-1.252-2.715-2.018-5.431-3.55-7.936-7.165-11.83-14.96-19.001-26.936-26.033-2.576-1.462-5.639-2.088-8.911-2.854-1.74-.07-3.481-.209-5.221-.279-1.114-.487-2.228-1.81-3.2-2.436C13.622 1.83 3.387-3.6.464 3.571c-1.88 4.525 2.785 8.98 4.386 11.278A32.791 32.791 0 0 1 8.4 20.07c.487 1.183.626 2.437 1.114 3.69a83.587 83.587 0 0 0 3.62 9.329A33.659 33.659 0 0 0 15.71 37.4c.557.765 1.531 1.114 1.741 2.367-.974 1.392-1.044 3.481-1.6 5.221-2.506 7.867-1.531 17.613 2.019 23.391 1.114 1.74 3.759 5.57 7.31 4.107 3.133-1.253 2.437-5.221 3.341-8.7.21-.836.07-1.392.488-1.949v.14c.975 1.949 1.949 3.829 2.854 5.778a39.755 39.755 0 0 0 9.05 9.329c1.671 1.252 2.994 3.411 5.083 4.177v-.209h-.14a7.7 7.7 0 0 0-1.6-1.392 33.752 33.752 0 0 1-3.62-4.177 89.575 89.575 0 0 1-7.8-12.67c-1.114-2.158-2.089-4.525-2.993-6.683-.418-.836-.418-2.089-1.114-2.506-1.044 1.531-2.576 2.854-3.342 4.734-1.322 2.993-1.462 6.683-1.949 10.512-.278.07-.14 0-.279.14-2.227-.558-2.993-2.855-3.829-4.8-2.089-4.943-2.437-12.879-.626-18.587.487-1.462 2.576-6.057 1.741-7.449-.418-1.323-1.811-2.089-2.576-3.133a28.049 28.049 0 0 1-2.506-4.456c-1.671-3.9-2.506-8.215-4.316-12.113a37.053 37.053 0 0 0-3.481-5.36c-1.322-1.879-2.785-3.2-3.829-5.43-.348-.765-.835-2.019-.278-2.854a1.109 1.109 0 0 1 .975-.9c.905-.766 3.481.208 4.386.626a35.484 35.484 0 0 1 6.89 3.472c.974.7 2.019 2.019 3.272 2.367h1.462c2.228.487 4.734.139 6.822.765a44.489 44.489 0 0 1 10.025 4.8 61.763 61.763 0 0 1 21.72 23.809c.835 1.6 1.183 3.063 1.949 4.734 1.463 3.412 3.272 6.892 4.734 10.234 1.462 3.272 2.854 6.613 4.943 9.329 1.044 1.461 5.221 2.228 7.1 2.993a49.374 49.374 0 0 1 4.8 1.949c2.367 1.461 4.734 3.133 6.962 4.734 1.114.835 4.594 2.576 4.8 3.968z"/>
        <path id="Path_1338" data-name="Path 1338" class="cls-1" d="M53.908 43.022a11.031 11.031 0 0 0-2.854.349v.139h.139a22.433 22.433 0 0 0 2.227 2.854c.557 1.114 1.044 2.228 1.6 3.342l.139-.139a3.928 3.928 0 0 0 1.462-3.481 15.588 15.588 0 0 1-.835-1.462c-.416-.697-1.321-1.045-1.878-1.602z" transform="translate(-30.611 -25.807)"/>
    </g>
</svg>
