<svg xmlns="http://www.w3.org/2000/svg" width="99.353" height="101.879" viewBox="0 0 99.353 101.879">
    <defs>
        <style>
            .cls-3{fill:none;stroke-linecap:round}.cls-3,.cls-5{stroke:#fff}.cls-3,.cls-5{stroke-width:2px}.cls-3{stroke-linejoin:round}.cls-5{fill:#fff}
        </style>
    </defs>
    <g id="Layer_x0020_3" transform="translate(0 -14.219)">
        <path id="Path_1288" data-name="Path 1288" d="M89.144 88.992c.652-5.43.456-6.226 4.5-5.347l1.027.09a23.4 23.4 0 0 0 9.568-1.611c5.145-2.387 8.2-6.373 3.123-5.326-11.572 2.387-12.368-1.531-12.368-1.531 12.219-18.131 17.328-41.146 12.918-46.779-12.026-15.366-32.843-8.1-33.191-7.911l-.111.02a41.25 41.25 0 0 0-7.72-.8 19.07 19.07 0 0 0-12.225 3.659S17.531 8.153 19.258 42.694c.367 7.348 10.532 55.6 22.655 41.025 4.431-5.329 8.713-9.835 8.713-9.835a11.24 11.24 0 0 0 7.342 1.874l.206-.176a8.049 8.049 0 0 0 .083 2.075c-3.123 3.49-2.205 4.1-8.449 5.387-6.317 1.3-2.606 3.62-.183 4.226 2.938.735 9.733 1.775 14.326-4.653l-.183.733c1.225.98 1.142 7.045 1.316 11.378s.464 8.377 1.347 10.761 1.925 8.524 10.132 6.766c6.858-1.47 12.1-3.585 12.58-23.262" transform="translate(-14.782 -.478)" style="stroke:#000;stroke-width:8px"/>
        <path id="Path_1289" data-name="Path 1289" d="M107.359 76.8c-11.573 2.387-12.369-1.531-12.369-1.531 12.219-18.132 17.328-41.147 12.919-46.78-12.026-15.366-32.844-8.1-33.191-7.91l-.112.02a41.272 41.272 0 0 0-7.721-.8 19.07 19.07 0 0 0-12.223 3.659S17.526 8.152 19.253 42.692c.367 7.348 10.532 55.6 22.656 41.025 4.431-5.329 8.713-9.835 8.713-9.835a11.239 11.239 0 0 0 7.341 1.874l.207-.176a8.091 8.091 0 0 0 .083 2.075c-3.123 3.49-2.205 4.1-8.449 5.387-6.318 1.3-2.606 3.62-.183 4.226 2.938.735 9.734 1.775 14.326-4.653l-.183.733c1.224.98 2.083 6.376 1.939 11.267s-.24 8.249.724 10.872 1.925 8.524 10.133 6.766c6.858-1.47 10.412-5.278 10.907-11.631.351-4.517 1.145-3.849 1.2-7.887l.637-1.912c.734-6.123.117-8.1 4.342-7.179l1.027.09a23.4 23.4 0 0 0 9.569-1.611c5.144-2.387 8.195-6.373 3.123-5.326z" transform="translate(-14.779 -.477)" style="fill:#336791"/>
        <path id="Path_1290" data-name="Path 1290" class="cls-3" d="M215.511 286.484c-.319 11.392.08 22.864 1.195 25.652s3.5 8.211 11.711 6.452c6.858-1.47 9.353-4.315 10.435-10.6.8-4.62 2.335-17.452 2.532-20.081" transform="translate(-165.845 -206.654)"/>
        <path id="Path_1291" data-name="Path 1291" class="cls-3" d="M54.331 27.127S17.169 11.938 18.9 46.478c.367 7.348 10.533 55.6 22.656 41.026 4.43-5.33 8.437-9.51 8.437-9.51" transform="translate(-14.504 -4.407)"/>
        <path id="Path_1292" data-name="Path 1292" class="cls-3" d="M260.168 19.947c-1.286.4 20.672-8.027 33.151 7.918 4.408 5.633-.7 28.649-12.919 46.781" transform="translate(-200.268)"/>
        <path id="Path_1293" data-name="Path 1293" d="M181.7 78.3s.8 3.92 12.37 1.531c5.071-1.047 2.019 2.939-3.124 5.327-4.221 1.959-13.683 2.461-13.838-.246-.4-6.984 4.98-4.862 4.592-6.612-.351-1.576-2.756-3.123-4.347-6.98-1.389-3.367-19.049-29.185 4.9-25.35.877-.182-6.246-22.778-28.656-23.145s-21.671 27.554-21.671 27.554" transform="translate(-101.569 -3.65)" style="stroke-linejoin:bevel;stroke-width:2px;stroke:#fff;fill:none;stroke-linecap:round"/>
        <path id="Path_1294" data-name="Path 1294" class="cls-3" d="M148.641 270.045c-3.124 3.489-2.205 4.1-8.449 5.388-6.318 1.3-2.606 3.62-.183 4.225 2.938.735 9.734 1.776 14.326-4.654 1.4-1.958-.008-5.081-1.929-5.878-.929-.384-2.17-.866-3.765.919z" transform="translate(-105.248 -193.01)"/>
        <path id="Path_1295" data-name="Path 1295" class="cls-3" d="M143.479 158.415c-.315-2.052.674-4.493 1.734-7.349 1.593-4.285 5.267-8.571 2.328-22.165-2.191-10.13-16.887-2.108-16.9-.735a68.947 68.947 0 0 1-.245 13.47c-1.188 8.493 5.4 15.675 12.994 14.941" transform="translate(-100.291 -81.442)"/>
        <path id="Path_1296" data-name="Path 1296" class="cls-5" d="M172.506 139.7c-.066.469.859 1.721 2.065 1.888a2.224 2.224 0 0 0 2.3-1.279c.065-.469-.859-.986-2.065-1.154s-2.236.077-2.3.545z" transform="translate(-132.814 -93.181)"/>
        <path id="Path_1297" data-name="Path 1297" class="cls-5" d="M317.317 135.543c.065.469-.859 1.721-2.065 1.888a2.226 2.226 0 0 1-2.3-1.279c-.064-.469.861-.986 2.066-1.154s2.236.077 2.3.545z" transform="translate(-240.945 -89.981)"/>
        <path id="Path_1298" data-name="Path 1298" class="cls-3" d="M342.069 123.432c.2 3.68-.793 6.186-.918 10.1-.185 5.694 2.715 12.211-1.654 18.736" transform="translate(-261.387 -81.116)"/>
    </g>
</svg>
