<svg xmlns="http://www.w3.org/2000/svg" width="104.476" height="89.544" viewBox="0 0 104.476 89.544">
    <defs>
        <style>
            .cls-1{fill:#a41e11}.cls-2{fill:#d82c20}.cls-3{fill:#fff}
        </style>
    </defs>
    <g id="Group_348" data-name="Group 348" transform="translate(-1435 -537.318)">
        <path id="Path_1278" data-name="Path 1278" class="cls-1" d="M271.7 323.551c-5.575 2.906-34.457 14.781-40.606 17.986s-9.565 3.175-14.422.853-35.593-14.737-41.129-17.383c-2.767-1.323-4.222-2.439-4.222-3.493v-10.56s40.013-8.711 46.474-11.028 8.7-2.4 14.2-.388 38.368 7.945 43.8 9.934v10.41c0 1.044-1.253 2.189-4.091 3.668z" transform="translate(1263.677 282.813)"/>
        <path id="Path_1279" data-name="Path 1279" class="cls-2" d="M271.7 307.636c-5.575 2.9-34.457 14.781-40.606 17.986s-9.565 3.175-14.422.853-35.593-14.738-41.129-17.383-5.653-4.468-.214-6.6 36-14.123 42.466-16.441 8.7-2.4 14.2-.387 34.207 13.441 39.64 15.431 5.643 3.631.068 6.538z" transform="translate(1263.678 288.165)"/>
        <path id="Path_1280" data-name="Path 1280" class="cls-1" d="M271.7 295.511c-5.575 2.906-34.457 14.781-40.606 17.988s-9.565 3.174-14.422.852-35.593-14.737-41.129-17.383c-2.767-1.323-4.222-2.438-4.222-3.492v-10.562s40.013-8.71 46.474-11.028 8.7-2.4 14.2-.388 38.368 7.943 43.8 9.934v10.412c0 1.043-1.254 2.188-4.095 3.667z" transform="translate(1263.677 293.632)"/>
        <path id="Path_1281" data-name="Path 1281" class="cls-2" d="M271.7 279.6c-5.575 2.906-34.457 14.781-40.606 17.988s-9.565 3.174-14.422.852-35.593-14.738-41.129-17.383-5.653-4.467-.214-6.6 36-14.122 42.466-16.439 8.7-2.4 14.2-.388 34.207 13.441 39.64 15.431 5.643 3.631.068 6.538z" transform="translate(1263.678 298.985)"/>
        <path id="Path_1282" data-name="Path 1282" class="cls-1" d="M271.7 266.432c-5.575 2.906-34.457 14.782-40.606 17.988s-9.565 3.174-14.422.852-35.593-14.738-41.129-17.383c-2.767-1.323-4.222-2.438-4.222-3.492v-10.562s40.013-8.71 46.474-11.028 8.7-2.4 14.2-.388 38.368 7.943 43.8 9.934v10.411c0 1.043-1.253 2.188-4.091 3.667z" transform="translate(1263.677 304.853)"/>
        <path id="Path_1283" data-name="Path 1283" class="cls-2" d="M271.7 250.516c-5.575 2.906-34.457 14.782-40.606 17.988s-9.565 3.174-14.422.852-35.593-14.738-41.129-17.383-5.653-4.468-.214-6.6 36-14.122 42.466-16.439 8.7-2.4 14.2-.387 34.207 13.441 39.64 15.431 5.643 3.631.068 6.536z" transform="translate(1263.678 310.205)"/>
        <path id="Path_1284" data-name="Path 1284" class="cls-3" d="m263.085 243.825-9.053.94-2.027 4.876-3.273-5.441-10.453-.94 7.8-2.813-2.34-4.317 7.3 2.856 6.885-2.254-1.861 4.465z" transform="translate(1237.842 306.726)"/>
        <path id="Path_1285" data-name="Path 1285" class="cls-3" d="m249.135 280.443-16.9-7.007 24.21-3.716z" transform="translate(1240.172 293.765)"/>
        <ellipse id="Ellipse_476" data-name="Ellipse 476" class="cls-3" cx="12.939" cy="5.016" rx="12.939" ry="5.016" transform="translate(1452.944 553.261)"/>
        <path id="Path_1286" data-name="Path 1286" d="m296.09 250.83 14.328 5.662-14.318 5.657z" transform="translate(1215.535 301.054)" style="fill:#7a0c00"/>
        <path id="Path_1287" data-name="Path 1287" d="m270.28 257.1 15.851-6.27.012 11.319-1.554.608z" transform="translate(1225.494 301.054)" style="fill:#ad2115"/>
    </g>
</svg>
