<svg width="183" height="54" viewBox="0 0 183 54" fill="none" xmlns="http://www.w3.org/2000/svg">
<mask id="mask0_869_5756" style="mask-type:alpha" maskUnits="userSpaceOnUse" x="0" y="0" width="183" height="54">
<rect width="183" height="54" fill="#D9D9D9"/>
</mask>
<g mask="url(#mask0_869_5756)">
<path d="M84.0972 8.05811V24.4812H94.4847V21.6661H87.13V8.05811H84.0972Z" fill="#999999"/>
<path d="M103.49 19.8829V19.6491H100.571C99.4909 19.6491 98.8481 20.1413 98.8481 20.986C98.8481 21.8307 99.4909 22.4171 100.732 22.4171C102.341 22.4171 103.49 21.431 103.49 19.8829ZM95.9504 21.0801C95.9504 18.6874 97.7883 17.4431 100.363 17.4431H103.488V16.7868C103.488 15.7081 102.845 14.9089 101.373 14.9089C99.9015 14.9089 99.2825 15.6594 99.074 16.7153L96.4087 15.8007C96.9609 14.0415 98.4535 12.5161 101.42 12.5161C104.386 12.5161 106.292 14.0886 106.292 16.9979V21.3385C106.292 21.8079 106.523 22.0419 106.936 22.0419H107.856V24.4818H105.926C104.799 24.4818 103.972 23.871 103.972 22.9337V22.9109H103.536C103.329 23.4974 102.616 24.8115 100.226 24.8115C97.8361 24.8115 95.952 23.4746 95.952 21.0818" fill="#999999"/>
<path d="M110.728 26.5934H116.934C117.348 26.5934 117.577 26.3594 117.577 25.89V22.9578H117.163C116.795 23.7555 115.876 24.67 113.831 24.67C111.166 24.67 109.395 22.6752 109.395 19.7902V12.8457H112.291V19.5563C112.291 21.3156 113.164 22.1846 114.727 22.1846C116.496 22.1846 117.531 20.9175 117.531 18.7587V12.8457H120.426V26.5463C120.426 28.1414 119.416 29.1746 117.898 29.1746H110.728V26.5934Z" fill="#999999"/>
<path d="M130.973 17.3259C130.835 15.989 129.847 15.0972 128.354 15.0972C126.862 15.0972 125.85 15.989 125.642 17.3259H130.975H130.973ZM122.677 18.8042V18.5232C122.677 14.8633 124.976 12.5176 128.376 12.5176C131.777 12.5176 133.915 14.9575 133.915 18.5232V19.532H125.619C125.687 21.1271 126.906 22.2301 128.515 22.2301C130.123 22.2301 130.79 21.3854 131.181 20.4936L133.549 21.7607C132.907 23.0034 131.549 24.8114 128.424 24.8114C125 24.8114 122.678 22.464 122.678 18.8042" fill="#999999"/>
<path d="M136.151 12.8459H139.001V14.1601H139.415C139.736 13.2212 140.564 12.7988 141.62 12.7988H143V15.4272H141.574C140.104 15.4272 139.046 16.2248 139.046 17.8671V24.4835H136.149V12.8459H136.151Z" fill="#999999"/>
<path d="M93.5476 39.4784V35.349C93.5476 33.096 92.2142 31.6421 89.9626 31.6421C87.7109 31.6421 86.3775 33.096 86.3775 35.349V39.4784C86.3775 41.7315 87.7109 43.1854 89.9626 43.1854C92.2142 43.1854 93.5476 41.7315 93.5476 39.4784ZM83.343 39.3842V35.4433C83.343 31.2197 85.9176 28.874 89.9626 28.874C94.0075 28.874 96.5821 31.2214 96.5821 35.4433V39.3842C96.5821 43.6077 94.0075 45.9534 89.9626 45.9534C85.9176 45.9534 83.343 43.6077 83.343 39.3842Z" fill="#999999"/>
<path d="M99.05 33.9875H101.9V35.5129H102.314C102.681 34.7153 103.601 33.8008 105.646 33.8008C108.311 33.8008 110.082 35.7956 110.082 38.6806V45.625H107.186V38.9145C107.186 37.1552 106.312 36.2862 104.75 36.2862C102.98 36.2862 101.946 37.5532 101.946 39.7121V45.625H99.05V33.9875Z" fill="#999999"/>
<path d="M120.382 38.4677C120.244 37.1308 119.256 36.2389 117.763 36.2389C116.271 36.2389 115.259 37.1308 115.052 38.4677H120.384H120.382ZM112.086 39.946V39.6649C112.086 36.0051 114.385 33.6577 117.786 33.6577C121.186 33.6577 123.324 36.0977 123.324 39.6649V40.6737H115.028C115.096 42.2689 116.315 43.3719 117.924 43.3719C119.533 43.3719 120.2 42.5272 120.591 41.6354L122.958 42.9024C122.316 44.1451 120.959 45.9531 117.833 45.9531C114.409 45.9531 112.087 43.6075 112.087 39.9476" fill="#999999"/>
<path d="M132.481 37.3424L127.815 29.2007H131.261L134.457 35.1364H134.87L138.065 29.2007H141.512L136.847 37.3424L141.559 45.6255H138.112L134.87 39.5484H134.457L131.215 45.6255H127.769L132.481 37.3424Z" fill="#999999"/>
<path d="M57.4853 45.5685H61.3153V35.3377H57.4853V45.5685ZM67.8792 28.7393H77.8006V24.8292H67.8792V28.7393ZM41 28.7393H51.1219V24.8292H41V28.7393ZM61.422 21.9556C60.3049 23.0959 58.4957 23.0959 57.3786 21.9556L47.7437 12.1196L45.0354 14.8844L54.6704 24.7204C55.7874 25.8608 55.7874 27.7077 54.6704 28.8481L45.0354 38.6841L47.7437 41.4489L57.3786 31.6129C58.4957 30.4726 60.3049 30.4726 61.422 31.6129L71.057 41.4489L73.7652 38.6841L64.1303 28.8481C63.0148 27.7077 63.0148 25.8608 64.1303 24.7204L73.7652 14.8844L71.057 12.1196L61.422 21.9556ZM57.4853 18.2291H61.3153V8H57.4853V18.2308V18.2291Z" fill="#999999"/>
</g>
</svg>
