<svg width="183" height="54" viewBox="0 0 183 54" fill="none" xmlns="http://www.w3.org/2000/svg">
<mask id="mask0_869_5698" style="mask-type:alpha" maskUnits="userSpaceOnUse" x="0" y="0" width="183" height="54">
<rect width="183" height="54" fill="#D9D9D9"/>
</mask>
<g mask="url(#mask0_869_5698)">
<path d="M75.3714 36.9474C74.1198 36.071 73.5785 34.4843 73.281 32.9728C72.9835 31.4612 72.8334 29.8933 72.0669 28.5667C71.0967 26.9238 69.2662 25.9161 67.4008 25.506C65.5355 25.096 63.5924 25.2273 61.6896 25.3559C64.4715 22.0326 69.4163 21.6038 72.7396 24.367C73.691 25.1683 74.4575 26.1948 74.9426 27.3339C75.0739 27.6501 75.3527 28.0441 75.6716 27.894C75.8967 27.7814 75.8967 27.4464 75.8405 27.1838C75.4679 24.6457 76.1192 22.0514 77.687 19.9984C76.7919 19.9234 76.288 20.9499 75.6529 21.5851C74.7765 22.4427 73.431 22.6115 72.2196 22.4614C71.0082 22.3114 69.8317 21.8825 68.6176 21.7512C65.2407 21.3787 61.9361 23.3566 59.8644 26.0447C59.5106 24.2517 60.9847 22.5552 62.6651 21.845C64.3455 21.1348 66.2296 21.1723 68.0414 20.9499C70.0193 20.706 71.9597 20.1485 73.7714 19.307C74.5915 18.9157 75.4894 18.3555 75.9557 17.5328C76.6096 16.3562 76.0307 16.115 75.208 15.4048C73.7527 14.1156 73.3614 11.8027 71.5121 10.9263C71.2521 10.7762 70.952 10.7387 70.6732 10.8325C70.4481 10.9638 70.2632 11.1488 70.1319 11.3739C69.5717 12.1404 68.8079 12.7541 67.9288 13.1481C66.0447 13.987 63.7854 13.7458 61.9388 14.6785C60.1646 15.5736 59.047 17.4416 58.578 19.382C58.1089 21.3224 58.2242 23.3378 58.3341 25.3372C56.1873 23.4156 55.2171 20.5023 55.7773 17.6855C56.3937 14.8661 58.4466 12.5907 61.1911 11.6955C60.781 11.1354 59.9582 11.2104 59.2694 11.2479C57.0289 11.3793 54.8285 10.669 53.0731 9.27002C52.923 10.1652 53.987 10.7066 54.6221 11.3417C55.5173 12.2181 55.6674 13.6011 55.5173 14.85C55.3485 16.0828 54.9196 17.2755 54.7883 18.5271C54.4533 21.8691 56.4875 25.0772 59.1193 27.1677C57.5703 27.4277 56.0212 26.3851 55.2359 25.0022C54.4506 23.6192 54.2657 22.0165 54.0781 20.4487C53.853 18.3395 53.6305 16.1927 52.864 14.2148C52.3977 13.0007 51.7062 11.8456 50.6234 11.1166C50.2322 10.8379 49.672 10.6315 49.2432 10.8727C48.9993 11.0228 48.8519 11.2828 48.6831 11.5267C47.5253 13.1508 45.1561 13.5984 44.0733 15.2788C43.8857 15.5763 43.7383 15.9327 43.8482 16.249C43.9607 16.6215 44.3333 16.8466 44.6495 17.0691C45.9011 18.0018 46.4237 19.6071 46.74 21.1375C47.0562 22.6678 47.2251 24.2732 48.0452 25.5972C49.0342 27.2025 50.8459 28.154 52.6925 28.5453C54.5391 28.9366 56.4446 28.8052 58.3287 28.6766C56.5733 30.7295 53.8878 31.756 51.2184 31.3835C48.5491 30.9734 46.2737 29.218 45.1721 26.755C45.0033 26.3637 44.5182 25.8598 44.2395 26.1948C44.1457 26.3637 44.1269 26.5486 44.1832 26.7362C44.612 29.3305 43.9232 31.9811 42.2991 34.0341C43.2317 34.1091 43.7731 33.0451 44.4458 32.41C45.416 31.496 46.8901 31.3835 48.198 31.5898C49.5058 31.7962 50.7923 32.2626 52.1163 32.3188C55.3458 32.4689 58.1438 30.2284 60.3844 27.8967C60.3656 30.156 58.2751 31.9088 56.1284 32.5815C53.9816 33.2542 51.6499 33.1416 49.4281 33.5142C47.2063 33.8867 44.8559 34.9319 43.9607 37.0224C43.8669 37.1912 43.8294 37.3949 43.8294 37.5825C43.8669 38.0489 44.352 38.3303 44.7433 38.6278C46.3299 39.8231 46.74 42.2861 48.533 43.1437C48.7393 43.2563 48.9805 43.3126 49.2244 43.2563C49.597 43.1625 49.8033 42.79 50.0258 42.4737C50.9209 41.1846 52.5263 40.6459 54.0566 40.327C55.587 40.008 57.1924 39.8606 58.5351 39.0566C60.1592 38.0864 61.1482 36.2559 61.5395 34.4093C61.9308 32.5627 61.8182 30.6384 61.6896 28.7355C65.0129 31.555 65.4042 36.5561 62.5847 39.8606C61.5958 41.0184 60.2879 41.876 58.8326 42.3049C59.0389 42.8462 59.8028 42.8462 60.3817 42.79C62.7696 42.5836 65.1415 43.2751 67.0256 44.7304C67.0631 43.7977 65.9991 43.2563 65.364 42.5648C64.4876 41.6134 64.375 40.1769 64.5814 38.8877C64.7877 37.5986 65.2353 36.3685 65.3104 35.0793C65.5167 31.8686 63.4075 28.958 60.9793 26.8675C62.976 26.57 64.7502 28.3603 65.3854 30.282C66.0206 32.2036 65.8705 34.2941 66.168 36.2907C66.4655 38.3249 67.2508 40.2466 68.4086 41.927C68.9687 42.7283 69.9201 43.5323 70.7778 43.1035C71.1691 42.8972 71.3942 42.5059 71.6729 42.1709C72.9058 40.678 75.2562 40.268 76.079 38.5125C76.1915 38.2874 76.2478 38.0462 76.1915 37.8023C76.0977 37.3923 75.7065 37.1671 75.3714 36.9447V36.9474ZM74.9426 22.9867C74.8301 23.4343 74.7175 23.8069 74.6076 24.2571L73.3185 23.1556L74.9426 22.9867ZM57.1575 12.462L56.131 13.6761L55.981 11.9957L57.1575 12.462ZM47.7129 22.1666C47.4529 20.9338 47.4529 19.6661 47.0777 18.4708C46.7025 17.2755 45.8073 16.1203 44.5772 15.9515C44.8934 15.3163 45.416 14.8125 46.07 14.5337C46.2576 14.4399 46.4613 14.4024 46.6676 14.4399C46.874 14.515 47.0402 14.6275 47.1715 14.7937C48.4418 16.1177 49.3745 17.7418 49.9159 19.4973C50.0847 17.4818 49.2995 15.5039 47.7879 14.1398C48.608 13.6922 49.262 12.982 49.6908 12.1431C50.9424 13.3947 51.4838 15.4476 51.9313 17.1066C52.1913 18.0768 52.4164 19.0658 52.604 20.0547C52.6603 20.371 52.8479 22.5552 53.0704 22.6678L51.0737 21.7914C51.54 21.5851 51.8563 21.175 51.9689 20.6899C50.5886 21.0624 49.3182 21.7727 48.273 22.7429C48.7769 23.1529 49.4871 22.3516 50.1196 22.4641C50.4921 22.5392 50.7548 22.9117 50.8111 23.303C50.8673 23.6755 50.8111 24.0695 50.7923 24.4608C50.7735 25.7848 51.4838 27.0176 52.6201 27.6903C50.0633 27.1114 48.2328 24.7047 47.7102 22.1666H47.7129ZM56.9699 28.1754C55.2895 28.4005 53.853 27.9503 52.6952 26.7014C52.1538 26.1225 51.9662 25.431 51.9126 24.6859C51.8751 24.1633 51.875 23.6407 51.8563 23.0618C52.8077 23.6594 53.7967 24.1821 54.4319 25.1523C55.1046 26.16 56.0935 26.9452 57.2326 27.3741C57.5488 27.5054 57.849 27.634 58.1652 27.7654L58.184 27.8967C57.7552 28.0092 57.3639 28.103 56.9699 28.1754ZM45.006 31.0297L45.4348 29.8344L46.6489 30.8796L45.006 31.0297ZM59.3204 19.6447C59.8617 17.1629 62.1586 15.2949 64.6591 14.7535C65.9107 14.4935 67.2347 14.4935 68.4488 14.1371C69.6628 13.7806 70.893 12.8667 71.0618 11.599C71.7721 11.8778 72.8173 12.8881 72.4984 13.7458C72.3483 14.1558 72.0133 14.456 71.6783 14.716C70.4079 15.7049 68.9714 16.4714 67.4223 16.9378C69.4752 17.1441 71.5094 16.3401 72.8897 14.791C73.356 15.6299 74.0662 16.3401 74.9239 16.7689C71.8257 18.8219 68.036 19.4571 64.3589 20.0547L65.2166 18.1143C65.4229 18.5619 65.8517 18.8808 66.3368 18.9532C65.9455 17.573 65.2541 16.3026 64.2839 15.2386C63.8738 15.78 64.7315 16.5438 64.5626 17.1977C64.4688 17.5328 64.115 17.7579 63.7613 17.8142C63.4075 17.8329 63.051 17.8329 62.6973 17.7766C61.317 17.7391 60.0279 18.4681 59.3364 19.6607L59.3177 19.642L59.3204 19.6447ZM59.2266 25.2621C58.6476 24.0856 58.5726 22.7429 59.0389 21.51C59.7867 19.4571 61.1482 18.7468 63.9489 18.8594C63.2762 19.9046 62.6973 20.8936 61.652 21.5663C60.7194 22.164 60.0842 23.0591 59.6929 24.1043C59.5428 24.4581 59.3954 24.8146 59.2266 25.2621ZM62.8474 41.5196L63.8551 40.3618C63.9114 40.9219 63.9676 41.4258 64.0052 42.0047L62.8474 41.5196ZM57.3237 38.5715C55.8496 39.263 54.1505 39.2817 52.5451 39.6167C50.9397 39.9517 49.2593 40.8308 48.8117 42.3987C48.2891 42.0824 47.7289 41.7072 47.5413 41.1283C47.3537 40.5494 47.5976 39.8955 48.0264 39.4479C48.4365 39.0003 48.9966 38.7189 49.5568 38.4402L52.5424 36.9474C50.527 37.1537 48.2489 37.5263 47.1286 39.2254C46.6435 38.3678 45.9145 37.6763 45.0381 37.2288L45.0194 37.21C48.1738 35.2133 51.9635 34.5406 55.6406 33.8867C55.3431 34.5594 55.0429 35.2294 54.7454 35.9021C54.5391 35.4545 54.1102 35.1356 53.6252 35.0632C54.0164 36.4435 54.7267 37.6951 55.6781 38.7591C56.1069 38.2552 55.2681 37.5263 55.3806 36.875C55.4369 36.5025 55.8282 36.2398 56.2007 36.1835C56.5733 36.1272 56.9672 36.1835 57.3585 36.2023C58.6289 36.2398 59.6178 35.5859 60.438 34.6907C60.2128 36.3711 58.7951 37.8827 57.321 38.5742L57.3237 38.5715ZM61.1696 30.097C61.3572 31.7775 60.9097 33.2515 59.6018 34.3905C59.0979 34.8194 58.444 35.0632 57.79 35.082C57.2299 35.1195 56.6697 35.1383 56.0346 35.1758C56.5947 34.2431 57.0986 33.2917 58.0125 32.6753C59.0765 31.9838 59.8966 30.9573 60.3468 29.7835C60.4782 29.486 60.5907 29.1858 60.7194 28.8883L60.8507 28.8696C60.982 29.2608 61.0946 29.6709 61.1669 30.1024L61.1696 30.097ZM65.5918 28.9205C64.9378 27.9128 63.9676 27.1275 62.8474 26.6987L61.8584 26.2886L61.8396 26.1198C62.3435 26.0072 62.8661 25.8223 63.37 25.7848C64.9754 25.6722 66.3556 26.1948 67.4008 27.4277C67.6796 27.7627 67.8672 28.1754 67.9422 28.6042C68.0735 29.352 68.0923 30.1158 68.1673 30.9922C67.1972 30.357 66.2082 29.8719 65.5918 28.9205ZM73.8223 39.5042C73.6347 39.5792 73.431 39.598 73.2434 39.5604C73.0558 39.4854 72.8709 39.3541 72.7583 39.1879C71.5255 37.8452 70.6116 36.2398 70.0702 34.4843C69.8638 36.5373 70.6679 38.5527 72.217 39.8981C71.3781 40.3457 70.6866 41.0372 70.2766 41.8948C67.9261 39.003 67.8511 34.9319 66.8434 31.3486L68.8776 32.225C68.4675 32.4689 68.1673 32.879 68.095 33.3453C69.4565 32.954 70.7081 32.2626 71.7721 31.3486C71.2682 30.8073 70.3731 31.7962 69.6816 31.5175C69.1402 31.2924 69.2153 30.5285 69.2528 29.9309C69.3278 28.4943 68.6364 27.1489 67.425 26.3663C70.1506 27.0766 71.8471 29.3707 72.2786 32.0589C72.4662 33.2729 72.5386 34.5219 72.9513 35.6609C73.364 36.7999 74.2565 37.9015 75.4518 38.1239C75.0793 38.7779 74.5004 39.263 73.8277 39.5042H73.8223Z" fill="#999999" stroke="#999999" stroke-width="0.3" stroke-linejoin="round"/>
<path d="M60.9631 38.7214C59.8053 40.9995 57.8462 42.0447 55.477 42.7523C56.0934 43.2374 56.616 43.685 57.1761 44.095C58.3152 44.9339 59.5829 45.1215 60.947 44.8964C61.4509 44.8213 61.9735 44.8026 62.4961 44.7838C62.665 44.7838 62.8124 44.8026 62.9812 44.8401C62.0673 45.5691 60.9283 45.9791 59.7705 45.9979C58.4278 46.0354 57.27 45.5315 56.2998 44.6176C55.7771 44.1325 55.3296 43.5912 54.8445 43.0873C54.7319 42.9747 54.5845 42.9185 54.4344 42.9185C53.6143 43.1061 52.829 43.3285 52.0464 43.6287C51.5801 43.8163 51.2263 44.2451 50.8324 44.5614C50.7386 44.6364 50.5724 44.749 50.5536 44.7302C50.4598 44.6552 50.3285 44.4863 50.3473 44.3952C50.4223 44.0602 50.5536 43.7412 50.7198 43.4438C51.2987 42.5298 52.2126 42.026 53.2016 41.7258C54.228 41.4096 55.2733 41.1844 56.3185 41.0344C57.9989 40.8092 59.3792 40.0079 60.5933 38.8876L60.7621 38.7188C60.8184 38.7188 60.8934 38.7188 60.9685 38.7188L60.9631 38.7214Z" fill="#999999" stroke="#999999" stroke-width="0.3" stroke-linejoin="round"/>
<path d="M48.2354 27.7656C47.0025 27.5217 46.2762 26.6078 45.6598 25.6564C45.0434 24.7237 44.6521 23.6597 44.1107 22.5582C43.5881 23.3059 42.9904 24.0885 42.4866 24.8926C41.9827 25.7127 41.9452 26.6855 42.0577 27.6557C42.114 28.2534 42.1703 28.8511 42.2266 29.4487C42.2453 29.5988 42.2078 29.7462 42.1328 29.8963C41.2752 28.8698 40.8812 27.5271 41.0313 26.2004C41.1438 25.174 41.5914 24.2038 42.3016 23.456C42.8055 22.9147 43.3844 22.4483 43.8882 21.9257C44.0196 21.7569 44.0759 21.5532 44.0571 21.3468C43.9258 20.6366 43.7408 19.9478 43.4782 19.2563C43.2531 18.7525 42.8242 18.3612 42.4892 17.8948C42.4142 17.7823 42.3579 17.6697 42.2829 17.5598C42.4142 17.5035 42.5616 17.3535 42.6742 17.3722C42.9717 17.4473 43.2718 17.5598 43.5318 17.726C44.4269 18.3049 44.8745 19.2 45.2685 20.1327C45.7348 21.253 45.8474 22.4296 46.0162 23.6222C46.2226 25.115 46.9677 26.3666 47.9942 27.4494C48.0692 27.5619 48.163 27.6745 48.238 27.7656H48.2354Z" fill="#999999" stroke="#999999" stroke-width="0.3" stroke-linejoin="round"/>
<path d="M77.7056 36.4249C77.6305 36.7224 77.3706 36.7036 77.1079 36.6125C76.3602 36.3686 75.7464 35.846 75.3712 35.1572C74.6047 33.9056 74.1571 32.4878 74.066 31.0138C73.9347 29.2771 73.2084 27.8218 72.0131 26.5728L71.8817 26.4415C71.8442 26.404 71.7692 26.2914 71.7129 26.2164L71.7879 26.0851C72.1792 26.3102 72.608 26.4951 72.927 26.7953C74.2322 27.9531 75.1675 29.4647 75.5963 31.1638C75.6151 31.2389 75.6339 31.3139 75.6714 31.389C75.7464 31.389 75.8027 31.389 75.8215 31.3702C76.4004 30.5876 77.0168 29.8211 77.5207 29.001C78.0808 28.0871 77.987 27.0606 77.8744 26.0529C77.8181 25.5115 77.7994 24.9889 77.7619 24.4475C77.7619 24.3162 77.7994 24.2036 77.8369 24.0938C78.4908 24.6727 78.657 25.399 78.8446 26.1279C79.2547 27.7896 78.8446 29.3012 77.7243 30.5689C77.2017 31.1478 76.5853 31.6516 76.0252 32.193C75.9501 32.268 75.8938 32.3806 75.9126 32.4905C76.1377 33.3481 76.3227 34.2459 76.6791 35.0661C76.848 35.5512 77.3143 35.9424 77.7056 36.4275V36.4249Z" fill="#999999" stroke="#999999" stroke-width="0.3" stroke-linejoin="round"/>
<path d="M59.0791 15.1475C60.2182 13.0382 62.121 11.9367 64.5117 11.2828C63.8577 10.7602 63.2601 10.2751 62.6463 9.84625C61.4885 9.00738 60.1833 8.95109 58.8004 9.15478C58.2402 9.24858 57.6801 9.24858 57.0449 9.28611C57.3987 8.59464 58.0339 8.50352 58.5565 8.31591C60.5156 7.62445 62.2523 8.09078 63.7452 9.49247C64.2303 9.95881 64.6403 10.5002 65.1254 10.9665C65.2567 11.0791 65.4417 11.1354 65.6105 11.0979C66.377 10.929 67.1221 10.7066 67.8511 10.4439C68.2986 10.2563 68.6337 9.84625 69.0276 9.54876C69.1589 9.45495 69.2876 9.39867 69.4377 9.32363C69.4752 9.49247 69.6065 9.6774 69.569 9.82749C69.3814 10.6851 68.7677 11.2453 68.0574 11.6741C66.8433 12.4218 65.4631 12.8506 64.0453 12.9444C62.2711 13.0758 60.6121 13.8583 59.3793 15.1287C59.3042 15.185 59.2292 15.2413 59.1542 15.2976L59.0791 15.1475Z" fill="#999999" stroke="#999999" stroke-width="0.3" stroke-linejoin="round"/>
<path d="M102.231 30.2657H89.9323C89.951 31.2734 90.2297 32.2624 90.7524 33.1388C91.2187 33.9053 91.8726 34.5378 92.674 34.9505C93.4753 35.3633 94.3732 35.567 95.2871 35.567C96.3886 35.6045 97.4901 35.2695 98.404 34.653C99.2429 34.0741 99.8218 33.2165 100.084 32.2276H102.1C101.765 33.6453 100.942 34.8969 99.7843 35.7733C98.589 36.6872 97.1149 37.1536 95.3246 37.1536C94.0194 37.1723 92.7115 36.8561 91.5725 36.2209C90.471 35.6045 89.5758 34.6718 88.9781 33.5515C88.3242 32.2999 88.0079 30.9197 88.0455 29.5207C88.0079 28.1217 88.3242 26.72 88.9594 25.471C89.5383 24.3508 90.4334 23.4181 91.535 22.8017C92.6928 22.1665 93.998 21.8502 95.3058 21.8878C96.595 21.8502 97.8814 22.1665 99.0205 22.8017C100.047 23.3806 100.905 24.2382 101.465 25.2834C102.044 26.3474 102.322 27.5428 102.322 28.7542C102.285 29.4081 102.266 29.912 102.229 30.2657H102.231ZM99.6932 25.8784C99.2456 25.1119 98.5916 24.4982 97.8091 24.1042C97.0077 23.6941 96.1099 23.4878 95.196 23.4878C93.8532 23.469 92.5641 23.9541 91.5752 24.8493C90.5862 25.7632 90.0261 27.0335 89.9135 28.6764H100.347C100.403 27.7062 100.178 26.736 99.6932 25.8757V25.8784Z" fill="#999999" stroke="#999999" stroke-width="0.5" stroke-linejoin="round"/>
<path d="M113.783 36.9476L107.661 30.2849V36.9476H105.758V16.8281H107.661V28.7358L113.632 22.1106H116.302L109.267 29.5023L116.358 36.9503H113.783V36.9476Z" fill="#999999" stroke="#999999" stroke-width="0.5" stroke-linejoin="round"/>
<path d="M121.287 23.7157V32.9352C121.287 33.8491 121.455 34.4656 121.809 34.8006C122.144 35.1543 122.761 35.3232 123.621 35.3232H125.358V36.9473H123.323C121.981 36.9473 120.989 36.6311 120.338 36.0147C119.684 35.3795 119.368 34.353 119.368 32.9352V23.7157H117.296V22.1103H119.349V18.377H121.27V22.1103H125.339V23.7157H121.289H121.287Z" fill="#999999" stroke="#999999" stroke-width="0.5" stroke-linejoin="round"/>
<path d="M128.528 25.4711C129.088 24.3508 129.965 23.4369 131.047 22.8017C132.168 22.1665 133.435 21.8503 134.725 21.869C136.014 21.8315 137.281 22.1665 138.383 22.8392C139.353 23.4369 140.12 24.2945 140.605 25.3398V22.0915H142.489V36.9285H140.586V33.6427C140.101 34.6879 139.316 35.5643 138.327 36.162C137.225 36.8535 135.957 37.1885 134.65 37.1509C133.379 37.1697 132.13 36.8347 131.029 36.1995C129.946 35.5643 129.07 34.6317 128.509 33.5114C127.874 32.2598 127.558 30.8795 127.596 29.4805C127.558 28.1003 127.874 26.7173 128.528 25.4684V25.4711ZM139.838 26.3662C139.391 25.4899 138.68 24.7609 137.842 24.2758C137.003 23.7907 136.03 23.528 135.06 23.5468C134.071 23.528 133.1 23.7719 132.24 24.257C131.401 24.7421 130.71 25.4523 130.281 26.31C129.777 27.2989 129.533 28.4004 129.552 29.502C129.533 30.6035 129.777 31.705 130.281 32.694C130.729 33.5703 131.401 34.2993 132.24 34.7844C133.098 35.2695 134.068 35.5134 135.06 35.4947C136.03 35.5134 137 35.2508 137.842 34.7657C138.699 34.2806 139.391 33.5516 139.838 32.6752C140.808 30.6785 140.808 28.3442 139.838 26.3662Z" fill="#999999" stroke="#999999" stroke-width="0.5" stroke-linejoin="round"/>
</g>
</svg>
