<svg width="204" height="54" viewBox="0 0 204 54" fill="none" xmlns="http://www.w3.org/2000/svg">
<mask id="mask0_869_5858" style="mask-type:alpha" maskUnits="userSpaceOnUse" x="0" y="0" width="204" height="54">
<rect width="204" height="54" fill="#D9D9D9"/>
</mask>
<g mask="url(#mask0_869_5858)">
<path d="M40.3752 12.0425H62.7922V14.6263L47.6656 36.0024H62.7922V41.211H40V38.0433L54.791 17.2088H40.3752V12.0425Z" fill="#999999"/>
<path d="M71.6269 12.0425H66.1672V41.211H71.6269V12.0425Z" fill="#999999"/>
<path d="M100.504 20.5007C100.504 22.7503 99.4203 24.9167 96.7123 26.1254C100.13 27.1677 101.379 30.7938 101.379 32.6259C101.379 39.1265 96.505 41.211 90.4628 41.211H76.6282V12.0425H90.4628C96.2117 12.0425 100.504 14.625 100.504 20.5007ZM82.0442 23.7503H90.4614C93.9198 23.7503 95.0452 22.2919 95.0452 20.6262C95.0452 19.2933 93.9621 17.0424 90.4614 17.0424H82.0442V23.7516V23.7503ZM82.0442 36.0843H90.4614C92.7111 36.0843 95.9197 35.3353 95.9197 32.5837C95.9197 29.832 92.7111 28.5837 90.4614 28.5837H82.0442V36.0843Z" fill="#999999"/>
<path d="M165 41.2108H158.457L149.957 29.7936H144.665V41.2108H139.164V12C143.79 12 148.416 12.0423 153.041 12.0423C159.916 12.0846 163.542 15.8335 163.542 20.8757C163.542 24.8769 161.708 28.0842 156.165 29.2097L165 40.8343V41.2108ZM144.665 17.1677V24.8347H153.041C156.542 24.8347 158.041 23.334 158.041 21.0012C158.041 18.6683 156.5 17.1677 153.041 17.1677H144.665Z" fill="#999999"/>
<mask id="mask1_869_5858" style="mask-type:luminance" maskUnits="userSpaceOnUse" x="100" y="12" width="35" height="6">
<path d="M103.209 12.1421C101.79 12.1421 100.641 13.2908 100.641 14.7096C100.641 16.1284 101.79 17.2757 103.209 17.2757H132.298C133.716 17.2757 134.866 16.1256 134.866 14.7096C134.866 13.2935 133.717 12.1421 132.298 12.1421H103.209Z" fill="white"/>
</mask>
<g mask="url(#mask1_869_5858)">
<path d="M134.866 12.1436H100.641V17.2771H134.866V12.1436Z" fill="#999999"/>
</g>
<mask id="mask2_869_5858" style="mask-type:luminance" maskUnits="userSpaceOnUse" x="100" y="24" width="27" height="6">
<path d="M103.209 24.0615C101.79 24.0615 100.641 25.2102 100.641 26.629C100.641 28.0478 101.79 29.1965 103.209 29.1965H124.431C125.847 29.1965 126.997 28.0478 126.997 26.629C126.997 25.2102 125.848 24.0615 124.431 24.0615H103.209Z" fill="white"/>
</mask>
<g mask="url(#mask2_869_5858)">
<path d="M126.998 24.0615H100.641V29.1951H126.998V24.0615Z" fill="#999999"/>
</g>
<mask id="mask3_869_5858" style="mask-type:luminance" maskUnits="userSpaceOnUse" x="100" y="35" width="35" height="7">
<path d="M103.209 35.9805C101.79 35.9805 100.641 37.1291 100.641 38.5479C100.641 39.9667 101.79 41.1154 103.209 41.1154H132.298C133.716 41.1154 134.866 39.9654 134.866 38.5479C134.866 37.1305 133.717 35.9805 132.298 35.9805H103.209Z" fill="white"/>
</mask>
<g mask="url(#mask3_869_5858)">
<path d="M134.866 35.9805H100.641V41.1141H134.866V35.9805Z" fill="#999999"/>
</g>
</g>
</svg>
