<svg width="183" height="54" viewBox="0 0 183 54" fill="none" xmlns="http://www.w3.org/2000/svg">
<mask id="mask0_869_5769" style="mask-type:alpha" maskUnits="userSpaceOnUse" x="0" y="0" width="183" height="54">
<rect width="183" height="54" fill="#D9D9D9"/>
</mask>
<g mask="url(#mask0_869_5769)">
<path d="M32.2238 34.2728C32.1441 34.0058 32.11 33.885 32.071 33.7657C31.7343 32.7389 31.3163 31.7295 31.0757 30.682C30.5959 28.5981 29.4672 26.964 27.758 25.6781C27.6132 25.57 27.4766 25.4508 27.3221 25.3236C27.3465 24.6035 27.7872 24.1394 28.3158 23.7452C28.9761 23.2508 29.7518 22.9997 30.5536 22.8264C31.9457 22.526 33.3639 22.4243 34.7837 22.3861C36.0717 22.3511 37.363 22.3639 38.651 22.3543C40.1277 22.3432 41.5979 22.2621 43.0307 21.8822C45.1791 21.3132 47.1014 20.3531 48.6187 18.7142C49.0042 18.2978 49.3457 17.8511 49.5945 17.2646C49.1164 17.1215 48.6984 17.1978 48.2919 17.1787C47.9764 17.1644 47.656 17.1899 47.347 17.1422C46.9664 17.0849 46.7208 16.7782 46.7257 16.4475C46.7306 16.1455 46.942 15.8626 47.29 15.7847C47.5421 15.7275 47.8105 15.7259 48.0723 15.7259C50.0467 15.7211 52.0194 15.7243 53.9937 15.7227C54.2035 15.7227 54.4166 15.7275 54.6247 15.7036C54.9289 15.6687 55.1045 15.4843 55.0947 15.1854C55.085 14.9263 54.9256 14.7483 54.6556 14.7181C54.3954 14.6879 54.1303 14.6847 53.8685 14.6847C50.7639 14.6831 47.6576 14.6847 44.553 14.6815C44.2651 14.6815 43.9707 14.6847 43.6894 14.6354C43.3072 14.5671 43.0665 14.2683 43.0714 13.9392C43.0746 13.6102 43.3283 13.3272 43.7121 13.2621C43.9171 13.2271 44.1317 13.2366 44.3415 13.2366C47.9471 13.2382 51.5526 13.2494 55.1565 13.2414C57.2919 13.2366 59.411 13.0491 61.4959 12.569C62.3319 12.3767 62.9629 12.6564 63.4117 13.4083C63.8427 14.1316 63.8021 14.8087 63.2459 15.3968C62.9255 15.7354 62.5726 16.0517 62.2018 16.3347C60.1071 17.9322 57.9994 19.517 55.8998 21.1097C55.5257 21.3926 55.1598 21.6867 54.802 21.9903C53.5725 23.0331 52.7594 24.3254 52.3772 25.8784C51.9787 27.5029 51.6128 29.137 51.1591 30.7472C50.5411 32.9328 49.7572 35.066 48.5586 37.0196C48.0739 37.8096 47.508 38.5614 46.8965 39.264C45.9028 40.4037 44.6375 41.2049 43.1787 41.6452C41.8744 42.0378 40.5359 42.3223 39.2089 42.645C39.0072 42.6943 38.7909 42.707 38.5811 42.7102C37.7078 42.7245 37.1939 42.4034 36.8735 41.6086C36.7108 41.2033 36.6051 40.7757 36.475 40.3576C36.4214 40.1859 36.3775 40.0111 36.3205 39.8394C35.818 38.3119 35.7578 38.2705 34.112 38.2705C31.9278 38.2705 29.7437 38.2721 27.5596 38.2689C27.2717 38.2689 26.979 38.2642 26.6944 38.2181C26.2471 38.145 25.9934 37.87 25.9934 37.5139C25.9934 37.1531 26.2487 36.8749 26.6927 36.8113C26.9773 36.7716 27.2701 36.7764 27.5596 36.7764C30.6382 36.7748 33.7168 36.7764 36.797 36.7732C37.0589 36.7732 37.324 36.7636 37.5826 36.7287C37.8541 36.6905 37.9956 36.5109 37.9924 36.2439C37.9891 35.9752 37.8314 35.8035 37.5712 35.7606C37.3402 35.7225 37.0995 35.7257 36.8637 35.7241C34.917 35.7209 32.9687 35.7241 31.022 35.7225C30.8122 35.7225 30.5991 35.732 30.391 35.7082C29.9437 35.6589 29.6673 35.4046 29.6461 35.0453C29.625 34.6686 29.9177 34.3586 30.3926 34.2982C30.6512 34.2649 30.9179 34.2776 31.1814 34.2744C31.492 34.2712 31.8042 34.2744 32.2303 34.2744L32.2238 34.2728Z" fill="#999999"/>
<path d="M131.847 26.1757C132.367 26.7559 132.813 27.2551 133.262 27.7542C133.696 28.2358 134.146 28.7047 134.566 29.1991C134.994 29.7046 135.513 30.1433 135.911 30.7982C135.651 30.8633 135.49 30.9365 135.327 30.9396C134.618 30.9524 133.906 30.9301 133.197 30.9524C132.788 30.9651 132.502 30.8109 132.244 30.5168C131.284 29.4248 130.282 28.3677 129.354 27.2503C128.866 26.6637 128.349 26.3188 127.55 26.4301C127.192 26.4809 126.82 26.438 126.365 26.438C126.322 26.7559 126.26 27.023 126.256 27.29C126.243 28.1643 126.256 29.0385 126.247 29.9128C126.244 30.2148 126.2 30.5168 126.169 30.8792C125.267 30.9842 124.418 30.9683 123.504 30.892C123.468 30.6233 123.421 30.4008 123.413 30.1782C123.275 26.2759 123.359 17.9673 123.564 17.2409C123.893 17.2186 124.252 17.1693 124.61 17.1725C126.423 17.1868 128.238 17.2202 130.051 17.2329C130.795 17.2377 131.517 17.3235 132.218 17.5778C134.02 18.2327 135.153 19.7651 135.166 21.6471C135.169 22.2066 135.122 22.7836 134.976 23.3225C134.66 24.4797 133.902 25.3063 132.779 25.7974C132.518 25.9119 132.25 26.0104 131.844 26.171L131.847 26.1757ZM126.43 19.8779C126.376 19.9542 126.321 19.9956 126.321 20.0369C126.299 21.1909 126.28 22.3449 126.273 23.4989C126.273 23.7739 126.456 23.9202 126.734 23.9186C128.048 23.9122 129.365 23.9472 130.676 23.8693C131.427 23.8248 131.979 23.3686 132.253 22.6438C132.772 21.2672 131.904 19.8922 130.404 19.8239C129.172 19.7683 127.932 19.8128 126.698 19.8175C126.599 19.8175 126.499 19.862 126.433 19.8779H126.43Z" fill="#999999"/>
<path d="M67.222 17.3207C67.5115 17.2873 67.7148 17.2444 67.9181 17.2428C69.6534 17.2412 71.387 17.2237 73.1223 17.2539C76.8206 17.3191 79.4552 19.8195 79.7138 23.5931C79.8406 25.4481 79.3918 27.168 78.1818 28.6447C77.0499 30.0276 75.5276 30.7858 73.7615 30.8875C71.7188 31.0036 69.6631 30.9289 67.614 30.9305C67.5148 30.9305 67.4156 30.8859 67.2399 30.843C67.2172 30.6014 67.1732 30.355 67.1732 30.1087C67.1684 26.1014 67.17 22.0925 67.1732 18.0853C67.1732 17.858 67.2025 17.6306 67.2237 17.3191L67.222 17.3207ZM70.0453 28.2298C70.0876 28.2552 70.1315 28.3029 70.1771 28.3061C71.4635 28.3983 72.7564 28.4349 74.0184 28.1535C75.2495 27.8785 76.1131 27.1203 76.5847 25.9631C77.0613 24.7932 77.0743 23.6042 76.6498 22.4216C76.157 21.0498 75.1877 20.1469 73.6997 19.953C72.6653 19.8179 71.6066 19.856 70.5576 19.829C70.3836 19.8242 70.208 19.8799 70.0486 19.9053C69.8941 20.6238 69.899 27.594 70.0453 28.2298Z" fill="#999999"/>
<path d="M36.924 13.2223C39.5847 14.7229 40.9752 16.9626 40.5101 18.9654C39.3407 19.2054 38.1308 19.1307 36.9338 19.2007C39.7327 19.4772 42.5235 19.4486 45.3516 19.0655C45.2313 19.1784 45.1239 19.3103 44.9873 19.4025C43.9871 20.0717 42.8666 20.4628 41.6729 20.5454C40.3377 20.6376 38.9943 20.6217 37.6543 20.6233C35.9173 20.6249 34.1804 20.5406 32.4468 20.5995C30.9343 20.6503 29.4934 21.0747 28.1484 21.7725C27.9419 21.8791 27.7353 21.984 27.4133 22.1477C27.4719 21.9172 27.4621 21.7503 27.5418 21.6756C28.0134 21.2337 28.4753 20.7727 29.0022 20.4024C29.3486 20.1592 29.5227 19.9318 29.43 19.5186C28.8689 17.0039 30.3147 13.7374 33.499 12.5213C33.5706 12.4943 33.634 12.4466 33.7397 12.3862C33.7397 12.2018 33.7153 11.9968 33.7446 11.8013C33.8064 11.3912 34.1154 11.0812 34.509 11.016C34.9188 10.9477 35.3156 11.0987 35.4295 11.4532C35.6409 12.1096 36.1515 12.1065 36.6752 12.1637C39.5359 12.4768 41.9673 14.8421 42.2876 17.6302C42.3234 17.9354 42.3137 18.2469 42.2958 18.5537C42.2828 18.7651 42.1185 18.8923 41.9168 18.8462C41.7981 18.8192 41.6485 18.6809 41.6192 18.5664C41.533 18.2437 41.5233 17.9036 41.4468 17.5793C40.9085 15.2888 39.4611 13.8407 37.1631 13.1921C37.1192 13.1794 37.0639 13.2033 36.9257 13.2223H36.924Z" fill="#999999"/>
<path d="M157.361 27.0262C154.866 27.077 152.43 27.0214 149.979 27.0596C149.865 27.4871 150.088 27.7494 150.301 27.9942C150.769 28.5315 151.397 28.7747 152.101 28.8414C153.097 28.9368 154.038 28.7763 154.899 28.2501C155.007 28.1834 155.128 28.1373 155.312 28.0483C155.811 28.5235 156.312 29.0004 156.77 29.4359C156.74 29.8667 156.468 30.0129 156.234 30.156C154.079 31.4642 151.839 31.62 149.561 30.5105C148.587 30.0352 147.923 29.2357 147.533 28.2358C147.069 27.05 146.98 25.8372 147.294 24.6021C147.8 22.6088 149.491 21.1703 151.62 20.997C152.319 20.9398 153.048 20.9588 153.736 21.086C155.843 21.4786 157.148 22.8933 157.406 24.9756C157.457 25.3826 157.478 25.7959 157.481 26.206C157.481 26.4317 157.418 26.6574 157.361 27.0278V27.0262ZM150.002 24.7928C150.851 24.947 151.633 24.8787 152.405 24.8676C153.196 24.8548 154.004 24.9947 154.791 24.7579C154.557 23.7962 153.916 23.3225 152.818 23.2287C151.508 23.1159 150.504 23.6388 150.002 24.7928Z" fill="#999999"/>
<path d="M138.655 27.0961C138.791 27.9656 139.323 28.4011 140.008 28.6427C141.124 29.0369 142.231 28.9304 143.3 28.4313C143.534 28.3216 143.76 28.1961 144.025 28.0594C144.612 28.5092 145.136 28.9908 145.588 29.5663C145.207 30.1035 144.7 30.3785 144.178 30.6106C142.555 31.3291 140.878 31.4403 139.183 30.8983C137.271 30.2879 136.017 28.6682 135.901 26.6049C135.862 25.8976 135.916 25.1552 136.095 24.4701C136.607 22.5055 138.326 21.148 140.431 20.9874C141.029 20.9413 141.647 20.9382 142.239 21.0256C144.552 21.3689 146.001 22.941 146.196 25.2649C146.225 25.6226 146.225 25.985 146.212 26.3426C146.19 26.9642 146.12 27.0214 145.456 27.0452C145.272 27.0516 145.089 27.0468 144.905 27.0468C143.117 27.0468 141.33 27.0452 139.543 27.0484C139.265 27.0484 138.987 27.077 138.658 27.0945L138.655 27.0961ZM138.778 24.796C139.931 24.9566 142.971 24.9073 143.514 24.7277C143.355 23.8168 142.652 23.3018 141.465 23.2239C140.14 23.1365 139.105 23.7278 138.778 24.796Z" fill="#999999"/>
<path d="M83.529 27.0483C83.69 27.9496 84.2039 28.3644 84.8577 28.6156C85.9685 29.0432 87.0727 28.9303 88.1461 28.4535C88.3835 28.3485 88.608 28.215 88.8731 28.0767C89.4862 28.4757 90.0034 28.9653 90.4994 29.6011C90.2733 29.803 90.0896 30.0192 89.8586 30.1606C87.8192 31.4148 85.6611 31.6119 83.4721 30.6375C81.7286 29.8618 80.9399 28.3819 80.7903 26.573C80.7431 25.9928 80.7935 25.3872 80.9106 24.815C81.353 22.642 83.0931 21.1463 85.3553 20.9825C85.9538 20.9396 86.5718 20.938 87.1622 21.0286C89.4813 21.3895 90.9125 22.96 91.0897 25.2886C91.1206 25.6972 91.0995 26.1104 91.0995 26.5206C91.0995 26.8703 90.9076 27.0324 90.5596 27.0356C90.3498 27.0372 90.14 27.0435 89.9285 27.0435C88.1152 27.0435 86.3019 27.0435 84.4885 27.0435C84.2055 27.0435 83.9209 27.0435 83.529 27.0435V27.0483ZM88.4925 24.8102C88.3819 24.195 88.0989 23.8755 87.7151 23.6307C86.7654 23.0251 85.1992 23.0935 84.3145 23.7897C83.9909 24.044 83.6932 24.327 83.6591 24.8515C85.2724 24.8754 86.845 24.9342 88.4925 24.8118V24.8102Z" fill="#999999"/>
<path d="M114.294 27.0929C114.516 27.9942 115.036 28.4377 115.742 28.6666C116.84 29.0226 117.921 28.9225 118.962 28.4345C119.196 28.3248 119.422 28.1993 119.713 28.0498C120.222 28.5346 120.725 29.0115 121.301 29.5599C121.044 29.7936 120.866 30.0145 120.639 30.1544C118.482 31.4706 116.23 31.6422 113.968 30.4962C112.445 29.7252 111.746 28.3487 111.577 26.7241C111.518 26.1678 111.531 25.5844 111.629 25.0345C112.06 22.6024 113.924 21.0447 116.456 20.9684C116.953 20.9541 117.462 20.9509 117.95 21.032C120.271 21.4119 121.675 22.9553 121.871 25.3142C121.901 25.6719 121.902 26.0343 121.884 26.3935C121.858 26.9387 121.777 27.0119 121.232 27.0436C121.049 27.0548 120.865 27.0484 120.679 27.0484C118.864 27.0484 117.049 27.0484 115.233 27.05C114.953 27.05 114.673 27.0754 114.293 27.0929H114.294ZM119.261 24.831C118.886 23.6325 117.942 23.1095 116.599 23.2287C115.423 23.3336 114.597 23.9472 114.488 24.8532C116.057 24.8787 117.619 24.9152 119.26 24.831H119.261Z" fill="#999999"/>
<path d="M162.233 23.6959C162.139 24.5432 162.196 25.3348 162.184 26.1232C162.175 26.8941 162.184 27.665 162.181 28.436C162.178 29.226 162.168 30.0144 162.16 30.8553C161.305 31.0111 160.534 30.9475 159.681 30.9077C159.646 30.5676 159.59 30.2703 159.589 29.9747C159.581 28.2277 159.584 26.4792 159.584 24.7323C159.584 24.4271 159.584 24.1219 159.584 23.7309C159.156 23.7007 158.802 23.6737 158.447 23.6498C157.891 23.6117 157.824 23.556 157.806 23.0029C157.792 22.5181 157.803 22.0332 157.803 21.4658C158.395 21.3879 158.922 21.3195 159.481 21.2448C159.519 21.0445 159.555 20.8745 159.582 20.7012C159.634 20.3706 159.657 20.0352 159.732 19.7109C160.083 18.204 161.213 17.2296 162.897 17.0166C164.007 16.8751 165.021 17.166 165.99 17.7891C165.819 18.479 165.466 19.0338 165.125 19.6569C164.837 19.5488 164.599 19.4566 164.36 19.3707C163.144 18.9384 162.336 19.4359 162.21 20.6933C162.16 21.2035 162.254 21.3132 162.817 21.3338C163.237 21.3497 163.658 21.3307 164.079 21.3418C164.364 21.3497 164.647 21.3799 164.939 21.4006C165.206 22.0396 165.102 22.6532 165.065 23.2572C165.047 23.5386 164.832 23.6387 164.567 23.6419C164.094 23.6466 163.62 23.6451 163.147 23.653C162.866 23.6578 162.584 23.6784 162.232 23.6959H162.233Z" fill="#999999"/>
<path d="M111.219 21.3354C111.139 21.5818 111.087 21.7996 110.999 22.003C109.814 24.7482 108.605 27.4854 107.447 30.2433C107.195 30.8457 106.842 31.0873 106.203 31.0333C105.837 31.0015 105.467 31.0063 105.099 31.0317C104.543 31.0683 104.248 30.8187 104.04 30.3228C103.25 28.4455 102.425 26.5825 101.614 24.7148C101.214 23.7929 100.81 22.8709 100.417 21.9458C100.339 21.763 100.293 21.5659 100.207 21.2957C100.487 21.2543 100.708 21.2003 100.932 21.1908C101.352 21.1749 101.775 21.2098 102.194 21.1796C102.757 21.1399 103.047 21.3863 103.242 21.8933C103.87 23.529 104.536 25.1503 105.185 26.7765C105.336 27.1564 105.483 27.5394 105.649 27.9639C105.966 27.8081 105.976 27.5347 106.062 27.3153C106.766 25.543 107.486 23.777 108.155 21.9919C108.381 21.3879 108.724 21.1145 109.376 21.1812C109.965 21.2416 110.575 21.0779 111.219 21.3354Z" fill="#999999"/>
<path d="M94.9782 30.9318C94.2187 30.9318 93.5438 30.9366 92.8673 30.9286C92.6184 30.9255 92.4851 30.7776 92.4721 30.5376C92.4607 30.3326 92.4526 30.1275 92.4526 29.9224C92.4526 26.0439 92.4509 22.1654 92.4542 18.2869C92.4542 17.9865 92.49 17.6845 92.5095 17.3602C93.3422 17.1631 94.113 17.2728 94.9571 17.2759C94.9896 17.5907 95.0384 17.8355 95.0384 18.0819C95.0433 22.0891 95.0433 26.0964 95.0384 30.1021C95.0384 30.3278 95.0042 30.5551 94.975 30.9302L94.9782 30.9318Z" fill="#999999"/>
<path d="M96.6959 21.3003C97.5009 21.0968 98.2295 21.1493 98.9516 21.2351C99.0736 21.2494 99.2216 21.4609 99.2655 21.6087C99.324 21.7994 99.2948 22.0156 99.2948 22.2207C99.2948 24.7894 99.2948 27.3581 99.2948 29.9268C99.2948 30.0556 99.298 30.1843 99.2899 30.3115C99.2541 30.8567 99.1939 30.9298 98.6329 30.941C98.036 30.9537 97.4375 30.9314 96.7626 30.9251C96.6357 30.0667 96.7089 29.2751 96.6959 28.4899C96.6829 27.6935 96.6927 26.8971 96.6927 26.1008V21.3003H96.6959Z" fill="#999999"/>
<path d="M155.131 35.9724C155.131 35.4542 155.126 35.0203 155.133 34.5847C155.136 34.4067 155.12 34.2096 155.19 34.0554C155.237 33.9505 155.416 33.8567 155.543 33.8456C155.629 33.8376 155.78 33.9648 155.813 34.0602C155.868 34.2255 155.865 34.413 155.865 34.5927C155.868 36.0821 155.866 37.5715 155.866 39.0625C155.866 39.1134 155.868 39.1658 155.865 39.2167C155.847 39.4408 155.907 39.7094 155.611 39.8032C155.281 39.9065 155.159 39.6522 155.076 39.409C153.715 40.0909 152.593 39.9781 151.887 39.1197C151.231 38.3218 151.225 37.0501 151.87 36.2506C152.566 35.389 153.694 35.2666 155.131 35.9724ZM153.669 39.1833C154.51 39.1738 155.117 38.5538 155.125 37.6923C155.134 36.8006 154.499 36.1536 153.625 36.1663C152.741 36.179 152.163 36.8101 152.188 37.7352C152.21 38.6111 152.806 39.1928 153.669 39.1849V39.1833Z" fill="#999999"/>
<path d="M88.5253 35.7625C89.1352 35.6496 89.5922 35.505 90.0524 35.4923C90.9859 35.4669 91.6397 35.9612 91.7601 36.8641C91.8707 37.6986 91.8316 38.5538 91.8446 39.3994C91.8479 39.6188 91.7536 39.8111 91.4852 39.8222C91.1697 39.8365 91.0868 39.6235 91.0705 39.3724C91.0575 39.1673 91.0608 38.9607 91.0591 38.7556C91.0542 38.2676 91.0705 37.7781 91.0412 37.2917C90.999 36.5668 90.6021 36.1933 89.9061 36.1742C89.1872 36.1551 88.6506 36.543 88.5725 37.217C88.5107 37.751 88.5432 38.2947 88.527 38.8335C88.5204 39.064 88.5123 39.2961 88.4765 39.5234C88.4456 39.7253 88.2976 39.8636 88.0895 39.8079C87.9642 39.7745 87.8358 39.6474 87.7707 39.5313C87.7138 39.4296 87.7317 39.2802 87.7317 39.153C87.7301 37.6112 87.7301 36.0693 87.7317 34.5258C87.7317 34.3971 87.704 34.2445 87.7642 34.1475C87.8472 34.0156 88.0065 33.8391 88.1285 33.8423C88.2521 33.8455 88.4342 34.0251 88.4782 34.1602C88.5448 34.3748 88.5237 34.6164 88.5286 34.8485C88.5351 35.1521 88.5286 35.4541 88.5286 35.7625H88.5253Z" fill="#999999"/>
<path d="M119.788 38.7493C120.133 39.1562 120.133 39.2421 119.793 39.4884C118.816 40.1942 116.643 40.0575 116.186 38.22C115.817 36.7322 116.901 35.4112 118.416 35.4812C119.442 35.5289 120.248 36.2394 120.413 37.2408C120.496 37.7463 120.383 37.9196 119.866 37.945C119.211 37.9768 118.552 37.9529 117.897 37.9656C117.62 37.9704 117.344 38.0054 117.064 38.0276C117.22 39.2293 118.261 39.4853 119.79 38.7493H119.788ZM117.046 37.2392C117.942 37.3998 119.011 37.3712 119.549 37.1852C119.412 36.4731 119.001 36.1472 118.261 36.1615C117.555 36.1758 117.18 36.4969 117.048 37.2392H117.046Z" fill="#999999"/>
<path d="M94.0823 38.0192C94.3198 39.0032 95.2386 39.4371 96.1705 39.0747C96.3396 39.0095 96.486 38.8728 96.6584 38.8315C96.782 38.8013 96.9902 38.8315 97.0552 38.9142C97.1219 39 97.0715 39.1812 97.0536 39.3195C97.0487 39.3592 96.9837 39.3926 96.9446 39.426C96.2925 39.9855 95.0126 40.0316 94.201 39.5261C93.383 39.0175 93.0155 37.9986 93.2936 37.0146C93.5521 36.1006 94.3458 35.4982 95.3199 35.4791C96.647 35.4505 97.5578 36.4217 97.4455 37.8333C96.3771 38.1305 95.2386 37.838 94.0823 38.0192ZM96.6714 37.2912C96.4665 36.4424 96.0209 36.115 95.2565 36.1642C94.567 36.2087 94.1913 36.568 94.11 37.2912H96.673H96.6714Z" fill="#999999"/>
<path d="M136.414 34.896V36.6731C136.742 36.7128 136.991 36.7605 137.242 36.7685C137.741 36.7844 138.24 36.7685 138.738 36.7828C138.995 36.7907 139.307 36.7828 139.291 37.1643C139.276 37.4869 139.003 37.4917 138.767 37.4981C138.321 37.5124 137.874 37.5028 137.427 37.5108C137.141 37.5156 136.856 37.5362 136.482 37.5521C136.458 37.913 136.43 38.234 136.414 38.5551C136.396 38.8873 136.414 39.2243 136.362 39.5518C136.345 39.6551 136.154 39.795 136.036 39.7998C135.919 39.8045 135.739 39.6901 135.685 39.5804C135.61 39.4278 135.607 39.2323 135.607 39.0543C135.602 37.6682 135.594 36.2805 135.607 34.8944C135.614 34.1791 135.693 34.1139 136.438 34.1044C137.253 34.0948 138.066 34.1012 138.881 34.1012C138.959 34.1012 139.039 34.1012 139.117 34.106C139.356 34.1203 139.623 34.1203 139.637 34.4398C139.652 34.7656 139.395 34.7879 139.149 34.7974C138.965 34.8038 138.782 34.8022 138.598 34.8022C138.099 34.8022 137.599 34.7958 137.1 34.807C136.898 34.8117 136.698 34.8562 136.411 34.8928L136.414 34.896Z" fill="#999999"/>
<path d="M142.737 35.4795C144.038 35.4954 144.954 36.4126 144.945 37.6937C144.937 38.9972 143.968 39.908 142.623 39.8762C141.34 39.8444 140.426 38.897 140.449 37.6222C140.471 36.3633 141.431 35.4652 142.735 35.4811L142.737 35.4795ZM141.259 37.689C141.263 38.5775 141.833 39.1752 142.683 39.1832C143.57 39.1911 144.194 38.5569 144.184 37.6604C144.175 36.7623 143.54 36.1455 142.652 36.1678C141.794 36.19 141.254 36.7782 141.259 37.689Z" fill="#999999"/>
<path d="M74.1909 39.8745C72.9224 39.8523 71.9515 38.8827 71.9677 37.6523C71.984 36.3871 73.0069 35.4444 74.321 35.481C75.5977 35.516 76.5263 36.484 76.4889 37.7398C76.4515 38.9971 75.4822 39.8968 74.1909 39.8745ZM75.705 37.7827C75.757 36.8671 75.1797 36.1979 74.3096 36.1677C73.4363 36.1375 72.8167 36.7034 72.776 37.5681C72.7321 38.4996 73.2916 39.1497 74.1665 39.1831C75.0333 39.2165 75.6562 38.6506 75.705 37.7827Z" fill="#999999"/>
<path d="M108.379 39.8742C107.096 39.8806 106.127 38.957 106.104 37.7092C106.081 36.4344 107.072 35.468 108.389 35.4791C109.667 35.4886 110.625 36.4328 110.622 37.6806C110.619 38.9284 109.657 39.8679 108.379 39.8742ZM109.827 37.6679C109.825 36.7809 109.252 36.1801 108.397 36.1658C107.507 36.1515 106.891 36.7714 106.894 37.6806C106.896 38.5867 107.517 39.2018 108.412 39.1812C109.264 39.1621 109.83 38.5565 109.828 37.6663L109.827 37.6679Z" fill="#999999"/>
<path d="M126.15 39.8748C124.88 39.8573 123.907 38.8908 123.919 37.6605C123.93 36.3952 124.948 35.4495 126.264 35.4812C127.542 35.513 128.472 36.4747 128.44 37.7321C128.407 38.9878 127.44 39.8939 126.15 39.8748ZM126.225 36.1663C125.358 36.152 124.751 36.7306 124.725 37.6017C124.696 38.53 125.27 39.1658 126.153 39.1833C127.045 39.2008 127.661 38.5841 127.659 37.6717C127.659 36.791 127.077 36.1807 126.227 36.1663H126.225Z" fill="#999999"/>
<path d="M148.234 35.4792C149.506 35.5062 150.46 36.4758 150.434 37.7157C150.407 38.9873 149.39 39.9156 148.073 39.8727C146.8 39.8314 145.895 38.8681 145.933 37.5965C145.97 36.3391 146.935 35.4506 148.236 35.4792H148.234ZM149.629 37.6903C149.636 36.7651 149.044 36.1563 148.148 36.1643C147.309 36.1722 146.7 36.7969 146.692 37.6585C146.684 38.5518 147.315 39.1924 148.193 39.1829C149.052 39.1733 149.623 38.5804 149.629 37.6903Z" fill="#999999"/>
<path d="M67.9555 36.743C68.5638 36.7542 69.0826 36.7605 69.5997 36.7748C69.9136 36.7844 70.234 36.7812 70.5398 36.8368C70.652 36.8575 70.8081 37.0355 70.8065 37.142C70.8065 37.2485 70.652 37.4234 70.5381 37.4472C70.2584 37.5044 69.9657 37.5012 69.6762 37.5076C69.1314 37.5203 68.5882 37.5251 67.962 37.5346C67.9441 38.029 67.9295 38.4327 67.9132 38.8349C67.9051 39.0654 67.9295 39.3054 67.8742 39.5248C67.8449 39.6376 67.6856 39.768 67.562 39.7982C67.3522 39.849 67.2188 39.7123 67.1879 39.5025C67.1733 39.4008 67.1668 39.2974 67.1668 39.1957C67.1668 37.7031 67.1651 36.2121 67.17 34.7195C67.17 34.5701 67.2139 34.4191 67.2432 34.2315C67.4237 34.1902 67.5961 34.1171 67.7701 34.1155C68.6906 34.1028 69.6111 34.1075 70.5332 34.1091C70.6373 34.1091 70.7447 34.1155 70.8471 34.133C71.0537 34.1695 71.2082 34.2919 71.1496 34.4986C71.1171 34.613 70.9658 34.7434 70.8439 34.7752C70.6455 34.826 70.4259 34.8054 70.2161 34.807C69.6371 34.8101 69.0582 34.7958 68.4792 34.8149C68.0076 34.8308 67.9344 34.9023 67.9214 35.3697C67.9084 35.7972 67.9393 36.228 67.9523 36.7446L67.9555 36.743Z" fill="#999999"/>
<path d="M27.6912 16.7498C27.5172 16.9199 27.431 17.0439 27.3123 17.1154C26.6927 17.4873 26.0096 17.667 25.2892 17.6431C24.1898 17.6066 23.0904 17.5478 21.9926 17.473C20.6916 17.3824 19.423 17.4317 18.2505 18.0818C18.1952 18.112 18.1073 18.085 18 18.085C18.039 17.7115 18.2992 17.5319 18.5399 17.3522C19.2962 16.7895 20.1695 16.5082 21.1046 16.5098C21.9389 16.5114 22.7765 16.5972 23.6075 16.6942C24.837 16.8388 26.0617 16.8722 27.2912 16.7164C27.3839 16.7053 27.4831 16.7307 27.6912 16.7498Z" fill="#999999"/>
<path d="M99.4802 18.6331C99.4835 19.4629 98.8508 20.0891 97.9954 20.1035C97.1139 20.1178 96.4406 19.4565 96.4601 18.5966C96.4796 17.7748 97.1529 17.1421 97.9921 17.158C98.8524 17.1739 99.4753 17.7922 99.4786 18.6331H99.4802Z" fill="#999999"/>
<path d="M129.868 36.3856C129.674 36.0852 129.144 36.2251 129.24 35.8214C129.284 35.6322 129.573 35.5003 129.856 35.2475C129.887 35.1204 129.933 34.8406 130.027 34.5783C130.286 33.863 131.268 33.5181 131.925 33.9171C132.031 33.9807 132.132 34.173 132.109 34.2795C132.088 34.3733 131.896 34.4432 131.767 34.4941C131.704 34.5195 131.614 34.4702 131.536 34.4686C130.822 34.4464 130.71 34.5767 130.796 35.4208C131.057 35.451 131.335 35.4796 131.611 35.5162C131.816 35.5432 131.988 35.6481 131.93 35.8627C131.899 35.9755 131.74 36.1027 131.616 36.1329C131.369 36.1933 131.104 36.1917 130.787 36.2203C130.759 36.4715 130.715 36.6924 130.712 36.915C130.702 37.6096 130.712 38.3027 130.704 38.9973C130.702 39.2007 130.704 39.4201 130.629 39.6013C130.587 39.7046 130.396 39.7937 130.265 39.8048C130.17 39.8127 130.013 39.6983 129.977 39.6045C129.913 39.4424 129.908 39.2532 129.905 39.0752C129.897 38.4076 129.905 37.7384 129.9 37.0692C129.899 36.8148 129.878 36.5621 129.869 36.3809L129.868 36.3856Z" fill="#999999"/>
<path d="M115.538 35.6561C115.491 35.8294 115.465 36.0042 115.395 36.1616C114.924 37.2203 114.442 38.2757 113.962 39.3312C113.92 39.425 113.879 39.5219 113.819 39.6046C113.572 39.9416 113.151 39.9336 112.909 39.5823C112.835 39.4774 112.79 39.3534 112.736 39.2374C112.279 38.228 111.819 37.2203 111.368 36.2093C111.289 36.0297 111.246 35.8342 111.186 35.6418C111.799 35.5004 111.829 35.4972 112.035 35.9216C112.305 36.4779 112.543 37.0486 112.798 37.6129C112.965 37.9832 113.141 38.3488 113.383 38.8702C113.564 38.4855 113.679 38.2408 113.792 37.996C114.115 37.2934 114.431 36.5892 114.761 35.8898C114.914 35.5655 115.145 35.4177 115.542 35.6593L115.538 35.6561Z" fill="#999999"/>
<path d="M85.0205 35.4476C85.3426 35.4747 85.5768 35.489 85.8109 35.5176C86.0126 35.5414 86.1915 35.6416 86.1362 35.8577C86.1069 35.9706 85.9524 36.1041 85.8305 36.1343C85.5833 36.1963 85.3182 36.1947 84.9945 36.2265C84.8693 37.061 84.9181 37.8765 84.9571 38.6872C84.9734 39.0162 85.2173 39.1767 85.5507 39.1815C85.6808 39.1815 85.8142 39.1704 85.9394 39.1386C86.1541 39.0845 86.3102 39.1338 86.3639 39.3516C86.4192 39.5725 86.2663 39.6727 86.0874 39.7537C85.2076 40.1591 84.2708 39.6759 84.1602 38.7253C84.1033 38.2437 84.1326 37.7509 84.1261 37.2629C84.1228 36.9577 84.1261 36.6509 84.1261 36.4204C84.022 36.3092 83.9943 36.2631 83.9521 36.2361C83.7683 36.1216 83.4528 36.1884 83.4235 35.8625C83.4072 35.6734 83.4869 35.605 84.0496 35.3586C84.0919 35.2029 84.1066 35.0121 84.196 34.8659C84.2627 34.7562 84.4302 34.637 84.5489 34.6417C84.6676 34.6465 84.8238 34.7753 84.8856 34.8897C84.9669 35.0391 84.9718 35.2267 85.0189 35.4492L85.0205 35.4476Z" fill="#999999"/>
<path d="M102.37 39.169C103.131 39.169 103.785 39.1674 104.437 39.169C104.673 39.169 104.917 39.1515 105.143 39.2024C105.26 39.2294 105.421 39.382 105.428 39.4869C105.434 39.5918 105.281 39.7969 105.187 39.8048C104.016 39.8875 102.843 39.9002 101.637 39.7953C101.612 39.4758 101.583 39.2485 101.581 39.0228C101.577 37.6605 101.578 36.2967 101.581 34.9344C101.581 34.7803 101.585 34.6261 101.603 34.4735C101.627 34.2668 101.747 34.1492 101.97 34.1587C102.196 34.1683 102.295 34.3034 102.31 34.5069C102.323 34.6865 102.326 34.8661 102.328 35.0457C102.328 36.1266 102.328 37.2059 102.331 38.2868C102.331 38.538 102.354 38.7907 102.372 39.1738L102.37 39.169Z" fill="#999999"/>
<path d="M20.8135 19.3292C21.116 18.7824 21.5665 18.5328 22.0576 18.3452C22.7293 18.0877 23.4367 17.9812 24.1507 18.0686C25.6079 18.2483 27.0602 18.4724 28.6979 18.2149C28.5043 18.447 28.4409 18.6043 28.3352 18.6377C27.8652 18.7887 27.3903 18.9779 26.9057 19.0144C26.2551 19.0621 25.5916 19.0144 24.9378 18.9508C23.6172 18.8237 22.3113 18.7442 21.0769 19.3657C21.0412 19.3832 20.981 19.3546 20.8135 19.3276V19.3292Z" fill="#999999"/>
<path d="M28.4001 15.5578C27.8895 16.1205 27.2617 16.1904 26.6323 16.1348C25.7183 16.0521 24.8044 15.9408 23.9034 15.7724C22.8674 15.5784 21.8688 15.6102 20.8817 15.979C20.8166 16.0028 20.7369 15.9885 20.571 15.9949C20.8101 15.4831 21.2265 15.2844 21.6558 15.1349C22.5486 14.8234 23.4626 14.8854 24.3799 15.0412C25.3622 15.2081 26.3461 15.3607 27.3333 15.4989C27.6846 15.5482 28.0456 15.5387 28.4018 15.5578H28.4001Z" fill="#999999"/>
<path d="M78.8647 35.7878C79.0761 35.7146 79.3639 35.5922 79.6648 35.5159C79.8681 35.4651 80.1055 35.4714 80.1657 35.7433C80.2194 35.9801 80.1023 36.1025 79.86 36.1883C78.824 36.5587 78.65 36.8083 78.6321 37.8669C78.624 38.3024 78.6337 38.738 78.6256 39.1735C78.6223 39.3261 78.6256 39.493 78.5605 39.6234C78.5166 39.7124 78.3605 39.7966 78.2564 39.795C78.1523 39.7934 77.9946 39.7012 77.9604 39.6122C77.8986 39.4501 77.897 39.2625 77.8954 39.0845C77.8905 38.1371 77.8872 37.1897 77.897 36.2424C77.9002 36.0008 77.7994 35.6574 78.1214 35.5795C78.3182 35.5318 78.5687 35.6972 78.863 35.7862L78.8647 35.7878Z" fill="#999999"/>
<path d="M45.4718 17.1565C45.0977 17.1597 44.7773 16.8529 44.7659 16.481C44.7546 16.1106 45.057 15.7832 45.4278 15.7609C45.8214 15.7371 46.1906 16.0884 46.1808 16.4762C46.1711 16.8386 45.8442 17.1534 45.4718 17.1565Z" fill="#999999"/>
<path d="M29.0766 35.0362C29.0635 35.4273 28.7627 35.7086 28.3724 35.6991C27.9788 35.6895 27.6844 35.3971 27.6812 35.0156C27.6779 34.6039 28.0243 34.2764 28.4293 34.3066C28.8082 34.3352 29.0896 34.6516 29.0766 35.0362Z" fill="#999999"/>
</g>
</svg>
