<svg width="183" height="54" viewBox="0 0 183 54" fill="none" xmlns="http://www.w3.org/2000/svg">
<mask id="mask0_869_5712" style="mask-type:alpha" maskUnits="userSpaceOnUse" x="0" y="0" width="183" height="54">
<rect width="183" height="54" fill="#D9D9D9"/>
</mask>
<g mask="url(#mask0_869_5712)">
<path d="M47.5117 37.57H51.2646V27.2798C51.2653 26.7946 51.3819 26.3166 51.6048 25.8857C51.8277 25.4547 52.1503 25.0833 52.5459 24.8023L53.9751 23.794V23.0542L47.5169 27.5668V37.57H47.5117Z" fill="#999999"/>
<path d="M47.5106 20.2343V22.8324C47.5097 23.3175 47.393 23.7955 47.1701 24.2264C46.9473 24.6573 46.6247 25.0288 46.2293 25.3099L44.8 26.3182V27.058L51.2568 22.5454V19.6336C51.2568 18.0106 51.9115 17.5904 53.3341 17.5904C54.1225 17.5831 54.8952 17.8111 55.5534 18.2451H55.8412L56.322 16.7958C55.1652 16.2318 53.888 15.9591 52.6017 16.0013C49.3001 16.0006 47.5106 17.4764 47.5106 20.2343Z" fill="#999999"/>
<path d="M64.3059 23.0179C61.9579 22.9885 59.6473 23.6077 57.6287 24.8074L58.2827 26.2833H58.5372C60.0084 25.2369 61.7625 24.6617 63.5676 24.6336C65.4984 24.6336 66.6665 25.3733 66.6665 27.3581V29.2349C65.3472 28.386 63.8003 27.9596 62.2323 28.0128C58.7931 28.0128 56.3215 29.7491 56.3215 32.9013C56.3215 36.0534 58.6259 37.9036 62.0052 37.9036C62.8657 37.942 63.7248 37.8002 64.5274 37.4873C65.3299 37.1745 66.0583 36.6974 66.6658 36.0867V37.5596H70.4453V28.1001C70.4453 24.3806 68.0884 23.0112 64.3052 23.0112M66.6628 34.4037C66.2249 34.9754 65.662 35.4393 65.0171 35.7598C64.3723 36.0804 63.6626 36.2492 62.9425 36.2532C62.5536 36.2753 62.1644 36.2128 61.8019 36.0702C61.4394 35.9276 61.112 35.7082 60.8424 35.427C60.5727 35.1458 60.3671 34.8095 60.2398 34.4414C60.1125 34.0732 60.0664 33.6818 60.1047 33.2941V32.5861C60.1047 30.5096 61.4134 29.5745 63.3442 29.5745C64.5453 29.5707 65.7146 29.9604 66.6732 30.6842V34.4037H66.6628Z" fill="#999999"/>
<path d="M78.938 25.8896V23.3559L75.1577 25.9739V37.5669H78.938V27.6791C79.3838 27.0219 79.9797 26.4805 80.6765 26.0995C81.3732 25.7186 82.1507 25.5092 82.9446 25.4886C83.5903 25.4632 84.2329 25.5899 84.8206 25.8585L85.0744 25.7986V23.1251C84.7495 23.0416 84.4147 23.0035 84.0794 23.0119C83.0586 23.0602 82.063 23.3447 81.1709 23.843C80.2787 24.3413 79.5144 25.0399 78.938 25.8837" fill="#999999"/>
<path d="M106.952 23.0179C104.83 23.1215 102.815 23.9787 101.269 25.4355C100.727 23.8464 99.3392 23.0179 97.262 23.0179C95.2122 23.1165 93.2702 23.965 91.8054 25.4022V23.356L88.0259 25.974V37.567H91.8054V27.1118C92.9676 25.9496 94.6498 25.0353 95.8993 25.0353C97.1488 25.0353 97.7154 25.775 97.7154 27.1658V37.5596H101.496V27.0548C102.69 25.9193 104.367 25.0382 105.589 25.0382C106.811 25.0382 107.438 25.778 107.438 27.1688V37.5596H111.191V27.1051C111.191 24.4604 109.655 23.0112 106.957 23.0112" fill="#999999"/>
<path d="M118.292 26.2902C118.292 25.2685 119.374 24.6138 121.277 24.6138C122.798 24.5716 124.289 25.0418 125.51 25.9491H125.824L126.479 24.5598C124.95 23.5127 123.129 22.9752 121.276 23.024C117.583 23.024 115.166 24.6737 115.166 27.1712C115.166 32.5405 123.888 30.9507 123.888 34.3034C123.888 35.5521 122.84 36.32 120.823 36.32C118.925 36.351 117.075 35.7178 115.594 34.5298H115.281L114.512 35.8931C116.337 37.2604 118.571 37.9708 120.851 37.909C124.43 37.909 127.441 36.4606 127.441 33.2751C127.441 27.9591 118.292 29.2685 118.292 26.2835" fill="#999999"/>
<path d="M137.585 23.0181C133.097 23.0181 129.885 25.716 129.885 30.4639C129.885 35.2118 133.07 37.9097 138.097 37.9097C140.473 38.0049 142.792 37.1578 144.547 35.5528L143.612 34.418H143.298C141.965 35.6766 140.19 36.3604 138.357 36.3214C135.405 36.3214 133.809 34.9854 133.809 32.2275V30.8922H145.005V30.3744C145.005 25.716 141.934 23.0181 137.585 23.0181ZM141.305 29.3291H133.805V28.7883C133.805 25.8899 135.395 24.6145 137.585 24.6145C139.774 24.6145 141.305 25.8899 141.305 28.7883V29.3291Z" fill="#999999"/>
<path d="M158.012 23.0181C155.898 23.1208 153.891 23.9787 152.356 25.4356V23.3576L148.576 25.9757V37.5687H152.356V27.112C153.578 25.9764 155.341 25.0354 156.676 25.0354C158.012 25.0354 158.553 25.7752 158.553 27.166V37.5613H162.333V27.052C162.333 24.4074 160.771 23.0181 158.012 23.0181Z" fill="#999999"/>
<path d="M171.49 19.5928V17.8174H170.435C170.436 18.3694 170.307 18.9139 170.058 19.4069C169.81 19.9 169.449 20.3278 169.006 20.6559L167.744 21.591V22.7931C167.743 23.2784 167.626 23.7565 167.403 24.1874C167.179 24.6184 166.857 24.9898 166.461 25.2706L165.031 26.2789V27.0187L171.49 22.5112V19.5928Z" fill="#999999"/>
<path d="M175.857 35.6941H175.577C174.923 36.111 174.161 36.329 173.386 36.3214C171.996 36.3214 171.342 35.8939 171.342 34.3307V27.2896C171.343 26.8044 171.46 26.3265 171.683 25.8956C171.906 25.4646 172.228 25.0931 172.624 24.812L174.053 23.8037V23.064L167.596 27.5766V33.6738C167.596 36.4317 169.358 37.9075 172.684 37.9075C173.962 37.9502 175.23 37.6773 176.377 37.113L175.863 35.6904L175.857 35.6941Z" fill="#999999"/>
<path d="M20.7119 12.5874C17.9209 12.5871 15.1895 13.3939 12.8467 14.9107C10.5039 16.4274 8.64974 18.5894 7.50773 21.136C6.36571 23.6826 5.98457 26.5051 6.41022 29.2634C6.83588 32.0217 8.05017 34.598 9.90674 36.6818L6 39.4456V42.1162L11.5431 38.2494C14.3597 40.5572 17.9428 41.7181 21.5776 41.5006C25.2124 41.283 28.6315 39.7029 31.1526 37.0756C33.6738 34.4483 35.1115 30.967 35.1791 27.3263C35.2466 23.6857 33.939 20.1534 31.517 17.4344L35.4238 14.6765V12L29.8806 15.8668C27.2964 13.7448 24.0557 12.5857 20.7119 12.5874ZM35.1567 14.5374L30.6759 17.7029C29.3962 18.6058 28.352 19.8027 27.6311 21.193C26.9102 22.5833 26.5337 24.1264 26.5332 25.6925V27.4613L14.8773 35.6069L6.26262 41.6168V39.5802L10.7412 36.4125C12.0208 35.5096 13.0649 34.3127 13.7858 32.9224C14.5067 31.5321 14.8833 29.9891 14.8839 28.423V26.6586L26.5369 18.5211L35.1582 12.5045L35.1567 14.5374Z" fill="#999999"/>
</g>
</svg>
