<svg width="183" height="54" viewBox="0 0 183 54" fill="none" xmlns="http://www.w3.org/2000/svg">
<mask id="mask0_869_5820" style="mask-type:alpha" maskUnits="userSpaceOnUse" x="0" y="0" width="183" height="54">
<rect width="183" height="54" fill="#D9D9D9"/>
</mask>
<g mask="url(#mask0_869_5820)">
<path d="M12.3309 30.7668C13.8959 30.7668 15.1645 29.4982 15.1645 27.9332C15.1645 26.3683 13.8959 25.0996 12.3309 25.0996C10.766 25.0996 9.49731 26.3683 9.49731 27.9332C9.49731 29.4982 10.766 30.7668 12.3309 30.7668Z" fill="#999999"/>
<path d="M17.0156 25.5757C16.2797 25.5757 15.6781 26.1773 15.6781 26.9131V31.8085H10.7828C10.047 31.8085 9.44531 32.4101 9.44531 33.1459C9.44531 33.8817 10.047 34.4834 10.7828 34.4834H17.0156C17.7514 34.4834 18.353 33.8817 18.353 33.1459V26.9131C18.353 26.1773 17.7514 25.5757 17.0156 25.5757Z" fill="#999999"/>
<path d="M19.3542 34.4846V28.1451H26.3315C26.3315 28.1451 30.2241 28.096 30.2241 30.9671V34.4846H19.3557H19.3542Z" fill="#999999"/>
<path d="M32.4461 35.437H7.42261V38.3947H32.4461V35.437Z" fill="#999999"/>
<path d="M22.5674 17.3936L19.9386 16.1268L17.3099 17.3936L13.0321 19.4538V15H9.66753V21.0741L6 22.84L7.40671 25.7602L19.9386 19.7236L32.4706 25.7602L33.8773 22.84L22.5674 17.3936Z" fill="#999999"/>
<path d="M47.19 31.7921H44.6157L50.8877 21.2227H53.3617L59.7339 31.7921H56.835L51.9871 23.1209L49.6133 27.5186L47.19 31.7921Z" fill="#999999"/>
<path d="M76.9351 31.7916H74.3608L80.6328 21.2222H83.1069L89.479 31.7916H86.5802L81.7322 23.1204L79.3584 27.5181L76.9351 31.7916Z" fill="#999999"/>
<path d="M62.0117 21.2212H71.5326C72.3822 21.2212 73.0074 21.375 73.4068 21.6841C73.8062 21.9932 74.0066 22.521 74.0066 23.2704V25.6189C74.0066 26.3683 73.8062 26.8976 73.4068 27.2052C73.0074 27.5143 72.3822 27.6682 71.5326 27.6682H64.5606V31.7907H62.0117V21.2212ZM64.5606 23.046V25.8447H70.4331C70.8156 25.8447 71.1078 25.7911 71.3082 25.6824C71.5086 25.5737 71.6074 25.3451 71.6074 24.9951V23.8957C71.6074 23.5457 71.5072 23.317 71.3082 23.2083C71.1078 23.0997 70.817 23.046 70.4331 23.046H64.5606Z" fill="#999999"/>
<path d="M91.4141 21.2212H100.935C101.785 21.2212 102.41 21.375 102.809 21.6841C103.209 21.9932 103.409 22.521 103.409 23.2704V25.7699C103.409 26.5038 103.209 27.0232 102.809 27.3323C102.41 27.6399 101.785 27.7952 100.935 27.7952H99.4855L104.508 31.7935H100.811L96.3876 27.7952H93.9643V31.7935H91.4155V21.224L91.4141 21.2212ZM93.9629 23.046V25.9689H99.8355C100.218 25.9689 100.51 25.9153 100.711 25.8066C100.911 25.6979 101.01 25.4693 101.01 25.1193V23.8943C101.01 23.5442 100.91 23.3156 100.711 23.2069C100.51 23.0983 100.219 23.0446 99.8355 23.0446H93.9629V23.046Z" fill="#999999"/>
<path d="M112.684 31.7921H110.11V23.1208H105.012V21.2212H117.806V23.1208H112.683V31.7921H112.684Z" fill="#999999"/>
<path d="M129.177 24.2452V23.1204H121.906V25.3447H128.778C129.311 25.3447 129.752 25.3828 130.102 25.4576C130.452 25.5324 130.73 25.6622 130.939 25.8443C131.146 26.0278 131.297 26.2818 131.389 26.6064C131.481 26.931 131.526 27.3431 131.526 27.8427V29.2922C131.526 29.7918 131.479 30.1997 131.389 30.5172C131.297 30.8333 131.147 31.0874 130.939 31.2793C130.73 31.4713 130.452 31.6039 130.102 31.6787C129.752 31.7535 129.31 31.7916 128.778 31.7916H121.906C121.39 31.7916 120.952 31.7549 120.594 31.6801C120.235 31.6053 119.947 31.4741 119.731 31.285C119.514 31.0959 119.36 30.8446 119.27 30.5327C119.178 30.2208 119.133 29.8144 119.133 29.3176V28.6204L121.457 28.5921V29.8412H129.204V27.3925H122.358C121.841 27.3925 121.404 27.3558 121.045 27.2796C120.687 27.2048 120.399 27.0764 120.183 26.8929C119.965 26.7094 119.812 26.4554 119.72 26.1308C119.628 25.8062 119.583 25.3941 119.583 24.8945V23.7202C119.583 23.2206 119.628 22.8085 119.72 22.4839C119.812 22.1593 119.965 21.9053 120.183 21.7218C120.399 21.5383 120.687 21.4099 121.045 21.3351C121.404 21.2603 121.841 21.2222 122.358 21.2222H128.63C129.112 21.2222 129.529 21.256 129.879 21.3224C130.229 21.3887 130.515 21.5101 130.741 21.6851C130.965 21.8601 131.132 22.093 131.241 22.3851C131.349 22.6773 131.403 23.0555 131.403 23.5226V24.2156L129.179 24.2467L129.177 24.2452Z" fill="#999999"/>
<path d="M134.595 21.2212H137.193V25.2449H145.239V21.2212H147.814V31.7907H145.239V27.3421H137.193V31.7907H134.595V21.2212Z" fill="#999999"/>
<path d="M164.931 21.2212H174.426C175.276 21.2212 175.904 21.375 176.313 21.6841C176.721 21.9932 176.926 22.521 176.926 23.2704V24.5449C176.926 25.0276 176.772 25.4241 176.463 25.7318C176.155 26.0409 175.709 26.2441 175.126 26.3443C175.726 26.4445 176.187 26.6732 176.513 27.0316C176.838 27.3901 177 27.8361 177 28.3682V29.7174C177 31.1005 175.909 31.7921 173.727 31.7921H164.932V21.2226L164.931 21.2212ZM167.48 22.9458V25.4439H173.252C173.634 25.4439 173.922 25.3987 174.114 25.307C174.306 25.2153 174.402 25.012 174.402 24.6945V23.6953C174.402 23.3791 174.31 23.1745 174.127 23.0827C173.943 22.991 173.653 22.9458 173.252 22.9458H167.48ZM167.48 27.1939V29.8924H173.252C173.685 29.8924 174.001 29.8303 174.202 29.7047C174.402 29.5791 174.502 29.3265 174.502 28.9426V28.1424C174.502 27.7599 174.402 27.5059 174.202 27.3802C174.001 27.2546 173.685 27.1925 173.252 27.1925H167.48V27.1939Z" fill="#999999"/>
<path d="M160.044 29.2477H152.698V25.2988H150.124V29.3183C150.124 29.8165 150.169 30.2216 150.261 30.5335C150.352 30.8454 150.502 31.0966 150.711 31.2857C150.918 31.4748 151.202 31.6061 151.561 31.6809C151.919 31.7557 152.357 31.7924 152.873 31.7924H159.869C160.403 31.7924 160.844 31.7557 161.194 31.6809C161.544 31.6061 161.827 31.4748 162.044 31.2857C162.26 31.0966 162.415 30.8454 162.507 30.5335C162.599 30.2216 162.644 29.8151 162.644 29.3183V25.2988H160.045V29.2477H160.044Z" fill="#999999"/>
<path d="M162.643 21.2466H160.044V23.7954H162.643V21.2466Z" fill="#999999"/>
<path d="M152.699 21.2212H150.125V21.2466H152.699V21.2212Z" fill="#999999"/>
<path d="M152.7 21.2466H150.125V23.7954H152.7V21.2466Z" fill="#999999"/>
</g>
</svg>
