<svg width="183" height="54" viewBox="0 0 183 54" fill="none" xmlns="http://www.w3.org/2000/svg">
<mask id="mask0_869_5880" style="mask-type:alpha" maskUnits="userSpaceOnUse" x="0" y="0" width="183" height="54">
<rect width="183" height="54" fill="#D9D9D9"/>
</mask>
<g mask="url(#mask0_869_5880)">
<path d="M133.999 40.4052C133.742 40.8681 133.554 41.3906 133.216 41.7851C131.749 43.499 129.04 43.4765 127.34 42.075C126.869 41.6865 126.709 41.0904 126.586 40.5307C126.268 39.0799 125.955 37.6247 125.743 36.1566C125.464 34.2273 125.276 32.2851 125.064 30.3472C124.99 29.6784 124.937 29.0045 124.919 28.3323C124.862 26.0803 124.661 23.8309 124.881 21.5747C124.987 20.4941 125.607 19.9024 126.556 19.5693C127.709 19.1644 128.893 19.2189 130.079 19.3798C130.286 19.4075 130.485 19.4845 130.69 19.526C132.12 19.8124 132.927 20.6896 133.133 22.1171C133.215 22.6907 133.289 23.2703 133.304 23.8483C133.368 26.172 133.374 28.4975 133.467 30.8204C133.53 32.3967 133.701 33.9695 133.83 35.5423C133.875 36.0934 133.943 36.6428 134 37.193V40.4052H133.999Z" fill="#999999"/>
<path d="M129.66 8C130.514 8.30453 131.365 8.61598 132.016 9.29078C133.277 10.5954 133.783 12.1276 133.271 13.8899C132.732 15.7438 131.48 16.8728 129.564 17.2622C128.819 17.4136 128.113 17.3712 127.281 17.0537C127.855 16.9204 128.305 16.8573 128.726 16.7119C130.519 16.0942 131.592 14.819 131.846 12.9624C132.1 11.1015 131.384 9.60137 129.839 8.51043C129.594 8.3374 129.345 8.17043 129.099 8C129.286 8 129.472 8 129.659 8H129.66Z" fill="#999999"/>
<path d="M60.7047 29.6595C60.4668 29.6595 60.196 29.6552 59.9252 29.6595C58.3637 29.6898 56.8064 29.7391 55.263 29.3844C53.6625 29.0167 52.216 28.4059 51.0628 27.1809C50.1388 26.1998 49.8291 25.0786 50.0878 23.7774C50.3585 22.4131 50.9148 21.1647 51.6424 19.9881C53.0102 17.7751 54.6072 15.7576 56.6628 14.1338C56.8609 13.9772 57.0807 13.8223 57.3168 13.7436C57.8662 13.5593 58.3239 13.8889 58.2901 14.4677C58.2676 14.8553 58.1456 15.2411 58.0323 15.6175C57.8506 16.2179 57.6473 16.8122 57.4362 17.4031C57.1395 18.2336 57.1542 19.091 57.1594 19.9535C57.1637 20.7668 57.5721 21.2469 58.3014 21.5238C59.2721 21.8923 60.2895 22.0601 61.3112 22.0766C63.6894 22.1146 66.0686 22.0948 68.4468 22.0688C70.0309 22.0515 71.615 21.9849 73.199 21.9347C73.5243 21.9243 73.8505 21.8958 74.1732 21.8568C74.6871 21.7954 75.0686 21.9563 75.3524 22.4131C75.99 23.4409 76.3819 24.5448 76.4909 25.7491C76.5099 25.9576 76.5013 26.1713 76.5436 26.3746C76.7072 27.1645 76.4511 27.777 75.8213 28.2727C74.7969 29.079 73.7942 29.9139 72.7717 30.7236C70.7273 32.3432 68.6735 33.9523 66.6292 35.5727C66.393 35.7596 66.1715 35.9715 65.9751 36.1999C65.7813 36.4249 65.8358 36.6541 66.1213 36.7467C66.3835 36.8324 66.6664 36.899 66.9398 36.8964C68.8742 36.8748 70.8078 36.8298 72.7422 36.8003C73.7449 36.7856 74.7502 36.7467 75.7495 36.8073C76.1085 36.8289 76.503 37.0469 76.7945 37.2831C78.2402 38.4545 78.6157 40.0308 78.395 41.7982C78.3466 42.1876 78.2428 42.576 78.1191 42.9489C77.6476 44.366 76.7201 45.2121 75.1672 45.2986C73.7259 45.379 72.288 45.5036 70.8476 45.5962C68.8024 45.7277 66.7581 45.8782 64.7112 45.963C62.4532 46.0564 60.1874 46.2001 57.9337 46.1118C55.5148 46.0167 53.7663 44.6593 52.5249 42.6331C51.1761 40.4305 51.401 38.2322 52.6737 36.11C53.0188 35.5347 53.5916 35.051 54.1522 34.6548C56.1878 33.2178 58.2633 31.8371 60.3206 30.4295C60.5525 30.2712 60.9141 30.1708 60.7082 29.6604L60.7047 29.6595Z" fill="#999999"/>
<path d="M119.011 27.2435C119.84 28.7246 120.634 30.1192 121.405 31.526C122.481 33.4838 123.546 35.4468 124.604 37.4141C125.362 38.826 125.226 40.1972 124.321 41.4915C123.729 42.3393 122.982 43.0375 122.101 43.5877C121.065 44.234 120.041 44.1907 119.003 43.579C118.012 42.9951 117.324 42.1057 116.635 41.2328C115.423 39.6998 114.265 38.1235 113.083 36.5671C112.944 36.3854 112.795 36.2124 112.563 35.9269C112.474 36.587 112.404 37.1277 112.329 37.6667C112.146 38.9774 112.025 40.301 111.759 41.5944C111.337 43.6422 111.293 43.5574 109.429 44.054C108.209 44.3793 106.959 44.5368 105.693 44.4649C105.255 44.4399 104.816 44.3629 104.385 44.2738C103.829 44.1596 103.473 43.7971 103.359 43.2503C103.147 42.2277 102.892 41.2051 102.794 40.1695C102.526 37.3726 102.258 34.5712 102.127 31.7656C101.986 28.7696 102.001 25.7676 101.946 22.7673C101.915 21.1071 102.695 19.9902 104.213 19.3543C105.501 18.8154 106.845 18.5619 108.234 18.6216C109.537 18.6778 110.244 19.3137 110.49 20.5872C110.74 21.8857 110.973 23.1869 111.23 24.5763C111.408 24.3877 111.531 24.2614 111.649 24.1316C113.266 22.3616 114.866 20.5751 116.506 18.8275C117.161 18.1293 117.934 17.5626 118.888 17.2953C119.378 17.1578 119.866 17.1482 120.321 17.3697C121.34 17.8637 122.242 18.5247 122.933 19.4262C123.696 20.4211 123.699 21.2897 122.95 22.3036C122.411 23.0329 121.822 23.7267 121.256 24.4353C120.516 25.361 119.776 26.2858 119.011 27.2435Z" fill="#999999"/>
<path d="M100.921 34.0519C100.831 35.3306 100.747 37.0488 100.582 38.7583C100.359 41.0786 98.9723 42.6661 97.1339 43.9188C95.5983 44.9648 93.8377 45.4138 92.0331 45.7183C90.0484 46.054 88.0465 46.112 86.0437 45.9917C84.7123 45.9112 83.4146 45.6206 82.2042 45.0288C80.9593 44.4198 80.1115 43.4707 79.858 42.0865C79.5405 40.351 79.2507 38.6095 78.9825 36.8654C78.7843 35.5798 78.626 34.2881 78.4746 32.9965C78.3475 31.9125 78.2506 30.8241 78.1485 29.7366C78.0152 28.3256 77.8318 26.9163 77.7782 25.5027C77.7341 24.3468 77.4996 23.1971 77.6925 22.0274C77.8353 21.1631 78.28 20.5376 79.0551 20.2219C79.7585 19.9346 80.5112 19.6863 81.2612 19.6145C82.1316 19.5315 83.0261 19.6232 83.9025 19.708C84.6162 19.7772 85.0523 20.2374 85.3118 20.9053C85.7037 21.9141 85.8975 22.9635 86.0005 24.0285C86.2574 26.6879 86.4607 29.3525 86.7341 32.0102C86.8267 32.9074 87.0239 33.8002 87.2506 34.6757C87.5084 35.6689 88.1408 36.1283 89.1669 36.2131C89.9524 36.2779 90.6947 36.1681 91.392 35.7684C92.0313 35.4016 92.4258 34.8764 92.4215 34.1419C92.412 32.7015 92.3791 31.2593 92.309 29.8206C92.2424 28.4511 92.1005 27.0859 92.0175 25.7172C91.9474 24.5571 91.8894 23.3952 91.8739 22.2333C91.8661 21.6563 91.9336 21.0732 92.0235 20.5013C92.1455 19.7296 92.6205 19.188 93.3238 18.8852C93.8118 18.675 94.3274 18.4942 94.8482 18.4051C95.9582 18.2148 97.0777 18.239 98.1773 18.5115C98.8114 18.6689 99.263 19.0427 99.4092 19.7071C99.6532 20.8188 99.9525 21.9227 100.112 23.0465C100.353 24.7474 100.543 26.4586 100.667 28.1725C100.799 29.9806 100.828 31.7965 100.92 34.0537L100.921 34.0519Z" fill="#999999"/>
</g>
</svg>
