<svg width="183" height="54" viewBox="0 0 183 54" fill="none" xmlns="http://www.w3.org/2000/svg">
<mask id="mask0_869_5541" style="mask-type:alpha" maskUnits="userSpaceOnUse" x="0" y="0" width="183" height="54">
<rect width="183" height="54" fill="#D9D9D9"/>
</mask>
<g mask="url(#mask0_869_5541)">
<path d="M38.5969 8H1V45.5969H38.5969V8Z" fill="#999999"/>
<path d="M33.056 42.0294H6.5408C5.71512 42.0294 5.04004 41.3569 5.04004 40.5286V13.0657C5.04004 12.24 5.71253 11.5649 6.5408 11.5649H33.056C33.8817 11.5649 34.5567 12.2374 34.5567 13.0657V40.5312C34.5567 41.3569 33.8843 42.032 33.056 42.032V42.0294ZM6.5408 11.9752C5.93842 11.9752 5.45028 12.4633 5.45028 13.0657V40.5312C5.45028 41.1336 5.93842 41.6217 6.5408 41.6217H33.056C33.6584 41.6217 34.1465 41.1336 34.1465 40.5312V13.0657C34.1465 12.4633 33.6584 11.9752 33.056 11.9752H6.5408Z" fill="white"/>
<path d="M9.84351 32.7161V15.0186H16.519C17.6926 15.0186 18.591 15.0757 19.2116 15.1873C20.0814 15.3327 20.8084 15.608 21.3952 16.013C21.982 16.4207 22.4572 16.9893 22.8155 17.7215C23.1738 18.4537 23.353 19.2586 23.353 20.1362C23.353 21.6422 22.8752 22.9144 21.9171 23.9556C20.959 24.9968 19.2298 25.5187 16.7268 25.5187H12.1881V32.7135H9.8461L9.84351 32.7161ZM12.1855 23.4337H16.7605C18.2743 23.4337 19.3492 23.1507 19.9853 22.5873C20.6215 22.0238 20.9382 21.2319 20.9382 20.2089C20.9382 19.4689 20.7513 18.8354 20.3774 18.3083C20.0035 17.7812 19.5102 17.4333 18.8974 17.2645C18.5027 17.1606 17.7757 17.1061 16.7138 17.1061H12.1855V23.4311V23.4337Z" fill="white"/>
<path d="M27.4815 26.4583L29.7534 27.0321C29.2783 28.899 28.4215 30.3218 27.1829 31.3007C25.9444 32.2796 24.4333 32.7703 22.6443 32.7703C20.8553 32.7703 19.2897 32.3938 18.129 31.6408C16.9684 30.8879 16.0882 29.7973 15.4832 28.3667C14.8783 26.9386 14.5745 25.4041 14.5745 23.7631C14.5745 21.9742 14.9172 20.4163 15.6001 19.0843C16.2829 17.7523 17.254 16.7423 18.5159 16.0516C19.7778 15.361 21.1643 15.0156 22.6781 15.0156C24.3969 15.0156 25.8406 15.4518 27.0116 16.3268C28.1826 17.2019 28.9979 18.43 29.46 20.0164L27.2219 20.5435C26.8246 19.2946 26.2456 18.3858 25.4874 17.8146C24.7293 17.2434 23.7764 16.9604 22.6287 16.9604C21.3097 16.9604 20.2062 17.2772 19.3208 17.9081C18.4354 18.5416 17.8123 19.3907 17.454 20.4552C17.0956 21.5198 16.9165 22.6207 16.9165 23.7528C16.9165 25.212 17.1294 26.4868 17.5552 27.5774C17.981 28.6653 18.6431 29.4806 19.5415 30.018C20.4399 30.5555 21.411 30.8255 22.4574 30.8255C23.7296 30.8255 24.8072 30.4594 25.69 29.7246C26.5728 28.9898 27.17 27.9019 27.4815 26.4583Z" fill="white"/>
<path d="M23.6983 25.4435H21.8262L16.7812 38.5791H18.6273L19.9048 35.0531L20.5799 33.1836H20.5721L22.0157 29.3304C22.3195 28.4996 22.5558 27.6635 22.7246 26.8222C22.9271 27.5337 23.2387 28.4398 23.6567 29.5459L24.8225 32.6409L25.6846 34.9129L27.097 38.5765H29.0781L23.7009 25.4409L23.6983 25.4435Z" fill="white"/>
<path d="M88.0805 37.1948H85.5827L85.0167 38.7397H84.5286L86.6109 33.2378H87.0549L89.1373 38.7397H88.6544L88.0831 37.1948H88.0805ZM85.7255 36.8028H87.9325L86.829 33.8064L85.7255 36.8028Z" fill="#999999" stroke="#999999" stroke-width="0.5" stroke-linejoin="round"/>
<path d="M93.0579 37.3892C93.0579 37.0854 92.9515 36.8439 92.7359 36.6648C92.5204 36.4882 92.131 36.3194 91.5597 36.1584C90.9911 35.9975 90.5757 35.8235 90.3134 35.634C89.9421 35.3665 89.7552 35.016 89.7552 34.5824C89.7552 34.1488 89.9292 33.819 90.2745 33.5568C90.6198 33.2945 91.0638 33.1621 91.6039 33.1621C91.97 33.1621 92.2971 33.2322 92.5854 33.375C92.8736 33.5178 93.0969 33.7126 93.2552 33.9644C93.4136 34.2163 93.4941 34.4967 93.4941 34.8083H93.0268C93.0268 34.4318 92.8995 34.128 92.6425 33.8995C92.3854 33.671 92.0401 33.5568 91.6065 33.5568C91.1729 33.5568 90.8509 33.6502 90.6016 33.8398C90.3524 34.0267 90.2278 34.2734 90.2278 34.5772C90.2278 34.8576 90.3394 35.0861 90.5653 35.2627C90.7886 35.4392 91.1495 35.595 91.6428 35.73C92.1362 35.865 92.5101 36.0052 92.7671 36.1506C93.0216 36.2961 93.2137 36.4674 93.3409 36.6699C93.4682 36.8725 93.5331 37.1087 93.5331 37.384C93.5331 37.8176 93.3591 38.1655 93.0138 38.4278C92.6684 38.69 92.2115 38.8198 91.6428 38.8198C91.256 38.8198 90.8976 38.7497 90.5757 38.6121C90.2537 38.4745 90.0071 38.2798 89.8383 38.0305C89.6695 37.7812 89.5864 37.4956 89.5864 37.1737H90.0512C90.0512 37.5605 90.1966 37.8669 90.4848 38.0928C90.7756 38.3161 91.1599 38.4304 91.6402 38.4304C92.0687 38.4304 92.4114 38.3369 92.6736 38.1473C92.9333 37.9578 93.0631 37.7085 93.0631 37.3944L93.0579 37.3892Z" fill="#999999" stroke="#999999" stroke-width="0.5" stroke-linejoin="round"/>
<path d="M97.6407 37.3892C97.6407 37.0854 97.5343 36.8439 97.3188 36.6648C97.1059 36.4882 96.7138 36.3194 96.1452 36.1584C95.5739 35.9975 95.1585 35.8235 94.8989 35.634C94.525 35.3665 94.3406 35.016 94.3406 34.5824C94.3406 34.1488 94.5146 33.819 94.8599 33.5568C95.2052 33.2945 95.6492 33.1621 96.1893 33.1621C96.5554 33.1621 96.8826 33.2322 97.1708 33.375C97.459 33.5152 97.6823 33.7126 97.8407 33.9644C97.9991 34.2163 98.0769 34.4967 98.0769 34.8083H97.6096C97.6096 34.4318 97.4824 34.128 97.2253 33.8995C96.9683 33.671 96.6229 33.5568 96.1893 33.5568C95.7557 33.5568 95.4337 33.6502 95.1845 33.8398C94.9352 34.0267 94.8106 34.2734 94.8106 34.5772C94.8106 34.8576 94.9222 35.0861 95.1455 35.2627C95.3714 35.4392 95.7297 35.595 96.2231 35.73C96.7164 35.865 97.0903 36.0052 97.3447 36.1506C97.5992 36.2961 97.7913 36.4674 97.9186 36.6699C98.0458 36.8725 98.1107 37.1087 98.1107 37.384C98.1107 37.8176 97.9367 38.1655 97.5914 38.4278C97.2461 38.69 96.7891 38.8198 96.2205 38.8198C95.831 38.8198 95.4753 38.7497 95.1533 38.6121C94.8314 38.4745 94.5847 38.2798 94.4159 38.0305C94.2471 37.7812 94.1641 37.4956 94.1641 37.1737H94.6288C94.6288 37.5605 94.7742 37.8669 95.065 38.0928C95.3532 38.3161 95.7401 38.4304 96.2205 38.4304C96.6489 38.4304 96.9916 38.3369 97.2513 38.1473C97.5109 37.9578 97.6407 37.7085 97.6407 37.3944V37.3892Z" fill="#999999" stroke="#999999" stroke-width="0.5" stroke-linejoin="round"/>
<path d="M103.179 36.2883C103.179 36.7946 103.091 37.2386 102.917 37.6228C102.743 38.0071 102.491 38.3005 102.166 38.5082C101.842 38.716 101.468 38.8172 101.04 38.8172C100.398 38.8172 99.8789 38.5861 99.4816 38.1266C99.087 37.667 98.8896 37.0464 98.8896 36.2649V35.6989C98.8896 35.1977 98.9779 34.7537 99.1545 34.3669C99.3336 33.98 99.5855 33.684 99.9101 33.4737C100.235 33.2634 100.609 33.1621 101.032 33.1621C101.455 33.1621 101.829 33.2634 102.153 33.4685C102.478 33.6736 102.727 33.9618 102.904 34.3331C103.08 34.707 103.171 35.138 103.179 35.6288V36.2857V36.2883ZM102.714 35.6911C102.714 35.029 102.564 34.5097 102.265 34.1332C101.966 33.7567 101.554 33.5698 101.032 33.5698C100.51 33.5698 100.113 33.7593 99.8088 34.1358C99.505 34.5123 99.3518 35.0394 99.3518 35.7144V36.2883C99.3518 36.94 99.5024 37.4593 99.8062 37.841C100.11 38.2226 100.52 38.4148 101.04 38.4148C101.559 38.4148 101.977 38.2252 102.273 37.8487C102.569 37.4723 102.717 36.9478 102.717 36.2753V35.6937L102.714 35.6911Z" fill="#999999" stroke="#999999" stroke-width="0.5" stroke-linejoin="round"/>
<path d="M108.247 37.0257C108.182 37.6047 107.977 38.0487 107.624 38.3551C107.271 38.6614 106.804 38.8172 106.22 38.8172C105.812 38.8172 105.448 38.716 105.137 38.5108C104.823 38.3057 104.581 38.0175 104.41 37.6436C104.238 37.2697 104.153 36.8413 104.15 36.361V35.6469C104.15 35.1588 104.236 34.7252 104.407 34.3461C104.579 33.967 104.825 33.6762 105.145 33.4711C105.467 33.266 105.835 33.1621 106.253 33.1621C106.843 33.1621 107.307 33.3205 107.65 33.6373C107.993 33.954 108.19 34.3954 108.247 34.9563H107.78C107.663 34.0215 107.157 33.5542 106.256 33.5542C105.757 33.5542 105.36 33.7411 105.064 34.115C104.768 34.4889 104.62 35.003 104.62 35.6625V36.335C104.62 36.9711 104.763 37.4774 105.051 37.8565C105.339 38.2356 105.731 38.4252 106.222 38.4252C106.713 38.4252 107.076 38.3083 107.32 38.0746C107.567 37.841 107.72 37.493 107.777 37.0257H108.245H108.247Z" fill="#999999" stroke="#999999" stroke-width="0.5" stroke-linejoin="round"/>
<path d="M109.943 38.7422H109.478V33.2402H109.943V38.7422Z" fill="#999999" stroke="#999999" stroke-width="0.5" stroke-linejoin="round"/>
<path d="M114.476 37.1948H111.978L111.412 38.7397H110.924L113.007 33.2378H113.451L115.533 38.7397H115.05L114.479 37.1948H114.476ZM112.121 36.8028H114.328L113.225 33.8064L112.121 36.8028Z" fill="#999999" stroke="#999999" stroke-width="0.5" stroke-linejoin="round"/>
<path d="M119.586 33.6323H117.699V38.7422H117.234V33.6323H115.351V33.2402H119.584V33.6323H119.586Z" fill="#999999" stroke="#999999" stroke-width="0.5" stroke-linejoin="round"/>
<path d="M123.512 36.1041H120.939V38.3501H123.899V38.7422H120.474V33.2402H123.88V33.6323H120.941V35.7121H123.514V36.1041H123.512Z" fill="#999999" stroke="#999999" stroke-width="0.5" stroke-linejoin="round"/>
<path d="M127.991 37.3892C127.991 37.0854 127.884 36.8439 127.669 36.6648C127.456 36.4882 127.064 36.3194 126.495 36.1584C125.924 35.9975 125.509 35.8235 125.249 35.634C124.875 35.3665 124.691 35.016 124.691 34.5824C124.691 34.1488 124.865 33.819 125.21 33.5568C125.555 33.2945 125.999 33.1621 126.539 33.1621C126.906 33.1621 127.233 33.2322 127.521 33.375C127.809 33.5152 128.032 33.7126 128.191 33.9644C128.349 34.2163 128.427 34.4967 128.427 34.8083H127.96C127.96 34.4318 127.832 34.128 127.575 33.8995C127.318 33.671 126.973 33.5568 126.539 33.5568C126.106 33.5568 125.784 33.6502 125.535 33.8398C125.285 34.0267 125.161 34.2734 125.161 34.5772C125.161 34.8576 125.272 35.0861 125.496 35.2627C125.722 35.4392 126.08 35.595 126.573 35.73C127.066 35.865 127.44 36.0052 127.695 36.1506C127.949 36.2961 128.141 36.4674 128.269 36.6699C128.396 36.8725 128.461 37.1087 128.461 37.384C128.461 37.8176 128.287 38.1655 127.941 38.4278C127.596 38.69 127.139 38.8198 126.571 38.8198C126.181 38.8198 125.825 38.7497 125.503 38.6121C125.181 38.4745 124.935 38.2798 124.766 38.0305C124.597 37.7812 124.514 37.4956 124.514 37.1737H124.979C124.979 37.5605 125.124 37.8669 125.415 38.0928C125.703 38.3161 126.09 38.4304 126.571 38.4304C126.999 38.4304 127.342 38.3369 127.601 38.1473C127.861 37.9578 127.991 37.7085 127.991 37.3944V37.3892Z" fill="#999999" stroke="#999999" stroke-width="0.5" stroke-linejoin="round"/>
<path d="M131.811 38.3477H134.529V38.7397H131.343V33.2378H131.811V38.3477Z" fill="#999999" stroke="#999999" stroke-width="0.5" stroke-linejoin="round"/>
<path d="M138.115 33.6323H136.23V38.7422H135.765V33.6323H133.882V33.2402H138.115V33.6323Z" fill="#999999" stroke="#999999" stroke-width="0.5" stroke-linejoin="round"/>
<path d="M139.005 38.7422V33.2402H140.542C140.994 33.2402 141.397 33.3441 141.755 33.5492C142.113 33.7543 142.391 34.0477 142.591 34.432C142.791 34.8163 142.892 35.2499 142.892 35.7406V36.247C142.892 36.7377 142.794 37.1739 142.594 37.5556C142.394 37.9347 142.113 38.2307 141.752 38.4358C141.391 38.6409 140.976 38.7448 140.506 38.7448H139.003L139.005 38.7422ZM139.47 33.6323V38.3501H140.514C141.093 38.3501 141.558 38.158 141.908 37.7737C142.259 37.3894 142.433 36.8701 142.433 36.2132V35.7277C142.433 35.0941 142.259 34.5878 141.916 34.2061C141.571 33.8244 141.116 33.6323 140.55 33.6323H139.47Z" fill="#999999" stroke="#999999" stroke-width="0.5" stroke-linejoin="round"/>
<path d="M143.539 38.4698C143.539 38.3815 143.567 38.3062 143.622 38.2439C143.679 38.1815 143.757 38.1504 143.858 38.1504C143.959 38.1504 144.037 38.1815 144.097 38.2439C144.154 38.3062 144.183 38.3815 144.183 38.4698C144.183 38.558 144.154 38.6307 144.097 38.6879C144.04 38.745 143.959 38.7735 143.858 38.7735C143.757 38.7735 143.679 38.745 143.622 38.6879C143.565 38.6307 143.539 38.558 143.539 38.4698Z" fill="#999999" stroke="#999999" stroke-width="0.5" stroke-linejoin="round"/>
<path d="M49.3776 19.9277V22.6333C49.3776 23.2175 49.4425 23.581 49.5697 23.7212C49.7437 23.9211 50.0059 24.0224 50.3565 24.0224H50.7122V24.2768H46.7344V24.0224H47.0849C47.477 24.0224 47.7574 23.8952 47.9262 23.6381C48.017 23.4979 48.0638 23.1604 48.0638 22.6307V16.6328C48.0638 16.0486 48.0015 15.6851 47.8794 15.5449C47.7003 15.345 47.4354 15.2437 47.0849 15.2437H46.7344V14.9893H50.1384C50.9692 14.9893 51.6235 15.0749 52.1039 15.2463C52.5842 15.4177 52.9867 15.7059 53.3164 16.1135C53.6462 16.5212 53.8098 17.0015 53.8098 17.5572C53.8098 18.3153 53.5605 18.9307 53.0594 19.4059C52.5609 19.881 51.852 20.1173 50.9407 20.1173C50.7174 20.1173 50.4759 20.1017 50.2162 20.068C49.9566 20.0368 49.6788 19.9875 49.3802 19.9252L49.3776 19.9277ZM49.3776 19.5383C49.6191 19.585 49.8346 19.6188 50.0215 19.6421C50.2085 19.6655 50.3694 19.6759 50.5019 19.6759C50.977 19.6759 51.3873 19.4915 51.73 19.1254C52.0727 18.7593 52.2467 18.2816 52.2467 17.6974C52.2467 17.2949 52.1636 16.9236 52 16.5783C51.8364 16.233 51.6028 15.9759 51.3016 15.8046C51.0004 15.6332 50.6576 15.5475 50.2734 15.5475C50.0397 15.5475 49.7411 15.5916 49.3776 15.6773V19.5383Z" fill="#999999" stroke="#999999" stroke-width="0.5"/>
<path d="M57.816 19.2967H62.1287V16.6405C62.1287 16.1653 62.1001 15.8537 62.0404 15.7031C61.9963 15.5889 61.9002 15.4902 61.7522 15.4097C61.5549 15.3007 61.3472 15.2462 61.1291 15.2462H60.7993V14.9917H64.7693V15.2462H64.4396C64.2215 15.2462 64.0137 15.2981 63.8164 15.4045C63.671 15.4772 63.5724 15.5889 63.5178 15.7369C63.4659 15.8849 63.4399 16.1887 63.4399 16.6431V22.6331C63.4399 23.1031 63.4685 23.4147 63.5282 23.5653C63.5724 23.6795 63.6658 23.7782 63.8086 23.8587C64.0086 23.9677 64.2189 24.0222 64.437 24.0222H64.7667V24.2767H60.7967V24.0222H61.1265C61.5056 24.0222 61.7808 23.9106 61.9547 23.6873C62.069 23.5419 62.1261 23.1888 62.1261 22.6331V19.8056H57.8134V22.6331C57.8134 23.1031 57.8419 23.4147 57.9017 23.5653C57.9458 23.6795 58.0419 23.7782 58.1899 23.8587C58.3872 23.9677 58.5949 24.0222 58.813 24.0222H59.148V24.2767H55.1702V24.0222H55.4999C55.8842 24.0222 56.162 23.9106 56.336 23.6873C56.445 23.5419 56.4996 23.1888 56.4996 22.6331V16.6431C56.4996 16.1679 56.471 15.8563 56.4113 15.7057C56.3671 15.5915 56.2711 15.4928 56.1309 15.4123C55.9309 15.3033 55.7206 15.2487 55.5025 15.2487H55.1728V14.9943H59.1506V15.2487H58.8156C58.5975 15.2487 58.3898 15.3007 58.1925 15.4071C58.0523 15.4798 57.9536 15.5915 57.8991 15.7395C57.8445 15.8875 57.816 16.1913 57.816 16.6457V19.3018V19.2967Z" fill="#999999" stroke="#999999" stroke-width="0.5"/>
<path d="M70.0166 24.0222V24.2767H66.0388V24.0222H66.366C66.7503 24.0222 67.0281 23.9106 67.202 23.6873C67.3111 23.5419 67.3656 23.1888 67.3656 22.6331V16.6353C67.3656 16.1653 67.3371 15.8537 67.2773 15.7031C67.2306 15.5889 67.1371 15.4902 66.9969 15.4097C66.797 15.3007 66.5867 15.2462 66.366 15.2462H66.0388V14.9917H70.0166V15.2462H69.6817C69.3026 15.2462 69.0274 15.3578 68.8534 15.5811C68.7391 15.7265 68.682 16.0796 68.682 16.6353V22.6331C68.682 23.1031 68.7106 23.4147 68.7703 23.5653C68.8144 23.6795 68.9105 23.7782 69.0585 23.8587C69.2558 23.9677 69.4636 24.0222 69.6817 24.0222H70.0166Z" fill="#999999" stroke="#999999" stroke-width="0.5"/>
<path d="M79.0293 21.7063L79.2551 21.7557L78.4606 24.2742H71.271V24.0198H71.6215C72.0136 24.0198 72.294 23.8926 72.4628 23.6355C72.5588 23.4901 72.6082 23.1526 72.6082 22.6229V16.6328C72.6082 16.0538 72.5433 15.6903 72.416 15.5449C72.2369 15.345 71.972 15.2437 71.6215 15.2437H71.271V14.9893H75.4747V15.2437C74.9813 15.2385 74.636 15.2853 74.4387 15.3813C74.2414 15.4774 74.1037 15.5968 74.031 15.7448C73.9583 15.8902 73.922 16.2408 73.922 16.7938V22.6281C73.922 23.0072 73.9583 23.2668 74.031 23.4096C74.0856 23.5057 74.1713 23.5758 74.2855 23.6225C74.3997 23.6693 74.7555 23.69 75.3526 23.69H76.0303C76.7418 23.69 77.2429 23.6381 77.5311 23.5317C77.8193 23.4278 78.0815 23.2408 78.3178 22.9734C78.5541 22.706 78.793 22.2853 79.0293 21.7115V21.7063Z" fill="#999999" stroke="#999999" stroke-width="0.5"/>
<path d="M88.226 21.7063L88.4519 21.7557L87.6574 24.2742H80.4678V24.0198H80.8183C81.2104 24.0198 81.4908 23.8926 81.6596 23.6355C81.7556 23.4901 81.805 23.1526 81.805 22.6229V16.6328C81.805 16.0538 81.74 15.6903 81.6128 15.5449C81.4337 15.345 81.1688 15.2437 80.8183 15.2437H80.4678V14.9893H84.6715V15.2437C84.1781 15.2385 83.8328 15.2853 83.6355 15.3813C83.4381 15.4774 83.3005 15.5968 83.2278 15.7448C83.1551 15.8902 83.1188 16.2408 83.1188 16.7938V22.6281C83.1188 23.0072 83.1551 23.2668 83.2278 23.4096C83.2824 23.5057 83.368 23.5758 83.4823 23.6225C83.5965 23.6693 83.9522 23.69 84.5494 23.69H85.2271C85.9385 23.69 86.4397 23.6381 86.7279 23.5317C87.0161 23.4278 87.2783 23.2408 87.5146 22.9734C87.7509 22.706 87.9898 22.2853 88.226 21.7115V21.7063Z" fill="#999999" stroke="#999999" stroke-width="0.5"/>
<path d="M93.7097 24.0222V24.2767H89.7319V24.0222H90.0591C90.4434 24.0222 90.7212 23.9106 90.8952 23.6873C91.0042 23.5419 91.0587 23.1888 91.0587 22.6331V16.6353C91.0587 16.1653 91.0302 15.8537 90.9705 15.7031C90.9237 15.5889 90.8302 15.4902 90.69 15.4097C90.4901 15.3007 90.2798 15.2462 90.0591 15.2462H89.7319V14.9917H93.7097V15.2462H93.3748C92.9957 15.2462 92.7205 15.3578 92.5465 15.5811C92.4323 15.7265 92.3751 16.0796 92.3751 16.6353V22.6331C92.3751 23.1031 92.4037 23.4147 92.4634 23.5653C92.5076 23.6795 92.6036 23.7782 92.7516 23.8587C92.949 23.9677 93.1567 24.0222 93.3748 24.0222H93.7097Z" fill="#999999" stroke="#999999" stroke-width="0.5"/>
<path d="M97.5575 19.9277V22.6333C97.5575 23.2175 97.6224 23.581 97.7497 23.7212C97.9236 23.9211 98.1859 24.0224 98.5364 24.0224H98.8921V24.2768H94.9143V24.0224H95.2648C95.6569 24.0224 95.9373 23.8952 96.1061 23.6381C96.197 23.4979 96.2437 23.1604 96.2437 22.6307V16.6328C96.2437 16.0486 96.1814 15.6851 96.0593 15.5449C95.8802 15.345 95.6153 15.2437 95.2648 15.2437H94.9143V14.9893H98.3183C99.1491 14.9893 99.8035 15.0749 100.284 15.2463C100.764 15.4177 101.167 15.7059 101.496 16.1135C101.826 16.5212 101.99 17.0015 101.99 17.5572C101.99 18.3153 101.74 18.9307 101.239 19.4059C100.741 19.881 100.032 20.1173 99.1206 20.1173C98.8973 20.1173 98.6558 20.1017 98.3962 20.068C98.1365 20.0368 97.8587 19.9875 97.5601 19.9252L97.5575 19.9277ZM97.5575 19.5383C97.799 19.585 98.0145 19.6188 98.2014 19.6421C98.3884 19.6655 98.5494 19.6759 98.6818 19.6759C99.1569 19.6759 99.5672 19.4915 99.9099 19.1254C100.253 18.7593 100.427 18.2816 100.427 17.6974C100.427 17.2949 100.344 16.9236 100.18 16.5783C100.016 16.233 99.7827 15.9759 99.4815 15.8046C99.1803 15.6332 98.8376 15.5475 98.4533 15.5475C98.2196 15.5475 97.921 15.5916 97.5575 15.6773V19.5383Z" fill="#999999" stroke="#999999" stroke-width="0.5"/>
<path d="M109.543 14.7793V17.9911H109.288C109.205 17.3758 109.06 16.885 108.847 16.5189C108.634 16.1528 108.333 15.8646 107.938 15.6491C107.546 15.4336 107.139 15.3272 106.721 15.3272C106.245 15.3272 105.853 15.4726 105.542 15.7608C105.23 16.049 105.077 16.3813 105.077 16.75C105.077 17.033 105.176 17.2901 105.37 17.5238C105.653 17.8665 106.326 18.3235 107.39 18.8921C108.258 19.3569 108.85 19.7152 109.166 19.9645C109.483 20.2137 109.727 20.5071 109.899 20.8447C110.07 21.1822 110.156 21.5353 110.156 21.9066C110.156 22.6103 109.883 23.2152 109.338 23.7241C108.793 24.2331 108.089 24.4875 107.232 24.4875C106.962 24.4875 106.71 24.4667 106.471 24.4252C106.331 24.4018 106.038 24.3187 105.591 24.1759C105.147 24.0331 104.864 23.9604 104.745 23.9604C104.625 23.9604 104.54 23.9942 104.475 24.0643C104.407 24.1318 104.36 24.2746 104.327 24.4875H104.072V21.3042H104.327C104.446 21.9715 104.604 22.47 104.807 22.7998C105.007 23.1321 105.313 23.4048 105.729 23.6255C106.142 23.8436 106.596 23.9552 107.087 23.9552C107.658 23.9552 108.107 23.8046 108.439 23.5034C108.772 23.2023 108.935 22.8465 108.935 22.4363C108.935 22.2078 108.873 21.9767 108.746 21.7456C108.621 21.5119 108.424 21.2964 108.162 21.0939C107.982 20.9563 107.497 20.6655 106.702 20.2215C105.908 19.7775 105.342 19.4218 105.007 19.1569C104.672 18.8921 104.417 18.6013 104.244 18.2793C104.07 17.96 103.984 17.6095 103.984 17.2252C103.984 16.5579 104.241 15.9841 104.75 15.5037C105.261 15.0234 105.91 14.7819 106.702 14.7819C107.196 14.7819 107.718 14.9039 108.271 15.1454C108.525 15.2596 108.707 15.3168 108.811 15.3168C108.93 15.3168 109.026 15.2804 109.102 15.2103C109.177 15.1402 109.237 14.9974 109.283 14.7819H109.538L109.543 14.7793Z" fill="#999999" stroke="#999999" stroke-width="0.5"/>
<path d="M122.834 18.2973H125.711V18.5518C125.314 18.583 125.021 18.6712 124.831 18.814C124.642 18.9568 124.346 19.3931 123.946 20.1175C123.546 20.8419 123.091 21.5222 122.59 22.1505C122.998 22.6257 123.359 22.958 123.678 23.1476C123.998 23.3371 124.32 23.4306 124.644 23.4306C124.969 23.4306 125.226 23.3449 125.444 23.1735C125.662 23.0021 125.818 22.7503 125.909 22.4179L126.163 22.6023C125.994 23.2462 125.722 23.7214 125.348 24.0252C124.974 24.3289 124.538 24.4847 124.039 24.4847C123.665 24.4847 123.286 24.3835 122.899 24.1809C122.515 23.9784 122.092 23.6331 121.637 23.1501C121.071 23.6513 120.562 23.9992 120.106 24.1939C119.651 24.3887 119.166 24.4847 118.651 24.4847C117.899 24.4847 117.301 24.2848 116.857 23.8824C116.413 23.4799 116.193 23.0021 116.193 22.4439C116.193 21.8857 116.393 21.3404 116.787 20.79C117.184 20.2395 117.93 19.6709 119.025 19.0815C118.81 18.6063 118.664 18.2168 118.587 17.9131C118.509 17.6093 118.47 17.3185 118.47 17.0406C118.47 16.2591 118.758 15.6645 119.332 15.2543C119.778 14.9349 120.287 14.7739 120.858 14.7739C121.43 14.7739 121.845 14.9349 122.188 15.2569C122.531 15.5788 122.702 15.9735 122.702 16.4461C122.702 16.9186 122.536 17.3548 122.206 17.7183C121.874 18.0844 121.29 18.4817 120.451 18.9179C121.03 19.9487 121.635 20.8938 122.266 21.7532C123.068 20.7951 123.471 19.9876 123.471 19.3281C123.471 19.1178 123.403 18.9309 123.265 18.7673C123.164 18.6427 123.021 18.57 122.834 18.5492V18.2947V18.2973ZM121.279 22.7555C120.677 21.935 120.259 21.3326 120.028 20.9535C119.794 20.5744 119.539 20.1045 119.262 19.5436C118.714 19.8578 118.301 20.2057 118.026 20.5848C117.751 20.9639 117.613 21.3742 117.613 21.8182C117.613 22.3063 117.771 22.7347 118.085 23.106C118.4 23.4773 118.825 23.6617 119.36 23.6617C119.649 23.6617 119.926 23.6045 120.191 23.4903C120.459 23.376 120.822 23.132 121.282 22.7581L121.279 22.7555ZM120.217 18.4765C120.783 18.2065 121.206 17.9027 121.487 17.5599C121.767 17.2172 121.907 16.8355 121.907 16.4175C121.907 16.0877 121.806 15.8177 121.604 15.6022C121.401 15.3867 121.147 15.2802 120.846 15.2802C120.448 15.2802 120.15 15.4179 119.945 15.6931C119.742 15.9683 119.641 16.2409 119.641 16.5058C119.641 16.7291 119.68 16.9783 119.758 17.2562C119.835 17.534 119.989 17.939 120.217 18.4791V18.4765Z" fill="#999999" stroke="#999999" stroke-width="0.5"/>
<path d="M139.795 14.7793L140.007 17.9366H139.795C139.511 16.9915 139.106 16.3112 138.582 15.8958C138.057 15.4803 137.427 15.2726 136.692 15.2726C136.076 15.2726 135.518 15.4284 135.022 15.7426C134.524 16.0542 134.134 16.5527 133.849 17.2382C133.563 17.9236 133.42 18.7753 133.42 19.7931C133.42 20.6317 133.555 21.3614 133.825 21.9767C134.095 22.5921 134.5 23.0646 135.04 23.3944C135.58 23.7241 136.198 23.8877 136.892 23.8877C137.494 23.8877 138.026 23.7579 138.486 23.5008C138.948 23.2438 139.454 22.7297 140.005 21.9637L140.218 22.1013C139.753 22.927 139.21 23.532 138.587 23.9163C137.967 24.3006 137.229 24.4901 136.375 24.4901C134.838 24.4901 133.646 23.9189 132.8 22.779C132.171 21.93 131.854 20.9303 131.854 19.7801C131.854 18.8532 132.062 18.0015 132.478 17.2252C132.893 16.4488 133.464 15.849 134.194 15.4206C134.921 14.9948 135.718 14.7793 136.58 14.7793C137.25 14.7793 137.912 14.9429 138.566 15.2726C138.759 15.3739 138.896 15.4232 138.977 15.4232C139.099 15.4232 139.208 15.3791 139.299 15.2934C139.418 15.1714 139.501 15 139.553 14.7793H139.792H139.795Z" fill="#999999" stroke="#999999" stroke-width="0.5"/>
<path d="M146.465 14.7793C147.67 14.7793 148.713 15.2363 149.596 16.1528C150.479 17.0694 150.92 18.2092 150.92 19.5802C150.92 20.9511 150.474 22.1611 149.586 23.0932C148.695 24.0253 147.618 24.4901 146.353 24.4901C145.089 24.4901 144.001 24.0357 143.131 23.127C142.261 22.2182 141.828 21.0446 141.828 19.6009C141.828 18.1573 142.329 16.924 143.334 15.9918C144.206 15.1843 145.247 14.7793 146.462 14.7793H146.465ZM146.335 15.2804C145.504 15.2804 144.837 15.5894 144.336 16.2048C143.71 16.9707 143.398 18.095 143.398 19.5724C143.398 21.0498 143.723 22.2545 144.372 23.0698C144.871 23.6904 145.528 24.002 146.343 24.002C147.215 24.002 147.935 23.6618 148.503 22.9816C149.072 22.3013 149.355 21.2289 149.355 19.7645C149.355 18.1755 149.043 16.9915 148.417 16.21C147.916 15.5894 147.221 15.2778 146.335 15.2778V15.2804Z" fill="#999999" stroke="#999999" stroke-width="0.5"/>
<path d="M154.979 19.2967H159.291V16.6405C159.291 16.1653 159.263 15.8537 159.203 15.7031C159.159 15.5889 159.063 15.4902 158.915 15.4097C158.717 15.3007 158.51 15.2462 158.292 15.2462H157.962V14.9917H161.932V15.2462H161.602C161.384 15.2462 161.176 15.2981 160.979 15.4045C160.834 15.4772 160.735 15.5889 160.68 15.7369C160.628 15.8849 160.603 16.1887 160.603 16.6431V22.6331C160.603 23.1031 160.631 23.4147 160.691 23.5653C160.735 23.6795 160.828 23.7782 160.971 23.8587C161.171 23.9677 161.381 24.0222 161.6 24.0222H161.929V24.2767H157.959V24.0222H158.289C158.668 24.0222 158.943 23.9106 159.117 23.6873C159.232 23.5419 159.289 23.1888 159.289 22.6331V19.8056H154.976V22.6331C154.976 23.1031 155.005 23.4147 155.064 23.5653C155.108 23.6795 155.204 23.7782 155.352 23.8587C155.55 23.9677 155.758 24.0222 155.976 24.0222H156.311V24.2767H152.333V24.0222H152.663C153.047 24.0222 153.325 23.9106 153.499 23.6873C153.608 23.5419 153.662 23.1888 153.662 22.6331V16.6431C153.662 16.1679 153.634 15.8563 153.574 15.7057C153.53 15.5915 153.434 15.4928 153.293 15.4123C153.094 15.3033 152.883 15.2487 152.665 15.2487H152.335V14.9943H156.313V15.2487H155.978C155.76 15.2487 155.552 15.3007 155.355 15.4071C155.215 15.4798 155.116 15.5915 155.062 15.7395C155.007 15.8875 154.979 16.1913 154.979 16.6457V19.3018V19.2967Z" fill="#999999" stroke="#999999" stroke-width="0.5"/>
<path d="M165.783 15.4983V19.1672H167.823C168.353 19.1672 168.706 19.0867 168.885 18.9283C169.122 18.718 169.254 18.3493 169.283 17.8196H169.537V21.0522H169.283C169.218 20.6004 169.155 20.3096 169.091 20.1824C169.007 20.024 168.872 19.8968 168.685 19.8059C168.499 19.715 168.21 19.6683 167.823 19.6683H165.783V22.7295C165.783 23.1398 165.801 23.3916 165.837 23.4799C165.873 23.5682 165.938 23.6409 166.029 23.6928C166.12 23.7447 166.294 23.7707 166.549 23.7707H168.125C168.649 23.7707 169.031 23.7344 169.267 23.6617C169.503 23.589 169.732 23.4461 169.953 23.2306C170.236 22.9476 170.526 22.5218 170.822 21.9506H171.095L170.295 24.2796H163.139V24.0252H163.467C163.685 24.0252 163.892 23.9732 164.09 23.8668C164.235 23.7941 164.336 23.685 164.388 23.537C164.44 23.389 164.466 23.093 164.466 22.6412V16.6096C164.466 16.0202 164.406 15.6567 164.287 15.5217C164.123 15.34 163.848 15.2491 163.467 15.2491H163.139V14.9946H170.295L170.399 17.0277H170.132C170.036 16.5395 169.929 16.2046 169.812 16.0202C169.695 15.8385 169.524 15.6983 169.296 15.6022C169.114 15.5347 168.792 15.4983 168.33 15.4983H165.783Z" fill="#999999" stroke="#999999" stroke-width="0.5"/>
<path d="M171.864 14.9899H174.382L180.058 21.9536V16.5997C180.058 16.0285 179.993 15.6728 179.866 15.5326C179.697 15.3404 179.43 15.2444 179.064 15.2444H178.742V14.9899H181.974V15.2444H181.645C181.252 15.2444 180.975 15.3638 180.808 15.6001C180.707 15.7455 180.658 16.0804 180.658 16.5997V24.4255H180.411L174.291 16.9476V22.6651C174.291 23.2363 174.354 23.592 174.476 23.7322C174.65 23.9244 174.917 24.0204 175.278 24.0204H175.605V24.2749H172.373V24.0204H172.694C173.092 24.0204 173.372 23.901 173.536 23.6647C173.634 23.5193 173.686 23.1844 173.686 22.6651V16.2076C173.416 15.8935 173.214 15.6858 173.074 15.5845C172.933 15.4832 172.731 15.3898 172.461 15.3041C172.328 15.2625 172.126 15.2418 171.858 15.2418V14.9873L171.864 14.9899Z" fill="#999999" stroke="#999999" stroke-width="0.5"/>
<path d="M46.7107 28.8262H182" stroke="#999999" stroke-width="0.5" stroke-miterlimit="10"/>
</g>
</svg>
