<svg width="183" height="54" viewBox="0 0 183 54" fill="none" xmlns="http://www.w3.org/2000/svg">
<mask id="mask0_869_5844" style="mask-type:alpha" maskUnits="userSpaceOnUse" x="0" y="0" width="183" height="54">
<rect width="183" height="54" fill="#D9D9D9"/>
</mask>
<g mask="url(#mask0_869_5844)">
<path d="M104.344 25.5859H112.778C112.496 24.6137 111.994 23.8304 111.242 23.266C110.489 22.7016 109.611 22.4195 108.577 22.4195C107.542 22.4195 106.664 22.7016 105.911 23.266C105.127 23.8304 104.626 24.5829 104.344 25.5859H104.344ZM114.879 25.5859C114.973 26.1187 114.973 26.8087 114.879 27.6869H104.344C105.035 29.6938 106.445 30.7285 108.546 30.8534C110.364 30.9475 111.775 30.2574 112.747 28.7524H114.848C114.315 30.1318 113.531 31.198 112.402 31.9505C111.305 32.6714 109.988 33.0168 108.514 32.9852C106.758 32.9228 105.253 32.2952 104.031 31.104C102.808 29.9128 102.212 28.4386 102.212 26.6831C102.212 24.9275 102.808 23.4225 104.031 22.1997C105.253 20.9769 106.758 20.3809 108.514 20.3501C110.145 20.3501 111.524 20.8204 112.684 21.7926C113.907 22.7016 114.628 23.9876 114.879 25.5867V25.5859Z" fill="#999999"/>
<path d="M117.921 25.5859H126.355C126.073 24.6137 125.571 23.8304 124.818 23.266C124.066 22.7016 123.188 22.4195 122.153 22.4195C121.118 22.4195 120.24 22.7016 119.488 23.266C118.703 23.8304 118.202 24.5829 117.92 25.5859H117.921ZM128.456 25.5859C128.55 26.1187 128.55 26.8087 128.456 27.6869H117.921C118.611 29.6938 120.022 30.7285 122.122 30.8534C123.941 30.9475 125.352 30.2574 126.323 28.7524H128.424C127.891 30.1318 127.107 31.198 125.979 31.9505C124.881 32.6714 123.565 33.0168 122.09 32.9852C120.335 32.9228 118.83 32.2952 117.607 31.104C116.384 29.9128 115.788 28.4386 115.788 26.6831C115.788 24.9275 116.384 23.4225 117.607 22.1997C118.83 20.9769 120.335 20.3809 122.09 20.3501C123.721 20.3501 125.1 20.8204 126.261 21.7926C127.484 22.7016 128.204 23.9876 128.456 25.5867V25.5859Z" fill="#999999"/>
<path d="M139.9 26.6206C139.9 25.4294 139.492 24.4256 138.677 23.6107C137.862 22.7957 136.858 22.3879 135.667 22.3879C134.476 22.3879 133.472 22.7957 132.657 23.6107C131.842 24.4256 131.434 25.4294 131.434 26.6206C131.434 27.8118 131.842 28.8156 132.657 29.6306C133.472 30.4455 134.476 30.8534 135.667 30.8534C136.858 30.8534 137.862 30.4455 138.677 29.6306C139.492 28.8156 139.9 27.8434 139.9 26.6206ZM131.497 31.3553C131.497 31.3553 131.559 37.2812 131.497 39.2881C131.434 40.5734 129.396 41.0437 129.396 41.0437V26.6522C129.396 24.8967 129.992 23.3917 131.215 22.1689C132.437 20.9461 133.942 20.3501 135.698 20.3501C137.453 20.3501 138.958 20.9461 140.181 22.1689C141.404 23.3917 142 24.8967 142 26.6522C142 28.4078 141.404 29.9128 140.181 31.1356C138.958 32.3584 137.453 32.9544 135.698 32.9544C134.067 32.9544 132.688 32.4216 131.497 31.3553Z" fill="#999999"/>
<path d="M90.8311 26.8088C90.8311 28 91.2389 29.0038 92.0539 29.8188C92.8688 30.6337 93.8727 31.0416 95.0638 31.0416C96.255 31.0416 97.2589 30.6337 98.0738 29.8188C98.8888 29.0038 99.2966 28 99.2966 26.8088C99.2966 25.6176 98.8888 24.6138 98.0738 23.7988C97.2589 22.9839 96.255 22.576 95.0638 22.576C93.8727 22.576 92.8688 22.9839 92.0539 23.7988C91.2389 24.6138 90.8311 25.6176 90.8311 26.8088ZM99.265 22.0741C99.265 22.0741 99.2026 16.1482 99.265 14.1413C99.3275 12.856 101.366 12.3857 101.366 12.3857V26.7772C101.366 28.5327 100.77 30.0377 99.5472 31.2605C98.3244 32.4833 96.8194 33.0793 95.0638 33.0793C93.3083 33.0793 91.8033 32.4833 90.5805 31.2605C89.3577 30.0377 88.7617 28.5327 88.7617 26.7772C88.7617 25.0216 89.3577 23.5166 90.5805 22.2938C91.8033 21.071 93.3083 20.475 95.0638 20.475C96.6629 20.475 98.0738 21.0078 99.265 22.0741Z" fill="#999999"/>
<path d="M108.546 35.2427H107.794V41.1686H108.546V35.2427Z" fill="#999999"/>
<path d="M110.271 38.5664H113.218C113.124 38.2218 112.936 37.9396 112.685 37.7515C112.435 37.5634 112.121 37.4693 111.745 37.4693C111.4 37.4693 111.086 37.5634 110.804 37.7515C110.553 37.9396 110.365 38.2218 110.271 38.5664H110.271ZM113.971 38.5664C114.002 38.7545 114.002 39.0051 113.971 39.3189H110.271C110.521 40.009 110.991 40.3852 111.744 40.4161C112.371 40.4477 112.873 40.1963 113.217 39.6636H113.97C113.782 40.1655 113.5 40.5101 113.123 40.7923C112.747 41.0429 112.277 41.1685 111.744 41.1685C111.117 41.1369 110.584 40.918 110.176 40.5101C109.738 40.1023 109.518 39.5695 109.518 38.9427C109.518 38.3158 109.738 37.7823 110.176 37.3752C110.615 36.9365 111.117 36.7484 111.744 36.7168C112.308 36.7168 112.81 36.8733 113.217 37.2187C113.625 37.5634 113.876 38.0028 113.97 38.5672L113.971 38.5664Z" fill="#999999"/>
<path d="M117.137 37.4689C116.729 37.4689 116.353 37.6255 116.071 37.9076C115.788 38.1898 115.632 38.5345 115.632 38.9739V41.1998H114.879V38.9739C114.879 38.3471 115.099 37.8136 115.538 37.4065C115.977 36.9678 116.478 36.748 117.105 36.748C117.732 36.748 118.266 36.9678 118.673 37.4065C119.111 37.8452 119.331 38.3471 119.331 38.9739V41.1998H118.579V38.9739C118.579 38.5661 118.422 38.1898 118.14 37.9076C117.92 37.5938 117.544 37.4689 117.137 37.4689Z" fill="#999999"/>
<path d="M120.805 39.8518C120.805 40.0399 120.962 40.2905 121.307 40.4162C121.527 40.4786 121.777 40.5102 121.997 40.5102C122.217 40.5102 122.467 40.4786 122.687 40.4162C123.032 40.3221 123.189 40.0715 123.189 39.8518C123.189 39.6637 123.033 39.5072 122.687 39.4131C122.467 39.3507 122.217 39.319 121.997 39.319C121.589 39.319 121.057 39.2566 120.712 39.0685C120.273 38.8179 120.21 38.4416 120.21 38.0338C120.21 37.5951 120.43 37.2813 120.868 37.0307C121.213 36.8426 121.589 36.7485 121.997 36.7485C122.405 36.7485 122.75 36.8426 123.126 37.0307C123.565 37.2813 123.784 37.5951 123.784 38.0338H123.188C123.188 37.8457 123.032 37.5951 122.686 37.4694C122.467 37.407 122.216 37.3754 121.996 37.3754C121.777 37.3754 121.526 37.407 121.306 37.4694C120.962 37.5635 120.804 37.8141 120.804 38.0338C120.804 38.2219 120.899 38.4725 121.243 38.5666C121.463 38.629 121.839 38.6606 122.058 38.6606C122.466 38.6606 122.779 38.6606 123.124 38.8803C123.563 39.1309 123.783 39.4447 123.783 39.8834C123.783 40.3221 123.563 40.6359 123.124 40.8865C122.78 41.0746 122.404 41.1687 121.996 41.1687C121.588 41.1687 121.243 41.0746 120.867 40.8865C120.428 40.6359 120.208 40.3221 120.208 39.8834H120.804V39.8518H120.805Z" fill="#999999"/>
<path d="M120.805 39.8518C120.805 40.0399 120.962 40.2905 121.307 40.4162C121.527 40.4786 121.777 40.5102 121.997 40.5102C122.217 40.5102 122.467 40.4786 122.687 40.4162C123.032 40.3221 123.189 40.0715 123.189 39.8518C123.189 39.6637 123.033 39.5072 122.687 39.4131C122.467 39.3507 122.217 39.319 121.997 39.319C121.589 39.319 121.057 39.2566 120.712 39.0685C120.273 38.8179 120.21 38.4416 120.21 38.0338C120.21 37.5951 120.43 37.2813 120.868 37.0307C121.213 36.8426 121.589 36.7485 121.997 36.7485C122.405 36.7485 122.75 36.8426 123.126 37.0307C123.565 37.2813 123.784 37.5951 123.784 38.0338H123.188C123.188 37.8457 123.032 37.5951 122.686 37.4694C122.467 37.407 122.216 37.3754 121.996 37.3754C121.777 37.3754 121.526 37.407 121.306 37.4694C120.962 37.5635 120.804 37.8141 120.804 38.0338C120.804 38.2219 120.899 38.4725 121.243 38.5666C121.463 38.629 121.839 38.6606 122.058 38.6606C122.466 38.6606 122.779 38.6606 123.124 38.8803C123.563 39.1309 123.783 39.4447 123.783 39.8834C123.783 40.3221 123.563 40.6359 123.124 40.8865C122.78 41.0746 122.404 41.1687 121.996 41.1687C121.588 41.1687 121.243 41.0746 120.867 40.8865C120.428 40.6359 120.208 40.3221 120.208 39.8834H120.804V39.8518H120.805Z" fill="#999999"/>
<path d="M60.8332 38.152C54.6907 38.152 49.7677 33.1779 49.7677 27.0865C49.7677 20.9952 54.7418 16.0211 60.8332 16.0211C66.9245 16.0211 71.8986 20.9952 71.8986 27.0865C71.8986 33.1779 66.9245 38.152 60.8332 38.152ZM74.2852 13.3811C74.2852 13.3811 68.7519 8 60.9343 8C50.4779 8 42 16.4267 42 26.782C42 37.1372 50.4767 45.564 60.9343 45.564C71.3918 45.564 79.8685 37.1372 79.8685 26.782V9.26943C77.5843 11.0457 75.4523 13.7868 74.2852 13.3811Z" fill="#999999"/>
</g>
</svg>
