<svg width="183" height="54" viewBox="0 0 183 54" fill="none" xmlns="http://www.w3.org/2000/svg">
<mask id="mask0_869_5655" style="mask-type:alpha" maskUnits="userSpaceOnUse" x="0" y="0" width="183" height="54">
<rect width="183" height="54" fill="#D9D9D9"/>
</mask>
<g mask="url(#mask0_869_5655)">
<path d="M4.42407 25.488C4.5477 23.5869 5.04219 21.932 6.06649 20.4683C7.39934 18.5651 9.17785 17.2261 11.3636 16.423C12.3526 16.0594 13.3592 15.781 14.4085 15.6678C14.637 15.6428 14.8624 15.5909 15.1035 15.5494C15.2614 15.0414 15.1273 14.3058 15.9584 14.3256C16.7448 14.3432 16.6971 15.0195 16.7978 15.5296C17.6507 15.6906 18.4808 15.808 19.289 16.0085C20.9615 16.4241 22.4938 17.1689 23.8402 18.2389C25.6509 19.6788 26.8321 21.5414 27.2975 23.8196C27.4024 24.3328 27.3609 24.8751 27.391 25.486H16.7542C16.5506 26.0989 16.6721 26.6578 16.6513 27.2053C16.6295 27.7642 16.6451 28.3251 16.6451 28.8851C16.6451 29.4409 16.6451 29.9956 16.6451 30.6085H15.1149C15.0931 29.7878 15.1087 28.9568 15.1055 28.1278C15.1024 27.2925 15.1055 26.4573 15.1055 25.5431C11.5288 25.5254 8.0185 25.5078 4.42511 25.4891L4.42407 25.488Z" fill="#999999"/>
<path d="M21.4426 37.035H28.458C28.5255 36.5291 28.5774 36.0751 28.6491 35.6243C28.8465 34.3808 29.0221 33.1331 29.2651 31.8989C29.4677 30.8715 29.743 29.8576 30.0069 28.8437C30.1315 28.3637 30.3217 28.2422 30.679 28.3274C31 28.4043 31.159 28.6702 31.0707 29.094C30.8712 30.0519 30.6312 31.0003 30.4318 31.9582C29.8708 34.655 29.528 37.3789 29.4719 40.136C29.4449 41.4875 29.4106 42.8401 29.3794 44.1917C29.3773 44.2852 29.3888 44.3797 29.3742 44.4711C29.3223 44.8015 29.1176 44.9926 28.8236 44.9999C28.5265 45.0061 28.3104 44.8222 28.2554 44.496C28.2325 44.36 28.2419 44.2166 28.2429 44.0774C28.2471 42.6542 28.2533 41.232 28.2585 39.8088C28.2585 39.6259 28.2585 39.442 28.2585 39.1958H22.5646C22.5459 39.415 22.5074 39.6571 22.5064 39.9002C22.5012 41.2767 22.5053 42.6531 22.5043 44.0296C22.5043 44.1927 22.5199 44.362 22.4815 44.5158C22.4139 44.7859 22.2425 44.9895 21.9381 44.9583C21.668 44.9303 21.4571 44.7828 21.4052 44.4877C21.3896 44.3963 21.3917 44.3018 21.3917 44.2083C21.3917 41.9446 21.3927 39.682 21.3959 37.4184C21.3959 37.3269 21.4166 37.2366 21.4416 37.035H21.4426Z" fill="#999999"/>
<path d="M3.62636 37.0503H10.6365C10.6625 37.2737 10.6957 37.4305 10.6957 37.5863C10.6989 39.7565 10.6978 41.9277 10.6978 44.0979C10.6978 44.2142 10.6978 44.3316 10.6905 44.448C10.6698 44.7658 10.4506 44.8853 10.1784 44.9248C9.90309 44.9653 9.68078 44.8064 9.62053 44.5144C9.58313 44.3337 9.59144 44.1436 9.59144 43.9566C9.58936 42.5791 9.59248 41.2026 9.58936 39.8251C9.58936 39.5996 9.56547 39.3742 9.55196 39.1301H3.85698C3.85698 39.7014 3.85698 40.2302 3.85698 40.76C3.85594 41.8799 3.85491 42.9998 3.85179 44.1197C3.85179 44.2589 3.86322 44.4074 3.82166 44.5363C3.73648 44.7991 3.56195 44.984 3.25653 44.956C2.97915 44.93 2.75996 44.8136 2.71321 44.5072C2.69555 44.3939 2.69659 44.2765 2.70178 44.1623C2.83787 41.1943 2.62594 38.2481 2.23222 35.3071C1.97251 33.3645 1.61307 31.4447 1.12792 29.5467C1.08221 29.3659 1.03235 29.1852 1.00742 29.0013C0.962746 28.6782 1.12377 28.4102 1.38556 28.3437C1.68475 28.2679 1.88421 28.3977 2.00367 28.6637C2.06081 28.7904 2.10964 28.9223 2.14392 29.0563C2.7371 31.3366 3.21705 33.6377 3.44871 35.9865C3.47988 36.3065 3.55468 36.6223 3.62843 37.0503H3.62636Z" fill="#999999"/>
<path d="M7.53149 32.9046V31.285C8.16 31.0918 23.4716 31.0523 24.5188 31.2414V32.9056C18.8498 33.1009 13.2254 33.0833 7.53149 32.9056V32.9046Z" fill="#999999"/>
<path d="M13.6222 33.6689H14.8543C15.2085 34.2974 15.5825 34.9613 16.0043 35.7103C16.3627 35.0111 16.6951 34.3639 17.0442 33.6825H18.4259C17.8503 34.8595 17.3029 35.9773 16.7502 37.1055C17.092 37.7558 17.4182 38.3947 17.76 39.0263C18.4144 40.2334 19.0824 41.4323 19.7317 42.6415C19.9073 42.9687 20.0496 43.3168 20.1815 43.6648C20.3197 44.0263 20.2428 44.2798 19.9987 44.3951C19.7296 44.5229 19.3993 44.4294 19.2237 44.1198C18.7863 43.35 18.3708 42.5677 17.9521 41.7876C17.3901 40.7425 16.8333 39.6953 16.238 38.5806C16.1269 38.7313 16.023 38.8372 15.9596 38.964C15.1047 40.6718 14.257 42.3839 13.4041 44.0928C13.3106 44.2798 13.2202 44.4751 13.0903 44.6351C12.9106 44.8553 12.6488 44.9103 12.3922 44.8023C12.1003 44.6797 12.093 44.4086 12.1481 44.1447C12.1761 44.0107 12.2447 43.8829 12.3029 43.7572C12.8909 42.4898 13.483 41.2245 14.07 39.9571C14.4408 39.1551 14.7733 38.3323 15.1878 37.5532C15.4049 37.146 15.2813 36.8541 15.0974 36.5196C14.6154 35.6428 14.1427 34.7608 13.6679 33.8798C13.6472 33.8414 13.6472 33.7926 13.6212 33.6689H13.6222Z" fill="#999999"/>
<path d="M31.8551 14.3019C31.8582 15.6265 30.8276 16.6819 29.5582 16.7214C28.2409 16.7619 27.2301 15.3771 27.2488 14.3134C27.2675 13.2516 28.1567 11.9365 29.5145 11.9375C31.0634 11.9375 31.8862 13.2433 31.8551 14.3019Z" fill="#999999"/>
<path d="M33.6782 10.7916C33.6377 10.9536 33.6418 11.0669 33.5878 11.1292C33.2284 11.5499 32.8876 11.9935 32.4773 12.3592C32.2248 12.5836 31.8945 12.5015 31.7262 12.2823C31.535 12.034 31.506 11.7421 31.695 11.5032C31.9973 11.1209 32.335 10.7635 32.6819 10.4207C32.8575 10.2472 33.1131 10.1942 33.324 10.3584C33.4767 10.4778 33.5774 10.6627 33.6782 10.7905V10.7916Z" fill="#999999"/>
<path d="M26.0521 18.314C25.6293 18.3026 25.2896 17.7613 25.5306 17.432C25.8568 16.9874 26.2589 16.5864 26.6806 16.2301C26.8074 16.1231 27.1377 16.1626 27.3268 16.2446C27.5647 16.3475 27.6063 16.6352 27.5128 16.8575C27.2614 17.4497 26.8198 17.8933 26.288 18.2444C26.2142 18.2932 26.1114 18.2974 26.0511 18.314H26.0521Z" fill="#999999"/>
<path d="M26.3511 10.2369C26.4259 10.2639 26.5848 10.2764 26.6773 10.3605C27.0191 10.6732 27.3692 10.9859 27.66 11.3433C27.9042 11.6424 27.8418 12.0299 27.6019 12.2263C27.3619 12.4226 26.99 12.4112 26.7209 12.1452C26.4093 11.8367 26.0997 11.5136 25.8514 11.1542C25.5678 10.7407 25.8192 10.2628 26.3511 10.2358V10.2369Z" fill="#999999"/>
<path d="M33.166 18.2393C33.1161 18.2258 32.9676 18.232 32.9042 18.1614C32.5469 17.7697 32.1926 17.3739 31.8747 16.9511C31.7334 16.7641 31.721 16.5179 31.9277 16.3184C32.1365 16.1169 32.4835 16.0276 32.6871 16.2218C33.0704 16.5854 33.4548 16.9688 33.7384 17.4082C33.9826 17.7874 33.6771 18.2185 33.1671 18.2393H33.166Z" fill="#999999"/>
<path d="M25.4162 15.0664C25.1503 15.0497 24.9425 15.0404 24.7348 15.0217C24.447 14.9957 24.2475 14.8524 24.2226 14.5542C24.1997 14.2862 24.2829 14.0213 24.5509 13.9226C25.1316 13.7065 25.732 13.7169 26.3128 13.9247C26.5382 14.0057 26.694 14.1875 26.6525 14.4659C26.6109 14.7433 26.4759 14.9531 26.1881 15.0009C25.9149 15.0456 25.6354 15.0497 25.4152 15.0674L25.4162 15.0664Z" fill="#999999"/>
<path d="M33.7364 15.0672C33.5328 15.0526 33.2991 15.0568 33.0726 15.0163C32.7069 14.9508 32.5272 14.7441 32.5064 14.4158C32.4888 14.1468 32.6477 13.9182 33.0186 13.8756C33.4934 13.8195 33.9837 13.8143 34.4595 13.8621C34.8075 13.8974 34.9851 14.1914 34.9384 14.5072C34.8927 14.8168 34.7109 15.0059 34.3868 15.0298C34.179 15.0454 33.9712 15.0537 33.7375 15.0672H33.7364Z" fill="#999999"/>
<path d="M29.2402 10.2846C29.2402 10.0301 29.2174 9.77346 29.2454 9.52206C29.2828 9.18651 29.5093 8.98809 29.7836 9.00055C30.0568 9.01302 30.2957 9.23014 30.3082 9.5418C30.3279 10.0269 30.331 10.5142 30.2988 10.9983C30.2729 11.3878 30.0402 11.6112 29.7545 11.6081C29.4854 11.605 29.26 11.3494 29.2278 10.9785C29.208 10.7489 29.2236 10.5162 29.2236 10.2846C29.2288 10.2846 29.234 10.2846 29.2402 10.2846Z" fill="#999999"/>
<path d="M30.3122 18.4104C30.3122 18.6431 30.3299 18.8778 30.3081 19.1085C30.2759 19.4513 30.0058 19.7276 29.7461 19.7152C29.5155 19.7048 29.2537 19.4399 29.2381 19.1324C29.2131 18.6441 29.2121 18.1538 29.2329 17.6655C29.2474 17.3362 29.4656 17.1398 29.7596 17.1222C30.037 17.1045 30.2645 17.3029 30.3019 17.6426C30.3299 17.8951 30.3071 18.1538 30.3071 18.4104C30.3081 18.4104 30.3102 18.4104 30.3112 18.4104H30.3122Z" fill="#999999"/>
<path d="M54.9916 19.1606V20.7213H48.1945V25.6702H54.0033V27.2309H48.1945V33.3169H46.2681V19.1606H54.9916Z" fill="#999999"/>
<path d="M70.9561 33.3184H69.4737C69.3017 33.3184 69.1644 33.276 69.0591 33.19C68.9539 33.104 68.8743 32.9962 68.8217 32.864L67.4985 29.4463H61.1468L59.8236 32.864C59.7774 32.9821 59.6978 33.0886 59.5861 33.1798C59.4745 33.2722 59.3359 33.3184 59.1716 33.3184H57.6892L63.3504 19.1621H65.2961L70.9573 33.3184H70.9561ZM61.6794 28.0627H66.9646L64.7417 22.3027C64.5966 21.9472 64.4555 21.5018 64.3169 20.9692C64.2437 21.24 64.1731 21.4877 64.1038 21.7149C64.0345 21.942 63.9678 22.141 63.901 22.3129L61.6781 28.0627H61.6794Z" fill="#999999"/>
<path d="M75.905 33.3184V19.1621H80.4201C81.289 19.1621 82.0386 19.2481 82.6674 19.4188C83.2963 19.5895 83.8135 19.8333 84.2191 20.1504C84.6247 20.4661 84.9237 20.8537 85.1175 21.3106C85.3113 21.7688 85.4089 22.2834 85.4089 22.8571C85.4089 23.2062 85.355 23.5425 85.2459 23.8646C85.1368 24.188 84.9725 24.4871 84.7517 24.763C84.531 25.0402 84.2538 25.2867 83.9214 25.5036C83.5889 25.7205 83.1988 25.8989 82.7509 26.0375C83.7853 26.2415 84.5656 26.6137 85.0918 27.1541C85.6181 27.6944 85.8824 28.4054 85.8824 29.2884C85.8824 29.8878 85.7721 30.4345 85.5513 30.9286C85.3306 31.4228 85.0084 31.8476 84.5836 32.2031C84.1588 32.5586 83.639 32.8332 83.023 33.0283C82.4069 33.2221 81.7036 33.3197 80.9143 33.3197H75.905V33.3184ZM77.8212 25.5036H80.3508C80.8912 25.5036 81.3583 25.4445 81.7536 25.3252C82.1489 25.2071 82.4762 25.0415 82.7367 24.831C82.9973 24.6206 83.1898 24.3652 83.3143 24.0661C83.4388 23.7658 83.5017 23.4385 83.5017 23.083C83.5017 22.2526 83.2514 21.6443 82.7509 21.2554C82.2503 20.8665 81.4726 20.6727 80.4189 20.6727H77.8212V25.5036ZM77.8212 26.8666V31.7962H80.8835C81.4302 31.7962 81.8999 31.7333 82.2914 31.6088C82.6828 31.4844 83.0063 31.3072 83.2591 31.0801C83.5119 30.8529 83.6993 30.5834 83.8174 30.2702C83.9355 29.9571 83.9958 29.6131 83.9958 29.2371C83.9958 28.5055 83.7378 27.928 83.2206 27.5031C82.7034 27.0783 81.9218 26.8653 80.8745 26.8653H77.8225L77.8212 26.8666Z" fill="#999999"/>
<path d="M90.2102 19.161H91.7413C91.912 19.161 92.0506 19.2033 92.1559 19.2893C92.2611 19.3753 92.3407 19.4831 92.3933 19.6153L96.3938 29.603C96.4862 29.8276 96.5696 30.0701 96.6453 30.3345C96.7211 30.5976 96.7955 30.871 96.8674 31.1546C96.9264 30.871 96.9906 30.5976 97.0599 30.3345C97.1292 30.0714 97.2101 29.8276 97.3025 29.603L101.284 19.6153C101.33 19.5036 101.408 19.3997 101.521 19.3034C101.633 19.2084 101.771 19.1597 101.936 19.1597H103.477L97.708 33.3159H95.9792L90.2102 19.1597V19.161Z" fill="#999999"/>
<path d="M117.17 19.1606V20.7213H110.373V25.4238H115.876V26.9254H110.373V31.7563H117.17V33.3169H108.447V19.1606H117.17Z" fill="#999999"/>
<path d="M124.456 19.2249C124.538 19.2673 124.632 19.3546 124.737 19.4868L132.937 30.1559C132.918 29.9852 132.904 29.8184 132.897 29.6567C132.891 29.495 132.887 29.3384 132.887 29.187V19.1595H134.567V33.3158H133.599C133.448 33.3158 133.321 33.2901 133.219 33.2362C133.117 33.1836 133.017 33.095 132.918 32.9692L124.728 22.309C124.741 22.4733 124.751 22.635 124.758 22.7929C124.764 22.9507 124.768 23.0958 124.768 23.228V33.3145H123.088V19.1582H124.076C124.247 19.1582 124.374 19.18 124.456 19.2224V19.2249Z" fill="#999999"/>
<path d="M146.689 31.796C147.275 31.796 147.799 31.6972 148.26 31.4996C148.721 31.3019 149.111 31.026 149.43 30.6692C149.75 30.3137 149.994 29.8889 150.162 29.3947C150.33 28.9006 150.413 28.3577 150.413 27.7648V19.1606H152.321V27.7648C152.321 28.581 152.191 29.3396 151.93 30.0365C151.67 30.7346 151.298 31.3391 150.814 31.8487C150.33 32.3595 149.738 32.7586 149.04 33.0487C148.342 33.3387 147.558 33.4838 146.689 33.4838C145.82 33.4838 145.036 33.3387 144.338 33.0487C143.639 32.7586 143.046 32.3595 142.559 31.8487C142.071 31.3379 141.698 30.7346 141.437 30.0365C141.177 29.3383 141.047 28.581 141.047 27.7648V19.1606H142.954V27.7558C142.954 28.3487 143.039 28.8916 143.206 29.3858C143.374 29.8799 143.618 30.3047 143.937 30.6602C144.257 31.0157 144.648 31.2942 145.113 31.4944C145.577 31.6959 146.102 31.796 146.689 31.796Z" fill="#999999"/>
<path d="M167.495 19.1606V20.7213H160.698V25.4238H166.2V26.9254H160.698V31.7563H167.495V33.3169H158.771V19.1606H167.495Z" fill="#999999"/>
<path d="M180.663 21.3744C180.604 21.4732 180.541 21.5476 180.475 21.5964C180.41 21.6464 180.324 21.6708 180.219 21.6708C180.107 21.6708 179.976 21.6144 179.829 21.5027C179.68 21.391 179.492 21.2678 179.265 21.1318C179.038 20.997 178.765 20.8738 178.445 20.7609C178.125 20.6492 177.739 20.5927 177.285 20.5927C176.856 20.5927 176.478 20.6505 176.149 20.766C175.82 20.8815 175.544 21.0381 175.324 21.2357C175.103 21.4334 174.937 21.6657 174.824 21.9326C174.713 22.1996 174.656 22.4871 174.656 22.7964C174.656 23.1917 174.754 23.519 174.948 23.7795C175.141 24.04 175.398 24.2621 175.718 24.4456C176.037 24.6304 176.399 24.7896 176.805 24.9243C177.21 25.0591 177.625 25.199 178.05 25.344C178.475 25.489 178.889 25.652 179.295 25.833C179.7 26.014 180.062 26.2424 180.382 26.5196C180.701 26.7969 180.958 27.1357 181.152 27.5374C181.346 27.9391 181.443 28.4332 181.443 29.0198C181.443 29.6397 181.338 30.2198 181.127 30.7639C180.917 31.3068 180.609 31.7804 180.203 32.1821C179.798 32.5839 179.301 32.8996 178.712 33.1306C178.123 33.3616 177.453 33.4758 176.702 33.4758C175.787 33.4758 174.952 33.309 174.198 32.9766C173.444 32.6442 172.801 32.195 172.267 31.6277L172.82 30.719C172.872 30.6472 172.937 30.5856 173.012 30.5368C173.088 30.488 173.171 30.4623 173.264 30.4623C173.402 30.4623 173.56 30.5368 173.737 30.6844C173.916 30.8333 174.138 30.995 174.405 31.1734C174.672 31.3518 174.994 31.5148 175.373 31.6623C175.751 31.8099 176.213 31.8844 176.761 31.8844C177.216 31.8844 177.621 31.8215 177.977 31.697C178.332 31.5725 178.634 31.3954 178.88 31.1682C179.127 30.9411 179.316 30.669 179.449 30.3533C179.581 30.0375 179.646 29.6846 179.646 29.2957C179.646 28.867 179.549 28.5167 179.355 28.2433C179.161 27.9699 178.906 27.7415 178.589 27.5566C178.273 27.3718 177.912 27.2153 177.507 27.0869C177.101 26.9586 176.687 26.8264 176.262 26.6916C175.837 26.5569 175.423 26.4003 175.017 26.2219C174.611 26.0435 174.252 25.8137 173.935 25.5301C173.619 25.2465 173.364 24.8922 173.169 24.4687C172.975 24.0439 172.878 23.519 172.878 22.8927C172.878 22.3921 172.975 21.9083 173.169 21.4398C173.363 20.9726 173.645 20.5568 174.013 20.1949C174.382 19.8329 174.839 19.5429 175.381 19.326C175.924 19.1091 176.549 19 177.254 19C178.045 19 178.766 19.1258 179.418 19.376C180.07 19.6263 180.64 19.9882 181.127 20.4631L180.663 21.3718V21.3744Z" fill="#999999"/>
<path d="M61.8963 41.2891C62.0105 41.2416 62.1145 41.1877 62.2082 41.1261C62.3558 41.0298 62.4815 40.9181 62.5791 40.7949C62.6779 40.6704 62.7536 40.5344 62.8024 40.3894C62.8512 40.2456 62.8756 40.0929 62.8756 39.9363C62.8756 39.6835 62.8319 39.4512 62.7459 39.2484C62.6587 39.0431 62.5226 38.8672 62.3404 38.7248C62.1607 38.5849 61.9284 38.4758 61.6524 38.4C61.3778 38.3256 61.0479 38.2871 60.6706 38.2871H58.6685V44.4899H60.8824C61.2263 44.4899 61.5369 44.4463 61.8065 44.3616C62.0773 44.2756 62.3096 44.1537 62.4982 43.9958C62.6869 43.838 62.8332 43.6454 62.9307 43.426C63.0283 43.2065 63.0783 42.9614 63.0783 42.6957C63.0783 42.3017 62.9577 41.9783 62.7215 41.7357C62.5252 41.5342 62.2492 41.3853 61.8976 41.2891H61.8963ZM61.8527 40.4317C61.8039 40.5498 61.7269 40.6512 61.6242 40.7346C61.5202 40.8193 61.3855 40.8861 61.2238 40.9348C61.0608 40.9836 60.8644 41.008 60.6398 41.008H59.6195V39.0636H60.6706C61.1057 39.0636 61.4291 39.1432 61.6319 39.2997C61.8321 39.455 61.9297 39.695 61.9297 40.0339C61.9297 40.1776 61.904 40.3111 61.8539 40.4304L61.8527 40.4317ZM59.6195 41.7229H60.8657C61.2969 41.7229 61.6229 41.8101 61.8321 41.9821C62.04 42.1528 62.1414 42.38 62.1414 42.6764C62.1414 42.8292 62.117 42.9704 62.0696 43.0974C62.0234 43.2206 61.9476 43.3297 61.8475 43.4196C61.7448 43.5107 61.6139 43.5826 61.4548 43.6326C61.2944 43.6839 61.098 43.7096 60.8708 43.7096H59.6208V41.7229H59.6195Z" fill="#999999"/>
<path d="M73.8271 39.1109C73.5601 38.8298 73.2341 38.6091 72.8581 38.4538C72.4833 38.2985 72.0637 38.2202 71.6106 38.2202C71.1576 38.2202 70.7379 38.2985 70.3644 38.4538C69.9896 38.6091 69.6649 38.8311 69.398 39.1109C69.131 39.3907 68.9205 39.7295 68.7742 40.1158C68.6279 40.5009 68.5535 40.9308 68.5535 41.3916C68.5535 41.8523 68.6279 42.281 68.7742 42.6673C68.9205 43.0536 69.131 43.3912 69.398 43.6697C69.6662 43.9495 69.9909 44.1689 70.3657 44.3229C70.7392 44.477 71.1576 44.5552 71.6106 44.5552C72.0637 44.5552 72.4833 44.477 72.8581 44.3229C73.2341 44.1689 73.5601 43.9495 73.8271 43.6697C74.094 43.3912 74.3045 43.0536 74.4521 42.666C74.5984 42.2797 74.6729 41.851 74.6729 41.3903C74.6729 40.9295 74.5984 40.5009 74.4521 40.1146C74.3058 39.7283 74.0953 39.3894 73.8284 39.1096L73.8271 39.1109ZM73.7 41.3916C73.7 41.7561 73.65 42.0859 73.5512 42.3734C73.4523 42.6596 73.3112 42.9035 73.1315 43.1011C72.9531 43.2975 72.7323 43.4502 72.4769 43.5554C72.2202 43.6607 71.9289 43.7133 71.6106 43.7133C71.2923 43.7133 71.0061 43.6594 70.7494 43.5554C70.494 43.4502 70.272 43.2975 70.0923 43.1011C69.9113 42.9035 69.7702 42.6583 69.6713 42.3734C69.5725 42.0859 69.5225 41.7561 69.5225 41.3916C69.5225 41.0271 69.5725 40.696 69.6713 40.4072C69.7702 40.1197 69.9113 39.8746 70.0923 39.6769C70.2733 39.4805 70.494 39.3265 70.7494 39.22C71.0061 39.1135 71.2962 39.0596 71.6106 39.0596C71.925 39.0596 72.2202 39.1135 72.4756 39.22C72.731 39.3265 72.9518 39.4793 73.1315 39.6769C73.3112 39.8746 73.4523 40.1197 73.5512 40.4072C73.65 40.696 73.7 41.0271 73.7 41.3916Z" fill="#999999"/>
<path d="M85.3408 39.1109C85.0738 38.8298 84.7478 38.6091 84.3718 38.4538C83.997 38.2985 83.5773 38.2202 83.1243 38.2202C82.6712 38.2202 82.2515 38.2985 81.8781 38.4538C81.5033 38.6091 81.1786 38.8298 80.9116 39.1109C80.6447 39.3907 80.4342 39.7295 80.2879 40.1158C80.1416 40.5022 80.0671 40.9308 80.0671 41.3916C80.0671 41.8523 80.1416 42.281 80.2879 42.6673C80.4342 43.0536 80.6447 43.3912 80.9116 43.6697C81.1799 43.9495 81.5046 44.1689 81.8793 44.3229C82.2528 44.477 82.6712 44.5552 83.1243 44.5552C83.5773 44.5552 83.997 44.477 84.3718 44.3229C84.7478 44.1689 85.0738 43.9495 85.3408 43.6697C85.6077 43.3912 85.8182 43.0536 85.9645 42.6673C86.1108 42.2823 86.1853 41.8523 86.1853 41.3916C86.1853 40.9308 86.1108 40.5022 85.9645 40.1158C85.8182 39.7295 85.6077 39.392 85.3408 39.1109ZM85.2137 41.3916C85.2137 41.7561 85.1637 42.0859 85.0648 42.3734C84.966 42.6583 84.8248 42.9035 84.6451 43.1011C84.4667 43.2975 84.246 43.4502 83.9906 43.5554C83.7339 43.6607 83.4426 43.7133 83.1243 43.7133C82.806 43.7133 82.5198 43.6594 82.2631 43.5554C82.0077 43.4502 81.7857 43.2975 81.606 43.1011C81.425 42.9035 81.2838 42.6583 81.185 42.3734C81.0862 42.0859 81.0361 41.7561 81.0361 41.3916C81.0361 41.0271 81.0862 40.696 81.185 40.4072C81.2838 40.1197 81.425 39.8746 81.606 39.6769C81.7869 39.4805 82.0077 39.3265 82.2631 39.22C82.5198 39.1135 82.8098 39.0596 83.1243 39.0596C83.4387 39.0596 83.7339 39.1135 83.9893 39.22C84.2447 39.3265 84.4655 39.4793 84.6451 39.6769C84.8248 39.8746 84.966 40.1197 85.0648 40.4072C85.1637 40.696 85.2137 41.0271 85.2137 41.3916Z" fill="#999999"/>
<path d="M94.366 41.308C94.3326 41.2798 94.2967 41.2554 94.2582 41.2336C94.2813 41.2169 94.3044 41.2002 94.3262 41.1809C94.3801 41.1335 94.4391 41.0757 94.4994 41.0103L96.9084 38.2881H96.0665C95.9664 38.2881 95.8817 38.3061 95.815 38.3394C95.7495 38.3728 95.6828 38.428 95.616 38.505L93.5933 40.7946C93.5433 40.8524 93.4907 40.8922 93.4368 40.9153C93.3816 40.9384 93.3033 40.9499 93.2057 40.9499H92.9606V38.2881H92.0134V44.4909H92.9606V41.7097H93.2699C93.3341 41.7097 93.388 41.7136 93.4316 41.72C93.4714 41.7264 93.5073 41.7367 93.5369 41.7508C93.5664 41.7649 93.5933 41.7829 93.6152 41.8021C93.6408 41.8252 93.6678 41.8522 93.696 41.883L95.7944 44.2958C95.8175 44.3228 95.8419 44.3472 95.865 44.3703C95.892 44.3972 95.9228 44.4191 95.9549 44.437C95.9857 44.4537 96.0229 44.4665 96.0665 44.4768C96.1076 44.4858 96.1589 44.4909 96.2167 44.4909H97.0663L94.561 41.5069C94.4943 41.4286 94.4301 41.3619 94.3672 41.3093L94.366 41.308Z" fill="#999999"/>
<path d="M112.527 38.8169C112.334 38.6474 112.089 38.5165 111.798 38.4241C111.509 38.333 111.165 38.2881 110.776 38.2881H108.919V44.4909H109.866V42.2192H110.777C111.147 42.2192 111.481 42.1705 111.768 42.0742C112.058 41.9767 112.305 41.8393 112.501 41.6648C112.699 41.4903 112.85 41.2785 112.951 41.0359C113.053 40.7946 113.104 40.5251 113.104 40.2351C113.104 39.945 113.057 39.6742 112.962 39.4355C112.867 39.1955 112.72 38.9876 112.527 38.8169ZM110.776 41.4376H109.865V39.0646H110.776C111.241 39.0646 111.591 39.1685 111.816 39.3739C112.039 39.5779 112.153 39.8667 112.153 40.2338C112.153 40.4109 112.124 40.5752 112.065 40.7228C112.006 40.8691 111.918 40.9949 111.805 41.1001C111.691 41.2053 111.546 41.2888 111.377 41.3478C111.205 41.4068 111.003 41.4376 110.776 41.4376Z" fill="#999999"/>
<path d="M119.712 38.2871H118.761V44.4912H122.341V43.6711H119.712V38.2871Z" fill="#999999"/>
<path d="M130.543 38.2864H129.622L127.141 44.4893H127.871C127.957 44.4893 128.031 44.4649 128.091 44.4148C128.147 44.3686 128.188 44.3134 128.211 44.2531L128.763 42.8272H131.401L131.953 44.2531C131.98 44.3199 132.021 44.3763 132.073 44.4187C132.13 44.4649 132.203 44.488 132.292 44.488H133.022L130.558 38.3249L130.541 38.2852L130.543 38.2864ZM130.051 39.4659C130.061 39.4338 130.07 39.4005 130.08 39.3671C130.12 39.5019 130.161 39.6212 130.202 39.7226L131.122 42.1072H129.042L129.962 39.7277C129.99 39.6533 130.02 39.566 130.051 39.4672V39.4659Z" fill="#999999"/>
<path d="M142.365 43.1867C142.261 43.2804 142.156 43.3613 142.053 43.4293C141.952 43.496 141.842 43.5512 141.723 43.5949C141.605 43.6385 141.474 43.6706 141.336 43.6911C141.195 43.7117 141.034 43.7219 140.857 43.7219C140.571 43.7219 140.299 43.6693 140.051 43.5654C139.803 43.4614 139.587 43.31 139.407 43.1123C139.226 42.9147 139.08 42.6682 138.974 42.3807C138.869 42.092 138.815 41.7583 138.815 41.3899C138.815 41.0216 138.869 40.7046 138.974 40.4158C139.08 40.1296 139.228 39.8832 139.416 39.683C139.603 39.484 139.83 39.3287 140.091 39.2209C140.351 39.1131 140.644 39.0579 140.959 39.0579C141.134 39.0579 141.292 39.0708 141.426 39.0964C141.56 39.1221 141.68 39.1555 141.78 39.1927C141.88 39.2312 141.969 39.2723 142.042 39.3159C142.114 39.3583 142.179 39.4006 142.237 39.4404C142.293 39.4802 142.343 39.5136 142.384 39.5405C142.501 39.6175 142.619 39.5995 142.683 39.5521C142.716 39.529 142.744 39.5007 142.767 39.4673L143.066 39.0451L143.025 39.0066C142.769 38.7653 142.473 38.5715 142.143 38.4303C141.813 38.2892 141.417 38.2173 140.962 38.2173C140.508 38.2173 140.079 38.2956 139.698 38.4483C139.317 38.6023 138.986 38.8218 138.713 39.1016C138.439 39.3814 138.224 39.7189 138.073 40.1065C137.923 40.4941 137.846 40.9253 137.846 41.3887C137.846 41.852 137.917 42.2832 138.058 42.6695C138.198 43.0571 138.399 43.3947 138.656 43.6719C138.913 43.9504 139.226 44.1686 139.589 44.3239C139.951 44.4779 140.36 44.5562 140.806 44.5562C141.313 44.5562 141.753 44.4727 142.115 44.3085C142.477 44.1442 142.789 43.9119 143.042 43.618L143.079 43.5743L142.716 43.1778C142.619 43.0815 142.487 43.0764 142.364 43.1842L142.365 43.1867Z" fill="#999999"/>
<path d="M148.758 44.4912H152.63V43.6929H149.713V41.7485H152.074V40.9759H149.713V39.0854H152.63V38.2871H148.758V44.4912Z" fill="#999999"/>
<path d="M161.528 41.4605C161.387 41.3386 161.225 41.2359 161.046 41.1564C160.872 41.0781 160.69 41.0075 160.505 40.9446C160.323 40.883 160.145 40.8227 159.971 40.7649C159.802 40.7084 159.649 40.6417 159.517 40.5647C159.389 40.4903 159.283 40.3991 159.206 40.2952C159.132 40.1963 159.093 40.0667 159.093 39.9114C159.093 39.7869 159.117 39.6714 159.16 39.5649C159.204 39.4596 159.271 39.3672 159.358 39.289C159.445 39.2107 159.558 39.1465 159.69 39.1003C159.824 39.0528 159.98 39.0297 160.156 39.0297C160.342 39.0297 160.503 39.0528 160.632 39.0977C160.764 39.1439 160.879 39.1953 160.972 39.2504C161.07 39.3095 161.147 39.3595 161.209 39.4057C161.356 39.5161 161.482 39.5071 161.564 39.4455C161.599 39.4186 161.631 39.3826 161.66 39.3326L161.884 38.8962L161.85 38.8629C161.636 38.6537 161.382 38.4919 161.096 38.3829C160.809 38.2738 160.49 38.2173 160.145 38.2173C159.835 38.2173 159.557 38.2661 159.317 38.3623C159.077 38.4586 158.871 38.5882 158.708 38.7486C158.544 38.9091 158.418 39.0964 158.331 39.3044C158.245 39.5123 158.201 39.7292 158.201 39.9525C158.201 40.2297 158.245 40.4659 158.332 40.6558C158.42 40.8458 158.535 41.0062 158.676 41.1332C158.816 41.259 158.978 41.3617 159.158 41.4413C159.332 41.5183 159.514 41.5863 159.698 41.6453L160.232 41.8148C160.401 41.8687 160.553 41.9341 160.684 42.0098C160.811 42.0843 160.915 42.1767 160.992 42.2858C161.067 42.391 161.105 42.5309 161.105 42.7003C161.105 42.8582 161.078 43.0019 161.025 43.129C160.972 43.256 160.895 43.3651 160.797 43.4563C160.698 43.5474 160.575 43.6193 160.431 43.6693C160.286 43.7207 160.116 43.7463 159.93 43.7463C159.704 43.7463 159.512 43.7155 159.358 43.6552C159.2 43.5936 159.064 43.5243 158.955 43.4511C158.842 43.3754 158.747 43.3061 158.674 43.2458C158.522 43.12 158.39 43.1097 158.286 43.1778C158.248 43.2034 158.213 43.2355 158.184 43.2766L157.92 43.7078L157.954 43.7437C158.187 43.9927 158.474 44.1917 158.803 44.3367C159.133 44.4817 159.504 44.5562 159.905 44.5562C160.233 44.5562 160.532 44.5048 160.79 44.4034C161.051 44.3008 161.273 44.1596 161.452 43.9825C161.632 43.8054 161.769 43.5923 161.863 43.3523C161.956 43.1123 162.003 42.853 162.003 42.581C162.003 42.3089 161.959 42.0984 161.872 41.9174C161.785 41.7377 161.669 41.5837 161.526 41.4605H161.528Z" fill="#999999"/>
<path d="M168.999 43.7273C168.969 43.6554 168.926 43.5912 168.873 43.5373C168.819 43.4834 168.756 43.4411 168.683 43.409C168.537 43.3461 168.362 43.3461 168.217 43.409C168.146 43.4398 168.081 43.4834 168.029 43.5373C167.976 43.5912 167.935 43.6541 167.906 43.7273C167.876 43.7991 167.861 43.8774 167.861 43.9596C167.861 44.0417 167.876 44.1239 167.906 44.1944C167.935 44.265 167.977 44.3279 168.029 44.3818C168.081 44.4357 168.146 44.4794 168.217 44.5089C168.289 44.5384 168.368 44.5538 168.45 44.5538C168.532 44.5538 168.61 44.5384 168.682 44.5089C168.755 44.4794 168.819 44.437 168.872 44.3831C168.926 44.3292 168.968 44.2663 168.998 44.1957C169.027 44.1239 169.043 44.0456 169.043 43.9609C169.043 43.8762 169.027 43.8017 168.998 43.7286L168.999 43.7273Z" fill="#999999"/>
<path d="M168.067 41.5207C168.076 41.644 168.087 41.771 168.099 41.9006C168.112 42.029 168.126 42.1676 168.144 42.3152L168.151 42.3717H168.778L168.785 42.3152C168.801 42.1676 168.817 42.0303 168.83 41.9006C168.843 41.771 168.853 41.6452 168.862 41.522C168.871 41.3988 168.877 41.2756 168.881 41.1524C168.885 41.0305 168.887 40.9047 168.887 40.7776V38.2891H168.043V40.7776C168.043 40.906 168.046 41.0305 168.049 41.1524C168.053 41.2743 168.06 41.3975 168.069 41.522L168.067 41.5207Z" fill="#999999"/>
</g>
</svg>
