<svg width="183" height="54" viewBox="0 0 183 54" fill="none" xmlns="http://www.w3.org/2000/svg">
<mask id="mask0_869_5748" style="mask-type:alpha" maskUnits="userSpaceOnUse" x="0" y="0" width="183" height="54">
<rect width="183" height="54" fill="#D9D9D9"/>
</mask>
<g mask="url(#mask0_869_5748)">
<path fill-rule="evenodd" clip-rule="evenodd" d="M56.76 43.286C55.3557 44.2784 53.5101 44.4277 52.0802 43.7826C52.0802 43.7826 51.6904 43.6337 51.3267 43.2368C51.0137 42.8634 43.1101 34.351 43.1101 34.351L43.0844 34.3258C45.5288 34.748 48.2068 33.6315 49.5847 31.5962C50.9617 29.6601 50.9109 26.9052 49.6107 24.9691C48.0511 22.8597 45.0085 22.165 42.4606 22.4872C38.0409 23.083 34.869 26.8308 33.8818 30.753C32.8669 35.2194 33.5956 39.439 35.1824 43.41C35.5454 44.2544 36.0396 45.1228 36.6379 45.8664C31.9833 43.9315 27.8754 40.3574 25.718 35.5668C23.3261 30.4044 23.3781 23.8774 26.2122 18.6406C28.4477 14.5951 32.3991 10.8474 37.2874 9.25863C42.4085 7.2485 49.2985 7.67029 54.2908 10.3507C60.348 13.2297 64.9237 20.4034 64.9498 26.8064C65.1579 33.433 62.0888 39.439 56.76 43.286Z" fill="#999999"/>
<path fill-rule="evenodd" clip-rule="evenodd" d="M39.7569 44.8209C37.4954 42.487 35.675 39.4596 37.0536 36.3077C38.2746 33.9002 39.3667 31.4427 39.8869 28.6626C40.095 31.5671 41.9415 34.1483 42.8243 36.9284C43.1625 38.2682 43.1889 39.6585 42.643 41.0479C42.0451 42.5618 41.0827 43.852 39.9386 45.0186L39.7569 44.8209Z" fill="#999999"/>
<path fill-rule="evenodd" clip-rule="evenodd" d="M88.404 28.1248H84.0743C83.1151 26.6881 82.2486 25.4469 81.4701 24.4014C80.6556 23.3036 79.8158 22.2249 78.9512 21.1662H77.3071V26.0383C77.3071 26.2896 77.3496 26.5109 77.4311 26.7031C77.5122 26.891 77.6901 27.0395 77.9649 27.1388C78.1002 27.1906 78.3367 27.2384 78.6769 27.2792C79.0173 27.3236 79.304 27.3495 79.54 27.3567V28.125H72.7371V27.3567C72.9189 27.3414 73.1825 27.3164 73.5267 27.2792C73.8709 27.2462 74.1109 27.1978 74.2462 27.1388C74.4712 27.0461 74.637 26.9097 74.7377 26.729C74.8416 26.5477 74.8926 26.3189 74.8926 26.0383V14.9339C74.8926 14.679 74.854 14.4577 74.776 14.262C74.7032 14.066 74.5248 13.9181 74.2465 13.8182C74.0568 13.752 73.8096 13.6933 73.5075 13.6409C73.2527 13.5925 72.9955 13.5579 72.7371 13.5373V12.7692H80.1627C80.8436 12.7692 81.4816 12.8363 82.0779 12.969C82.673 13.1019 83.2155 13.316 83.6996 13.6113C84.1598 13.8916 84.5448 14.2798 84.8213 14.7423C85.1005 15.2076 85.2429 15.7688 85.2429 16.4267C85.2429 17.0178 85.1465 17.5424 84.9566 17.996C84.7694 18.4462 84.4839 18.8489 84.1209 19.1744C83.7804 19.4844 83.3698 19.7549 82.8944 19.9799C82.4186 20.209 81.892 20.4012 81.3199 20.5595C81.9847 21.3998 82.6438 22.2447 83.297 23.094C83.823 23.7769 84.4648 24.6118 85.2309 25.5905C85.5638 26.0265 85.8617 26.344 86.1333 26.5509C86.4001 26.754 86.6666 26.9247 86.9302 27.0533C87.1274 27.146 87.3708 27.22 87.6687 27.2712C87.9628 27.3195 88.2068 27.3492 88.404 27.3564V28.1248ZM82.4417 16.6739C82.4417 15.7432 82.1625 15.0082 81.6022 14.4617C81.0448 13.9184 80.2514 13.6455 79.2338 13.6455H77.3071V20.2349H78.7932C79.8338 20.2349 80.7049 19.9175 81.3964 19.278C82.0937 18.6394 82.442 17.7709 82.442 16.6736L82.4417 16.6739ZM98.6617 25.6133C98.1938 26.4668 97.5664 27.1428 96.7819 27.6488C95.9957 28.1544 95.0906 28.4056 94.0727 28.4056C93.1708 28.4056 92.3857 28.254 91.7089 27.9512C91.0314 27.6488 90.474 27.2384 90.0374 26.7178C89.6 26.2001 89.2708 25.5908 89.0546 24.9001C88.8411 24.2057 88.7338 23.4745 88.7338 22.7024C88.7338 22.0117 88.8494 21.3322 89.0774 20.6631C89.3032 20.0049 89.6484 19.3939 90.0955 18.8607C90.5249 18.3508 91.0585 17.937 91.6971 17.6233C92.3354 17.309 93.0516 17.1513 93.8451 17.1513C94.6609 17.1513 95.3611 17.2725 95.9419 17.5202C96.5261 17.7634 96.9986 18.0998 97.3586 18.5246C97.706 18.9312 97.965 19.4075 98.1356 19.9543C98.306 20.5046 98.3912 21.0997 98.3912 21.7386V22.4551H90.9894C90.9894 23.153 91.0585 23.7887 91.1975 24.3568C91.3365 24.9295 91.5578 25.4282 91.8631 25.8648C92.1575 26.2818 92.5405 26.6104 93.0168 26.8545C93.4925 27.0942 94.0615 27.2165 94.7193 27.2165C95.3919 27.2165 95.9729 27.0646 96.4596 26.7658C96.9442 26.4665 97.4156 25.9272 97.8686 25.1474L98.6617 25.6133ZM96.1586 21.546C96.1586 21.1403 96.124 20.708 96.0501 20.2458C95.9764 19.7845 95.8639 19.4003 95.7059 19.0901C95.5367 18.7649 95.2907 18.4858 94.9893 18.2771C94.6886 18.067 94.2972 17.9634 93.8215 17.9634C93.028 17.9634 92.3705 18.2771 91.8438 18.9088C91.318 19.5405 91.0352 20.4197 90.9891 21.546H96.1586ZM104.981 28.1248H99.717V27.437C99.885 27.4223 100.064 27.4047 100.255 27.3869C100.414 27.3766 100.572 27.3504 100.726 27.3086C100.931 27.2479 101.084 27.1368 101.185 26.9805C101.286 26.8234 101.342 26.6197 101.338 26.3704L101.167 14.9751C101.165 14.8462 101.106 14.4744 101.035 14.2182C101.003 14.102 100.968 14.0087 100.935 13.9727C100.9 13.9345 100.888 13.8956 100.839 13.8539C100.65 13.6924 100.885 13.9166 100.708 13.7667C100.592 13.6674 100.756 13.7293 100.407 13.6602C100.06 13.592 99.4793 13.7451 99.2663 13.731L99.2473 12.9799L103.173 12.7756L103.359 12.9281L103.374 26.2455C103.374 26.4881 103.421 26.687 103.516 26.8444C103.611 27.0004 103.763 27.123 103.976 27.2047C104.128 27.2726 104.287 27.3251 104.45 27.3616C104.607 27.3975 104.786 27.422 104.981 27.437V28.1248ZM111.745 28.1248H106.385V27.4177L106.918 27.3739C107.103 27.3595 107.259 27.3308 107.394 27.2859C107.605 27.224 107.763 27.1103 107.862 26.9492C107.962 26.788 108.016 26.5791 108.016 26.3227V19.7883C108.016 19.558 107.958 19.3488 107.851 19.158C107.743 18.9681 107.59 18.8104 107.394 18.6823C107.252 18.5945 107.049 18.5212 106.777 18.4627C106.533 18.4048 106.285 18.3667 106.036 18.3488V17.6532L109.95 17.4149L110.107 17.5654V26.1946C110.107 26.4441 110.156 26.6522 110.256 26.8174C110.356 26.9785 110.517 27.1023 110.736 27.18C110.901 27.2462 111.062 27.2971 111.219 27.3371C111.392 27.378 111.568 27.405 111.745 27.4177V28.1248ZM110.329 13.2435C110.329 13.6499 110.191 14.005 109.907 14.3092C109.627 14.6128 109.282 14.7667 108.867 14.7667C108.487 14.7667 108.153 14.6205 107.873 14.331C107.594 14.0418 107.451 13.708 107.451 13.3382C107.451 12.9428 107.594 12.602 107.873 12.3091C108.154 12.0161 108.487 11.8696 108.867 11.8696C109.297 11.8696 109.646 12.0049 109.918 12.2803C110.191 12.558 110.329 12.8769 110.329 13.2435ZM123.7 27.9291C123.344 28.0508 123.035 28.1507 122.768 28.2284C122.497 28.3023 122.195 28.3426 121.855 28.3426C121.263 28.3426 120.795 28.2096 120.442 27.9478C120.09 27.6819 119.866 27.2974 119.769 26.7952H119.7C119.208 27.3121 118.682 27.7109 118.117 27.9846C117.555 28.2577 116.878 28.3947 116.085 28.3947C115.246 28.3947 114.557 28.1504 114.015 27.6597C113.474 27.1682 113.203 26.5258 113.203 25.735C113.203 25.3215 113.265 24.9557 113.385 24.6308C113.507 24.3049 113.693 24.0062 113.93 23.7516C114.12 23.5372 114.367 23.3453 114.677 23.1749C114.958 23.0183 115.251 22.8825 115.552 22.7685C115.892 22.6474 116.581 22.418 117.618 22.0853C118.659 21.7527 119.359 21.4948 119.723 21.3063V20.2349C119.723 20.1425 119.703 19.9615 119.661 19.6959C119.618 19.4293 119.528 19.1726 119.394 18.9384C119.243 18.6691 119.03 18.4363 118.751 18.2406C118.477 18.0403 118.086 17.9413 117.579 17.9413C117.231 17.9413 116.91 17.9962 116.612 18.1111C116.314 18.2221 116.101 18.3396 115.981 18.4622C115.981 18.6061 116.016 18.8161 116.09 19.1007C116.162 19.3813 116.198 19.6401 116.198 19.8806C116.198 20.1313 116.078 20.3607 115.842 20.571C115.602 20.782 115.273 20.8853 114.847 20.8853C114.472 20.8853 114.194 20.7558 114.015 20.5011C113.837 20.2458 113.749 19.9578 113.749 19.6401C113.749 19.3074 113.872 18.9902 114.116 18.6872C114.364 18.3847 114.681 18.1145 115.076 17.8782C115.416 17.6751 115.826 17.5053 116.31 17.3611C116.793 17.2207 117.266 17.151 117.726 17.151C118.361 17.151 118.914 17.1953 119.39 17.2759C119.853 17.3554 120.292 17.5387 120.674 17.8121C121.062 18.0777 121.352 18.4394 121.553 18.8973C121.754 19.3563 121.855 19.9471 121.855 20.6671C121.855 21.7012 121.843 22.6143 121.82 23.4114C121.797 24.2098 121.785 25.0812 121.785 26.0268C121.785 26.3077 121.835 26.5293 121.94 26.695C122.041 26.862 122.199 27.0021 122.408 27.1201C122.524 27.1828 122.702 27.2203 122.946 27.2274C123.193 27.2344 123.445 27.2384 123.7 27.2384V27.9291ZM119.746 22.2148C119.103 22.3956 118.539 22.5728 118.055 22.7464C117.571 22.9205 117.122 23.1343 116.709 23.3968C116.329 23.6411 116.031 23.9326 115.81 24.2682C115.594 24.6011 115.481 25 115.481 25.4616C115.481 26.0602 115.648 26.5031 115.977 26.7837C116.307 27.0646 116.724 27.2053 117.227 27.2053C117.765 27.2053 118.237 27.0795 118.647 26.8323C119.054 26.5848 119.398 26.2896 119.676 25.9494L119.746 22.2148ZM137.154 28.1248H131.679V27.4122C131.853 27.3978 132.046 27.3829 132.251 27.3682C132.461 27.3532 132.63 27.3239 132.77 27.2795C132.979 27.2168 133.137 27.102 133.238 26.94C133.342 26.7771 133.393 26.5667 133.393 26.308V20.8191C133.393 20.0617 133.204 19.4783 132.832 19.0679C132.457 18.6579 132 18.4512 131.466 18.4512C131.064 18.4512 130.697 18.5102 130.363 18.6282C130.035 18.7465 129.736 18.8941 129.481 19.0679C129.233 19.234 129.032 19.4116 128.885 19.6038C128.738 19.7957 128.63 19.9474 128.564 20.0614V26.2004C128.564 26.4444 128.614 26.6479 128.723 26.8067C128.828 26.965 128.986 27.0873 129.199 27.1722C129.363 27.2469 129.536 27.3016 129.713 27.3351C129.899 27.3713 130.089 27.3978 130.286 27.4122V28.125H124.811V27.4122C124.985 27.3978 125.163 27.3829 125.348 27.3682C125.512 27.3571 125.675 27.3274 125.832 27.2795C126.041 27.2168 126.2 27.102 126.301 26.94C126.406 26.7771 126.456 26.5667 126.456 26.308V19.7178C126.456 19.4703 126.401 19.2449 126.289 19.042C126.182 18.8375 126.025 18.6635 125.832 18.5361C125.689 18.4512 125.518 18.3885 125.321 18.3476C125.112 18.3062 124.9 18.2791 124.687 18.2665V17.5649L128.405 17.3248L128.564 17.4759V18.9793H128.618C128.8 18.8095 129.029 18.5989 129.299 18.3588C129.57 18.1185 129.83 17.9191 130.069 17.7683C130.352 17.5945 130.685 17.45 131.067 17.3352C131.455 17.221 131.888 17.162 132.372 17.162C133.443 17.162 134.24 17.4831 134.759 18.1185C135.277 18.758 135.532 19.6075 135.532 20.6671V26.2193C135.532 26.4737 135.58 26.6775 135.673 26.8326C135.761 26.988 135.916 27.1095 136.136 27.1946C136.318 27.2683 136.473 27.3167 136.605 27.3454C136.736 27.3748 136.922 27.3978 137.154 27.4122L137.154 28.1248ZM143.697 28.4056C142.08 28.4056 140.814 27.8922 139.898 26.8689C138.984 25.8461 138.528 24.4716 138.528 22.7464C138.528 21.997 138.652 21.2954 138.895 20.6413C139.143 19.9881 139.506 19.385 139.967 18.8607C140.412 18.3508 140.973 17.937 141.646 17.6233C142.316 17.309 143.051 17.1513 143.844 17.1513C144.939 17.1513 145.833 17.402 146.518 17.9041C147.207 18.4063 147.551 19.0898 147.551 19.9543C147.551 20.3161 147.462 20.6335 147.28 20.9112C147.098 21.1912 146.8 21.3285 146.382 21.3285C145.937 21.3285 145.593 21.2208 145.346 21.003C145.101 20.7892 144.978 20.5454 144.978 20.2789C144.978 19.9543 145.024 19.6216 145.113 19.278C145.206 18.935 145.256 18.684 145.272 18.5246C145.137 18.303 144.935 18.1519 144.665 18.0777C144.398 18 144.107 17.9631 143.797 17.9631C143.44 17.9625 143.087 18.0381 142.761 18.1847C142.432 18.3327 142.115 18.6063 141.805 19.0012C141.523 19.3635 141.298 19.851 141.124 20.4637C140.951 21.0772 140.861 21.8082 140.861 22.6583C140.861 24.0023 141.174 25.0958 141.797 25.9454C142.42 26.7917 143.241 27.2165 144.251 27.2165C144.986 27.2165 145.6 27.0461 146.097 26.7068C146.588 26.3667 147.047 25.8602 147.47 25.1807L148.197 25.6354C147.698 26.4884 147.04 27.1613 146.224 27.6597C145.407 28.1584 144.564 28.4056 143.697 28.4056H143.697ZM159 25.6133C158.532 26.4668 157.906 27.1428 157.12 27.6488C156.335 28.1544 155.429 28.4056 154.412 28.4056C153.51 28.4056 152.725 28.254 152.047 27.9512C151.37 27.6488 150.813 27.2384 150.375 26.7178C149.939 26.2001 149.61 25.5908 149.393 24.9001C149.18 24.2057 149.071 23.4745 149.071 22.7024C149.071 22.0117 149.187 21.3322 149.416 20.6631C149.642 20.0051 149.987 19.3942 150.434 18.8607C150.863 18.3508 151.397 17.937 152.036 17.6233C152.674 17.309 153.39 17.1513 154.183 17.1513C155 17.1513 155.7 17.2725 156.28 17.5202C156.865 17.7634 157.337 18.0998 157.696 18.5246C158.045 18.9312 158.304 19.4075 158.474 19.9543C158.645 20.5046 158.729 21.0997 158.729 21.7386V22.4551H151.327C151.327 23.153 151.397 23.7887 151.536 24.3568C151.675 24.9295 151.897 25.4282 152.202 25.8648C152.497 26.2818 152.879 26.6104 153.355 26.8545C153.831 27.0942 154.4 27.2165 155.057 27.2165C155.731 27.2165 156.311 27.0646 156.799 26.7658C157.282 26.4665 157.755 25.9272 158.207 25.1474L159 25.6133ZM156.497 21.546C156.497 21.1403 156.462 20.708 156.389 20.2458C156.315 19.7845 156.203 19.4003 156.045 19.0901C155.875 18.7652 155.63 18.4862 155.329 18.2771C155.027 18.067 154.636 17.9634 154.16 17.9634C153.366 17.9634 152.709 18.2771 152.183 18.9088C151.656 19.5405 151.374 20.4197 151.327 21.546H156.497Z" fill="#999999"/>
<path d="M75.8907 41.6547H72.7415V41.3382C72.8307 41.331 72.9582 41.3226 73.1265 41.3105C73.2946 41.2996 73.4123 41.2817 73.4811 41.2573C73.5884 41.2193 73.6673 41.1661 73.7182 41.099C73.7668 41.0322 73.7907 40.939 73.7907 40.8204V36.2352C73.7907 36.1322 73.7737 36.0444 73.7366 35.975C73.7012 35.9048 73.6155 35.8467 73.4811 35.7983C73.3818 35.7632 73.2595 35.7298 73.1098 35.6979C72.9884 35.6716 72.8653 35.6533 72.7415 35.6429V35.3264H75.8907V35.6429C75.7879 35.6458 75.6671 35.657 75.5252 35.6766C75.3842 35.6947 75.2613 35.7209 75.1554 35.75C75.0313 35.7862 74.947 35.8438 74.9053 35.9232C74.8616 36.0038 74.8414 36.0939 74.8414 36.1909V40.7718C74.8414 40.8688 74.8644 40.956 74.9119 41.0322C74.9588 41.1082 75.0414 41.1689 75.1554 41.213C75.2244 41.2377 75.3373 41.263 75.4938 41.291C75.6486 41.3197 75.7807 41.3347 75.8909 41.3379L75.8907 41.6547ZM82.244 41.6547H79.8658V41.3606C79.9415 41.3551 80.0252 41.3482 80.1145 41.3422C80.2054 41.3364 80.2794 41.324 80.3395 41.3059C80.431 41.28 80.4995 41.2331 80.5432 41.1661C80.5887 41.0993 80.6109 41.0121 80.6109 40.9059V38.6431C80.6109 38.3311 80.5283 38.0911 80.3671 37.9222C80.2037 37.753 80.0057 37.6678 79.7737 37.6678C79.5982 37.6678 79.4384 37.6919 79.2943 37.7409C79.1512 37.7892 79.0217 37.8502 78.9107 37.9222C78.8036 37.9907 78.7158 38.0635 78.6525 38.1429C78.602 38.2026 78.5554 38.2654 78.5129 38.3311V40.8613C78.5129 40.962 78.5342 41.0461 78.5814 41.1117C78.6266 41.177 78.6957 41.2268 78.7881 41.2619C78.8571 41.2921 78.9308 41.3137 79.0117 41.3289C79.0928 41.3436 79.1748 41.3548 79.2609 41.3606V41.655H76.8821V41.3606C76.9575 41.3551 77.0346 41.3482 77.1155 41.3422C77.196 41.3364 77.2651 41.324 77.3255 41.3059C77.4165 41.28 77.4858 41.2331 77.5287 41.1661C77.5748 41.0993 77.5964 41.0121 77.5964 40.9059V38.1898C77.5964 38.0876 77.5728 37.9947 77.5238 37.9109C77.4766 37.826 77.4084 37.7545 77.3258 37.7032C77.2637 37.6678 77.1897 37.6416 77.1037 37.6252C77.0176 37.6088 76.9252 37.5976 76.8283 37.5915V37.302L78.4436 37.2036L78.5127 37.2657V37.8853H78.5357C78.6148 37.8154 78.7141 37.7285 78.8321 37.6298C78.9498 37.5305 79.062 37.4485 79.1665 37.386C79.3031 37.3086 79.4489 37.2487 79.6005 37.2079C79.7851 37.1585 79.9757 37.1346 80.1668 37.1368C80.6322 37.1368 80.979 37.2692 81.2037 37.5305C81.4293 37.7941 81.5404 38.1446 81.5404 38.5809V40.8688C81.5404 40.9744 81.5606 41.0579 81.6008 41.1217C81.6397 41.1859 81.7068 41.2363 81.8023 41.2708C81.8814 41.3016 81.9485 41.3209 82.006 41.3333C82.063 41.3456 82.1439 41.3548 82.244 41.3606V41.6547ZM88.404 41.5741L86.7099 41.6726L86.6356 41.6101V41.1992L86.5968 41.1908C86.4252 41.3646 86.2154 41.5045 85.9631 41.6156C85.7127 41.7258 85.4537 41.7805 85.1878 41.7805C84.9124 41.7802 84.64 41.723 84.3877 41.6124C84.1334 41.5037 83.9044 41.3435 83.7152 41.1419C83.5155 40.9273 83.3592 40.6762 83.2547 40.4023C83.1419 40.1133 83.0849 39.7951 83.0849 39.4477C83.0836 39.1368 83.1453 38.8288 83.2662 38.5423C83.3849 38.2629 83.5556 38.0086 83.7693 37.793C83.9693 37.5935 84.2145 37.4352 84.5057 37.3152C84.7876 37.1982 85.0898 37.1378 85.395 37.1374C85.6218 37.1374 85.8436 37.1633 86.0626 37.2151C86.2808 37.268 86.469 37.3334 86.6255 37.4142V35.8847C86.6255 35.7592 86.6034 35.6449 86.5565 35.5434C86.5175 35.4477 86.4508 35.366 86.3648 35.3088C86.2727 35.2524 86.1495 35.2118 85.9933 35.1854C85.826 35.16 85.6577 35.1418 85.4888 35.1307V34.8538L87.4731 34.752L87.5464 34.8187V40.7493C87.5464 40.8544 87.5683 40.9427 87.6141 41.0158C87.6572 41.0878 87.7231 41.1499 87.8089 41.2C87.8711 41.2371 87.9603 41.2579 88.0794 41.2668C88.1974 41.2754 88.3047 41.2823 88.404 41.2855V41.575V41.5741ZM86.6255 40.8017V38.2295C86.5941 38.1411 86.5511 38.0572 86.4978 37.98C86.4361 37.8878 86.3612 37.8051 86.2756 37.7345C86.1742 37.6559 86.0613 37.5934 85.9409 37.5492C85.8134 37.5006 85.6638 37.4761 85.494 37.4761C85.2957 37.4761 85.1141 37.5216 84.9495 37.6142C84.7832 37.7055 84.637 37.8387 84.5092 38.0108C84.386 38.1777 84.2905 38.3892 84.2197 38.6462C84.1495 38.9038 84.1138 39.1881 84.1138 39.5007C84.1138 39.7502 84.1411 39.9772 84.1929 40.1813C84.2447 40.3853 84.3339 40.5744 84.4585 40.7488C84.5729 40.9152 84.7243 41.0528 84.9009 41.1508C85.0787 41.2512 85.2905 41.3033 85.538 41.3033C85.7999 41.3033 86.0186 41.2501 86.1901 41.1459C86.3507 41.0522 86.4973 40.9363 86.6255 40.8017ZM94.3266 41.5741L92.7441 41.6726L92.6707 41.6101V41.0518H92.6419C92.5631 41.1266 92.4741 41.2066 92.3743 41.291C92.2703 41.3803 92.1566 41.4575 92.0353 41.5212C91.8991 41.5965 91.7555 41.6576 91.6068 41.7033C91.4681 41.7457 91.2732 41.7655 91.0214 41.7655C90.5906 41.7655 90.2634 41.6395 90.0381 41.3856C89.8145 41.1307 89.7014 40.7611 89.7014 40.2768V38.1714C89.7014 38.0646 89.6783 37.9751 89.6343 37.9023C89.5855 37.8242 89.5187 37.7588 89.4395 37.7118C89.371 37.6738 89.2966 37.6477 89.2193 37.6347C89.1265 37.6176 89.0327 37.6063 88.9384 37.6007V37.3101L90.5575 37.2036L90.6318 37.2657V40.3208C90.6318 40.6397 90.7103 40.8783 90.8683 41.0397C91.0266 41.1992 91.2148 41.28 91.4353 41.28C91.6145 41.28 91.7763 41.2541 91.917 41.2035C92.058 41.154 92.1763 41.0944 92.2718 41.0259C92.361 40.9637 92.4382 40.8967 92.5058 40.8282C92.5734 40.758 92.6252 40.6924 92.6603 40.6334V38.14C92.6603 38.0422 92.639 37.9555 92.5913 37.8796C92.5437 37.8009 92.4782 37.7347 92.4002 37.6862C92.3412 37.6493 92.254 37.6281 92.136 37.6206C92.0055 37.6127 91.8749 37.606 91.7443 37.6004V37.3098L93.5079 37.2036L93.5818 37.2657V40.758C93.5818 40.8599 93.6057 40.945 93.6506 41.017C93.6972 41.0884 93.762 41.1494 93.8437 41.1992C93.903 41.2331 93.9732 41.2538 94.0541 41.2651C94.1367 41.2734 94.227 41.2817 94.3263 41.2846L94.3266 41.5741ZM98.3711 39.5007C98.5052 39.6071 98.61 39.7303 98.6822 39.8705C98.7541 40.0106 98.7895 40.1813 98.7895 40.3836C98.7895 40.7911 98.6218 41.1232 98.2853 41.3822C97.9495 41.6412 97.5121 41.7704 96.9777 41.7704C96.6948 41.7704 96.4343 41.7249 96.1969 41.6317C95.9586 41.5405 95.7888 41.4553 95.6858 41.3776L95.5891 41.6682H95.2193L95.1701 40.1384H95.5097C95.5367 40.2541 95.592 40.3896 95.6777 40.543C95.7618 40.6984 95.8662 40.8388 95.9871 40.9637C96.1152 41.0944 96.2697 41.2035 96.4479 41.2938C96.628 41.3825 96.828 41.4277 97.0513 41.4277C97.3679 41.4277 97.6091 41.3623 97.7809 41.2331C97.9507 41.1036 98.0358 40.9194 98.0358 40.6768C98.0358 40.5525 98.0099 40.4463 97.9561 40.3545C97.8952 40.258 97.8135 40.1763 97.717 40.1154C97.5908 40.0395 97.4566 39.9777 97.317 39.9312C97.1587 39.8765 96.9846 39.8218 96.7906 39.7689C96.6163 39.7197 96.4445 39.6621 96.2758 39.5962C96.0864 39.5234 95.925 39.4382 95.7906 39.3392C95.6476 39.2372 95.5269 39.1073 95.4357 38.9573C95.3433 38.8048 95.2984 38.627 95.2984 38.4215C95.2984 38.0617 95.4461 37.7564 95.7416 37.5063C96.0375 37.2562 96.4326 37.1322 96.9287 37.1322C97.1187 37.1322 97.3132 37.1547 97.5121 37.199C97.7106 37.2444 97.8718 37.2983 97.9979 37.3604L98.1101 37.1273H98.4658L98.5392 38.5415H98.1996C98.1305 38.2264 97.9809 37.9708 97.7524 37.7731C97.5256 37.5745 97.2465 37.4761 96.9187 37.4761C96.6493 37.4761 96.4378 37.5368 96.2827 37.6586C96.1276 37.7803 96.0507 37.9279 96.0507 38.1C96.0507 38.2338 96.076 38.3455 96.1281 38.4353C96.1791 38.5231 96.2547 38.5993 96.3569 38.6615C96.4562 38.7211 96.5785 38.7772 96.7282 38.8295C96.8781 38.8811 97.0631 38.9401 97.2836 39.0054C97.5003 39.0681 97.7037 39.1415 97.8951 39.2238C98.0888 39.3073 98.2468 39.4002 98.3711 39.5007ZM102.767 41.4628C102.553 41.5433 102.351 41.6101 102.162 41.6651C101.97 41.7203 101.738 41.7485 101.462 41.7485C101.056 41.7485 100.769 41.655 100.603 41.4685C100.437 41.2832 100.355 41.0213 100.355 40.6817V37.7032H99.4768V37.2749H100.373V35.9063H101.271V37.2749H102.665V37.7032H101.279V40.1614C101.279 40.3456 101.287 40.4993 101.302 40.6227C101.316 40.7456 101.352 40.8538 101.409 40.945C101.46 41.0322 101.54 41.0976 101.644 41.1413C101.75 41.1859 101.891 41.2084 102.068 41.2084C102.15 41.2084 102.271 41.2026 102.429 41.1888C102.589 41.1747 102.701 41.1583 102.767 41.1367V41.4628ZM107.212 37.8232C107.212 37.9751 107.17 38.1089 107.089 38.2281C107.006 38.3455 106.881 38.4028 106.709 38.4028C106.525 38.4028 106.384 38.3605 106.289 38.2736C106.191 38.1884 106.143 38.0922 106.143 37.9889C106.143 37.9236 106.149 37.8637 106.16 37.8111C106.171 37.7564 106.183 37.7032 106.191 37.6494C106.038 37.6494 105.857 37.7055 105.65 37.8183C105.439 37.9357 105.259 38.101 105.123 38.3009V40.8613C105.123 40.9652 105.146 41.0501 105.19 41.1145C105.235 41.1799 105.304 41.2299 105.4 41.2619C105.482 41.2921 105.587 41.3137 105.717 41.3289C105.847 41.3436 105.959 41.3548 106.053 41.3606V41.655H103.493V41.3606C103.568 41.3551 103.645 41.3482 103.727 41.3422C103.807 41.3364 103.876 41.324 103.937 41.3059C104.028 41.28 104.096 41.2331 104.14 41.1661C104.185 41.0993 104.208 41.0121 104.208 40.9059V38.1898C104.208 38.0969 104.183 38.0074 104.136 37.9173C104.088 37.8275 104.021 37.7561 103.937 37.7032C103.867 37.6652 103.792 37.6389 103.714 37.6252C103.623 37.6079 103.532 37.5967 103.439 37.5915V37.302L105.055 37.2036L105.123 37.2657V37.8853H105.147C105.35 37.6447 105.577 37.462 105.828 37.3374C106.077 37.2128 106.306 37.1503 106.512 37.1503C106.719 37.1503 106.887 37.2111 107.017 37.3328C107.146 37.4545 107.212 37.6191 107.212 37.8232ZM110.227 41.6547H107.879V41.3606C107.954 41.3551 108.031 41.3482 108.112 41.3422C108.193 41.3364 108.262 41.324 108.321 41.3059C108.414 41.28 108.482 41.2331 108.526 41.1661C108.57 41.0993 108.593 41.0121 108.593 40.9059V38.1898C108.593 38.0943 108.568 38.0074 108.521 37.9279C108.471 37.8466 108.403 37.7787 108.321 37.7299C108.259 37.6937 108.169 37.6629 108.05 37.6384C107.943 37.6146 107.835 37.5989 107.725 37.5915V37.302L109.44 37.2036L109.509 37.2657V40.8524C109.509 40.956 109.532 41.0429 109.574 41.1114C109.619 41.1784 109.689 41.2299 109.785 41.2619C109.857 41.2895 109.928 41.3108 109.997 41.3272C110.066 41.3422 110.141 41.3548 110.227 41.3606V41.6547ZM109.607 35.4697C109.607 35.638 109.547 35.7862 109.422 35.9123C109.364 35.9741 109.293 36.0229 109.214 36.0558C109.136 36.0886 109.051 36.1046 108.966 36.1028C108.885 36.1032 108.805 36.0874 108.73 36.0563C108.655 36.0251 108.588 35.9793 108.531 35.9215C108.408 35.8015 108.346 35.6628 108.346 35.5088C108.346 35.3451 108.408 35.2032 108.531 35.0818C108.654 34.9594 108.8 34.8984 108.966 34.8984C109.155 34.8984 109.308 34.9551 109.427 35.0694C109.547 35.1845 109.607 35.3172 109.607 35.4694M115.381 40.6196C115.185 40.9639 114.904 41.2524 114.565 41.4579C114.223 41.6668 113.829 41.7704 113.388 41.7704C112.996 41.7704 112.654 41.708 112.36 41.5833C112.066 41.4579 111.824 41.2895 111.634 41.0745C111.441 40.8567 111.296 40.6016 111.207 40.3252C111.113 40.0328 111.066 39.7274 111.068 39.4204C111.068 39.1352 111.118 38.8549 111.217 38.5795C111.316 38.3061 111.466 38.0541 111.659 37.837C111.846 37.6269 112.078 37.4562 112.355 37.3265C112.633 37.1972 112.944 37.1319 113.289 37.1319C113.643 37.1319 113.948 37.182 114.2 37.2839C114.453 37.3846 114.658 37.523 114.815 37.6983C114.966 37.8652 115.079 38.0617 115.153 38.2877C115.227 38.5138 115.264 38.7593 115.264 39.0229V39.3179H112.048C112.048 39.6057 112.078 39.8673 112.139 40.1021C112.199 40.3381 112.295 40.543 112.428 40.7232C112.559 40.898 112.731 41.038 112.929 41.1307C113.135 41.2299 113.383 41.28 113.668 41.28C113.961 41.28 114.213 41.2176 114.424 41.0944C114.635 40.9712 114.84 40.7488 115.037 40.4276L115.381 40.6196ZM114.293 38.9432C114.293 38.7763 114.278 38.5979 114.247 38.4077C114.214 38.2174 114.166 38.0589 114.097 37.9305C114.022 37.7953 113.916 37.6804 113.786 37.5958C113.655 37.5095 113.485 37.4666 113.278 37.4666C112.934 37.4666 112.647 37.5961 112.42 37.8566C112.191 38.1164 112.068 38.4793 112.048 38.9432H114.293ZM119.392 39.5007C119.527 39.6071 119.631 39.7303 119.703 39.8705C119.776 40.0106 119.811 40.1813 119.811 40.3836C119.811 40.7911 119.643 41.1232 119.306 41.3822C118.971 41.6412 118.533 41.7704 117.998 41.7704C117.716 41.7704 117.455 41.7249 117.219 41.6317C116.98 41.5405 116.81 41.4553 116.707 41.3776L116.61 41.6682H116.24L116.191 40.1384H116.531C116.558 40.2541 116.614 40.3896 116.699 40.543C116.783 40.6984 116.887 40.8388 117.008 40.9637C117.137 41.0944 117.291 41.2035 117.469 41.2938C117.649 41.3825 117.849 41.4277 118.073 41.4277C118.389 41.4277 118.631 41.3623 118.802 41.2331C118.972 41.1036 119.058 40.9194 119.058 40.6768C119.058 40.5525 119.031 40.4463 118.977 40.3545C118.916 40.2579 118.835 40.1762 118.738 40.1154C118.612 40.0395 118.478 39.9778 118.338 39.9312C118.18 39.8765 118.005 39.8218 117.812 39.7689C117.638 39.7198 117.466 39.6621 117.298 39.5962C117.107 39.5234 116.946 39.4382 116.811 39.3392C116.669 39.2371 116.548 39.1072 116.457 38.9573C116.364 38.8048 116.319 38.627 116.319 38.4215C116.319 38.0617 116.467 37.7564 116.763 37.5063C117.059 37.2562 117.454 37.1322 117.95 37.1322C118.14 37.1322 118.335 37.1547 118.533 37.199C118.732 37.2444 118.893 37.2983 119.019 37.3604L119.132 37.1273H119.487L119.561 38.5415H119.221C119.152 38.2264 119.002 37.9708 118.773 37.7731C118.547 37.5745 118.267 37.4761 117.94 37.4761C117.67 37.4761 117.459 37.5368 117.304 37.6586C117.15 37.7803 117.072 37.9279 117.072 38.1C117.072 38.2338 117.097 38.3455 117.15 38.4353C117.2 38.5231 117.276 38.5993 117.378 38.6615C117.478 38.7211 117.6 38.7772 117.75 38.8295C117.899 38.8811 118.085 38.9401 118.305 39.0054C118.522 39.0681 118.725 39.1415 118.917 39.2238C119.11 39.3073 119.268 39.4002 119.392 39.5007ZM128.718 39.7732L128.57 41.655H123.108V41.3379C123.187 41.331 123.301 41.3209 123.451 41.3062C123.6 41.2918 123.705 41.272 123.763 41.2486C123.861 41.2098 123.933 41.1537 123.977 41.0791C124.022 41.0043 124.044 40.9105 124.044 40.7942V36.2628C124.044 36.1621 124.026 36.0726 123.987 35.9952C123.95 35.9169 123.874 35.8547 123.763 35.8081C123.687 35.7724 123.582 35.7376 123.445 35.7022C123.335 35.6734 123.222 35.6536 123.108 35.6429V35.3264H126.058V35.6429C125.966 35.6458 125.848 35.6599 125.702 35.6872C125.555 35.7146 125.449 35.7376 125.384 35.7586C125.271 35.794 125.196 35.8547 125.154 35.9416C125.113 36.028 125.093 36.1195 125.093 36.2185V40.4688C125.093 40.6645 125.103 40.817 125.125 40.9255C125.146 41.034 125.196 41.1171 125.275 41.1784C125.351 41.2317 125.463 41.2662 125.613 41.2817C125.762 41.2984 125.97 41.3059 126.24 41.3059C126.362 41.3059 126.488 41.3048 126.62 41.299C126.745 41.2929 126.871 41.2807 126.995 41.2625C127.102 41.2459 127.208 41.2215 127.312 41.1894C127.408 41.1571 127.48 41.1177 127.525 41.0702C127.66 40.9335 127.816 40.7263 127.996 40.4495C128.175 40.1712 128.299 39.9459 128.368 39.7738H128.718V39.7732ZM131.669 41.6547H129.321V41.3606C129.397 41.3551 129.474 41.3482 129.555 41.3422C129.636 41.3364 129.705 41.324 129.763 41.3059C129.856 41.28 129.924 41.2331 129.968 41.1661C130.012 41.0993 130.035 41.0121 130.035 40.9059V38.1898C130.035 38.0943 130.011 38.0074 129.963 37.9279C129.914 37.8467 129.845 37.7787 129.763 37.7299C129.701 37.6937 129.612 37.6629 129.492 37.6384C129.385 37.6146 129.277 37.599 129.168 37.5915V37.302L130.883 37.2036L130.952 37.2657V40.8524C130.952 40.956 130.973 41.0429 131.017 41.1114C131.061 41.1784 131.131 41.2299 131.227 41.2619C131.3 41.2895 131.37 41.3108 131.439 41.3272C131.508 41.3422 131.584 41.3548 131.67 41.3606L131.669 41.6547ZM131.049 35.4697C131.049 35.638 130.989 35.7862 130.864 35.9123C130.741 36.0389 130.59 36.1028 130.409 36.1028C130.242 36.1028 130.096 36.0418 129.973 35.9215C129.851 35.8015 129.788 35.6628 129.788 35.5088C129.788 35.3451 129.851 35.2032 129.973 35.0818C130.029 35.0232 130.097 34.9767 130.172 34.9452C130.247 34.9137 130.328 34.8977 130.409 34.8984C130.597 34.8984 130.75 34.9551 130.869 35.0694C130.989 35.1845 131.049 35.3172 131.049 35.4694M140.828 41.6547H138.46V41.3606C138.535 41.3551 138.611 41.3482 138.688 41.3422C138.765 41.3364 138.834 41.324 138.893 41.3059C138.986 41.28 139.053 41.2331 139.097 41.1661C139.142 41.0993 139.164 41.0121 139.164 40.9059V38.6359C139.164 38.3251 139.086 38.0874 138.93 37.9184C138.774 37.7515 138.579 37.6675 138.347 37.6675C138.185 37.6675 138.034 37.6902 137.893 37.7342C137.752 37.7783 137.622 37.8413 137.504 37.9219C137.416 37.9811 137.336 38.052 137.266 38.1328C137.2 38.2097 137.153 38.2718 137.119 38.3233V40.861C137.119 40.9649 137.139 41.0498 137.178 41.1171C137.219 41.1839 137.286 41.236 137.38 41.2705C137.456 41.2981 137.525 41.3183 137.585 41.3312C137.645 41.3439 137.725 41.3546 137.824 41.3603V41.6547H135.504V41.3603C135.58 41.3548 135.654 41.3479 135.724 41.3419C135.795 41.3361 135.859 41.3238 135.918 41.3056C136.01 41.2797 136.077 41.2328 136.123 41.1658C136.166 41.099 136.188 41.0118 136.188 40.9056V38.6359C136.188 38.3251 136.111 38.0874 135.954 37.9184C135.798 37.7515 135.605 37.6675 135.371 37.6675C135.209 37.6675 135.06 37.6902 134.919 37.736C134.778 37.7832 134.647 37.8453 134.528 37.9259C134.433 37.9915 134.354 38.064 134.288 38.1469C134.223 38.2292 134.172 38.29 134.14 38.3311V40.8521C134.14 40.9528 134.162 41.038 134.21 41.1065C134.255 41.175 134.323 41.2265 134.417 41.2616C134.485 41.2918 134.555 41.3134 134.628 41.3287C134.7 41.3433 134.781 41.3546 134.869 41.3603V41.6547H132.51V41.3603C132.585 41.3548 132.662 41.3479 132.743 41.3419C132.824 41.3361 132.893 41.3238 132.953 41.3056C133.044 41.2797 133.113 41.2328 133.157 41.1658C133.202 41.099 133.224 41.0118 133.224 40.9056V38.1711C133.225 38.0801 133.2 37.9907 133.152 37.9138C133.1 37.8357 133.033 37.7697 132.953 37.7204C132.88 37.6814 132.802 37.6523 132.721 37.6341C132.628 37.6111 132.532 37.5967 132.436 37.5912V37.3017L134.061 37.2033L134.13 37.2655V37.8945H134.163C134.246 37.8197 134.347 37.7325 134.465 37.6309C134.583 37.5302 134.693 37.4485 134.794 37.3857C134.91 37.3144 135.053 37.2545 135.226 37.2076C135.408 37.159 135.596 37.1351 135.785 37.1365C136.1 37.1365 136.371 37.2142 136.598 37.3665C136.823 37.5196 136.986 37.7043 137.086 37.9219C137.203 37.8166 137.308 37.7253 137.398 37.6476C137.487 37.5688 137.607 37.485 137.754 37.3947C137.892 37.3117 138.04 37.2487 138.195 37.2076C138.38 37.1586 138.569 37.1347 138.76 37.1365C139.17 37.1365 139.494 37.2577 139.735 37.502C139.974 37.7466 140.095 38.1207 140.095 38.6267V40.861C140.095 40.9649 140.113 41.0498 140.153 41.1171C140.192 41.1839 140.259 41.236 140.355 41.2705C140.431 41.2981 140.505 41.3183 140.579 41.3312C140.653 41.3439 140.737 41.3546 140.828 41.3603L140.828 41.6547ZM143.996 41.6547H141.648V41.3606C141.724 41.3551 141.801 41.3482 141.882 41.3422C141.962 41.3364 142.032 41.324 142.09 41.3059C142.183 41.28 142.252 41.2331 142.295 41.1661C142.339 41.0993 142.363 41.0121 142.363 40.9059V38.1898C142.363 38.0943 142.338 38.0074 142.29 37.9279C142.24 37.8467 142.172 37.7788 142.09 37.7299C142.028 37.6937 141.939 37.6629 141.82 37.6384C141.713 37.6146 141.604 37.5989 141.495 37.5915V37.302L143.21 37.2036L143.279 37.2657V40.8524C143.279 40.956 143.301 41.0429 143.344 41.1114C143.388 41.1784 143.459 41.2299 143.554 41.2619C143.627 41.2895 143.697 41.3108 143.767 41.3272C143.835 41.3422 143.911 41.3548 143.996 41.3606V41.6547ZM143.377 35.4697C143.377 35.638 143.316 35.7862 143.191 35.9123C143.133 35.9741 143.062 36.023 142.984 36.0558C142.905 36.0886 142.821 36.1046 142.736 36.1028C142.655 36.1033 142.575 36.0875 142.5 36.0563C142.425 36.0252 142.357 35.9793 142.301 35.9215C142.178 35.8015 142.116 35.6628 142.116 35.5088C142.116 35.3451 142.178 35.2032 142.301 35.0818C142.357 35.0233 142.425 34.9769 142.499 34.9453C142.574 34.9138 142.655 34.8979 142.736 34.8984C142.924 34.8984 143.077 34.9551 143.196 35.0694C143.316 35.1845 143.377 35.3172 143.377 35.4694M147.836 41.4628C147.623 41.5433 147.421 41.6101 147.231 41.6651C147.039 41.7203 146.807 41.7485 146.532 41.7485C146.125 41.7485 145.837 41.655 145.673 41.4685C145.506 41.2832 145.424 41.0213 145.424 40.6817V37.7032H144.546V37.2749H145.442V35.9063H146.34V37.2749H147.734V37.7032H146.349V40.1614C146.349 40.3456 146.357 40.4993 146.372 40.6227C146.386 40.7456 146.421 40.8538 146.478 40.945C146.53 41.0322 146.609 41.0976 146.713 41.1413C146.819 41.1859 146.96 41.2084 147.137 41.2084C147.219 41.2084 147.34 41.2026 147.498 41.1888C147.658 41.1747 147.771 41.1583 147.836 41.1367V41.4628ZM152.876 40.6196C152.679 40.964 152.398 41.2525 152.059 41.4579C151.718 41.6668 151.325 41.7704 150.882 41.7704C150.49 41.7704 150.15 41.708 149.855 41.5833C149.561 41.4579 149.319 41.2895 149.129 41.0745C148.936 40.8569 148.791 40.6018 148.701 40.3252C148.608 40.0327 148.561 39.7274 148.562 39.4204C148.562 39.1352 148.613 38.8549 148.712 38.5795C148.811 38.3063 148.961 38.0544 149.154 37.837C149.341 37.6269 149.573 37.4562 149.851 37.3265C150.127 37.1972 150.438 37.1319 150.783 37.1319C151.138 37.1319 151.442 37.182 151.694 37.2839C151.948 37.3846 152.154 37.523 152.309 37.6983C152.461 37.8652 152.573 38.0617 152.648 38.2877C152.721 38.5138 152.759 38.7593 152.759 39.0229V39.3179H149.542C149.542 39.6057 149.573 39.8673 149.633 40.1021C149.694 40.3381 149.79 40.543 149.922 40.7232C150.053 40.8979 150.225 41.0378 150.423 41.1307C150.63 41.2299 150.877 41.28 151.163 41.28C151.455 41.28 151.708 41.2176 151.92 41.0944C152.13 40.9712 152.335 40.7488 152.532 40.4276L152.876 40.6196ZM151.788 38.9432C151.788 38.7763 151.774 38.5979 151.741 38.4077C151.71 38.2174 151.661 38.0589 151.592 37.9305C151.517 37.7953 151.41 37.6804 151.281 37.5958C151.15 37.5095 150.98 37.4666 150.773 37.4666C150.428 37.4666 150.143 37.5961 149.914 37.8566C149.685 38.1164 149.562 38.4793 149.542 38.9432H151.788ZM159 41.5741L157.306 41.6726L157.231 41.6101V41.1992L157.193 41.1908C157.022 41.3646 156.811 41.5045 156.559 41.6156C156.309 41.7258 156.05 41.7805 155.784 41.7805C155.508 41.7805 155.241 41.7238 154.984 41.6124C154.73 41.5038 154.501 41.3436 154.312 41.1419C154.112 40.9275 153.955 40.6763 153.851 40.4023C153.738 40.1133 153.681 39.7951 153.681 39.4477C153.681 39.1297 153.742 38.8287 153.863 38.5423C153.981 38.263 154.152 38.0087 154.365 37.793C154.565 37.5935 154.811 37.4352 155.101 37.3152C155.384 37.1982 155.686 37.1378 155.991 37.1374C156.218 37.1374 156.44 37.1633 156.658 37.2151C156.877 37.268 157.065 37.3334 157.221 37.4142V35.8847C157.221 35.7592 157.199 35.6449 157.153 35.5434C157.107 35.4398 157.043 35.3621 156.961 35.3088C156.869 35.2524 156.746 35.2118 156.589 35.1854C156.422 35.1601 156.254 35.1418 156.085 35.1307V34.8538L158.069 34.752L158.143 34.8187V40.7493C158.143 40.8544 158.164 40.9427 158.211 41.0158C158.254 41.0878 158.319 41.1499 158.405 41.2C158.467 41.2371 158.556 41.2579 158.676 41.2668C158.793 41.2754 158.901 41.2823 159 41.2855V41.575V41.5741ZM157.221 40.8017V38.2295C157.197 38.1518 157.153 38.0692 157.094 37.98C157.032 37.8877 156.958 37.805 156.872 37.7345C156.77 37.6559 156.657 37.5934 156.537 37.5492C156.409 37.5006 156.26 37.4761 156.09 37.4761C155.891 37.4761 155.71 37.5216 155.546 37.6142C155.379 37.7055 155.233 37.8387 155.105 38.0108C154.982 38.1777 154.886 38.3892 154.816 38.6462C154.745 38.9038 154.709 39.1881 154.709 39.5007C154.709 39.7502 154.737 39.9772 154.789 40.1813C154.841 40.3853 154.93 40.5744 155.054 40.7488C155.169 40.9151 155.32 41.0527 155.497 41.1508C155.675 41.2512 155.887 41.3033 156.134 41.3033C156.396 41.3033 156.615 41.2501 156.786 41.1459C156.947 41.0523 157.093 40.9364 157.221 40.8017Z" fill="#999999"/>
</g>
</svg>
