<svg width="183" height="54" viewBox="0 0 183 54" fill="none" xmlns="http://www.w3.org/2000/svg">
<mask id="mask0_869_5583" style="mask-type:alpha" maskUnits="userSpaceOnUse" x="0" y="0" width="183" height="54">
<rect width="183" height="54" fill="#D9D9D9"/>
</mask>
<g mask="url(#mask0_869_5583)">
<path d="M59.7077 20.3834C61.5101 18.5908 63.6768 17.6702 66.2078 17.6167C66.3317 17.6143 66.4337 17.7163 66.4337 17.8378V22.1882C66.4337 22.3072 66.339 22.4019 66.2175 22.4068C65.0079 22.4554 63.9682 22.9096 63.0986 23.7695C62.1756 24.6803 61.7141 25.7855 61.7141 27.0875V35.8441C61.7141 35.9656 61.6145 36.0652 61.4931 36.0652H57.1451C57.0237 36.0652 56.9241 35.9656 56.9241 35.8441V27.0875C56.9241 24.4617 57.852 22.227 59.7102 20.381L59.7077 20.3834Z" fill="#999999"/>
<path d="M87.8286 27.1265C87.8286 29.7766 86.9056 32.0234 85.0619 33.8695C83.2159 35.7155 80.969 36.6361 78.3214 36.6361C75.6738 36.6361 73.4536 35.7082 71.5979 33.85C69.7397 31.9943 68.8118 29.7523 68.8118 27.1265V17.8744C68.8118 17.7529 68.9114 17.6533 69.0328 17.6533H73.4536C73.5751 17.6533 73.6747 17.7529 73.6747 17.8744V27.1508C73.6747 28.5742 74.2163 29.7741 75.2973 30.7458C76.0308 31.4064 76.9733 31.8024 77.9595 31.8704C79.2177 31.9554 80.3083 31.6275 81.2314 30.8866C82.407 29.9417 83.0434 28.4795 83.0434 26.9735V17.8768C83.0434 17.7553 83.143 17.6557 83.2645 17.6557H87.6124C87.7339 17.6557 87.8334 17.7553 87.8334 17.8768V27.1289L87.8286 27.1265Z" fill="#999999"/>
<path d="M109.26 27.0949C109.26 27.503 109.233 27.9111 109.18 28.3192C109.165 28.4285 109.07 28.5111 108.959 28.5111H95.5869C95.4315 28.5111 95.327 28.6665 95.3805 28.8123C95.7035 29.677 96.2379 30.3838 96.9812 30.9328C97.8095 31.5425 98.7422 31.8461 99.7843 31.8461C101.137 31.8461 102.272 31.3457 103.19 30.3474C103.285 30.2454 103.447 30.2478 103.532 30.3595L106.158 33.85C106.226 33.9399 106.216 34.0711 106.131 34.1464C104.341 35.7811 102.225 36.5997 99.7843 36.5997C97.1342 36.5997 94.8874 35.6791 93.0413 33.8379C91.1953 31.9967 90.2747 29.7523 90.2747 27.1095C90.2747 24.4667 91.2025 22.2587 93.0607 20.4151C94.9165 18.5739 97.1585 17.6533 99.7843 17.6533C102.41 17.6533 104.645 18.5739 106.491 20.4127C108.337 22.2515 109.257 24.4789 109.257 27.0974L109.26 27.0949ZM103.523 24.9258C103.695 24.9258 103.799 24.7364 103.712 24.5882C102.833 23.1332 101.523 22.4069 99.7843 22.4069C98.0451 22.4069 96.7019 23.1356 95.8225 24.5882C95.7327 24.7364 95.8395 24.9258 96.012 24.9258H103.523Z" fill="#999999"/>
<path d="M111.963 8H116.311C116.433 8 116.532 8.09959 116.532 8.22104V35.8463C116.532 35.9678 116.433 36.0674 116.311 36.0674H111.963C111.842 36.0674 111.742 35.9678 111.742 35.8463V8.22104C111.742 8.09959 111.842 8 111.963 8Z" fill="#999999"/>
<path d="M138 36.2567C138 38.9019 137.077 41.1415 135.233 42.973C133.431 44.7607 131.245 45.6765 128.677 45.7178C128.575 45.7178 128.493 45.6352 128.493 45.5356V41.1051C128.493 41.0079 128.571 40.9302 128.67 40.9253C129.894 40.8864 130.949 40.4298 131.828 39.5626C132.751 38.6517 133.212 37.5465 133.212 36.2446V35.6956C133.212 35.5596 133.067 35.4746 132.945 35.5377C131.556 36.2689 130.072 36.6357 128.493 36.6357C125.867 36.6357 123.625 35.7102 121.769 33.8569C119.911 32.0035 118.983 29.7664 118.983 27.1455V17.835C118.983 17.7354 119.063 17.6553 119.163 17.6553H123.661C123.761 17.6553 123.841 17.7354 123.841 17.835V27.1625C123.841 28.4644 124.295 29.5745 125.201 30.4975C126.107 31.4205 127.21 31.8821 128.507 31.8821C129.605 31.8821 130.57 31.5493 131.398 30.8862C132.569 29.9461 133.21 28.4936 133.21 26.9924V17.835C133.21 17.7354 133.29 17.6553 133.39 17.6553H137.818C137.917 17.6553 137.998 17.7354 137.998 17.835V36.2592L138 36.2567Z" fill="#999999"/>
<path d="M49.79 26.5946V22.2952C49.79 22.011 49.5593 21.7827 49.2775 21.7827H45.5125C45.2283 21.7827 45 22.0135 45 22.2952V26.5946C45 29.2204 45.9279 31.4551 47.7861 33.3011C49.5131 35.0185 51.5754 35.9366 53.968 36.0557C54.2619 36.0702 54.5096 35.8346 54.5096 35.5407V31.7684C54.5096 31.5012 54.3032 31.2826 54.036 31.2583C52.938 31.1587 51.9834 30.7118 51.1746 29.9127C50.2515 29.0018 49.79 27.8966 49.79 26.5946Z" fill="#999999"/>
<path d="M45 17.2789V8.38621C45 8.17246 45.1725 8 45.3862 8H49.4062C49.62 8 49.7925 8.17246 49.7925 8.38621V15.5567H54.1258C54.3396 15.5567 54.5121 15.7292 54.5121 15.9429V19.2512C54.5121 19.465 54.3396 19.6374 54.1258 19.6374H47.3586C46.0566 19.6374 45 18.5808 45 17.2789Z" fill="#999999"/>
<path d="M46.1999 41.5982V45.628H45.5878V41.5982H45V41.042H46.7878V41.5982H46.1999Z" fill="#999999"/>
<path d="M47.4729 41.042H48.6728C49.1416 41.042 49.3748 41.3043 49.3748 41.829V42.9585C49.3748 43.3593 49.2534 43.6119 49.0105 43.7188L49.438 45.628H48.8574L48.4542 43.7771H48.085V45.628H47.4705V41.042H47.4729ZM48.0874 43.2524H48.4906C48.6728 43.2524 48.7651 43.1407 48.7651 42.9196V41.9286C48.7651 41.7075 48.6728 41.5958 48.4906 41.5958H48.0874V43.25V43.2524Z" fill="#999999"/>
<path d="M52.1488 41.042V44.7608C52.1488 45.3389 51.901 45.6304 51.4079 45.6304H50.8905C50.3999 45.6304 50.1545 45.3389 50.1545 44.756V41.0444H50.7691V44.7754C50.7691 44.9746 50.859 45.0742 51.0363 45.0742H51.2865C51.4516 45.0742 51.5367 44.9746 51.5367 44.7754V41.0444H52.1488V41.042Z" fill="#999999"/>
<path d="M53.0547 45.628V41.042H54.5753V41.5982H53.6692V42.9925H54.4732V43.5463H53.6692V45.0717H54.5753V45.628H53.0547Z" fill="#999999"/>
<path d="M56.7004 41.042H57.8178C58.3109 41.042 58.5586 41.3043 58.5586 41.829V43.1892C58.5586 43.7091 58.3133 43.969 57.8226 43.969H57.3125V45.6304H56.698V41.0444L56.7004 41.042ZM57.315 43.4127H57.7036C57.8639 43.4127 57.9465 43.3253 57.9465 43.1455V41.8679C57.9465 41.6881 57.8542 41.5982 57.672 41.5982H57.315V43.4127Z" fill="#999999"/>
<path d="M59.3774 41.042H60.5774C61.0462 41.042 61.2794 41.3043 61.2794 41.829V42.9585C61.2794 43.3593 61.1579 43.6119 60.915 43.7188L61.3425 45.628H60.762L60.3588 43.7771H59.9895V45.628H59.375V41.042H59.3774ZM59.992 43.2524H60.3952C60.5774 43.2524 60.6697 43.1407 60.6697 42.9196V41.9286C60.6697 41.7075 60.5774 41.5958 60.3952 41.5958H59.992V43.25V43.2524Z" fill="#999999"/>
<path d="M62.1245 45.628V41.042H62.7391V45.628H62.1245Z" fill="#999999"/>
<path d="M65.4793 44.5573V44.8512C65.4793 45.371 65.2339 45.6309 64.7433 45.6309H64.3473C63.8567 45.6309 63.6138 45.371 63.6138 44.8512V41.8246C63.6138 41.3048 63.8591 41.0449 64.3473 41.0449H64.7433C65.2339 41.0449 65.4793 41.3048 65.4793 41.8246V42.342H64.8647V41.8708C64.8647 41.691 64.7724 41.6012 64.5902 41.6012H64.4688C64.3085 41.6012 64.2259 41.691 64.2259 41.8708V44.8099C64.2259 44.9897 64.306 45.0771 64.4688 45.0771H64.6218C64.7846 45.0771 64.8647 44.9897 64.8647 44.8099V44.5597H65.4793V44.5573Z" fill="#999999"/>
<path d="M66.2905 45.628V41.042H67.8111V41.5982H66.9051V42.9925H67.7091V43.5463H66.9051V45.0717H67.8111V45.628H66.2905Z" fill="#999999"/>
<path d="M69.1371 44.8511V45.6308H68.4861V44.8511H69.1371Z" fill="#999999"/>
<path d="M72.2803 41.5982V45.628H71.6681V41.5982H71.0803V41.042H72.8681V41.5982H72.2803Z" fill="#999999"/>
<path d="M73.5508 41.042H74.7507C75.2195 41.042 75.4527 41.3043 75.4527 41.829V42.9585C75.4527 43.3593 75.3312 43.6119 75.0883 43.7188L75.5158 45.628H74.9353L74.5321 43.7771H74.1629V45.628H73.5483V41.042H73.5508ZM74.1653 43.2524H74.5685C74.7507 43.2524 74.843 43.1407 74.843 42.9196V41.9286C74.843 41.7075 74.7507 41.5958 74.5685 41.5958H74.1653V43.25V43.2524Z" fill="#999999"/>
<path d="M76.8809 45.628H76.2688V41.829C76.2688 41.3043 76.5141 41.042 77.0024 41.042H77.4614C77.9521 41.042 78.1974 41.3043 78.1974 41.829V45.628H77.5829V43.9471H76.8809V45.628ZM77.5829 43.3933V41.8679C77.5829 41.6881 77.493 41.5982 77.3157 41.5982H77.1505C76.9708 41.5982 76.8833 41.6881 76.8833 41.8679V43.3933H77.5853H77.5829Z" fill="#999999"/>
<path d="M80.3424 43.2597V41.042H80.9545V45.628H80.3424V44.7147L79.6841 42.6257V45.628H79.0696V41.042H79.6841L80.3424 43.2597Z" fill="#999999"/>
<path d="M83.0386 42.2764V41.8732C83.0386 41.691 82.9487 41.5987 82.769 41.5987H82.6742C82.4993 41.5987 82.4119 41.691 82.4119 41.8732V42.6335C82.4119 42.7185 82.4289 42.7768 82.4629 42.806C82.4969 42.8351 82.5528 42.874 82.6281 42.9201L83.2086 43.2335C83.3374 43.3063 83.4272 43.3622 83.4807 43.4011C83.5341 43.4399 83.5754 43.491 83.6045 43.5492C83.6337 43.6051 83.6483 43.7144 83.6483 43.8772V44.8561C83.6483 45.371 83.4005 45.6285 82.9074 45.6285H82.5309C82.0403 45.6285 81.7949 45.3467 81.7949 44.7856V44.5573H82.4095V44.8075C82.4095 44.9872 82.5018 45.0747 82.6839 45.0747H82.7933C82.956 45.0747 83.0362 44.9872 83.0362 44.8075V44.0278C83.0362 43.9427 83.0192 43.8845 82.9851 43.8553C82.9511 43.8262 82.8953 43.7873 82.82 43.7411L82.2394 43.4132C82.1107 43.3452 82.0184 43.2869 81.9625 43.2408C81.9042 43.1922 81.8629 43.1339 81.8386 43.0586C81.8144 42.9857 81.7998 42.8861 81.7998 42.7695V41.8319C81.7998 41.3073 82.0451 41.0449 82.5358 41.0449H82.9196C83.4102 41.0449 83.6556 41.3073 83.6556 41.8319V42.2789H83.0434L83.0386 42.2764Z" fill="#999999"/>
<path d="M84.4934 41.042H85.6107C86.1038 41.042 86.3516 41.3043 86.3516 41.829V43.1892C86.3516 43.7091 86.1063 43.969 85.6156 43.969H85.1055V45.6304H84.491V41.0444L84.4934 41.042ZM85.1079 43.4127H85.4966C85.6569 43.4127 85.7395 43.3253 85.7395 43.1455V41.8679C85.7395 41.6881 85.6472 41.5982 85.465 41.5982H85.1079V43.4127Z" fill="#999999"/>
<path d="M87.7508 45.628H87.1387V41.829C87.1387 41.3043 87.384 41.042 87.8722 41.042H88.3313C88.822 41.042 89.0673 41.3043 89.0673 41.829V45.628H88.4528V43.9471H87.7508V45.628ZM88.4528 43.3933V41.8679C88.4528 41.6881 88.3629 41.5982 88.1856 41.5982H88.0204C87.8407 41.5982 87.7532 41.6881 87.7532 41.8679V43.3933H88.4552H88.4528Z" fill="#999999"/>
<path d="M89.9416 41.042H91.1416C91.6104 41.042 91.8436 41.3043 91.8436 41.829V42.9585C91.8436 43.3593 91.7221 43.6119 91.4792 43.7188L91.9067 45.628H91.3262L90.923 43.7771H90.5538V45.628H89.9392V41.042H89.9416ZM90.5562 43.2524H90.9594C91.1416 43.2524 91.2339 43.1407 91.2339 42.9196V41.9286C91.2339 41.7075 91.1416 41.5958 90.9594 41.5958H90.5562V43.25V43.2524Z" fill="#999999"/>
<path d="M92.689 45.628V41.042H94.2095V41.5982H93.3035V42.9925H94.1075V43.5463H93.3035V45.0717H94.2095V45.628H92.689Z" fill="#999999"/>
<path d="M96.2523 43.2597V41.042H96.8644V45.628H96.2523V44.7147L95.594 42.6257V45.628H94.9795V41.042H95.594L96.2523 43.2597Z" fill="#999999"/>
<path d="M98.7493 41.5982V45.628H98.1371V41.5982H97.5493V41.042H99.3371V41.5982H98.7493Z" fill="#999999"/>
<path d="M100.131 44.8511V45.6308H99.4805V44.8511H100.131Z" fill="#999999"/>
<path d="M102.296 45.628V41.042H103.362C103.938 41.042 104.224 41.3359 104.224 41.9237V44.9649C104.224 45.4069 103.979 45.628 103.491 45.628H102.296ZM102.91 45.0717H103.369C103.532 45.0717 103.612 45.0037 103.612 44.8677V41.9286C103.612 41.7075 103.52 41.5958 103.338 41.5958H102.91V45.0693V45.0717Z" fill="#999999"/>
<path d="M105.099 45.628V41.042H106.619V41.5982H105.713V42.9925H106.517V43.5463H105.713V45.0717H106.619V45.628H105.099Z" fill="#999999"/>
<path d="M108.849 45.628H107.392V41.042H108.006V45.0717H108.849V45.628Z" fill="#999999"/>
<path d="M109.532 45.628V41.042H110.147V45.628H109.532Z" fill="#999999"/>
<path d="M113.039 41.042L112.298 45.628H111.57L110.829 41.042H111.436L111.934 44.5422L112.432 41.042H113.039Z" fill="#999999"/>
<path d="M113.659 45.628V41.042H115.179V41.5982H114.273V42.9925H115.077V43.5463H114.273V45.0717H115.179V45.628H113.659Z" fill="#999999"/>
<path d="M115.952 41.042H117.152C117.62 41.042 117.854 41.3043 117.854 41.829V42.9585C117.854 43.3593 117.732 43.6119 117.489 43.7188L117.917 45.628H117.336L116.933 43.7771H116.564V45.628H115.949V41.042H115.952ZM116.566 43.2524H116.969C117.152 43.2524 117.244 43.1407 117.244 42.9196V41.9286C117.244 41.7075 117.152 41.5958 116.969 41.5958H116.566V43.25V43.2524Z" fill="#999999"/>
<path d="M118.699 45.628V41.042H120.22V41.5982H119.314V42.9925H120.118V43.5463H119.314V45.0717H120.22V45.628H118.699Z" fill="#999999"/>
<path d="M120.992 45.628V41.042H122.058C122.634 41.042 122.921 41.3359 122.921 41.9237V44.9649C122.921 45.4069 122.675 45.628 122.187 45.628H120.992ZM121.606 45.0717H122.066C122.228 45.0717 122.308 45.0037 122.308 44.8677V41.9286C122.308 41.7075 122.216 41.5958 122.034 41.5958H121.606V45.0693V45.0717Z" fill="#999999"/>
<path d="M124.351 44.8511V45.6308H123.7V44.8511H124.351Z" fill="#999999"/>
<path d="M125.719 44.8511V45.6308H125.068V44.8511H125.719Z" fill="#999999"/>
<path d="M127.208 41.042L127.13 44.3892H126.613L126.53 41.042H127.208ZM127.208 44.8507V45.6304H126.557V44.8507H127.208Z" fill="#999999"/>
</g>
</svg>
