<svg width="183" height="54" viewBox="0 0 183 54" fill="none" xmlns="http://www.w3.org/2000/svg">
<mask id="mask0_869_5806" style="mask-type:alpha" maskUnits="userSpaceOnUse" x="0" y="0" width="183" height="54">
<rect width="183" height="54" fill="#D9D9D9"/>
</mask>
<g mask="url(#mask0_869_5806)">
<path d="M145.185 8H38.3335C36.4925 8 35 9.49247 35 11.3335V42.6665C35 44.5075 36.4925 46 38.3335 46H145.185C147.027 46 148.519 44.5075 148.519 42.6665V11.3335C148.519 9.49247 147.027 8 145.185 8Z" fill="#999999"/>
<path d="M82.4188 39.624C81.3001 40.2057 80.1256 40.5637 78.8727 40.6979C77.6198 40.8321 76.5236 40.8993 75.5616 40.8993C73.6487 40.8993 71.9819 40.3847 70.5389 39.3444C69.107 38.304 68.3911 36.5925 68.3911 34.2098C68.3911 31.9837 69.0399 30.3841 70.3375 29.4333C71.6352 28.4824 73.3019 27.8448 75.3155 27.5204C75.5839 27.5204 75.8971 27.4757 76.2663 27.3973C76.6354 27.319 77.0605 27.2519 77.5415 27.196C79.8795 26.8828 81.0429 26.1892 81.0429 25.1265C81.0429 24.3323 80.629 23.8177 79.8124 23.5716C78.9958 23.3255 78.2351 23.2137 77.5415 23.2137C76.7921 23.2137 76.1321 23.3255 75.5504 23.5269C74.9687 23.7394 74.5436 24.1421 74.2751 24.7238H68.9392C69.1518 23.0794 69.9013 21.7259 71.1653 20.6632C72.5972 19.4439 74.6443 18.8286 77.2954 18.8286C80.271 18.8286 82.4971 19.332 83.9849 20.3388C85.5286 21.4015 86.3004 22.8893 86.3004 24.8021V32.0509C86.3004 34.1763 85.9201 35.8318 85.1483 37.0288C84.3764 38.2257 83.4591 39.0871 82.3964 39.6128L82.4188 39.624ZM81.1435 29.8248C80.4052 30.1939 79.3649 30.5407 78.0337 30.8651L76.1992 31.2678C75.2372 31.5363 74.5548 31.8831 74.1297 32.3082C73.7606 32.8898 73.5704 33.4715 73.5704 34.0644C73.5704 34.8586 73.8053 35.4963 74.2863 35.9773C74.7673 36.4024 75.4497 36.6149 76.3558 36.6149C77.8436 36.6149 79.0069 36.1898 79.8571 35.3396C80.7073 34.4895 81.1324 33.3261 81.1324 31.8383V29.8472L81.1435 29.8248Z" fill="white"/>
<path d="M87.9451 40.5077V30.2274C87.9451 28.158 88.2471 26.4129 88.8623 25.0146C89.4664 23.6051 90.3054 22.4753 91.3681 21.6251C92.3749 20.8309 93.5606 20.2492 94.9142 19.8689C96.2677 19.4997 97.666 19.3096 99.0978 19.3096H99.8921V24.9699H98.0575C96.5138 24.9699 95.3728 25.339 94.6345 26.0885C93.8962 26.838 93.5159 28.0014 93.5159 29.5898V40.5077H87.9451Z" fill="white"/>
<path d="M106.85 19.3207V27.1287L113.618 19.3207H120.307L112.734 27.442L120.385 40.5076H113.696L109.792 33.3372C108.998 31.9053 108.304 31.2901 107.722 31.5026C107.141 31.7151 106.85 32.0395 106.85 32.4534V40.4964H101.279V13.1011H104.143C104.881 13.1011 105.519 13.3695 106.056 13.8953C106.581 14.4322 106.85 15.0363 106.85 15.7299V19.3095V19.3207Z" fill="white"/>
<path d="M127.746 19.3207V27.1287L134.514 19.3207H141.203L133.63 27.442L141.281 40.5076H134.592L130.688 33.3372C129.894 31.9053 129.2 31.2901 128.618 31.5026C128.037 31.7151 127.746 32.0395 127.746 32.4534V40.4964H122.175V13.1011H125.039C125.777 13.1011 126.415 13.3695 126.952 13.8953C127.477 14.4322 127.746 15.0363 127.746 15.7299V19.3095V19.3207Z" fill="white"/>
<path d="M64.7891 15.3384C63.3573 13.8506 61.1759 13.1123 58.2563 13.1123H48.9381C48.1438 13.1123 47.4615 13.392 46.9022 13.9513C46.3428 14.5106 46.0632 15.1818 46.0632 15.9872V17.9001H57.5292C58.7485 17.9001 59.7329 18.2245 60.4712 18.8509C61.1088 19.6004 61.4332 20.5736 61.4332 21.7929C61.4332 23.2248 61.0864 24.2315 60.3929 24.8244C59.7553 25.462 58.6926 25.7752 57.2048 25.7752H46.052V40.5077H51.7011V30.7084H58.6366C61.3437 30.7084 63.4132 29.9701 64.8451 28.4823C66.2769 26.8939 66.9928 24.7125 66.9928 21.9495C66.9928 19.0299 66.2433 16.8262 64.7667 15.3384H64.7891Z" fill="white"/>
<path d="M42.2266 22.0834V21.5688H43.5018V22.0834H42.2266ZM44.7882 22.0834V21.5688H46.0635V22.0834H44.7882ZM47.3499 22.0834V21.5688H48.6251V22.0834H47.3499Z" fill="white"/>
<path d="M54.8223 24.3886C55.1691 24.3326 55.4152 24.1425 55.5271 23.8069C55.5494 23.7286 55.5383 23.7398 55.6277 23.7398C56.0305 23.7398 56.422 23.7398 56.8247 23.7398C56.9925 23.7398 57.1715 23.7174 57.3281 23.6615C57.8091 23.4825 58.0887 23.1245 58.1894 22.6323C58.1894 22.5876 58.1894 22.554 58.1894 22.5093C58.1894 22.2855 58.1894 22.0618 58.1894 21.8381C58.1894 21.6144 58.1894 21.3906 58.1894 21.1669C58.1894 21.1222 58.1894 21.0886 58.1894 21.0439C58.0887 20.5517 57.8091 20.2049 57.3281 20.0147C57.1715 19.9476 56.9925 19.9364 56.8247 19.9364C56.422 19.9364 56.0305 19.9364 55.6277 19.9364C55.5494 19.9364 55.5606 19.9364 55.5271 19.8693C55.4152 19.5337 55.1691 19.3435 54.8223 19.2876C54.7664 19.2876 54.9342 19.7351 54.9342 19.8917C54.9342 19.9252 54.923 19.9476 54.8894 19.9364C54.8671 19.9364 54.6545 19.9364 54.6433 19.9364C53.6478 19.9364 52.641 19.9364 51.6454 19.9364C51.5783 19.9364 51.5112 19.9364 51.4441 19.9364C51.3434 19.9364 51.2539 19.9364 51.1532 19.9588C50.8736 20.0371 50.6275 20.1713 50.4485 20.395C50.2695 20.6188 50.1464 20.8649 50.1353 21.1557C50.1353 21.3794 50.1353 21.6032 50.1353 21.8381C50.1353 22.0618 50.1353 22.2855 50.1353 22.5204C50.1353 22.8113 50.2583 23.0574 50.4485 23.2811C50.6386 23.5048 50.8736 23.6391 51.1532 23.7174C51.2427 23.7398 51.3434 23.7398 51.4441 23.7398C51.5112 23.7398 51.5783 23.7398 51.6454 23.7398C52.641 23.7398 53.6478 23.7398 54.6433 23.7398C54.6657 23.7398 54.8783 23.7398 54.8894 23.7398C54.923 23.7398 54.9342 23.7509 54.9342 23.7845C54.9342 23.9411 54.7776 24.3998 54.8223 24.3886ZM51.5112 23.2587C51.4552 23.1469 51.3993 23.035 51.3658 22.9232C51.2539 22.5764 51.2091 22.2296 51.2091 21.8269C51.2091 21.4242 51.2539 21.0662 51.3658 20.7306C51.3993 20.6188 51.4552 20.4957 51.5112 20.395C51.5335 20.3615 51.5559 20.3503 51.5895 20.3615C51.8803 20.4622 52.1712 20.5628 52.4732 20.6523C52.5068 20.6523 52.5068 20.6747 52.5068 20.7083C52.4844 20.8649 52.4732 21.0327 52.462 21.1893C52.4508 21.4018 52.4396 21.6144 52.4396 21.8269C52.4396 22.0394 52.4396 22.252 52.462 22.4645C52.462 22.6211 52.4956 22.7889 52.5068 22.9455C52.5068 22.9791 52.5068 22.9903 52.4732 23.0015C52.1824 23.1021 51.8915 23.1916 51.5895 23.2923C51.5559 23.3035 51.5335 23.2923 51.5112 23.2587ZM55.6613 23.2811C55.3705 23.1804 55.0796 23.091 54.7888 22.9903C54.7552 22.9791 54.744 22.9567 54.744 22.9232C54.7888 22.6547 54.8 22.3862 54.8111 22.1177C54.8111 22.0171 54.8111 21.9164 54.8111 21.8157C54.8111 21.715 54.8111 21.6144 54.8111 21.5137C54.8111 21.2452 54.7888 20.9767 54.744 20.7083C54.744 20.6635 54.744 20.6523 54.7888 20.6411C55.0796 20.5517 55.3705 20.451 55.6613 20.3503C55.7172 20.3279 55.7172 20.3279 55.7508 20.3839C55.8738 20.6076 55.9298 20.8537 55.9857 21.0998C56.0193 21.3011 56.0416 21.5025 56.0528 21.6144C56.0528 21.6815 56.0528 21.7486 56.0528 21.8157C56.0528 21.8828 56.0528 21.9499 56.0528 22.0171C56.0528 22.1401 56.0305 22.3415 55.9857 22.5316C55.941 22.7777 55.8738 23.0238 55.7508 23.2476C55.7172 23.3035 55.7172 23.3035 55.6613 23.2811Z" fill="white"/>
</g>
</svg>
