<svg width="183" height="54" viewBox="0 0 183 54" fill="none" xmlns="http://www.w3.org/2000/svg">
<mask id="mask0_869_5630" style="mask-type:alpha" maskUnits="userSpaceOnUse" x="0" y="0" width="183" height="54">
<rect width="183" height="54" fill="#D9D9D9"/>
</mask>
<g mask="url(#mask0_869_5630)">
</g>
<g clip-path="url(#clip0_869_5630)">
<path fill-rule="evenodd" clip-rule="evenodd" d="M160.295 30.1516C160.295 30.494 160.295 30.9233 160.209 31.4803L159.695 31.5232C157.207 31.652 155.962 30.9233 155.962 29.3381C155.962 28.6523 156.177 28.1382 156.606 27.71C157.035 27.3247 157.549 27.11 158.236 27.11C159.609 27.11 160.295 28.1382 160.295 30.1516ZM168.103 31.3515H166.602V15.1133H160.509L159.137 21.1117H160.295V22.054C159.266 21.7545 158.236 21.5828 157.207 21.5828C155.062 21.5828 153.259 22.3545 151.844 23.8967C150.428 25.439 149.742 27.2817 149.742 29.4669C149.742 31.9515 150.599 33.9659 152.273 35.5511C153.645 36.751 154.933 37.3939 156.22 37.3939H159.223L160.295 34.7376V37.3939H166.602L168.103 31.3525V31.3515ZM148.926 29.5517C148.926 27.1949 148.111 25.2673 146.481 23.768C144.808 22.2686 142.835 21.5399 140.432 21.5399C138.029 21.5399 136.055 22.2686 134.468 23.768C132.795 25.2673 131.98 27.2378 131.98 29.5946V29.937C132.109 29.6795 132.195 29.4659 132.366 29.2083C133.867 26.552 136.57 25.0097 139.445 24.838C137.472 25.4809 135.756 26.8515 134.64 28.7801C133.567 30.6647 133.311 32.765 133.696 34.7355C133.911 34.9931 134.125 35.2067 134.383 35.4213C134.641 35.6789 134.898 35.8925 135.156 36.1071C134.212 34.6507 134.126 32.7221 135.027 31.051C135.757 29.8082 136.957 28.9947 138.245 28.6523C138.373 28.4377 138.502 28.2241 138.716 28.0094C139.188 27.5383 139.746 27.2807 140.39 27.2807C141.076 27.2807 141.634 27.4954 142.063 27.9236C142.492 28.3518 142.707 28.9088 142.707 29.5946C142.707 31.1798 142.02 31.9934 140.562 31.9934C140.219 31.9934 139.918 31.9075 139.575 31.8217C139.275 31.6929 139.017 31.5641 138.76 31.3505C138.631 31.2217 138.502 31.0929 138.375 30.9223C137.946 31.1369 137.602 31.5222 137.345 31.9504C136.572 33.321 137.045 35.035 138.417 35.8066C138.889 36.0642 139.404 36.149 139.919 36.149C139.189 36.3636 138.375 36.3207 137.645 35.9344C136.315 35.1627 135.8 33.4498 136.572 32.1211C136.958 31.4353 137.602 30.9642 138.289 30.7925C138.246 30.7066 138.246 30.6637 138.203 30.6208C138.074 30.3632 137.988 30.0637 137.988 29.7214C137.988 29.4638 138.031 29.2502 138.117 28.9926C137.387 29.4209 136.786 30.0637 136.357 30.7925C135.028 33.1912 135.843 36.148 138.203 37.4756C138.889 37.6473 139.618 37.7332 140.348 37.7332C142.793 37.7332 144.81 36.9615 146.482 35.4622C148.112 33.9199 148.927 31.9494 148.927 29.5497L148.926 29.5517ZM131.164 29.5517C131.164 27.1949 130.35 25.2673 128.719 23.768C127.046 22.2686 125.03 21.5399 122.67 21.5399C120.31 21.5399 118.294 22.2686 116.706 23.768C115.076 25.2673 114.261 27.153 114.218 29.4659C114.261 29.38 114.304 29.2942 114.39 29.2083C115.892 26.552 118.595 25.0097 121.469 24.838C119.496 25.4809 117.78 26.8515 116.664 28.7801C115.678 30.537 115.377 32.5075 115.678 34.3502C115.936 34.7355 116.236 35.0789 116.621 35.4213C116.75 35.5501 116.879 35.6789 117.007 35.7637C116.235 34.3502 116.193 32.5933 117.05 31.051C117.823 29.7224 119.109 28.8659 120.525 28.6094C120.611 28.4377 120.783 28.2241 120.954 28.0094C121.425 27.5383 121.983 27.2807 122.627 27.2807C123.314 27.2807 123.871 27.4954 124.3 27.9236C124.729 28.3518 124.944 28.9088 124.944 29.5946C124.944 31.1798 124.214 31.9934 122.799 31.9934C122.456 31.9934 122.112 31.9075 121.812 31.8217C121.512 31.6929 121.255 31.5641 120.998 31.3505C120.826 31.1788 120.655 31.0081 120.569 30.8364C120.054 31.051 119.625 31.4364 119.324 31.9504C118.595 33.321 119.066 35.035 120.397 35.8066C120.912 36.0642 121.426 36.149 121.941 36.149C121.212 36.3636 120.397 36.3207 119.667 35.9344C118.295 35.1627 117.822 33.4498 118.595 32.1211C119.023 31.3495 119.71 30.8783 120.482 30.7076C120.482 30.7076 120.482 30.6647 120.439 30.6218C120.31 30.3642 120.224 30.0648 120.224 29.7224C120.224 29.4229 120.31 29.1224 120.396 28.8659C119.581 29.2941 118.852 29.937 118.38 30.7935C117.049 33.1074 117.822 36.0202 120.053 37.3918C120.868 37.6064 121.683 37.7342 122.584 37.7342C125.029 37.7342 127.046 36.9625 128.718 35.4632C130.349 33.9209 131.163 31.9504 131.163 29.5507L131.164 29.5517ZM114.261 15.1133H110.4C106.967 15.1133 105.252 16.7414 105.252 19.9118V21.7545H104.78L103.322 27.5812H105.209V37.3928H111.473V27.5812H112.674L114.218 21.7545H111.259C111.259 20.8981 111.602 20.4688 112.417 20.4688L112.932 20.5546L114.262 15.1133H114.261Z" fill="#999999"/>
<path fill-rule="evenodd" clip-rule="evenodd" d="M103.622 37.3918L98.3021 29.0805L102.935 21.7545H95.8561L94.0538 25.3102L92.5094 21.7545H84.9586L89.7636 29.1664L84.7007 37.3928H92.0796L94.2247 33.1084L96.5418 37.3928H103.621L103.622 37.3918ZM78.4383 29.5946C78.4383 31.1798 77.7086 31.9934 76.2932 31.9934C75.9503 31.9934 75.6065 31.9075 75.3066 31.8217C75.0067 31.6929 74.7488 31.5641 74.492 31.3505C74.277 31.1359 74.0631 30.9223 73.9342 30.6218C73.8052 30.3642 73.7193 30.0648 73.7193 29.7224C73.7193 29.0795 73.9772 28.5225 74.449 28.0084C74.9208 27.5373 75.4785 27.2797 76.1223 27.2797C76.809 27.2797 77.3668 27.4943 77.7956 27.9226C78.2244 28.3508 78.4393 28.9078 78.4393 29.5936L78.4383 29.5946ZM84.6587 29.5517C84.6587 27.1949 83.8441 25.2673 82.2137 23.768C80.5834 22.2686 78.5673 21.5399 76.1642 21.5399C73.7612 21.5399 71.7881 22.2686 70.2007 23.768C68.5704 25.2673 67.7128 27.2378 67.7128 29.5946C67.7128 31.9515 68.5274 33.922 70.1147 35.4213C71.7021 36.9636 73.7182 37.7352 76.0783 37.7352C78.4383 37.7352 80.5834 36.9636 82.2127 35.4642C83.843 33.922 84.6577 31.9515 84.6577 29.5517H84.6587ZM60.5477 29.4659C60.5477 30.1087 60.3328 30.7087 59.947 31.1369C59.5611 31.6081 59.0463 31.8227 58.4456 31.8227C56.8583 31.8227 56.0856 30.6657 56.0856 28.3099L56.1286 27.6241C56.4284 27.6241 56.6863 27.5812 56.9432 27.5383C57.2431 27.4953 57.501 27.4954 57.8008 27.4954C58.5305 27.4954 59.1313 27.6241 59.6031 27.9665C60.2468 28.3089 60.5467 28.823 60.5467 29.4659H60.5477ZM66.9401 29.7234C66.9401 27.2388 66.1674 25.2673 64.709 23.8109C63.2506 22.3545 61.2344 21.5828 58.7025 21.5828H57.6299L56.0856 24.5815V15.1133H49.8222L48.3208 21.1117H49.8222V37.3918H55.2709L56.1286 36.3207C56.9862 37.0494 58.0158 37.4347 59.2602 37.4347C61.5343 37.4347 63.3785 36.706 64.795 35.2925C66.2104 33.8361 66.9401 31.9504 66.9401 29.7224V29.7234Z" fill="#999999"/>
<path fill-rule="evenodd" clip-rule="evenodd" d="M81.2702 42.0627C81.2702 41.934 81.0983 41.2911 80.5835 40.9058C80.0257 40.4346 78.6533 40.777 77.7087 40.9058C76.7651 41.1204 74.577 41.4199 73.0756 41.5487C71.6172 41.6774 67.5409 41.6345 66.6403 41.6345C65.7397 41.5916 65.8256 41.5057 65.3958 41.2921C64.924 41.0775 64.6231 40.5205 63.6795 40.3927C62.7359 40.2639 60.5478 40.5215 58.4027 40.6922C56.2576 40.9068 56.6864 40.9068 56.9443 40.9068H62.7789C63.0787 40.9927 63.0368 41.378 62.7789 41.4209C62.564 41.4209 62.393 41.4638 61.2345 41.5067C60.119 41.5926 56.7724 41.7643 56.8154 41.8062C56.8154 41.8921 62.521 41.8491 62.8219 41.8491C63.0798 41.8491 63.0368 42.0208 63.0368 42.0638C63.0368 42.1496 63.0798 42.2784 62.8219 42.3213C62.522 42.3213 56.8154 42.2784 56.8154 42.3213C56.7724 42.4072 60.119 42.5359 61.2345 42.6208C62.393 42.7066 62.565 42.7066 62.7789 42.7496C63.0368 42.7925 63.0787 43.1778 62.7789 43.2207C62.521 43.2636 57.2442 43.2207 56.9443 43.2207C56.6864 43.2207 56.2576 43.2636 58.4027 43.4353C60.5478 43.65 62.7359 43.9065 63.6795 43.7777C64.6231 43.649 64.924 43.0919 65.3958 42.8783C65.8246 42.6637 65.7386 42.5359 66.6403 42.5359C67.5409 42.493 71.6172 42.493 73.0756 42.6218C74.577 42.7506 76.7651 43.05 77.7087 43.2217C78.6523 43.3934 80.0257 43.7358 80.5835 43.2647C81.0983 42.8794 81.2702 42.2365 81.2702 42.1077V42.0648V42.0627Z" fill="#999999"/>
<path fill-rule="evenodd" clip-rule="evenodd" d="M151.629 42.7045C152.187 43.561 153.302 44.718 155.661 44.3756C157.978 44.0332 159.008 42.9192 159.394 42.5328C159.693 42.1905 159.693 41.8471 159.693 41.7193C159.693 41.5915 159.693 41.2481 159.394 40.9477C159.008 40.5194 157.978 39.4054 155.661 39.063C153.301 38.7635 152.187 39.8765 151.629 40.734C151.114 41.5905 149.656 41.2911 148.497 41.2481C147.339 41.2481 143.263 41.1194 141.89 40.9487C140.474 40.8199 137.772 40.177 137.042 40.0922C136.269 40.0493 134.811 40.0493 134.811 41.5057V41.9339C134.811 43.4333 136.269 43.4333 137.042 43.3474C137.772 43.3045 140.474 42.6187 141.89 42.4909C143.262 42.3192 147.339 42.2334 148.497 42.1915C149.656 42.1486 151.114 41.8491 151.629 42.7056V42.7045Z" fill="#999999"/>
<path d="M90.3757 41.3391V45.5336H89.7391V41.3391H88.1169V40.8169H91.9978V41.3391H90.3757ZM92.7817 45.6C92.4174 45.6 92.1441 45.5039 91.9609 45.3118C91.7778 45.1197 91.6856 44.857 91.6856 44.5218C91.6856 44.1467 91.8095 43.8595 92.0561 43.6581C92.3028 43.4578 92.7009 43.3505 93.2515 43.3372L94.0661 43.3239V43.1267C94.0661 42.8323 94.0037 42.6208 93.8789 42.494C93.754 42.3673 93.5575 42.3029 93.2894 42.3029C93.0212 42.3029 92.8227 42.3489 92.6999 42.4399C92.577 42.5318 92.5034 42.678 92.4788 42.8783L91.8484 42.8211C91.9507 42.17 92.4358 41.844 93.3027 41.844C93.7581 41.844 94.102 41.9483 94.3312 42.1568C94.5615 42.3653 94.6761 42.6668 94.6761 43.0623V44.6219C94.6761 44.8008 94.6996 44.9347 94.7467 45.0256C94.7938 45.1166 94.8828 45.1616 95.0149 45.1616C95.0732 45.1616 95.1387 45.1534 95.2124 45.1381V45.5131C95.0609 45.5489 94.9054 45.5663 94.7467 45.5663C94.5236 45.5663 94.3609 45.508 94.2585 45.3905C94.1572 45.273 94.0989 45.09 94.0856 44.8396H94.0651C93.9106 45.1166 93.7315 45.3118 93.5268 45.4273C93.3221 45.5418 93.0734 45.6 92.7807 45.6H92.7817ZM92.9189 45.1483C93.1399 45.1483 93.3364 45.0982 93.5084 44.998C93.6803 44.8979 93.8164 44.7599 93.9157 44.5851C94.015 44.4104 94.0651 44.2295 94.0651 44.0445V43.7471L93.405 43.7603C93.1215 43.7644 92.9066 43.7941 92.7602 43.8472C92.6139 43.9004 92.5013 43.9831 92.4235 44.0945C92.3458 44.206 92.3058 44.3521 92.3058 44.533C92.3058 44.7292 92.3591 44.8815 92.4655 44.9878C92.5719 45.0951 92.7234 45.1483 92.9199 45.1483H92.9189ZM98.3942 44.532C98.3942 44.8733 98.2653 45.137 98.0074 45.322C97.7495 45.507 97.3882 45.6 96.9236 45.6C96.4589 45.6 96.1243 45.5254 95.8797 45.3772C95.6351 45.229 95.4754 44.997 95.4017 44.6822L95.9349 44.578C95.9861 44.7722 96.0925 44.9142 96.2532 45.0052C96.4139 45.0962 96.637 45.1411 96.9236 45.1411C97.2296 45.1411 97.4537 45.0941 97.596 45.0001C97.7382 44.9061 97.8088 44.766 97.8088 44.578C97.8088 44.4349 97.7597 44.3194 97.6615 44.2295C97.5632 44.1405 97.4046 44.067 97.1856 44.0087L96.7537 43.8952C96.4078 43.8063 96.1611 43.7184 96.0148 43.6326C95.8684 43.5467 95.7538 43.4425 95.6709 43.3198C95.588 43.1972 95.547 43.047 95.547 42.8681C95.547 42.538 95.6647 42.2866 95.9012 42.1128C96.1365 41.9401 96.4804 41.8532 96.9317 41.8532C97.3319 41.8532 97.6492 41.9237 97.8856 42.0637C98.121 42.2048 98.2704 42.4296 98.3328 42.7403L97.7894 42.8068C97.7556 42.6463 97.6655 42.5226 97.5192 42.4368C97.3728 42.3509 97.1763 42.308 96.9307 42.308C96.6585 42.308 96.4569 42.3489 96.3279 42.4317C96.1979 42.5145 96.1335 42.6392 96.1335 42.8068C96.1335 42.909 96.1601 42.9938 96.2143 43.0613C96.2686 43.1287 96.3474 43.1849 96.4528 43.2319C96.5582 43.279 96.7793 43.3433 97.116 43.4261C97.4353 43.5069 97.6655 43.5805 97.8068 43.6489C97.948 43.7174 98.0585 43.792 98.1404 43.8748C98.2223 43.9576 98.2847 44.0526 98.3298 44.161C98.3748 44.2693 98.3963 44.393 98.3963 44.531L98.3942 44.532ZM100.533 45.506C100.335 45.5591 100.131 45.5867 99.9232 45.5867C99.4402 45.5867 99.1997 45.3138 99.1997 44.7671V42.3499H98.7811V41.9115H99.2232L99.4013 41.101H99.8035V41.9115H100.474V42.3499H99.8035V44.6362C99.8035 44.81 99.8321 44.9326 99.8895 45.0031C99.9468 45.0737 100.045 45.1084 100.186 45.1084C100.267 45.1084 100.383 45.0931 100.535 45.0614V45.507L100.533 45.506ZM101.489 43.8493C101.489 44.2642 101.575 44.5841 101.747 44.81C101.919 45.0359 102.171 45.1483 102.501 45.1483C102.762 45.1483 102.972 45.0962 103.13 44.9909C103.287 44.8856 103.394 44.7527 103.45 44.5923L103.979 44.7425C103.762 45.3138 103.27 45.599 102.501 45.599C101.965 45.599 101.557 45.4396 101.276 45.1207C100.996 44.8018 100.856 44.3276 100.856 43.698C100.856 43.0684 100.996 42.6412 101.276 42.3223C101.557 42.0034 101.957 41.844 102.478 41.844C103.543 41.844 104.076 42.4859 104.076 43.7685V43.8493H101.489ZM103.453 43.3873C103.419 43.0061 103.322 42.7271 103.161 42.5523C103.001 42.3775 102.769 42.2896 102.467 42.2896C102.166 42.2896 101.942 42.3877 101.772 42.5829C101.601 42.7782 101.509 43.047 101.495 43.3883H103.453V43.3873ZM109.797 43.7184C109.797 44.3521 109.658 44.8243 109.379 45.134C109.099 45.4436 108.694 45.599 108.162 45.599C107.63 45.599 107.233 45.4375 106.962 45.1156C106.692 44.7936 106.557 44.3276 106.557 43.7184C106.557 42.4685 107.099 41.844 108.182 41.844C108.736 41.844 109.144 41.9963 109.405 42.3009C109.666 42.6054 109.797 43.0776 109.797 43.7184ZM109.164 43.7184C109.164 43.2187 109.089 42.8558 108.941 42.6289C108.792 42.402 108.543 42.2896 108.192 42.2896C107.84 42.2896 107.584 42.4051 107.426 42.6361C107.268 42.8671 107.19 43.2279 107.19 43.7184C107.19 44.209 107.267 44.5545 107.423 44.7947C107.578 45.0348 107.822 45.1544 108.156 45.1544C108.518 45.1544 108.776 45.0389 108.931 44.8059C109.087 44.5739 109.165 44.2111 109.165 43.7184H109.164ZM111.295 42.3499V45.5326H110.692V42.3499H110.182V41.9115H110.692V41.5026C110.692 41.1725 110.764 40.9344 110.91 40.7893C111.055 40.6441 111.277 40.5716 111.577 40.5716C111.745 40.5716 111.886 40.5848 112.003 40.6114V41.0703C111.902 41.0529 111.812 41.0437 111.735 41.0437C111.58 41.0437 111.469 41.0826 111.4 41.1613C111.33 41.239 111.296 41.381 111.296 41.5865V41.9115H112.003V42.3499H111.296H111.295ZM114.354 41.1419V40.5665H114.956V41.1419H114.354ZM114.354 45.5336V41.9115H114.956V45.5336H114.354ZM118.198 45.5336V43.2371C118.198 42.9979 118.174 42.8129 118.127 42.6811C118.08 42.5492 118.005 42.4542 117.903 42.3969C117.801 42.3387 117.649 42.3101 117.451 42.3101C117.16 42.3101 116.931 42.4092 116.764 42.6075C116.596 42.8057 116.512 43.0817 116.512 43.4343V45.5326H115.909V42.6841C115.909 42.262 115.902 42.0045 115.889 41.9104H116.459C116.461 41.9217 116.463 41.9513 116.466 42.0004C116.468 42.0494 116.471 42.1057 116.474 42.169C116.477 42.2324 116.481 42.353 116.485 42.5288H116.496C116.634 42.2794 116.794 42.1016 116.977 41.9983C117.159 41.8941 117.385 41.843 117.655 41.843C118.053 41.843 118.344 41.9421 118.528 42.1394C118.712 42.3366 118.805 42.6637 118.805 43.1185V45.5315H118.198V45.5336ZM121.96 44.951C121.848 45.183 121.7 45.3496 121.516 45.4498C121.331 45.5499 121.103 45.6 120.83 45.6C120.371 45.6 120.035 45.4457 119.82 45.1381C119.604 44.8304 119.496 44.3633 119.496 43.7389C119.496 42.4756 119.941 41.844 120.83 41.844C121.105 41.844 121.333 41.8941 121.517 41.9942C121.7 42.0944 121.847 42.2538 121.959 42.4726H121.966L121.959 42.0678V40.5654H122.562V44.7865C122.562 45.1636 122.569 45.412 122.582 45.5326H122.006C121.999 45.4968 121.991 45.414 121.984 45.2852C121.976 45.1554 121.973 45.044 121.973 44.951H121.96ZM120.13 43.7195C120.13 44.2264 120.196 44.5882 120.33 44.8069C120.465 45.0256 120.682 45.135 120.984 45.135C121.326 45.135 121.574 45.0164 121.728 44.7803C121.883 44.5442 121.96 44.1763 121.96 43.6796C121.96 43.1829 121.883 42.8487 121.728 42.6248C121.574 42.402 121.328 42.2906 120.992 42.2906C120.688 42.2906 120.469 42.4031 120.332 42.6269C120.197 42.8507 120.13 43.2156 120.13 43.7195ZM123.484 41.1419V40.5665H124.086V41.1419H123.484ZM123.484 45.5336V41.9115H124.086V45.5336H123.484ZM125.95 45.6C125.586 45.6 125.312 45.5039 125.129 45.3118C124.946 45.1197 124.854 44.857 124.854 44.5218C124.854 44.1467 124.978 43.8595 125.224 43.6581C125.471 43.4578 125.869 43.3505 126.42 43.3372L127.235 43.3239V43.1267C127.235 42.8323 127.172 42.6208 127.047 42.494C126.922 42.3673 126.726 42.3029 126.458 42.3029C126.19 42.3029 125.991 42.3489 125.868 42.4399C125.745 42.5318 125.672 42.678 125.647 42.8783L125.017 42.8211C125.119 42.17 125.604 41.844 126.471 41.844C126.926 41.844 127.27 41.9483 127.5 42.1568C127.73 42.3653 127.844 42.6668 127.844 43.0623V44.6219C127.844 44.8008 127.868 44.9347 127.915 45.0256C127.962 45.1166 128.051 45.1616 128.183 45.1616C128.242 45.1616 128.307 45.1534 128.381 45.1381V45.5131C128.229 45.5489 128.074 45.5663 127.915 45.5663C127.692 45.5663 127.529 45.508 127.427 45.3905C127.326 45.273 127.267 45.09 127.254 44.8396H127.233C127.079 45.1166 126.9 45.3118 126.695 45.4273C126.49 45.5418 126.242 45.6 125.949 45.6H125.95ZM126.087 45.1483C126.308 45.1483 126.505 45.0982 126.677 44.998C126.849 44.8979 126.985 44.7599 127.084 44.5851C127.183 44.4104 127.233 44.2295 127.233 44.0445V43.7471L126.573 43.7603C126.29 43.7644 126.075 43.7941 125.929 43.8472C125.782 43.9004 125.67 43.9831 125.592 44.0945C125.514 44.206 125.474 44.3521 125.474 44.533C125.474 44.7292 125.527 44.8815 125.634 44.9878C125.74 45.0951 125.892 45.1483 126.088 45.1483H126.087Z" fill="#999999"/>
<path d="M46.8204 29.3804H14.043V41.6337H46.8204V29.3804Z" fill="#999999"/>
<path d="M46.8204 29.3804H14.043V41.6337H46.8204V29.3804Z" stroke="#999999" stroke-width="0.53" stroke-miterlimit="7.66"/>
<path d="M46.8204 42.1475H14.043V43.7756H46.8204V42.1475Z" stroke="#999999" stroke-width="0.53" stroke-miterlimit="7.66"/>
<path fill-rule="evenodd" clip-rule="evenodd" d="M30.4743 11.3861C27.9433 11.3861 26.0551 11.9002 24.7686 13.0142C23.4812 14.0853 22.8814 15.4559 22.8384 17.1269C22.8384 18.755 23.4392 20.1685 24.7256 21.2825C25.9701 22.3966 27.9003 22.9536 30.4743 22.9536C32.9192 22.9965 34.8075 22.4395 36.0519 21.3684C37.3394 20.2544 37.9821 18.8838 37.9821 17.2557C37.9821 15.6276 37.3814 14.2141 36.1369 13.1001C34.8924 11.986 33.0052 11.429 30.4743 11.3861ZM30.5172 8.0021C34.1637 8.0021 36.8666 9.03028 38.6259 11.0866C40.0413 12.8006 40.771 14.857 40.728 17.2986C40.728 19.9978 39.8274 22.183 38.0251 23.8969C36.2229 25.568 33.7779 26.3815 30.6462 26.3815C28.0723 26.3386 26.0991 25.9533 24.6397 25.1816C23.1813 24.41 22.0657 23.297 21.2501 21.8396C20.4774 20.3831 20.0916 18.8409 20.0916 17.084C20.1345 14.3848 21.0352 12.1567 22.8374 10.4427C24.5967 8.77272 27.1706 7.95918 30.5172 8.0021Z" fill="#999999"/>
<path d="M46.8204 15.7993H14.043V28.0955H46.8204V15.7993Z" fill="#999999"/>
<path d="M46.8204 15.7993H14.043V28.0955H46.8204V15.7993Z" stroke="#999999" stroke-width="0.53" stroke-miterlimit="7.66"/>
<path fill-rule="evenodd" clip-rule="evenodd" d="M40.4699 25.9533L37.81 26.9815L37.5102 25.9533C37.4242 25.6109 37.3382 25.2675 37.2522 24.9251L36.4376 25.8245C36.1377 26.1669 35.8798 26.4244 35.6229 26.7239L32.7481 26.5951L36.5236 22.8248C36.0947 21.6679 35.6229 20.6397 35.1511 19.7403L37.5112 18.6262L38.4118 20.8972L40.5569 18.755L42.702 19.2262C41.5435 20.2973 40.385 21.4542 39.1845 22.7819L40.472 25.9523L40.4699 25.9533ZM31.4607 21.026C30.8599 21.026 30.2591 21.3684 29.6154 22.0113C29.1006 22.4824 28.7578 22.9965 28.5429 23.4677C28.4569 23.7252 28.4139 23.9388 28.4139 24.1535C28.4139 24.4529 28.5429 24.6676 28.7568 24.8393C29.0147 25.0539 29.3575 25.1816 29.7863 25.1816C30.4301 25.1816 30.9878 24.967 31.4596 24.5388C31.8885 24.1964 32.1464 23.8101 32.3173 23.3818C32.5322 22.8248 32.5752 22.3107 32.4462 21.7966C32.3173 21.2825 32.0174 21.025 31.4596 21.025L31.4607 21.026ZM32.0614 18.4556C33.2629 18.4556 34.0776 18.8409 34.5494 19.6554C34.8073 20.0837 34.9352 20.5548 34.9352 21.0689C34.9352 21.583 34.8062 22.0971 34.5924 22.6971C34.1635 23.6823 33.4768 24.5817 32.4472 25.4392C31.2457 26.4244 29.9593 26.9385 28.5858 26.9385C27.3843 26.9385 26.5697 26.5103 26.0549 25.6957C25.797 25.2675 25.712 24.8393 25.712 24.3252C25.712 23.8111 25.798 23.297 26.0549 22.6971C26.4837 21.6689 27.1704 20.8124 28.157 19.9549C29.4015 18.9267 30.688 18.4556 32.0614 18.4556ZM22.5804 20.8124C22.4514 21.027 22.3654 21.2836 22.3224 21.5411L22.0645 22.2269C22.8792 21.8845 23.437 21.5411 23.8238 21.1129C23.8668 21.027 23.9098 20.9412 23.9098 20.8983C23.9098 20.7695 23.7808 20.7265 23.481 20.7265C23.266 20.7265 22.9662 20.7695 22.5804 20.8124ZM21.6367 23.6404C21.5508 23.9399 21.4648 24.2833 21.3788 24.7544C22.9232 24.455 23.6959 24.1116 23.6959 23.7262C23.6959 23.5545 23.524 23.5116 23.1381 23.5116C22.7953 23.5116 22.2805 23.5545 21.6367 23.6404ZM19.8775 19.2701C20.2633 19.2272 20.907 19.1414 21.8936 18.9707C22.7083 18.8419 23.395 18.756 23.9098 18.756C24.0817 18.7131 24.2956 18.7131 24.4676 18.7131C25.9259 18.7131 26.6557 19.0555 26.6557 19.6984C26.6557 20.6407 25.755 21.583 23.9098 22.5264C25.0683 22.4834 25.755 22.6551 25.9259 23.1263C25.9259 23.2122 25.9689 23.3409 25.9689 23.4258C25.9689 23.9828 25.5831 24.4969 24.7674 25.0539C24.1667 25.4392 23.395 25.8255 22.4934 26.125C21.4208 26.5103 20.2193 26.7249 18.8039 26.7249C18.589 26.7249 18.3751 26.7249 18.1602 26.682C18.589 25.2685 19.0608 23.3399 19.5756 20.8553C19.7475 20.2125 19.8335 19.6554 19.8754 19.2701H19.8775Z" fill="white"/>
<path fill-rule="evenodd" clip-rule="evenodd" d="M41.1568 33.8793C40.642 35.2079 40.2992 36.4068 40.0412 37.6066C40.685 37.2213 41.2428 36.7931 41.7146 36.278C42.3153 35.6351 42.6152 35.121 42.6152 34.6928C42.6152 34.1358 42.1434 33.8793 41.1568 33.8793ZM38.8827 32.2511C40.0842 31.9936 41.1138 31.8658 41.9714 31.8658C42.915 31.8658 43.6018 31.9946 44.1165 32.337C44.8033 32.7652 45.1031 33.3222 45.1031 33.9651C45.1031 34.1797 45.0602 34.4363 44.9742 34.6938C44.5883 35.8508 43.6018 36.879 42.0994 37.7784C40.598 38.6348 38.8817 39.1489 37.0365 39.3206C37.0794 39.1489 37.1654 38.7207 37.3793 37.992L38.6238 33.4081C38.7957 32.7223 38.8817 32.337 38.8817 32.2511H38.8827ZM35.0213 33.9651C34.4636 33.9651 33.8628 34.2646 33.262 34.8645C32.7902 35.3357 32.4474 35.8068 32.2755 36.2351C32.1895 36.4926 32.1465 36.7062 32.1465 36.8779C32.1465 37.1774 32.2325 37.392 32.4464 37.5637C32.7043 37.7784 33.0041 37.8632 33.433 37.8632C34.0337 37.8632 34.5485 37.6915 35.0203 37.2632C35.4061 36.9638 35.664 36.5775 35.835 36.1492C36.0499 35.6781 36.0929 35.164 35.9639 34.6928C35.8349 34.2216 35.5351 33.9641 35.0203 33.9641L35.0213 33.9651ZM35.6221 31.4805C36.6946 31.4805 37.4673 31.8658 37.9391 32.6375C38.197 33.0657 38.282 33.5369 38.282 34.008C38.282 34.4792 38.196 34.9933 37.9821 35.5074C37.5963 36.4497 36.9096 37.3072 35.966 38.1207C34.8074 39.0631 33.564 39.5342 32.2765 39.5342C31.1609 39.5342 30.3893 39.1489 29.9165 38.3773C29.6585 37.992 29.5736 37.5637 29.5736 37.0486C29.5736 36.5775 29.6596 36.0634 29.9165 35.5063C30.3023 34.6069 30.946 33.7065 31.8896 32.9359C33.0481 31.9507 34.2916 31.4795 35.6221 31.4795V31.4805ZM27.2566 33.9651C26.6988 33.9651 26.098 34.2646 25.4973 34.8645C25.0255 35.3357 24.6826 35.8068 24.5107 36.2351C24.4247 36.4926 24.3817 36.7062 24.3817 36.8779C24.3817 37.1774 24.4677 37.392 24.6816 37.5637C24.9395 37.7784 25.2394 37.8632 25.6682 37.8632C26.2689 37.8632 26.7837 37.6915 27.2555 37.2632C27.6414 36.9638 27.8993 36.5775 28.0702 36.1492C28.2851 35.6781 28.3281 35.164 28.1991 34.6928C28.0702 34.2216 27.7703 33.9641 27.2555 33.9641L27.2566 33.9651ZM27.8143 31.4805C28.9299 31.4805 29.7015 31.8658 30.1744 32.6375C30.4323 33.0657 30.5602 33.5369 30.5602 34.008C30.5602 34.4792 30.4312 34.9933 30.2173 35.5074C29.8315 36.4497 29.1448 37.3072 28.2012 38.1207C27.0427 39.0631 25.8412 39.5342 24.5117 39.5342C23.3962 39.5342 22.6245 39.1489 22.1517 38.3773C21.8938 37.992 21.8088 37.5637 21.8088 37.0486C21.8088 36.5775 21.8948 36.0634 22.1517 35.5063C22.5375 34.6069 23.1813 33.7065 24.1249 32.9359C25.2834 31.9507 26.5268 31.4795 27.8143 31.4795V31.4805ZM19.8346 33.7515C19.7487 33.9232 19.6627 34.0939 19.6197 34.2656L19.4478 34.8226L22.1936 34.4373L22.0217 35.8508C20.9492 35.9796 19.9626 36.0654 19.019 36.2361C18.7611 37.0926 18.5472 37.993 18.4182 38.8924L15.7153 39.3206L17.5606 32.1653L22.9234 31.6512L22.7084 33.5358C21.6789 33.5788 20.7353 33.6646 19.8336 33.7505L19.8346 33.7515Z" fill="white"/>
<path fill-rule="evenodd" clip-rule="evenodd" d="M29.2298 32.6794C29.7445 33.7934 28.8009 36.0215 27.0846 37.6067C25.3254 39.2348 23.5241 39.5772 23.0093 38.4632C22.4516 37.3062 23.4382 35.0782 25.1115 33.493C26.8707 31.9078 28.672 31.5654 29.2298 32.6794Z" fill="white"/>
<path d="M29.2298 32.6794C29.7445 33.7934 28.8009 36.0215 27.0846 37.6067C25.3254 39.2348 23.5241 39.5772 23.0093 38.4632C22.4516 37.3062 23.4382 35.0782 25.1115 33.493C26.8707 31.9078 28.672 31.5654 29.2298 32.6794Z" stroke="white" stroke-width="0.53" stroke-miterlimit="7.66"/>
<path fill-rule="evenodd" clip-rule="evenodd" d="M27.2135 34.7787C27.6424 34.8216 28.2861 34.8216 28.458 34.2646C28.63 33.7076 28.2861 33.2793 28.2001 33.1076C28.0712 32.9788 27.9422 32.893 27.9003 32.893C27.8143 32.893 27.6853 32.8071 27.5144 32.8071C27.2565 32.8071 26.6568 32.8501 26.184 33.2783C25.7111 33.7065 26.055 34.1777 26.3559 34.4352C26.6558 34.6928 26.3559 34.9493 26.141 35.2069C25.969 35.4644 25.3683 36.3209 25.1114 36.5775C24.8535 36.835 24.2108 37.3062 24.0818 37.4339C23.9529 37.6056 23.782 37.9051 24.3817 38.2056H24.4677L24.5107 38.2485H24.5536C25.1974 38.548 25.4113 38.2056 25.4972 38.0339C25.5832 37.8622 25.6692 37.1774 25.7971 36.8769C25.8831 36.5345 26.3979 35.6341 26.5698 35.3776C26.6987 35.12 26.7417 34.7347 27.2135 34.7776V34.7787Z" fill="#999999"/>
<path fill-rule="evenodd" clip-rule="evenodd" d="M36.9956 32.6363C37.4674 33.7074 36.5667 35.8067 34.9364 37.306C33.3061 38.8054 31.5468 39.1907 31.075 38.0777C30.5602 37.0066 31.4609 34.9073 33.0912 33.4079C34.7215 31.9086 36.4808 31.5652 36.9956 32.6363Z" fill="white"/>
<path d="M36.9956 32.6363C37.4674 33.7074 36.5667 35.8067 34.9364 37.306C33.3061 38.8054 31.5468 39.1907 31.075 38.0777C30.5602 37.0066 31.4609 34.9073 33.0912 33.4079C34.7215 31.9086 36.4808 31.5652 36.9956 32.6363Z" stroke="white" stroke-width="0.53" stroke-miterlimit="7.66"/>
<path fill-rule="evenodd" clip-rule="evenodd" d="M32.3624 37.9919C32.4054 37.9919 32.6203 37.9919 32.8342 37.8632C33.0061 37.7773 33.0921 37.4349 33.177 37.2203C33.22 37.0057 33.392 36.4916 33.5199 36.1492C33.6918 35.8068 34.2066 34.8635 34.3345 34.6499C34.4635 34.4352 34.4635 34.4782 34.5925 34.3504C34.7214 34.2645 34.9353 34.2216 35.0643 34.008C35.2362 33.7934 35.4501 33.2364 35.622 32.7652C35.8369 32.294 35.794 32.3799 35.751 32.4228C35.708 32.5087 35.0643 33.7086 35.0213 33.7934C34.9783 33.8363 34.8493 33.8363 34.8923 33.7934C34.8923 33.7075 34.8923 33.6646 35.0213 33.4081C35.1502 33.1505 35.4931 32.3799 35.4931 32.3799C35.4501 32.3799 34.7634 33.7086 34.7204 33.7934C34.6774 33.8363 34.6344 33.8363 34.6344 33.8363C34.6344 33.7934 34.5484 33.8363 34.5914 33.7505C34.6344 33.7075 35.3641 32.3799 35.3211 32.3799C35.3211 32.3799 34.8493 33.1086 34.6774 33.3651C34.5055 33.6646 34.4625 33.7075 34.4625 33.7505C34.4195 33.7934 34.2905 33.7934 34.2905 33.7075C34.3335 33.6646 34.9773 32.4647 35.0202 32.3789C35.0632 32.336 35.1062 32.2501 34.7623 32.7213C34.4625 33.1924 34.0756 33.7065 34.0326 33.9211C33.9467 34.1787 34.0756 34.2206 34.0756 34.3494C34.1186 34.4352 34.1616 34.4352 34.0326 34.6488C33.9467 34.8635 33.4319 35.7629 33.218 36.1052C32.9601 36.4476 32.6172 36.9617 32.4453 37.1764C32.2734 37.391 32.0165 37.6904 32.0595 37.8192C32.1454 37.948 32.3174 37.9909 32.3593 37.9909L32.3624 37.9919Z" fill="#999999"/>
</g>
<defs>
<clipPath id="clip0_869_5630">
<rect width="154.103" height="37.6" fill="white" transform="translate(14 8)"/>
</clipPath>
</defs>
</svg>
