<svg width="183" height="54" viewBox="0 0 183 54" fill="none" xmlns="http://www.w3.org/2000/svg">
<mask id="mask0_869_5518" style="mask-type:alpha" maskUnits="userSpaceOnUse" x="0" y="0" width="183" height="54">
<rect width="183" height="54" fill="#D9D9D9"/>
</mask>
<g mask="url(#mask0_869_5518)">
<path d="M67.1433 9.44568C67.2781 9.4384 67.4165 9.42383 67.5513 9.42383C70.9935 9.42383 74.4393 9.42383 77.8815 9.42383C78.0163 9.42383 78.1511 9.42383 78.3113 9.42383C78.3259 9.54767 78.3441 9.63874 78.3441 9.7298C78.3441 10.4583 78.3441 11.1832 78.3441 11.9117C78.3441 12.2286 78.3295 12.2432 77.9944 12.2432C75.7288 12.2432 73.4668 12.2432 71.2011 12.2432C71.0663 12.2432 70.9352 12.2432 70.7822 12.2432V15.6854C70.9243 15.6963 71.0554 15.7109 71.1865 15.7109C73.2919 15.7109 75.4009 15.7109 77.5063 15.7109C77.6411 15.7109 77.7759 15.7254 77.9653 15.7364C77.9653 16.6361 77.9653 17.5139 77.9653 18.4428C77.3351 18.4428 76.7414 18.4501 76.1477 18.4501C75.5576 18.4501 74.9675 18.4501 74.3774 18.4501H70.7713V24.351C70.662 24.3692 70.5891 24.3911 70.5199 24.3911C69.4454 24.3911 68.3708 24.3911 67.2963 24.3911C67.2453 24.3911 67.1906 24.3801 67.1396 24.3728C67.1396 19.3971 67.1396 14.4214 67.1396 9.44568H67.1433Z" fill="#999999"/>
<path d="M100.553 12.9712C101.722 13.004 102.757 13.1533 103.711 13.656C104.636 14.1404 105.325 14.8289 105.645 15.8452C105.674 15.9362 105.696 16.0273 105.714 16.122C105.74 16.2604 105.689 16.3405 105.536 16.3551C105.212 16.3915 104.887 16.4353 104.567 16.4753C104.035 16.5372 103.5 16.5992 102.968 16.6611C102.676 16.6939 102.636 16.6866 102.563 16.4498C102.247 15.4226 101.3 15.0693 100.36 15.1859C100.087 15.2186 99.8061 15.3243 99.5584 15.4518C99.2087 15.6303 99.0593 15.9544 99.0848 16.3478C99.1103 16.7339 99.3471 16.9525 99.6895 17.08C100.276 17.2985 100.892 17.386 101.503 17.4734C102.421 17.6009 103.332 17.7757 104.192 18.1363C105.689 18.7665 106.213 19.9795 106.06 21.4693C105.933 22.7405 105.179 23.5528 104.057 24.0591C103.23 24.4306 102.359 24.5982 101.46 24.6565C100.451 24.7221 99.4564 24.6674 98.4911 24.3833C97.3838 24.0555 96.4039 23.5164 95.7956 22.4819C95.5953 22.1431 95.4787 21.7497 95.3512 21.3745C95.2747 21.1524 95.3294 21.105 95.5734 21.0795C96.4404 20.9812 97.3073 20.8792 98.1742 20.7772C98.4474 20.7444 98.4838 20.7553 98.5494 21.0249C98.7825 21.961 99.5511 22.4054 100.363 22.4819C100.797 22.522 101.23 22.522 101.646 22.3945C102.094 22.256 102.469 22.0156 102.593 21.513C102.706 21.0467 102.574 20.6934 102.148 20.4821C101.868 20.3437 101.565 20.2308 101.259 20.1689C100.527 20.0195 99.7879 19.9212 99.0557 19.7828C98.2981 19.6371 97.5695 19.3966 96.9102 18.9814C96.3165 18.6062 95.945 18.0817 95.7993 17.4005C95.6572 16.7303 95.6426 16.0637 95.894 15.4117C96.1817 14.665 96.7354 14.1587 97.4056 13.7726C98.1487 13.35 98.9574 13.1315 99.8061 13.0513C100.09 13.0222 100.371 13.004 100.549 12.9858L100.553 12.9712Z" fill="#999999"/>
<path d="M108.92 15.4702C108.435 15.4702 108.006 15.4702 107.576 15.4702C107.211 15.4702 107.211 15.4702 107.211 15.0986C107.211 14.6032 107.211 14.1079 107.211 13.6125C107.211 13.5105 107.219 13.4048 107.226 13.2519H108.898C108.905 13.0879 108.92 12.975 108.92 12.8621C108.92 12.0826 108.92 11.3031 108.92 10.5236C108.92 10.1994 108.931 10.1885 109.259 10.1885C110.166 10.1885 111.069 10.1885 111.976 10.1885C112.067 10.1885 112.162 10.203 112.293 10.214V13.2154C112.442 13.2264 112.555 13.2409 112.664 13.2446C113.192 13.2446 113.717 13.2446 114.245 13.2446C114.555 13.2446 114.569 13.2628 114.573 13.5651C114.573 14.0933 114.573 14.6178 114.573 15.146C114.573 15.4592 114.562 15.4702 114.256 15.4702C113.739 15.4702 113.225 15.4702 112.708 15.4702C112.591 15.4702 112.479 15.4702 112.326 15.4702C112.318 15.6013 112.307 15.7106 112.307 15.8235C112.307 17.51 112.304 19.1965 112.307 20.883C112.307 21.8883 112.668 21.9576 113.422 22.0049C113.702 22.0231 113.987 21.9539 114.267 21.9284C114.329 21.9211 114.391 21.9211 114.475 21.9138C114.489 22.0049 114.507 22.085 114.511 22.1652C114.511 22.8172 114.511 23.4729 114.515 24.1249C114.515 24.3288 114.449 24.4345 114.245 24.4746C113.469 24.6275 112.69 24.7405 111.896 24.6603C111.521 24.6239 111.138 24.5984 110.77 24.5183C109.703 24.2851 109.095 23.5894 108.985 22.5039C108.949 22.1287 108.927 21.7499 108.927 21.3711C108.92 19.5462 108.927 17.7249 108.927 15.9V15.4738L108.92 15.4702Z" fill="#999999"/>
<path d="M90.1058 24.3731H86.7474C86.7401 24.2565 86.7219 24.1436 86.7219 24.0343C86.7219 20.5557 86.7219 17.0807 86.7219 13.6021C86.7219 13.256 86.7292 13.2451 87.0753 13.2451C87.9058 13.2451 88.7399 13.2451 89.5704 13.2451C89.9529 13.2451 89.9674 13.2633 89.9674 13.6312C89.9674 14.0428 89.9674 14.4508 90.0257 14.8915C90.084 14.8041 90.1423 14.7167 90.2006 14.6293C90.7579 13.8097 91.5009 13.256 92.4844 13.0703C92.9397 12.9828 93.3987 12.9318 93.865 13.0302C94.0143 13.063 94.0835 13.1285 94.0835 13.2815C94.0835 14.1885 94.0835 15.0955 94.0835 15.9989C94.0835 16.1883 93.9924 16.2211 93.8212 16.2028C93.2129 16.1373 92.6046 16.1118 92 16.232C90.9327 16.4396 90.2953 17.1244 90.1678 18.2063C90.1313 18.5195 90.1095 18.8364 90.1095 19.1497C90.1022 20.7524 90.1095 22.3515 90.1095 23.9542C90.1095 24.078 90.1095 24.2055 90.1095 24.3731H90.1058Z" fill="#999999"/>
<path d="M80.5148 24.3551C80.5038 24.2203 80.4893 24.0965 80.4893 23.9726C80.4893 20.5377 80.4893 17.1028 80.4893 13.6679C80.4893 13.595 80.4893 13.5222 80.4929 13.4457C80.5002 13.3218 80.5621 13.2526 80.6896 13.2453C80.7406 13.2453 80.7952 13.2417 80.8462 13.2417C81.7423 13.2417 82.6384 13.2417 83.5308 13.2417C83.8732 13.2417 83.8987 13.2672 83.8987 13.595C83.8987 17.0809 83.8987 20.5705 83.8987 24.0564C83.8987 24.1475 83.8841 24.2422 83.8768 24.326C83.6328 24.4025 80.9774 24.4243 80.5148 24.3515V24.3551Z" fill="#999999"/>
<path d="M82.1943 11.8606C81.7317 11.8606 81.2691 11.8606 80.8065 11.8606C80.5224 11.8606 80.4932 11.8315 80.4896 11.5547C80.4823 10.8589 80.4823 10.1669 80.4896 9.47113C80.4896 9.23072 80.5297 9.19065 80.7664 9.19065C81.7244 9.18701 82.6788 9.19065 83.6368 9.18701C83.8225 9.18701 83.9027 9.25986 83.9027 9.44928C83.899 10.1632 83.9027 10.8808 83.899 11.5947C83.899 11.8351 83.8662 11.857 83.6149 11.8606C83.1414 11.8643 82.6678 11.8606 82.1943 11.8606Z" fill="#999999"/>
<path d="M79.8121 34.0292C79.6846 34.0547 79.5826 34.0874 79.4843 34.0947C78.7084 34.1457 77.9289 34.1894 77.153 34.2404C76.9636 34.2514 76.7742 34.2732 76.5884 34.2914C76.4282 34.306 76.3407 34.255 76.3043 34.0802C76.0603 32.8963 75.1751 32.2516 74.0386 32.1314C73.525 32.0768 73.0297 32.0986 72.5379 32.2225C72.1555 32.3172 71.8131 32.4993 71.5362 32.7943C71.2703 33.0785 71.1392 33.4136 71.161 33.7997C71.1829 34.1931 71.3359 34.5282 71.7001 34.703C72.068 34.8815 72.4505 35.0418 72.8439 35.1474C74.0132 35.4607 75.1933 35.7302 76.359 36.0435C76.8871 36.1856 77.408 36.364 77.907 36.5789C79.2147 37.1435 79.9979 38.1343 80.2018 39.5586C80.2965 40.2106 80.3002 40.8626 80.1691 41.5073C79.9177 42.713 79.1965 43.5617 78.1329 44.1409C77.2514 44.6217 76.308 44.8803 75.3135 45.0005C74.0241 45.1535 72.7492 45.1098 71.4925 44.7893C70.4034 44.5124 69.4199 44.0207 68.604 43.2339C67.7844 42.4435 67.3436 41.4563 67.1579 40.349C67.1142 40.0867 67.1542 40.0467 67.4311 40.0175C68.3818 39.9192 69.3325 39.8135 70.2868 39.7188C70.4107 39.7079 70.5345 39.7188 70.6729 39.7188C70.7057 39.8682 70.7421 39.9993 70.764 40.1304C70.9498 41.1831 71.5945 41.8351 72.5853 42.152C73.4158 42.418 74.2608 42.4471 75.1059 42.2249C75.339 42.163 75.5685 42.0719 75.7761 41.9517C76.5848 41.4818 76.6431 40.9282 76.552 40.2434C76.501 39.85 76.257 39.5586 75.9 39.4019C75.4775 39.2162 75.044 39.045 74.6032 38.9175C73.2992 38.5423 71.9806 38.2145 70.6839 37.8211C70.1848 37.6717 69.6931 37.4459 69.2523 37.1727C68.2834 36.568 67.7516 35.6792 67.6387 34.5246C67.5586 33.7086 67.6314 32.9255 67.9738 32.1788C68.4619 31.1115 69.3252 30.4522 70.3779 30.0078C71.212 29.6581 72.0862 29.5051 72.986 29.4396C73.9949 29.3631 74.9894 29.4396 75.9546 29.72C78.0272 30.3211 79.3313 31.6652 79.7902 33.7924C79.8048 33.8543 79.8048 33.9162 79.8194 34.0219L79.8121 34.0292Z" fill="#999999"/>
<path d="M81.9502 39.1725C81.9684 38.4039 82.0704 37.6535 82.3144 36.9287C82.8608 35.3004 83.9463 34.1967 85.5782 33.6649C86.9732 33.2096 88.4011 33.1914 89.8071 33.5957C91.8761 34.1931 93.0891 35.6064 93.5225 37.6899C93.7593 38.8374 93.7302 39.9957 93.4169 41.1285C92.9215 42.9316 91.7814 44.1518 89.9966 44.7055C88.5031 45.1717 86.9769 45.1681 85.4944 44.6581C83.6221 44.0134 82.5293 42.6511 82.1323 40.7315C82.0267 40.2215 82.0085 39.6897 81.9465 39.1688L81.9502 39.1725ZM85.4434 39.2089C85.4252 39.7371 85.4798 40.2907 85.6401 40.8298C86.0262 42.1084 87.0279 42.7312 88.4339 42.4325C89.2462 42.2613 89.7197 41.7004 89.9601 40.9427C90.3025 39.8646 90.3098 38.7645 90.033 37.6717C89.7088 36.3859 88.8819 35.7885 87.5633 35.8687C86.6818 35.9233 86.1063 36.4151 85.7603 37.1982C85.4834 37.8284 85.4215 38.495 85.4361 39.2089H85.4434Z" fill="#999999"/>
<path d="M129.62 39.1873C129.635 38.3859 129.744 37.6064 130.006 36.8524C130.56 35.2824 131.62 34.2079 133.205 33.6797C134.643 33.2026 136.104 33.1843 137.554 33.6214C139.594 34.2334 140.774 35.6503 141.196 37.7084C141.429 38.8376 141.4 39.9704 141.098 41.0887C140.588 42.9864 139.386 44.2285 137.499 44.7604C136.071 45.1647 134.622 45.1538 133.208 44.6766C131.318 44.0391 130.21 42.6805 129.802 40.7499C129.693 40.24 129.675 39.7081 129.617 39.1873H129.62ZM133.11 39.2164C133.092 39.7373 133.15 40.28 133.303 40.8082C133.62 41.901 134.374 42.4765 135.456 42.5056C136.709 42.5384 137.412 41.7589 137.659 40.8483C137.754 40.5059 137.809 40.1489 137.849 39.7956C137.944 39.0015 137.885 38.2183 137.641 37.4534C137.372 36.6047 136.716 35.8033 135.383 35.858C134.432 35.898 133.798 36.3606 133.43 37.2057C133.157 37.8359 133.092 38.5061 133.106 39.2128L133.11 39.2164Z" fill="#999999"/>
<path d="M112.894 44.7199H109.688C109.605 44.2609 109.688 43.7983 109.63 43.2993C109.546 43.3904 109.492 43.445 109.441 43.5069C108.676 44.4139 107.707 44.9057 106.519 45.004C105.933 45.0514 105.361 45.0186 104.804 44.8547C103.318 44.4212 102.476 43.4049 102.239 41.886C102.188 41.5545 102.17 41.2158 102.17 40.8807C102.163 38.5931 102.17 36.3056 102.17 34.0217C102.17 33.8979 102.17 33.7741 102.17 33.6247C102.309 33.6101 102.411 33.5919 102.513 33.5919C103.409 33.5919 104.305 33.5919 105.197 33.5919C105.543 33.5919 105.551 33.6029 105.551 33.9489C105.551 35.9705 105.551 37.9958 105.551 40.0174C105.551 40.3124 105.572 40.6075 105.62 40.8952C105.754 41.7622 106.315 42.2539 107.19 42.2976C108.352 42.3523 109.219 41.6747 109.43 40.5164C109.492 40.1886 109.506 39.8462 109.506 39.5111C109.514 37.708 109.506 35.9086 109.506 34.1055C109.506 34.0217 109.51 33.938 109.506 33.8542C109.495 33.6611 109.594 33.5883 109.776 33.5919C109.987 33.5919 110.198 33.5919 110.406 33.5919C111.113 33.5919 111.816 33.5919 112.522 33.5919C112.883 33.5919 112.887 33.5992 112.887 33.9708C112.887 37.4385 112.887 40.9062 112.887 44.3702V44.7236L112.894 44.7199Z" fill="#999999"/>
<path d="M154.291 44.7201H150.951C150.94 44.5671 150.926 44.436 150.926 44.3012C150.926 42.3306 150.926 40.36 150.922 38.3857C150.922 38.0506 150.9 37.7119 150.845 37.3804C150.714 36.59 150.135 36.1237 149.337 36.0618C147.957 35.9525 147.166 36.9214 147.028 37.9851C146.992 38.2655 146.97 38.5496 146.966 38.8338C146.962 40.6478 146.966 42.4617 146.966 44.2721V44.6655C146.707 44.7529 144.005 44.7711 143.611 44.6946V33.6213C143.728 33.6104 143.841 33.5885 143.954 33.5885C144.788 33.5885 145.618 33.5885 146.453 33.5885C146.813 33.5885 146.831 33.6104 146.835 33.96C146.835 34.3134 146.835 34.6667 146.835 35.0819C147.021 34.878 147.156 34.7213 147.301 34.572C148.307 33.5521 149.549 33.2206 150.94 33.359C151.567 33.4209 152.157 33.5994 152.692 33.9418C153.585 34.5137 154.065 35.3478 154.237 36.3714C154.295 36.7211 154.313 37.0853 154.313 37.4387C154.32 39.748 154.317 42.0574 154.313 44.3632C154.313 44.4688 154.306 44.5708 154.299 44.7128L154.291 44.7201Z" fill="#999999"/>
<path d="M161.449 33.3154C162.768 33.3518 163.926 33.5485 164.971 34.2042C165.769 34.7068 166.33 35.3916 166.581 36.3132C166.669 36.6374 166.65 36.6665 166.312 36.7066C165.488 36.8086 164.662 36.9069 163.838 37.0089C163.653 37.0308 163.525 37.0126 163.46 36.7904C163.157 35.7595 162.203 35.4099 161.263 35.5264C160.997 35.5592 160.731 35.6539 160.491 35.7741C160.127 35.9562 159.966 36.2804 159.996 36.6884C160.021 37.0745 160.254 37.3185 160.604 37.4096C161.194 37.5626 161.788 37.7047 162.389 37.7994C163.314 37.9487 164.239 38.1053 165.11 38.4732C166.603 39.1034 167.128 40.3127 166.975 41.8098C166.844 43.0811 166.093 43.8897 164.968 44.396C164.141 44.7676 163.27 44.9351 162.367 44.9934C161.358 45.059 160.367 45.0043 159.398 44.7166C158.324 44.3997 157.38 43.8679 156.746 42.8989C156.513 42.542 156.357 42.1522 156.266 41.737C156.207 41.4747 156.233 41.4419 156.488 41.4128C157.355 41.3144 158.222 41.2124 159.089 41.1104C159.358 41.0777 159.395 41.0922 159.46 41.3618C159.693 42.2906 160.458 42.7387 161.278 42.8152C161.711 42.8552 162.145 42.8552 162.56 42.7241C163.008 42.582 163.383 42.3453 163.503 41.839C163.616 41.3727 163.485 41.023 163.055 40.8081C162.775 40.6697 162.472 40.5568 162.166 40.4949C161.434 40.3455 160.695 40.2472 159.963 40.1087C159.205 39.963 158.477 39.7226 157.817 39.3037C157.224 38.9286 156.852 38.404 156.706 37.7192C156.568 37.0599 156.55 36.4043 156.79 35.7595C157.078 34.9873 157.65 34.4701 158.342 34.0767C159.078 33.6614 159.879 33.4538 160.717 33.37C161.001 33.3445 161.281 33.3227 161.456 33.3081L161.449 33.3154Z" fill="#999999"/>
<path d="M116.336 35.8178C115.848 35.8178 115.418 35.8178 114.988 35.8178C114.631 35.8178 114.627 35.8141 114.627 35.4717C114.627 34.9545 114.627 34.4372 114.627 33.9236C114.627 33.6067 114.642 33.5922 114.973 33.5922C115.312 33.5922 115.647 33.5922 115.986 33.5922C116.088 33.5922 116.19 33.5776 116.336 33.5703V30.5688H119.712V33.5703C119.862 33.5812 119.975 33.5958 120.088 33.5958C120.616 33.5958 121.14 33.5958 121.668 33.5958C121.974 33.5958 121.989 33.614 121.989 33.92C121.989 34.4591 121.993 34.9945 121.989 35.5336C121.989 35.8032 121.971 35.8214 121.698 35.8214C121.169 35.825 120.645 35.8214 120.117 35.8214C120.004 35.8214 119.887 35.8214 119.738 35.8214C119.731 35.9562 119.72 36.0691 119.72 36.1784C119.72 37.8649 119.716 39.5514 119.72 41.2379C119.72 42.2359 120.077 42.3088 120.838 42.3525C121.118 42.3671 121.403 42.3015 121.683 42.2724C121.745 42.2651 121.803 42.2651 121.887 42.2614C121.898 42.3525 121.92 42.4363 121.92 42.5164C121.92 43.1684 121.916 43.8241 121.923 44.4761C121.923 44.6801 121.851 44.7821 121.647 44.8221C120.871 44.9751 120.091 45.088 119.297 45.0079C118.922 44.9715 118.54 44.946 118.172 44.8658C117.13 44.64 116.525 43.9661 116.394 42.9098C116.35 42.5674 116.329 42.2177 116.329 41.8717C116.321 39.9958 116.329 38.1199 116.329 36.2439V35.8214L116.336 35.8178Z" fill="#999999"/>
<path d="M99.2671 44.7165H95.9305C95.9233 44.5854 95.9087 44.4725 95.9087 44.3596C95.9087 39.5441 95.9087 34.7323 95.9087 29.9169C95.9087 29.5344 95.9087 29.5344 96.2984 29.5308C97.1836 29.5308 98.0687 29.5308 98.9502 29.5308C99.2744 29.5308 99.2926 29.5453 99.2926 29.8695C99.2926 34.7141 99.2926 39.5623 99.2926 44.4069C99.2926 44.498 99.278 44.5927 99.2671 44.7165Z" fill="#999999"/>
<path d="M124.102 44.738C124.087 44.5813 124.069 44.4575 124.069 44.3336C124.069 40.8878 124.069 37.4419 124.069 33.9961C124.069 33.5954 124.08 33.5845 124.473 33.5845C125.336 33.5845 126.2 33.5845 127.063 33.5845C127.467 33.5845 127.478 33.5954 127.478 33.9852C127.478 37.4419 127.478 40.8987 127.478 44.3518C127.478 44.7307 127.478 44.7343 127.089 44.7343C126.203 44.7343 125.318 44.7343 124.433 44.7343H124.098L124.102 44.738Z" fill="#999999"/>
<path d="M125.734 32.2076C125.282 32.2076 124.83 32.2076 124.379 32.2076C124.102 32.2076 124.069 32.1784 124.069 31.898C124.062 31.2132 124.066 30.532 124.069 29.8472C124.069 29.5704 124.106 29.5412 124.382 29.5376C125.319 29.5376 126.255 29.5376 127.191 29.5376C127.453 29.5376 127.479 29.5667 127.479 29.8326C127.482 30.5284 127.482 31.2205 127.479 31.9162C127.479 32.1821 127.453 32.2039 127.187 32.2076C126.703 32.2112 126.218 32.2076 125.737 32.2076H125.734Z" fill="#999999"/>
<path d="M53.99 28.15C53.5092 32.8052 51.7426 36.4805 48.7265 39.533C45.2042 43.0918 40.8914 44.9385 35.8829 45.0587C33.0417 45.128 30.1969 45.0697 27.2246 45.0697V38.422C27.8657 38.3747 28.5177 38.2945 29.1697 38.2872C31.3443 38.2727 33.5189 38.3346 35.6899 38.28C38.5056 38.2071 41.0298 37.311 43.5468 35.0854C41.4269 34.9033 39.6857 35.0162 37.9555 34.998C36.218 34.9798 34.4769 34.9944 32.7394 34.9944C30.9509 34.9944 29.1624 34.9944 27.1845 34.9944V25.0612H23.8443C23.6731 31.6323 23.8625 38.1925 23.7423 44.913H17.1238C17.0874 44.3011 17.0218 43.7001 17.0182 43.0991C17.0073 37.6316 16.9854 32.1678 17.0145 26.7003C17.0728 16.3373 25.0063 8.23623 35.362 8.0541C41.0736 7.95211 46.7887 8.02496 52.5039 8.0286C52.9264 8.0286 53.3526 8.09781 53.9172 8.1488V14.8256C53.1595 14.8256 52.4929 14.8256 51.83 14.8256C46.4245 14.8256 41.0226 14.8547 35.617 14.822C33.3696 14.8074 31.3297 15.4266 29.4283 16.5594C28.8783 16.8873 28.4084 17.339 27.8985 17.736C27.9495 17.8708 28.0041 18.0019 28.0551 18.1367H53.9427V24.9082C53.1814 24.9082 52.4638 24.9082 51.7462 24.9082C46.7159 24.9082 41.6819 24.9774 36.6515 24.8681C34.4623 24.8207 33.4533 25.8479 34.1199 28.15H53.9827H53.99Z" fill="#999999"/>
</g>
</svg>
