<svg width="183" height="54" viewBox="0 0 183 54" fill="none" xmlns="http://www.w3.org/2000/svg">
<mask id="mask0_869_5726" style="mask-type:alpha" maskUnits="userSpaceOnUse" x="0" y="0" width="183" height="54">
<rect width="183" height="54" fill="#D9D9D9"/>
</mask>
<g mask="url(#mask0_869_5726)">
<path d="M53.7529 26.8843C55.8287 30.2469 57.8401 33.5078 59.8541 36.7675C61.002 38.6245 62.1666 40.4725 63.3042 42.3372C64.4624 44.2379 63.7443 45.5698 61.4845 45.5801C54.9304 45.6123 48.3776 45.5801 41.8235 45.602C40.6924 45.6058 39.937 45.1426 39.3579 44.2031C36.0429 38.8278 32.7201 33.4577 29.3678 28.1055C28.7668 27.1455 28.9689 26.3283 29.4965 25.4713C31.2569 22.6054 33.0084 19.733 34.7714 16.8684C36.1947 14.5559 37.6695 12.2755 39.0413 9.93342C39.8404 8.56804 40.8674 7.97993 42.4953 8.00052C48.5758 8.07773 54.6576 8.03141 60.7394 8.03269C61.0933 8.03269 61.4472 8.04041 61.8024 8.05328C63.4187 8.10991 64.4071 9.64773 63.411 11.1971C60.8578 15.1685 58.423 19.2144 55.9484 23.2347C55.211 24.434 54.4968 25.6476 53.7555 26.8843H53.7529ZM41.1749 40.4622C47.1795 30.7449 52.9872 21.3455 58.9108 11.7595C58.3059 11.681 57.9778 11.6025 57.6483 11.6025C52.9255 11.5948 48.2039 11.627 43.481 11.5742C42.4335 11.5626 41.8621 12.0182 41.3667 12.8366C39.807 15.4104 38.2074 17.9584 36.6335 20.5232C35.3428 22.6272 34.0675 24.739 32.7716 26.8714C35.5268 31.3279 38.219 35.6827 41.1737 40.4622H41.1749ZM58.9005 41.9292C56.4412 37.9437 54.1403 34.2143 51.654 30.1864C49.1652 34.2311 46.8707 37.9618 44.4295 41.9292H58.9005Z" fill="#999999"/>
<path d="M118.074 12.5908H119.296V15.6119H122.453V12.5919H123.674V19.9908H122.456V16.7996H119.296C119.296 17.1519 119.296 17.5063 119.296 17.8597C119.296 18.2153 119.296 18.5697 119.296 18.9253V19.993H118.074V12.5908Z" fill="#999999"/>
<path d="M141.669 19.9919H140.526V19.2732C140.526 19.2732 140.516 19.2699 140.511 19.2677C140.488 19.2961 140.464 19.3245 140.441 19.3528C140.072 19.7978 139.594 20.0432 139.022 20.113C138.438 20.185 137.887 20.0814 137.381 19.7771C136.718 19.3768 136.301 18.79 136.121 18.0408C135.954 17.3471 136.023 16.6709 136.348 16.034C136.736 15.2738 137.346 14.7808 138.189 14.6129C138.809 14.4896 139.405 14.5703 139.954 14.9084C140.148 15.0284 140.314 15.18 140.459 15.3556C140.476 15.3763 140.494 15.396 140.526 15.4134V12.5908H141.671V19.9919H141.669ZM140.523 17.2871C140.513 17.2162 140.507 17.081 140.477 16.9501C140.357 16.4201 140.055 16.0307 139.556 15.8071C139.252 15.6719 138.932 15.6326 138.604 15.6839C137.977 15.781 137.54 16.1191 137.307 16.7113C137.188 17.0123 137.165 17.3275 137.216 17.6449C137.295 18.1313 137.531 18.5217 137.955 18.7846C138.305 19.0027 138.689 19.0692 139.094 19.018C139.479 18.9689 139.81 18.8097 140.077 18.525C140.386 18.1945 140.515 17.7954 140.523 17.2871Z" fill="#999999"/>
<path d="M147.185 15.4119V14.7073H148.328V19.9915H147.19V19.2749C147.19 19.2749 147.18 19.2705 147.175 19.2673C147.16 19.2836 147.144 19.3 147.13 19.3174C146.762 19.7799 146.278 20.0362 145.696 20.1125C144.276 20.2968 143.108 19.348 142.798 18.1014C142.547 17.0903 142.751 16.172 143.457 15.3911C143.854 14.9516 144.356 14.6822 144.941 14.596C145.581 14.5012 146.187 14.6004 146.726 14.9854C146.872 15.0901 147 15.2144 147.115 15.353C147.132 15.3737 147.15 15.3944 147.167 15.4162C147.174 15.4162 147.179 15.414 147.186 15.4129L147.185 15.4119ZM147.185 17.2856C147.175 17.2103 147.167 17.0751 147.138 16.9442C147.017 16.4142 146.714 16.0259 146.213 15.8045C145.909 15.6703 145.589 15.6333 145.26 15.6834C144.701 15.7685 144.282 16.0553 144.031 16.5636C143.824 16.9813 143.799 17.4219 143.927 17.8658C144.059 18.326 144.344 18.6663 144.779 18.8736C145.088 19.0197 145.413 19.0601 145.753 19.0186C146.081 18.9783 146.374 18.855 146.623 18.6369C147.011 18.2955 147.176 17.8538 147.185 17.2867V17.2856Z" fill="#999999"/>
<path d="M127.591 14.5586C128.223 14.5684 128.796 14.7495 129.298 15.1345C129.877 15.5783 130.225 16.1651 130.341 16.8838C130.447 17.5448 130.347 18.1752 130.007 18.7543C129.566 19.5036 128.91 19.9529 128.052 20.0947C127.316 20.2168 126.626 20.0772 126.005 19.6563C125.355 19.2167 124.954 18.6038 124.83 17.8283C124.671 16.8435 124.946 15.9906 125.674 15.3013C126.11 14.8869 126.639 14.6557 127.238 14.5859C127.356 14.5717 127.473 14.5673 127.591 14.5586ZM125.944 17.3517C125.944 17.3954 125.942 17.4401 125.944 17.4837C125.946 17.5273 125.953 17.5709 125.959 17.6146C126.034 18.1043 126.269 18.4925 126.688 18.7598C127.03 18.979 127.409 19.0531 127.81 18.9975C128.37 18.919 128.789 18.6332 129.045 18.1272C129.226 17.7716 129.268 17.3932 129.191 17.0027C129.101 16.5425 128.863 16.1782 128.461 15.9295C128.114 15.7147 127.733 15.6449 127.329 15.7027C127.014 15.7474 126.732 15.8706 126.493 16.0833C126.113 16.4203 125.945 16.85 125.943 17.3506L125.944 17.3517Z" fill="#999999"/>
<path d="M149.042 14.7019H149.133C149.494 14.7019 149.855 14.7041 150.214 14.6997C150.283 14.6997 150.309 14.7248 150.333 14.7826C150.828 15.9943 151.326 17.2049 151.823 18.4166C151.834 18.445 151.847 18.4722 151.868 18.518C151.885 18.4755 151.898 18.4472 151.908 18.4188C152.263 17.4132 152.618 16.4066 152.973 15.401C153.047 15.1905 153.122 14.9811 153.194 14.7706C153.21 14.7226 153.231 14.6997 153.287 14.7008C153.65 14.703 154.014 14.7019 154.377 14.7019C154.396 14.7019 154.415 14.7052 154.441 14.7084C154.432 14.7368 154.425 14.7597 154.418 14.7826C153.751 16.5734 153.085 18.3654 152.419 20.1562C152.282 20.5216 152.112 20.8684 151.875 21.1814C151.502 21.6755 151.02 21.9928 150.405 22.091C150.218 22.1204 150.028 22.1335 149.823 22.1095C149.821 21.7551 149.823 21.4017 149.822 21.0363C149.87 21.0363 149.907 21.0363 149.944 21.0363C150.346 21.0407 150.679 20.8946 150.928 20.5717C151.038 20.4289 151.121 20.2707 151.189 20.1049C151.204 20.0722 151.211 20.0351 151.231 20.0068C151.282 19.9315 151.269 19.8639 151.235 19.7832C150.517 18.1254 149.801 16.4655 149.086 14.8066C149.073 14.7771 149.062 14.7466 149.043 14.7019H149.042Z" fill="#999999"/>
<path d="M132.559 19.9928H131.416V12.2754H132.559V19.9928Z" fill="#999999"/>
<path d="M135.021 19.9928H133.878V14.7075H135.021V19.9928Z" fill="#999999"/>
<path d="M133.716 13.1714C133.721 12.7646 134.056 12.4418 134.46 12.4483C134.881 12.4549 135.198 12.817 135.182 13.2118C135.166 13.5892 134.832 13.9294 134.424 13.9163C134.035 13.9043 133.709 13.5673 133.716 13.1714Z" fill="#999999"/>
<path d="M71.044 20.488C71.2409 20.4841 71.4391 20.479 71.636 20.4777C72.2588 20.4764 72.8817 20.4777 73.5045 20.4777C73.5702 20.4777 73.6345 20.4777 73.7323 20.4777C73.7478 20.9615 73.7375 21.4313 73.74 21.901C73.7413 22.3745 73.74 22.8468 73.74 23.3204V27.6366C73.8018 27.5761 73.8404 27.544 73.8726 27.5066C75.6768 25.3768 77.481 23.247 79.2852 21.1173C79.4358 20.9384 79.5889 20.7621 79.7369 20.5819C79.7935 20.5137 79.854 20.4751 79.9492 20.4751C80.9196 20.4777 81.8899 20.4764 82.8602 20.4777C82.8936 20.4777 82.9271 20.4867 83.0004 20.497C80.8269 23.1171 78.6714 25.714 76.4978 28.3328C78.7383 31.0777 80.9762 33.8214 83.2385 36.5946C83.1369 36.5985 83.0802 36.6036 83.0223 36.6036C82.0932 36.6036 81.1654 36.601 80.2362 36.6075C80.1011 36.6075 80.0175 36.5611 79.9338 36.4608C78.3381 34.5304 76.7398 32.604 75.1427 30.6762C74.7181 30.164 74.2947 29.6519 73.8713 29.1397C73.8417 29.1037 73.816 29.065 73.7876 29.0264C73.7709 29.0329 73.7555 29.0406 73.7387 29.047V36.583C73.6731 36.592 73.6332 36.6036 73.5933 36.6036C72.7787 36.6036 71.9641 36.6036 71.1495 36.6036C71.1135 36.6036 71.0775 36.5972 71.0427 36.5946C71.0427 31.2257 71.0427 25.8568 71.0427 20.488H71.044Z" fill="#999999"/>
<path d="M110.42 24.3719H112.917C112.947 24.8854 112.916 26.1169 112.935 26.6484C112.969 26.6239 112.989 26.6136 113.001 26.5969C113.815 25.5558 114.889 24.9819 116.192 24.8249C117.776 24.6344 119.198 25.0333 120.438 26.0345C121.555 26.9379 122.256 28.1103 122.534 29.5169C122.925 31.4909 122.526 33.2913 121.244 34.86C120.349 35.9551 119.183 36.6217 117.784 36.8392C116.703 37.0078 115.648 36.892 114.645 36.4223C114.033 36.1366 113.515 35.7274 113.083 35.2087C113.044 35.1624 113.006 35.1174 112.967 35.0723C112.963 35.0685 112.957 35.0685 112.927 35.0556V41.1902H110.419V24.3706L110.42 24.3719ZM120.189 30.8539C120.138 30.5116 120.116 30.1629 120.028 29.8309C119.717 28.6495 118.989 27.8297 117.837 27.4025C117.231 27.1773 116.601 27.1258 115.963 27.2223C115.037 27.3639 114.258 27.7757 113.687 28.5272C112.945 29.5014 112.77 30.603 113.038 31.7766C113.297 32.9117 113.968 33.7327 115.038 34.2011C115.801 34.5357 116.598 34.5885 117.411 34.407C118.095 34.2552 118.687 33.9322 119.17 33.4225C119.851 32.7045 120.148 31.8358 120.189 30.8526V30.8539Z" fill="#999999"/>
<path d="M85.7339 31.922C85.7944 32.2733 85.9166 32.577 86.0749 32.8653C86.4842 33.6091 87.1019 34.1058 87.9049 34.3645C88.8984 34.6849 89.8931 34.7017 90.8763 34.3207C91.4361 34.1046 91.9032 33.7584 92.2674 33.2784C92.2893 33.2501 92.3125 33.223 92.3523 33.1754C93.0331 33.5731 93.7126 33.9694 94.4075 34.3748C94.3728 34.4327 94.3483 34.479 94.3187 34.5202C93.4565 35.717 92.2944 36.4557 90.8557 36.7517C89.4131 37.0477 87.9924 36.9614 86.6296 36.3836C84.7739 35.5961 83.6453 34.1843 83.2283 32.2206C82.9208 30.7715 83.0636 29.356 83.7264 28.0215C84.5513 26.3614 85.8986 25.3525 87.699 24.9381C88.3759 24.7824 89.0631 24.7335 89.7503 24.8055C91.5159 24.9896 92.9121 25.8119 93.9095 27.2854C94.4976 28.1553 94.8193 29.123 94.9261 30.168C94.9815 30.7072 94.966 31.2425 94.8888 31.7792C94.8734 31.8847 94.8347 31.9297 94.7305 31.9246C94.6765 31.922 94.6224 31.9246 94.5684 31.9246C91.705 31.9246 88.8404 31.9246 85.9771 31.9246C85.9012 31.9246 85.824 31.9246 85.7313 31.9246L85.7339 31.922ZM85.7146 29.8501H92.427C92.3742 29.6494 92.3369 29.4628 92.2764 29.2826C91.9418 28.284 91.2984 27.5826 90.2895 27.2416C89.6859 27.037 89.0644 27.0113 88.4454 27.1219C87.0298 27.3742 86.1534 28.2286 85.7596 29.5979C85.7378 29.6751 85.73 29.7575 85.7133 29.8514L85.7146 29.8501Z" fill="#999999"/>
<path d="M99.0353 31.9218C99.1228 32.3761 99.2927 32.7686 99.5372 33.1276C100.039 33.8624 100.749 34.2884 101.605 34.4788C102.471 34.6706 103.328 34.6539 104.164 34.327C104.729 34.1056 105.202 33.762 105.57 33.2756C105.592 33.2473 105.615 33.2215 105.654 33.1739C106.336 33.5716 107.015 33.9692 107.728 34.3849C107.552 34.6062 107.4 34.8186 107.225 35.0116C106.387 35.9433 105.344 36.5185 104.12 36.7592C102.688 37.041 101.278 36.9548 99.9284 36.3808C98.074 35.5907 96.9454 34.179 96.5298 32.2165C96.2222 30.7675 96.3663 29.3519 97.0291 28.0187C97.8553 26.3586 99.2026 25.351 101.003 24.9366C101.68 24.7809 102.367 24.7333 103.054 24.8053C104.819 24.9894 106.216 25.813 107.212 27.2877C107.8 28.1577 108.122 29.1267 108.228 30.1703C108.283 30.7108 108.266 31.2449 108.19 31.7815C108.175 31.8896 108.132 31.9295 108.029 31.9244C107.975 31.9218 107.921 31.9244 107.867 31.9244C105.004 31.9244 102.139 31.9244 99.276 31.9244C99.2 31.9244 99.1241 31.9244 99.0315 31.9244L99.0353 31.9218ZM105.721 29.8499C105.598 29.1769 105.351 28.5772 104.892 28.0779C104.288 27.4216 103.525 27.1127 102.645 27.0715C102.027 27.0432 101.426 27.1243 100.861 27.3881C99.8937 27.8385 99.3275 28.6171 99.0572 29.6299C99.0392 29.6968 99.0315 29.7663 99.0173 29.8499H105.721Z" fill="#999999"/>
<path d="M126.899 31.922C126.959 32.2733 127.08 32.5783 127.24 32.8666C127.73 33.7507 128.496 34.2603 129.467 34.4777C130.333 34.6721 131.19 34.6541 132.026 34.3272C132.591 34.1058 133.065 33.7622 133.432 33.2771C133.446 33.2578 133.462 33.2385 133.477 33.2218C133.485 33.2127 133.495 33.2076 133.529 33.1819C134.198 33.5731 134.879 33.9694 135.572 34.3748C135.536 34.434 135.513 34.479 135.482 34.5215C134.62 35.7183 133.458 36.457 132.019 36.7517C130.577 37.0477 129.155 36.9601 127.793 36.3823C125.937 35.5948 124.81 34.1818 124.393 32.2193C124.086 30.7702 124.228 29.3547 124.892 28.0215C125.717 26.3614 127.066 25.3525 128.866 24.9381C129.543 24.7824 130.23 24.7335 130.918 24.8055C132.683 24.9896 134.079 25.8119 135.076 27.2866C135.664 28.1566 135.985 29.1256 136.092 30.1693C136.147 30.7085 136.131 31.2438 136.055 31.7804C136.039 31.8873 135.999 31.9297 135.895 31.9246C135.841 31.922 135.787 31.9246 135.733 31.9246C132.87 31.9246 130.005 31.9246 127.142 31.9246C127.066 31.9246 126.989 31.9246 126.899 31.9246V31.922ZM126.878 29.8501H133.59C133.538 29.6494 133.5 29.4628 133.44 29.2826C133.105 28.284 132.462 27.5839 131.453 27.2416C130.849 27.037 130.228 27.0113 129.609 27.1219C128.193 27.3742 127.317 28.2286 126.923 29.5979C126.901 29.6751 126.894 29.7575 126.877 29.8501H126.878Z" fill="#999999"/>
<path d="M153.891 27.2015C153.199 27.5901 152.511 27.9762 151.807 28.3713C151.771 28.3133 151.74 28.2657 151.711 28.2155C151.3 27.4846 150.661 27.1243 149.836 27.0741C149.463 27.0509 149.094 27.0754 148.743 27.2195C148.387 27.3649 148.108 27.5888 148.014 27.9788C147.923 28.3558 147.996 28.6904 148.3 28.9568C148.511 29.1421 148.753 29.2746 149.015 29.3596C149.642 29.5603 150.274 29.7444 150.902 29.9361C151.509 30.1227 152.11 30.3235 152.657 30.6568C153.258 31.0222 153.731 31.501 153.965 32.1779C154.463 33.6114 154.068 35.3475 152.462 36.2406C151.83 36.5919 151.15 36.7836 150.434 36.8595C149.53 36.9548 148.64 36.9059 147.77 36.6356C146.539 36.2521 145.6 35.5147 145.021 34.3463C145.006 34.3141 144.991 34.2806 144.977 34.2485C144.973 34.2382 144.972 34.2253 144.964 34.1854C145.667 33.7775 146.379 33.3644 147.099 32.9448C147.13 33.004 147.153 33.0452 147.171 33.0877C147.51 33.874 148.112 34.3411 148.938 34.5238C149.477 34.6435 150.023 34.6371 150.557 34.4917C150.767 34.4351 150.975 34.3398 151.157 34.2189C151.526 33.9731 151.684 33.4853 151.562 33.0774C151.491 32.8419 151.333 32.6733 151.138 32.5382C150.813 32.3143 150.446 32.1843 150.073 32.0698C149.404 31.8639 148.731 31.6721 148.066 31.4546C147.476 31.2616 146.92 30.9978 146.438 30.5976C145.785 30.0571 145.462 29.3557 145.419 28.518C145.376 27.6918 145.581 26.939 146.094 26.2826C146.523 25.7344 147.083 25.3651 147.726 25.118C148.278 24.9057 148.852 24.8053 149.444 24.7847C150.392 24.7513 151.291 24.9288 152.127 25.3792C152.828 25.7563 153.383 26.2929 153.792 26.9776C153.821 27.0239 153.845 27.0715 153.871 27.1191C153.879 27.1346 153.88 27.1526 153.891 27.2015Z" fill="#999999"/>
<path d="M144.307 27.58C144.19 27.58 144.084 27.58 143.977 27.58C143.42 27.5877 142.883 27.6855 142.379 27.93C141.535 28.3392 141.047 29.0226 140.876 29.9311C140.815 30.2516 140.797 30.5849 140.796 30.9117C140.788 32.7211 140.792 34.5292 140.792 36.3385C140.792 36.4209 140.783 36.5019 140.779 36.5933H138.281V25.0963H140.782V26.8696C140.795 26.8748 140.808 26.8799 140.821 26.8851C141.146 26.2275 141.612 25.705 142.257 25.3562C142.891 25.0127 143.574 24.875 144.309 24.8711V27.5826L144.307 27.58Z" fill="#999999"/>
</g>
</svg>
