<?xml version="1.0" encoding="utf-8"?>
<!-- Generator: Adobe Illustrator 26.0.1, SVG Export Plug-In . SVG Version: 6.00 Build 0)  -->
<svg version="1.1" id="Layer_1" xmlns="http://www.w3.org/2000/svg" xmlns:xlink="http://www.w3.org/1999/xlink" x="0px" y="0px"
	 viewBox="0 0 100 100" enable-background="new 0 0 100 100" xml:space="preserve">
<image display="none" overflow="visible" width="512" height="512" xlink:href="../../../Images/2930617.png"  transform="matrix(0.1868 0 0 0.1868 2.1915 2.1915)">
</image>
<g display="none">
	
		<path display="inline" fill="none" stroke="#FF6C1A" stroke-width="3" stroke-linecap="round" stroke-linejoin="round" stroke-miterlimit="10" d="
		M93.523,75.765H6.477c-2.33,0-4.218-1.889-4.218-4.218V11.411c0-2.33,1.889-4.218,4.218-4.218h87.045
		c2.33,0,4.218,1.889,4.218,4.218v60.137C97.741,73.877,95.852,75.765,93.523,75.765z"/>
	
		<line display="inline" fill="none" stroke="#FF6C1A" stroke-width="3" stroke-linecap="round" stroke-linejoin="round" stroke-miterlimit="10" x1="10.506" y1="17.578" x2="43.493" y2="17.578"/>
	
		<line display="inline" fill="none" stroke="#FF6C1A" stroke-width="3" stroke-linecap="round" stroke-linejoin="round" stroke-miterlimit="10" x1="10.506" y1="33.973" x2="43.493" y2="33.973"/>
	
		<line display="inline" fill="none" stroke="#FF6C1A" stroke-width="3" stroke-linecap="round" stroke-linejoin="round" stroke-miterlimit="10" x1="10.671" y1="25.287" x2="30.947" y2="25.287"/>
	
		<line display="inline" fill="none" stroke="#FF6C1A" stroke-width="3" stroke-linecap="round" stroke-linejoin="round" stroke-miterlimit="10" x1="37.692" y1="25.287" x2="43.493" y2="25.287"/>
	
		<line display="inline" fill="none" stroke="#FF6C1A" stroke-width="3" stroke-linecap="round" stroke-linejoin="round" stroke-miterlimit="10" x1="10.736" y1="41.583" x2="16.538" y2="41.583"/>
	
		<line display="inline" fill="none" stroke="#FF6C1A" stroke-width="3" stroke-linecap="round" stroke-linejoin="round" stroke-miterlimit="10" x1="23.254" y1="41.583" x2="43.493" y2="41.583"/>
	
		<line display="inline" fill="none" stroke="#FF6C1A" stroke-width="3" stroke-linecap="round" stroke-linejoin="round" stroke-miterlimit="10" x1="10.736" y1="49.191" x2="43.449" y2="49.191"/>
	
		<line display="inline" fill="none" stroke="#FF6C1A" stroke-width="3" stroke-linecap="round" stroke-linejoin="round" stroke-miterlimit="10" x1="3.427" y1="68.056" x2="96.285" y2="68.056"/>
	
		<line display="inline" fill="none" stroke="#FF6C1A" stroke-width="3" stroke-linecap="round" stroke-linejoin="round" stroke-miterlimit="10" x1="10.736" y1="56.805" x2="26.095" y2="56.805"/>
	
		<polyline display="inline" fill="none" stroke="#FF6C1A" stroke-width="3" stroke-linecap="round" stroke-linejoin="round" stroke-miterlimit="10" points="
		53.713,52.659 60.162,52.659 63.616,46.047 70.657,59.667 78.75,43.645 83.717,52.758 89.376,52.758 	"/>
	
		<rect x="54.284" y="21.438" display="inline" fill="none" stroke="#FF6C1A" stroke-width="3" stroke-linecap="round" stroke-linejoin="round" stroke-miterlimit="10" width="7.501" height="15.177"/>
	
		<rect x="81.776" y="17.611" display="inline" fill="none" stroke="#FF6C1A" stroke-width="3" stroke-linecap="round" stroke-linejoin="round" stroke-miterlimit="10" width="7.501" height="19.005"/>
	
		<rect x="68.014" y="25.485" display="inline" fill="none" stroke="#FF6C1A" stroke-width="3" stroke-linecap="round" stroke-linejoin="round" stroke-miterlimit="10" width="7.501" height="11.131"/>
	
		<line display="inline" fill="none" stroke="#FF6C1A" stroke-width="3" stroke-linecap="round" stroke-linejoin="round" stroke-miterlimit="10" x1="37.79" y1="76.972" x2="36.376" y2="85.526"/>
	
		<line display="inline" fill="none" stroke="#FF6C1A" stroke-width="3" stroke-linecap="round" stroke-linejoin="round" stroke-miterlimit="10" x1="62.252" y1="76.972" x2="63.667" y2="85.526"/>
	
		<path display="inline" fill="none" stroke="#FF6C1A" stroke-width="3" stroke-linecap="round" stroke-linejoin="round" stroke-miterlimit="10" d="
		M67.751,92.807H32.219c-1.575,0-2.851-1.276-2.851-2.851V89.78c0-1.575,1.276-2.851,2.851-2.851h35.531
		c1.575,0,2.851,1.276,2.851,2.851v0.176C70.602,91.531,69.325,92.807,67.751,92.807z"/>
</g>
<image display="none" overflow="visible" width="512" height="512" xlink:href="../../../Images/2972406.png"  transform="matrix(0.1921 0 0 0.1921 0.8298 0.8298)">
</image>
<g display="none">
	
		<path display="inline" fill="none" stroke="#FF6C1A" stroke-width="3" stroke-linecap="round" stroke-linejoin="round" stroke-miterlimit="10" d="
		M92.066,78.011H7.923c-3.112,0-5.636-2.523-5.636-5.636V13.769c0-3.112,2.523-5.636,5.636-5.636h84.144
		c3.112,0,5.636,2.523,5.636,5.636v58.606C97.702,75.487,95.179,78.011,92.066,78.011z"/>
	
		<line display="inline" fill="none" stroke="#FF6C1A" stroke-width="3" stroke-linecap="round" stroke-linejoin="round" stroke-miterlimit="10" x1="3" y1="65.809" x2="96.191" y2="65.809"/>
	
		<line display="inline" fill="none" stroke="#FF6C1A" stroke-width="3" stroke-linecap="round" stroke-linejoin="round" stroke-miterlimit="10" x1="12.021" y1="28.532" x2="87.957" y2="28.532"/>
	
		<path display="inline" fill="none" stroke="#FF6C1A" stroke-width="3" stroke-linecap="round" stroke-linejoin="round" stroke-miterlimit="10" d="
		M87.957,65.809H12.021V20.128c0-1.645,1.334-2.979,2.979-2.979h69.979c1.645,0,2.979,1.334,2.979,2.979V65.809z"/>
	
		<rect x="21.928" y="35.936" display="inline" fill="none" stroke="#FF6C1A" stroke-width="3" stroke-linecap="round" stroke-linejoin="round" stroke-miterlimit="10" width="56.114" height="15.594"/>
	
		<rect x="21.928" y="57.928" display="inline" fill="none" stroke="#FF6C1A" stroke-width="3" stroke-linecap="round" stroke-linejoin="round" stroke-miterlimit="10" width="24.582" height="7.88"/>
	
		<rect x="53.46" y="57.928" display="inline" fill="none" stroke="#FF6C1A" stroke-width="3" stroke-linecap="round" stroke-linejoin="round" stroke-miterlimit="10" width="24.582" height="7.88"/>
	
		<line display="inline" fill="none" stroke="#FF6C1A" stroke-width="3" stroke-linecap="round" stroke-linejoin="round" stroke-miterlimit="10" x1="41.191" y1="79.085" x2="39.766" y2="90.957"/>
	
		<line display="inline" fill="none" stroke="#FF6C1A" stroke-width="3" stroke-linecap="round" stroke-linejoin="round" stroke-miterlimit="10" x1="58.752" y1="79.085" x2="60.177" y2="90.957"/>
	
		<line display="inline" fill="none" stroke="#FF6C1A" stroke-width="3" stroke-linecap="round" stroke-linejoin="round" stroke-miterlimit="10" x1="33.242" y1="91.957" x2="66.761" y2="91.957"/>
	
		<circle display="inline" fill="none" stroke="#FF6C1A" stroke-width="3" stroke-linecap="round" stroke-linejoin="round" stroke-miterlimit="10" cx="19.043" cy="22.681" r="0.84"/>
	
		<circle display="inline" fill="none" stroke="#FF6C1A" stroke-width="3" stroke-linecap="round" stroke-linejoin="round" stroke-miterlimit="10" cx="26.138" cy="22.681" r="0.84"/>
	
		<circle display="inline" fill="none" stroke="#FF6C1A" stroke-width="3" stroke-linecap="round" stroke-linejoin="round" stroke-miterlimit="10" cx="33.298" cy="22.681" r="0.84"/>
</g>
<image display="none" overflow="visible" width="512" height="512" xlink:href="../../../Images/3137795.png"  transform="matrix(0.1901 0 0 0.1901 1.3404 1.3404)">
</image>
<g display="none">
	
		<path display="inline" fill="none" stroke="#FF6C1A" stroke-width="3" stroke-linecap="round" stroke-linejoin="round" stroke-miterlimit="10" d="
		M69.963,97.234H30.027c-3.246,0-5.878-2.632-5.878-5.878V8.622c0-3.246,2.632-5.878,5.878-5.878h39.936
		c3.246,0,5.878,2.632,5.878,5.878v82.734C75.84,94.603,73.209,97.234,69.963,97.234z"/>
	
		<path display="inline" fill="none" stroke="#FF6C1A" stroke-width="3" stroke-linecap="round" stroke-linejoin="round" stroke-miterlimit="10" d="
		M57.479,8.851H42.5c-1.757,0-3.181-1.424-3.181-3.181V2.745h21.34V5.67C60.66,7.427,59.235,8.851,57.479,8.851z"/>
	
		<path display="inline" fill="none" stroke="#FF6C1A" stroke-width="3" stroke-linecap="round" stroke-linejoin="round" stroke-miterlimit="10" d="
		M44.101,34.766h-9.447c-1.595,0-2.888-1.293-2.888-2.888V19.399c0-1.595,1.293-2.888,2.888-2.888h9.447
		c1.595,0,2.888,1.293,2.888,2.888v12.479C46.989,33.473,45.696,34.766,44.101,34.766z"/>
	
		<path display="inline" fill="none" stroke="#FF6C1A" stroke-width="3" stroke-linecap="round" stroke-linejoin="round" stroke-miterlimit="10" d="
		M65.383,34.766h-9.447c-1.595,0-2.888-1.293-2.888-2.888V19.399c0-1.595,1.293-2.888,2.888-2.888h9.447
		c1.595,0,2.888,1.293,2.888,2.888v12.479C68.271,33.473,66.978,34.766,65.383,34.766z"/>
	
		<path display="inline" fill="none" stroke="#FF6C1A" stroke-width="3" stroke-linecap="round" stroke-linejoin="round" stroke-miterlimit="10" d="
		M44.101,59.128h-9.447c-1.595,0-2.888-1.293-2.888-2.888V43.761c0-1.595,1.293-2.888,2.888-2.888h9.447
		c1.595,0,2.888,1.293,2.888,2.888v12.479C46.989,57.835,45.696,59.128,44.101,59.128z"/>
	
		<path display="inline" fill="none" stroke="#FF6C1A" stroke-width="3" stroke-linecap="round" stroke-linejoin="round" stroke-miterlimit="10" d="
		M65.383,59.128h-9.447c-1.595,0-2.888-1.293-2.888-2.888V43.761c0-1.595,1.293-2.888,2.888-2.888h9.447
		c1.595,0,2.888,1.293,2.888,2.888v12.479C68.271,57.835,66.978,59.128,65.383,59.128z"/>
	
		<path display="inline" fill="none" stroke="#FF6C1A" stroke-width="3" stroke-linecap="round" stroke-linejoin="round" stroke-miterlimit="10" d="
		M65.383,83.489h-9.447c-1.595,0-2.888-1.293-2.888-2.888V68.122c0-1.595,1.293-2.888,2.888-2.888h9.447
		c1.595,0,2.888,1.293,2.888,2.888v12.479C68.271,82.196,66.978,83.489,65.383,83.489z"/>
	
		<line display="inline" fill="none" stroke="#FF6C1A" stroke-width="3" stroke-linecap="round" stroke-linejoin="round" stroke-miterlimit="10" x1="37.755" y1="25.638" x2="40.915" y2="25.638"/>
	
		<path display="inline" fill="none" stroke="#FF6C1A" stroke-width="3" stroke-linecap="round" stroke-linejoin="round" stroke-miterlimit="10" d="
		M44.101,83.489h-9.447c-1.595,0-2.888-1.293-2.888-2.888V68.122c0-1.595,1.293-2.888,2.888-2.888h9.447
		c1.595,0,2.888,1.293,2.888,2.888v12.479C46.989,82.196,45.696,83.489,44.101,83.489z"/>
	
		<line display="inline" fill="none" stroke="#FF6C1A" stroke-width="3" stroke-linecap="round" stroke-linejoin="round" stroke-miterlimit="10" x1="37.755" y1="74.362" x2="40.915" y2="74.362"/>
	
		<line display="inline" fill="none" stroke="#FF6C1A" stroke-width="3" stroke-linecap="round" stroke-linejoin="round" stroke-miterlimit="10" x1="42.367" y1="91.106" x2="57.638" y2="91.106"/>
	
		<line display="inline" fill="none" stroke="#FF6C1A" stroke-width="3" stroke-linecap="round" stroke-linejoin="round" stroke-miterlimit="10" x1="59.08" y1="53.032" x2="62.239" y2="53.032"/>
	
		<line display="inline" fill="none" stroke="#FF6C1A" stroke-width="3" stroke-linecap="round" stroke-linejoin="round" stroke-miterlimit="10" x1="59.08" y1="46.947" x2="62.239" y2="46.947"/>
</g>
<image display="none" overflow="visible" width="512" height="512" xlink:href="../../../Images/4813885.png"  transform="matrix(0.1896 0 0 0.1896 1.4681 1.4681)">
</image>
<g display="none">
	
		<line display="inline" fill="none" stroke="#FF6C1A" stroke-width="3" stroke-linecap="round" stroke-linejoin="round" stroke-miterlimit="10" x1="22.57" y1="23.253" x2="40.74" y2="12.785"/>
	
		<line display="inline" fill="none" stroke="#FF6C1A" stroke-width="3" stroke-linecap="round" stroke-linejoin="round" stroke-miterlimit="10" x1="59.181" y1="12.713" x2="77.35" y2="23.268"/>
	
		<line display="inline" fill="none" stroke="#FF6C1A" stroke-width="3" stroke-linecap="round" stroke-linejoin="round" stroke-miterlimit="10" x1="22.57" y1="76.79" x2="40.74" y2="87.258"/>
	
		<line display="inline" fill="none" stroke="#FF6C1A" stroke-width="3" stroke-linecap="round" stroke-linejoin="round" stroke-miterlimit="10" x1="59.181" y1="87.33" x2="77.35" y2="76.775"/>
	
		<line display="inline" fill="none" stroke="#FF6C1A" stroke-width="3" stroke-linecap="round" stroke-linejoin="round" stroke-miterlimit="10" x1="13.128" y1="39.213" x2="13.128" y2="60.617"/>
	
		<line display="inline" fill="none" stroke="#FF6C1A" stroke-width="3" stroke-linecap="round" stroke-linejoin="round" stroke-miterlimit="10" x1="86.915" y1="39.213" x2="86.915" y2="60.617"/>
	
		<circle display="inline" fill="none" stroke="#FF6C1A" stroke-width="3" stroke-linecap="round" stroke-linejoin="round" stroke-miterlimit="10" cx="86.5" cy="71.277" r="4.5"/>
	
		<circle display="inline" fill="none" stroke="#FF6C1A" stroke-width="3" stroke-linecap="round" stroke-linejoin="round" stroke-miterlimit="10" cx="50" cy="92.548" r="4.5"/>
	
		<circle display="inline" fill="none" stroke="#FF6C1A" stroke-width="3" stroke-linecap="round" stroke-linejoin="round" stroke-miterlimit="10" cx="50" cy="7.441" r="4.5"/>
	
		<circle display="inline" fill="none" stroke="#FF6C1A" stroke-width="3" stroke-linecap="round" stroke-linejoin="round" stroke-miterlimit="10" cx="13.521" cy="71.277" r="4.5"/>
	
		<circle display="inline" fill="none" stroke="#FF6C1A" stroke-width="3" stroke-linecap="round" stroke-linejoin="round" stroke-miterlimit="10" cx="13.521" cy="28.761" r="4.5"/>
	
		<circle display="inline" fill="none" stroke="#FF6C1A" stroke-width="3" stroke-linecap="round" stroke-linejoin="round" stroke-miterlimit="10" cx="86.5" cy="28.761" r="4.5"/>
	
		<polygon display="inline" fill="none" stroke="#FF6C1A" stroke-width="3" stroke-linecap="round" stroke-linejoin="round" stroke-miterlimit="10" points="
		50,23.723 72.681,37 72.681,63.234 50,76.383 27.298,63.234 27.298,37.064 	"/>
	
		<polyline display="inline" fill="none" stroke="#FF6C1A" stroke-width="3" stroke-linecap="round" stroke-linejoin="round" stroke-miterlimit="10" points="
		28.255,37.383 49.989,50 49.989,75.298 	"/>
	
		<line display="inline" fill="none" stroke="#FF6C1A" stroke-width="3" stroke-linecap="round" stroke-linejoin="round" stroke-miterlimit="10" x1="50.596" y1="49.574" x2="66.362" y2="40.574"/>
	
		<line display="inline" fill="none" stroke="#FF6C1A" stroke-width="3" stroke-linecap="round" stroke-linejoin="round" stroke-miterlimit="10" x1="40.101" y1="42.718" x2="60.271" y2="30.973"/>
	
		<line display="inline" fill="none" stroke="#FF6C1A" stroke-width="3" stroke-linecap="round" stroke-linejoin="round" stroke-miterlimit="10" x1="38.66" y1="44.319" x2="38.66" y2="51.543"/>
</g>
<image display="none" overflow="visible" width="512" height="512" xlink:href="../../../Images/2600354.png"  transform="matrix(0.1914 0 0 0.1914 1 1)">
</image>
<g display="none">
	
		<path display="inline" fill="none" stroke="#FF6C1A" stroke-width="3" stroke-linecap="round" stroke-linejoin="round" stroke-miterlimit="10" d="
		M73.511,31.979v-7.553c0-8.566-6.944-15.511-15.511-15.511H17.915c-8.566,0-15.511,6.944-15.511,15.511v17.809
		c0,0,1.83,8,6.298,10.34c0,0,2.298,0.298,2.34,4.213v8.681l11.064-9.404h3.064"/>
	
		<path display="inline" fill="none" stroke="#FF6C1A" stroke-width="3" stroke-linecap="round" stroke-linejoin="round" stroke-miterlimit="10" d="
		M89.531,78.507c4.826-2.599,8.108-7.695,8.108-13.561V48.883c0-8.502-6.892-15.394-15.394-15.394H41.819
		c-8.502,0-15.394,6.892-15.394,15.394v16.064c0,8.502,6.892,15.394,15.394,15.394h34.903c0-0.007-0.003-0.014-0.003-0.021"/>
	
		<polyline display="inline" fill="none" stroke="#FF6C1A" stroke-width="3" stroke-linecap="round" stroke-linejoin="round" stroke-miterlimit="10" points="
		89.108,78.727 89.108,89.309 89.108,91.319 76.916,80.507 	"/>
	
		<line display="inline" fill="none" stroke="#FF6C1A" stroke-width="3" stroke-linecap="round" stroke-linejoin="round" stroke-miterlimit="10" x1="70.574" y1="45.809" x2="82.391" y2="45.809"/>
	
		<line display="inline" fill="none" stroke="#FF6C1A" stroke-width="3" stroke-linecap="round" stroke-linejoin="round" stroke-miterlimit="10" x1="70.574" y1="52.415" x2="79.718" y2="52.415"/>
	
		<path display="inline" fill="none" stroke="#FF6C1A" stroke-width="3" stroke-linecap="round" stroke-linejoin="round" stroke-miterlimit="10" d="
		M61.989,63.489L61.989,63.489c-1.851,0-3.351-1.5-3.351-3.351v-5.17c0-1.851,1.5-3.351,3.351-3.351h0
		c1.851,0,3.351,1.5,3.351,3.351v5.17C65.34,61.989,63.84,63.489,61.989,63.489z"/>
	
		<path display="inline" fill="none" stroke="#FF6C1A" stroke-width="3" stroke-linecap="round" stroke-linejoin="round" stroke-miterlimit="10" d="
		M38.245,63.489L38.245,63.489c-1.851,0-3.351-1.5-3.351-3.351v-5.17c0-1.851,1.5-3.351,3.351-3.351h0
		c1.851,0,3.351,1.5,3.351,3.351v5.17C41.596,61.989,40.095,63.489,38.245,63.489z"/>
	
		<path display="inline" fill="none" stroke="#FF6C1A" stroke-width="3" stroke-linecap="round" stroke-linejoin="round" stroke-miterlimit="10" d="
		M61.973,51.286c-0.583-6.024-5.658-10.734-11.835-10.734c-6.249,0-11.361,4.821-11.846,10.945"/>
	
		<path display="inline" fill="none" stroke="#FF6C1A" stroke-width="3" stroke-linecap="round" stroke-linejoin="round" stroke-miterlimit="10" d="
		M57.301,68.096c0.035,0.001,0.068,0.01,0.103,0.01c2.197,0,3.979-1.781,3.979-3.979"/>
	
		<ellipse display="inline" fill="none" stroke="#FF6C1A" stroke-width="3" stroke-linecap="round" stroke-linejoin="round" stroke-miterlimit="10" cx="53.644" cy="69.027" rx="3.463" ry="2.633"/>
	
		<circle display="inline" fill="none" stroke="#FF6C1A" stroke-width="3" stroke-linecap="round" stroke-linejoin="round" stroke-miterlimit="10" cx="15.447" cy="26.447" r="0.702"/>
	
		<circle display="inline" fill="none" stroke="#FF6C1A" stroke-width="3" stroke-linecap="round" stroke-linejoin="round" stroke-miterlimit="10" cx="21.979" cy="26.447" r="0.702"/>
	
		<circle display="inline" fill="none" stroke="#FF6C1A" stroke-width="3" stroke-linecap="round" stroke-linejoin="round" stroke-miterlimit="10" cx="28.617" cy="26.447" r="0.702"/>
</g>
<image display="none" overflow="visible" width="512" height="512" xlink:href="../../../Images/3126547.png"  transform="matrix(0.1861 0 0 0.1861 2.3617 2.3617)">
</image>
<g display="none">
	
		<path display="inline" fill="none" stroke="#FF6C1A" stroke-width="3" stroke-linecap="round" stroke-linejoin="round" stroke-miterlimit="10" d="
		M87.447,81.515H12.691c-4.877,0-8.83-3.953-8.83-8.83V13.71c0-4.877,3.953-8.83,8.83-8.83h74.755c4.877,0,8.83,3.953,8.83,8.83
		v58.975C96.277,77.561,92.323,81.515,87.447,81.515z"/>
	
		<line display="inline" fill="none" stroke="#FF6C1A" stroke-width="3" stroke-linecap="round" stroke-linejoin="round" stroke-miterlimit="10" x1="5.077" y1="69.206" x2="94.831" y2="69.206"/>
	
		<line display="inline" fill="none" stroke="#FF6C1A" stroke-width="3" stroke-linecap="round" stroke-linejoin="round" stroke-miterlimit="10" x1="34.995" y1="56.897" x2="42.179" y2="56.897"/>
	
		<line display="inline" fill="none" stroke="#FF6C1A" stroke-width="3" stroke-linecap="round" stroke-linejoin="round" stroke-miterlimit="10" x1="54.794" y1="56.897" x2="61.978" y2="56.897"/>
	
		<line display="inline" fill="none" stroke="#FF6C1A" stroke-width="3" stroke-linecap="round" stroke-linejoin="round" stroke-miterlimit="10" x1="21.153" y1="95.269" x2="78.887" y2="95.269"/>
	
		<line display="inline" fill="none" stroke="#FF6C1A" stroke-width="3" stroke-linecap="round" stroke-linejoin="round" stroke-miterlimit="10" x1="34.513" y1="82.566" x2="34.513" y2="94.13"/>
	
		<line display="inline" fill="none" stroke="#FF6C1A" stroke-width="3" stroke-linecap="round" stroke-linejoin="round" stroke-miterlimit="10" x1="65.526" y1="82.566" x2="65.526" y2="94.13"/>
	
		<polyline display="inline" fill="none" stroke="#FF6C1A" stroke-width="3" stroke-linecap="round" stroke-linejoin="round" stroke-miterlimit="10" points="
		22.818,16.948 34.382,16.948 34.382,45.508 61.015,45.508 67.235,26.848 35.346,26.848 	"/>
</g>
<image display="none" overflow="visible" width="512" height="512" xlink:href="../../../Images/7707292.png"  transform="matrix(0.1856 0 0 0.1856 2.4894 2.4894)">
</image>
<g display="none">
	
		<path display="inline" fill="none" stroke="#FF6C1A" stroke-width="3" stroke-linecap="round" stroke-linejoin="round" stroke-miterlimit="10" d="
		M70.191,26.149V11.191c0-3.936-3.191-7.128-7.128-7.128H24.851c-3.937,0-7.128,3.191-7.128,7.128v77.532
		c0,3.937,3.191,7.128,7.128,7.128h38.213c3.936,0,7.128-3.191,7.128-7.128V60.489"/>
	
		<path display="inline" fill="none" stroke="#FF6C1A" stroke-width="2" stroke-linecap="round" stroke-linejoin="round" stroke-miterlimit="10" d="
		M47.138,92.362H41c-1.222,0-2.213-0.991-2.213-2.213v0c0-1.222,0.991-2.213,2.213-2.213h6.138c1.222,0,2.213,0.991,2.213,2.213v0
		C49.351,91.371,48.36,92.362,47.138,92.362z"/>
	
		<line display="inline" fill="none" stroke="#FF6C1A" stroke-width="2" stroke-linecap="round" stroke-linejoin="round" stroke-miterlimit="10" x1="19" y1="84.064" x2="68.532" y2="84.064"/>
	
		<polyline display="inline" fill="none" stroke="#FF6C1A" stroke-width="3" stroke-linecap="round" stroke-linejoin="round" stroke-miterlimit="10" points="
		32.872,4.83 35.979,11.809 51.851,11.809 54.83,5.213 	"/>
	
		<polyline display="inline" fill="none" stroke="#FF6C1A" stroke-width="3" stroke-linecap="round" stroke-linejoin="round" stroke-miterlimit="10" points="
		34.064,49.638 45.085,49.638 50.191,40.957 55.383,56.915 63.851,48.447 78.957,48.234 	"/>
	
		<path display="inline" fill="none" stroke="#FF6C1A" stroke-width="3" stroke-linecap="round" stroke-linejoin="round" stroke-miterlimit="10" d="
		M56.149,35.979c0.351-0.266,1.92-3.217,2.133-3.505c1.609-2.179,3.655-4.181,6.189-5.235c6.207-2.582,14.143,1.228,16.34,7.438
		c0.98,2.771,1.013,5.989,0.607,8.879c-0.478,3.398-2.32,6.487-4.317,9.223c-2.753,3.772-6.165,6.986-9.618,10.105
		c-3.34,3.017-6.638,6.076-9.93,9.146c-0.056,0.052-1.025,0.985-1.041,0.971c-3.527-3.107-7.279-6.087-10.595-9.415
		c-2.705-2.715-5.497-5.486-8.175-8.282c-2.618-2.734-4.739-5.317-6.08-8.906c-1.924-5.15-2.143-11.13,1.829-15.397
		c2.625-2.82,6.164-4.525,10.048-4.413c2.433,0.071,5.008,0.547,6.962,2.094c1.079,0.854,1.765,2.022,2.568,3.116
		C54.092,33.193,55.12,34.586,56.149,35.979z"/>
</g>
<image display="none" overflow="visible" width="512" height="512" xlink:href="../../../Images/921540.png"  transform="matrix(0.1874 0 0 0.1874 2.0213 2.0213)">
</image>
<g>
	<path fill="none" stroke="#FF6C1A" stroke-width="3" stroke-linecap="round" stroke-linejoin="round" stroke-miterlimit="10" d="
		M88.851,82.752c4.042-0.148,7.276-3.463,7.276-7.542V11.46c0-4.173-3.383-7.556-7.556-7.556H11.476
		c-4.173,0-7.556,3.383-7.556,7.556v63.75c0,3.805,2.816,6.945,6.476,7.47"/>
	
		<line fill="none" stroke="#FF6C1A" stroke-width="3" stroke-linecap="round" stroke-linejoin="round" stroke-miterlimit="10" x1="5.043" y1="17.298" x2="95.085" y2="17.298"/>
	
		<line fill="none" stroke="#FF6C1A" stroke-width="3" stroke-linecap="round" stroke-linejoin="round" stroke-miterlimit="10" x1="43.266" y1="10.66" x2="86.351" y2="10.66"/>
	
		<line fill="none" stroke="#FF6C1A" stroke-width="3" stroke-linecap="round" stroke-linejoin="round" stroke-miterlimit="10" x1="11.901" y1="27.548" x2="21.878" y2="27.548"/>
	
		<line fill="none" stroke="#FF6C1A" stroke-width="3" stroke-linecap="round" stroke-linejoin="round" stroke-miterlimit="10" x1="11.901" y1="36.505" x2="21.878" y2="36.505"/>
	
		<line fill="none" stroke="#FF6C1A" stroke-width="3" stroke-linecap="round" stroke-linejoin="round" stroke-miterlimit="10" x1="22.457" y1="50.543" x2="34.149" y2="39"/>
	
		<line fill="none" stroke="#FF6C1A" stroke-width="3" stroke-linecap="round" stroke-linejoin="round" stroke-miterlimit="10" x1="42.372" y1="38.245" x2="55.851" y2="51.596"/>
	
		<line fill="none" stroke="#FF6C1A" stroke-width="3" stroke-linecap="round" stroke-linejoin="round" stroke-miterlimit="10" x1="65.043" y1="51.809" x2="77.819" y2="38.947"/>
	
		<circle fill="none" stroke="#FF6C1A" stroke-width="3" stroke-linecap="round" stroke-linejoin="round" stroke-miterlimit="10" cx="60.319" cy="56.532" r="4.894"/>
	
		<circle fill="none" stroke="#FF6C1A" stroke-width="3" stroke-linecap="round" stroke-linejoin="round" stroke-miterlimit="10" cx="18.409" cy="54.791" r="4.894"/>
	
		<circle fill="none" stroke="#FF6C1A" stroke-width="3" stroke-linecap="round" stroke-linejoin="round" stroke-miterlimit="10" cx="81.489" cy="34.255" r="4.894"/>
	
		<circle fill="none" stroke="#FF6C1A" stroke-width="3" stroke-linecap="round" stroke-linejoin="round" stroke-miterlimit="10" cx="38.428" cy="34.255" r="4.894"/>
	
		<circle fill="none" stroke="#FF6C1A" stroke-width="3" stroke-linecap="round" stroke-linejoin="round" stroke-miterlimit="10" cx="14.043" cy="10.574" r="0.521"/>
	
		<circle fill="none" stroke="#FF6C1A" stroke-width="3" stroke-linecap="round" stroke-linejoin="round" stroke-miterlimit="10" cx="21.447" cy="10.574" r="0.521"/>
	
		<circle fill="none" stroke="#FF6C1A" stroke-width="3" stroke-linecap="round" stroke-linejoin="round" stroke-miterlimit="10" cx="29.064" cy="10.574" r="0.521"/>
	
		<circle fill="none" stroke="#FF6C1A" stroke-width="3" stroke-linecap="round" stroke-linejoin="round" stroke-miterlimit="10" cx="28.543" cy="27.383" r="0.521"/>
	
		<rect x="12.532" y="75.429" fill="none" stroke="#FF6C1A" stroke-width="3" stroke-linecap="round" stroke-linejoin="round" stroke-miterlimit="10" width="11.936" height="20.694"/>
	
		<rect x="54.479" y="70.573" fill="none" stroke="#FF6C1A" stroke-width="3" stroke-linecap="round" stroke-linejoin="round" stroke-miterlimit="10" width="12.032" height="25.549"/>
	
		<rect x="33.489" y="54.782" fill="none" stroke="#FF6C1A" stroke-width="3" stroke-linecap="round" stroke-linejoin="round" stroke-miterlimit="10" width="11.984" height="41.341"/>
	
		<rect x="75.497" y="52" fill="none" stroke="#FF6C1A" stroke-width="3" stroke-linecap="round" stroke-linejoin="round" stroke-miterlimit="10" width="11.984" height="44.122"/>
	
		<line fill="none" stroke="#FF6C1A" stroke-width="3" stroke-linecap="round" stroke-linejoin="round" stroke-miterlimit="10" x1="3.505" y1="96.122" x2="96.473" y2="96.122"/>
</g>
</svg>
