<?xml version="1.0" encoding="utf-8"?>
<!-- Generator: Adobe Illustrator 26.0.1, SVG Export Plug-In . SVG Version: 6.00 Build 0)  -->
<svg version="1.1" id="Layer_1" xmlns="http://www.w3.org/2000/svg" xmlns:xlink="http://www.w3.org/1999/xlink" x="0px" y="0px"
	 viewBox="0 0 100 100" enable-background="new 0 0 100 100" xml:space="preserve">
<image display="none" overflow="visible" width="512" height="512" xlink:href="../../../Images/2930617.png"  transform="matrix(0.1868 0 0 0.1868 2.1915 2.1915)">
</image>
<g>
	<path fill="none" stroke="#FF6C1A" stroke-width="3" stroke-linecap="round" stroke-linejoin="round" stroke-miterlimit="10" d="
		M93.523,75.765H6.477c-2.33,0-4.218-1.889-4.218-4.218V11.411c0-2.33,1.889-4.218,4.218-4.218h87.045
		c2.33,0,4.218,1.889,4.218,4.218v60.137C97.741,73.877,95.852,75.765,93.523,75.765z"/>
	
		<line fill="none" stroke="#FF6C1A" stroke-width="3" stroke-linecap="round" stroke-linejoin="round" stroke-miterlimit="10" x1="10.506" y1="17.578" x2="43.493" y2="17.578"/>
	
		<line fill="none" stroke="#FF6C1A" stroke-width="3" stroke-linecap="round" stroke-linejoin="round" stroke-miterlimit="10" x1="10.506" y1="33.973" x2="43.493" y2="33.973"/>
	
		<line fill="none" stroke="#FF6C1A" stroke-width="3" stroke-linecap="round" stroke-linejoin="round" stroke-miterlimit="10" x1="10.671" y1="25.287" x2="30.947" y2="25.287"/>
	
		<line fill="none" stroke="#FF6C1A" stroke-width="3" stroke-linecap="round" stroke-linejoin="round" stroke-miterlimit="10" x1="37.692" y1="25.287" x2="43.493" y2="25.287"/>
	
		<line fill="none" stroke="#FF6C1A" stroke-width="3" stroke-linecap="round" stroke-linejoin="round" stroke-miterlimit="10" x1="10.736" y1="41.583" x2="16.538" y2="41.583"/>
	
		<line fill="none" stroke="#FF6C1A" stroke-width="3" stroke-linecap="round" stroke-linejoin="round" stroke-miterlimit="10" x1="23.254" y1="41.583" x2="43.493" y2="41.583"/>
	
		<line fill="none" stroke="#FF6C1A" stroke-width="3" stroke-linecap="round" stroke-linejoin="round" stroke-miterlimit="10" x1="10.736" y1="49.191" x2="43.449" y2="49.191"/>
	
		<line fill="none" stroke="#FF6C1A" stroke-width="3" stroke-linecap="round" stroke-linejoin="round" stroke-miterlimit="10" x1="3.427" y1="68.056" x2="96.285" y2="68.056"/>
	
		<line fill="none" stroke="#FF6C1A" stroke-width="3" stroke-linecap="round" stroke-linejoin="round" stroke-miterlimit="10" x1="10.736" y1="56.805" x2="26.095" y2="56.805"/>
	
		<polyline fill="none" stroke="#FF6C1A" stroke-width="3" stroke-linecap="round" stroke-linejoin="round" stroke-miterlimit="10" points="
		53.713,52.659 60.162,52.659 63.616,46.047 70.657,59.667 78.75,43.645 83.717,52.758 89.376,52.758 	"/>
	
		<rect x="54.284" y="21.438" fill="none" stroke="#FF6C1A" stroke-width="3" stroke-linecap="round" stroke-linejoin="round" stroke-miterlimit="10" width="7.501" height="15.177"/>
	
		<rect x="81.776" y="17.611" fill="none" stroke="#FF6C1A" stroke-width="3" stroke-linecap="round" stroke-linejoin="round" stroke-miterlimit="10" width="7.501" height="19.005"/>
	
		<rect x="68.014" y="25.485" fill="none" stroke="#FF6C1A" stroke-width="3" stroke-linecap="round" stroke-linejoin="round" stroke-miterlimit="10" width="7.501" height="11.131"/>
	
		<line fill="none" stroke="#FF6C1A" stroke-width="3" stroke-linecap="round" stroke-linejoin="round" stroke-miterlimit="10" x1="37.79" y1="76.972" x2="36.376" y2="85.526"/>
	
		<line fill="none" stroke="#FF6C1A" stroke-width="3" stroke-linecap="round" stroke-linejoin="round" stroke-miterlimit="10" x1="62.252" y1="76.972" x2="63.667" y2="85.526"/>
	<path fill="none" stroke="#FF6C1A" stroke-width="3" stroke-linecap="round" stroke-linejoin="round" stroke-miterlimit="10" d="
		M67.751,92.807H32.219c-1.575,0-2.851-1.276-2.851-2.851V89.78c0-1.575,1.276-2.851,2.851-2.851h35.531
		c1.575,0,2.851,1.276,2.851,2.851v0.176C70.602,91.531,69.325,92.807,67.751,92.807z"/>
</g>
</svg>
