<?xml version="1.0" encoding="utf-8"?>
<!-- Generator: Adobe Illustrator 26.0.1, SVG Export Plug-In . SVG Version: 6.00 Build 0)  -->
<svg version="1.1" id="Layer_1" xmlns="http://www.w3.org/2000/svg" xmlns:xlink="http://www.w3.org/1999/xlink" x="0px" y="0px"
	 viewBox="0 0 100 100" enable-background="new 0 0 100 100" xml:space="preserve">
<image display="none" overflow="visible" width="512" height="512" xlink:href="../../../Images/2930617.png"  transform="matrix(0.1868 0 0 0.1868 2.1915 2.1915)">
</image>
<g display="none">
	
		<path display="inline" fill="none" stroke="#FF6C1A" stroke-width="3" stroke-linecap="round" stroke-linejoin="round" stroke-miterlimit="10" d="
		M93.523,75.765H6.477c-2.33,0-4.218-1.889-4.218-4.218V11.411c0-2.33,1.889-4.218,4.218-4.218h87.045
		c2.33,0,4.218,1.889,4.218,4.218v60.137C97.741,73.877,95.852,75.765,93.523,75.765z"/>
	
		<line display="inline" fill="none" stroke="#FF6C1A" stroke-width="3" stroke-linecap="round" stroke-linejoin="round" stroke-miterlimit="10" x1="10.506" y1="17.578" x2="43.493" y2="17.578"/>
	
		<line display="inline" fill="none" stroke="#FF6C1A" stroke-width="3" stroke-linecap="round" stroke-linejoin="round" stroke-miterlimit="10" x1="10.506" y1="33.973" x2="43.493" y2="33.973"/>
	
		<line display="inline" fill="none" stroke="#FF6C1A" stroke-width="3" stroke-linecap="round" stroke-linejoin="round" stroke-miterlimit="10" x1="10.671" y1="25.287" x2="30.947" y2="25.287"/>
	
		<line display="inline" fill="none" stroke="#FF6C1A" stroke-width="3" stroke-linecap="round" stroke-linejoin="round" stroke-miterlimit="10" x1="37.692" y1="25.287" x2="43.493" y2="25.287"/>
	
		<line display="inline" fill="none" stroke="#FF6C1A" stroke-width="3" stroke-linecap="round" stroke-linejoin="round" stroke-miterlimit="10" x1="10.736" y1="41.583" x2="16.538" y2="41.583"/>
	
		<line display="inline" fill="none" stroke="#FF6C1A" stroke-width="3" stroke-linecap="round" stroke-linejoin="round" stroke-miterlimit="10" x1="23.254" y1="41.583" x2="43.493" y2="41.583"/>
	
		<line display="inline" fill="none" stroke="#FF6C1A" stroke-width="3" stroke-linecap="round" stroke-linejoin="round" stroke-miterlimit="10" x1="10.736" y1="49.191" x2="43.449" y2="49.191"/>
	
		<line display="inline" fill="none" stroke="#FF6C1A" stroke-width="3" stroke-linecap="round" stroke-linejoin="round" stroke-miterlimit="10" x1="3.427" y1="68.056" x2="96.285" y2="68.056"/>
	
		<line display="inline" fill="none" stroke="#FF6C1A" stroke-width="3" stroke-linecap="round" stroke-linejoin="round" stroke-miterlimit="10" x1="10.736" y1="56.805" x2="26.095" y2="56.805"/>
	
		<polyline display="inline" fill="none" stroke="#FF6C1A" stroke-width="3" stroke-linecap="round" stroke-linejoin="round" stroke-miterlimit="10" points="
		53.713,52.659 60.162,52.659 63.616,46.047 70.657,59.667 78.75,43.645 83.717,52.758 89.376,52.758 	"/>
	
		<rect x="54.284" y="21.438" display="inline" fill="none" stroke="#FF6C1A" stroke-width="3" stroke-linecap="round" stroke-linejoin="round" stroke-miterlimit="10" width="7.501" height="15.177"/>
	
		<rect x="81.776" y="17.611" display="inline" fill="none" stroke="#FF6C1A" stroke-width="3" stroke-linecap="round" stroke-linejoin="round" stroke-miterlimit="10" width="7.501" height="19.005"/>
	
		<rect x="68.014" y="25.485" display="inline" fill="none" stroke="#FF6C1A" stroke-width="3" stroke-linecap="round" stroke-linejoin="round" stroke-miterlimit="10" width="7.501" height="11.131"/>
	
		<line display="inline" fill="none" stroke="#FF6C1A" stroke-width="3" stroke-linecap="round" stroke-linejoin="round" stroke-miterlimit="10" x1="37.79" y1="76.972" x2="36.376" y2="85.526"/>
	
		<line display="inline" fill="none" stroke="#FF6C1A" stroke-width="3" stroke-linecap="round" stroke-linejoin="round" stroke-miterlimit="10" x1="62.252" y1="76.972" x2="63.667" y2="85.526"/>
	
		<path display="inline" fill="none" stroke="#FF6C1A" stroke-width="3" stroke-linecap="round" stroke-linejoin="round" stroke-miterlimit="10" d="
		M67.751,92.807H32.219c-1.575,0-2.851-1.276-2.851-2.851V89.78c0-1.575,1.276-2.851,2.851-2.851h35.531
		c1.575,0,2.851,1.276,2.851,2.851v0.176C70.602,91.531,69.325,92.807,67.751,92.807z"/>
</g>
<image display="none" overflow="visible" width="512" height="512" xlink:href="../../../Images/2972406.png"  transform="matrix(0.1921 0 0 0.1921 0.8298 0.8298)">
</image>
<g display="none">
	
		<path display="inline" fill="none" stroke="#FF6C1A" stroke-width="3" stroke-linecap="round" stroke-linejoin="round" stroke-miterlimit="10" d="
		M92.066,78.011H7.923c-3.112,0-5.636-2.523-5.636-5.636V13.769c0-3.112,2.523-5.636,5.636-5.636h84.144
		c3.112,0,5.636,2.523,5.636,5.636v58.606C97.702,75.487,95.179,78.011,92.066,78.011z"/>
	
		<line display="inline" fill="none" stroke="#FF6C1A" stroke-width="3" stroke-linecap="round" stroke-linejoin="round" stroke-miterlimit="10" x1="3" y1="65.809" x2="96.191" y2="65.809"/>
	
		<line display="inline" fill="none" stroke="#FF6C1A" stroke-width="3" stroke-linecap="round" stroke-linejoin="round" stroke-miterlimit="10" x1="12.021" y1="28.532" x2="87.957" y2="28.532"/>
	
		<path display="inline" fill="none" stroke="#FF6C1A" stroke-width="3" stroke-linecap="round" stroke-linejoin="round" stroke-miterlimit="10" d="
		M87.957,65.809H12.021V20.128c0-1.645,1.334-2.979,2.979-2.979h69.979c1.645,0,2.979,1.334,2.979,2.979V65.809z"/>
	
		<rect x="21.928" y="35.936" display="inline" fill="none" stroke="#FF6C1A" stroke-width="3" stroke-linecap="round" stroke-linejoin="round" stroke-miterlimit="10" width="56.114" height="15.594"/>
	
		<rect x="21.928" y="57.928" display="inline" fill="none" stroke="#FF6C1A" stroke-width="3" stroke-linecap="round" stroke-linejoin="round" stroke-miterlimit="10" width="24.582" height="7.88"/>
	
		<rect x="53.46" y="57.928" display="inline" fill="none" stroke="#FF6C1A" stroke-width="3" stroke-linecap="round" stroke-linejoin="round" stroke-miterlimit="10" width="24.582" height="7.88"/>
	
		<line display="inline" fill="none" stroke="#FF6C1A" stroke-width="3" stroke-linecap="round" stroke-linejoin="round" stroke-miterlimit="10" x1="41.191" y1="79.085" x2="39.766" y2="90.957"/>
	
		<line display="inline" fill="none" stroke="#FF6C1A" stroke-width="3" stroke-linecap="round" stroke-linejoin="round" stroke-miterlimit="10" x1="58.752" y1="79.085" x2="60.177" y2="90.957"/>
	
		<line display="inline" fill="none" stroke="#FF6C1A" stroke-width="3" stroke-linecap="round" stroke-linejoin="round" stroke-miterlimit="10" x1="33.242" y1="91.957" x2="66.761" y2="91.957"/>
	
		<circle display="inline" fill="none" stroke="#FF6C1A" stroke-width="3" stroke-linecap="round" stroke-linejoin="round" stroke-miterlimit="10" cx="19.043" cy="22.681" r="0.84"/>
	
		<circle display="inline" fill="none" stroke="#FF6C1A" stroke-width="3" stroke-linecap="round" stroke-linejoin="round" stroke-miterlimit="10" cx="26.138" cy="22.681" r="0.84"/>
	
		<circle display="inline" fill="none" stroke="#FF6C1A" stroke-width="3" stroke-linecap="round" stroke-linejoin="round" stroke-miterlimit="10" cx="33.298" cy="22.681" r="0.84"/>
</g>
<image display="none" overflow="visible" width="512" height="512" xlink:href="../../../Images/3137795.png"  transform="matrix(0.1901 0 0 0.1901 1.3404 1.3404)">
</image>
<g display="none">
	
		<path display="inline" fill="none" stroke="#FF6C1A" stroke-width="3" stroke-linecap="round" stroke-linejoin="round" stroke-miterlimit="10" d="
		M69.963,97.234H30.027c-3.246,0-5.878-2.632-5.878-5.878V8.622c0-3.246,2.632-5.878,5.878-5.878h39.936
		c3.246,0,5.878,2.632,5.878,5.878v82.734C75.84,94.603,73.209,97.234,69.963,97.234z"/>
	
		<path display="inline" fill="none" stroke="#FF6C1A" stroke-width="3" stroke-linecap="round" stroke-linejoin="round" stroke-miterlimit="10" d="
		M57.479,8.851H42.5c-1.757,0-3.181-1.424-3.181-3.181V2.745h21.34V5.67C60.66,7.427,59.235,8.851,57.479,8.851z"/>
	
		<path display="inline" fill="none" stroke="#FF6C1A" stroke-width="3" stroke-linecap="round" stroke-linejoin="round" stroke-miterlimit="10" d="
		M44.101,34.766h-9.447c-1.595,0-2.888-1.293-2.888-2.888V19.399c0-1.595,1.293-2.888,2.888-2.888h9.447
		c1.595,0,2.888,1.293,2.888,2.888v12.479C46.989,33.473,45.696,34.766,44.101,34.766z"/>
	
		<path display="inline" fill="none" stroke="#FF6C1A" stroke-width="3" stroke-linecap="round" stroke-linejoin="round" stroke-miterlimit="10" d="
		M65.383,34.766h-9.447c-1.595,0-2.888-1.293-2.888-2.888V19.399c0-1.595,1.293-2.888,2.888-2.888h9.447
		c1.595,0,2.888,1.293,2.888,2.888v12.479C68.271,33.473,66.978,34.766,65.383,34.766z"/>
	
		<path display="inline" fill="none" stroke="#FF6C1A" stroke-width="3" stroke-linecap="round" stroke-linejoin="round" stroke-miterlimit="10" d="
		M44.101,59.128h-9.447c-1.595,0-2.888-1.293-2.888-2.888V43.761c0-1.595,1.293-2.888,2.888-2.888h9.447
		c1.595,0,2.888,1.293,2.888,2.888v12.479C46.989,57.835,45.696,59.128,44.101,59.128z"/>
	
		<path display="inline" fill="none" stroke="#FF6C1A" stroke-width="3" stroke-linecap="round" stroke-linejoin="round" stroke-miterlimit="10" d="
		M65.383,59.128h-9.447c-1.595,0-2.888-1.293-2.888-2.888V43.761c0-1.595,1.293-2.888,2.888-2.888h9.447
		c1.595,0,2.888,1.293,2.888,2.888v12.479C68.271,57.835,66.978,59.128,65.383,59.128z"/>
	
		<path display="inline" fill="none" stroke="#FF6C1A" stroke-width="3" stroke-linecap="round" stroke-linejoin="round" stroke-miterlimit="10" d="
		M65.383,83.489h-9.447c-1.595,0-2.888-1.293-2.888-2.888V68.122c0-1.595,1.293-2.888,2.888-2.888h9.447
		c1.595,0,2.888,1.293,2.888,2.888v12.479C68.271,82.196,66.978,83.489,65.383,83.489z"/>
	
		<line display="inline" fill="none" stroke="#FF6C1A" stroke-width="3" stroke-linecap="round" stroke-linejoin="round" stroke-miterlimit="10" x1="37.755" y1="25.638" x2="40.915" y2="25.638"/>
	
		<path display="inline" fill="none" stroke="#FF6C1A" stroke-width="3" stroke-linecap="round" stroke-linejoin="round" stroke-miterlimit="10" d="
		M44.101,83.489h-9.447c-1.595,0-2.888-1.293-2.888-2.888V68.122c0-1.595,1.293-2.888,2.888-2.888h9.447
		c1.595,0,2.888,1.293,2.888,2.888v12.479C46.989,82.196,45.696,83.489,44.101,83.489z"/>
	
		<line display="inline" fill="none" stroke="#FF6C1A" stroke-width="3" stroke-linecap="round" stroke-linejoin="round" stroke-miterlimit="10" x1="37.755" y1="74.362" x2="40.915" y2="74.362"/>
	
		<line display="inline" fill="none" stroke="#FF6C1A" stroke-width="3" stroke-linecap="round" stroke-linejoin="round" stroke-miterlimit="10" x1="42.367" y1="91.106" x2="57.638" y2="91.106"/>
	
		<line display="inline" fill="none" stroke="#FF6C1A" stroke-width="3" stroke-linecap="round" stroke-linejoin="round" stroke-miterlimit="10" x1="59.08" y1="53.032" x2="62.239" y2="53.032"/>
	
		<line display="inline" fill="none" stroke="#FF6C1A" stroke-width="3" stroke-linecap="round" stroke-linejoin="round" stroke-miterlimit="10" x1="59.08" y1="46.947" x2="62.239" y2="46.947"/>
</g>
<image display="none" overflow="visible" width="512" height="512" xlink:href="../../../Images/4813885.png"  transform="matrix(0.1896 0 0 0.1896 1.4681 1.4681)">
</image>
<g display="none">
	
		<line display="inline" fill="none" stroke="#FF6C1A" stroke-width="3" stroke-linecap="round" stroke-linejoin="round" stroke-miterlimit="10" x1="22.57" y1="23.253" x2="40.74" y2="12.785"/>
	
		<line display="inline" fill="none" stroke="#FF6C1A" stroke-width="3" stroke-linecap="round" stroke-linejoin="round" stroke-miterlimit="10" x1="59.181" y1="12.713" x2="77.35" y2="23.268"/>
	
		<line display="inline" fill="none" stroke="#FF6C1A" stroke-width="3" stroke-linecap="round" stroke-linejoin="round" stroke-miterlimit="10" x1="22.57" y1="76.79" x2="40.74" y2="87.258"/>
	
		<line display="inline" fill="none" stroke="#FF6C1A" stroke-width="3" stroke-linecap="round" stroke-linejoin="round" stroke-miterlimit="10" x1="59.181" y1="87.33" x2="77.35" y2="76.775"/>
	
		<line display="inline" fill="none" stroke="#FF6C1A" stroke-width="3" stroke-linecap="round" stroke-linejoin="round" stroke-miterlimit="10" x1="13.128" y1="39.213" x2="13.128" y2="60.617"/>
	
		<line display="inline" fill="none" stroke="#FF6C1A" stroke-width="3" stroke-linecap="round" stroke-linejoin="round" stroke-miterlimit="10" x1="86.915" y1="39.213" x2="86.915" y2="60.617"/>
	
		<circle display="inline" fill="none" stroke="#FF6C1A" stroke-width="3" stroke-linecap="round" stroke-linejoin="round" stroke-miterlimit="10" cx="86.5" cy="71.277" r="4.5"/>
	
		<circle display="inline" fill="none" stroke="#FF6C1A" stroke-width="3" stroke-linecap="round" stroke-linejoin="round" stroke-miterlimit="10" cx="50" cy="92.548" r="4.5"/>
	
		<circle display="inline" fill="none" stroke="#FF6C1A" stroke-width="3" stroke-linecap="round" stroke-linejoin="round" stroke-miterlimit="10" cx="50" cy="7.441" r="4.5"/>
	
		<circle display="inline" fill="none" stroke="#FF6C1A" stroke-width="3" stroke-linecap="round" stroke-linejoin="round" stroke-miterlimit="10" cx="13.521" cy="71.277" r="4.5"/>
	
		<circle display="inline" fill="none" stroke="#FF6C1A" stroke-width="3" stroke-linecap="round" stroke-linejoin="round" stroke-miterlimit="10" cx="13.521" cy="28.761" r="4.5"/>
	
		<circle display="inline" fill="none" stroke="#FF6C1A" stroke-width="3" stroke-linecap="round" stroke-linejoin="round" stroke-miterlimit="10" cx="86.5" cy="28.761" r="4.5"/>
	
		<polygon display="inline" fill="none" stroke="#FF6C1A" stroke-width="3" stroke-linecap="round" stroke-linejoin="round" stroke-miterlimit="10" points="
		50,23.723 72.681,37 72.681,63.234 50,76.383 27.298,63.234 27.298,37.064 	"/>
	
		<polyline display="inline" fill="none" stroke="#FF6C1A" stroke-width="3" stroke-linecap="round" stroke-linejoin="round" stroke-miterlimit="10" points="
		28.255,37.383 49.989,50 49.989,75.298 	"/>
	
		<line display="inline" fill="none" stroke="#FF6C1A" stroke-width="3" stroke-linecap="round" stroke-linejoin="round" stroke-miterlimit="10" x1="50.596" y1="49.574" x2="66.362" y2="40.574"/>
	
		<line display="inline" fill="none" stroke="#FF6C1A" stroke-width="3" stroke-linecap="round" stroke-linejoin="round" stroke-miterlimit="10" x1="40.101" y1="42.718" x2="60.271" y2="30.973"/>
	
		<line display="inline" fill="none" stroke="#FF6C1A" stroke-width="3" stroke-linecap="round" stroke-linejoin="round" stroke-miterlimit="10" x1="38.66" y1="44.319" x2="38.66" y2="51.543"/>
</g>
<image display="none" overflow="visible" width="512" height="512" xlink:href="../../../Images/2600354.png"  transform="matrix(0.1914 0 0 0.1914 1 1)">
</image>
<g>
	<path fill="none" stroke="#FF6C1A" stroke-width="3" stroke-linecap="round" stroke-linejoin="round" stroke-miterlimit="10" d="
		M73.511,31.979v-7.553c0-8.566-6.944-15.511-15.511-15.511H17.915c-8.566,0-15.511,6.944-15.511,15.511v17.809
		c0,0,1.83,8,6.298,10.34c0,0,2.298,0.298,2.34,4.213v8.681l11.064-9.404h3.064"/>
	<path fill="none" stroke="#FF6C1A" stroke-width="3" stroke-linecap="round" stroke-linejoin="round" stroke-miterlimit="10" d="
		M89.531,78.507c4.826-2.599,8.108-7.695,8.108-13.561V48.883c0-8.502-6.892-15.394-15.394-15.394H41.819
		c-8.502,0-15.394,6.892-15.394,15.394v16.064c0,8.502,6.892,15.394,15.394,15.394h34.903c0-0.007-0.003-0.014-0.003-0.021"/>
	
		<polyline fill="none" stroke="#FF6C1A" stroke-width="3" stroke-linecap="round" stroke-linejoin="round" stroke-miterlimit="10" points="
		89.108,78.727 89.108,89.309 89.108,91.319 76.916,80.507 	"/>
	
		<line fill="none" stroke="#FF6C1A" stroke-width="3" stroke-linecap="round" stroke-linejoin="round" stroke-miterlimit="10" x1="70.574" y1="45.809" x2="82.391" y2="45.809"/>
	
		<line fill="none" stroke="#FF6C1A" stroke-width="3" stroke-linecap="round" stroke-linejoin="round" stroke-miterlimit="10" x1="70.574" y1="52.415" x2="79.718" y2="52.415"/>
	<path fill="none" stroke="#FF6C1A" stroke-width="3" stroke-linecap="round" stroke-linejoin="round" stroke-miterlimit="10" d="
		M61.989,63.489L61.989,63.489c-1.851,0-3.351-1.5-3.351-3.351v-5.17c0-1.851,1.5-3.351,3.351-3.351h0
		c1.851,0,3.351,1.5,3.351,3.351v5.17C65.34,61.989,63.84,63.489,61.989,63.489z"/>
	<path fill="none" stroke="#FF6C1A" stroke-width="3" stroke-linecap="round" stroke-linejoin="round" stroke-miterlimit="10" d="
		M38.245,63.489L38.245,63.489c-1.851,0-3.351-1.5-3.351-3.351v-5.17c0-1.851,1.5-3.351,3.351-3.351h0
		c1.851,0,3.351,1.5,3.351,3.351v5.17C41.596,61.989,40.095,63.489,38.245,63.489z"/>
	<path fill="none" stroke="#FF6C1A" stroke-width="3" stroke-linecap="round" stroke-linejoin="round" stroke-miterlimit="10" d="
		M61.973,51.286c-0.583-6.024-5.658-10.734-11.835-10.734c-6.249,0-11.361,4.821-11.846,10.945"/>
	<path fill="none" stroke="#FF6C1A" stroke-width="3" stroke-linecap="round" stroke-linejoin="round" stroke-miterlimit="10" d="
		M57.301,68.096c0.035,0.001,0.068,0.01,0.103,0.01c2.197,0,3.979-1.781,3.979-3.979"/>
	
		<ellipse fill="none" stroke="#FF6C1A" stroke-width="3" stroke-linecap="round" stroke-linejoin="round" stroke-miterlimit="10" cx="53.644" cy="69.027" rx="3.463" ry="2.633"/>
	
		<circle fill="none" stroke="#FF6C1A" stroke-width="3" stroke-linecap="round" stroke-linejoin="round" stroke-miterlimit="10" cx="15.447" cy="26.447" r="0.702"/>
	
		<circle fill="none" stroke="#FF6C1A" stroke-width="3" stroke-linecap="round" stroke-linejoin="round" stroke-miterlimit="10" cx="21.979" cy="26.447" r="0.702"/>
	
		<circle fill="none" stroke="#FF6C1A" stroke-width="3" stroke-linecap="round" stroke-linejoin="round" stroke-miterlimit="10" cx="28.617" cy="26.447" r="0.702"/>
</g>
</svg>
