<?xml version="1.0" encoding="utf-8"?>
<!-- Generator: Adobe Illustrator 26.0.1, SVG Export Plug-In . SVG Version: 6.00 Build 0)  -->
<svg version="1.1" id="Layer_1" xmlns="http://www.w3.org/2000/svg" xmlns:xlink="http://www.w3.org/1999/xlink" x="0px" y="0px"
	 viewBox="0 0 100 100" enable-background="new 0 0 100 100" xml:space="preserve">
<image display="none" overflow="visible" width="512" height="512" xlink:href="../../../Images/687529.png"  transform="matrix(0.1911 0 0 0.1911 1.0851 1.0851)">
</image>
<g display="none">
	
		<circle display="inline" fill="none" stroke="#FF6C1A" stroke-width="3" stroke-linecap="round" stroke-linejoin="round" stroke-miterlimit="10" cx="50" cy="50" r="46.851"/>
	
		<polygon display="inline" fill="none" stroke="#FF6C1A" stroke-width="3" stroke-linecap="round" stroke-linejoin="round" stroke-miterlimit="10" points="
		41.979,24.755 58.511,24.755 58.511,41.606 75.936,41.606 75.936,58.33 58.638,58.33 58.638,75.245 41.979,75.245 41.979,58.521 
		24.681,58.521 24.681,41.734 41.532,41.734 41.532,24.755 	"/>
</g>
<image display="none" overflow="visible" width="512" height="512" xlink:href="../../../Images/2939207.png"  transform="matrix(0.1906 0 0 0.1906 1.2128 1.2128)">
</image>
<g display="none">
	
		<polygon display="inline" fill="none" stroke="#FF6C1A" stroke-width="3" stroke-linecap="round" stroke-linejoin="round" stroke-miterlimit="10" points="
		1.915,32.428 49.783,9.592 98.085,32.428 50,55.198 	"/>
	
		<path display="inline" fill="none" stroke="#FF6C1A" stroke-width="3" stroke-linecap="round" stroke-linejoin="round" stroke-miterlimit="10" d="
		M18.617,41.605c0,2.414,0,4.827,0,7.241c0,1.803,0,3.607,0,5.41c0,3.52,0.767,6.102,3.006,8.845
		c7.917,9.699,22.392,11.377,34.07,10.521c0.071-0.005,0.143-0.011,0.214-0.016c5.082-0.395,10.159-1.602,14.621-4.066
		c2.75-1.519,5.247-3.529,7.239-5.964c1.008-1.232,1.89-2.574,2.59-4.005c0.847-1.732,0.722-3.437,0.722-5.316
		c0-1.794,0-3.587,0-5.381c0-2.423,0-4.846,0-7.269"/>
	
		<line display="inline" fill="none" stroke="#FF6C1A" stroke-width="3" stroke-linecap="round" stroke-linejoin="round" stroke-miterlimit="10" x1="49.783" y1="31.775" x2="72.379" y2="43.171"/>
	
		<line display="inline" fill="none" stroke="#FF6C1A" stroke-width="3" stroke-linecap="round" stroke-linejoin="round" stroke-miterlimit="10" x1="72.988" y1="46.042" x2="72.988" y2="73.818"/>
	
		<circle display="inline" fill="none" stroke="#FF6C1A" stroke-width="3" stroke-linecap="round" stroke-linejoin="round" stroke-miterlimit="10" cx="73.184" cy="77.925" r="3.219"/>
	
		<polyline display="inline" fill="none" stroke="#FF6C1A" stroke-width="3" stroke-linecap="round" stroke-linejoin="round" stroke-miterlimit="10" points="
		71.552,81.143 70.813,90.408 75.663,90.408 74.749,81.143 	"/>
</g>
<image display="none" overflow="visible" width="512" height="512" xlink:href="../../../Images/1332655.png"  transform="matrix(0.1926 0 0 0.1926 0.7021 0.7021)">
</image>
<g display="none">
	
		<path display="inline" fill="none" stroke="#FF6C1A" stroke-width="3" stroke-linecap="round" stroke-linejoin="round" stroke-miterlimit="10" d="
		M1.894,4.957h10.809c0,0,6.213-0.596,8.085,6.809l8.106,51.085c0,0,0.638,6.894,8.234,7.149h50.149"/>
	
		<path display="inline" fill="none" stroke="#FF6C1A" stroke-width="3" stroke-linecap="round" stroke-linejoin="round" stroke-miterlimit="10" d="
		M23,19.255c0,0,74.809,0,74.809,0c-0.537,1.509-1.073,3.018-1.61,4.526c-1.186,3.334-2.371,6.669-3.557,10.003
		c-1.202,3.38-2.404,6.759-3.605,10.139c-0.62,1.549-0.905,3.335-1.823,4.734c-0.826,1.26-1.804,2.21-3.414,2.871
		c-2.545,1.045-5.932,1.173-8.904,1.021c-3.313-0.17-6.633-0.104-9.95-0.104c-0.986,0-1.972,0-2.958,0c-4.097,0-8.194,0-12.292,0
		c-3.763,0-7.525,0-11.288,0c-2.637,0-5.275,0-7.912,0c-0.769,0-1.537,0-2.306,0"/>
	
		<circle display="inline" fill="none" stroke="#FF6C1A" stroke-width="3" stroke-linecap="round" stroke-linejoin="round" stroke-miterlimit="10" cx="39.521" cy="87.186" r="7.676"/>
	
		<circle display="inline" fill="none" stroke="#FF6C1A" stroke-width="3" stroke-linecap="round" stroke-linejoin="round" stroke-miterlimit="10" cx="74.436" cy="87.186" r="7.676"/>
</g>
<image display="none" overflow="visible" width="512" height="512" xlink:href="../../../Images/1151465.png"  transform="matrix(0.1874 0 0 0.1874 2.0213 2.0213)">
</image>
<g display="none">
	
		<path display="inline" fill="none" stroke="#FF6C1A" stroke-width="3" stroke-linecap="round" stroke-linejoin="round" stroke-miterlimit="10" d="
		M87.553,80.021H12.745c-4.301,0-7.787-3.486-7.787-7.787V12.66c0-4.301,3.486-7.787,7.787-7.787h74.809
		c4.301,0,7.787,3.486,7.787,7.787v59.574C95.34,76.535,91.854,80.021,87.553,80.021z"/>
	
		<line display="inline" fill="none" stroke="#FF6C1A" stroke-width="3" stroke-linecap="round" stroke-linejoin="round" stroke-miterlimit="10" x1="34.234" y1="80.532" x2="18.937" y2="96.084"/>
	
		<line display="inline" fill="none" stroke="#FF6C1A" stroke-width="3" stroke-linecap="round" stroke-linejoin="round" stroke-miterlimit="10" x1="65.619" y1="80.532" x2="80.916" y2="96.084"/>
	
		<polygon display="inline" fill="none" stroke="#FF6C1A" stroke-width="3" stroke-linecap="round" stroke-linejoin="round" stroke-miterlimit="10" points="
		37.894,25.128 37.894,59.936 68.532,42.447 	"/>
</g>
<image display="none" overflow="visible" width="512" height="512" xlink:href="../../../Images/3069302.png"  transform="matrix(0.1861 0 0 0.1861 2.3617 2.3617)">
</image>
<g display="none">
	
		<circle display="inline" fill="none" stroke="#FF6C1A" stroke-width="3" stroke-linecap="round" stroke-linejoin="round" stroke-miterlimit="10" cx="50" cy="43.234" r="29.298"/>
	
		<circle display="inline" fill="none" stroke="#FF6C1A" stroke-width="3" stroke-linecap="round" stroke-linejoin="round" stroke-miterlimit="10" cx="58.638" cy="30.763" r="4.319"/>
	
		<polyline display="inline" fill="none" stroke="#FF6C1A" stroke-width="3" stroke-linecap="round" stroke-linejoin="round" stroke-miterlimit="10" points="
		23.936,54.574 45.383,36.872 73.383,59.426 	"/>
	
		<polyline display="inline" fill="none" stroke="#FF6C1A" stroke-width="3" stroke-linecap="round" stroke-linejoin="round" stroke-miterlimit="10" points="
		59.596,47.213 67.723,40.404 77.894,48.149 	"/>
	
		<path display="inline" fill="none" stroke="#FF6C1A" stroke-width="3" stroke-linecap="round" stroke-linejoin="round" stroke-miterlimit="10" d="
		M27.54,75.75c-1.97-2.21-3.85-4.5-5.61-6.87c-0.92-1.23-1.8-2.48-2.63-3.77c-4.922-7.65-9.447-16.02-8.627-25.34
		c0.627-7.123,3.222-14.012,7.444-19.784C25.507,9.886,37.493,3.79,50.01,3.79c14.349,0,27.851,8.037,34.71,20.641
		c4.385,8.057,6.637,18.691,3.074,27.381c-3.527,8.602-8.537,16.59-14.724,23.528"/>
	
		<path display="inline" fill="none" stroke="#FF6C1A" stroke-width="3" stroke-linecap="round" stroke-linejoin="round" stroke-miterlimit="10" d="
		M73.07,75.34c-3.261,3.851-6.723,7.526-10.287,11.096c-1.783,1.786-3.613,3.522-5.416,5.287c-1.483,1.452-2.946,3.036-4.88,3.89
		c-0.198,0.088-0.4,0.167-0.606,0.238c-4.697,1.608-8.058-2.713-10.887-5.724c-4.419-4.704-8.957-9.315-13.244-14.137
		c-0.07-0.08-0.14-0.16-0.21-0.24"/>
</g>
<image display="none" overflow="visible" width="512" height="512" xlink:href="../../../Images/3523183.png"  transform="matrix(0.1881 0 0 0.1881 1.8511 1.8511)">
</image>
<g display="none">
	
		<polygon display="inline" fill="none" stroke="#FF6C1A" stroke-width="3" stroke-linecap="round" stroke-linejoin="round" stroke-miterlimit="10" points="
		10.83,24.106 10.83,95.34 50,95.34 50,17.596 	"/>
	
		<polyline display="inline" fill="none" stroke="#FF6C1A" stroke-width="3" stroke-linecap="round" stroke-linejoin="round" stroke-miterlimit="10" points="
		23.915,94.128 23.915,82.479 37.447,82.479 37.447,94.574 	"/>
	
		<line display="inline" fill="none" stroke="#FF6C1A" stroke-width="3" stroke-linecap="round" stroke-linejoin="round" stroke-miterlimit="10" x1="3.426" y1="95.34" x2="96.633" y2="95.34"/>
	
		<polyline display="inline" fill="none" stroke="#FF6C1A" stroke-width="3" stroke-linecap="round" stroke-linejoin="round" stroke-miterlimit="10" points="
		88.702,94.574 88.702,30.404 51,30.404 	"/>
	
		<polyline display="inline" fill="none" stroke="#FF6C1A" stroke-width="3" stroke-linecap="round" stroke-linejoin="round" stroke-miterlimit="10" points="
		17.596,21.851 17.596,4.702 43.723,4.702 43.723,17.894 	"/>
	<path display="inline" fill="#FF6C1A" d="M39.319,33.394h-4.585c-0.276,0-0.5-0.224-0.5-0.5v-4.585c0-0.276,0.224-0.5,0.5-0.5
		h4.585c0.276,0,0.5,0.224,0.5,0.5v4.585C39.819,33.17,39.595,33.394,39.319,33.394z"/>
	<path display="inline" fill="#FF6C1A" d="M39.319,46.351h-4.585c-0.276,0-0.5-0.224-0.5-0.5v-4.585c0-0.276,0.224-0.5,0.5-0.5
		h4.585c0.276,0,0.5,0.224,0.5,0.5v4.585C39.819,46.127,39.595,46.351,39.319,46.351z"/>
	<path display="inline" fill="#FF6C1A" d="M26.362,46.351h-4.585c-0.276,0-0.5-0.224-0.5-0.5v-4.585c0-0.276,0.224-0.5,0.5-0.5
		h4.585c0.276,0,0.5,0.224,0.5,0.5v4.585C26.862,46.127,26.638,46.351,26.362,46.351z"/>
	<path display="inline" fill="#FF6C1A" d="M39.319,59.261h-4.585c-0.276,0-0.5-0.224-0.5-0.5v-4.585c0-0.276,0.224-0.5,0.5-0.5
		h4.585c0.276,0,0.5,0.224,0.5,0.5v4.585C39.819,59.037,39.595,59.261,39.319,59.261z"/>
	<path display="inline" fill="#FF6C1A" d="M26.362,59.261h-4.585c-0.276,0-0.5-0.224-0.5-0.5v-4.585c0-0.276,0.224-0.5,0.5-0.5
		h4.585c0.276,0,0.5,0.224,0.5,0.5v4.585C26.862,59.037,26.638,59.261,26.362,59.261z"/>
	<path display="inline" fill="#FF6C1A" d="M39.319,72.25h-4.585c-0.276,0-0.5-0.224-0.5-0.5v-4.585c0-0.276,0.224-0.5,0.5-0.5h4.585
		c0.276,0,0.5,0.224,0.5,0.5v4.585C39.819,72.026,39.595,72.25,39.319,72.25z"/>
	<path display="inline" fill="#FF6C1A" d="M26.362,72.25h-4.585c-0.276,0-0.5-0.224-0.5-0.5v-4.585c0-0.276,0.224-0.5,0.5-0.5h4.585
		c0.276,0,0.5,0.224,0.5,0.5v4.585C26.862,72.026,26.638,72.25,26.362,72.25z"/>
	<path display="inline" fill="#FF6C1A" d="M78.229,46.351h-4.585c-0.276,0-0.5-0.224-0.5-0.5v-4.585c0-0.276,0.224-0.5,0.5-0.5
		h4.585c0.276,0,0.5,0.224,0.5,0.5v4.585C78.729,46.127,78.505,46.351,78.229,46.351z"/>
	<path display="inline" fill="#FF6C1A" d="M65.271,46.351h-4.585c-0.276,0-0.5-0.224-0.5-0.5v-4.585c0-0.276,0.224-0.5,0.5-0.5
		h4.585c0.276,0,0.5,0.224,0.5,0.5v4.585C65.771,46.127,65.547,46.351,65.271,46.351z"/>
	<path display="inline" fill="#FF6C1A" d="M78.229,59.261h-4.585c-0.276,0-0.5-0.224-0.5-0.5v-4.585c0-0.276,0.224-0.5,0.5-0.5
		h4.585c0.276,0,0.5,0.224,0.5,0.5v4.585C78.729,59.037,78.505,59.261,78.229,59.261z"/>
	<path display="inline" fill="#FF6C1A" d="M65.271,59.261h-4.585c-0.276,0-0.5-0.224-0.5-0.5v-4.585c0-0.276,0.224-0.5,0.5-0.5
		h4.585c0.276,0,0.5,0.224,0.5,0.5v4.585C65.771,59.037,65.547,59.261,65.271,59.261z"/>
	<path display="inline" fill="#FF6C1A" d="M78.229,72.25h-4.585c-0.276,0-0.5-0.224-0.5-0.5v-4.585c0-0.276,0.224-0.5,0.5-0.5h4.585
		c0.276,0,0.5,0.224,0.5,0.5v4.585C78.729,72.026,78.505,72.25,78.229,72.25z"/>
	<path display="inline" fill="#FF6C1A" d="M65.271,72.25h-4.585c-0.276,0-0.5-0.224-0.5-0.5v-4.585c0-0.276,0.224-0.5,0.5-0.5h4.585
		c0.276,0,0.5,0.224,0.5,0.5v4.585C65.771,72.026,65.547,72.25,65.271,72.25z"/>
	<path display="inline" fill="#FF6C1A" d="M78.229,85.144h-4.585c-0.276,0-0.5-0.224-0.5-0.5v-4.585c0-0.276,0.224-0.5,0.5-0.5
		h4.585c0.276,0,0.5,0.224,0.5,0.5v4.585C78.729,84.92,78.505,85.144,78.229,85.144z"/>
	<path display="inline" fill="#FF6C1A" d="M65.271,85.144h-4.585c-0.276,0-0.5-0.224-0.5-0.5v-4.585c0-0.276,0.224-0.5,0.5-0.5
		h4.585c0.276,0,0.5,0.224,0.5,0.5v4.585C65.771,84.92,65.547,85.144,65.271,85.144z"/>
</g>
<image display="none" overflow="visible" width="512" height="512" xlink:href="../../../Images/271035.png"  transform="matrix(0.1894 0 0 0.1894 1.5106 1.5106)">
</image>
<g>
	<path fill="none" stroke="#FF6C1A" stroke-width="3" stroke-miterlimit="10" d="M82.191,73.298H8.234
		c-2.797,0-5.064-2.267-5.064-5.064V17.17c0-2.797,2.267-5.064,5.064-5.064h73.957c2.797,0,5.064,2.267,5.064,5.064v51.064
		C87.255,71.031,84.988,73.298,82.191,73.298z"/>
	<path fill="none" stroke="#FF6C1A" stroke-width="3" stroke-miterlimit="10" d="M8.497,74.561c-0.279,2.783,1.75,5.265,4.532,5.545
		l73.239,7.356c2.783,0.279,5.265-1.75,5.545-4.532l5.107-50.843c0.279-2.783-1.75-5.265-4.532-5.544L87.1,26.011"/>
	
		<rect x="53.468" y="49.468" fill="none" stroke="#FF6C1A" stroke-width="3" stroke-linecap="round" stroke-linejoin="round" stroke-miterlimit="10" width="25.277" height="13.957"/>
	
		<line fill="none" stroke="#FF6C1A" stroke-width="3" stroke-linecap="round" stroke-linejoin="round" stroke-miterlimit="10" x1="4.191" y1="20.191" x2="86.66" y2="20.191"/>
	
		<line fill="none" stroke="#FF6C1A" stroke-width="3" stroke-linecap="round" stroke-linejoin="round" stroke-miterlimit="10" x1="4.191" y1="33.043" x2="86.66" y2="33.043"/>
	
		<line fill="none" stroke="#FF6C1A" stroke-width="3" stroke-linecap="round" stroke-linejoin="round" stroke-miterlimit="10" x1="28.846" y1="42.702" x2="41.995" y2="42.702"/>
	
		<line fill="none" stroke="#FF6C1A" stroke-width="3" stroke-linecap="round" stroke-linejoin="round" stroke-miterlimit="10" x1="9.473" y1="42.702" x2="22.622" y2="42.702"/>
	
		<line fill="none" stroke="#FF6C1A" stroke-width="3" stroke-linecap="round" stroke-linejoin="round" stroke-miterlimit="10" x1="9.473" y1="49.239" x2="30.702" y2="49.239"/>
	
		<line fill="none" stroke="#FF6C1A" stroke-width="3" stroke-linecap="round" stroke-linejoin="round" stroke-miterlimit="10" x1="37" y1="49.239" x2="41.995" y2="49.239"/>
</g>
</svg>
