<?xml version="1.0" encoding="utf-8"?>
<!-- Generator: Adobe Illustrator 26.0.1, SVG Export Plug-In . SVG Version: 6.00 Build 0)  -->
<svg version="1.1" id="Layer_1" xmlns="http://www.w3.org/2000/svg" xmlns:xlink="http://www.w3.org/1999/xlink" x="0px" y="0px"
	 viewBox="0 0 100 100" enable-background="new 0 0 100 100" xml:space="preserve">
<image display="none" overflow="visible" width="512" height="512" xlink:href="../../../Images/687529.png"  transform="matrix(0.1911 0 0 0.1911 1.0851 1.0851)">
</image>
<g display="none">
	
		<circle display="inline" fill="none" stroke="#FF6C1A" stroke-width="3" stroke-linecap="round" stroke-linejoin="round" stroke-miterlimit="10" cx="50" cy="50" r="46.851"/>
	
		<polygon display="inline" fill="none" stroke="#FF6C1A" stroke-width="3" stroke-linecap="round" stroke-linejoin="round" stroke-miterlimit="10" points="
		41.979,24.755 58.511,24.755 58.511,41.606 75.936,41.606 75.936,58.33 58.638,58.33 58.638,75.245 41.979,75.245 41.979,58.521 
		24.681,58.521 24.681,41.734 41.532,41.734 41.532,24.755 	"/>
</g>
<image display="none" overflow="visible" width="512" height="512" xlink:href="../../../Images/2939207.png"  transform="matrix(0.1906 0 0 0.1906 1.2128 1.2128)">
</image>
<g>
	
		<polygon fill="none" stroke="#FF6C1A" stroke-width="3" stroke-linecap="round" stroke-linejoin="round" stroke-miterlimit="10" points="
		1.915,32.428 49.783,9.592 98.085,32.428 50,55.198 	"/>
	<path fill="none" stroke="#FF6C1A" stroke-width="3" stroke-linecap="round" stroke-linejoin="round" stroke-miterlimit="10" d="
		M18.617,41.605c0,2.414,0,4.827,0,7.241c0,1.803,0,3.607,0,5.41c0,3.52,0.767,6.102,3.006,8.845
		c7.917,9.699,22.392,11.377,34.07,10.521c0.071-0.005,0.143-0.011,0.214-0.016c5.082-0.395,10.159-1.602,14.621-4.066
		c2.75-1.519,5.247-3.529,7.239-5.964c1.008-1.232,1.89-2.574,2.59-4.005c0.847-1.732,0.722-3.437,0.722-5.316
		c0-1.794,0-3.587,0-5.381c0-2.423,0-4.846,0-7.269"/>
	
		<line fill="none" stroke="#FF6C1A" stroke-width="3" stroke-linecap="round" stroke-linejoin="round" stroke-miterlimit="10" x1="49.783" y1="31.775" x2="72.379" y2="43.171"/>
	
		<line fill="none" stroke="#FF6C1A" stroke-width="3" stroke-linecap="round" stroke-linejoin="round" stroke-miterlimit="10" x1="72.988" y1="46.042" x2="72.988" y2="73.818"/>
	
		<circle fill="none" stroke="#FF6C1A" stroke-width="3" stroke-linecap="round" stroke-linejoin="round" stroke-miterlimit="10" cx="73.184" cy="77.925" r="3.219"/>
	
		<polyline fill="none" stroke="#FF6C1A" stroke-width="3" stroke-linecap="round" stroke-linejoin="round" stroke-miterlimit="10" points="
		71.552,81.143 70.813,90.408 75.663,90.408 74.749,81.143 	"/>
</g>
</svg>
