<svg id="Group_3767" data-name="Group 3767" xmlns="http://www.w3.org/2000/svg" xmlns:xlink="http://www.w3.org/1999/xlink" width="96.454" height="110.64" viewBox="0 0 96.454 110.64">
  <defs>
    <clipPath id="clip-path">
      <rect id="Rectangle_746" data-name="Rectangle 746" width="96.454" height="110.64" fill="none"/>
    </clipPath>
  </defs>
  <g id="Group_3766" data-name="Group 3766" clip-path="url(#clip-path)">
    <path id="Path_6820" data-name="Path 6820" d="M48.195,86.025c-19.758,0-38.219-11.4-48-29.863a1.648,1.648,0,0,1,0-1.555c9.911-18.4,28.308-29.862,48-29.862S86.349,36.211,96.26,54.607a1.648,1.648,0,0,1,0,1.555C86.349,74.624,67.887,86.025,48.195,86.025M3.239,55.32C12.7,72.356,29.8,82.85,48.13,82.85S83.563,72.356,93.021,55.32c-9.393-16.972-26.559-27.4-44.826-27.4-18.332,0-35.434,10.429-44.956,27.4" fill="#ff6c1a" fill-rule="evenodd"/>
    <path id="Path_6821" data-name="Path 6821" d="M66.916,31.481a1.6,1.6,0,0,1-1.62-1.619V18.85a1.6,1.6,0,0,1,1.62-1.62H80.778a6.64,6.64,0,1,1,0,3.045H68.47v9.587a1.59,1.59,0,0,1-1.554,1.619M87.191,15.287a3.6,3.6,0,0,0-3.563,3.563,3.54,3.54,0,0,0,3.563,3.5,3.531,3.531,0,0,0,0-7.061" fill="#ff6c1a" fill-rule="evenodd"/>
    <path id="Path_6822" data-name="Path 6822" d="M29.409,31.481a1.6,1.6,0,0,1-1.619-1.619V20.469H15.676A6.667,6.667,0,1,1,9.2,12.242a6.657,6.657,0,0,1,6.477,5.118H29.409a1.6,1.6,0,0,1,1.62,1.619V29.862a1.691,1.691,0,0,1-1.62,1.619M9.069,15.287a3.531,3.531,0,1,0,3.5,3.563,3.5,3.5,0,0,0-3.5-3.563" fill="#ff6c1a" fill-rule="evenodd"/>
    <path id="Path_6823" data-name="Path 6823" d="M48.194,27.919A1.6,1.6,0,0,1,46.575,26.3V15.611a1.619,1.619,0,1,1,3.238,0V26.3a1.69,1.69,0,0,1-1.619,1.619" fill="#ff6c1a" fill-rule="evenodd"/>
    <path id="Path_6824" data-name="Path 6824" d="M48.194,17.1a8.55,8.55,0,1,1,8.551-8.55,8.5,8.5,0,0,1-8.551,8.55m0-13.927a5.283,5.283,0,0,0-5.377,5.377,5.409,5.409,0,1,0,10.818,0,5.547,5.547,0,0,0-5.441-5.377" fill="#ff6c1a" fill-rule="evenodd"/>
    <path id="Path_6825" data-name="Path 6825" d="M87.191,98.591A6.63,6.63,0,0,1,80.713,93.6h-13.8a1.645,1.645,0,0,1-1.62-1.619V80.907a1.62,1.62,0,1,1,3.239,0v9.522H80.778a6.666,6.666,0,0,1,13.15,1.555,6.792,6.792,0,0,1-6.737,6.607m0-10.17a3.6,3.6,0,0,0-3.563,3.563,3.54,3.54,0,0,0,3.563,3.5,3.531,3.531,0,0,0,0-7.061" fill="#ff6c1a" fill-rule="evenodd"/>
    <path id="Path_6826" data-name="Path 6826" d="M9.069,98.591a6.64,6.64,0,1,1,6.478-8.162H27.79V80.907a1.619,1.619,0,1,1,3.239,0V91.984a1.645,1.645,0,0,1-1.62,1.619H15.676a6.781,6.781,0,0,1-6.607,4.988m0-10.17a3.5,3.5,0,0,0-3.5,3.563,3.569,3.569,0,0,0,3.5,3.5,3.569,3.569,0,0,0,3.5-3.5,3.384,3.384,0,0,0-3.5-3.563" fill="#ff6c1a" fill-rule="evenodd"/>
    <path id="Path_6827" data-name="Path 6827" d="M48.194,96.713a1.6,1.6,0,0,1-1.619-1.619V84.4a1.619,1.619,0,0,1,3.238,0V95.094a1.643,1.643,0,0,1-1.619,1.619" fill="#ff6c1a" fill-rule="evenodd"/>
    <path id="Path_6828" data-name="Path 6828" d="M48.194,110.64a8.518,8.518,0,1,1,8.551-8.55,8.5,8.5,0,0,1-8.551,8.55m0-13.927a5.283,5.283,0,0,0-5.377,5.377,5.409,5.409,0,1,0,10.818,0,5.594,5.594,0,0,0-5.441-5.377" fill="#ff6c1a" fill-rule="evenodd"/>
    <path id="Path_6829" data-name="Path 6829" d="M48.194,73.976A18.591,18.591,0,1,1,66.72,55.32,18.6,18.6,0,0,1,48.194,73.976m0-34.008A15.417,15.417,0,1,0,63.611,55.32,15.454,15.454,0,0,0,48.194,39.968" fill="#ff6c1a" fill-rule="evenodd"/>
    <path id="Path_6830" data-name="Path 6830" d="M36.794,56.939a1.6,1.6,0,0,1-1.619-1.619A12.925,12.925,0,0,1,48.13,42.494a1.619,1.619,0,1,1,0,3.238,9.8,9.8,0,0,0-9.781,9.717,1.613,1.613,0,0,1-1.555,1.49" fill="#ff6c1a" fill-rule="evenodd"/>
  </g>
</svg>
