<svg id="Group_3763" data-name="Group 3763" xmlns="http://www.w3.org/2000/svg" xmlns:xlink="http://www.w3.org/1999/xlink" width="110.576" height="110.574" viewBox="0 0 110.576 110.574">
  <defs>
    <clipPath id="clip-path">
      <rect id="Rectangle_732" data-name="Rectangle 732" width="110.576" height="110.574" transform="translate(0 0)" fill="none"/>
    </clipPath>
  </defs>
  <g id="Group_3762" data-name="Group 3762" clip-path="url(#clip-path)">
    <path id="Path_6806" data-name="Path 6806" d="M31.86,47.235h71.158a7.525,7.525,0,0,1,5.337,2.218v.013a7.515,7.515,0,0,1,2.218,5.324v48.231a7.573,7.573,0,0,1-7.555,7.553H31.86a7.573,7.573,0,0,1-7.554-7.553V54.79a7.573,7.573,0,0,1,7.554-7.555Zm71.158,3.454H31.86a4.135,4.135,0,0,0-4.1,4.1v48.231a4.114,4.114,0,0,0,4.1,4.1h71.158a4.094,4.094,0,0,0,4.1-4.1V54.79a4.1,4.1,0,0,0-1.2-2.9V51.9A4.111,4.111,0,0,0,103.018,50.689Z" fill="#ff6c1a"/>
    <path id="Path_6807" data-name="Path 6807" d="M53.014,32.833H81.878A5.952,5.952,0,0,1,86.111,34.6a6.026,6.026,0,0,1,1.763,4.233V50.688H77.13V43.35H57.763v7.339H47.018V38.829a6,6,0,0,1,6-6m28.863,3.454H53.014a2.556,2.556,0,0,0-2.541,2.542v8.405h3.836V39.9H80.584v7.339H84.42V38.829a2.524,2.524,0,0,0-.743-1.786h-.013a2.49,2.49,0,0,0-1.787-.756" fill="#ff6c1a"/>
    <path id="Path_6808" data-name="Path 6808" d="M19.078,93.727a1.726,1.726,0,1,1,0,3.452H5.181a5.213,5.213,0,0,1-3.658-1.522v-.012A5.169,5.169,0,0,1,0,91.987V5.181A5.2,5.2,0,0,1,5.181,0H53.757a5.1,5.1,0,0,1,2.088.432A5.559,5.559,0,0,1,57.572,1.68v0L70.607,15.626c.035.037.06.072.1.108a5.124,5.124,0,0,1,.935,1.523,5.391,5.391,0,0,1,.336,1.871v8.466a1.733,1.733,0,0,1-3.466,0V19.128a1.843,1.843,0,0,0-.1-.648,2.474,2.474,0,0,0-.264-.444c-.024-.023-.049-.035-.072-.059L55.053,4.031a2.122,2.122,0,0,0-.6-.445,1.809,1.809,0,0,0-.695-.131H5.181a1.677,1.677,0,0,0-1.211.516l-.012-.012a1.739,1.739,0,0,0-.5,1.222V91.987a1.718,1.718,0,0,0,.5,1.223l.012.012a1.761,1.761,0,0,0,1.211.5Z" fill="#ff6c1a"/>
    <path id="Path_6809" data-name="Path 6809" d="M61.18,78.714,31.55,73.088a9.828,9.828,0,0,1-5.18-2.578,6.826,6.826,0,0,1-2.064-4.94H27.76a3.465,3.465,0,0,0,1.056,2.507,6.546,6.546,0,0,0,3.369,1.63l29.631,5.624ZM110.573,65.57A6.8,6.8,0,0,1,108.51,70.5v.012a9.835,9.835,0,0,1-5.168,2.578L73.711,78.76l-.647-3.381,29.631-5.672a6.633,6.633,0,0,0,3.381-1.63,3.454,3.454,0,0,0,1.043-2.507Z" fill="#ff6c1a"/>
    <path id="Path_6810" data-name="Path 6810" d="M44.008,15.433a1.727,1.727,0,1,1,0,3.454h-24.1a1.727,1.727,0,0,1,0-3.454Zm-32.329,0a1.727,1.727,0,1,1,0,3.454H10.385a1.727,1.727,0,1,1,0-3.454Z" fill="#ff6c1a"/>
    <path id="Path_6811" data-name="Path 6811" d="M32.651,31.107a1.727,1.727,0,1,1,0,3.453H19.905a1.727,1.727,0,1,1,0-3.453Zm-20.972,0a1.727,1.727,0,1,1,0,3.453h-1.3a1.727,1.727,0,1,1,0-3.453Z" fill="#ff6c1a"/>
    <path id="Path_6812" data-name="Path 6812" d="M44.008,23.276a1.727,1.727,0,1,1,0,3.454h-24.1a1.727,1.727,0,0,1,0-3.454Zm-32.329,0a1.727,1.727,0,1,1,0,3.454H10.385a1.727,1.727,0,1,1,0-3.454Z" fill="#ff6c1a"/>
    <path id="Path_6813" data-name="Path 6813" d="M55.532.636,71.252,17.7a1.727,1.727,0,0,1-1.271,2.89H59.154a6.666,6.666,0,0,1-4.725-1.966c-.035-.037-.072-.072-.108-.108A6.656,6.656,0,0,1,52.462,13.9V1.728A1.728,1.728,0,0,1,54.19,0,1.76,1.76,0,0,1,55.532.636Zm10.517,16.5L55.916,6.152V13.9a3.232,3.232,0,0,0,.876,2.218c.023.024.048.048.072.072a3.233,3.233,0,0,0,2.29.947Z" fill="#ff6c1a"/>
    <path id="Path_6814" data-name="Path 6814" d="M78.52,9.306a1.726,1.726,0,0,1-3.381-.7l.66-3.142.863-4.088A1.729,1.729,0,0,1,78.352,0H84.4a1.734,1.734,0,0,1,1.715,1.5l1.27,6.043a23.7,23.7,0,0,1,2.59.9,22.265,22.265,0,0,1,2.47,1.2L97.73,6.188a1.72,1.72,0,0,1,2.146.228h.012l2.135,2.134c.023.037.06.061.085.1l2.05,2.051a1.713,1.713,0,0,1,.192,2.194l-3.418,5.24a22.509,22.509,0,0,1,1.211,2.47,26.051,26.051,0,0,1,.887,2.59l6.164,1.307a1.713,1.713,0,0,1,1.38,1.775v5.949a1.724,1.724,0,0,1-1.5,1.715l-6.044,1.271a24.32,24.32,0,0,1-.887,2.59,22.26,22.26,0,0,1-1.786,3.43,1.725,1.725,0,1,1-2.914-1.848,18.89,18.89,0,0,0,1.511-2.9,19.321,19.321,0,0,0,.971-3.021,1.723,1.723,0,0,1,1.344-1.4l5.85-1.224V29.2h.012V27.582l-5.864-1.236a1.726,1.726,0,0,1-1.331-1.307,18.061,18.061,0,0,0-.983-3.117,18.984,18.984,0,0,0-1.512-2.9,1.739,1.739,0,0,1,.012-1.859l3.275-5.013-1.057-1.067A.636.636,0,0,1,99.577,11L98.426,9.847l-4.9,3.2a1.711,1.711,0,0,1-1.965.083,19.076,19.076,0,0,0-2.9-1.51,19.331,19.331,0,0,0-3.034-.971,1.7,1.7,0,0,1-1.391-1.344L82.992,3.455h-3.25l-.563,2.709Zm2.854,9.2a1.727,1.727,0,1,1,0-3.454A14.145,14.145,0,0,1,95.523,29.2a13.956,13.956,0,0,1-.324,3.022,14.344,14.344,0,0,1-.958,2.878,1.72,1.72,0,1,1-3.129-1.427A10.474,10.474,0,0,0,91.83,31.5a11.111,11.111,0,0,0,.24-2.3,10.683,10.683,0,0,0-10.7-10.7" fill="#ff6c1a"/>
    <path id="Path_6815" data-name="Path 6815" d="M61.744,65.619h11.4a3.261,3.261,0,0,1,2.3.958l.012.012a3.288,3.288,0,0,1,.959,2.316V81.544a8.982,8.982,0,0,1-17.964,0V68.9a3.246,3.246,0,0,1,.972-2.316v-.012A3.309,3.309,0,0,1,61.744,65.619Zm11.224,3.454H61.923V81.544a5.523,5.523,0,0,0,11.045,0Z" fill="#ff6c1a"/>
    <path id="Path_6816" data-name="Path 6816" d="M67.439,79.588a1.727,1.727,0,1,1-1.727,1.727,1.727,1.727,0,0,1,1.727-1.727" fill="#ff6c1a"/>
  </g>
</svg>
