<svg id="Group_3747" data-name="Group 3747" xmlns="http://www.w3.org/2000/svg" xmlns:xlink="http://www.w3.org/1999/xlink" width="116" height="116" viewBox="0 0 116 116">
  <defs>
    <clipPath id="clip-path">
      <rect id="Rectangle_725" data-name="Rectangle 725" width="116" height="116" fill="none"/>
    </clipPath>
  </defs>
  <g id="Group_3746" data-name="Group 3746" clip-path="url(#clip-path)">
    <path id="Path_6749" data-name="Path 6749" d="M93.5,116h-71A22.534,22.534,0,0,1,0,93.5v-71A22.534,22.534,0,0,1,22.5,0h71A22.534,22.534,0,0,1,116,22.5v71A22.534,22.534,0,0,1,93.5,116" fill="#fff"/>
    <path id="Path_6750" data-name="Path 6750" d="M43.4,60.167H53.474a3.22,3.22,0,0,0,3.216-3.216V45.817A3.22,3.22,0,0,0,53.474,42.6H43.4a3.22,3.22,0,0,0-3.216,3.216V56.951A3.22,3.22,0,0,0,43.4,60.167m-.792-14.35a.8.8,0,0,1,.792-.792H53.474a.8.8,0,0,1,.792.792V56.951a.8.8,0,0,1-.792.792H43.4a.8.8,0,0,1-.792-.792Z" fill="#ff6c1a"/>
    <path id="Path_6751" data-name="Path 6751" d="M60.848,45.58H74.34a1.212,1.212,0,1,0,0-2.424H60.848a1.212,1.212,0,0,0,0,2.424" fill="#ff6c1a"/>
    <path id="Path_6752" data-name="Path 6752" d="M60.848,52.874H74.34a1.212,1.212,0,1,0,0-2.424H60.848a1.212,1.212,0,0,0,0,2.424" fill="#ff6c1a"/>
    <path id="Path_6753" data-name="Path 6753" d="M102.436,92.655l-7.162-9.162a1.95,1.95,0,0,0-2.734-.335l-1.05.821-1.414-1.806a16.008,16.008,0,0,0-8.654-26.945V35.65a3.673,3.673,0,0,0-3.669-3.669H75.186V29.635a3.673,3.673,0,0,0-3.669-3.669H31.378a3.673,3.673,0,0,0-3.669,3.669V81.712a3.673,3.673,0,0,0,3.669,3.669h2.567v2.351A3.671,3.671,0,0,0,37.614,91.4H77.753a3.672,3.672,0,0,0,3.669-3.665V86.8a15.9,15.9,0,0,0,6.842-3.011l1.317,1.682-1.054.824a1.948,1.948,0,0,0-.335,2.73L95.36,98.19a1.949,1.949,0,0,0,2.729.333l4.011-3.138A1.946,1.946,0,0,0,102.436,92.655Zm-71.058-9.7a1.246,1.246,0,0,1-1.245-1.245V29.635a1.247,1.247,0,0,1,1.245-1.246H71.517a1.247,1.247,0,0,1,1.245,1.245v2.347H37.614a3.673,3.673,0,0,0-3.669,3.669V82.957ZM79,87.732a1.245,1.245,0,0,1-1.245,1.241H37.614a1.244,1.244,0,0,1-1.245-1.241V35.65A1.246,1.246,0,0,1,37.614,34.4H77.753A1.247,1.247,0,0,1,79,35.65V54.965a16.016,16.016,0,0,0-9.449,2.778h-8.7a1.212,1.212,0,0,0,0,2.424h5.884a15.885,15.885,0,0,0-3.064,4.869H41.4a1.212,1.212,0,1,0,0,2.424H62.927a16.173,16.173,0,0,0-.331,4.87H41.4a1.212,1.212,0,1,0,0,2.424H62.979a15.956,15.956,0,0,0,2.055,4.869H41.4a1.212,1.212,0,1,0,0,2.424H66.92a15.951,15.951,0,0,0,11.133,5c.319.009.626,0,.945-.012Zm-.867-3.1a13.632,13.632,0,0,1,.426-27.257c.15,0,.3,0,.449.007a13.632,13.632,0,0,1-.875,27.25m18.842,11.69L90.4,87.911l3.26-2.55,6.574,8.409Z" fill="#ff6c1a"/>
    <path id="Path_6754" data-name="Path 6754" d="M86.506,63.558a10.875,10.875,0,1,0-.491,15.381A10.892,10.892,0,0,0,86.506,63.558ZM84.357,77.171A8.457,8.457,0,1,1,72.786,64.835h0a8.456,8.456,0,0,1,11.57,12.336Z" fill="#ff6c1a"/>
    <path id="Path_6755" data-name="Path 6755" d="M85.034,69.557a6.458,6.458,0,0,0-7.678-4.925A1.212,1.212,0,1,0,77.873,67a4.029,4.029,0,0,1,4.794,3.074,1.211,1.211,0,1,0,2.367-.517Z" fill="#ff6c1a"/>
  </g>
</svg>
