<svg id="Group_3769" data-name="Group 3769" xmlns="http://www.w3.org/2000/svg" xmlns:xlink="http://www.w3.org/1999/xlink" width="96.753" height="103.664" viewBox="0 0 96.753 103.664">
  <defs>
    <clipPath id="clip-path">
      <rect id="Rectangle_747" data-name="Rectangle 747" width="96.753" height="103.664" fill="none"/>
    </clipPath>
  </defs>
  <g id="Group_3768" data-name="Group 3768" clip-path="url(#clip-path)">
    <path id="Path_6831" data-name="Path 6831" d="M39.738,10.366H57.015a1.728,1.728,0,1,0,0-3.455H39.738a1.728,1.728,0,1,0,0,3.455" fill="#ff6c1a"/>
    <path id="Path_6832" data-name="Path 6832" d="M46.649,96.753H50.1a1.728,1.728,0,1,0,0-3.455H46.649a1.728,1.728,0,1,0,0,3.455" fill="#ff6c1a"/>
    <path id="Path_6833" data-name="Path 6833" d="M1.728,55.287A1.728,1.728,0,0,1,0,53.559V50.1a1.728,1.728,0,1,1,3.456,0v3.455a1.728,1.728,0,0,1-1.728,1.728" fill="#ff6c1a"/>
    <path id="Path_6834" data-name="Path 6834" d="M8.639,58.743a1.728,1.728,0,0,1-1.728-1.728V46.649a1.728,1.728,0,0,1,3.456,0V57.015a1.728,1.728,0,0,1-1.728,1.728" fill="#ff6c1a"/>
    <path id="Path_6835" data-name="Path 6835" d="M15.55,65.654a1.728,1.728,0,0,1-1.728-1.728V39.738a1.728,1.728,0,1,1,3.456,0V63.926a1.728,1.728,0,0,1-1.728,1.728" fill="#ff6c1a"/>
    <path id="Path_6836" data-name="Path 6836" d="M22.461,72.565a1.728,1.728,0,0,1-1.728-1.728V32.827a1.728,1.728,0,0,1,3.456,0v38.01a1.728,1.728,0,0,1-1.728,1.728" fill="#ff6c1a"/>
    <path id="Path_6837" data-name="Path 6837" d="M95.026,55.287A1.728,1.728,0,0,1,93.3,53.559V50.1a1.728,1.728,0,1,1,3.456,0v3.455a1.728,1.728,0,0,1-1.728,1.728" fill="#ff6c1a"/>
    <path id="Path_6838" data-name="Path 6838" d="M88.115,58.743a1.728,1.728,0,0,1-1.728-1.728V46.649a1.728,1.728,0,0,1,3.456,0V57.015a1.728,1.728,0,0,1-1.728,1.728" fill="#ff6c1a"/>
    <path id="Path_6839" data-name="Path 6839" d="M81.2,65.654a1.728,1.728,0,0,1-1.728-1.728V39.738a1.728,1.728,0,1,1,3.456,0V63.926A1.728,1.728,0,0,1,81.2,65.654" fill="#ff6c1a"/>
    <path id="Path_6840" data-name="Path 6840" d="M74.293,72.565a1.728,1.728,0,0,1-1.728-1.728V32.827a1.728,1.728,0,0,1,3.456,0v38.01a1.728,1.728,0,0,1-1.728,1.728" fill="#ff6c1a"/>
    <path id="Path_6841" data-name="Path 6841" d="M67.382,103.664H29.372a8.649,8.649,0,0,1-8.639-8.639V77.748a1.728,1.728,0,1,1,3.456,0V95.025a5.19,5.19,0,0,0,5.183,5.184h38.01a5.19,5.19,0,0,0,5.183-5.184V77.748a1.728,1.728,0,1,1,3.456,0V95.025a8.649,8.649,0,0,1-8.639,8.639" fill="#ff6c1a"/>
    <path id="Path_6842" data-name="Path 6842" d="M74.293,27.643a1.728,1.728,0,0,1-1.728-1.728V8.638a5.189,5.189,0,0,0-5.183-5.183H29.372a5.189,5.189,0,0,0-5.183,5.183V25.915a1.728,1.728,0,0,1-3.456,0V8.638A8.649,8.649,0,0,1,29.372,0h38.01a8.649,8.649,0,0,1,8.639,8.639V25.915a1.728,1.728,0,0,1-1.728,1.728" fill="#ff6c1a"/>
    <path id="Path_6843" data-name="Path 6843" d="M48.377,65.654A17.3,17.3,0,0,1,31.1,48.377a1.728,1.728,0,1,1,3.455,0,13.822,13.822,0,1,0,27.644,0,1.727,1.727,0,1,1,3.455,0A17.3,17.3,0,0,1,48.377,65.654" fill="#ff6c1a"/>
    <path id="Path_6844" data-name="Path 6844" d="M48.377,58.742A10.379,10.379,0,0,1,38.011,48.376V34.554a10.366,10.366,0,1,1,20.732,0V48.376A10.379,10.379,0,0,1,48.377,58.742m0-31.1a6.918,6.918,0,0,0-6.911,6.911V48.376a6.911,6.911,0,0,0,13.822,0V34.554a6.918,6.918,0,0,0-6.911-6.911" fill="#ff6c1a"/>
    <path id="Path_6845" data-name="Path 6845" d="M60.471,79.476H36.283a1.727,1.727,0,1,1,0-3.455h5.183a5.19,5.19,0,0,0,5.183-5.184V63.926a1.728,1.728,0,0,1,3.456,0v6.911a5.19,5.19,0,0,0,5.183,5.184h5.183a1.727,1.727,0,1,1,0,3.455" fill="#ff6c1a"/>
  </g>
</svg>
