<svg id="Group_3757" data-name="Group 3757" xmlns="http://www.w3.org/2000/svg" xmlns:xlink="http://www.w3.org/1999/xlink" width="116" height="116" viewBox="0 0 116 116">
  <defs>
    <clipPath id="clip-path">
      <rect id="Rectangle_730" data-name="Rectangle 730" width="116" height="116" fill="none"/>
    </clipPath>
  </defs>
  <g id="Group_3756" data-name="Group 3756" clip-path="url(#clip-path)">
    <path id="Path_6796" data-name="Path 6796" d="M93.5,116h-71A22.534,22.534,0,0,1,0,93.5v-71A22.534,22.534,0,0,1,22.5,0h71A22.534,22.534,0,0,1,116,22.5v71A22.534,22.534,0,0,1,93.5,116" fill="#fff"/>
    <path id="Path_6797" data-name="Path 6797" d="M25.462,53.6h7.813a1.26,1.26,0,0,0,1.258-1.263h-.238l.238-.005a1.262,1.262,0,0,0-1.258-1.257H25.462a1.262,1.262,0,0,0,0,2.524" fill="#ff6c1a"/>
    <path id="Path_6798" data-name="Path 6798" d="M41.081,48.391a1.273,1.273,0,0,0,1.267-1.268h0a1.273,1.273,0,0,0-1.268-1.261H25.462a1.265,1.265,0,1,0,0,2.53Z" fill="#ff6c1a"/>
    <path id="Path_6799" data-name="Path 6799" d="M35.869,30.243a1.265,1.265,0,0,0,0,2.529h0A1.265,1.265,0,0,0,37.137,31.5h0a1.269,1.269,0,0,0-1.268-1.261" fill="#ff6c1a"/>
    <path id="Path_6800" data-name="Path 6800" d="M30.664,30.243a1.265,1.265,0,0,0,0,2.529h0A1.262,1.262,0,0,0,31.932,31.5h0a1.273,1.273,0,0,0-1.268-1.26" fill="#ff6c1a"/>
    <path id="Path_6801" data-name="Path 6801" d="M25.462,30.243A1.262,1.262,0,1,0,26.724,31.5h0a1.268,1.268,0,0,0-1.262-1.261" fill="#ff6c1a"/>
    <path id="Path_6802" data-name="Path 6802" d="M93.949,25.121a3.641,3.641,0,0,0-.792-.088h-70.3a3.9,3.9,0,0,0-3.866,3.872V86.174a3.9,3.9,0,0,0,3.867,3.867H51.495a1.265,1.265,0,1,0,0-2.53H22.858a1.347,1.347,0,0,1-1.339-1.338v-48.2H94.487V86.171a1.34,1.34,0,0,1-.706,1.172,1.282,1.282,0,0,1-.637.168H85.335a1.265,1.265,0,0,0,0,2.53h7.81a3.886,3.886,0,0,0,3.866-3.868V28.9a3.9,3.9,0,0,0-3.062-3.778M21.519,35.447V28.9a1.354,1.354,0,0,1,1.338-1.339H93.14a1.353,1.353,0,0,1,.646.176,1.311,1.311,0,0,1,.695,1.161v6.548Z" fill="#ff6c1a"/>
    <path id="Path_6803" data-name="Path 6803" d="M60.437,64.315A12.977,12.977,0,0,0,47.266,84.354a1.264,1.264,0,0,0,1.74.406,1.259,1.259,0,0,0,.412-1.729.562.562,0,0,0-.063-.091,10.451,10.451,0,0,1,8.638-16.331h0a10.451,10.451,0,1,1,0,20.9,1.265,1.265,0,0,0,0,2.53h.02A12.772,12.772,0,0,0,63.13,88.98a12.976,12.976,0,0,0-2.693-24.665" fill="#ff6c1a"/>
    <path id="Path_6804" data-name="Path 6804" d="M82.969,73.22l-4.761-.956,0-.023a20.417,20.417,0,0,0-1.032-3.162l-.01-.023,3.3-3.571a1.271,1.271,0,0,0,.094-1.6l-3.062-4.213a1.261,1.261,0,0,0-1.553-.4L71.519,61.3,71.5,61.29a20.713,20.713,0,0,0-2.682-1.968l-.023-.014.57-4.817a1.272,1.272,0,0,0-.867-1.348l-4.952-1.609a1.277,1.277,0,0,0-1.491.584l-2.375,4.231-.024,0a20.015,20.015,0,0,0-3.33,0l-.023,0-2.375-4.233a1.277,1.277,0,0,0-1.492-.581l-4.953,1.608a1.272,1.272,0,0,0-.866,1.349l.567,4.819-.02.012a20.975,20.975,0,0,0-2.677,1.959l-.022.019L40.05,59.272a1.264,1.264,0,0,0-1.553.4l-3.062,4.218a1.26,1.26,0,0,0,.095,1.594l3.3,3.579-.008.019a21.858,21.858,0,0,0-1.037,3.166l-4.754.971a1.268,1.268,0,0,0-1.018,1.241v5.206a1.283,1.283,0,0,0,1.018,1.239l4.755.951.005.022c.159.657.351,1.318.574,1.968a1.269,1.269,0,0,0,.642.722,1.232,1.232,0,0,0,.97.057,1.262,1.262,0,0,0,.781-1.609,17.549,17.549,0,0,1-.669-2.48,1.271,1.271,0,0,0-1-1l-4.556-.915V75.493l4.555-.91a1.25,1.25,0,0,0,1-1,18.431,18.431,0,0,1,1.387-4.237,1.265,1.265,0,0,0-.217-1.39L38.1,64.536,39.94,62l4.227,1.944a1.249,1.249,0,0,0,1.393-.222,18.539,18.539,0,0,1,3.6-2.631,1.244,1.244,0,0,0,.645-1.25l-.544-4.609,2.983-.97,2.273,4.055a1.267,1.267,0,0,0,1.26.636,18.36,18.36,0,0,1,4.457,0,1.29,1.29,0,0,0,1.256-.638L63.76,54.26l2.982.97L66.2,59.841a1.267,1.267,0,0,0,.644,1.246,18.622,18.622,0,0,1,3.6,2.632,1.249,1.249,0,0,0,1.392.224L76.065,62,77.9,64.53l-3.15,3.424a1.252,1.252,0,0,0-.223,1.393,17.928,17.928,0,0,1,1.386,4.235,1.272,1.272,0,0,0,1,1l4.55.91v3.134l-4.55.915a1.264,1.264,0,0,0-1,1,18.158,18.158,0,0,1-1.386,4.235,1.262,1.262,0,0,0,.217,1.392l3.2,3.473a1.259,1.259,0,0,0,.925.408h0a1.273,1.273,0,0,0,1.271-1.224v-.068a1.306,1.306,0,0,0-.333-.832L77.169,85.06l.008-.022a20.91,20.91,0,0,0,1.036-3.156l4.762-.982a1.265,1.265,0,0,0,1.016-1.235L84,74.459a1.278,1.278,0,0,0-1.028-1.239" fill="#ff6c1a"/>
  </g>
</svg>
