<svg id="Group_3765" data-name="Group 3765" xmlns="http://www.w3.org/2000/svg" xmlns:xlink="http://www.w3.org/1999/xlink" width="107.12" height="107.059" viewBox="0 0 107.12 107.059">
  <defs>
    <clipPath id="clip-path">
      <rect id="Rectangle_745" data-name="Rectangle 745" width="107.12" height="107.059" transform="translate(0 0)" fill="none"/>
    </clipPath>
  </defs>
  <g id="Group_3764" data-name="Group 3764" clip-path="url(#clip-path)">
    <path id="Path_6817" data-name="Path 6817" d="M20.793,10.366A10.366,10.366,0,1,0,31.159,20.732,10.376,10.376,0,0,0,20.793,10.366m0,17.277A6.911,6.911,0,1,1,27.7,20.732a6.918,6.918,0,0,1-6.911,6.911" fill="#ff6c1a"/>
    <path id="Path_6818" data-name="Path 6818" d="M97.975,82.364l-2.443-2.443-12.6,12.6L80.7,90.287,78.255,92.73l4.677,4.677Z" fill="#ff6c1a"/>
    <rect id="Rectangle_733" data-name="Rectangle 733" width="3.455" height="3.455" transform="translate(58.743 18.944)" fill="#ff6c1a"/>
    <rect id="Rectangle_734" data-name="Rectangle 734" width="3.455" height="3.455" transform="translate(79.476 18.944)" fill="#ff6c1a"/>
    <rect id="Rectangle_735" data-name="Rectangle 735" width="3.455" height="3.455" transform="translate(72.565 18.944)" fill="#ff6c1a"/>
    <rect id="Rectangle_736" data-name="Rectangle 736" width="3.455" height="3.455" transform="translate(65.654 18.944)" fill="#ff6c1a"/>
    <path id="Path_6819" data-name="Path 6819" d="M39.738,62.138H67.382a5.189,5.189,0,0,0,5.183-5.183V55.227h22.46a12.109,12.109,0,0,0,12.1-12.094V31.039a12.109,12.109,0,0,0-12.1-12.094H89.842V17.217a5.189,5.189,0,0,0-5.183-5.183H57.015a5.189,5.189,0,0,0-5.183,5.183v1.728H41.526V15.959L36.991,14.72c-.149-.4-.315-.793-.494-1.183l2.334-4.088L32.079,2.7,27.993,5.029c-.393-.179-.787-.345-1.184-.494L25.569,0h-9.55l-1.24,4.535c-.4.149-.791.313-1.182.494L9.509,2.7,2.757,9.449,5.09,13.537c-.18.39-.346.786-.494,1.183L.06,15.959v9.548L4.6,26.747c.148.4.314.793.494,1.184L2.755,32.018l6.752,6.751L13.6,36.436c.391.18.785.346,1.182.494l1.241,4.536h9.549l1.24-4.536c.4-.148.792-.314,1.184-.494l4.086,2.331,6.752-6.75-2.334-4.088c.179-.391.345-.786.494-1.184l4.535-1.24V22.4H51.832v1.728a5.189,5.189,0,0,0,5.183,5.183H84.659a5.189,5.189,0,0,0,5.183-5.183V22.4h5.183a8.648,8.648,0,0,1,8.639,8.639V43.133a8.649,8.649,0,0,1-8.639,8.639H72.565V50.044a5.189,5.189,0,0,0-5.183-5.183H39.738a5.189,5.189,0,0,0-5.183,5.183v1.728H12.094A12.11,12.11,0,0,0,0,63.866V77.688A12.11,12.11,0,0,0,12.094,89.782h5.183V91.51a5.19,5.19,0,0,0,5.183,5.183H50.1a5.189,5.189,0,0,0,5.183-5.183V89.782H69.2a19.005,19.005,0,1,0,0-3.455H55.287V84.6A5.189,5.189,0,0,0,50.1,79.416H22.46A5.189,5.189,0,0,0,17.277,84.6v1.728H12.094a8.65,8.65,0,0,1-8.639-8.639V63.866a8.65,8.65,0,0,1,8.639-8.639H34.555v1.728a5.189,5.189,0,0,0,5.183,5.183M38.07,22.87l-3.788,1.037L34,24.814a13.835,13.835,0,0,1-.988,2.367l-.446.84,1.953,3.419L31.5,34.462l-3.421-1.951-.838.444a13.648,13.648,0,0,1-2.367.986l-.906.28L22.932,38.01H18.659l-1.038-3.789-.905-.28a13.733,13.733,0,0,1-2.367-.986l-.84-.444L10.09,34.462,7.066,31.44l1.953-3.419-.446-.84a13.756,13.756,0,0,1-.988-2.367l-.279-.907L3.517,22.87V18.6l3.789-1.035.28-.907a13.676,13.676,0,0,1,.987-2.366l.446-.841L7.066,10.028l3.02-3.022,3.419,1.951.84-.444a13.854,13.854,0,0,1,2.367-.989l.905-.28,1.039-3.789h4.273l1.038,3.789.905.28a13.7,13.7,0,0,1,2.367.989l.838.444L31.5,7.006l3.02,3.022-1.952,3.419.446.84A13.584,13.584,0,0,1,34,16.652l.28.907,3.789,1.035V22.87Zm48.317,1.258a1.73,1.73,0,0,1-1.728,1.728H57.015a1.73,1.73,0,0,1-1.728-1.728V17.217a1.73,1.73,0,0,1,1.728-1.728H84.659a1.73,1.73,0,0,1,1.728,1.728ZM88.114,72.5A15.549,15.549,0,1,1,72.565,88.054,15.567,15.567,0,0,1,88.114,72.5M20.733,84.6a1.728,1.728,0,0,1,1.727-1.728H50.1A1.728,1.728,0,0,1,51.832,84.6V91.51A1.728,1.728,0,0,1,50.1,93.237H22.46a1.728,1.728,0,0,1-1.727-1.727ZM38.01,50.044a1.73,1.73,0,0,1,1.728-1.728H67.382a1.73,1.73,0,0,1,1.727,1.728v6.911a1.728,1.728,0,0,1-1.727,1.728H39.738a1.728,1.728,0,0,1-1.728-1.728Z" fill="#ff6c1a"/>
    <rect id="Rectangle_737" data-name="Rectangle 737" width="3.455" height="3.455" transform="translate(55.288 51.771)" fill="#ff6c1a"/>
    <rect id="Rectangle_738" data-name="Rectangle 738" width="3.455" height="3.455" transform="translate(48.377 51.771)" fill="#ff6c1a"/>
    <rect id="Rectangle_739" data-name="Rectangle 739" width="3.455" height="3.455" transform="translate(41.466 51.771)" fill="#ff6c1a"/>
    <rect id="Rectangle_740" data-name="Rectangle 740" width="3.455" height="3.455" transform="translate(62.199 51.771)" fill="#ff6c1a"/>
    <rect id="Rectangle_741" data-name="Rectangle 741" width="3.455" height="3.455" transform="translate(31.099 86.326)" fill="#ff6c1a"/>
    <rect id="Rectangle_742" data-name="Rectangle 742" width="3.455" height="3.455" transform="translate(44.921 86.326)" fill="#ff6c1a"/>
    <rect id="Rectangle_743" data-name="Rectangle 743" width="3.455" height="3.455" transform="translate(38.01 86.326)" fill="#ff6c1a"/>
    <rect id="Rectangle_744" data-name="Rectangle 744" width="3.455" height="3.455" transform="translate(24.188 86.326)" fill="#ff6c1a"/>
  </g>
</svg>
