<svg id="Group_3751" data-name="Group 3751" xmlns="http://www.w3.org/2000/svg" xmlns:xlink="http://www.w3.org/1999/xlink" width="116" height="116" viewBox="0 0 116 116">
  <defs>
    <clipPath id="clip-path">
      <rect id="Rectangle_727" data-name="Rectangle 727" width="116" height="116" fill="none"/>
    </clipPath>
  </defs>
  <g id="Group_3750" data-name="Group 3750" clip-path="url(#clip-path)">
    <path id="Path_6763" data-name="Path 6763" d="M93.5,116h-71A22.534,22.534,0,0,1,0,93.5v-71A22.534,22.534,0,0,1,22.5,0h71A22.534,22.534,0,0,1,116,22.5v71A22.534,22.534,0,0,1,93.5,116" fill="#fff"/>
    <path id="Path_6764" data-name="Path 6764" d="M75.739,49.172,68.475,43.1a1.243,1.243,0,0,0-.842-.288,1.215,1.215,0,0,0-.714,2.151L73.074,50.1l-6.155,5.127a1.214,1.214,0,1,0,1.556,1.861l7.264-6.058a1.213,1.213,0,0,0,0-1.86" fill="#ff6c1a"/>
    <path id="Path_6765" data-name="Path 6765" d="M71.328,86.455H69.364a12.555,12.555,0,0,1-3.435-4.228,1.212,1.212,0,1,0-2.2,1.025,13.656,13.656,0,0,0,2.165,3.2H50.1a13.694,13.694,0,0,0,2.166-3.2,1.212,1.212,0,1,0-2.2-1.025,12.554,12.554,0,0,1-3.435,4.228H44.668A3.657,3.657,0,0,0,41.037,90.1v2.414a1.213,1.213,0,0,0,1.208,1.217H73.752a1.213,1.213,0,0,0,1.217-1.217V90.1a3.665,3.665,0,0,0-3.641-3.643m1.217,4.85H43.461V90.1a1.184,1.184,0,0,1,1.207-1.217h26.66A1.191,1.191,0,0,1,72.545,90.1Z" fill="#ff6c1a"/>
    <path id="Path_6766" data-name="Path 6766" d="M61.65,37.961a1.212,1.212,0,0,0-1.165.85L53.212,60.623a1.213,1.213,0,1,0,2.3.769l7.274-21.819a1.212,1.212,0,0,0-1.136-1.612" fill="#ff6c1a"/>
    <path id="Path_6767" data-name="Path 6767" d="M49.079,55.229,42.925,50.1l6.154-5.134A1.211,1.211,0,1,0,47.531,43.1l-7.272,6.067a1.212,1.212,0,0,0,0,1.86l7.272,6.057a1.212,1.212,0,1,0,1.548-1.86" fill="#ff6c1a"/>
    <path id="Path_6768" data-name="Path 6768" d="M37.4,28.285a1.212,1.212,0,1,0-1.212-1.212A1.212,1.212,0,0,0,37.4,28.285" fill="#ff6c1a"/>
    <path id="Path_6769" data-name="Path 6769" d="M55.574,74.333h4.85a1.211,1.211,0,1,0,.066-2.417l-4.973,0a1.209,1.209,0,0,0,.057,2.414" fill="#ff6c1a"/>
    <path id="Path_6770" data-name="Path 6770" d="M90.724,28.287H84.657v-3.64a3.65,3.65,0,0,0-3.631-3.634H34.971a3.651,3.651,0,0,0-3.634,3.634v3.64H25.282a3.655,3.655,0,0,0-3.64,3.632V75.55a3.657,3.657,0,0,0,3.64,3.634H90.724a3.651,3.651,0,0,0,3.633-3.634V31.919a3.649,3.649,0,0,0-3.633-3.632m-56.961,4.85h48.47V67.069H33.763Zm0-8.49a1.176,1.176,0,0,1,1.208-1.207H81.026a1.176,1.176,0,0,1,1.207,1.207v6.064H33.763Zm-9.7,7.272a1.184,1.184,0,0,1,1.216-1.208h6.055V67.069H24.066ZM91.931,75.55a1.176,1.176,0,0,1-1.207,1.207H25.282a1.183,1.183,0,0,1-1.216-1.207V69.5H91.931Zm0-8.481H84.657V30.711h6.067a1.176,1.176,0,0,1,1.207,1.208Z" fill="#ff6c1a"/>
    <path id="Path_6771" data-name="Path 6771" d="M42.245,28.285a1.212,1.212,0,1,0-1.212-1.212,1.212,1.212,0,0,0,1.212,1.212" fill="#ff6c1a"/>
    <path id="Path_6772" data-name="Path 6772" d="M64.055,28.287H78.6a1.212,1.212,0,0,0,0-2.424H64a1.212,1.212,0,0,0,.057,2.424" fill="#ff6c1a"/>
    <path id="Path_6773" data-name="Path 6773" d="M47.093,28.285a1.212,1.212,0,1,0-1.212-1.212,1.212,1.212,0,0,0,1.212,1.212" fill="#ff6c1a"/>
  </g>
</svg>
