<svg id="Group_3771" data-name="Group 3771" xmlns="http://www.w3.org/2000/svg" xmlns:xlink="http://www.w3.org/1999/xlink" width="110.575" height="108.637" viewBox="0 0 110.575 108.637">
  <defs>
    <clipPath id="clip-path">
      <rect id="Rectangle_748" data-name="Rectangle 748" width="110.575" height="108.637" transform="translate(0 0)" fill="none"/>
    </clipPath>
  </defs>
  <g id="Group_3770" data-name="Group 3770" clip-path="url(#clip-path)">
    <path id="Path_6846" data-name="Path 6846" d="M34.873,41.432a9.3,9.3,0,1,0,9.3,9.3,9.3,9.3,0,0,0-9.3-9.3m0,15.137a5.84,5.84,0,1,1,5.841-5.841,5.841,5.841,0,0,1-5.841,5.841M75.7,41.432a9.3,9.3,0,1,0,9.3,9.3A9.3,9.3,0,0,0,75.7,41.432Zm0,15.137a5.84,5.84,0,1,1,5.84-5.841,5.841,5.841,0,0,1-5.84,5.841M68.421,71.182a1.726,1.726,0,0,1-.585,2.372h0a24.2,24.2,0,0,1-25.1,0A1.728,1.728,0,0,1,44.526,70.6a20.751,20.751,0,0,0,21.522,0,1.728,1.728,0,0,1,2.373.584Zm36.4-37.53H101.71v-3a7.685,7.685,0,0,0-7.678-7.677H57.016V15.3a7.749,7.749,0,1,0-3.456,0V22.98H16.543a7.685,7.685,0,0,0-7.677,7.677v3H5.753A5.76,5.76,0,0,0,0,39.4V75.982a5.76,5.76,0,0,0,5.753,5.753H8.866v2.994a7.686,7.686,0,0,0,7.677,7.677h9.164v14.5a1.727,1.727,0,0,0,2.592,1.5l27.714-16H94.032a7.687,7.687,0,0,0,7.678-7.677V81.734h3.113a5.759,5.759,0,0,0,5.752-5.752V39.4a5.759,5.759,0,0,0-5.752-5.752M50.995,7.752a4.293,4.293,0,1,1,4.293,4.293,4.293,4.293,0,0,1-4.293-4.293M5.753,78.278a2.3,2.3,0,0,1-2.3-2.3V39.4a2.3,2.3,0,0,1,2.3-2.3H8.866v41.17Zm92.5,6.451a4.225,4.225,0,0,1-4.222,4.221H55.55a1.724,1.724,0,0,0-.864.232L29.163,103.917V90.678a1.728,1.728,0,0,0-1.728-1.727H16.543a4.228,4.228,0,0,1-4.222-4.222V30.657a4.227,4.227,0,0,1,4.222-4.222H94.032a4.226,4.226,0,0,1,4.222,4.222Zm8.866-8.747a2.3,2.3,0,0,1-2.3,2.3H101.71V37.108h3.113a2.3,2.3,0,0,1,2.3,2.3Z" fill="#ff6c1a"/>
  </g>
</svg>
