<svg id="Group_3749" data-name="Group 3749" xmlns="http://www.w3.org/2000/svg" xmlns:xlink="http://www.w3.org/1999/xlink" width="116" height="116" viewBox="0 0 116 116">
  <defs>
    <clipPath id="clip-path">
      <rect id="Rectangle_726" data-name="Rectangle 726" width="116" height="116" fill="none"/>
    </clipPath>
  </defs>
  <g id="Group_3748" data-name="Group 3748" clip-path="url(#clip-path)">
    <path id="Path_6756" data-name="Path 6756" d="M93.5,116h-71A22.534,22.534,0,0,1,0,93.5v-71A22.534,22.534,0,0,1,22.5,0h71A22.534,22.534,0,0,1,116,22.5v71A22.534,22.534,0,0,1,93.5,116" fill="#fff"/>
    <path id="Path_6757" data-name="Path 6757" d="M31.195,27.452A3.646,3.646,0,1,0,34.841,31.1a3.651,3.651,0,0,0-3.646-3.646M32.56,31.1a1.366,1.366,0,1,1-1.365-1.365A1.366,1.366,0,0,1,32.56,31.1" fill="#ff6c1a"/>
    <path id="Path_6758" data-name="Path 6758" d="M39.677,27.452A3.646,3.646,0,1,0,43.324,31.1a3.651,3.651,0,0,0-3.647-3.646M41.043,31.1a1.365,1.365,0,1,1-1.366-1.365A1.367,1.367,0,0,1,41.043,31.1" fill="#ff6c1a"/>
    <path id="Path_6759" data-name="Path 6759" d="M48.16,27.452A3.646,3.646,0,1,0,51.806,31.1a3.651,3.651,0,0,0-3.646-3.646M49.525,31.1a1.366,1.366,0,1,1-1.365-1.365A1.366,1.366,0,0,1,49.525,31.1" fill="#ff6c1a"/>
    <path id="Path_6760" data-name="Path 6760" d="M85.869,29.958H59.94a1.14,1.14,0,0,0,0,2.281H85.869a1.14,1.14,0,0,0,0-2.281" fill="#ff6c1a"/>
    <path id="Path_6761" data-name="Path 6761" d="M89.893,23.609H26.106a4.526,4.526,0,0,0-4.52,4.521V87.357a4.526,4.526,0,0,0,4.52,4.521H89.893a4.526,4.526,0,0,0,4.521-4.521V28.13a4.526,4.526,0,0,0-4.521-4.521m2.24,14.979V87.357a2.242,2.242,0,0,1-2.24,2.24H26.106a2.241,2.241,0,0,1-2.239-2.24V38.588Zm0-10.458v8.178H23.867V28.13a2.242,2.242,0,0,1,2.239-2.24H89.893a2.243,2.243,0,0,1,2.24,2.24" fill="#ff6c1a"/>
    <path id="Path_6762" data-name="Path 6762" d="M34.1,87.181h9.3a3.45,3.45,0,0,0,3.447-3.446V82.5a3.6,3.6,0,0,0,2.166-1.987H60.52a4.054,4.054,0,0,0,3.943-3.072,3.634,3.634,0,0,0,2.431-2.408h1.167a3.378,3.378,0,0,0,3.374-3.374V62.212a3.378,3.378,0,0,0-3.374-3.374h-9.45a3.378,3.378,0,0,0-3.373,3.374v1.3A3.614,3.614,0,0,0,52.959,65.8H42.987a1.868,1.868,0,0,1-1.866-1.866v-4.3A3.615,3.615,0,0,0,43.4,57.356h1.233a3.45,3.45,0,0,0,3.446-3.446V52.677a3.611,3.611,0,0,0,2.28-2.282l16.518-.062a3.613,3.613,0,0,0,2.278,2.275v1.233A3.451,3.451,0,0,0,72.6,57.288h9.3a3.451,3.451,0,0,0,3.446-3.447v-9.3A3.451,3.451,0,0,0,81.9,41.09H72.6a3.451,3.451,0,0,0-3.446,3.447V45.77a3.615,3.615,0,0,0-2.28,2.282l-16.518.062a3.618,3.618,0,0,0-2.278-2.275V44.607a3.45,3.45,0,0,0-3.446-3.447h-9.3a3.45,3.45,0,0,0-3.446,3.447v9.3a3.45,3.45,0,0,0,3.446,3.446h1.233a3.614,3.614,0,0,0,2.279,2.279v4.3a4.151,4.151,0,0,0,4.146,4.147h9.973a3.615,3.615,0,0,0,2.279,2.278v1.306a3.377,3.377,0,0,0,3.373,3.374H60a3.625,3.625,0,0,0,2.08,2.285,1.775,1.775,0,0,1-1.557.914H49.209a3.621,3.621,0,0,0-2.362-2.57V74.431A3.45,3.45,0,0,0,43.4,70.985H34.1a3.45,3.45,0,0,0-3.446,3.446v9.3A3.45,3.45,0,0,0,34.1,87.181m11.61-9.421a1.323,1.323,0,1,1-1.323,1.323,1.325,1.325,0,0,1,1.323-1.323m-1.14-2.1a3.6,3.6,0,0,0,0,6.838v1.233A1.167,1.167,0,0,1,43.4,84.9H34.1a1.167,1.167,0,0,1-1.165-1.166v-9.3A1.167,1.167,0,0,1,34.1,73.265h9.3a1.167,1.167,0,0,1,1.166,1.166Zm20.2-1.672a1.323,1.323,0,1,1-1.341-1.335,1.366,1.366,0,0,1,1.341,1.335M57.7,66.936a1.322,1.322,0,1,1-1.123-1.308A1.325,1.325,0,0,1,57.7,66.936m-.183,3.419a3.514,3.514,0,0,0,.612-.27l.017-.01a3.6,3.6,0,0,0-.629-6.558v-1.3a1.094,1.094,0,0,1,1.092-1.093h9.45a1.094,1.094,0,0,1,1.093,1.093v9.449a1.094,1.094,0,0,1-1.093,1.093H66.832a3.517,3.517,0,0,0-3.384-2.373h0a3.563,3.563,0,0,0-3.387,2.373H58.611a1.094,1.094,0,0,1-1.092-1.093ZM45.8,44.606v1.233a3.618,3.618,0,0,0-2.459,3.6v.016A3.576,3.576,0,0,0,45.8,52.677V53.91a1.166,1.166,0,0,1-1.165,1.166H43.4a3.606,3.606,0,0,0-4.141-2.391h-.006l-.009,0a3.652,3.652,0,0,0-2.682,2.388H35.328a1.167,1.167,0,0,1-1.166-1.166v-9.3a1.166,1.166,0,0,1,1.166-1.165h9.3A1.166,1.166,0,0,1,45.8,44.606m1.141,3.329a1.323,1.323,0,1,1-1.323,1.323,1.325,1.325,0,0,1,1.323-1.323m-8.266,8.08a1.326,1.326,0,1,1,.3,1.062,1.331,1.331,0,0,1-.3-1.062m32.763-3.407a3.6,3.6,0,0,0,0-6.838V44.537A1.166,1.166,0,0,1,72.6,43.372h9.3a1.166,1.166,0,0,1,1.166,1.165v9.3A1.167,1.167,0,0,1,81.9,55.007H72.6a1.167,1.167,0,0,1-1.165-1.166Zm-2.464-3.419a1.323,1.323,0,1,1,1.323,1.323,1.325,1.325,0,0,1-1.323-1.323" fill="#ff6c1a"/>
  </g>
</svg>
