<svg id="Group_3761" data-name="Group 3761" xmlns="http://www.w3.org/2000/svg" xmlns:xlink="http://www.w3.org/1999/xlink" width="110.575" height="110.581" viewBox="0 0 110.575 110.581">
  <defs>
    <clipPath id="clip-path">
      <rect id="Rectangle_731" data-name="Rectangle 731" width="110.575" height="110.581" transform="translate(0 0)" fill="none"/>
    </clipPath>
  </defs>
  <g id="Group_3760" data-name="Group 3760" clip-path="url(#clip-path)">
    <path id="Path_6805" data-name="Path 6805" d="M105.392,20.739H88.659a18.891,18.891,0,0,0-10.2-3.442,24.166,24.166,0,0,0-46.334,0,18.888,18.888,0,0,0-10.2,3.442H5.183A5.183,5.183,0,0,0,0,25.922V91.576a5.183,5.183,0,0,0,5.183,5.183H40.7l-4.309,11.486a1.727,1.727,0,0,0,1.618,2.336H72.565a1.727,1.727,0,0,0,1.619-2.336L69.875,96.759h35.517a5.182,5.182,0,0,0,5.183-5.183V25.922a5.182,5.182,0,0,0-5.183-5.183m-72.565,0,.562.029a1.688,1.688,0,0,0,1.738-1.332,20.709,20.709,0,0,1,40.322,0,1.673,1.673,0,0,0,1.738,1.332l.561-.029A15.536,15.536,0,0,1,84.659,50.2V46.655a1.727,1.727,0,1,0-3.455,0v4.782a15.518,15.518,0,0,1-3.456.4H70.837V46.655a1.727,1.727,0,1,0-3.455,0v5.183H57.016V46.655a1.728,1.728,0,1,0-3.456,0v5.183H43.194V46.655a1.728,1.728,0,0,0-3.456,0v5.183H32.827a15.515,15.515,0,0,1-3.455-.4V46.655a1.728,1.728,0,1,0-3.456,0V50.2a15.536,15.536,0,0,1,6.911-29.458M5.183,24.194h13.01a18.957,18.957,0,0,0,7.723,29.779V57.92l-4.19,3.348a5.308,5.308,0,1,0,2.157,2.7L28.72,60.1a1.729,1.729,0,0,0,.652-1.349V54.963a18.9,18.9,0,0,0,3.455.33h6.911v1.013l-2.949,2.949a1.729,1.729,0,0,0-.506,1.222v5.5a5.183,5.183,0,1,0,3.455,0V61.192l2.949-2.949a1.73,1.73,0,0,0,.507-1.222V55.293H53.56v14.14a5.184,5.184,0,1,0,3.456,0V55.293H67.382v1.728a1.729,1.729,0,0,0,.506,1.222l2.949,2.949v4.786a5.184,5.184,0,1,0,3.456,0v-5.5a1.729,1.729,0,0,0-.506-1.222l-2.95-2.949V55.293h6.911a18.9,18.9,0,0,0,3.456-.33v3.786a1.727,1.727,0,0,0,.648,1.349l4.837,3.874a5.114,5.114,0,0,0-.3,1.688,5.224,5.224,0,1,0,2.46-4.392L84.659,57.92V53.973a18.955,18.955,0,0,0,7.723-29.779h13.01a1.728,1.728,0,0,1,1.728,1.728V82.937H3.456V25.922a1.728,1.728,0,0,1,1.727-1.728M20.733,65.66A1.728,1.728,0,1,1,19,63.932a1.728,1.728,0,0,1,1.728,1.728M38.01,69.115a1.728,1.728,0,1,1-1.727,1.728,1.728,1.728,0,0,1,1.727-1.728m17.278,3.456A1.728,1.728,0,1,1,53.56,74.3a1.728,1.728,0,0,1,1.728-1.728m17.277-3.456a1.728,1.728,0,1,1-1.728,1.728,1.728,1.728,0,0,1,1.728-1.728m19-5.183a1.728,1.728,0,1,1-1.727,1.728,1.728,1.728,0,0,1,1.727-1.728m-21.5,43.194H40.5l3.887-10.367H66.185Zm37.048-15.55a1.728,1.728,0,0,1-1.728,1.728H5.183a1.728,1.728,0,0,1-1.727-1.728V86.393H107.12Z" fill="#ff6c1a"/>
  </g>
</svg>
