<svg id="Group_3706" data-name="Group 3706" xmlns="http://www.w3.org/2000/svg" xmlns:xlink="http://www.w3.org/1999/xlink" width="116" height="115.683" viewBox="0 0 116 115.683">
  <defs>
    <clipPath id="clip-path">
      <rect id="Rectangle_707" data-name="Rectangle 707" width="116" height="115.683" fill="none"/>
    </clipPath>
  </defs>
  <g id="Group_3705" data-name="Group 3705" clip-path="url(#clip-path)">
    <path id="Path_6666" data-name="Path 6666" d="M68.148,101.867a4.877,4.877,0,0,1-.267.882c-.766,1.636-1.537,3.271-2.35,4.885a2.139,2.139,0,0,1-3.119,1.113Q50.692,103.188,39,97.57a2.06,2.06,0,0,1-1.115-2.9q1.194-2.718,2.561-5.357c.653-1.255,1.807-1.472,3.342-.739q7.164,3.417,14.323,6.848,4.251,2.03,8.51,4.042a2.336,2.336,0,0,1,1.527,2.4" fill="#ef564b"/>
    <path id="Path_6667" data-name="Path 6667" d="M90.61,54.8a8.788,8.788,0,0,1-.35,1.05c-.768,1.637-1.535,3.274-2.346,4.889a2.183,2.183,0,0,1-3.226,1.1q-11.6-5.515-23.182-11.077c-1.475-.708-1.816-1.8-1.12-3.32.662-1.448,1.361-2.879,2.048-4.315.928-1.944,1.88-2.3,3.817-1.381q10.375,4.941,20.74,9.9,1.105.528,2.218,1.045a2.529,2.529,0,0,1,1.4,2.1" fill="#ef564b"/>
    <path id="Path_6668" data-name="Path 6668" d="M30.148,53.565a2.841,2.841,0,0,1,1.355.378Q42.632,59.251,53.76,64.556c2.417,1.155,2.667,1.919,1.489,4.355-.637,1.317-1.235,2.653-1.885,3.964a2.238,2.238,0,0,1-3.4,1.173q-11.427-5.433-22.838-10.9c-1.717-.823-2.046-1.841-1.229-3.576.734-1.556,1.489-3.1,2.229-4.657a2.169,2.169,0,0,1,2.022-1.353" fill="#ef564b"/>
    <path id="Path_6669" data-name="Path 6669" d="M78.237,20.149a2.4,2.4,0,0,1-.338,1.322c-.72,1.515-1.43,3.035-2.167,4.541a2.218,2.218,0,0,1-3.294,1.2q-11.6-5.5-23.172-11.05a2.115,2.115,0,0,1-1.1-3.015q1.138-2.529,2.386-5.007a2.146,2.146,0,0,1,3.218-1.1q11.6,5.5,23.175,11.043a2.012,2.012,0,0,1,1.292,2.068" fill="#ef564b"/>
    <path id="Path_6670" data-name="Path 6670" d="M14,68.071a7.484,7.484,0,0,1-.82-.293c-1.559-.731-3.117-1.465-4.664-2.219-1.779-.867-2.137-1.831-1.307-3.645.86-1.879,1.771-3.733,2.66-5.6q4.056-8.508,8.115-17.017c.845-1.767,1.82-2.128,3.655-1.315,1.533.681,3.044,1.416,4.548,2.16a2.188,2.188,0,0,1,1.172,3.288c-.874,1.919-1.805,3.812-2.713,5.716q-4.027,8.449-8.055,16.9A2.851,2.851,0,0,1,14,68.071" fill="#96d6d7"/>
    <path id="Path_6671" data-name="Path 6671" d="M62.372,30.042a13.376,13.376,0,0,1-.48,1.292q-5.407,11.355-10.836,22.7c-.894,1.866-1.865,2.19-3.737,1.3q-2.154-1.029-4.288-2.1c-1.644-.821-2-1.814-1.222-3.452q2.289-4.839,4.6-9.67,3.085-6.462,6.185-12.916c1.015-2.11,1.854-2.377,4-1.346q2.15,1.035,4.314,2.041a2.516,2.516,0,0,1,1.473,2.156" fill="#96d6d7"/>
    <path id="Path_6672" data-name="Path 6672" d="M95.611,78.2a7.145,7.145,0,0,1-.887-.294c-1.638-.765-3.277-1.53-4.9-2.33-1.534-.757-1.921-1.729-1.2-3.258,2.626-5.568,5.291-11.118,7.941-16.675,1.02-2.138,2.052-4.269,3.056-6.413.7-1.493,1.777-1.952,3.238-1.282q2.406,1.105,4.782,2.273a2.214,2.214,0,0,1,1.234,3.272c-.679,1.535-1.425,3.04-2.149,4.555-2.951,6.177-5.917,12.348-8.846,18.535A2.723,2.723,0,0,1,95.611,78.2" fill="#96d6d7"/>
    <path id="Path_6673" data-name="Path 6673" d="M61.058,90.338a2.414,2.414,0,0,1-1.369-.348q-2.035-.978-4.083-1.934c-2.034-.947-2.411-1.887-1.455-3.894,2.311-4.858,4.654-9.7,6.973-14.556,1.242-2.6,2.444-5.221,3.695-7.818.955-1.982,1.962-2.319,3.935-1.386,1.439.682,2.882,1.354,4.311,2.055a2.243,2.243,0,0,1,1.182,3.207c-2.456,5.217-4.953,10.415-7.427,15.624-1.182,2.487-2.339,4.986-3.524,7.471-.448.937-1.05,1.7-2.238,1.579" fill="#96d6d7"/>
    <path id="Path_6674" data-name="Path 6674" d="M93.695,85.139a8.954,8.954,0,0,1-.363,1.046c-.726,1.557-1.46,3.111-2.222,4.65-.772,1.56-1.835,1.961-3.369,1.234q-6.927-3.284-13.831-6.613c-1.673-.807-1.99-1.746-1.213-3.447.715-1.562,1.44-3.12,2.195-4.663a2.175,2.175,0,0,1,3.2-1.162c4.7,2.215,9.386,4.462,14.078,6.7a2.485,2.485,0,0,1,1.526,2.259" fill="#ef564b"/>
    <path id="Path_6675" data-name="Path 6675" d="M94.722,36.442a2.857,2.857,0,0,1,.439-1.569c.679-1.437,1.361-2.874,2.058-4.3.727-1.492,1.8-1.938,3.269-1.248q7.058,3.324,14.082,6.719a2.163,2.163,0,0,1,1.114,3.213q-1.113,2.467-2.324,4.891a2.158,2.158,0,0,1-3.12,1.118q-7.117-3.353-14.2-6.766a2.027,2.027,0,0,1-1.314-2.055" fill="#ef564b"/>
    <path id="Path_6676" data-name="Path 6676" d="M43.7,32.5a10.222,10.222,0,0,1-.381,1.074c-.743,1.6-1.493,3.19-2.269,4.77a2.158,2.158,0,0,1-3.2,1.135Q30.8,36.158,23.78,32.77a2.173,2.173,0,0,1-1.113-3.22q1.133-2.455,2.351-4.874a2.129,2.129,0,0,1,3.109-1.1c4.779,2.249,9.539,4.54,14.3,6.817A2.27,2.27,0,0,1,43.7,32.5" fill="#ef564b"/>
    <path id="Path_6677" data-name="Path 6677" d="M21.3,79.443a2.428,2.428,0,0,1-.356,1.066c-.733,1.554-1.462,3.109-2.214,4.653a2.194,2.194,0,0,1-3.287,1.176Q8.514,83.063,1.6,79.747C-.018,78.969-.381,77.9.383,76.263q1.035-2.219,2.11-4.417c.852-1.734,1.83-2.078,3.544-1.265,4.539,2.155,9.07,4.326,13.615,6.469A2.461,2.461,0,0,1,21.3,79.443" fill="#ef564b"/>
    <path id="Path_6678" data-name="Path 6678" d="M23.585,88.546a2.8,2.8,0,0,1,.356-1.411C26.066,82.72,28.174,78.3,30.3,73.883c.84-1.743,1.916-2.107,3.657-1.278,1.475.7,2.964,1.374,4.421,2.109a2.247,2.247,0,0,1,1.184,3.4q-3.19,6.76-6.4,13.514c-.816,1.719-1.812,2.094-3.528,1.31-1.564-.714-3.107-1.472-4.665-2.2a2.157,2.157,0,0,1-1.385-2.191" fill="#96d6d7"/>
    <path id="Path_6679" data-name="Path 6679" d="M45.617,4.88a2.263,2.263,0,0,1-.311.924c-2.194,4.578-4.379,9.16-6.59,13.73-.842,1.739-1.787,2.027-3.546,1.184-1.474-.706-2.963-1.382-4.427-2.107-1.6-.789-1.987-1.793-1.247-3.357Q32.779,8.312,36.128,1.4A2.187,2.187,0,0,1,39.252.268c1.687.757,3.352,1.565,5.013,2.379A2.344,2.344,0,0,1,45.617,4.88" fill="#96d6d7"/>
    <path id="Path_6680" data-name="Path 6680" d="M76.119,38.826a2.417,2.417,0,0,1,.313-1.347c2.126-4.425,4.238-8.857,6.374-13.278.964-1.994,1.821-2.273,3.81-1.324,1.477.7,2.968,1.379,4.431,2.112a2.205,2.205,0,0,1,1.115,3.227Q88.9,35.1,85.576,41.965a2.226,2.226,0,0,1-3.389,1.2c-1.559-.731-3.119-1.462-4.662-2.227a2.058,2.058,0,0,1-1.406-2.117" fill="#96d6d7"/>
    <path id="Path_6681" data-name="Path 6681" d="M86.745,99.609a17.9,17.9,0,0,1-1.71,3.824c-1.665,3.641-3.448,7.228-5.206,10.825a2.051,2.051,0,0,1-2.966,1.172q-2.727-1.166-5.368-2.531a2.183,2.183,0,0,1-.869-2.934q3.363-7.123,6.816-14.2a2.042,2.042,0,0,1,2.938-.986c1.68.775,3.34,1.6,5.016,2.378a2.268,2.268,0,0,1,1.349,2.457" fill="#96d6d7"/>
  </g>
</svg>
