<svg id="Group_3712" data-name="Group 3712" xmlns="http://www.w3.org/2000/svg" xmlns:xlink="http://www.w3.org/1999/xlink" width="92.479" height="116" viewBox="0 0 92.479 116">
  <defs>
    <clipPath id="clip-path">
      <rect id="Rectangle_710" data-name="Rectangle 710" width="92.479" height="116" fill="none"/>
    </clipPath>
  </defs>
  <g id="Group_3711" data-name="Group 3711" clip-path="url(#clip-path)">
    <path id="Path_6686" data-name="Path 6686" d="M28.646,85.608c5.154,3.658,14.607-.9,21.307-10.182.1-.123.2-.238.285-.367a11.73,11.73,0,0,0-2.831-16.272A11.543,11.543,0,0,0,31.24,61.581c-.091.129-.165.264-.249.4-6.421,9.479-7.5,19.976-2.345,23.631" fill="#ed8117"/>
    <path id="Path_6687" data-name="Path 6687" d="M33.919,78.591c3.588,2.484,10.212-.677,14.931-7.062.069-.085.139-.164.2-.252a7.907,7.907,0,0,0-1.773-11.04c-.046-.034-.094-.067-.141-.1a8.212,8.212,0,0,0-11.315,1.978c-.066.089-.116.181-.174.271-4.526,6.521-5.322,13.719-1.732,16.205" fill="#eebb18"/>
    <path id="Path_6688" data-name="Path 6688" d="M11.641,48.444c-.541.7-.808,1.744.662,1.286C16.5,48.427,26,46.9,37.042,54.56,51.948,64.9,50.738,38.1,50.738,38.1c-3.54-2.453-21.351-12.41-39.1,10.341m56.665,40.4c.063,1.514.957.919,1.426.187,15.343-23.978.067-37.189-3.415-39.654,0,0-25.469,7.752-10.808,18.141,10.855,7.691,12.614,17.008,12.8,21.326" fill="#5b6a72"/>
    <path id="Path_6689" data-name="Path 6689" d="M52.822,71.577c2.91,2.152,4.671,2.5,6.786-.11s13.24-15.66,24.354-30.045S88.3,2.286,86.962,1.3l-.017.021.012-.027c-1.334-.986-25.847.655-35.02,16.473S34.794,48.961,33.161,51.929s-.725,4.592,2.185,6.742c1.326.978,5.059,3.736,8.738,6.453S51.5,70.6,52.822,71.577" fill="#dcf2f9"/>
    <path id="Path_6690" data-name="Path 6690" d="M56.1,74.756h-.12c-1.328-.036-2.713-.63-4.631-1.987C50,71.815,46.246,69.158,42.5,66.5l-.221-.156-5.891-4.168L33.208,59.93c-1.914-1.356-2.938-2.464-3.417-3.707a5.633,5.633,0,0,1,.729-4.9c.352-.614,1-1.775,1.888-3.381C35.685,42.04,42.5,29.754,50.034,17.31A31.344,31.344,0,0,1,62.355,6.135,55.975,55.975,0,0,1,84.138.049c3.429-.193,4.038.239,4.331.446l.027.02c.3.214.9.7,1.856,3.941a53.556,53.556,0,0,1,1.56,7.473c1.009,7.267,1.537,20.9-6.26,30.566C76.525,53.813,67.305,64.4,62.875,69.484c-1.207,1.386-2.078,2.387-2.535,2.927a7.574,7.574,0,0,1-1.995,1.74,4.51,4.51,0,0,1-2.244.6M85.766,2.893A50.76,50.76,0,0,0,72.2,5.2c-6.415,1.962-15.039,5.918-19.691,13.607C45,31.2,38.2,43.458,34.935,49.346c-.9,1.617-1.546,2.784-1.908,3.417-.781,1.36-.7,2.008-.539,2.42a6.464,6.464,0,0,0,2.389,2.387l3.182,2.251,5.891,4.168.221.156c3.745,2.651,7.5,5.308,8.849,6.264,2.842,2.011,3.685,1.824,5.113.137.469-.556,1.347-1.566,2.562-2.958,4.419-5.074,13.614-15.631,22.7-26.9,5.643-7,6.446-16.49,6.127-23.223A46.739,46.739,0,0,0,86.748,2.934a9.463,9.463,0,0,0-.982-.043" fill="#5b6a72"/>
    <path id="Path_6691" data-name="Path 6691" d="M61.8,36.1a10.284,10.284,0,1,0-2.487-14.336A10.274,10.274,0,0,0,61.8,36.1" fill="#fefefe"/>
    <path id="Path_6692" data-name="Path 6692" d="M67.695,39.435a11.738,11.738,0,1,1,6.767-21.346l.013.009a11.744,11.744,0,0,1-6.78,21.337m.037-20.582a8.89,8.89,0,0,0-1.528.132A8.76,8.76,0,0,0,60.5,22.6,8.834,8.834,0,0,0,74.934,32.79l.005-.006a8.843,8.843,0,0,0-7.207-13.931" fill="#5b6a72"/>
    <path id="Path_6693" data-name="Path 6693" d="M0,115.159,16.292,92.235l1.182.841L1.182,116Zm9.34-2.922,9.53-13.473,1.19.84-9.53,13.475Z" fill="#979797"/>
  </g>
</svg>
