<svg width="261" height="58" viewBox="0 0 261 58" fill="none" xmlns="http://www.w3.org/2000/svg">
<g clip-path="url(#clip0_326_1190)">
<mask id="mask0_326_1190" style="mask-type:luminance" maskUnits="userSpaceOnUse" x="0" y="0" width="49" height="58">
<path d="M48.0576 20.7162V14.9183L24.0358 0.560547L0.0117188 14.9183V31.6595L19.2665 43.0402L21.624 38.8147L4.85674 28.7912V28.6375V20.7091L40.7912 42.1889L24.0358 52.2029L0.0117188 37.831V43.636L24.0358 57.9938L48.0576 43.636V26.8877L26.9253 14.1947L24.504 18.5384L43.2149 29.7205V37.8452L7.27806 16.3677L24.0358 6.3514L48.0576 20.7162Z" fill="white"/>
</mask>
<g mask="url(#mask0_326_1190)">
<path d="M32.336 22.2512L29.7089 27.9025L43.0782 24.6678L42.7756 21.8965L32.336 22.2512Z" fill="url(#paint0_linear_326_1190)"/>
<path d="M18.168 22.7343L24.0345 29.2771L29.7071 27.9033L32.3342 22.252L18.168 22.7343Z" fill="url(#paint1_linear_326_1190)"/>
<path d="M42.7742 21.899L56.4486 21.4332L46.113 9.90354L41.4004 9.32422L42.7742 21.899Z" fill="url(#paint2_linear_326_1190)"/>
<path d="M27.3522 32.9783L29.7097 27.9062L24.0371 29.2801L27.3522 32.9783Z" fill="url(#paint3_linear_326_1190)"/>
<path d="M43.0771 24.6687L56.4488 21.4316L42.7744 21.8975L43.0771 24.6687Z" fill="url(#paint4_linear_326_1190)"/>
<path d="M18.1682 22.7363L6.30988 23.1383L5.80859 23.616L7.82794 33.1996L24.0348 29.2791L18.1682 22.7363Z" fill="url(#paint5_linear_326_1190)"/>
<path d="M32.335 22.2536L38.5089 8.96701L23.1794 7.08008L12.9053 16.86L18.1688 22.7359L32.335 22.2536Z" fill="url(#paint6_linear_326_1190)"/>
<path d="M42.7736 21.8987L41.3998 9.32385L38.5079 8.9668L32.334 22.2534L42.7736 21.8987Z" fill="url(#paint7_linear_326_1190)"/>
<path d="M5.7146 23.158L5.80899 23.6134L6.30923 23.1367L5.7146 23.158Z" fill="url(#paint8_linear_326_1190)"/>
<path d="M7.82812 33.1959L11.1716 49.0905L19.3176 50.2539L27.3501 32.9736L24.0349 29.2754L7.82812 33.1959Z" fill="url(#paint9_linear_326_1190)"/>
<path d="M12.9054 16.8594L6.31055 23.1373L18.1689 22.7353L12.9054 16.8594Z" fill="url(#paint10_linear_326_1190)"/>
<path d="M41.4007 9.32307L40.819 3.99805L38.5088 8.96602L41.4007 9.32307Z" fill="url(#paint11_linear_326_1190)"/>
<path d="M46.1126 9.9024L40.8184 3.99805L41.4 9.32307L46.1126 9.9024Z" fill="url(#paint12_linear_326_1190)"/>
<path d="M13.8809 61.9534L46.2968 54.1101L19.3194 50.2559L13.8809 61.9534Z" fill="url(#paint13_linear_326_1190)"/>
<path d="M11.1719 49.0938L13.8793 61.9547L19.3178 50.2571L11.1719 49.0938Z" fill="url(#paint14_linear_326_1190)"/>
<path d="M1.05469 47.6465L13.8778 61.9545L11.1703 49.0936L1.05469 47.6465Z" fill="url(#paint15_linear_326_1190)"/>
<path d="M7.82832 33.1992L-8.38086 37.1221L1.05617 47.6468L11.1718 49.0939L7.82832 33.1992Z" fill="url(#paint16_linear_326_1190)"/>
<path d="M19.3184 50.2569L46.2958 54.1112L27.3508 32.9766L19.3184 50.2569Z" fill="url(#paint17_linear_326_1190)"/>
<path d="M43.0781 24.6687L46.2963 54.1101L52.2172 35.0516L56.4498 21.4316L43.0781 24.6687Z" fill="url(#paint18_linear_326_1190)"/>
<path d="M29.7071 27.9066L27.3496 32.9786L46.2946 54.1132L43.0764 24.6719L29.7071 27.9066Z" fill="url(#paint19_linear_326_1190)"/>
<path d="M34.189 -3.40039L1.77539 4.44291L23.1795 7.07942L34.189 -3.40039Z" fill="url(#paint20_linear_326_1190)"/>
<path d="M23.1795 7.07791L1.77539 4.44141L12.9055 16.8578L23.1795 7.07791Z" fill="url(#paint21_linear_326_1190)"/>
<path d="M38.5095 8.96635L40.8197 3.99837L34.1894 -3.40039L23.1799 7.07942L38.5095 8.96635Z" fill="url(#paint22_linear_326_1190)"/>
<path d="M5.80897 23.6152L-8.38086 37.1217L7.82832 33.1989L5.80897 23.6152Z" fill="url(#paint23_linear_326_1190)"/>
<path d="M6.31065 23.1358L12.9055 16.8578L1.77539 4.44141L5.71478 23.157L6.31065 23.1358Z" fill="url(#paint24_linear_326_1190)"/>
<path d="M1.77539 4.44141L-4.14551 23.4904L5.71478 23.157L1.77539 4.44141Z" fill="url(#paint25_linear_326_1190)"/>
<path d="M5.71439 23.1582L-4.1459 23.4916L-8.38086 37.121L5.80897 23.6146L5.71439 23.1582Z" fill="url(#paint26_linear_326_1190)"/>
</g>
<path d="M71.8182 23.1377L71.1608 23.0242C68.905 22.627 66.0959 22.1304 66.0321 19.9834C66.0108 19.3261 66.2378 18.7538 66.7036 18.2762C67.5832 17.38 69.2999 16.8645 71.298 16.8882C73.3575 16.8882 75.0884 17.205 76.8476 18.7538L77.0581 18.9383L78.5643 17.3327L78.3539 17.1365C76.5592 15.4505 74.1851 14.5969 71.3003 14.5969C68.6757 14.5614 66.3797 15.3181 65.0508 16.647C64.1428 17.555 63.6911 18.6947 63.7029 20.0307C63.7431 24.0434 67.6518 24.6936 71.1017 25.2706C74.5138 25.8192 76.9257 26.3796 76.8618 28.6283C76.7507 31.5415 73.0099 31.8559 71.4091 31.8559C68.6402 31.8559 66.207 30.7304 64.8994 28.8482L64.715 28.581L62.9463 30.1535L63.0811 30.3615C64.6393 32.7545 67.7393 34.1827 71.3736 34.1827C73.1802 34.1827 79.0893 33.7925 79.2288 28.7631C79.4179 24.4099 75.0269 23.6721 71.8205 23.1354L71.8182 23.1377Z" fill="#4C596D"/>
<path d="M99.4907 14.6367C96.2725 14.6367 93.4705 16.0649 91.8011 18.5075V14.8992H89.4365V41.5669H91.7633V30.4108C93.3877 32.8487 96.0006 34.2249 99.0793 34.2249C104.849 34.2249 108.724 30.2737 108.724 24.3953C108.724 18.517 105.104 14.8495 99.4907 14.6391V14.6367ZM106.322 24.393C106.322 29.9261 102.581 31.8958 99.0793 31.8958C94.9933 31.8958 91.9122 28.687 91.9122 24.4308C91.9122 20.1746 94.9271 16.9658 99.0793 16.9658C102.581 16.9658 106.322 18.9166 106.322 24.3953V24.393Z" fill="#4C596D"/>
<path d="M135.22 30.6134V33.8884H137.623V14.8985H135.22V18.1994C133.641 15.9743 131.007 14.6738 127.977 14.6738C122.48 14.6738 118.335 18.852 118.335 24.3922C118.335 29.9324 122.48 34.184 127.977 34.184C130.928 34.184 133.468 32.9236 135.22 30.6111V30.6134ZM135.379 24.4135C135.379 26.3596 134.721 28.1708 133.53 29.5139C132.189 31.0249 130.269 31.8217 127.977 31.8217C123.78 31.8217 120.735 28.6981 120.735 24.3922C120.735 20.0863 123.78 17.0006 127.977 17.0006C133.061 17.0006 135.379 20.8406 135.379 24.4112V24.4135Z" fill="#4C596D"/>
<path d="M156.916 14.7096C154.393 14.7096 152.281 15.7098 151.066 17.4336L151.009 14.8964H148.725V33.8863H151.127V22.8627C151.127 19.6114 153.671 17.034 156.916 16.9985C158.015 16.9985 159.018 17.2728 159.897 17.8143L160.155 17.9727L161.255 15.9747L161.018 15.8328C159.725 15.0501 158.339 14.6718 156.918 14.7096H156.916Z" fill="#4C596D"/>
<path d="M172.419 25.2336L181.899 33.8904H184.609V33.3654L174.346 23.874L183.528 15.3875V14.9004H180.705L172.419 22.5806V7.22266H170.055V33.8904H172.419V25.2336Z" fill="#4C596D"/>
<path d="M201.107 14.5625C195.52 14.5625 191.462 18.7123 191.462 24.4299C191.462 30.1474 195.427 34.1483 201.107 34.1483C206.787 34.1483 210.75 30.1522 210.75 24.4299C210.75 18.7076 206.695 14.5625 201.107 14.5625ZM201.107 31.7837C196.82 31.7837 193.826 28.7594 193.826 24.4299C193.826 20.1003 196.889 16.8514 201.107 16.8514C205.325 16.8514 208.385 20.0389 208.385 24.4299C208.385 28.8209 205.392 31.7837 201.107 31.7837Z" fill="#4C596D"/>
<path d="M235.907 25.3983C235.907 29.0847 233.315 31.785 229.742 31.8205C227.791 31.8418 226.165 31.2814 225.082 30.2078C224.015 29.1509 223.474 27.6446 223.474 25.7341V14.8594H221.071V25.7695C221.071 30.8817 224.448 34.1827 229.676 34.1827C232.317 34.1449 234.549 33.0855 235.944 31.2435V33.8848H238.309V14.8594H235.907V25.3983Z" fill="#4C596D"/>
<path d="M260.132 31.052L259.86 31.1821C258.895 31.6455 257.935 31.8985 257.152 31.8985C254.556 31.8985 254.047 30.4467 254.047 27.9379V17.0041H260.309V14.8996H254.047V9.31445L251.683 9.56037V14.8996H247.77V17.0041H251.683V27.9379C251.683 32.1776 253.421 34.152 257.152 34.152C258.235 34.152 259.41 33.8375 260.744 33.192L260.99 33.0714L260.132 31.052Z" fill="#4C596D"/>
<path d="M48.0576 20.1615V14.3636L24.0358 0.00585938L0.0117188 14.3636V31.1048L19.2665 42.4855L21.624 38.2576L4.85674 28.2365V28.0828V20.1544L40.7912 41.6319L24.0358 51.6482L0.0117188 37.2763V43.0814L24.0358 57.4391L48.0576 43.0814V26.3331L26.9253 13.64L24.504 17.9837L43.2149 29.1658V37.2905L7.27806 15.8107L24.0358 5.79671L48.0576 20.1615Z" fill="#FF6C1A"/>
<mask id="mask1_326_1190" style="mask-type:luminance" maskUnits="userSpaceOnUse" x="0" y="0" width="49" height="58">
<path d="M48.0576 20.1635V14.3655L24.0358 0.0078125L0.0117188 14.3655V31.1067L19.2665 42.4874L21.624 38.2596L4.85674 28.2385V28.0848V20.1564L40.7912 41.6338L24.0358 51.6502L0.0117188 37.2783V43.0833L24.0358 57.441L48.0576 43.0833V26.335L26.9253 13.642L24.504 17.9857L43.2149 29.1678V37.2925L7.27806 15.8126L24.0358 5.79866L48.0576 20.1635Z" fill="white"/>
</mask>
<g mask="url(#mask1_326_1190)">
<path d="M32.336 21.7004L29.7089 27.3517L43.0782 24.1146L42.7756 21.3457L32.336 21.7004Z" fill="#FF6C1A"/>
<path d="M18.168 22.1812L24.0345 28.724L29.7071 27.3525L32.3342 21.7012L18.168 22.1812Z" fill="#FF6C1A"/>
<path d="M42.7742 21.3483L56.4486 20.8824L46.113 9.35276L41.4004 8.77344L42.7742 21.3483Z" fill="#FF6C1A"/>
<path d="M27.3522 32.4275L29.7097 27.3555L24.0371 28.7269L27.3522 32.4275Z" fill="#FF6C1A"/>
<path d="M43.0771 24.1156L56.4488 20.8809L42.7744 21.3467L43.0771 24.1156Z" fill="#FF6C1A"/>
<path d="M18.1682 22.1836L6.30988 22.5879L5.80859 23.0632L7.82794 32.6492L24.0348 28.7264L18.1682 22.1836Z" fill="#FF6C1A"/>
<path d="M32.335 21.7028L38.5089 8.41623L23.1794 6.5293L12.9053 16.3092L18.1688 22.1828L32.335 21.7028Z" fill="#FF6C1A"/>
<path d="M42.7736 21.3479L41.3998 8.77307L38.5079 8.41602L32.334 21.7026L42.7736 21.3479Z" fill="#FF6C1A"/>
<path d="M5.7146 22.6048L5.80899 23.0602L6.30923 22.5859L5.7146 22.6048Z" fill="#FF6C1A"/>
<path d="M7.82812 32.6474L11.1716 48.5421L19.3176 49.7055L27.3501 32.4252L24.0349 28.7246L7.82812 32.6474Z" fill="#FF6C1A"/>
<path d="M12.9054 16.3086L6.31055 22.5865L18.1689 22.1822L12.9054 16.3086Z" fill="#FF6C1A"/>
<path d="M41.4007 8.77466L40.819 3.44727L38.5088 8.41761L41.4007 8.77466Z" fill="#FF6C1A"/>
<path d="M46.1126 9.35398L40.8184 3.44727L41.4 8.77466L46.1126 9.35398Z" fill="#FF6C1A"/>
<path d="M13.8809 61.4026L46.2968 53.5593L19.3194 49.7051L13.8809 61.4026Z" fill="#FF6C1A"/>
<path d="M11.1719 48.543L13.8793 61.4039L19.3178 49.7063L11.1719 48.543Z" fill="#FF6C1A"/>
<path d="M1.05469 47.0957L13.8778 61.4038L11.1703 48.5428L1.05469 47.0957Z" fill="#FF6C1A"/>
<path d="M7.82832 32.6484L-8.38086 36.5713L1.05617 47.096L11.1718 48.5431L7.82832 32.6484Z" fill="#FF6C1A"/>
<path d="M19.3184 49.7061L46.2958 53.5604L27.3508 32.4258L19.3184 49.7061Z" fill="#FF6C1A"/>
<path d="M43.0781 24.1156L46.2963 53.5593L52.2172 34.5008L56.4498 20.8809L43.0781 24.1156Z" fill="#FF6C1A"/>
<path d="M29.7071 27.3523L27.3496 32.4244L46.2946 53.559L43.0764 24.1152L29.7071 27.3523Z" fill="#FF6C1A"/>
<path d="M34.189 -3.95117L1.77539 3.89213L23.1795 6.52863L34.189 -3.95117Z" fill="#FF6C1A"/>
<path d="M23.1795 6.52713L1.77539 3.89062L12.9055 16.307L23.1795 6.52713Z" fill="#FF6C1A"/>
<path d="M38.5095 8.41557L40.8197 3.44523L34.1894 -3.95117L23.1799 6.52863L38.5095 8.41557Z" fill="#FF6C1A"/>
<path d="M5.80897 23.0625L-8.38086 36.5713L7.82832 32.6485L5.80897 23.0625Z" fill="#FF6C1A"/>
<path d="M6.31065 22.585L12.9055 16.307L1.77539 3.89062L5.71478 22.6039L6.31065 22.585Z" fill="#FF6C1A"/>
<path d="M1.77539 3.89062L-4.14551 22.9397L5.71478 22.6039L1.77539 3.89062Z" fill="#FF6C1A"/>
<path d="M5.71439 22.6035L-4.1459 22.9393L-8.38086 36.5687L5.80897 23.0599L5.71439 22.6035Z" fill="#FF6C1A"/>
</g>
<path d="M119.937 43.7783H117.767V42.6055H123.399V43.7783H121.228V49.4486H119.937V43.7783Z" fill="#4C596D"/>
<path d="M130.46 49.4509H125.336V42.6055H130.46V43.8563H126.618V45.4311H130.323V46.6347H126.618V48.1788H130.46V49.4509Z" fill="#4C596D"/>
<path d="M138.665 48.5906C137.96 49.2858 137.052 49.6074 136.064 49.6074C133.522 49.6074 132.446 47.8576 132.437 46.0771C132.427 44.2871 133.591 42.4688 136.064 42.4688C136.993 42.4688 137.873 42.8211 138.577 43.5139L137.717 44.3439C137.267 43.904 136.66 43.6983 136.064 43.6983C134.411 43.6983 133.697 44.9303 133.706 46.0747C133.716 47.2097 134.371 48.392 136.064 48.392C136.66 48.392 137.336 48.1485 137.785 47.6968L138.665 48.5859V48.5906Z" fill="#4C596D"/>
<path d="M145.226 49.4587V46.6922H141.863V49.4587H140.572V42.6133H141.863V45.4981H145.226V42.6133H146.507V49.4587H145.226Z" fill="#4C596D"/>
<path d="M156.266 44.2584C156.032 43.8683 155.387 43.4947 154.644 43.4947C153.686 43.4947 153.225 43.8967 153.225 44.405C153.225 45.0009 153.93 45.1688 154.751 45.2657C156.179 45.4407 157.508 45.8143 157.508 47.4459C157.508 48.971 156.157 49.626 154.632 49.626C153.235 49.626 152.159 49.1957 151.651 47.9448L152.726 47.3868C153.029 48.1387 153.821 48.4721 154.654 48.4721C155.486 48.4721 156.228 48.1884 156.228 47.4459C156.228 46.8004 155.554 46.5355 154.644 46.4386C153.247 46.2731 151.956 45.9018 151.956 44.3648C151.956 42.9579 153.344 42.381 154.606 42.3691C155.673 42.3691 156.777 42.6718 157.295 43.7288L156.269 44.2561L156.266 44.2584Z" fill="#4C596D"/>
<path d="M166.408 46.0676C166.389 47.8363 165.304 49.6074 162.897 49.6074C160.49 49.6074 159.376 47.8765 159.376 46.0771C159.376 44.2777 160.53 42.4688 162.897 42.4688C165.264 42.4688 166.427 44.2777 166.408 46.0676ZM160.648 46.096C160.676 47.2215 161.284 48.4228 162.897 48.4228C164.509 48.4228 165.117 47.2097 165.136 46.0866C165.155 44.9326 164.509 43.6416 162.897 43.6416C161.284 43.6416 160.617 44.9421 160.648 46.096Z" fill="#4C596D"/>
<path d="M169.82 42.6078V48.2592H173.341V49.4509H168.529V42.6055H169.82V42.6078Z" fill="#4C596D"/>
<path d="M181.026 42.6152V46.5357C181.026 48.5598 179.785 49.5955 178.063 49.5955C176.342 49.5955 175.022 48.5976 175.022 46.5357V42.6152H176.304V46.5357C176.304 47.7676 177.009 48.4226 178.075 48.4226C179.142 48.4226 179.747 47.7085 179.747 46.5357V42.6152H181.028H181.026Z" fill="#4C596D"/>
<path d="M185.232 43.7783H183.062V42.6055H188.694V43.7783H186.523V49.4486H185.232V43.7783Z" fill="#4C596D"/>
<path d="M190.659 49.4509V42.6055H191.941V49.4509H190.659Z" fill="#4C596D"/>
<path d="M201.261 46.0676C201.242 47.8363 200.157 49.6074 197.749 49.6074C195.342 49.6074 194.229 47.8765 194.229 46.0771C194.229 44.2777 195.382 42.4688 197.749 42.4688C200.116 42.4688 201.28 44.2777 201.261 46.0676ZM195.501 46.096C195.529 47.2215 196.137 48.4228 197.749 48.4228C199.362 48.4228 199.97 47.2097 199.989 46.0866C200.008 44.9326 199.362 43.6416 197.749 43.6416C196.137 43.6416 195.47 44.9421 195.501 46.096Z" fill="#4C596D"/>
<path d="M207.88 42.5957H209.171V49.4506H208.369V49.4601L204.771 44.835V49.4506H203.479V42.6052H204.527L207.88 46.8496V42.5957Z" fill="#4C596D"/>
<path d="M215.858 44.2584C215.624 43.8683 214.978 43.4947 214.236 43.4947C213.278 43.4947 212.817 43.8967 212.817 44.405C212.817 45.0009 213.522 45.1688 214.342 45.2657C215.771 45.4407 217.099 45.8143 217.099 47.4459C217.099 48.971 215.749 49.626 214.224 49.626C212.827 49.626 211.751 49.1957 211.242 47.9448L212.318 47.3868C212.621 48.1387 213.413 48.4721 214.245 48.4721C215.078 48.4721 215.82 48.1884 215.82 47.4459C215.82 46.8004 215.146 46.5355 214.236 46.4386C212.839 46.2731 211.547 45.9018 211.547 44.3648C211.547 42.9579 212.935 42.381 214.198 42.3691C215.265 42.3691 216.369 42.6718 216.887 43.7288L215.86 44.2561L215.858 44.2584Z" fill="#4C596D"/>
<path d="M225.649 47.436H223.712V49.4506H222.421V42.6052C223.497 42.6052 224.573 42.5957 225.649 42.5957C228.992 42.5957 229.002 47.436 225.649 47.436ZM223.712 46.2537H225.649C227.301 46.2537 227.292 43.8276 225.649 43.8276H223.712V46.2537Z" fill="#4C596D"/>
<path d="M234.147 44.6211L232.095 49.4708H230.804L228.739 44.6211H230.04L230.704 46.2148L231.447 48.2484L232.18 46.2337L232.844 44.6211H234.145H234.147Z" fill="#4C596D"/>
<path d="M236.404 43.2715V44.6406H237.733V45.6668H236.392V47.75C236.392 48.2087 236.648 48.4334 237.019 48.4334C237.206 48.4334 237.421 48.3742 237.596 48.2868L237.929 49.3035C237.586 49.4407 237.303 49.4998 236.941 49.5092C235.896 49.5494 235.21 48.9512 235.21 47.75V45.6668H234.312V44.6406H235.21V43.3992L236.402 43.2715H236.404Z" fill="#4C596D"/>
<path d="M240.004 48.8356C240.004 49.7649 238.597 49.7649 238.597 48.8356C238.597 47.9064 240.004 47.9064 240.004 48.8356Z" fill="#4C596D"/>
<path d="M245.324 42.6078V48.2592H248.845V49.4509H244.033V42.6055H245.324V42.6078Z" fill="#4C596D"/>
<path d="M251.349 43.2715V44.6406H252.677V45.6668H251.337V47.75C251.337 48.2087 251.592 48.4334 251.963 48.4334C252.15 48.4334 252.365 48.3742 252.54 48.2868L252.874 49.3035C252.531 49.4407 252.247 49.4998 251.885 49.5092C250.84 49.5494 250.154 48.9512 250.154 47.75V45.6668H249.256V44.6406H250.154V43.3992L251.346 43.2715H251.349Z" fill="#4C596D"/>
<path d="M258.575 42.6152V49.4512H257.461L257.383 48.7868C257.012 49.3637 256.416 49.56 255.829 49.56C254.411 49.56 253.347 48.6213 253.347 47.037C253.347 45.3747 254.394 44.514 255.801 44.514C256.309 44.514 257.102 44.7883 257.385 45.2872V42.6176H258.579L258.575 42.6152ZM254.536 47.0346C254.536 47.8764 255.141 48.4534 255.905 48.4534C256.669 48.4534 257.303 47.9048 257.303 47.0346C257.303 46.1645 256.657 45.6277 255.905 45.6277C255.153 45.6277 254.536 46.1645 254.536 47.0346Z" fill="#4C596D"/>
<path d="M260.989 48.8356C260.989 49.7649 259.582 49.7649 259.582 48.8356C259.582 47.9064 260.989 47.9064 260.989 48.8356Z" fill="#4C596D"/>
</g>
<defs>
<linearGradient id="paint0_linear_326_1190" x1="31.1387" y1="23.3064" x2="42.4134" y2="26.8094" gradientUnits="userSpaceOnUse">
<stop stop-color="#F06924"/>
<stop offset="1" stop-color="#EE5225"/>
</linearGradient>
<linearGradient id="paint1_linear_326_1190" x1="18.1945" y1="22.6534" x2="30.9754" y2="26.6244" gradientUnits="userSpaceOnUse">
<stop stop-color="#F06924"/>
<stop offset="1" stop-color="#F27E20"/>
</linearGradient>
<linearGradient id="paint2_linear_326_1190" x1="39.8094" y1="14.4524" x2="56.9619" y2="19.7817" gradientUnits="userSpaceOnUse">
<stop stop-color="#F06924"/>
<stop offset="1" stop-color="#F27E20"/>
</linearGradient>
<linearGradient id="paint3_linear_326_1190" x1="24.1068" y1="29.0584" x2="28.8917" y2="30.545" gradientUnits="userSpaceOnUse">
<stop stop-color="#F06924"/>
<stop offset="1" stop-color="#F27E20"/>
</linearGradient>
<linearGradient id="paint4_linear_326_1190" x1="43.0663" y1="20.9596" x2="55.4046" y2="24.7931" gradientUnits="userSpaceOnUse">
<stop stop-color="#F06924"/>
<stop offset="1" stop-color="#EE5225"/>
</linearGradient>
<linearGradient id="paint5_linear_326_1190" x1="5.21279" y1="25.5401" x2="23.4379" y2="31.2026" gradientUnits="userSpaceOnUse">
<stop stop-color="#F06924"/>
<stop offset="1" stop-color="#EE5225"/>
</linearGradient>
<linearGradient id="paint6_linear_326_1190" x1="14.5537" y1="11.5598" x2="35.6669" y2="18.1197" gradientUnits="userSpaceOnUse">
<stop stop-color="#F06924"/>
<stop offset="1" stop-color="#EE5225"/>
</linearGradient>
<linearGradient id="paint7_linear_326_1190" x1="34.5673" y1="15.0644" x2="43.9881" y2="17.9914" gradientUnits="userSpaceOnUse">
<stop stop-color="#F06924"/>
<stop offset="1" stop-color="#F27E20"/>
</linearGradient>
<linearGradient id="paint8_linear_326_1190" x1="5.68633" y1="23.2512" x2="6.22264" y2="23.4178" gradientUnits="userSpaceOnUse">
<stop stop-color="#F27E20"/>
<stop offset="1" stop-color="#F79D1D"/>
</linearGradient>
<linearGradient id="paint9_linear_326_1190" x1="6.99643" y1="35.8784" x2="24.736" y2="41.3901" gradientUnits="userSpaceOnUse">
<stop stop-color="#F06924"/>
<stop offset="1" stop-color="#F27E20"/>
</linearGradient>
<linearGradient id="paint10_linear_326_1190" x1="7.49295" y1="19.3341" x2="18.1941" y2="22.6589" gradientUnits="userSpaceOnUse">
<stop stop-color="#F27E20"/>
<stop offset="1" stop-color="#F79D1D"/>
</linearGradient>
<linearGradient id="paint11_linear_326_1190" x1="39.3185" y1="6.36528" x2="42.0576" y2="7.21631" gradientUnits="userSpaceOnUse">
<stop stop-color="#F27E20"/>
<stop offset="1" stop-color="#F79D1D"/>
</linearGradient>
<linearGradient id="paint12_linear_326_1190" x1="40.0921" y1="6.33594" x2="46.5932" y2="8.35581" gradientUnits="userSpaceOnUse">
<stop stop-color="#F06924"/>
<stop offset="1" stop-color="#F27E20"/>
</linearGradient>
<linearGradient id="paint13_linear_326_1190" x1="16.4254" y1="53.7773" x2="43.7619" y2="62.2707" gradientUnits="userSpaceOnUse">
<stop stop-color="#F06924"/>
<stop offset="1" stop-color="#EE5225"/>
</linearGradient>
<linearGradient id="paint14_linear_326_1190" x1="9.66694" y1="53.9448" x2="17.4258" y2="56.3554" gradientUnits="userSpaceOnUse">
<stop stop-color="#F27E20"/>
<stop offset="1" stop-color="#F79D1D"/>
</linearGradient>
<linearGradient id="paint15_linear_326_1190" x1="-11.7521" y1="47.9736" x2="15.5867" y2="56.4678" gradientUnits="userSpaceOnUse">
<stop stop-color="#F06924"/>
<stop offset="1" stop-color="#EE5225"/>
</linearGradient>
<linearGradient id="paint16_linear_326_1190" x1="-8.18371" y1="36.4938" x2="19.1551" y2="44.9879" gradientUnits="userSpaceOnUse">
<stop stop-color="#F06924"/>
<stop offset="1" stop-color="#EE5225"/>
</linearGradient>
<linearGradient id="paint17_linear_326_1190" x1="22.1248" y1="41.2327" x2="47.8174" y2="49.2154" gradientUnits="userSpaceOnUse">
<stop stop-color="#F27E20"/>
<stop offset="1" stop-color="#F79D1D"/>
</linearGradient>
<linearGradient id="paint18_linear_326_1190" x1="40.0988" y1="34.2598" x2="51.3757" y2="37.7636" gradientUnits="userSpaceOnUse">
<stop stop-color="#F27E20"/>
<stop offset="1" stop-color="#F79D1D"/>
</linearGradient>
<linearGradient id="paint19_linear_326_1190" x1="27.062" y1="33.9073" x2="50.3272" y2="41.1358" gradientUnits="userSpaceOnUse">
<stop stop-color="#F06924"/>
<stop offset="1" stop-color="#F27E20"/>
</linearGradient>
<linearGradient id="paint20_linear_326_1190" x1="4.3148" y1="-3.73264" x2="31.6536" y2="4.76151" gradientUnits="userSpaceOnUse">
<stop stop-color="#F06924"/>
<stop offset="1" stop-color="#EE5225"/>
</linearGradient>
<linearGradient id="paint21_linear_326_1190" x1="1.07626" y1="6.68923" x2="21.3449" y2="12.9867" gradientUnits="userSpaceOnUse">
<stop stop-color="#F27E20"/>
<stop offset="1" stop-color="#F79D1D"/>
</linearGradient>
<linearGradient id="paint22_linear_326_1190" x1="25.1528" y1="0.733513" x2="40.3656" y2="5.46012" gradientUnits="userSpaceOnUse">
<stop stop-color="#F06924"/>
<stop offset="1" stop-color="#F27E20"/>
</linearGradient>
<linearGradient id="paint23_linear_326_1190" x1="-5.839" y1="28.9469" x2="7.83152" y2="33.1943" gradientUnits="userSpaceOnUse">
<stop stop-color="#F06924"/>
<stop offset="1" stop-color="#F27E20"/>
</linearGradient>
<linearGradient id="paint24_linear_326_1190" x1="-0.701568" y1="12.4112" x2="12.9689" y2="16.6587" gradientUnits="userSpaceOnUse">
<stop stop-color="#F06924"/>
<stop offset="1" stop-color="#F27E20"/>
</linearGradient>
<linearGradient id="paint25_linear_326_1190" x1="-1.18286" y1="13.9603" x2="7.71404" y2="16.7246" gradientUnits="userSpaceOnUse">
<stop stop-color="#F06924"/>
<stop offset="1" stop-color="#EE5225"/>
</linearGradient>
<linearGradient id="paint26_linear_326_1190" x1="-5.77796" y1="28.7497" x2="3.33572" y2="31.5813" gradientUnits="userSpaceOnUse">
<stop stop-color="#F27E20"/>
<stop offset="1" stop-color="#F79D1D"/>
</linearGradient>
<clipPath id="clip0_326_1190">
<rect width="260.978" height="57.9913" fill="white" transform="translate(0.0107422)"/>
</clipPath>
</defs>
</svg>
