<svg width="24" height="24" viewBox="0 0 24 24" fill="none" xmlns="http://www.w3.org/2000/svg">
<path fill-rule="evenodd" clip-rule="evenodd" d="M21.6 0H2.4C1.07452 0 0 1.07452 0 2.4V21.6C0 22.9255 1.07452 24 2.4 24H21.6C22.9255 24 24 22.9255 24 21.6V2.4C24 1.07452 22.9255 0 21.6 0ZM4.79999 5.47676C4.79999 6.5129 5.64037 7.3547 6.67964 7.3547C7.71564 7.3547 8.5582 6.5129 8.5582 5.47676C8.5582 4.44171 7.71564 3.59991 6.67964 3.59991C5.64146 3.59991 4.79999 4.44062 4.79999 5.47676ZM5.10052 19.1998H8.32434V8.83615H5.10052V19.1998ZM20.4 19.1996H17.1784V14.1597C17.1784 12.9576 17.1565 11.4116 15.5031 11.4116C13.8256 11.4116 13.5677 12.7207 13.5677 14.0723V19.1996H10.3461V8.83595H13.4387V10.252H13.4825C13.913 9.43754 14.9643 8.57828 16.5325 8.57828C19.7968 8.57828 20.4 10.7248 20.4 13.5155V19.1996Z" fill="#192A44"/>
</svg>
