<svg width="24" height="24" viewBox="0 0 24 24" fill="none" xmlns="http://www.w3.org/2000/svg">
<path fill-rule="evenodd" clip-rule="evenodd" d="M1.625 0C0.727537 0 0 0.727537 0 1.625V22.375C0 23.2725 0.727537 24 1.625 24H9.21996C9.16657 23.8435 9.13225 23.6619 9.13225 23.4368V21.4552H7.69381C6.91069 21.4552 6.21437 21.1141 5.8767 20.4803C5.76311 20.2669 5.67799 20.0192 5.58866 19.7594C5.38318 19.1615 5.15546 18.499 4.5079 18.0397C4.23223 17.8204 4.44208 17.5702 4.75972 17.604C5.34635 17.7721 5.83282 18.1798 6.29068 18.7847C6.74663 19.3905 6.96125 19.5277 7.81305 19.5277C8.22607 19.5277 8.84418 19.5035 9.42604 19.4108C9.7389 18.6059 10.2797 17.8649 10.9408 17.5151C7.12913 17.118 5.3101 15.1972 5.3101 12.5895C5.3101 11.4668 5.78227 10.3808 6.58447 9.46582C6.3212 8.55761 5.99021 6.70544 6.68558 6.00012C8.40063 6.00012 9.43748 7.12669 9.68644 7.43104C10.5411 7.13442 11.4797 6.96631 12.466 6.96631C13.4542 6.96631 14.3966 7.13442 15.2532 7.43297C15.4993 7.13056 16.5371 6.00012 18.256 6.00012C18.9542 6.7064 18.6194 8.56631 18.3533 9.47259C19.1507 10.3856 19.62 11.4687 19.62 12.5895C19.62 15.1953 17.8038 17.1151 13.9979 17.5141C15.0453 18.0678 15.8093 19.6233 15.8093 20.7953V23.4368C15.8093 23.5373 15.7874 23.9138 15.7759 24H22.375C23.2725 24 24 23.2725 24 22.375V1.625C24 0.727537 23.2725 0 22.375 0H1.625Z" fill="#192A44"/>
</svg>
