<svg width="24" height="24" viewBox="0 0 24 24" fill="none" xmlns="http://www.w3.org/2000/svg">
<path fill-rule="evenodd" clip-rule="evenodd" d="M21.6 0H2.4C1.07452 0 0 1.07452 0 2.4V21.6C0 22.9255 1.07452 24 2.4 24H21.6C22.9255 24 24 22.9255 24 21.6V2.4C24 1.07452 22.9255 0 21.6 0ZM8.94093 18.2477C9.96109 18.8075 11.1337 19.1265 12.3818 19.1265C16.3132 19.1265 19.5 15.9643 19.5 12.0633C19.5 8.16229 16.3131 5 12.3819 5C8.45036 5 5.26342 8.16229 5.26342 12.0633C5.26342 13.3976 5.6367 14.6459 6.28469 15.7103L5 19.5L8.94093 18.2477ZM6.39715 12.0633C6.39715 8.78885 9.08159 6.12488 12.3818 6.12488C15.6815 6.12488 18.3664 8.78901 18.3664 12.0634C18.3664 15.3378 15.6815 18.0017 12.3818 18.0017C11.1662 18.0017 10.0342 17.6398 9.08914 17.0194L6.78945 17.7503L7.53701 15.545C6.82071 14.566 6.39715 13.3626 6.39715 12.0633ZM15.7367 13.5341C15.8585 13.5925 15.9408 13.632 15.9762 13.69C16.0195 13.7622 16.0195 14.1089 15.8743 14.5134C15.7285 14.9177 15.0161 15.3076 14.6966 15.3364C14.6418 15.3413 14.5964 15.3522 14.5498 15.3634C14.3246 15.4173 14.0726 15.4777 12.6023 14.9033C10.9632 14.2627 9.88276 12.6725 9.65945 12.3438C9.64111 12.3169 9.62856 12.2984 9.62194 12.2896L9.62165 12.2892C9.53309 12.1725 8.90951 11.3502 8.90951 10.4992C8.90951 9.70219 9.30404 9.28419 9.48572 9.09171C9.49821 9.07848 9.50969 9.06631 9.51997 9.05516C9.67995 8.88196 9.8691 8.83862 9.98542 8.83862C10.0455 8.83862 10.1056 8.84249 10.1637 8.84624C10.2181 8.84974 10.2707 8.85313 10.3199 8.85313C10.3321 8.85313 10.3449 8.8523 10.3582 8.85144C10.4566 8.84511 10.5844 8.83688 10.7123 9.14184C10.7589 9.25291 10.8264 9.41583 10.898 9.58883C11.05 9.95585 11.2208 10.3682 11.2505 10.427C11.2941 10.5139 11.3233 10.6149 11.265 10.7304C11.2565 10.7473 11.2487 10.7632 11.2412 10.7785C11.1973 10.8677 11.1652 10.9329 11.0906 11.0193C11.0613 11.0533 11.0309 11.0899 11.0005 11.1265C10.9407 11.1988 10.8809 11.271 10.8288 11.3225C10.7415 11.4087 10.6505 11.5023 10.7523 11.6755C10.854 11.849 11.2042 12.4155 11.7228 12.8743C12.2807 13.3679 12.7656 13.5765 13.011 13.6821C13.0589 13.7027 13.0977 13.7194 13.1261 13.7335C13.3006 13.8202 13.4023 13.8057 13.5041 13.69C13.6061 13.5745 13.9405 13.1848 14.0567 13.0114C14.1729 12.838 14.2893 12.8672 14.4495 12.9249C14.6092 12.9824 15.4672 13.4015 15.6419 13.488C15.6757 13.5048 15.7074 13.52 15.7367 13.5341Z" fill="#192A44"/>
</svg>
