<svg width="24" height="24" viewBox="0 0 24 24" fill="none" xmlns="http://www.w3.org/2000/svg">
<path fill-rule="evenodd" clip-rule="evenodd" d="M2.4 0H21.6C22.9255 0 24 1.07452 24 2.4V21.6C24 22.9255 22.9255 24 21.6 24H2.4C1.07452 24 0 22.9255 0 21.6V2.4C0 1.07452 1.07452 0 2.4 0Z" fill="#192A44"/>
<path d="M4.03901 5L10.2164 13.2366L4 19.9333H5.39907L10.8415 14.0703L15.2389 19.9333H20L13.475 11.2334L19.2612 5H17.8621L12.8499 10.3998L8.8001 5H4.03901ZM6.09644 6.02766H8.2837L17.9422 18.9055H15.755L6.09644 6.02766Z" fill="#F3F4F6"/>
</svg>
