<svg width="24" height="24" viewBox="0 0 24 24" fill="none" xmlns="http://www.w3.org/2000/svg">
<path fill-rule="evenodd" clip-rule="evenodd" d="M7.2 0H16.8C20.7765 0 24 3.22355 24 7.2V16.8C24 20.7765 20.7765 24 16.8 24H7.2C3.22355 24 0 20.7765 0 16.8V7.2C0 3.22355 3.22355 0 7.2 0ZM19.2 3.59991C19.8 3.59991 20.4 4.19991 20.4 4.79991C20.4 5.39991 19.8 5.99991 19.2 5.99991C18.6 5.99991 18 5.39991 18 4.79991C18 4.19991 18.6 3.59991 19.2 3.59991ZM18 12.0001C18 8.69112 15.309 6.00012 12 6.00012C8.691 6.00012 6 8.69112 6 12.0001C6 15.3091 8.691 18.0001 12 18.0001C15.309 18.0001 18 15.3091 18 12.0001ZM12 8.39993C10.0118 8.39993 8.39999 10.0117 8.39999 11.9999C8.39999 13.9882 10.0118 15.5999 12 15.5999C13.9882 15.5999 15.6 13.9882 15.6 11.9999C15.6 10.0117 13.9882 8.39993 12 8.39993Z" fill="#192A44"/>
</svg>
