<svg width="24" height="24" viewBox="0 0 24 24" fill="none" xmlns="http://www.w3.org/2000/svg">
<path fill-rule="evenodd" clip-rule="evenodd" d="M21.6 0H2.4C1.07452 0 0 1.07452 0 2.4V21.6C0 22.9255 1.07452 24 2.4 24H21.6C22.9255 24 24 22.9255 24 21.6V2.4C24 1.07452 22.9255 0 21.6 0ZM20.624 7.87381C20.417 7.13624 19.8071 6.55538 19.0326 6.35829C17.6287 6 12 6 12 6C12 6 6.37125 6 4.96735 6.35829C4.19305 6.55538 3.58305 7.13624 3.37605 7.87381C3 9.21071 3 12.0001 3 12.0001C3 12.0001 3 14.7894 3.37605 16.1262C3.58305 16.8638 4.19305 17.4448 4.96735 17.6419C6.37125 18 12 18 12 18C12 18 17.6287 18 19.0326 17.6419C19.8071 17.4448 20.417 16.8638 20.624 16.1262C21 14.7894 21 12.0001 21 12.0001C21 12.0001 21 9.21071 20.624 7.87381Z" fill="#192A44"/>
<path d="M10 9V15L15 12L10 9Z" fill="#192A44"/>
</svg>
