<svg width="24" height="24" viewBox="0 0 24 24" fill="none" xmlns="http://www.w3.org/2000/svg">
<path fill-rule="evenodd" clip-rule="evenodd" d="M21.6 0H2.4C1.07452 0 0 1.07452 0 2.4V21.6C0 22.9255 1.07452 24 2.4 24H21.6C22.9255 24 24 22.9255 24 21.6V2.4C24 1.07452 22.9255 0 21.6 0ZM18.4202 7.48711C19.1174 7.40652 19.7816 7.22784 20.4 6.96233C19.938 7.63017 19.3533 8.2168 18.6793 8.68722C18.6858 8.83029 18.689 8.97397 18.689 9.11829C18.689 13.522 15.2232 18.5999 8.88339 18.5999C6.9366 18.5999 5.1255 18.0482 3.59999 17.103C3.87007 17.1342 4.14468 17.1499 4.42251 17.1499C6.03783 17.1499 7.52393 16.617 8.70312 15.723C7.19505 15.6961 5.92218 14.7321 5.48346 13.4083C5.69345 13.4464 5.9099 13.4677 6.13152 13.4677C6.44619 13.4677 6.75116 13.4271 7.03998 13.3509C5.46278 13.0454 4.27519 11.6984 4.27519 10.0835V10.0416C4.73976 10.2909 5.27152 10.4408 5.83624 10.4583C4.91163 9.8611 4.30362 8.84091 4.30362 7.68515C4.30362 7.07353 4.47356 6.50128 4.76948 6.00899C6.47009 8.02563 9.00938 9.35256 11.8737 9.49125C11.8155 9.24823 11.7845 8.99334 11.7845 8.7322C11.7845 6.89236 13.3275 5.39987 15.231 5.39987C16.2221 5.39987 17.1177 5.8047 17.7463 6.45255C18.532 6.30261 19.2699 6.02523 19.9354 5.64352C19.6783 6.42194 19.1323 7.07478 18.4202 7.48711Z" fill="#192A44"/>
</svg>
