<svg xmlns="http://www.w3.org/2000/svg" width="158.103" height="92.127" viewBox="0 0 158.103 92.127">
    <g data-name="Group 853" transform="translate(-6855.606 2263.379)">
        <path data-name="Rectangle 447" d="M0 0h16.9v15.151A8.448 8.448 0 0 1 8.448 23.6h0A8.448 8.448 0 0 1 0 15.151V0h0z" transform="translate(6870.931 -2243.167)" style="stroke:#ff6c1a;stroke-linecap:round;stroke-linejoin:round;stroke-width:3px;fill:none"/>
        <path data-name="Rectangle 448" d="M0 0h16.9v15.151A8.448 8.448 0 0 1 8.448 23.6h0A8.448 8.448 0 0 1 0 15.151V0h0z" transform="translate(6981.489 -2243.165)" style="stroke:#ff6c1a;stroke-linecap:round;stroke-linejoin:round;stroke-width:3px;fill:none"/>
        <path data-name="Line 70" transform="translate(6879.379 -2261.879)" style="fill:#fff;stroke:#ff6c1a;stroke-linecap:round;stroke-linejoin:round;stroke-width:3px" d="M0 18.799V0"/>
        <path data-name="Line 71" transform="translate(6989.938 -2261.876)" style="fill:#fff;stroke:#ff6c1a;stroke-linecap:round;stroke-linejoin:round;stroke-width:3px" d="M0 18.799V0"/>
        <path data-name="Line 72" transform="translate(6967.665 -2253.707)" style="fill:#fff;stroke:#ff6c1a;stroke-linecap:round;stroke-linejoin:round;stroke-width:3px" d="M44.545 0H0"/>
        <path data-name="Line 73" transform="translate(6857.106 -2253.71)" style="fill:#fff;stroke:#ff6c1a;stroke-linecap:round;stroke-linejoin:round;stroke-width:3px" d="M44.545 0H0"/>
        <path data-name="Path 2714" d="M6932.3-2206.043h93.418v12.009h-21.085a8.238 8.238 0 0 0-8.238 8.239h0a8.239 8.239 0 0 1-8.239 8.239h-17.315a8.238 8.238 0 0 1-8.239-8.239v-.7a8.238 8.238 0 0 0-8.238-8.239h-21.784s-.421-11.309-.28-11.309z" transform="translate(-44.333 -32.933)" style="stroke:#ff6c1a;stroke-linecap:round;stroke-linejoin:round;stroke-width:3px;fill:none"/>
        <path data-name="Path 2715" d="M6948.871-2151.016a46.519 46.519 0 0 0-30.441 43.652h-10" transform="translate(-30.269 -65.388)" style="stroke:#ff6c1a;stroke-linecap:round;stroke-linejoin:round;stroke-width:3px;fill:none"/>
        <path data-name="Path 2716" d="M7087.517-2151.016a46.518 46.518 0 0 1 30.44 43.652h10" transform="translate(-135.899 -65.388)" style="stroke:#ff6c1a;stroke-linecap:round;stroke-linejoin:round;stroke-width:3px;fill:none"/>
        <path data-name="Line 74" transform="translate(6934.662 -2210.446)" style="stroke:#ff6c1a;stroke-linecap:round;stroke-linejoin:round;stroke-width:3px;fill:none" d="M0 0v11.869"/>
        <rect data-name="Rectangle 449" width="28.207" height="20.082" rx="10.041" transform="translate(6920.558 -2197.616)" style="stroke:#ff6c1a;stroke-linecap:round;stroke-linejoin:round;stroke-width:3px;fill:none"/>
        <path data-name="Line 75" transform="translate(6929.739 -2187.575)" style="stroke:#ff6c1a;stroke-linecap:round;stroke-linejoin:round;stroke-width:3px;fill:none" d="M0 0h9.845"/>
    </g>
</svg>
