<svg xmlns="http://www.w3.org/2000/svg" width="85.098" height="93.131" viewBox="0 0 85.098 93.131">
    <g data-name="Group 852">
        <path data-name="Path 2711" d="m6165.305-1692.138-55.136 8.2a4.111 4.111 0 0 1-4.671-3.462l-10.658-71.678a4.111 4.111 0 0 1 3.461-4.671l46.66-6.938 14.409 10.678 9.4 63.2a4.112 4.112 0 0 1-3.465 4.671z" transform="translate(-6093.289 1775.519)" style="stroke:#ff6c1a;stroke-linecap:round;stroke-linejoin:round;stroke-width:3px;fill:#fff"/>
        <path data-name="Path 2712" d="M6221.066-1702.206h-55.742a4.111 4.111 0 0 1-4.112-4.111v-72.466a4.112 4.112 0 0 1 4.112-4.111h47.176l12.682 12.682v63.9a4.111 4.111 0 0 1-4.116 4.106z" transform="translate(-6141.581 1784.394)" style="stroke:#ff6c1a;stroke-linecap:round;stroke-linejoin:round;stroke-width:3px;fill:#fff"/>
        <path data-name="Path 2713" d="M6349.127-1781.894v12.827h12.635" transform="translate(-6278.212 1783.667)" style="fill:none;stroke:#ff6c1a;stroke-linecap:round;stroke-linejoin:round;stroke-width:3px"/>
        <path data-name="Line 65" transform="translate(28.341 24.61)" style="fill:none;stroke:#ff6c1a;stroke-linecap:round;stroke-linejoin:round;stroke-width:3px" d="M0 0h46.545"/>
        <path data-name="Line 66" transform="translate(28.341 67.532)" style="fill:none;stroke:#ff6c1a;stroke-linecap:round;stroke-linejoin:round;stroke-width:3px" d="M0 0h46.545"/>
        <path data-name="Line 67" transform="translate(28.341 56.802)" style="fill:none;stroke:#ff6c1a;stroke-linecap:round;stroke-linejoin:round;stroke-width:3px" d="M0 0h46.545"/>
        <path data-name="Line 68" transform="translate(28.341 46.071)" style="fill:none;stroke:#ff6c1a;stroke-linecap:round;stroke-linejoin:round;stroke-width:3px" d="M0 0h46.545"/>
        <path data-name="Line 69" transform="translate(28.341 35.341)" style="fill:none;stroke:#ff6c1a;stroke-linecap:round;stroke-linejoin:round;stroke-width:3px" d="M0 0h46.545"/>
    </g>
</svg>
