<svg xmlns="http://www.w3.org/2000/svg" width="99.722" height="92.629" viewBox="0 0 99.722 92.629">
    <g data-name="Group 851">
        <g data-name="Group 850">
            <path data-name="Path 2708" d="M5335.946-850.763h-96.722l11.309-30.854h74.1z" transform="translate(-5237.725 941.391)" style="stroke:#ff6c1a;stroke-linecap:round;stroke-linejoin:round;stroke-width:3px;fill:none"/>
            <path data-name="Path 2709" d="M5322.2-1109.225a30.315 30.315 0 0 0-30.315 30.315c0 23.578 30.315 43.788 30.315 43.788s30.315-20.21 30.315-43.788a30.315 30.315 0 0 0-30.315-30.315zm0 40.42a10.1 10.1 0 0 1-10.1-10.1 10.1 10.1 0 0 1 10.1-10.105 10.105 10.105 0 0 1 10.1 10.105 10.105 10.105 0 0 1-10.1 10.105z" transform="translate(-5272.382 1110.725)" style="fill:#fff;stroke:#ff6c1a;stroke-linecap:round;stroke-linejoin:round;stroke-width:3px"/>
            <g data-name="Group 849">
                <path data-name="Line 62" style="stroke:#ff6c1a;stroke-linecap:round;stroke-linejoin:round;stroke-width:3px;fill:none" d="m0 0 17.953 24.007" transform="translate(14.738 59.774)"/>
                <path data-name="Line 63" transform="translate(15.991 66.779)" style="stroke:#ff6c1a;stroke-linecap:round;stroke-linejoin:round;stroke-width:3px;fill:none" d="M0 23.752 72.1 0"/>
                <path data-name="Line 64" transform="translate(68.885 74.109)" style="stroke:#ff6c1a;stroke-linecap:round;stroke-linejoin:round;stroke-width:3px;fill:none" d="m0 0 12.154 16.422"/>
            </g>
        </g>
    </g>
</svg>
