<svg xmlns="http://www.w3.org/2000/svg" width="99.722" height="92.629" viewBox="0 0 99.722 92.629">
  <g id="Group_851" data-name="Group 851" transform="translate(-753 -4009.5)">
    <g id="Group_850" data-name="Group 850" transform="translate(754 4011)">
      <path id="Path_2708" data-name="Path 2708" d="M5335.946-850.763h-96.722l11.309-30.854h74.1Z" transform="translate(-5238.725 939.891)" fill="none" stroke="#ff6c1a" stroke-linecap="round" stroke-linejoin="round" stroke-width="3"/>
      <path id="Path_2709" data-name="Path 2709" d="M5322.2-1109.225a30.315,30.315,0,0,0-30.315,30.315c0,23.578,30.315,43.788,30.315,43.788s30.315-20.21,30.315-43.788A30.315,30.315,0,0,0,5322.2-1109.225Zm0,40.42a10.1,10.1,0,0,1-10.1-10.1,10.1,10.1,0,0,1,10.1-10.105,10.105,10.105,0,0,1,10.1,10.105A10.105,10.105,0,0,1,5322.2-1068.8Z" transform="translate(-5273.382 1109.225)" fill="#fff" stroke="#ff6c1a" stroke-linecap="round" stroke-linejoin="round" stroke-width="3"/>
      <g id="Group_849" data-name="Group 849" transform="translate(13.738 58.274)">
        <line id="Line_62" data-name="Line 62" x2="17.953" y2="24.007" fill="none" stroke="#ff6c1a" stroke-linecap="round" stroke-linejoin="round" stroke-width="3"/>
        <line id="Line_63" data-name="Line 63" y1="23.752" x2="72.1" transform="translate(1.253 7.005)" fill="none" stroke="#ff6c1a" stroke-linecap="round" stroke-linejoin="round" stroke-width="3"/>
        <line id="Line_64" data-name="Line 64" x2="12.154" y2="16.422" transform="translate(54.147 14.335)" fill="none" stroke="#ff6c1a" stroke-linecap="round" stroke-linejoin="round" stroke-width="3"/>
      </g>
    </g>
  </g>
</svg>
