<svg xmlns="http://www.w3.org/2000/svg" width="158.104" height="92.127" viewBox="0 0 158.104 92.127">
  <g id="Group_853" data-name="Group 853" transform="translate(-6855.606 2263.379)">
    <path id="Rectangle_447" data-name="Rectangle 447" d="M0,0H16.9a0,0,0,0,1,0,0V15.151A8.448,8.448,0,0,1,8.448,23.6h0A8.448,8.448,0,0,1,0,15.151V0A0,0,0,0,1,0,0Z" transform="translate(6870.931 -2243.167)" fill="none" stroke="#ff6c1a" stroke-linecap="round" stroke-linejoin="round" stroke-width="3"/>
    <path id="Rectangle_448" data-name="Rectangle 448" d="M0,0H16.9a0,0,0,0,1,0,0V15.151A8.448,8.448,0,0,1,8.448,23.6h0A8.448,8.448,0,0,1,0,15.151V0A0,0,0,0,1,0,0Z" transform="translate(6981.489 -2243.165)" fill="none" stroke="#ff6c1a" stroke-linecap="round" stroke-linejoin="round" stroke-width="3"/>
    <line id="Line_70" data-name="Line 70" y1="18.799" transform="translate(6879.379 -2261.879)" fill="#fff" stroke="#ff6c1a" stroke-linecap="round" stroke-linejoin="round" stroke-width="3"/>
    <line id="Line_71" data-name="Line 71" y1="18.799" transform="translate(6989.938 -2261.876)" fill="#fff" stroke="#ff6c1a" stroke-linecap="round" stroke-linejoin="round" stroke-width="3"/>
    <line id="Line_72" data-name="Line 72" x1="44.545" transform="translate(6967.665 -2253.707)" fill="#fff" stroke="#ff6c1a" stroke-linecap="round" stroke-linejoin="round" stroke-width="3"/>
    <line id="Line_73" data-name="Line 73" x1="44.545" transform="translate(6857.106 -2253.71)" fill="#fff" stroke="#ff6c1a" stroke-linecap="round" stroke-linejoin="round" stroke-width="3"/>
    <path id="Path_2714" data-name="Path 2714" d="M6932.3-2206.043h93.418v12.009h-21.085a8.238,8.238,0,0,0-8.238,8.239h0a8.239,8.239,0,0,1-8.239,8.239h-17.315a8.238,8.238,0,0,1-8.239-8.239v-.7a8.238,8.238,0,0,0-8.238-8.239h-21.784S6932.159-2206.043,6932.3-2206.043Z" transform="translate(-44.333 -32.933)" fill="none" stroke="#ff6c1a" stroke-linecap="round" stroke-linejoin="round" stroke-width="3"/>
    <path id="Path_2715" data-name="Path 2715" d="M6948.871-2151.016a46.519,46.519,0,0,0-30.441,43.652h-10" transform="translate(-30.269 -65.388)" fill="none" stroke="#ff6c1a" stroke-linecap="round" stroke-linejoin="round" stroke-width="3"/>
    <path id="Path_2716" data-name="Path 2716" d="M7087.517-2151.016a46.518,46.518,0,0,1,30.44,43.652h10" transform="translate(-135.899 -65.388)" fill="none" stroke="#ff6c1a" stroke-linecap="round" stroke-linejoin="round" stroke-width="3"/>
    <line id="Line_74" data-name="Line 74" y2="11.869" transform="translate(6934.662 -2210.446)" fill="none" stroke="#ff6c1a" stroke-linecap="round" stroke-linejoin="round" stroke-width="3"/>
    <rect id="Rectangle_449" data-name="Rectangle 449" width="28.207" height="20.082" rx="10.041" transform="translate(6920.558 -2197.616)" fill="none" stroke="#ff6c1a" stroke-linecap="round" stroke-linejoin="round" stroke-width="3"/>
    <line id="Line_75" data-name="Line 75" x2="9.845" transform="translate(6929.739 -2187.575)" fill="none" stroke="#ff6c1a" stroke-linecap="round" stroke-linejoin="round" stroke-width="3"/>
  </g>
</svg>
