<svg xmlns="http://www.w3.org/2000/svg" width="94.281" height="92.135" viewBox="0 0 94.281 92.135">
  <g id="Group_857" data-name="Group 857" transform="translate(-8067.096 2364.419)">
    <path id="Path_2720" data-name="Path 2720" d="M8119.329-2273.784v-78.655a3.94,3.94,0,0,0-3.346-3.9l-42.853-6.531a3.94,3.94,0,0,0-4.534,3.9v85.186h50.732" fill="none" stroke="#ff6c1a" stroke-linecap="round" stroke-linejoin="round" stroke-width="3"/>
    <path id="Path_2721" data-name="Path 2721" d="M8274.638-2168.948v-54.882l37.409,7.769a3.94,3.94,0,0,1,3.14,3.858v43.255Z" transform="translate(-155.309 -104.836)" fill="none" stroke="#ff6c1a" stroke-linecap="round" stroke-linejoin="round" stroke-width="3"/>
    <path id="Rectangle_453" data-name="Rectangle 453" d="M9.849,0h0A9.849,9.849,0,0,1,19.7,9.849V23.3a0,0,0,0,1,0,0H0a0,0,0,0,1,0,0V9.849A9.849,9.849,0,0,1,9.849,0Z" transform="translate(8084.113 -2297.086)" fill="none" stroke="#ff6c1a" stroke-linecap="round" stroke-linejoin="round" stroke-width="3"/>
    <g id="Group_855" data-name="Group 855" transform="translate(8078.372 -2344.692)">
      <line id="Line_77" data-name="Line 77" x2="11.442" transform="translate(0)" fill="none" stroke="#ff6c1a" stroke-linecap="round" stroke-linejoin="round" stroke-width="3"/>
      <line id="Line_78" data-name="Line 78" x2="11.442" transform="translate(19.74)" fill="none" stroke="#ff6c1a" stroke-linecap="round" stroke-linejoin="round" stroke-width="3"/>
      <line id="Line_79" data-name="Line 79" x2="11.442" transform="translate(0 12.447)" fill="none" stroke="#ff6c1a" stroke-linecap="round" stroke-linejoin="round" stroke-width="3"/>
      <line id="Line_80" data-name="Line 80" x2="11.442" transform="translate(19.74 12.447)" fill="none" stroke="#ff6c1a" stroke-linecap="round" stroke-linejoin="round" stroke-width="3"/>
      <line id="Line_81" data-name="Line 81" x2="11.442" transform="translate(0 23.26)" fill="none" stroke="#ff6c1a" stroke-linecap="round" stroke-linejoin="round" stroke-width="3"/>
      <line id="Line_82" data-name="Line 82" x2="11.442" transform="translate(19.74 23.26)" fill="none" stroke="#ff6c1a" stroke-linecap="round" stroke-linejoin="round" stroke-width="3"/>
      <line id="Line_83" data-name="Line 83" x2="11.442" transform="translate(0 34.073)" fill="none" stroke="#ff6c1a" stroke-linecap="round" stroke-linejoin="round" stroke-width="3"/>
      <line id="Line_84" data-name="Line 84" x2="11.442" transform="translate(19.74 34.073)" fill="none" stroke="#ff6c1a" stroke-linecap="round" stroke-linejoin="round" stroke-width="3"/>
    </g>
    <g id="Group_856" data-name="Group 856" transform="translate(8133.882 -2312.038)">
      <line id="Line_85" data-name="Line 85" x2="11.442" transform="translate(0 0)" fill="none" stroke="#ff6c1a" stroke-linecap="round" stroke-linejoin="round" stroke-width="3"/>
      <line id="Line_86" data-name="Line 86" x2="11.442" transform="translate(0 10.813)" fill="none" stroke="#ff6c1a" stroke-linecap="round" stroke-linejoin="round" stroke-width="3"/>
      <line id="Line_87" data-name="Line 87" x2="11.442" transform="translate(0 21.626)" fill="none" stroke="#ff6c1a" stroke-linecap="round" stroke-linejoin="round" stroke-width="3"/>
    </g>
  </g>
</svg>
