<svg xmlns="http://www.w3.org/2000/svg" width="104.925" height="97.127" viewBox="0 0 104.925 97.127">
  <g id="Group_859" data-name="Group 859" transform="translate(-6208.997 553.713)">
    <line id="Line_88" data-name="Line 88" y1="13.441" transform="translate(6226.422 -552.213)" fill="#fff" stroke="#ff6c1a" stroke-linecap="round" stroke-linejoin="round" stroke-width="3"/>
    <g id="Group_858" data-name="Group 858" transform="translate(6252.5 -511.215)">
      <line id="Line_89" data-name="Line 89" y1="5.716" fill="#fff" stroke="#ff6c1a" stroke-linecap="round" stroke-linejoin="round" stroke-width="3"/>
      <line id="Line_90" data-name="Line 90" y1="5.716" transform="translate(18.034)" fill="#fff" stroke="#ff6c1a" stroke-linecap="round" stroke-linejoin="round" stroke-width="3"/>
    </g>
    <line id="Line_91" data-name="Line 91" x1="31.85" transform="translate(6210.497 -547.545)" fill="#fff" stroke="#ff6c1a" stroke-linecap="round" stroke-linejoin="round" stroke-width="3"/>
    <line id="Line_92" data-name="Line 92" y1="13.441" transform="translate(6296.497 -552.213)" fill="#fff" stroke="#ff6c1a" stroke-linecap="round" stroke-linejoin="round" stroke-width="3"/>
    <line id="Line_93" data-name="Line 93" x1="31.85" transform="translate(6280.572 -547.545)" fill="#fff" stroke="#ff6c1a" stroke-linecap="round" stroke-linejoin="round" stroke-width="3"/>
    <path id="Path_2722" data-name="Path 2722" d="M6252.327-503.23v11.995a1.481,1.481,0,0,0,1.419,1.536h11.508a10.591,10.591,0,0,1,8.076,3.845l6.094,7.2a1.374,1.374,0,0,0,1.047.5h20.709a1.383,1.383,0,0,0,1.12-.593l5.021-6.984a10.678,10.678,0,0,1,8.645-4.573h12.444a1.481,1.481,0,0,0,1.419-1.535V-503.23a1.481,1.481,0,0,0-1.419-1.536h-4.45a1.481,1.481,0,0,0-1.419,1.536v4.151a1.481,1.481,0,0,1-1.419,1.536h-5.69a10.387,10.387,0,0,1-6.237-2.11l-6.456-4.84a1.347,1.347,0,0,0-.809-.273H6280.3a1.343,1.343,0,0,0-.8.267l-6.781,5a10.38,10.38,0,0,1-6.171,2.06h-5.185a1.481,1.481,0,0,1-1.42-1.536v-4.259a1.481,1.481,0,0,0-1.419-1.536h-4.775A1.481,1.481,0,0,0,6252.327-503.23Z" transform="translate(-29.562 -33.531)" fill="none" stroke="#ff6c1a" stroke-linecap="round" stroke-linejoin="round" stroke-width="3"/>
    <path id="Path_2723" data-name="Path 2723" d="M6333.661-360.007V-382.64a10.3,10.3,0,0,0-10.3-10.3H6272.07a10.3,10.3,0,0,0-10.3,10.3v22.633" transform="translate(-36.238 -112.563)" fill="none" stroke="#ff6c1a" stroke-linecap="round" stroke-linejoin="round" stroke-width="3"/>
    <rect id="Rectangle_454" data-name="Rectangle 454" width="55.912" height="39.326" rx="4" transform="translate(6233.523 -497.412)" fill="none" stroke="#ff6c1a" stroke-linecap="round" stroke-linejoin="round" stroke-width="3"/>
    <circle id="Ellipse_968" data-name="Ellipse 968" cx="6.373" cy="6.373" r="6.373" transform="translate(6255.144 -531.042)" fill="none" stroke="#ff6c1a" stroke-linecap="round" stroke-linejoin="round" stroke-width="3"/>
    <path id="Path_2724" data-name="Path 2724" d="M6375.109-352.881l-6.54-3.519-6.539,3.519v-12.48h13.079Z" transform="translate(-107.09 -132.05)" fill="none" stroke="#ff6c1a" stroke-linecap="round" stroke-linejoin="round" stroke-width="3"/>
  </g>
</svg>
