<svg xmlns="http://www.w3.org/2000/svg" width="85.097" height="93.131" viewBox="0 0 85.097 93.131">
  <g id="Group_852" data-name="Group 852" transform="translate(-6040.833 1784.394)">
    <path id="Path_2711" data-name="Path 2711" d="M6165.305-1692.138l-55.136,8.2a4.111,4.111,0,0,1-4.671-3.462l-10.658-71.678a4.111,4.111,0,0,1,3.461-4.671l46.66-6.938,14.409,10.678,9.4,63.2A4.112,4.112,0,0,1,6165.305-1692.138Z" transform="translate(-52.456 -8.875)" fill="#fff" stroke="#ff6c1a" stroke-linecap="round" stroke-linejoin="round" stroke-width="3"/>
    <path id="Path_2712" data-name="Path 2712" d="M6221.066-1702.206h-55.742a4.111,4.111,0,0,1-4.112-4.111v-72.466a4.112,4.112,0,0,1,4.112-4.111H6212.5l12.682,12.682v63.9A4.111,4.111,0,0,1,6221.066-1702.206Z" transform="translate(-100.748)" fill="#fff" stroke="#ff6c1a" stroke-linecap="round" stroke-linejoin="round" stroke-width="3"/>
    <path id="Path_2713" data-name="Path 2713" d="M6349.127-1781.894v12.827h12.635" transform="translate(-237.379 -0.727)" fill="none" stroke="#ff6c1a" stroke-linecap="round" stroke-linejoin="round" stroke-width="3"/>
    <line id="Line_65" data-name="Line 65" x2="46.545" transform="translate(6069.174 -1759.784)" fill="none" stroke="#ff6c1a" stroke-linecap="round" stroke-linejoin="round" stroke-width="3"/>
    <line id="Line_66" data-name="Line 66" x2="46.545" transform="translate(6069.174 -1716.862)" fill="none" stroke="#ff6c1a" stroke-linecap="round" stroke-linejoin="round" stroke-width="3"/>
    <line id="Line_67" data-name="Line 67" x2="46.545" transform="translate(6069.174 -1727.592)" fill="none" stroke="#ff6c1a" stroke-linecap="round" stroke-linejoin="round" stroke-width="3"/>
    <line id="Line_68" data-name="Line 68" x2="46.545" transform="translate(6069.174 -1738.323)" fill="none" stroke="#ff6c1a" stroke-linecap="round" stroke-linejoin="round" stroke-width="3"/>
    <line id="Line_69" data-name="Line 69" x2="46.545" transform="translate(6069.174 -1749.053)" fill="none" stroke="#ff6c1a" stroke-linecap="round" stroke-linejoin="round" stroke-width="3"/>
  </g>
</svg>
