<svg xmlns="http://www.w3.org/2000/svg" width="104.151" height="104.151" viewBox="0 0 104.151 104.151">
  <g id="Group_834" data-name="Group 834" transform="translate(-3029.808 226.059)">
    <circle id="Ellipse_961" data-name="Ellipse 961" cx="50.076" cy="50.076" r="50.076" transform="translate(3031.808 -224.059)" fill="none" stroke="#ff6c1a" stroke-linecap="round" stroke-linejoin="round" stroke-width="4"/>
    <path id="Path_2698" data-name="Path 2698" d="M3306.057-211.66v24.223a8.331,8.331,0,0,0,8.331,8.331h4.2" transform="translate(-207.416 -8.07)" fill="none" stroke="#ff6c1a" stroke-linecap="round" stroke-linejoin="round" stroke-width="4"/>
    <circle id="Ellipse_962" data-name="Ellipse 962" cx="5.223" cy="5.223" r="5.223" transform="translate(3111.168 -193.616)" fill="none" stroke="#ff6c1a" stroke-linecap="round" stroke-linejoin="round" stroke-width="4"/>
    <path id="Path_2699" data-name="Path 2699" d="M3135.629,80.481V60.023a8.331,8.331,0,0,0-8.331-8.331h-4.2" transform="translate(-68.38 -206.542)" fill="none" stroke="#ff6c1a" stroke-linecap="round" stroke-linejoin="round" stroke-width="4"/>
    <path id="Path_2700" data-name="Path 2700" d="M3077.46,5.089V-42.977a8.331,8.331,0,0,0-8.331-8.331h-36.073" transform="translate(-0.936 -129.393)" fill="none" stroke="#ff6c1a" stroke-linecap="round" stroke-linejoin="round" stroke-width="4"/>
    <circle id="Ellipse_963" data-name="Ellipse 963" cx="5.223" cy="5.223" r="5.223" transform="translate(3044.276 -160.072)" fill="none" stroke="#ff6c1a" stroke-linecap="round" stroke-linejoin="round" stroke-width="4"/>
    <g id="Group_832" data-name="Group 832" transform="translate(3063.996 -203.453)">
      <path id="Path_2701" data-name="Path 2701" d="M3214.2-69.27v-43.549a8.331,8.331,0,0,0-8.331-8.331h-4.2" transform="translate(-3191.229 126.372)" fill="none" stroke="#ff6c1a" stroke-linecap="round" stroke-linejoin="round" stroke-width="4"/>
      <circle id="Ellipse_964" data-name="Ellipse 964" cx="5.223" cy="5.223" r="5.223" transform="translate(0 0)" fill="none" stroke="#ff6c1a" stroke-linecap="round" stroke-linejoin="round" stroke-width="4"/>
    </g>
    <g id="Group_833" data-name="Group 833" transform="translate(3099.892 -172.019)">
      <path id="Path_2702" data-name="Path 2702" d="M3307.057,46.652V16.406a8.331,8.331,0,0,1,8.331-8.331h4.2" transform="translate(-3307.057 -2.852)" fill="none" stroke="#ff6c1a" stroke-linecap="round" stroke-linejoin="round" stroke-width="4"/>
      <circle id="Ellipse_965" data-name="Ellipse 965" cx="5.223" cy="5.223" r="5.223" transform="translate(12.528 0)" fill="none" stroke="#ff6c1a" stroke-linecap="round" stroke-linejoin="round" stroke-width="4"/>
    </g>
    <line id="Line_59" data-name="Line 59" y2="2.948" transform="translate(3087.034 -139.742)" fill="none" stroke="#ff6c1a" stroke-linecap="round" stroke-linejoin="round" stroke-width="4"/>
    <line id="Line_61" data-name="Line 61" y2="4.203" transform="translate(3087.034 -128.942)" fill="none" stroke="#ff6c1a" stroke-linecap="round" stroke-linejoin="round" stroke-width="4"/>
  </g>
</svg>
