<svg width="80" height="80" viewBox="0 0 80 80" fill="none" xmlns="http://www.w3.org/2000/svg">
<path d="M14.1667 1H65.8333C73.6667 1 80 7.33333 80 15.1667V64.8333C80 72.6667 73.6667 79 65.8333 79H14.1667C6.33333 79 0 72.6667 0 64.8333V15.1667C0 7.33333 6.33333 1 14.1667 1Z" fill="#470137"/>
<path d="M42.0667 21.5L32.0667 38L42.7333 55.5C42.8 55.6333 42.8333 55.7667 42.8 55.9C42.7667 56.0333 42.6333 55.9333 42.4333 55.9667H34.8C34.2667 55.9667 33.9 55.9333 33.6667 55.6C32.9667 54.2 32.2333 52.8333 31.5333 51.4333C30.8333 50.0667 30.0667 48.6667 29.2667 47.2333C28.4667 45.8 27.6667 44.3667 26.8667 42.9H26.8C26.1 44.3333 25.3333 45.7667 24.5667 47.2C23.8 48.6333 23.0333 50.0667 22.3 51.4667C21.5333 52.8667 20.7667 54.3 20 55.6667C19.8667 56 19.6 56.0333 19.2333 56.0333H11.9C11.7667 56.0333 11.6667 56.1 11.6667 55.9333C11.6333 55.8 11.6667 55.6667 11.7333 55.5667L22.1 38.5667L12 21.4667C11.9 21.3333 11.8667 21.2 11.9333 21.1333C12 21.0333 12.1333 21 12.2667 21H19.8333C20 21 20.1667 21.0333 20.3 21.0667C20.4333 21.1333 20.5333 21.2333 20.6333 21.3667C21.2667 22.8 22 24.2333 22.7667 25.6667C23.5667 27.1 24.3333 28.5 25.1667 29.9C25.9667 31.3 26.7 32.7 27.4 34.1333H27.4667C28.1667 32.6667 28.9 31.2333 29.6333 29.8333C30.3667 28.4333 31.1333 27.0333 31.9 25.6333C32.6667 24.2333 33.4 22.8 34.1333 21.4333C34.1667 21.3 34.2333 21.1667 34.3333 21.1C34.4667 21.0333 34.6 21 34.7667 21.0333H41.8C41.9667 21 42.1333 21.1 42.1667 21.2667C42.2 21.3 42.1333 21.4333 42.0667 21.5Z" fill="#FF61F6"/>
<path d="M57.4667 56.6667C55 56.7 52.5333 56.2 50.3 55.1667C48.2 54.2 46.4667 52.6 45.2667 50.6334C44.0333 48.6 43.4333 46.0667 43.4333 43.0334C43.4 40.5667 44.0333 38.1334 45.2667 36C46.5333 33.8334 48.3667 32.0334 50.5667 30.8334C52.9 29.5334 55.7 28.9 59 28.9C59.1667 28.9 59.4 28.9 59.7 28.9334C60 28.9667 60.3333 28.9667 60.7333 29V18.4667C60.7333 18.2334 60.8333 18.1 61.0667 18.1H67.8333C68 18.0667 68.1333 18.2 68.1667 18.3334C68.1667 18.3667 68.1667 18.4 68.1667 18.4V50.1334C68.1667 50.7334 68.2 51.4 68.2333 52.1334C68.3 52.8334 68.3333 53.5 68.3667 54.0667C68.3667 54.3 68.2667 54.5 68.0333 54.6C66.3 55.3334 64.4667 55.8667 62.6 56.2C60.9 56.5 59.2 56.6667 57.4667 56.6667ZM60.7333 50V35.3334C60.4333 35.2667 60.1333 35.2 59.8333 35.1667C59.4667 35.1334 59.1 35.1 58.7333 35.1C57.4333 35.1 56.1333 35.3667 54.9667 35.9667C53.8333 36.5334 52.8667 37.3667 52.1333 38.4334C51.4 39.5 51.0333 40.9334 51.0333 42.6667C51 43.8334 51.2 45 51.6 46.1C51.9333 47 52.4333 47.8 53.1 48.4667C53.7333 49.0667 54.5 49.5334 55.3667 49.8C56.2667 50.1 57.2 50.2334 58.1333 50.2334C58.6333 50.2334 59.1 50.2 59.5333 50.1667C59.9667 50.2 60.3333 50.1334 60.7333 50Z" fill="#FF61F6"/>
</svg>
