<svg width="80" height="80" viewBox="0 0 80 80" fill="none" xmlns="http://www.w3.org/2000/svg">
<g id="After Effects">
<g id="vlpa">
<g id="vlpb">
<g id="vlpc">
<g id="vlpd">
<path id="Vector" d="M14.1667 1H65.8333C73.6667 1 80 7.33333 80 15.1667V64.8333C80 72.6667 73.6667 79 65.8333 79H14.1667C6.33333 79 0 72.6667 0 64.8333V15.1667C0 7.33333 6.33333 1 14.1667 1Z" fill="#00005B"/>
</g>
</g>
</g>
<g id="vlpe">
<g id="vlpf">
<path id="Vector_2" d="M32.1335 47.6667H19.7335L17.2002 55.5333C17.1335 55.8333 16.8668 56.0333 16.5668 56H10.3002C9.93349 56 9.83349 55.8 9.93349 55.4L20.6668 24.6333C20.7668 24.3 20.8668 24 21.0002 23.6C21.1335 22.9 21.2002 22.1666 21.2002 21.4333C21.1668 21.2666 21.3002 21.1 21.4668 21.0667H21.5668H30.1002C30.3335 21.0667 30.5002 21.1667 30.5335 21.3333L42.7002 55.3333C42.8002 55.7 42.7002 55.8666 42.3668 55.8666H35.4002C35.1668 55.9 34.9335 55.7333 34.8668 55.5L32.1335 47.5V47.6667ZM21.6668 41.0333H30.1335C29.9335 40.3333 29.6668 39.5 29.3668 38.6333C29.0668 37.7333 28.7668 36.7667 28.4668 35.7667C28.1335 34.7333 27.8335 33.7333 27.5002 32.7C27.1668 31.6666 26.8668 30.7 26.6002 29.7333C26.3335 28.8 26.1002 27.9333 25.8668 27.1333H25.8002C25.5002 28.5667 25.1335 30 24.6668 31.4333C24.1668 33.0333 23.6668 34.7 23.1335 36.3666C22.7002 38.0666 22.1668 39.6333 21.6668 41.0333Z" fill="#9999FF"/>
<path id="Vector_3" d="M62.3334 44.6666H51.7667C51.9001 45.6999 52.2334 46.7333 52.8001 47.6333C53.4001 48.5333 54.2334 49.2333 55.2334 49.6333C56.5667 50.1999 58.0334 50.4999 59.5001 50.4666C60.6667 50.4333 61.8334 50.3333 62.9667 50.0999C64.0001 49.9666 65.0001 49.6999 65.9334 49.3333C66.1001 49.1999 66.2001 49.2666 66.2001 49.5999V54.6999C66.2001 54.8333 66.1667 54.9666 66.1334 55.0999C66.0667 55.1999 66.0001 55.2666 65.9001 55.3333C64.8334 55.7999 63.7334 56.1333 62.5667 56.3333C61.0001 56.6333 59.4334 56.7666 57.8334 56.7333C55.3001 56.7333 53.1667 56.3333 51.4334 55.5666C49.8001 54.8666 48.3667 53.7666 47.2334 52.3999C46.1667 51.0999 45.4001 49.6333 44.9334 48.0333C44.4667 46.4666 44.2334 44.8333 44.2334 43.1666C44.2334 41.3666 44.5001 39.5999 45.0667 37.8666C45.6001 36.1999 46.4334 34.6666 47.5667 33.2999C48.6667 31.9666 50.0334 30.8999 51.6001 30.1333C53.1667 29.3666 55.0334 29.0999 57.1667 29.0999C58.9334 29.0666 60.7001 29.3999 62.3334 30.1333C63.7001 30.7333 64.9001 31.6333 65.8334 32.7999C66.7001 33.9333 67.4001 35.1999 67.8334 36.5999C68.2667 37.9333 68.4667 39.2999 68.4667 40.6666C68.4667 41.4666 68.4334 42.1666 68.4001 42.7999C68.3334 43.4333 68.3001 43.8999 68.2667 44.1999C68.2334 44.4333 68.0334 44.6333 67.8001 44.6333C67.6001 44.6333 67.2334 44.6666 66.7001 44.6999C66.1667 44.7666 65.5334 44.7999 64.7667 44.7999C64.0001 44.7999 63.2001 44.6666 62.3334 44.6666ZM51.7667 39.7999H58.8001C59.6667 39.7999 60.3001 39.7999 60.7001 39.7666C60.9667 39.7333 61.2334 39.6666 61.4667 39.4999V39.1666C61.4667 38.7333 61.4001 38.3333 61.2667 37.9333C60.6667 36.0666 58.9001 34.7999 56.9334 34.8666C55.1001 34.7666 53.3667 35.7333 52.5001 37.3999C52.1001 38.1666 51.8667 38.9666 51.7667 39.7999Z" fill="#9999FF"/>
</g>
</g>
</g>
</g>
</svg>
