<svg width="80" height="80" viewBox="0 0 80 80" fill="none" xmlns="http://www.w3.org/2000/svg">
<g id="Bootstrap">
<g id="Group 6901">
<path id="Vector" d="M9.60453 17.0448C9.45736 12.8188 12.75 8.92188 17.2005 8.92188H62.8051C67.2557 8.92188 70.5483 12.8188 70.4011 17.0448C70.2597 21.1043 70.4433 26.3629 71.7667 30.6507C73.0944 34.9516 75.3332 37.6702 79 38.0195V41.9805C75.3332 42.3298 73.0944 45.0484 71.7667 49.3493C70.4433 53.6371 70.2597 58.8957 70.4011 62.9553C70.5483 67.1812 67.2557 71.0781 62.8051 71.0781H17.2005C12.75 71.0781 9.45736 67.1812 9.60468 62.9553C9.7459 58.8957 9.56233 53.6371 8.23877 49.3493C6.91124 45.0484 4.66691 42.3298 1 41.9805V38.0195C4.66676 37.6702 6.91124 34.9516 8.23877 30.6507C9.56233 26.3629 9.7459 21.1043 9.60453 17.0448Z" fill="url(#paint0_linear_1737_135)"/>
<g id="Vector_2" filter="url(#filter0_d_1737_135)">
<path d="M41.7347 56.9463C49.1248 56.9463 53.5781 53.3279 53.5781 47.3596C53.5781 42.8482 50.4006 39.5821 45.6825 39.065V38.8771C49.1489 38.3132 51.8691 35.0941 51.8691 31.4991C51.8691 26.3768 47.825 23.04 41.6625 23.04H27.7969V56.9463H41.7347ZM33.1891 27.34H40.3627C44.2623 27.34 46.4769 29.0788 46.4769 32.2274C46.4769 35.5875 43.9012 37.4672 39.2312 37.4672H33.1891V27.34ZM33.1891 52.6464V41.4854H40.3144C45.4177 41.4854 48.0656 43.365 48.0656 47.0307C48.0656 50.6961 45.49 52.6464 40.6273 52.6464H33.1891Z" fill="url(#paint1_linear_1737_135)"/>
<path d="M41.7347 56.9463C49.1248 56.9463 53.5781 53.3279 53.5781 47.3596C53.5781 42.8482 50.4006 39.5821 45.6825 39.065V38.8771C49.1489 38.3132 51.8691 35.0941 51.8691 31.4991C51.8691 26.3768 47.825 23.04 41.6625 23.04H27.7969V56.9463H41.7347ZM33.1891 27.34H40.3627C44.2623 27.34 46.4769 29.0788 46.4769 32.2274C46.4769 35.5875 43.9012 37.4672 39.2312 37.4672H33.1891V27.34ZM33.1891 52.6464V41.4854H40.3144C45.4177 41.4854 48.0656 43.365 48.0656 47.0307C48.0656 50.6961 45.49 52.6464 40.6273 52.6464H33.1891Z" stroke="white" stroke-width="0.15625"/>
</g>
</g>
</g>
<defs>
<filter id="filter0_d_1737_135" x="25.2188" y="21.0869" width="30.9375" height="39.0625" filterUnits="userSpaceOnUse" color-interpolation-filters="sRGB">
<feFlood flood-opacity="0" result="BackgroundImageFix"/>
<feColorMatrix in="SourceAlpha" type="matrix" values="0 0 0 0 0 0 0 0 0 0 0 0 0 0 0 0 0 0 127 0" result="hardAlpha"/>
<feOffset dy="0.625"/>
<feGaussianBlur stdDeviation="1.25"/>
<feColorMatrix type="matrix" values="0 0 0 0 0 0 0 0 0 0 0 0 0 0 0 0 0 0 0.15 0"/>
<feBlend mode="normal" in2="BackgroundImageFix" result="effect1_dropShadow_1737_135"/>
<feBlend mode="normal" in="SourceGraphic" in2="effect1_dropShadow_1737_135" result="shape"/>
</filter>
<linearGradient id="paint0_linear_1737_135" x1="12.5902" y1="10.5669" x2="80.7489" y2="64.6713" gradientUnits="userSpaceOnUse">
<stop stop-color="#9013FE"/>
<stop offset="1" stop-color="#6610F2"/>
</linearGradient>
<linearGradient id="paint1_linear_1737_135" x1="30.2355" y1="25.2718" x2="45.8614" y2="51.6986" gradientUnits="userSpaceOnUse">
<stop stop-color="white"/>
<stop offset="1" stop-color="#F1E5FC"/>
</linearGradient>
</defs>
</svg>
