<svg width="80" height="80" viewBox="0 0 80 80" fill="none" xmlns="http://www.w3.org/2000/svg">
<g id="CSS">
<g id="layer1">
<g id="g3013">
<path id="polygon2989" d="M67.9687 16.5254L62.8698 73.6459L39.9501 80L17.0935 73.6549L12 16.5254H67.9687Z" fill="#264DE4"/>
<path id="polygon2991" d="M58.5046 70.0087L62.862 21.1965H39.9844V75.1432L58.5046 70.0087Z" fill="#2965F1"/>
<path id="polygon2993" d="M23.6768 42.385L24.3047 49.3916H39.9844V42.385H23.6768Z" fill="#EBEBEB"/>
<path id="polygon2995" d="M39.9845 28.2034H39.9603H22.415L23.052 35.2101H39.9845V28.2034Z" fill="#EBEBEB"/>
<path id="polygon2997" d="M39.9842 67.872V60.5821L39.9535 60.5903L32.1501 58.4832L31.6513 52.895H27.8595H24.6177L25.5993 63.8965L39.952 67.8809L39.9842 67.872Z" fill="#EBEBEB"/>
<path id="path2999" d="M25.1719 1H33.6582V4.54883H28.7207V8.09766H33.6582V11.6465H25.1719V1Z" fill="black"/>
<path id="path3001" d="M35.3555 1H43.8418V4.08594H38.9043V4.70312H43.8418V11.8008H35.3555V8.56055H40.293V7.94336H35.3555V1Z" fill="black"/>
<path id="path3003" d="M45.5391 1H54.0254V4.08594H49.0879V4.70312H54.0254V11.8008H45.5391V8.56055H50.4766V7.94336H45.5391V1Z" fill="black"/>
<path id="polygon3005" d="M48.5879 49.3917L47.7746 58.4789L39.96 60.5881V67.8777L54.3241 63.8967L54.4294 62.713L56.0759 44.2666L56.2469 42.3851L57.5118 28.2034H39.96V35.2101H49.8331L49.1955 42.3851H39.96V49.3917H48.5879Z" fill="white"/>
</g>
</g>
</g>
</svg>
