<svg width="80" height="80" viewBox="0 0 80 80" fill="none" xmlns="http://www.w3.org/2000/svg">
<g id="Dynamodb">
<g id="Group">
<path id="Vector" d="M50.8254 80H51.7982L67.6764 72.0599L67.9406 71.6864V8.30888L67.6764 7.93342L51.7982 0H50.8135L50.8254 80Z" fill="#5294CF"/>
<path id="Vector_2" d="M30.1624 80H29.1761L13.3114 72.0599L12.9895 71.5062L12.8262 8.63165L13.3114 7.93342L29.1761 0H30.1746L30.1624 80Z" fill="#1F5B98"/>
<path id="Vector_3" d="M29.2041 0H51.7832V80H29.2041V0Z" fill="#2D72B8"/>
<path id="Vector_4" d="M75.9876 38.2026L75.451 38.0837L67.7899 37.3694L67.6762 37.4259L51.7839 36.7904H29.2037L13.3111 37.4259V25.307L13.2945 25.3159L13.3111 25.2804L29.2037 21.5979H51.7839L67.6762 25.2804L73.5186 28.3858V26.3893L75.9876 26.1192L75.7319 25.6206L67.9144 20.0306L67.6762 20.108L51.7839 15.1835H29.2037L13.3111 20.108V7.93335L5 17.67V26.1736L5.06433 26.127L7.46904 26.3893V28.4269L5 29.7482V38.2093L5.06433 38.2026L7.46904 38.2381V41.7895L5.39431 41.8205L5 41.7828V50.2472L7.46904 51.5749V53.6361L5.10343 53.8973L5 53.8196V62.3218L13.3111 72.0599V59.8863L29.2037 64.8108H51.7839L67.7231 59.8719L67.935 59.9648L75.6496 54.4571L75.9876 53.9084L73.5186 53.6361V51.6162L73.195 51.487L67.9144 54.3335L67.7231 54.7328L51.7839 58.3939V58.3983H29.2037V58.3939L13.3111 54.7172V42.554L29.2037 43.1873V43.2028H51.7839L67.6762 42.554L68.0381 42.7203L75.4638 42.0809L75.9876 41.825L73.5186 41.7895V38.2381L75.9876 38.2026Z" fill="#1A476F"/>
<path id="Vector_5" d="M67.6768 59.8865V72.06L75.9881 62.3219V53.8752L67.7247 59.872L67.6768 59.8865Z" fill="#2D72B8"/>
<path id="Vector_6" d="M67.6768 54.744L67.7247 54.7329L75.9881 50.2884V41.7896L67.6768 42.5541V54.744Z" fill="#2D72B8"/>
<path id="Vector_7" d="M67.7247 25.2916L67.6768 25.2805V37.4261L75.9881 38.2028V29.7081L67.7247 25.2916Z" fill="#2D72B8"/>
<path id="Vector_8" d="M67.7247 20.1557L75.9881 26.1192V17.6722L67.6768 7.93335V20.108L67.7247 20.1246V20.1557Z" fill="#2D72B8"/>
</g>
</g>
</svg>
