<svg width="80" height="80" viewBox="0 0 80 80" fill="none" xmlns="http://www.w3.org/2000/svg">
<g id="expressjs">
<path id="Vector" d="M80 61.9876C77.09 62.7276 75.29 62.0201 73.675 59.5951L62.19 43.7051L60.53 41.5051L47.1175 59.6476C45.585 61.8301 43.9775 62.7801 41.1175 62.0076L58.2925 38.9526L42.3025 18.1276C45.0525 17.5926 46.9525 17.8651 48.64 20.3276L60.5525 36.4151L72.5525 20.4151C74.09 18.2326 75.7425 17.4026 78.5025 18.2076L72.3025 26.4276L63.9025 37.3651C62.9025 38.6151 63.04 39.4701 63.96 40.6776L80 61.9876ZM0.02 38.5676L1.425 31.6576C5.25 17.9826 20.925 12.3001 31.735 20.7501C38.0525 25.7201 39.6225 32.7501 39.31 40.6251H3.7C3.165 54.8001 13.3675 63.3551 26.375 58.9901C30.9375 57.4576 33.625 53.8851 34.97 49.4151C35.6525 47.1751 36.7825 46.8251 38.8875 47.4651C37.8125 53.0551 35.3875 57.7251 30.2625 60.6476C22.605 65.0226 11.675 63.6076 5.925 57.5276C2.5 54.0001 1.085 49.5301 0.45 44.7501C0.35 43.9601 0.15 43.2076 0 42.4501C0.0133333 41.1567 0.02 39.8634 0.02 38.5701V38.5676ZM3.765 37.6176H35.945C35.735 27.3676 29.3525 20.0876 20.63 20.0251C11.055 19.9501 4.18 27.0576 3.765 37.6176Z" fill="black"/>
</g>
</svg>
