<svg width="80" height="80" viewBox="0 0 80 80" fill="none" xmlns="http://www.w3.org/2000/svg">
<g id="Firebase ">
<g id="Group 6908">
<path id="Vector" d="M48.9196 28.8846L40.9148 36.3321L33.4873 21.3497L37.331 12.7326C38.3307 10.9831 39.8901 11.0031 40.8648 12.7326L48.9196 28.8846Z" fill="#FFA000"/>
<path id="Vector_2" d="M33.4874 21.3499L40.9149 36.3323L11 64.1605L33.4874 21.3499Z" fill="#F57F17"/>
<path id="Vector_3" d="M57.6742 17.5011C59.1037 16.1265 60.5832 16.5964 60.9606 18.5432L68.7479 63.7905L42.9367 79.2853C42.037 79.7852 39.6378 80.0001 39.6378 80.0001C39.6378 80.0001 37.4535 79.7402 36.6213 79.2504L11 64.1604L57.6742 17.5011Z" fill="#FFCA28"/>
<path id="Vector_4" d="M33.4873 21.3497L11.0024 64.1603L21.0166 1.5938C21.3864 -0.355541 22.496 -0.542978 23.4857 1.17645L33.4873 21.3497Z" fill="#FFA000"/>
</g>
</g>
</svg>
