<svg width="80" height="80" viewBox="0 0 80 80" fill="none" xmlns="http://www.w3.org/2000/svg">
<g id="Go">
<g id="Group">
<g id="Group_2">
<g id="Group_3">
<g id="Group_4">
<path id="Vector" d="M6.15581 34.512C6.00195 34.512 5.96349 34.4351 6.04042 34.3197L6.84816 33.2812C6.92508 33.1658 7.1174 33.0889 7.27126 33.0889H21.0028C21.1567 33.0889 21.1952 33.2043 21.1182 33.3197L20.4644 34.3197C20.3874 34.4351 20.1951 34.5505 20.0797 34.5505L6.15581 34.512Z" fill="#00ACD7"/>
</g>
</g>
</g>
<g id="Group_5">
<g id="Group_6">
<g id="Group_7">
<path id="Vector_2" d="M0.347703 38.0506C0.193848 38.0506 0.155384 37.9737 0.232311 37.8583L1.04005 36.8198C1.11698 36.7044 1.3093 36.6274 1.46315 36.6274H19.0027C19.1565 36.6274 19.2334 36.7428 19.195 36.8582L18.8873 37.7814C18.8488 37.9352 18.695 38.0121 18.5411 38.0121L0.347703 38.0506Z" fill="#00ACD7"/>
</g>
</g>
</g>
<g id="Group_8">
<g id="Group_9">
<g id="Group_10">
<path id="Vector_3" d="M9.65581 41.5894C9.50195 41.5894 9.46349 41.474 9.54042 41.3586L10.0789 40.397C10.1558 40.2817 10.3097 40.1663 10.4635 40.1663H18.1563C18.3102 40.1663 18.3871 40.2817 18.3871 40.4355L18.3102 41.3586C18.3102 41.5125 18.1563 41.6279 18.0409 41.6279L9.65581 41.5894Z" fill="#00ACD7"/>
</g>
</g>
</g>
<g id="Group_11">
<g id="CXHf1q_3_">
<g id="Group_12">
<g id="Group_13">
<path id="Vector_4" d="M49.5816 33.8197C47.1584 34.4351 45.5045 34.8967 43.1197 35.5121C42.5427 35.666 42.5043 35.7044 42.0043 35.1275C41.4273 34.4736 41.0042 34.0505 40.1965 33.6658C37.7732 32.4734 35.4269 32.8196 33.2345 34.2428C30.619 35.9352 29.2727 38.4354 29.3112 41.5509C29.3497 44.6281 31.4652 47.1667 34.5038 47.5898C37.1193 47.936 39.3118 47.0128 41.0427 45.0512C41.3888 44.6281 41.6965 44.1665 42.0812 43.628C40.6965 43.628 38.9656 43.628 34.6577 43.628C33.8499 43.628 33.6576 43.128 33.9268 42.4741C34.4269 41.2817 35.35 39.2816 35.8885 38.2815C36.0039 38.0507 36.2731 37.6661 36.8501 37.6661C38.8118 37.6661 46.043 37.6661 50.8509 37.6661C50.774 38.7046 50.774 39.7431 50.6202 40.7817C50.1971 43.5511 49.1585 46.0897 47.4661 48.3206C44.6967 51.9747 41.0811 54.244 36.5039 54.8595C32.7345 55.3595 29.2343 54.6287 26.1572 52.3209C23.3108 50.1669 21.6953 47.3205 21.2722 43.7819C20.7722 39.5893 22.0031 35.8198 24.5417 32.5119C27.2726 28.9348 30.8882 26.6654 35.3115 25.8576C38.9271 25.2038 42.3889 25.6269 45.5045 27.7424C47.543 29.0886 49.0047 30.9349 49.9663 33.1658C50.197 33.512 50.0432 33.7043 49.5816 33.8197Z" fill="#00ACD7"/>
</g>
<g id="Group_14">
<path id="Vector_5" d="M62.3131 55.0903C58.8128 55.0134 55.6204 54.0133 52.9279 51.7055C50.6585 49.7438 49.2354 47.2436 48.7738 44.2819C48.0814 39.9355 49.2738 36.0891 51.8894 32.6658C54.6972 28.9733 58.082 27.0501 62.6592 26.2423C66.5825 25.55 70.2751 25.9346 73.6214 28.204C76.6601 30.281 78.5448 33.0889 79.0448 36.7814C79.6987 41.9741 78.1986 46.2051 74.6215 49.8207C72.0829 52.3978 68.9673 54.0133 65.3902 54.7441C64.3516 54.9364 63.3131 54.9749 62.3131 55.0903ZM71.4674 39.5508C71.429 39.0508 71.429 38.6662 71.3521 38.2815C70.6597 34.4736 67.1595 32.3196 63.5054 33.1658C59.9283 33.9736 57.6205 36.2429 56.7743 39.8586C56.0819 42.8587 57.5435 45.8974 60.3129 47.1282C62.4284 48.0514 64.544 47.936 66.5825 46.8975C69.6212 45.3204 71.2751 42.8587 71.4674 39.5508Z" fill="#00ACD7"/>
</g>
</g>
</g>
</g>
</g>
</g>
</svg>
