<svg width="80" height="80" viewBox="0 0 80 80" fill="none" xmlns="http://www.w3.org/2000/svg">
<g id="HTML">
<g id="Group 6902">
<path id="Vector" d="M17.2256 0.5H20.7744V4.01797H24.0455V0.5H27.5943V11.1465H24.0455V7.59766H20.8053V11.1465H17.2256M32.285 4.04883H29.1527V0.5H38.9814V4.04883H35.8338V11.1465H32.285M40.5398 0.5H44.2584L46.542 4.24941L48.8256 0.5H52.5441V11.1465H48.9953V5.86953L46.5111 9.69609L44.027 5.86953V11.1465H40.5398M54.3031 0.5H57.852V7.62852H62.882V11.1465H54.3031" fill="black"/>
<path id="Vector_2" d="M17.1025 73.1738L12.0107 16.0222H67.9896L62.8979 73.1429L39.9539 79.5" fill="#E44D26"/>
<path id="Vector_3" d="M40 74.6397V20.7129H62.8822L58.5156 69.4707" fill="#F16529"/>
<path id="Vector_4" d="M22.4102 27.7026H40V34.7077H30.0941L30.7422 41.8825H40V48.8722H24.3234M24.632 52.3901H31.668L32.1617 57.9911L40 60.0896V67.4032L25.6195 63.3915" fill="#EBEBEB"/>
<path id="Vector_5" d="M57.5282 27.7026H39.9692V34.7077H56.8802M56.2476 41.8825H39.9692V48.8876H48.6099L47.7921 57.9911L39.9692 60.0896V67.3724L54.3188 63.3915" fill="white"/>
</g>
</g>
</svg>
