<svg width="80" height="80" viewBox="0 0 80 80" fill="none" xmlns="http://www.w3.org/2000/svg">
<g id="illustrtor">
<g id="Group 1">
<path id="Vector" d="M14.1667 1H65.8333C73.6667 1 80 7.33333 80 15.1667V64.8333C80 72.6667 73.6667 79 65.8333 79H14.1667C6.33333 79 0 72.6667 0 64.8333V15.1667C0 7.33333 6.33333 1 14.1667 1Z" fill="#330000"/>
<path id="Vector_2" d="M38.6667 47.6667H26.2667L23.7334 55.5C23.6667 55.8 23.4 56 23.1 55.9667H16.8334C16.4667 55.9667 16.3667 55.7667 16.4667 55.3667L27.2 24.4667C27.3 24.1334 27.4 23.7667 27.5334 23.3667C27.6667 22.6667 27.7334 21.9334 27.7334 21.2C27.7 21.0334 27.8334 20.8667 28 20.8334H36.6334C36.9 20.8334 37.0334 20.9334 37.0667 21.1L49.2334 55.4334C49.3334 55.8 49.2334 55.9667 48.9 55.9667H41.9334C41.7 56 41.4667 55.8334 41.4 55.6001L38.6667 47.6667ZM28.2 40.9H36.6667C36.4667 40.2 36.2 39.3667 35.9 38.5C35.6 37.6 35.3 36.6334 35 35.6334C34.6667 34.6 34.3667 33.6 34.0334 32.5667C33.7 31.5334 33.4 30.5667 33.1334 29.6C32.8667 28.6667 32.6334 27.8 32.4 27H32.3334C32.0334 28.4334 31.6667 29.8667 31.2 31.3C30.7 32.9 30.2 34.5667 29.6667 36.2334C29.2 37.9334 28.7 39.5 28.2 40.9ZM56.6667 26.6667C55.5667 26.7 54.5 26.2667 53.7 25.5C52.9334 24.6667 52.5334 23.5667 52.5667 22.4334C52.5334 21.3 52.9667 20.2334 53.7667 19.4667C54.5667 18.7 55.6334 18.3 56.7334 18.3C58.0334 18.3 59.0334 18.7 59.7667 19.4667C60.5 20.2667 60.9 21.3334 60.8667 22.4334C60.9 23.5667 60.5 24.6667 59.7 25.5C58.9334 26.3 57.8 26.7334 56.6667 26.6667ZM52.9334 55.6001V29.9334C52.9334 29.6 53.0667 29.4667 53.3667 29.4667H59.9667C60.2667 29.4667 60.4 29.6334 60.4 29.9334V55.6001C60.4 55.9667 60.2667 56.1334 59.9667 56.1334H53.4334C53.1 56.1334 52.9334 55.9334 52.9334 55.6001Z" fill="#FF9A00"/>
</g>
</g>
</svg>
