<svg width="80" height="80" viewBox="0 0 80 80" fill="none" xmlns="http://www.w3.org/2000/svg">
<g id="invision" clip-path="url(#clip0_1756_470)">
<g id="Group 6909">
<path id="Path 1347" d="M72.961 0.210449H7.45993C5.53725 0.210449 3.69331 0.974231 2.33377 2.33377C0.974231 3.69331 0.210449 5.53725 0.210449 7.45993L0.210449 72.961C0.210449 74.8837 0.974231 76.7276 2.33377 78.0871C3.69331 79.4467 5.53725 80.2104 7.45993 80.2104H72.961C74.8837 80.2104 76.7276 79.4467 78.0871 78.0871C79.4467 76.7276 80.2104 74.8837 80.2104 72.961V7.45993C80.2104 5.53725 79.4467 3.69331 78.0871 2.33377C76.7276 0.974231 74.8837 0.210449 72.961 0.210449Z" fill="#DC395F"/>
<path id="Path 1348" d="M26.9474 25.3819C27.8966 25.3676 28.8204 25.0731 29.6028 24.5353C30.3851 23.9976 30.9911 23.2406 31.3445 22.3596C31.6979 21.4785 31.783 20.5126 31.5892 19.5833C31.3953 18.654 30.9311 17.8027 30.2549 17.1364C29.5787 16.4701 28.7207 16.0185 27.7886 15.8384C26.8565 15.6583 25.892 15.7577 25.0162 16.1241C24.1405 16.4905 23.3925 17.1076 22.8664 17.8978C22.3403 18.688 22.0595 19.616 22.0592 20.5654C22.0612 21.2032 22.1894 21.8344 22.4365 22.4225C22.6837 23.0105 23.0448 23.5439 23.4991 23.9916C23.9534 24.4394 24.4919 24.7928 25.0835 25.0314C25.675 25.27 26.308 25.3891 26.9458 25.3819M16.8141 51.1701C16.5377 52.3564 16.3931 53.5696 16.3831 54.7877C16.3831 59.029 18.683 61.8444 23.5704 61.8444C27.6238 61.8444 30.9099 59.4377 33.276 55.5509L31.8309 61.3489H39.877L44.4792 42.8946C45.6296 38.223 47.857 35.798 51.2356 35.798C53.8948 35.798 55.5478 37.4519 55.5478 40.1796C55.5604 41.0553 55.4392 41.9279 55.1885 42.7671L52.8161 51.2538C52.478 52.4216 52.3088 53.6317 52.3134 54.8474C52.3134 58.8737 54.6842 61.8181 59.6426 61.8181C63.8831 61.8181 67.2609 59.088 69.1298 52.5475L65.968 51.3271C64.3866 55.7086 63.0204 56.5013 61.9425 56.5013C60.8646 56.5013 60.2895 55.7843 60.2895 54.3503C60.3204 53.5952 60.441 52.8464 60.6487 52.1197L62.9495 43.8577C63.4669 42.1585 63.7332 40.3928 63.7397 38.6166C63.7397 32.4354 60.0019 29.2098 55.4745 29.2098C51.234 29.2098 46.9217 33.0337 44.766 37.0599L46.3466 29.8343H34.0591L32.3359 36.1964H38.0861L34.5427 50.3719C31.7624 56.5531 26.6559 56.6534 26.0138 56.5061C24.9614 56.2671 24.2882 55.8687 24.2882 54.5017C24.3203 53.3887 24.4894 52.2839 24.7917 51.2123L30.185 29.8296H16.5265L14.8018 36.1964H20.4795L16.8149 51.1733" fill="white"/>
</g>
</g>
<defs>
<clipPath id="clip0_1756_470">
<rect width="80" height="80" fill="white"/>
</clipPath>
</defs>
</svg>
