<svg width="80" height="80" viewBox="0 0 80 80" fill="none" xmlns="http://www.w3.org/2000/svg">
<g id="Java">
<g id="Group 6904">
<path id="Vector" d="M29.7648 62.095C29.7648 62.095 26.7459 63.8506 31.9133 64.4447C38.1734 65.1588 41.3729 65.0564 48.2717 63.7507C48.2717 63.7507 50.0854 64.888 52.6184 65.873C37.1533 72.5011 17.6178 65.4891 29.7648 62.095Z" fill="#5382A1"/>
<path id="Vector_2" d="M27.8749 53.4458C27.8749 53.4458 24.4889 55.9522 29.6601 56.4871C36.3474 57.177 41.6285 57.2334 50.7668 55.4737C50.7668 55.4737 52.0308 56.7552 54.0182 57.4559C35.32 62.9235 14.4935 57.8871 27.8749 53.4458Z" fill="#5382A1"/>
<path id="Vector_3" d="M43.8062 38.7739C47.6168 43.1611 42.805 47.109 42.805 47.109C42.805 47.109 52.4807 42.1141 48.0371 35.8593C43.8869 30.0263 40.7042 27.1281 57.9339 17.1355C57.9339 17.1355 30.889 23.8901 43.8062 38.7739Z" fill="#F8981D"/>
<path id="Vector_4" d="M64.2599 68.4924C64.2599 68.4924 66.494 70.3332 61.7995 71.7573C52.8729 74.4615 24.6458 75.2781 16.8044 71.865C13.9857 70.6387 19.2716 68.937 20.9344 68.5799C22.6685 68.2039 23.6595 68.2739 23.6595 68.2739C20.5247 66.0656 3.39771 72.61 14.9598 74.4843C46.4913 79.5978 72.4388 72.1816 64.2599 68.4924Z" fill="#5382A1"/>
<path id="Vector_5" d="M31.2162 44.4843C31.2162 44.4843 16.8582 47.8946 26.1317 49.133C30.0473 49.6572 37.8528 49.5386 45.1236 48.9294C51.0656 48.4282 57.0321 47.3625 57.0321 47.3625C57.0321 47.3625 54.9369 48.2598 53.421 49.2948C38.8406 53.1295 10.674 51.3455 18.7828 47.4232C25.6405 44.1083 31.2162 44.4843 31.2162 44.4843Z" fill="#5382A1"/>
<path id="Vector_6" d="M56.9732 58.8812C71.7948 51.1793 64.9419 43.7779 60.1586 44.775C58.9862 45.0191 58.4635 45.2305 58.4635 45.2305C58.4635 45.2305 58.8987 44.5487 59.73 44.2536C69.1928 40.9267 76.4703 54.0656 56.6753 59.2694C56.6753 59.2694 56.9046 59.0646 56.9732 58.8812Z" fill="#5382A1"/>
<path id="Vector_7" d="M48.0369 1C48.0369 1 56.2454 9.21123 40.2516 21.8378C27.4262 31.9664 37.327 37.7415 40.2463 44.3398C32.7599 37.5852 27.2658 31.6392 30.9517 26.1051C36.3616 17.9816 51.3489 14.043 48.0369 1Z" fill="#F8981D"/>
<path id="Vector_8" d="M32.6727 79.7517C46.8996 80.6624 68.7467 79.2464 69.2641 72.5146C69.2641 72.5146 68.2695 75.0666 57.5063 77.0933C45.3634 79.3785 30.3867 79.1117 21.5039 77.6471C21.5039 77.6471 23.3223 79.1521 32.6727 79.7517Z" fill="#5382A1"/>
</g>
</g>
</svg>
