<svg width="80" height="80" viewBox="0 0 80 80" fill="none" xmlns="http://www.w3.org/2000/svg">
<g id="JS" clip-path="url(#clip0_1737_47)">
<path id="Vector" d="M73.6508 0H6.34921C2.84264 0 0 2.84264 0 6.34921V73.6508C0 77.1574 2.84264 80 6.34921 80H73.6508C77.1574 80 80 77.1574 80 73.6508V6.34921C80 2.84264 77.1574 0 73.6508 0Z" fill="#F7DF1E"/>
<path id="Vector_2" d="M53.7395 62.5003C55.351 65.1314 57.4475 67.0654 61.1554 67.0654C64.2703 67.0654 66.2602 65.5085 66.2602 63.3574C66.2602 60.7797 64.2157 59.8666 60.7871 58.367L58.9078 57.5606C53.483 55.2495 49.8792 52.3543 49.8792 46.2336C49.8792 40.5955 54.1751 36.3035 60.8887 36.3035C65.6684 36.3035 69.1046 37.967 71.5808 42.3225L65.7268 46.0812C64.4379 43.7701 63.0475 42.8597 60.8887 42.8597C58.6868 42.8597 57.2913 44.2565 57.2913 46.0812C57.2913 48.3365 58.6881 49.2495 61.9135 50.6463L63.7929 51.4514C70.1802 54.1904 73.7865 56.9828 73.7865 63.2609C73.7865 70.0292 68.4697 73.7371 61.3294 73.7371C54.3478 73.7371 49.8373 70.4101 47.6303 66.0495L53.7395 62.5003ZM27.1833 63.1517C28.3643 65.247 29.4386 67.0184 32.0214 67.0184C34.4913 67.0184 36.0494 66.052 36.0494 62.2946V36.7327H43.5668V62.3962C43.5668 70.1803 39.003 73.7231 32.3414 73.7231C26.3224 73.7231 22.8367 70.6082 21.064 66.8565L27.1833 63.1517Z" fill="black"/>
</g>
<defs>
<clipPath id="clip0_1737_47">
<rect width="80" height="80" fill="white"/>
</clipPath>
</defs>
</svg>
