<svg width="80" height="80" viewBox="0 0 80 80" fill="none" xmlns="http://www.w3.org/2000/svg">
<g id="laravel">
<path id="Vector" fill-rule="evenodd" clip-rule="evenodd" d="M78.0499 18.2649C78.0783 18.3703 78.0929 18.4788 78.0932 18.5879V35.5451C78.0932 35.7627 78.0357 35.9765 77.9266 36.1648C77.8175 36.3532 77.6607 36.5094 77.4719 36.6176L63.2395 44.8118V61.0534C63.2395 61.4954 63.0046 61.9034 62.6213 62.126L32.9124 79.2284C32.8444 79.267 32.7702 79.2918 32.696 79.318C32.6682 79.3273 32.6419 79.3443 32.6125 79.352C32.4049 79.4067 32.1866 79.4067 31.9789 79.352C31.9449 79.3428 31.914 79.3242 31.8815 79.3119C31.8135 79.2871 31.7424 79.2655 31.6775 79.2284L1.9748 62.126C1.78611 62.0176 1.62932 61.8614 1.52025 61.6731C1.41118 61.4848 1.35367 61.271 1.35352 61.0534L1.35352 10.182C1.35352 10.0707 1.36897 9.96255 1.39679 9.85746C1.40606 9.82191 1.4277 9.78946 1.44006 9.75391C1.46325 9.689 1.48488 9.62254 1.51888 9.56227C1.54207 9.52209 1.57607 9.48963 1.60388 9.45254C1.63943 9.40308 1.67189 9.35208 1.71361 9.30881C1.74916 9.27326 1.79553 9.24699 1.83571 9.21608C1.88053 9.17899 1.92071 9.13881 1.97171 9.10944L16.8254 0.558235C17.0134 0.450021 17.2266 0.393066 17.4436 0.393066C17.6606 0.393066 17.8737 0.450021 18.0618 0.558235L32.9139 9.10944H32.917C32.9665 9.14035 33.0082 9.17899 33.053 9.21453C33.0932 9.24545 33.138 9.27326 33.1736 9.30726C33.2168 9.35208 33.2477 9.40308 33.2848 9.45254C33.3111 9.48963 33.3467 9.52209 33.3683 9.56227C33.4038 9.62409 33.4239 9.689 33.4487 9.75391C33.461 9.78946 33.4827 9.82191 33.4919 9.859C33.5204 9.96432 33.5349 10.0729 33.5352 10.182V41.9558L45.9115 34.8295V18.5864C45.9115 18.4782 45.9269 18.3685 45.9547 18.2649C45.9656 18.2278 45.9856 18.1954 45.998 18.1598C46.0227 18.0949 46.0444 18.0285 46.0784 17.9682C46.1016 17.928 46.1356 17.8956 46.1618 17.8585C46.1989 17.809 46.2298 17.758 46.2731 17.7147C46.3087 17.6792 46.3535 17.6529 46.3937 17.622C46.44 17.5849 46.4802 17.5447 46.5297 17.5154L61.3849 8.96416C61.5729 8.8558 61.7861 8.79876 62.0031 8.79876C62.2201 8.79876 62.4333 8.8558 62.6213 8.96416L77.4734 17.5154C77.526 17.5463 77.5661 17.5849 77.6125 17.6205C77.6511 17.6514 77.696 17.6792 77.7315 17.7132C77.7748 17.758 77.8057 17.809 77.8428 17.8585C77.8706 17.8956 77.9046 17.928 77.9262 17.9682C77.9618 18.0285 77.9819 18.0949 78.0066 18.1598C78.0205 18.1954 78.0406 18.2278 78.0499 18.2649ZM75.6173 34.8295V20.7284L70.4198 23.7205L63.2395 27.8547V41.9558L75.6188 34.8295H75.6173ZM60.7651 60.3379V46.2275L53.7023 50.2612L33.5337 61.7721V76.0153L60.7651 60.3379ZM3.82939 12.3225V60.3379L31.0578 76.0138V61.7736L16.8331 53.7232L16.8285 53.7201L16.8223 53.717C16.7744 53.6891 16.7342 53.649 16.6894 53.615C16.6508 53.5841 16.6059 53.5593 16.5719 53.5253L16.5688 53.5207C16.5287 53.4821 16.5008 53.4341 16.4668 53.3909C16.4359 53.3491 16.3988 53.3136 16.3741 53.2703L16.3726 53.2657C16.3447 53.2193 16.3277 53.1637 16.3077 53.1111C16.2876 53.0648 16.2613 53.0215 16.2489 52.972C16.2335 52.9133 16.2304 52.8499 16.2242 52.7897C16.218 52.7433 16.2057 52.6969 16.2057 52.6506V52.6475V19.4488L9.02686 15.313L3.82939 12.3225ZM17.4451 3.05884L5.07041 10.182L17.442 17.3052L29.8152 10.1805L17.442 3.05884H17.4451ZM23.8805 47.5134L31.0593 43.3807V12.3225L25.8619 15.3146L18.6815 19.4488V50.507L23.8805 47.5134ZM62.0031 11.4648L49.6299 18.5879L62.0031 25.7111L74.3747 18.5864L62.0031 11.4648ZM60.7651 27.8547L53.5848 23.7205L48.3873 20.7284V34.8295L55.5661 38.9622L60.7651 41.9558V27.8547ZM32.2942 59.6316L50.4428 49.2706L59.5148 44.0932L47.1509 36.9747L32.9155 45.1704L19.9411 52.6398L32.2942 59.6316Z" fill="#FF2D20"/>
</g>
</svg>
