<svg width="80" height="80" viewBox="0 0 80 80" fill="none" xmlns="http://www.w3.org/2000/svg">
<g id="meteor" clip-path="url(#clip0_1747_735)">
<path id="Vector" d="M68.3 73.2426L0 0.662598L72.5775 68.9626C73.162 69.5128 73.504 70.2726 73.5282 71.0749C73.5525 71.8772 73.257 72.6562 72.7069 73.2407C72.1567 73.8252 71.3969 74.1672 70.5946 74.1914C69.7923 74.2157 69.0132 73.9203 68.4287 73.3701L68.3 73.2413M58.25 78.3751L6.75 22.5838L62.5287 74.0838C63.1185 74.6285 63.4678 75.3852 63.4996 76.1874C63.5315 76.9896 63.2434 77.7716 62.6987 78.3614C62.429 78.6534 62.1045 78.8894 61.7435 79.056C61.3826 79.2226 60.9924 79.3165 60.5952 79.3323C59.793 79.3641 59.011 79.076 58.4212 78.5313L58.25 78.3614M47.825 78.4864L13.6 41.4376L50.675 75.6626C51.495 76.4188 51.545 77.6964 50.79 78.5126C50.035 79.3288 48.7563 79.3826 47.94 78.6276L47.825 78.5026M76.5025 52.8501L40.77 14.2651L79.3525 49.9976C80.17 50.7551 80.22 52.0326 79.4613 52.8476C78.7025 53.6626 77.4275 53.7139 76.6113 52.9564L76.5025 52.8476M73.4187 63.6501L21.6937 7.6501L77.6937 59.3751C78.2834 59.9198 78.6324 60.6764 78.6642 61.4785C78.696 62.2805 78.4078 63.0624 77.8631 63.652C77.3184 64.2416 76.5618 64.5907 75.7598 64.6224C74.9577 64.6542 74.1759 64.366 73.5863 63.8214L73.4163 63.6514M37.1562 75.4726L20.875 57.7651L38.5825 74.0476C38.7788 74.2288 38.8956 74.4803 38.9073 74.7472C38.919 75.0142 38.8247 75.2749 38.645 75.4726C38.4634 75.6689 38.2115 75.7855 37.9442 75.7967C37.677 75.808 37.4162 75.713 37.2188 75.5326L37.1587 75.4726M75.225 40.0301L58.9437 22.3226L76.65 38.6038C77.06 38.9826 77.0875 39.6201 76.71 40.0288C76.5284 40.2252 76.2765 40.3417 76.0092 40.353C75.742 40.3642 75.4812 40.2692 75.2838 40.0888L75.2238 40.0288" fill="#DE4F4F"/>
</g>
<defs>
<clipPath id="clip0_1747_735">
<rect width="80" height="80" fill="white"/>
</clipPath>
</defs>
</svg>
