<svg width="80" height="80" viewBox="0 0 80 80" fill="none" xmlns="http://www.w3.org/2000/svg">
<g id="MongoDB">
<g id="Group 6906">
<path id="Vector" d="M57.2692 31.8365C53.0546 13.2439 44.2703 8.29428 42.0295 4.79543C41.1055 3.2541 40.2869 1.65196 39.5795 0C39.4611 1.6517 39.2436 2.69227 37.8397 3.94481C35.0208 6.45814 23.0487 16.2142 22.0411 37.3394C21.1024 57.0359 36.5211 69.1814 38.5582 70.4367C40.1245 71.2075 42.0323 70.4532 42.9627 69.7457C50.3954 64.6447 60.5506 51.0457 57.2775 31.8365" fill="#10AA50"/>
<path id="Vector_2" d="M40.2181 59.9485C39.83 64.8237 39.5519 67.6564 38.5664 70.4423C38.5664 70.4423 39.2133 75.0835 39.6675 80.0001H41.2752C41.6587 76.5379 42.2442 73.1011 43.0288 69.7073C40.9476 68.6832 40.2979 64.2264 40.2181 59.9485Z" fill="#B8C4C2"/>
<path id="Vector_3" d="M43.0261 69.71C40.923 68.7382 40.3146 64.1878 40.221 59.9484C40.7411 52.9553 40.8927 45.9396 40.6752 38.9306C40.5651 35.2528 40.7275 4.86703 39.7695 0.418457C40.4248 1.92514 41.1799 3.38647 42.0296 4.7927C44.2704 8.2943 53.0575 13.2439 57.2693 31.8365C60.5507 51.0127 50.4505 64.5759 43.0261 69.71Z" fill="#12924F"/>
</g>
</g>
</svg>
