<svg width="80" height="79" viewBox="0 0 80 79" fill="none" xmlns="http://www.w3.org/2000/svg">
<g id="Layer_1" clip-path="url(#clip0_1756_322)">
<path id="Vector" fill-rule="evenodd" clip-rule="evenodd" d="M18.19 13.45C17.27 13.45 16.62 13.56 15.96 13.72V13.83H16.07C16.51 14.7 17.27 15.3 17.81 16.06C18.25 16.93 18.63 17.8 19.06 18.67C19.11 18.62 19.17 18.56 19.17 18.56C19.94 18.02 20.32 17.15 20.32 15.84C19.99 15.46 19.94 15.08 19.67 14.7C19.34 14.16 18.64 13.88 18.2 13.45" fill="#00758F"/>
<path id="Vector_2" fill-rule="evenodd" clip-rule="evenodd" d="M73.6899 60.7399C69.3299 60.6299 65.9599 61.0699 63.1299 62.2599C62.3099 62.5899 61.0099 62.5899 60.8999 63.6199C61.3399 64.0499 61.3899 64.7599 61.7699 65.3599C62.4199 66.4499 63.5599 67.9099 64.5999 68.6799C65.7399 69.5499 66.8899 70.4199 68.0799 71.1799C70.1999 72.4899 72.5999 73.2499 74.6599 74.5599C75.8599 75.3199 77.0499 76.2999 78.2599 77.1199C78.8599 77.5499 79.2299 78.2599 79.9999 78.5299V78.3699C79.6199 77.8799 79.5099 77.1699 79.1299 76.6299C78.5899 76.0899 78.0399 75.5999 77.4999 75.0599C75.9199 72.9399 73.9599 71.0899 71.8399 69.5699C70.0999 68.3699 66.2899 66.7399 65.5799 64.7299C65.5799 64.7299 65.5199 64.6699 65.4699 64.6199C66.6699 64.5099 68.0799 64.0699 69.2299 63.7399C71.0799 63.2499 72.7599 63.3599 74.6699 62.8699C75.5399 62.6499 76.4099 62.3799 77.2899 62.1099V61.6199C76.3099 60.6399 75.5999 59.3299 74.5699 58.4099C71.7999 56.0199 68.7499 53.6799 65.5899 51.7199C63.8999 50.6299 61.7199 49.9299 59.9299 48.9999C59.2799 48.6699 58.1899 48.5099 57.8099 47.9599C56.8299 46.7599 56.2799 45.1899 55.5799 43.7699C53.9999 40.7799 52.4799 37.4599 51.1199 34.2999C50.1399 32.1799 49.5399 30.0599 48.3499 28.0999C42.7399 18.8499 36.6499 13.2499 27.2899 7.74992C25.2799 6.60992 22.8799 6.11992 20.3299 5.51992C18.9699 5.45992 17.6099 5.35992 16.2499 5.29992C15.3799 4.91992 14.5099 3.87992 13.7499 3.38992C10.6199 1.42992 2.62988 -2.81008 0.33988 2.78992C-1.13012 6.32992 2.51988 9.80992 3.76988 11.6099C4.68988 12.8599 5.88988 14.2799 6.53988 15.6899C6.91988 16.6199 7.02988 17.5999 7.40988 18.5699C8.27988 20.9599 9.08988 23.6299 10.2399 25.8599C10.8399 26.9999 11.4899 28.1999 12.2499 29.2299C12.6899 29.8299 13.4499 30.0999 13.6099 31.0799C12.8499 32.1699 12.7899 33.7999 12.3599 35.1599C10.3999 41.3099 11.1599 48.9299 13.9399 53.4399C14.8099 54.7999 16.8799 57.7899 19.6499 56.6499C22.0999 55.6699 21.5499 52.5699 22.2599 49.8499C22.4199 49.1899 22.3099 48.7599 22.6399 48.3299V48.4399C23.3999 49.9599 24.1599 51.4299 24.8699 52.9599C26.5599 55.6199 29.4899 58.3999 31.9499 60.2499C33.2499 61.2299 34.2899 62.9199 35.9199 63.5199V63.3599H35.8099C35.4799 62.8699 34.9899 62.6499 34.5599 62.2699C33.5799 61.2899 32.4899 60.0899 31.7299 58.9999C29.4499 55.9499 27.4299 52.5799 25.6399 49.0999C24.7699 47.4099 24.0099 45.5599 23.2999 43.8799C22.9699 43.2299 22.9699 42.2499 22.4299 41.9199C21.6099 43.1199 20.4199 44.1499 19.8199 45.6199C18.7899 47.9599 18.6799 50.8499 18.2899 53.8399C18.0699 53.8999 18.1799 53.8399 18.0699 53.9499C16.3299 53.5199 15.7299 51.7199 15.0799 50.1999C13.4499 46.3299 13.1699 40.1299 14.5899 35.6699C14.9699 34.5299 16.6099 30.9399 15.9499 29.8499C15.6199 28.8099 14.5299 28.2199 13.9399 27.3999C13.2299 26.3699 12.4699 25.0599 11.9799 23.9199C10.6699 20.8699 10.0199 17.4999 8.60988 14.4499C7.95988 13.0299 6.80988 11.5599 5.88988 10.2599C4.84988 8.78992 3.70988 7.75992 2.89988 6.01992C2.62988 5.41992 2.24988 4.43992 2.67988 3.78992C2.78988 3.34992 3.00988 3.18992 3.43988 3.07992C4.13988 2.47992 6.15988 3.23992 6.86988 3.56992C8.87988 4.37992 10.5699 5.14992 12.2599 6.28992C13.0199 6.83992 13.8399 7.86992 14.8199 8.13992H15.9599C17.6999 8.51992 19.6599 8.24992 21.2899 8.73992C24.1699 9.65992 26.7799 11.0199 29.1199 12.4899C36.2499 17.0099 42.1199 23.4299 46.0899 31.0999C46.7399 32.3499 47.0199 33.4899 47.6199 34.7999C48.7599 37.4699 50.1799 40.1899 51.3199 42.7999C52.4599 45.3599 53.5499 47.9699 55.1899 50.0899C55.9999 51.2299 59.2699 51.8299 60.7399 52.4299C61.8299 52.9199 63.5099 53.3499 64.4899 53.9499C66.3399 55.0899 68.1899 56.3999 69.9299 57.6499C70.7999 58.2999 73.5199 59.6599 73.6799 60.7499" fill="#00758F"/>
</g>
<defs>
<clipPath id="clip0_1756_322">
<rect width="80" height="78.53" fill="white"/>
</clipPath>
</defs>
</svg>
