<svg width="80" height="80" viewBox="0 0 80 80" fill="none" xmlns="http://www.w3.org/2000/svg">
<g id="Nodejs">
<g id="Group 6903">
<path id="Vector" d="M40.4958 79.5C39.4378 79.5 38.3872 79.2225 37.4597 78.6884L27.7955 72.9669C26.3521 72.1597 27.0564 71.8742 27.5325 71.7097C29.457 71.0358 29.8476 70.8836 31.9019 69.717C32.1178 69.5938 32.4004 69.6373 32.6214 69.7677L40.0458 74.1734C40.3139 74.3183 40.6943 74.3183 40.9429 74.1734L69.8911 57.4638C70.1592 57.3116 70.3332 57 70.3332 56.6812V23.2764C70.3332 22.9431 70.1592 22.646 69.8853 22.4794L40.9487 5.78425C40.6806 5.62484 40.3255 5.62484 40.0574 5.78425L11.1265 22.4794C10.8461 22.6388 10.6678 22.9504 10.6678 23.2692V56.6739C10.6678 56.9928 10.8417 57.2971 11.1171 57.4493L19.0443 62.0288C23.3485 64.1809 25.9789 61.6448 25.9789 59.0941V26.1242C25.9789 25.6532 26.3484 25.2909 26.8194 25.2909H30.486C30.9425 25.2909 31.3193 25.6532 31.3193 26.1242V59.1086C31.3193 64.8476 28.189 68.1446 22.7471 68.1446C21.0733 68.1446 19.7545 68.1446 16.0734 66.333L8.47949 61.9564C6.60274 60.8694 5.44336 58.8405 5.44336 56.6739V23.2692C5.44336 21.0953 6.60274 19.0664 8.47949 17.994L37.4568 1.27715C39.29 0.24095 41.7247 0.24095 43.5435 1.27715L72.4845 18.0013C74.354 19.0809 75.5207 21.1026 75.5207 23.2764V56.6812C75.5207 58.8478 74.354 60.8694 72.4845 61.9564L43.5435 78.6732C42.616 79.2094 41.5653 79.4848 40.4929 79.4848" fill="#689F63"/>
<path id="Vector_2" d="M49.4377 56.4817C36.7714 56.4817 34.1157 50.6674 34.1157 45.7908C34.1157 45.327 34.4896 44.9574 34.9541 44.9574H38.6931C39.1061 44.9574 39.4539 45.2582 39.5192 45.6661C40.0844 49.4762 41.7655 51.3978 49.4246 51.3978C55.5259 51.3978 58.12 50.0196 58.12 46.7842C58.12 44.922 57.3809 43.5379 47.9029 42.6104C39.9757 41.8278 35.0773 40.0815 35.0773 33.7411C35.0773 27.9008 40.0046 24.4226 48.258 24.4226C57.5258 24.4226 62.1198 27.6399 62.6995 34.5527C62.7213 34.7918 62.6343 35.0237 62.4749 35.1976C62.3155 35.3643 62.0908 35.4657 61.859 35.4657H58.0982C57.7069 35.4657 57.3664 35.1904 57.2867 34.8136C56.3809 30.8065 54.1926 29.5239 48.2435 29.5239C41.5843 29.5239 40.809 31.8427 40.809 33.5817C40.809 35.6904 41.722 36.3063 50.7072 37.4946C59.6054 38.6758 63.8299 40.3424 63.8299 46.5958C63.8299 52.8999 58.5692 56.5158 49.3956 56.5158" fill="#689F63"/>
</g>
</g>
</svg>
