<svg width="80" height="80" viewBox="0 0 80 80" fill="none" xmlns="http://www.w3.org/2000/svg">
<g id="Oracle">
<path id="Vector" d="M34.6122 41.7595H39.8884L37.1015 37.2588L31.9776 45.3878H29.6476L35.8793 35.6351C36.0152 35.4405 36.1957 35.2813 36.4058 35.1708C36.6158 35.0603 36.8493 35.0017 37.0866 35C37.3239 34.9983 37.5582 35.0535 37.7698 35.161C37.9814 35.2685 38.1642 35.4251 38.3028 35.6178L44.5518 45.3878H42.2219L41.1244 43.5702H35.7859L34.6226 41.7595M58.8329 43.5702V35.0985H56.8526V44.4045C56.8522 44.5338 56.8781 44.6619 56.9287 44.7809C56.9793 44.8999 57.0535 45.0074 57.1469 45.0969C57.2406 45.1928 57.3526 45.2689 57.4763 45.3207C57.6 45.3724 57.7329 45.3988 57.867 45.3981H66.8684L68.042 43.5806H58.8225M26.0921 42.0572C27.0149 42.0572 27.8999 41.6907 28.5524 41.0382C29.2049 40.3856 29.5715 39.5006 29.5715 38.5779C29.5715 37.6551 29.2049 36.7701 28.5524 36.1176C27.8999 35.4651 27.0149 35.0985 26.0921 35.0985H17.4369V45.3878H19.4137V36.9195H25.9709C26.4125 36.9195 26.8361 37.095 27.1484 37.4073C27.4607 37.7196 27.6362 38.1431 27.6362 38.5848C27.6362 39.0264 27.4607 39.45 27.1484 39.7623C26.8361 40.0746 26.4125 40.25 25.9709 40.25H20.3935L26.2998 45.3878H29.1698L25.2023 42.0572H26.0921ZM5.27809 45.3878H11.2571C12.598 45.353 13.8722 44.7959 14.8083 43.8352C15.7444 42.8745 16.2683 41.5862 16.2683 40.2448C16.2683 38.9035 15.7444 37.6152 14.8083 36.6545C13.8722 35.6938 12.598 35.1367 11.2571 35.1019H5.27809C4.59148 35.0841 3.90826 35.204 3.26872 35.4544C2.62917 35.7049 2.04625 36.0808 1.55432 36.5602C1.0624 37.0395 0.671431 37.6125 0.404481 38.2453C0.13753 38.8781 0 39.558 0 40.2448C0 40.9317 0.13753 41.6116 0.404481 42.2444C0.671431 42.8772 1.0624 43.4502 1.55432 43.9295C2.04625 44.4089 2.62917 44.7848 3.26872 45.0353C3.90826 45.2857 4.59148 45.4056 5.27809 45.3878ZM11.1221 43.5771H5.40965C4.54538 43.5492 3.72584 43.1863 3.12432 42.5651C2.52281 41.9438 2.1865 41.113 2.1865 40.2483C2.1865 39.3836 2.52281 38.5528 3.12432 37.9316C3.72584 37.3103 4.54538 36.9474 5.40965 36.9195H11.1221C11.5682 36.9051 12.0128 36.9806 12.4292 37.1414C12.8456 37.3022 13.2255 37.5451 13.5462 37.8556C13.8669 38.1661 14.1219 38.538 14.2961 38.949C14.4702 39.3601 14.5599 39.8019 14.5599 40.2483C14.5599 40.6947 14.4702 41.1366 14.2961 41.5476C14.1219 41.9586 13.8669 42.3305 13.5462 42.641C13.2255 42.9515 12.8456 43.1944 12.4292 43.3552C12.0128 43.516 11.5682 43.5915 11.1221 43.5771ZM48.6821 45.3878H54.7857L55.9421 43.5771H48.8171C48.3709 43.5915 47.9264 43.516 47.51 43.3552C47.0935 43.1944 46.7137 42.9515 46.393 42.641C46.0723 42.3305 45.8173 41.9586 45.6431 41.5476C45.469 41.1366 45.3792 40.6947 45.3792 40.2483C45.3792 39.8019 45.469 39.3601 45.6431 38.949C45.8173 38.538 46.0723 38.1661 46.393 37.8556C46.7137 37.5451 47.0935 37.3022 47.51 37.1414C47.9264 36.9806 48.3709 36.9051 48.8171 36.9195H54.6161L55.7863 35.1019H48.6821C47.9955 35.0841 47.3123 35.204 46.6727 35.4544C46.0332 35.7049 45.4502 36.0808 44.9583 36.5602C44.4664 37.0395 44.0754 37.6125 43.8085 38.2453C43.5415 38.8781 43.404 39.558 43.404 40.2448C43.404 40.9317 43.5415 41.6116 43.8085 42.2444C44.0754 42.8772 44.4664 43.4502 44.9583 43.9295C45.4502 44.4089 46.0332 44.7848 46.6727 45.0353C47.3123 45.2857 47.9955 45.4056 48.6821 45.3878ZM72.8716 43.5771C72.1462 43.5774 71.4406 43.3408 70.8619 42.9034C70.2833 42.466 69.8633 41.8516 69.6657 41.1536H78.1201L79.2833 39.3395H69.6657C69.8628 38.6413 70.2826 38.0266 70.8614 37.5891C71.4402 37.1516 72.1461 36.9152 72.8716 36.9161H78.674L79.8338 35.0985H72.7366C71.3957 35.1333 70.1214 35.6904 69.1853 36.6511C68.2492 37.6118 67.7254 38.9001 67.7254 40.2414C67.7254 41.5827 68.2492 42.871 69.1853 43.8317C70.1214 44.7924 71.3957 45.3495 72.7366 45.3843H78.8402L80 43.5736H72.8681" fill="#C74634"/>
</g>
</svg>
