<svg width="80" height="80" viewBox="0 0 80 80" fill="none" xmlns="http://www.w3.org/2000/svg">
<g id="Photoshop">
<g id="Layer_2_1_">
<g id="Surfaces">
<g id="Photo_Surface">
<g id="Outline_no_shadow">
<path id="Vector" d="M14.1667 1H65.8333C73.6667 1 80 7.33333 80 15.1667V64.8333C80 72.6667 73.6667 79 65.8333 79H14.1667C6.33333 79 0 72.6667 0 64.8333V15.1667C0 7.33333 6.33333 1 14.1667 1Z" fill="#001E36"/>
</g>
</g>
</g>
<g id="Outlined_Mnemonics_Logos">
<g id="Ps">
<path id="Vector_2" d="M18 55.6999V21.3999C18 21.1666 18.1 21.0333 18.3333 21.0333C18.9 21.0333 19.4333 21.0333 20.2 20.9999C21 20.9666 21.8333 20.9666 22.7333 20.9333C23.6333 20.8999 24.6 20.8999 25.6333 20.8666C26.6667 20.8333 27.6667 20.8333 28.6667 20.8333C31.4 20.8333 33.6667 21.1666 35.5333 21.8666C37.2 22.4333 38.7333 23.3666 40 24.5999C41.0667 25.6666 41.9 26.9666 42.4333 28.3999C42.9333 29.7999 43.2 31.2333 43.2 32.7333C43.2 35.5999 42.5333 37.9666 41.2 39.8333C39.8667 41.6999 38 43.0999 35.8333 43.8999C33.5667 44.7333 31.0667 45.0333 28.3333 45.0333C27.5333 45.0333 27 45.0333 26.6667 44.9999C26.3333 44.9666 25.8667 44.9666 25.2333 44.9666V55.6666C25.2667 55.8999 25.1 56.0999 24.8667 56.1333C24.8333 56.1333 24.8 56.1333 24.7333 56.1333H18.4C18.1333 56.1333 18 55.9999 18 55.6999ZM25.2667 27.4666V38.6666C25.7333 38.6999 26.1667 38.7333 26.5667 38.7333H28.3333C29.6333 38.7333 30.9333 38.5333 32.1667 38.1333C33.2333 37.8333 34.1667 37.1999 34.9 36.3666C35.6 35.5333 35.9333 34.3999 35.9333 32.9333C35.9667 31.8999 35.7 30.8666 35.1667 29.9666C34.6 29.0999 33.8 28.4333 32.8333 28.0666C31.6 27.5666 30.2667 27.3666 28.9 27.3999C28.0333 27.3999 27.2667 27.3999 26.6333 27.4333C25.9667 27.3999 25.5 27.4333 25.2667 27.4666Z" fill="#31A8FF"/>
<path id="Vector_3" d="M63.9998 36.6332C62.9998 36.0999 61.9331 35.7332 60.7998 35.4999C59.5665 35.2332 58.3331 35.0665 57.0665 35.0665C56.3998 35.0332 55.6998 35.1332 55.0665 35.2999C54.6331 35.3999 54.2665 35.6332 54.0331 35.9665C53.8665 36.2332 53.7665 36.5665 53.7665 36.8665C53.7665 37.1665 53.8998 37.4665 54.0998 37.7332C54.3998 38.0999 54.7998 38.3999 55.2331 38.6332C55.9998 39.0332 56.7998 39.3999 57.5998 39.7332C59.3998 40.3332 61.1331 41.1665 62.7331 42.1665C63.8331 42.8665 64.7331 43.7999 65.3665 44.9332C65.8998 45.9999 66.1665 47.1665 66.1331 48.3665C66.1665 49.9332 65.6998 51.4998 64.8331 52.7998C63.8998 54.1332 62.5998 55.1665 61.0998 55.7665C59.4665 56.4665 57.4665 56.8332 55.0665 56.8332C53.5331 56.8332 52.0331 56.6999 50.5331 56.3998C49.3665 56.1999 48.1998 55.8332 47.1331 55.3332C46.8998 55.1999 46.7331 54.9665 46.7665 54.6999V48.8999C46.7665 48.7999 46.7998 48.6665 46.8998 48.5999C46.9998 48.5332 47.0998 48.5665 47.1998 48.6332C48.4998 49.3998 49.8665 49.9332 51.3331 50.2665C52.5998 50.5999 53.9331 50.7665 55.2665 50.7665C56.5331 50.7665 57.4331 50.5998 58.0331 50.2998C58.5665 50.0665 58.9331 49.4998 58.9331 48.8999C58.9331 48.4332 58.6665 47.9999 58.1331 47.5665C57.5998 47.1332 56.4998 46.6332 54.8665 45.9999C53.1665 45.3999 51.5998 44.5999 50.1331 43.5999C49.0998 42.8665 48.2331 41.8999 47.5998 40.7665C47.0665 39.6999 46.7998 38.5332 46.8331 37.3665C46.8331 35.9332 47.2331 34.5665 47.9665 33.3332C48.7998 31.9999 50.0331 30.9332 51.4665 30.2665C53.0331 29.4665 54.9998 29.0999 57.3665 29.0999C58.7331 29.0999 60.1331 29.1999 61.4998 29.3999C62.4998 29.5332 63.4665 29.7999 64.3665 30.1665C64.4998 30.1999 64.6331 30.3332 64.6998 30.4665C64.7331 30.5999 64.7665 30.7332 64.7665 30.8665V36.2999C64.7665 36.4332 64.6998 36.5665 64.5998 36.6332C64.2998 36.6999 64.1331 36.6999 63.9998 36.6332Z" fill="#31A8FF"/>
</g>
</g>
</g>
</g>
</svg>
