<svg width="80" height="80" viewBox="0 0 80 80" fill="none" xmlns="http://www.w3.org/2000/svg">
<g id="Php">
<g id="g3438">
<g id="g3440">
<g id="Clip path group">
<mask id="mask0_1747_551" style="mask-type:luminance" maskUnits="userSpaceOnUse" x="1" y="20" width="78" height="41">
<g id="clipPath3444">
<path id="path3446" d="M1.6001 40.5001C1.6001 51.6561 18.7927 60.7 40.0001 60.7C61.2075 60.7 78.4002 51.6561 78.4002 40.5001C78.4002 29.3443 61.2075 20.3002 40.0001 20.3002C18.7927 20.3002 1.6001 29.3443 1.6001 40.5001Z" fill="white"/>
</g>
</mask>
<g mask="url(#mask0_1747_551)">
<g id="g3442">
<g id="g3448">
<g id="g3450">
<path id="path3462" d="M1.6001 40.5001C1.6001 51.6561 18.7927 60.7 40.0001 60.7C61.2075 60.7 78.4002 51.6561 78.4002 40.5001C78.4002 29.3443 61.2075 20.3002 40.0001 20.3002C18.7927 20.3002 1.6001 29.3443 1.6001 40.5001Z" fill="url(#paint0_radial_1747_551)"/>
</g>
</g>
</g>
</g>
</g>
</g>
<g id="g3464">
<g id="Clip path group_2">
<mask id="mask1_1747_551" style="mask-type:luminance" maskUnits="userSpaceOnUse" x="0" y="18" width="80" height="45">
<g id="clipPath3468">
<path id="path3470" d="M0 18H80V63H0V18Z" fill="white"/>
</g>
</mask>
<g mask="url(#mask1_1747_551)">
<g id="g3466">
<g id="g3472">
<path id="path3474" d="M40.0001 59.2002C60.3791 59.2002 76.9001 50.8278 76.9001 40.5001C76.9001 30.1724 60.3791 21.7999 40.0001 21.7999C19.6211 21.7999 3.1001 30.1724 3.1001 40.5001C3.1001 50.8278 19.6211 59.2002 40.0001 59.2002Z" fill="#777BB3"/>
</g>
</g>
</g>
</g>
</g>
<g id="g3476">
<g id="Clip path group_3">
<mask id="mask2_1747_551" style="mask-type:luminance" maskUnits="userSpaceOnUse" x="0" y="18" width="80" height="45">
<g id="clipPath3480">
<path id="path3482" d="M0 18H80V63H0V18Z" fill="white"/>
</g>
</mask>
<g mask="url(#mask2_1747_551)">
<g id="g3478">
<g id="g3484">
<path id="path3486" d="M22.4629 42.8185C24.1386 42.8185 25.3896 42.5095 26.1811 41.9004C26.9641 41.2974 27.505 40.2529 27.7885 38.7958C28.0528 37.4338 27.9521 36.4829 27.4893 35.9697C27.0161 35.4455 25.993 35.1797 24.4486 35.1797H21.7707L20.2861 42.8185H22.4629ZM13.7042 52.2283C13.5798 52.2283 13.4618 52.1727 13.3828 52.0766C13.3036 51.9806 13.2715 51.8542 13.2953 51.7322L17.2297 31.489C17.2678 31.2933 17.4393 31.1519 17.6387 31.1519H26.1185C28.7835 31.1519 30.7671 31.8755 32.0139 33.3029C33.2673 34.7377 33.6544 36.7434 33.1643 39.2641C32.9648 40.291 32.6218 41.2448 32.1447 42.0987C31.6671 42.9535 31.0358 43.7445 30.2682 44.4501C29.3493 45.3101 28.3093 45.9337 27.1798 46.3006C26.0683 46.6627 24.6408 46.8463 22.9371 46.8463H19.5035L18.5229 51.891C18.4848 52.0869 18.3135 52.2283 18.114 52.2283H13.7042Z" fill="black"/>
</g>
<g id="g3488">
<path id="path3490" d="M22.1143 35.5962H24.4488C26.3128 35.5962 26.9603 36.0052 27.1803 36.2489C27.5453 36.6537 27.6142 37.507 27.3796 38.7166C27.116 40.0707 26.6274 41.0309 25.9271 41.5701C25.2102 42.122 24.0446 42.4017 22.4631 42.4017H20.7917L22.1143 35.5962ZM26.1186 30.7351H17.6388C17.2399 30.7351 16.897 31.0178 16.8209 31.4094L12.8864 51.6526C12.8389 51.8969 12.9031 52.1495 13.0613 52.3416C13.2196 52.5337 13.4554 52.6448 13.7043 52.6448H18.1141C18.5131 52.6448 18.856 52.362 18.9321 51.9705L19.8471 47.2628H22.9373C24.6848 47.2628 26.1559 47.0723 27.3093 46.6966C28.4956 46.3112 29.587 45.6577 30.5529 44.7544C31.3518 44.0194 32.0099 43.1944 32.5085 42.302C33.0073 41.4094 33.3656 40.4139 33.5735 39.3434C34.0895 36.6901 33.6703 34.5653 32.3278 33.0287C30.9984 31.5067 28.9092 30.7351 26.1186 30.7351ZM19.7807 43.2351H22.4631C24.241 43.2351 25.5653 42.9002 26.4354 42.2303C27.3057 41.5603 27.8927 40.4421 28.1977 38.8752C28.4895 37.3707 28.3566 36.3091 27.7989 35.6906C27.2406 35.0721 26.1241 34.7628 24.4488 34.7628H21.4274L19.7807 43.2351ZM26.1186 31.5684C28.6696 31.5684 30.5306 32.2378 31.7003 33.5769C32.8699 34.9159 33.2221 36.7849 32.7554 39.1845C32.5634 40.173 32.2385 41.0767 31.7811 41.8955C31.3232 42.7148 30.7253 43.4639 29.9864 44.1432C29.1059 44.9673 28.1277 45.5545 27.0513 45.9042C25.9749 46.2549 24.6039 46.4295 22.9373 46.4295H19.16L18.1141 51.8114H13.7043L17.6388 31.5684H26.1186Z" fill="white"/>
</g>
<g id="g3492">
<path id="path3494" d="M43.2754 46.8462C43.1509 46.8462 43.033 46.7906 42.954 46.6945C42.8747 46.5986 42.8426 46.4723 42.8663 46.3501L44.6068 37.3933C44.7723 36.5415 44.7315 35.9301 44.4919 35.6717C44.3452 35.5138 43.9047 35.249 42.602 35.249H39.449L37.2608 46.509C37.2227 46.7048 37.0512 46.8462 36.8517 46.8462H32.4767C32.3523 46.8462 32.2344 46.7906 32.1552 46.6945C32.0761 46.5986 32.044 46.4722 32.0677 46.3501L36.0022 26.1069C36.0402 25.9112 36.2117 25.7698 36.4112 25.7698H40.7862C40.9106 25.7698 41.0286 25.8254 41.1077 25.9213C41.1869 26.0174 41.219 26.1437 41.1952 26.2659L40.2458 31.1517H43.6377C46.2218 31.1517 47.974 31.6073 48.9945 32.5445C50.0348 33.5006 50.3594 35.0294 49.9594 37.0888L48.1288 46.509C48.0908 46.7048 47.9194 46.8462 47.7198 46.8462H43.2754Z" fill="black"/>
</g>
<g id="g3496">
<path id="path3498" d="M40.7864 25.3532H36.4114C36.0124 25.3532 35.6694 25.636 35.5933 26.0275L31.6589 46.2707C31.6114 46.515 31.6755 46.7677 31.8339 46.9597C31.9922 47.1518 32.228 47.2629 32.4769 47.2629H36.8519C37.2508 47.2629 37.5939 46.9802 37.67 46.5886L39.7926 35.6657H42.6022C43.9026 35.6657 44.1755 35.9435 44.1865 35.9554C44.2654 36.0403 44.3692 36.4334 44.1979 37.3139L42.4575 46.2707C42.41 46.515 42.4742 46.7677 42.6325 46.9597C42.7908 47.1518 43.0267 47.2629 43.2755 47.2629H47.72C48.1189 47.2629 48.4619 46.9802 48.538 46.5886L50.3685 37.1685C50.798 34.9572 50.4305 33.2985 49.2767 32.2379C48.1755 31.2267 46.3311 30.7352 43.6379 30.7352H40.7512L41.6044 26.3456C41.6518 26.1013 41.5878 25.8485 41.4294 25.6566C41.2711 25.4645 41.0353 25.3532 40.7864 25.3532ZM40.7864 26.1866L39.7404 31.5685H43.6379C46.0903 31.5685 47.7818 31.9966 48.7128 32.8516C49.6437 33.7071 49.9226 35.0934 49.5505 37.0096L47.72 46.4296H43.2755L45.016 37.4729C45.214 36.4541 45.1412 35.7591 44.7974 35.3885C44.4533 35.0179 43.7215 34.8324 42.6022 34.8324H39.1055L36.8519 46.4296H32.4769L36.4114 26.1866H40.7864Z" fill="white"/>
</g>
<g id="g3500">
<path id="path3502" d="M56.8818 42.8185C58.5575 42.8185 59.8085 42.5095 60.6 41.9004C61.3831 41.2976 61.9239 40.253 62.2075 38.7958C62.4718 37.4338 62.3711 36.4829 61.9082 35.9697C61.435 35.4455 60.412 35.1797 58.8675 35.1797H56.1896L54.705 42.8185H56.8818ZM48.1232 52.2283C47.9989 52.2283 47.8809 52.1727 47.8018 52.0766C47.7227 51.9806 47.6904 51.8542 47.7142 51.7322L51.6486 31.489C51.6868 31.2933 51.8582 31.1519 52.0578 31.1519H60.5374C63.2025 31.1519 65.186 31.8755 66.4329 33.3029C67.6864 34.7376 68.0734 36.7433 67.5834 39.2641C67.3836 40.291 67.0407 41.2448 66.5636 42.0987C66.086 42.9535 65.4547 43.7445 64.6871 44.4501C63.7682 45.3101 62.7282 45.9337 61.5988 46.3006C60.4872 46.6627 59.0597 46.8463 57.356 46.8463H53.9222L52.9421 51.891C52.9039 52.0869 52.7325 52.2283 52.5329 52.2283H48.1232Z" fill="black"/>
</g>
<g id="g3504">
<path id="path3506" d="M56.5331 35.5962H58.8676C60.7316 35.5962 61.3791 36.0052 61.5991 36.2489C61.9643 36.6537 62.0331 37.507 61.7984 38.7164C61.5348 40.0707 61.0461 41.0309 60.3459 41.5701C59.629 42.122 58.4634 42.4017 56.8819 42.4017H55.2106L56.5331 35.5962ZM60.5374 30.7351H52.0577C51.6588 30.7351 51.3159 31.0178 51.2398 31.4094L47.3054 51.6526C47.2579 51.8969 47.322 52.1495 47.4802 52.3416C47.6386 52.5337 47.8744 52.6448 48.1233 52.6448H52.533C52.9319 52.6448 53.275 52.362 53.3511 51.9705L54.2659 47.2628H57.3561C59.1036 47.2628 60.5747 47.0723 61.7281 46.6966C62.9144 46.3112 64.0061 45.6576 64.972 44.7541C65.7709 44.0192 66.4287 43.1944 66.9273 42.302C67.4261 41.4094 67.7844 40.4139 67.9923 39.3434C68.5083 36.6899 68.0891 34.5652 66.7466 33.0285C65.4172 31.5067 63.3281 30.7351 60.5374 30.7351ZM54.1997 43.2351H56.8819C58.6598 43.2351 59.9841 42.9002 60.8543 42.2303C61.7247 41.5603 62.3115 40.4421 62.6165 38.8752C62.9084 37.3707 62.7755 36.3091 62.2177 35.6906C61.6594 35.0721 60.5429 34.7628 58.8676 34.7628H55.8462L54.1997 43.2351ZM60.5374 31.5684C63.0884 31.5684 64.9494 32.2378 66.1191 33.5769C67.2888 34.9159 67.6409 36.7849 67.1743 39.1845C66.9822 40.173 66.6573 41.0767 66.1999 41.8955C65.742 42.7148 65.1441 43.4639 64.4052 44.1432C63.5247 44.9673 62.5465 45.5545 61.4701 45.9042C60.3937 46.2549 59.0227 46.4295 57.3561 46.4295H53.5788L52.533 51.8114H48.1233L52.0577 31.5684H60.5374Z" fill="white"/>
</g>
</g>
</g>
</g>
</g>
</g>
</g>
<defs>
<radialGradient id="paint0_radial_1747_551" cx="0" cy="0" r="1" gradientUnits="userSpaceOnUse" gradientTransform="translate(24.6557 27.4019) scale(50.4247 50.4247)">
<stop stop-color="#AEB2D5"/>
<stop offset="0.3" stop-color="#AEB2D5"/>
<stop offset="0.75" stop-color="#484C89"/>
<stop offset="1" stop-color="#484C89"/>
</radialGradient>
</defs>
</svg>
