<svg width="80" height="80" viewBox="0 0 80 80" fill="none" xmlns="http://www.w3.org/2000/svg">
<g id="postgresql" clip-path="url(#clip0_1756_5)">
<g id="Layer_x0020_3">
<path id="Vector" d="M59.6705 57.991C60.1794 53.7518 60.0269 53.1301 63.1845 53.8168L63.9861 53.8872C66.414 53.9977 69.5901 53.4967 71.456 52.6298C75.4727 50.7661 77.8545 47.6543 73.8938 48.472C64.8594 50.3357 64.2383 47.2766 64.2383 47.2766C73.7781 33.122 77.7661 15.154 74.3238 10.7558C64.9351 -1.24092 48.6833 4.43204 48.4114 4.57933L48.3248 4.59531C46.5397 4.22494 44.542 4.00364 42.2978 3.96736C38.2095 3.90018 35.1072 5.03916 32.754 6.82405C32.754 6.82405 3.76181 -5.12037 5.11058 21.8454C5.39744 27.5817 13.3331 65.2516 22.7978 53.8735C26.2571 49.713 29.6003 46.1951 29.6003 46.1951C31.2603 47.298 33.2478 47.8605 35.3323 47.6585L35.4934 47.5211C35.443 48.0377 35.4652 48.5429 35.5579 49.1411C33.1201 51.8654 33.8364 52.3437 28.9617 53.3471C24.0299 54.3635 26.9273 56.1732 28.8185 56.6462C31.1119 57.2197 36.4174 58.0321 40.0032 53.0135L39.8604 53.5861C40.8168 54.3513 40.7522 59.0859 40.8878 62.4687C41.0236 65.8517 41.2501 69.0086 41.9397 70.8698C42.6292 72.7307 43.4429 77.5247 49.8494 76.1517C55.2037 75.0043 59.2975 73.353 59.6705 57.991Z" fill="black" stroke="black" stroke-width="6.71697"/>
<path id="Vector_2" d="M73.8946 48.4716C64.8593 50.3354 64.2382 47.2763 64.2382 47.2763C73.778 33.1207 77.766 15.1524 74.3245 10.7547C64.9357 -1.24127 48.6832 4.43205 48.412 4.57934L48.3247 4.59497C46.5396 4.22441 44.5419 4.00366 42.2966 3.96702C38.2083 3.90002 35.1071 5.03881 32.7539 6.82334C32.7539 6.82334 3.76117 -5.12054 5.10958 21.845C5.39644 27.5817 13.3319 65.2516 22.797 53.8736C26.2565 49.713 29.5991 46.1951 29.5991 46.1951C31.2593 47.298 33.2468 47.8606 35.3304 47.6585L35.4923 47.5211C35.442 48.0377 35.4649 48.5429 35.5571 49.1411C33.1187 51.8654 33.8352 52.3437 28.9609 53.3471C24.0287 54.3636 26.9261 56.1732 28.8179 56.6462C31.1113 57.2197 36.4171 58.0321 40.0022 53.0135L39.8592 53.5862C40.8146 54.3513 41.4855 58.5636 41.373 62.382C41.2606 66.2006 41.1855 68.8221 41.9383 70.8698C42.6911 72.9175 43.4414 77.5248 49.8492 76.1517C55.2035 75.0043 57.9781 72.0309 58.3641 67.071C58.638 63.5449 59.2579 64.0661 59.297 60.9136L59.7942 59.4211C60.3676 54.6413 59.8853 53.0992 63.184 53.8164L63.9857 53.8868C66.4136 53.9973 69.5913 53.4963 71.4563 52.6295C75.4722 50.7658 77.854 47.654 73.8943 48.4716H73.8946Z" fill="#336791"/>
<path id="Vector_3" d="M40.3905 51.2117C40.1417 60.1058 40.453 69.0618 41.3233 71.2385C42.1941 73.4151 44.0576 77.6488 50.466 76.2759C55.8197 75.1282 57.7677 72.907 58.613 68.0042C59.2356 64.3971 60.4358 54.3793 60.5898 52.3268" stroke="white" stroke-width="2.23899" stroke-linecap="round" stroke-linejoin="round"/>
<path id="Vector_4" d="M32.7094 6.62478C32.7094 6.62478 3.69684 -5.23306 5.04561 21.7325C5.33247 27.4692 13.2685 65.1404 22.7334 53.7617C26.1922 49.6007 29.3203 46.3371 29.3203 46.3371" stroke="white" stroke-width="2.23899" stroke-linecap="round" stroke-linejoin="round"/>
<path id="Vector_5" d="M48.3806 4.46044C47.3764 4.77531 64.5192 -1.80635 74.2616 10.6424C77.703 15.0403 73.715 33.0086 64.1754 47.1645" stroke="white" stroke-width="2.23899" stroke-linecap="round" stroke-linejoin="round"/>
<path id="Vector_6" d="M64.175 47.1645C64.175 47.1645 64.7966 50.2245 73.8321 48.3595C77.7909 47.5419 75.4084 50.654 71.3934 52.5186C68.0982 54.0479 60.7106 54.4399 60.5899 52.3266C60.2793 46.8742 64.478 48.5307 64.175 47.1645ZM64.175 47.1645C63.901 45.9341 62.0235 44.7265 60.7814 41.7152C59.697 39.0868 45.9095 18.9305 64.605 21.924C65.2899 21.7823 59.729 4.14122 42.2327 3.85437C24.7403 3.56751 25.3142 25.3661 25.3142 25.3661" stroke="white" stroke-width="2.23899" stroke-linecap="round" stroke-linejoin="bevel"/>
<path id="Vector_7" d="M35.4936 49.0292C33.0549 51.7533 33.7721 52.2316 28.8974 53.2353C23.9652 54.252 26.863 56.0613 28.7542 56.5341C31.0476 57.108 36.3534 57.9204 39.9385 52.9005C41.0302 51.3721 39.932 48.9334 38.4324 48.3117C37.7078 48.0116 36.7389 47.6355 35.4936 49.0292Z" stroke="white" stroke-width="2.23899" stroke-linecap="round" stroke-linejoin="round"/>
<path id="Vector_8" d="M35.3338 48.9816C35.088 47.3799 35.86 45.4739 36.6874 43.2441C37.9307 39.8985 40.7994 36.5523 38.5046 25.9396C36.7941 18.0311 25.3212 24.2938 25.314 25.3661C25.307 26.4381 25.8329 30.8014 25.1223 35.8825C24.1951 42.5129 29.3412 48.1205 35.2671 47.5467" stroke="white" stroke-width="2.23899" stroke-linecap="round" stroke-linejoin="round"/>
<path id="Vector_9" d="M32.6037 25.2054C32.552 25.5716 33.2742 26.5489 34.216 26.6795C35.1561 26.8107 35.9608 26.0469 36.0118 25.681C36.0628 25.3148 35.3415 24.9113 34.3994 24.7802C33.4587 24.6489 32.6536 24.84 32.6039 25.2054H32.6037Z" fill="white" stroke="white" stroke-width="0.746324"/>
<path id="Vector_10" d="M61.2399 24.4587C61.2909 24.825 60.5696 25.8023 59.6277 25.9329C58.6868 26.064 57.8821 25.3003 57.8306 24.9344C57.7808 24.5681 58.5023 24.1647 59.4434 24.0336C60.3844 23.9024 61.1889 24.0934 61.2399 24.4589V24.4587Z" fill="white" stroke="white" stroke-width="0.373162"/>
<path id="Vector_11" d="M64.6051 21.9241C64.7602 24.7969 63.9864 26.7537 63.8888 29.8119C63.7444 34.2572 66.0082 39.3451 62.5972 44.4393" stroke="white" stroke-width="2.23899" stroke-linecap="round" stroke-linejoin="round"/>
</g>
</g>
<defs>
<clipPath id="clip0_1756_5">
<rect width="80" height="80" fill="white"/>
</clipPath>
</defs>
</svg>
