<svg width="80" height="80" viewBox="0 0 80 80" fill="none" xmlns="http://www.w3.org/2000/svg">
<g id="Python">
<g id="Group 6905">
<path id="path1948" d="M39.1682 5.19515C36.3134 5.20842 33.587 5.4519 31.1882 5.87638C24.1213 7.12486 22.8383 9.73803 22.8383 14.5572V20.9218H39.538V23.0433H22.8383H16.571C11.7176 23.0433 7.46779 25.9605 6.13851 31.51C4.60521 37.871 4.5372 41.8404 6.13851 48.4823C7.32559 53.4263 10.1605 56.949 15.0139 56.949H20.7557V49.3192C20.7557 43.8072 25.5248 38.9451 31.1882 38.9451H47.8685C52.5117 38.9451 56.2183 35.122 56.2183 30.459V14.5572C56.2183 10.0314 52.4004 6.63171 47.8685 5.87638C44.9997 5.39884 42.0231 5.18189 39.1682 5.19515ZM30.1371 10.3141C31.8621 10.3141 33.2708 11.7458 33.2708 13.5061C33.2708 15.2602 31.8621 16.6787 30.1371 16.6787C28.406 16.6787 27.0035 15.2602 27.0035 13.5061C27.0035 11.7458 28.406 10.3141 30.1371 10.3141Z" fill="url(#paint0_linear_1747_710)"/>
<path id="path1950" d="M58.3011 23.0435V30.4591C58.3011 36.2084 53.4268 41.0473 47.8686 41.0473H31.1883C26.6192 41.0473 22.8384 44.9578 22.8384 49.5335V65.4353C22.8384 69.961 26.7738 72.623 31.1883 73.9214C36.4745 75.4758 41.5437 75.7567 47.8686 73.9214C52.0728 72.7041 56.2184 70.2544 56.2184 65.4353V59.0706H39.5381V56.9491H56.2184H64.5683C69.4218 56.9491 71.2303 53.5637 72.9182 48.4824C74.6617 43.2513 74.5875 38.2207 72.9182 31.5101C71.7188 26.6785 69.4279 23.0435 64.5683 23.0435H58.3011ZM48.9196 63.3137C50.6508 63.3137 52.0532 64.7322 52.0532 66.4863C52.0532 68.2467 50.6508 69.6783 48.9196 69.6783C47.1946 69.6783 45.786 68.2467 45.786 66.4863C45.786 64.7322 47.1946 63.3137 48.9196 63.3137Z" fill="url(#paint1_linear_1747_710)"/>
</g>
</g>
<defs>
<linearGradient id="paint0_linear_1747_710" x1="4.96289" y1="5.19458" x2="43.4708" y2="38.0086" gradientUnits="userSpaceOnUse">
<stop stop-color="#5A9FD4"/>
<stop offset="1" stop-color="#306998"/>
</linearGradient>
<linearGradient id="paint1_linear_1747_710" x1="48.5183" y1="65.9512" x2="34.7031" y2="46.592" gradientUnits="userSpaceOnUse">
<stop stop-color="#FFD43B"/>
<stop offset="1" stop-color="#FFE873"/>
</linearGradient>
</defs>
</svg>
