<svg width="78" height="79" viewBox="0 0 78 79" fill="none" xmlns="http://www.w3.org/2000/svg">
<g id="Group 6898">
<path id="Vector" d="M38.9999 46.0021C42.8082 46.0021 45.8954 42.9149 45.8954 39.1066C45.8954 35.2984 42.8082 32.2112 38.9999 32.2112C35.1917 32.2112 32.1045 35.2984 32.1045 39.1066C32.1045 42.9149 35.1917 46.0021 38.9999 46.0021Z" fill="#61DAFB"/>
<path id="Vector_2" d="M39 53.234C59.4345 53.234 76 46.9091 76 39.1068C76 31.3045 59.4345 24.9795 39 24.9795C18.5655 24.9795 2 31.3045 2 39.1068C2 46.9091 18.5655 53.234 39 53.234Z" stroke="#61DAFB" stroke-width="2.99269"/>
<path id="Vector_3" d="M26.7657 46.1702C36.983 63.8671 50.7433 75.0507 57.5003 71.1496C64.2573 67.2484 61.4521 49.7398 51.2349 32.043C41.0176 14.3461 27.2573 3.1625 20.5003 7.06364C13.7433 10.9648 16.5484 28.4734 26.7657 46.1702Z" stroke="#61DAFB" stroke-width="2.99269"/>
<path id="Vector_4" d="M26.7657 32.0429C16.5484 49.7397 13.7433 67.2483 20.5003 71.1495C27.2573 75.0506 41.0176 63.867 51.2349 46.1702C61.4521 28.4733 64.2573 10.9647 57.5003 7.06356C50.7433 3.16242 36.983 14.346 26.7657 32.0429Z" stroke="#61DAFB" stroke-width="2.99269"/>
</g>
</svg>
