<svg width="80" height="80" viewBox="0 0 80 80" fill="none" xmlns="http://www.w3.org/2000/svg">
<g id="SQLite">
<g id="Group 6907">
<path id="solid-background" d="M60.3146 3.54956H10.1169C6.75263 3.54956 4 6.3027 4 9.66688V65.0256C4 68.3896 6.75263 71.1423 10.1169 71.1423H43.1784C42.8032 54.6919 48.4207 22.7669 60.3146 3.54956Z" fill="#0F80CC"/>
<path id="gradient-background" d="M58.491 5.33423H10.117C7.72815 5.33423 5.78418 7.2777 5.78418 9.66699V60.9867C16.7398 56.782 33.183 53.1539 44.5524 53.3187C46.8371 41.3724 53.5518 17.9602 58.491 5.33423Z" fill="url(#paint0_linear_1756_48)"/>
<path id="feather" d="M72.0235 1.73789C68.5856 -1.32803 64.4231 -0.096491 60.3148 3.54956C59.705 4.09124 59.0965 4.69218 58.4911 5.33412C51.4633 12.7895 44.9399 26.5994 42.9132 37.146C43.7027 38.747 44.3194 40.7901 44.7255 42.3508C44.8295 42.7513 44.9235 43.1271 44.9985 43.4468C45.177 44.2034 45.2728 44.6941 45.2728 44.6941C45.2728 44.6941 45.2098 44.4557 44.9512 43.706C44.902 43.5622 44.8472 43.4052 44.7822 43.2204C44.7545 43.1441 44.716 43.0514 44.6738 42.9524C44.2153 41.8867 42.9472 39.6374 42.3891 38.6581C41.9118 40.0662 41.4899 41.3835 41.1368 42.5753C42.7479 45.5232 43.7298 50.5751 43.7298 50.5751C43.7298 50.5751 43.6446 50.2477 43.2398 49.105C42.8804 48.0943 41.0901 44.9577 40.6661 44.2244C39.9406 46.9023 39.6524 48.7104 39.9123 49.1506C40.417 50.0036 40.8976 51.4754 41.3197 53.103C42.2731 56.7698 42.9359 61.2337 42.9359 61.2337C42.9359 61.2337 42.9573 61.5295 42.9932 61.9847C42.8608 65.064 42.9403 68.2566 43.1786 71.1423C43.4946 74.9623 44.0892 78.2438 44.8472 80L45.3617 79.7195C44.2487 76.2594 43.7966 71.7248 43.9946 66.4954C44.2941 58.502 46.1336 48.8623 49.5324 38.8151C55.2745 23.6483 63.2414 11.4792 70.5328 5.6677C63.8871 11.6696 54.8924 31.0974 52.1998 38.2917C49.185 46.3481 47.0485 53.9083 45.7609 61.1516C47.9824 54.361 55.1654 51.4421 55.1654 51.4421C55.1654 51.4421 58.6885 47.0972 62.8056 40.8898C60.3394 41.4522 56.2898 42.4151 54.9334 42.9852C52.9325 43.8245 52.3934 44.1108 52.3934 44.1108C52.3934 44.1108 58.8745 40.164 64.435 38.3769C72.0822 26.3327 80.4135 9.22232 72.0235 1.73789Z" fill="#003B57"/>
</g>
</g>
<defs>
<linearGradient id="paint0_linear_1756_48" x1="36.1757" y1="6.47313" x2="36.1757" y2="57.8918" gradientUnits="userSpaceOnUse">
<stop stop-color="#97D9F6"/>
<stop offset="0.920245" stop-color="#0F80CC"/>
<stop offset="1" stop-color="#0F80CC"/>
</linearGradient>
</defs>
</svg>
