<svg width="80" height="80" viewBox="0 0 80 80" fill="none" xmlns="http://www.w3.org/2000/svg">
<g id="Tailwind">
<mask id="mask0_1737_121" style="mask-type:luminance" maskUnits="userSpaceOnUse" x="1" y="17" width="78" height="47">
<g id="prefix__clip0">
<path id="Vector" d="M1 17H79V63.1455H1V17Z" fill="white"/>
</g>
</mask>
<g mask="url(#mask0_1737_121)">
<g id="Group">
<path id="Vector_2" fill-rule="evenodd" clip-rule="evenodd" d="M40 17C29.6 17 23.1 22.1273 20.5 32.3818C24.4 27.2545 28.95 25.3318 34.15 26.6136C37.1169 27.3443 39.2373 29.4678 41.5846 31.8164C45.408 35.6433 49.8338 40.0727 59.5 40.0727C69.9 40.0727 76.4 34.9455 79 24.6909C75.1 29.8182 70.55 31.7409 65.35 30.4591C62.3831 29.7285 60.2627 27.6049 57.9154 25.2563C54.092 21.4294 49.6662 17 40 17ZM20.5 40.0727C10.1 40.0727 3.6 45.2 1 55.4545C4.9 50.3273 9.45 48.4045 14.65 49.6864C17.6169 50.4184 19.7373 52.5405 22.0846 54.8891C25.908 58.7161 30.3338 63.1455 40 63.1455C50.4 63.1455 56.9 58.0182 59.5 47.7636C55.6 52.8909 51.05 54.8136 45.85 53.5318C42.8831 52.8012 40.7627 50.6776 38.4154 48.3291C34.592 44.5021 30.1662 40.0727 20.5 40.0727Z" fill="#38BDF8"/>
</g>
</g>
</g>
</svg>
