<svg width="80" height="80" viewBox="0 0 80 80" fill="none" xmlns="http://www.w3.org/2000/svg">
<g id="zeplin" clip-path="url(#clip0_1756_485)">
<g id="Group">
<path id="Vector" fill-rule="evenodd" clip-rule="evenodd" d="M12.3307 52.0906L8.14539 53.6199L7.92139 66.0692L22.4081 60.7786C17.4387 59.1092 13.8107 56.1719 12.3307 52.0906Z" fill="#FDBD39"/>
<path id="Vector_2" fill-rule="evenodd" clip-rule="evenodd" d="M14.52 38.9226L0 44.2266L8.14667 53.6199L12.3307 52.0906C10.8547 48.0213 11.764 43.4226 14.52 38.9226Z" fill="#F69833"/>
<path id="Vector_3" fill-rule="evenodd" clip-rule="evenodd" d="M38.9571 20.9572C20.4651 27.7119 8.54377 41.6506 12.3304 52.0906L79.2918 27.6292C75.5051 17.1892 57.4478 14.2026 38.9571 20.9572Z" fill="#FECF33"/>
<path id="Vector_4" fill-rule="evenodd" clip-rule="evenodd" d="M52.6664 58.7627C71.1571 52.0067 83.0998 38.1307 79.2931 27.6294L12.3291 52.0907C16.1371 62.5921 34.1744 65.5174 52.6664 58.7627Z" fill="#EE6723"/>
<path id="Vector_5" fill-rule="evenodd" clip-rule="evenodd" d="M79.2931 27.6294L12.3291 52.0907C13.6398 55.7067 18.6411 57.4881 25.6558 57.4881C32.4958 57.4881 41.2518 55.7961 50.3798 52.4614C68.8704 45.7067 81.8798 34.7694 79.2904 27.6294" fill="#F69833"/>
<path id="Vector_6" fill-rule="evenodd" clip-rule="evenodd" d="M65.9655 22.2319C59.1255 22.2319 50.3695 23.9239 41.2415 27.2586C22.7508 34.0133 9.74151 44.9493 12.3308 52.0906L79.2922 27.6293C77.9815 24.0133 72.9815 22.2319 65.9655 22.2319Z" fill="#FDBD39"/>
<g id="Group_2">
<path id="Vector_7" fill-rule="evenodd" clip-rule="evenodd" d="M62.2668 66.7292C60.2961 66.7292 57.3908 64.9492 53.6268 61.4399C49.1774 57.2879 44.0788 51.2066 39.2708 44.3146C34.4641 37.4253 30.5134 30.5359 28.1481 24.9173C25.5721 18.7946 25.2041 15.0306 27.0561 13.7279C27.4628 13.4426 27.9521 13.2986 28.5121 13.2986C30.0188 13.2986 32.9548 14.4199 38.3828 19.7653L38.5028 19.8813L38.4854 20.0479C38.4481 20.4319 38.4148 20.8199 38.3841 21.1999L38.3241 21.9546L37.7908 21.4186C31.9414 15.5253 29.3668 14.8893 28.5308 14.8893C28.2921 14.8893 28.1028 14.9373 27.9668 15.0333C27.1628 15.5973 27.1108 18.3626 29.6094 24.2973C31.9334 29.8159 35.8254 36.5999 40.5694 43.4013C45.3161 50.2039 50.3361 56.1959 54.7081 60.2733C59.4214 64.6706 61.5454 65.1452 62.2414 65.1452C62.4814 65.1452 62.6748 65.0946 62.8201 64.9919C63.6668 64.3972 63.6681 61.4346 60.8814 55.0452L60.7534 54.7533L61.0334 54.5999C61.3134 54.4466 61.5854 54.2959 61.8388 54.1519L62.1748 53.9613L62.3294 54.3146C64.3041 58.8413 66.1508 64.5946 63.7294 66.2972C63.3214 66.5839 62.8294 66.7292 62.2668 66.7292Z" fill="#EE6723"/>
<path id="Vector_8" fill-rule="evenodd" clip-rule="evenodd" d="M53.1147 58.572L53.088 58.9187C52.62 64.704 51.388 71.6573 48.1787 71.94C48.1147 71.9453 48.048 71.948 47.9813 71.948C45.8 71.948 43.7373 68.824 41.8507 62.664C40.064 56.8347 38.6773 49.0107 37.948 40.628C37.2173 32.2493 37.228 24.3 37.9787 18.248C38.796 11.652 40.3533 8.208 42.6067 8.00933C42.6733 8.004 42.7427 8 42.8107 8C44.392 8 46.776 9.792 49.216 18.1333L47.6227 18.44C46.808 15.6533 45.92 13.3867 45.0387 11.8267C44.2227 10.3867 43.4307 9.59333 42.8067 9.59333C42.7853 9.59333 42.7653 9.59333 42.744 9.596C41.768 9.68133 40.3453 12.0507 39.5533 18.444C38.816 24.388 38.8067 32.2173 39.5267 40.4893C40.2493 48.7627 41.612 56.472 43.3667 62.196C44.152 64.7587 45.0133 66.872 45.8587 68.3053C46.6373 69.628 47.3907 70.356 47.98 70.356C48 70.356 48.02 70.356 48.0413 70.3533C48.9747 70.272 50.736 67.8067 51.4773 59.1333L53.1147 58.572Z" fill="#EE6723"/>
</g>
</g>
</g>
<defs>
<clipPath id="clip0_1756_485">
<rect width="80" height="80" fill="white"/>
</clipPath>
</defs>
</svg>
