<svg width="75" height="75" viewBox="0 0 75 75" fill="none" xmlns="http://www.w3.org/2000/svg">
<g id="Layer_1" clip-path="url(#clip0_1821_761)">
<path id="Vector" d="M0 28.21C0.13 27.72 0.22 27.21 0.39 26.73C1.48 23.49 3.82 21.76 7.11 21.15C7.44 21.09 7.98 20.99 8.03 20.8C8.19 20.19 8.55 19.59 8.1 18.86C7.65 18.13 7.49 17.24 7.16 16.44C7.08 16.24 6.9 16 6.71 15.94C6.11 15.75 5.8 15.36 5.8 14.76C5.8 13 5.76 11.24 5.87 9.48997C5.97 7.95997 6.85 6.76997 8.14 5.99997C10.96 4.29997 13.91 4.14997 16.86 5.64997C18.68 6.57997 19.59 8.17997 19.62 10.23C19.64 11.57 19.62 12.92 19.62 14.26C19.62 15.46 19.44 15.7 18.58 15.96C18.06 17.12 17.52 18.1 17.19 19.15C17.03 19.65 17.22 20.28 17.36 20.82C17.4 20.97 17.83 21.07 18.1 21.11C20.39 21.45 22.31 22.46 23.79 24.29C23.88 24.18 23.95 24.11 23.99 24.03C25.56 20.97 28.14 19.4 31.47 18.95C32.05 18.87 32.34 18.71 32.46 18.07C32.61 17.23 32.65 16.56 32.14 15.75C31.6 14.89 31.41 13.82 31.04 12.74C29.78 12.39 29.72 12.31 29.72 10.72C29.72 9.32997 29.75 7.93997 29.72 6.54997C29.67 4.15997 30.74 2.38997 32.79 1.28997C35.69 -0.280028 38.72 -0.420028 41.74 0.939972C44.07 1.98997 45.27 3.84997 45.27 6.43997C45.27 7.99997 45.27 9.56997 45.27 11.13C45.27 12.26 44.96 12.59 43.77 12.73C43.67 14.12 43.15 15.36 42.44 16.58C42.16 17.07 42.54 17.99 42.74 18.67C42.79 18.84 43.32 18.91 43.65 18.96C46.92 19.46 49.45 21.02 51 24.01C51.04 24.09 51.11 24.17 51.2 24.31C52.36 22.89 53.79 21.91 55.52 21.42C55.85 21.33 56.19 21.27 56.51 21.18C57.01 21.04 57.72 21.29 57.79 20.36C57.84 19.78 57.97 19.3 57.61 18.72C57.21 18.08 57.02 17.29 56.8 16.55C56.7 16.21 56.64 16 56.23 15.86C55.89 15.74 55.45 15.27 55.44 14.95C55.38 13.1 55.35 11.24 55.49 9.38997C55.62 7.73997 56.66 6.55997 58.07 5.78997C60.7 4.35997 63.43 4.22997 66.15 5.48997C68.05 6.36997 69.13 7.90997 69.19 10.04C69.24 11.58 69.22 13.12 69.21 14.65C69.21 15.3 68.92 15.76 68.24 15.94C68.07 15.98 67.91 16.22 67.84 16.4C67.5 17.25 67.27 18.16 66.84 18.96C66.47 19.65 66.83 20.19 66.96 20.77C67 20.95 67.49 21.08 67.79 21.13C72.23 21.85 75 25.03 74.99 29.52C74.99 32.91 74.94 36.31 74.85 39.7C74.81 40.94 74.57 42.17 74.41 43.4C74.33 44 73.95 44.33 73.37 44.49C71.33 45.05 69.28 45.61 67.25 46.22C66.96 46.31 66.66 46.61 66.53 46.89C66.04 47.95 65.59 49.03 65.19 50.13C65.08 50.42 65.08 50.85 65.22 51.11C66.2 52.91 67.2 54.7 68.24 56.46C68.65 57.16 68.61 57.74 68.13 58.4C65.63 61.88 62.64 64.87 59.16 67.37C58.47 67.87 57.87 67.89 57.15 67.46C55.43 66.45 53.66 65.5 51.94 64.49C51.53 64.25 51.22 64.24 50.79 64.43C49.75 64.9 48.69 65.35 47.62 65.74C47.2 65.9 47.01 66.13 46.9 66.54C46.37 68.52 45.8 70.48 45.28 72.46C45.09 73.19 44.7 73.56 43.94 73.69C39.61 74.42 35.3 74.42 30.97 73.67C30.27 73.55 29.9 73.19 29.73 72.53C29.21 70.58 28.63 68.64 28.13 66.68C27.98 66.11 27.7 65.85 27.16 65.66C26.17 65.32 25.21 64.9 24.26 64.45C23.81 64.24 23.49 64.22 23.05 64.48C21.33 65.49 19.57 66.44 17.84 67.45C17.12 67.87 16.53 67.85 15.83 67.35C12.35 64.85 9.36 61.86 6.86 58.38C6.38 57.71 6.34 57.14 6.75 56.44C7.78 54.69 8.74 52.92 9.76 51.17C10 50.76 10 50.45 9.8 50.02C9.33 49 8.9 47.97 8.51 46.92C8.35 46.48 8.12 46.26 7.67 46.14C5.67 45.61 3.68 45.03 1.68 44.5C1.01 44.32 0.64 43.95 0.55 43.25C0.4 41.84 0.19 40.45 0 39.05C0 35.44 0 31.82 0 28.21ZM2.31 37.94C2.45 39.3 2.6 40.56 2.7 41.82C2.74 42.26 2.95 42.43 3.35 42.54C5.33 43.07 7.29 43.64 9.27 44.17C9.87 44.33 10.2 44.68 10.42 45.26C11.01 46.78 11.62 48.29 12.29 49.78C12.58 50.43 12.58 50.96 12.23 51.57C11.22 53.3 10.26 55.05 9.26 56.78C9.03 57.18 9.05 57.44 9.33 57.81C11.38 60.52 13.75 62.89 16.45 64.93C16.82 65.21 17.09 65.21 17.48 64.98C19.21 63.97 20.96 63.02 22.69 62.01C23.31 61.65 23.84 61.67 24.48 61.96C25.88 62.59 27.29 63.2 28.73 63.72C29.54 64.01 29.96 64.47 30.17 65.28C30.64 67.15 31.19 68.99 31.69 70.85C31.8 71.28 31.98 71.5 32.45 71.56C35.81 72.01 39.17 72.01 42.52 71.56C42.98 71.5 43.18 71.3 43.29 70.86C43.8 68.93 44.36 67.01 44.87 65.08C45.05 64.4 45.43 64.03 46.1 63.78C47.58 63.23 49.05 62.62 50.48 61.96C51.15 61.65 51.7 61.65 52.33 62.03C54.06 63.04 55.81 63.99 57.54 65C57.91 65.21 58.16 65.21 58.5 64.95C61.2 62.9 63.58 60.54 65.63 57.83C65.93 57.43 65.92 57.15 65.68 56.74C64.68 55.03 63.74 53.3 62.74 51.59C62.39 50.98 62.36 50.46 62.66 49.81C63.33 48.35 63.94 46.86 64.51 45.36C64.75 44.73 65.08 44.34 65.75 44.17C67.71 43.66 69.65 43.11 71.6 42.55C71.82 42.49 72.16 42.31 72.19 42.14C72.39 40.77 72.52 39.4 72.68 37.98H57.75C56.94 48.93 48.07 56.85 37.82 57.03C26.76 57.23 17.62 48.39 17.18 37.96H2.31V37.94ZM19.58 37.94C20.32 44.57 23.4 49.62 29.27 52.61C35.79 55.94 42.23 55.39 48.18 51.09C52.6 47.89 54.91 43.41 55.4 37.94H19.58ZM43.93 35.52C43.93 35.13 43.93 34.84 43.93 34.55C43.93 32.6 43.93 30.65 43.93 28.69C43.93 27.97 44.39 27.5 45.03 27.47C45.66 27.44 46.16 27.9 46.25 28.59C46.27 28.78 46.26 28.98 46.26 29.18C46.26 31.03 46.26 32.89 46.26 34.74C46.26 35 46.26 35.25 46.26 35.52H49.52C49.55 35.4 49.59 35.3 49.59 35.21C49.59 32.67 49.65 30.13 49.54 27.6C49.39 24.29 46.88 21.73 43.57 21.3C43.19 21.25 43 21.33 42.74 21.65C42.27 22.22 41.72 22.78 41.08 23.15C39.54 24.03 37.83 24.16 36.11 23.88C34.47 23.62 33.01 23 32.12 21.47C32.05 21.36 31.8 21.29 31.64 21.3C28.58 21.47 25.71 24.09 25.53 27.12C25.36 29.87 25.47 32.63 25.46 35.39C25.46 35.43 25.51 35.47 25.54 35.51H28.76C28.76 33.26 28.76 31.06 28.76 28.87C28.76 28.02 29.24 27.48 29.94 27.49C30.65 27.49 31.09 28.01 31.09 28.89C31.09 30.84 31.09 32.79 31.09 34.75C31.09 35.01 31.09 35.27 31.09 35.54H43.93V35.52ZM4.93 35.52C4.94 35.25 4.96 35.01 4.96 34.77C4.96 33.16 4.96 31.55 4.96 29.94C4.96 29.06 5.39 28.54 6.09 28.52C6.8 28.5 7.28 29.07 7.29 29.97C7.3 31.14 7.29 32.31 7.29 33.48C7.29 34.15 7.29 34.83 7.29 35.49H18.14C18.14 33.53 18.13 31.63 18.14 29.73C18.14 29.02 18.62 28.54 19.26 28.52C19.87 28.5 20.42 28.98 20.46 29.66C20.5 30.54 20.48 31.42 20.48 32.29C20.48 33.36 20.48 34.42 20.48 35.5H23.03C23.03 33.2 23.11 30.96 23.01 28.72C22.88 25.96 20.74 23.8 17.98 23.47C17.81 23.45 17.53 23.53 17.44 23.65C16.21 25.41 14.38 25.83 12.42 25.78C10.64 25.73 9 25.23 7.93 23.61C7.86 23.5 7.6 23.45 7.44 23.47C4.93 23.74 2.87 25.63 2.47 28.12C2.31 29.1 2.36 30.11 2.34 31.11C2.32 32.57 2.34 34.02 2.34 35.51H4.92L4.93 35.52ZM72.68 35.53C72.68 35.24 72.68 35.02 72.68 34.81C72.68 32.76 72.76 30.7 72.63 28.66C72.45 25.92 70.3 23.8 67.59 23.48C67.42 23.46 67.14 23.54 67.05 23.66C65.72 25.51 63.81 25.88 61.73 25.76C60.15 25.67 58.69 25.19 57.72 23.83C57.45 23.45 57.22 23.42 56.82 23.49C54.02 24 52.1 26.09 51.99 28.93C51.91 31.03 51.96 33.13 51.96 35.23C51.96 35.32 52 35.41 52.02 35.49H54.53C54.53 33.55 54.52 31.67 54.53 29.79C54.53 29.02 55.08 28.48 55.75 28.51C56.41 28.54 56.85 29.04 56.86 29.8C56.87 31.17 56.86 32.53 56.86 33.9C56.86 34.43 56.86 34.96 56.86 35.5H67.67C67.68 35.23 67.7 34.99 67.7 34.75C67.7 33.19 67.7 31.62 67.7 30.06C67.7 29.08 68.13 28.51 68.86 28.5C69.6 28.49 70.03 29.04 70.04 30.02C70.04 31.27 70.04 32.51 70.04 33.76C70.04 34.34 70.04 34.91 70.04 35.51H72.65L72.68 35.53ZM38.42 8.12997C37.06 8.99997 35.6 9.92997 34.15 10.85C34.05 10.92 33.92 10.96 33.85 11.05C33.75 11.17 33.61 11.33 33.62 11.46C33.68 12.31 33.63 13.19 33.89 13.98C34.54 16 36.82 17.02 38.82 16.31C40.73 15.63 42.04 13.1 41.4 11.29C41.36 11.16 41.23 11.06 41.13 10.96C40.26 10.05 39.39 9.13997 38.43 8.12997H38.42ZM42.94 9.37997C42.94 8.26997 42.93 7.31997 42.94 6.36997C42.96 4.89997 42.31 3.79997 41.02 3.16997C38.57 1.97997 36.11 2.08997 33.74 3.43997C32.86 3.93997 32.21 4.72997 32.13 5.75997C32.04 6.90997 32.11 8.07997 32.11 9.32997C32.34 9.19997 32.5 9.11997 32.66 9.01997C34.43 7.88997 36.2 6.75997 37.95 5.61997C39.14 4.84997 39.69 4.97997 40.29 6.23997C40.88 7.45997 41.7 8.48997 42.93 9.37997H42.94ZM13.48 12.03C12.52 12.65 11.53 13.37 10.46 13.94C9.65 14.37 9.41 14.92 9.47 15.8C9.57 17.17 10.18 18.18 11.43 18.72C12.65 19.25 13.82 19.06 14.84 18.19C15.93 17.27 16.04 16.02 15.94 14.72C15.94 14.62 15.84 14.51 15.76 14.42C15.01 13.63 14.26 12.84 13.48 12.02V12.03ZM63.07 12.03C62.11 12.65 61.12 13.37 60.05 13.93C59.21 14.37 58.94 14.93 59.04 15.84C59.2 17.19 59.79 18.21 61.05 18.74C62.28 19.25 63.44 19.04 64.46 18.17C65.55 17.24 65.61 15.98 65.5 14.68C65.5 14.56 65.36 14.44 65.26 14.34C64.56 13.6 63.86 12.87 63.06 12.03H63.07ZM16.99 12.6C17.09 12.55 17.19 12.51 17.29 12.46C17.29 11.76 17.28 11.06 17.29 10.37C17.32 9.01997 16.68 8.08997 15.48 7.53997C14.1 6.89997 12.65 6.80997 11.2 7.18997C8.08 8.01997 7.86 9.52997 8.27 12.58C9.91 11.52 11.52 10.48 13.14 9.43997C14.12 8.80997 14.67 9.01997 15.26 10.03C15.77 10.92 16.41 11.74 17 12.59L16.99 12.6ZM66.56 12.57C66.67 12.53 66.77 12.49 66.88 12.44C66.88 11.72 66.88 11 66.88 10.28C66.88 8.95997 66.25 8.03997 65.06 7.52997C63.08 6.66997 61.12 6.78997 59.22 7.79997C58.48 8.19997 57.89 8.79997 57.8 9.64997C57.7 10.6 57.78 11.56 57.78 12.53C57.87 12.52 57.92 12.53 57.96 12.5C59.56 11.48 61.16 10.45 62.76 9.41997C63.7 8.81997 64.26 9.02997 64.83 9.99997C65.34 10.89 65.98 11.72 66.56 12.57ZM34.8 18.28C34.65 18.99 34.48 19.57 34.42 20.17C34.4 20.4 34.54 20.74 34.72 20.88C36 21.88 39.05 21.87 40.33 20.88C40.49 20.75 40.67 20.48 40.64 20.31C40.55 19.65 40.37 19 40.22 18.28C38.39 19.05 36.64 19.03 34.81 18.28H34.8ZM10.47 20.89C10.37 21.34 10.22 21.74 10.21 22.15C10.21 22.4 10.33 22.8 10.52 22.9C11.97 23.65 13.46 23.66 14.92 22.9C15.08 22.82 15.28 22.57 15.26 22.42C15.2 21.91 15.06 21.4 14.94 20.87C13.39 21.48 11.94 21.43 10.47 20.89ZM64.54 20.89C63.02 21.47 61.58 21.47 60.08 20.89C59.99 21.25 59.93 21.59 59.82 21.9C59.61 22.5 59.82 22.85 60.4 23.08C61.61 23.55 62.82 23.55 64.04 23.15C64.7 22.93 65.11 22.59 64.77 21.81C64.66 21.55 64.63 21.25 64.54 20.89Z" fill="#FF6C1A"/>
</g>
<defs>
<clipPath id="clip0_1821_761">
<rect width="75" height="74.24" fill="white"/>
</clipPath>
</defs>
</svg>
