<svg width="69" height="75" viewBox="0 0 69 75" fill="none" xmlns="http://www.w3.org/2000/svg">
<g id="Layer_1" clip-path="url(#clip0_1817_556)">
<path id="Vector" d="M6.6 75C6.01 74.59 5.82 74.02 5.86 73.3C5.91 72.33 5.87 71.36 5.87 70.34C4.54 70.24 3.34 69.9 2.31 69.09C0.86 67.95 0.05 66.46 0.03 64.62C-0.01 61.4 -0.01 58.18 0.03 54.96C0.07 51.83 2.6 49.31 5.73 49.24C6.92 49.21 8.11 49.24 9.38 49.24C9.34 47.89 9.4 46.61 10.4 45.6C11.41 44.58 12.67 44.48 14.07 44.56C14.07 43.76 14.11 43.01 14.04 42.26C14.02 42.06 13.7 41.85 13.47 41.72C11.98 40.83 11.34 39.02 11.97 37.4C12.59 35.81 14.29 34.88 15.93 35.23C17.66 35.6 18.87 37.15 18.74 38.9C18.65 40.18 18.02 41.17 16.87 41.76C16.51 41.95 16.38 42.15 16.4 42.54C16.43 43.17 16.4 43.8 16.4 44.54C17.73 44.48 19.01 44.54 20.02 45.53C21.03 46.54 21.18 47.79 21.06 49.22C22.23 49.22 23.34 49.22 24.45 49.22C26.52 49.22 28.18 50.05 29.39 51.73C30.12 52.75 30.45 53.91 30.45 55.17C30.45 58.1 30.45 61.02 30.45 63.95C30.45 67.63 28.36 69.94 24.59 70.33C24.59 71.3 24.55 72.3 24.6 73.28C24.64 74 24.45 74.56 23.86 74.98H6.6V75ZM15.19 67.97C18.26 67.97 21.34 67.97 24.41 67.97C26.64 67.97 28.11 66.49 28.12 64.24C28.12 61.24 28.12 58.24 28.12 55.24C28.12 53.05 26.62 51.58 24.43 51.57C18.31 51.57 12.19 51.57 6.07 51.57C3.84 51.57 2.37 53.05 2.36 55.29C2.36 58.27 2.36 61.24 2.36 64.22C2.36 66.5 3.83 67.96 6.12 67.96C9.14 67.96 12.17 67.96 15.19 67.96V67.97ZM22.23 70.36H8.24V72.61H22.23V70.36ZM18.75 49.2C18.75 48.77 18.77 48.4 18.75 48.04C18.7 47.35 18.28 46.9 17.58 46.89C16.02 46.87 14.47 46.87 12.91 46.89C12.21 46.9 11.79 47.35 11.74 48.04C11.72 48.42 11.74 48.8 11.74 49.2H18.76H18.75ZM16.41 38.66C16.4 38.03 15.87 37.51 15.24 37.52C14.58 37.52 14.05 38.09 14.08 38.74C14.11 39.37 14.66 39.87 15.29 39.85C15.92 39.83 16.43 39.29 16.42 38.66H16.41Z" fill="#FF6C1A"/>
<path id="Vector_2" d="M38.8799 75C38.1999 74.52 38.0899 73.88 38.2099 73.09C38.4399 71.6 38.5899 70.09 38.7199 68.59C38.7499 68.26 38.6499 67.86 38.4699 67.58C32.0199 57.47 37.8799 44.32 49.6999 42.4C58.7499 40.93 67.4899 47.59 68.4599 56.68C69.3999 65.58 63.5599 73.3 54.7299 74.82C54.3699 74.88 54.0199 74.95 53.6599 75.01H50.7299C49.0099 74.54 47.2899 74.06 45.5699 73.59C45.4599 73.56 45.3199 73.54 45.2099 73.57C43.3899 74.04 41.5699 74.53 39.7499 75.01H38.8699L38.8799 75ZM40.6899 72.27C42.1199 71.91 43.4199 71.62 44.7099 71.26C45.3599 71.08 45.9199 71.15 46.5399 71.43C49.0899 72.59 51.7799 72.96 54.5299 72.45C62.1899 71.04 67.0499 64.37 66.1099 56.64C65.1799 48.95 57.4199 43.29 49.7999 44.76C39.4799 46.75 34.8299 58.15 40.7799 66.82C41.0399 67.2 41.1499 67.77 41.1199 68.24C41.0399 69.55 40.8499 70.84 40.6799 72.28L40.6899 72.27Z" fill="#FF6C1A"/>
<path id="Vector_3" d="M16.2501 0C22.7001 0.29 27.6401 2.96 30.7001 8.49C33.7901 14.09 33.5301 19.74 30.2501 25.25C30.0101 25.65 29.8801 26.2 29.9101 26.66C30.0201 28.14 30.2301 29.62 30.4201 31.09C30.5901 32.45 29.9701 33.03 28.6501 32.71C27.0201 32.31 25.3901 31.89 23.7501 31.51C23.4201 31.44 23.0201 31.45 22.7101 31.58C13.1401 35.49 2.47009 29.86 0.350093 19.76C-1.53991 10.74 4.51009 1.85 13.5901 0.32C14.5201 0.16 15.4701 0.09 16.2501 0ZM27.9201 30.11C27.7701 28.78 27.7001 27.59 27.4901 26.42C27.3501 25.61 27.5701 24.99 28.0001 24.32C31.2601 19.24 31.3701 14.04 28.2201 8.9C25.2901 4.11 19.6001 1.58 14.1201 2.6C8.37009 3.66 4.47009 7.07 2.90009 12.72C1.35009 18.31 2.86009 23.26 7.26009 27.05C11.6801 30.86 16.7601 31.49 22.1501 29.23C22.7201 28.99 23.2401 28.92 23.8401 29.08C25.1501 29.43 26.4801 29.75 27.9101 30.11H27.9201Z" fill="#FF6C1A"/>
<path id="Vector_4" d="M53.3904 39.87C49.5904 39.87 45.7804 39.87 41.9804 39.87C39.6004 39.87 38.1504 38.43 38.1504 36.05C38.1504 32.76 38.1504 29.47 38.1504 26.17C38.1504 23.95 39.2404 22.68 41.4104 22.28C43.2604 21.95 45.0904 21.54 46.9404 21.25C47.4204 21.17 48.0104 21.28 48.4404 21.51C49.9104 22.32 51.3504 23.2 52.7704 24.09C53.2404 24.38 53.5704 24.35 54.0204 24.07C55.4004 23.2 56.8204 22.4 58.2104 21.54C58.7604 21.2 59.2804 21.09 59.9304 21.23C61.7604 21.62 63.6104 21.94 65.4504 22.29C67.5004 22.68 68.5904 23.99 68.6004 26.05C68.6004 29.39 68.6004 32.73 68.6004 36.07C68.6004 38.4 67.1404 39.85 64.8104 39.85C61.0104 39.85 57.2004 39.85 53.4004 39.85L53.3904 39.87ZM53.3404 37.53C57.1404 37.53 60.9504 37.53 64.7504 37.53C65.8504 37.53 66.2504 37.13 66.2504 36.03C66.2504 32.69 66.2504 29.35 66.2504 26.01C66.2504 25.17 65.9504 24.8 65.1404 24.64C63.4404 24.3 61.7504 23.95 60.0404 23.67C59.6804 23.61 59.2204 23.72 58.8904 23.9C57.3204 24.79 55.7804 25.73 54.2504 26.67C53.6404 27.05 53.1004 27.04 52.4804 26.66C50.9304 25.7 49.3604 24.76 47.7804 23.85C47.4904 23.69 47.0804 23.61 46.7604 23.66C45.1004 23.94 43.4604 24.27 41.8104 24.6C40.7404 24.81 40.5004 25.12 40.5004 26.17C40.5004 29.44 40.5004 32.71 40.5004 35.97C40.5004 37.16 40.8804 37.53 42.0904 37.53C45.8504 37.53 49.6004 37.53 53.3604 37.53H53.3404Z" fill="#FF6C1A"/>
<path id="Vector_5" d="M45.1803 9.46999C45.1803 8.22999 45.1603 6.97999 45.1803 5.73999C45.2403 3.00999 47.2103 0.52999 49.9103 0.22999C52.1703 -0.0200105 54.5003 -0.0300105 56.7503 0.21999C59.5403 0.52999 61.5103 2.99999 61.5503 5.81999C61.5803 8.25999 61.6003 10.7 61.5503 13.13C61.4603 17.59 57.7803 21.15 53.3303 21.13C48.9103 21.11 45.2803 17.55 45.1803 13.12C45.1503 11.9 45.1803 10.68 45.1803 9.45999V9.46999ZM47.5203 10.57C47.5203 11.52 47.5003 12.32 47.5203 13.12C47.6003 16 49.7703 18.36 52.6903 18.75C55.4103 19.12 58.1403 17.36 58.9403 14.66C59.5003 12.79 59.1103 10.87 59.2403 8.84999C55.4103 10.46 51.5203 10.73 47.5103 10.56L47.5203 10.57ZM47.5403 8.23999C48.7403 8.23999 49.9103 8.26999 51.0703 8.23999C53.7003 8.16999 56.2303 7.59999 58.6703 6.59999C59.1503 6.39999 59.2603 6.13999 59.2203 5.65999C59.0803 3.86999 57.6103 2.42999 55.7903 2.39999C54.1803 2.36999 52.5703 2.36999 50.9603 2.39999C49.2203 2.42999 47.7403 3.70999 47.5503 5.41999C47.4503 6.32999 47.5303 7.25999 47.5303 8.23999H47.5403Z" fill="#FF6C1A"/>
<path id="Vector_6" d="M25.7802 58.63C25.7802 61.21 23.6402 63.31 21.0502 63.29C18.5002 63.27 16.4202 61.17 16.4102 58.62C16.4102 56.03 18.5102 53.92 21.1002 53.93C23.6902 53.93 25.7802 56.04 25.7802 58.64V58.63ZM23.4402 58.62C23.4402 57.34 22.4102 56.29 21.1302 56.27C19.8302 56.25 18.7502 57.33 18.7602 58.63C18.7702 59.91 19.8202 60.94 21.1002 60.95C22.3702 60.95 23.4302 59.89 23.4302 58.62H23.4402Z" fill="#FF6C1A"/>
<path id="Vector_7" d="M14.0703 58.58C14.0803 61.16 11.9703 63.28 9.39034 63.28C6.83034 63.28 4.73034 61.2 4.70034 58.65C4.68034 56.05 6.76034 53.92 9.34034 53.91C11.9303 53.9 14.0503 55.98 14.0603 58.57L14.0703 58.58ZM9.38034 56.26C8.11034 56.26 7.05034 57.31 7.05034 58.59C7.05034 59.89 8.12034 60.96 9.43034 60.94C10.7003 60.92 11.7403 59.84 11.7303 58.58C11.7103 57.3 10.6603 56.26 9.38034 56.27V56.26Z" fill="#FF6C1A"/>
<path id="Vector_8" d="M52.1703 59.78C49.9503 59.78 47.7303 59.78 45.5103 59.78C44.5403 59.78 43.9903 59.33 44.0103 58.58C44.0303 57.85 44.5603 57.44 45.5003 57.44C49.9603 57.44 54.4303 57.44 58.8903 57.44C59.8603 57.44 60.4103 57.89 60.3903 58.64C60.3703 59.36 59.8403 59.78 58.9003 59.78C56.6603 59.78 54.4103 59.78 52.1703 59.78Z" fill="#FF6C1A"/>
<path id="Vector_9" d="M52.2795 62.12C54.4995 62.12 56.7195 62.12 58.9395 62.12C59.8595 62.12 60.3995 62.56 60.3995 63.29C60.3995 64.02 59.8595 64.46 58.9395 64.46C54.4495 64.46 49.9595 64.46 45.4795 64.46C44.5595 64.46 44.0195 64.02 44.0195 63.29C44.0195 62.56 44.5495 62.12 45.4795 62.12C47.7495 62.12 50.0195 62.12 52.2895 62.12H52.2795Z" fill="#FF6C1A"/>
<path id="Vector_10" d="M47.59 52.75C48.32 52.75 49.05 52.73 49.78 52.75C50.53 52.77 51.02 53.25 51.02 53.91C51.02 54.57 50.53 55.06 49.78 55.07C48.27 55.09 46.76 55.09 45.24 55.07C44.49 55.07 44 54.57 44 53.91C44 53.24 44.49 52.77 45.24 52.75C46.02 52.73 46.8 52.75 47.58 52.75H47.59Z" fill="#FF6C1A"/>
<path id="Vector_11" d="M16.3703 22.3C14.1503 22.3 11.9303 22.3 9.71025 22.3C8.77025 22.3 8.24025 21.89 8.22025 21.16C8.20025 20.41 8.75025 19.96 9.72025 19.96C14.1803 19.96 18.6503 19.96 23.1103 19.96C24.0503 19.96 24.5803 20.37 24.6003 21.09C24.6203 21.84 24.0703 22.29 23.1003 22.29C20.8603 22.29 18.6103 22.29 16.3703 22.29V22.3Z" fill="#FF6C1A"/>
<path id="Vector_12" d="M16.3397 17.62C14.1197 17.62 11.8997 17.62 9.67973 17.62C8.75973 17.62 8.21973 17.18 8.21973 16.45C8.21973 15.72 8.74973 15.28 9.67973 15.28C14.1697 15.28 18.6597 15.28 23.1397 15.28C24.0597 15.28 24.5997 15.72 24.5997 16.45C24.5997 17.18 24.0597 17.62 23.1397 17.62C20.8697 17.62 18.5997 17.62 16.3297 17.62H16.3397Z" fill="#FF6C1A"/>
<path id="Vector_13" d="M11.6999 12.93C10.9699 12.93 10.2399 12.94 9.50987 12.93C8.71987 12.91 8.20987 12.43 8.21987 11.74C8.23987 11.08 8.72987 10.61 9.47987 10.6C10.9699 10.58 12.4599 10.58 13.9399 10.6C14.7299 10.6 15.2399 11.1 15.2299 11.79C15.2099 12.45 14.7199 12.91 13.9699 12.93C13.2099 12.95 12.4599 12.93 11.6999 12.93Z" fill="#FF6C1A"/>
</g>
<defs>
<clipPath id="clip0_1817_556">
<rect width="68.6" height="75" fill="white"/>
</clipPath>
</defs>
</svg>
