<svg width="75" height="75" viewBox="0 0 75 75" fill="none" xmlns="http://www.w3.org/2000/svg">
<g id="Layer_1" clip-path="url(#clip0_1823_763)">
<path id="Vector" d="M30.46 75H28.12C28.01 74.95 27.91 74.89 27.79 74.87C24.58 74.28 22.29 72.5 20.95 69.52C20.89 69.39 20.82 69.27 20.76 69.15C12.16 72.17 4.13001 65.25 6.86001 56.32C3.63001 55.51 1.81001 53.31 1.10001 50.18C0.390005 47.03 1.27001 44.31 3.69001 42.11C0.760005 39.52 -0.439995 36.3 0.140005 32.5C0.730005 28.59 3.11001 26.1 6.72001 24.71C4.75 18.53 7.78001 11.76 14.89 11.15C14.91 11.04 14.93 10.93 14.94 10.81C15.38 5.89004 19.36 3.00004 24.15 4.15004C24.71 4.28004 24.94 4.15004 25.27 3.72004C27.27 0.990037 29.91 -0.399963 33.36 0.140037C35.06 0.400037 36.44 1.27004 37.58 2.60004C38.48 1.45004 39.58 0.680037 40.94 0.290037C44.14 -0.629963 47.67 0.740037 49.73 3.75004C50.02 4.18004 50.26 4.30004 50.79 4.17004C54.87 3.17004 58.43 5.08004 59.67 8.93004C59.9 9.66004 60 10.44 60.16 11.22C63.39 11.54 65.99 12.93 67.58 15.85C69.12 18.68 69.16 21.67 68.24 24.71C68.54 24.84 68.78 24.94 69.03 25.05C71.75 26.24 73.6 28.23 74.52 31.07C74.72 31.69 74.84 32.34 75 32.97V35.31C74.51 37.97 73.5 40.35 71.27 42.09C73.73 44.32 74.6 47.05 73.89 50.2C73.18 53.33 71.36 55.53 68.13 56.33C70.78 65.52 62.64 72.16 54.24 69.16C54.14 69.37 54.03 69.58 53.93 69.8C52.74 72.31 50.8 73.92 48.14 74.69C47.73 74.81 47.3 74.91 46.89 75.02H44.55C44.42 74.97 44.29 74.91 44.15 74.88C41.6 74.43 39.6 73.12 38.15 70.98C37.95 70.69 37.78 70.39 37.6 70.09C37.54 70.14 37.51 70.15 37.5 70.17C37.38 70.35 37.26 70.54 37.14 70.72C35.86 72.7 34.09 74.02 31.82 74.68C31.38 74.81 30.94 74.91 30.49 75.02L30.46 75ZM36.45 59.48C36.45 59.09 36.45 58.87 36.45 58.66C36.45 41.26 36.45 23.86 36.45 6.45004C36.45 4.59004 35.48 3.25004 33.73 2.63004C31.44 1.83004 28.87 2.72004 27.31 4.91004C27.06 5.27004 26.84 5.74004 26.83 6.17004C26.83 7.08004 26.91 8.00004 27.06 8.90004C27.19 9.65004 27 10.24 26.38 10.48C25.75 10.72 25.11 10.4 24.84 9.65004C24.66 9.15004 24.52 8.62004 24.45 8.10004C24.25 6.44004 24.27 6.44004 22.59 6.26004C22.3 6.23004 22 6.22004 21.72 6.24004C18.99 6.49004 17.2 8.68004 17.28 11.63C17.33 13.26 17.16 13.45 15.57 13.51C11.9 13.67 9.44001 15.63 8.70001 19.03C8.27001 21 8.51 22.91 9.32001 24.75C9.77001 25.77 9.48001 26.36 8.40001 26.68C8.28001 26.71 8.17001 26.75 8.05001 26.79C3.69001 28.03 1.40001 32.08 2.68001 36.43C3.40001 38.9 4.86001 40.75 7.54001 41.25C8.54 41.44 9.57001 41.42 10.59 41.46C11.36 41.49 11.87 41.87 11.91 42.54C11.95 43.24 11.48 43.82 10.69 43.79C9.36001 43.74 8.03001 43.57 6.70001 43.48C6.35001 43.46 5.91001 43.48 5.63001 43.66C3.46001 45.1 2.67001 47.74 3.60001 50.41C4.23001 52.22 5.32001 53.56 7.31001 53.98C7.85001 54.09 8.21001 54 8.54001 53.52C9.35001 52.36 10.42 51.48 11.65 50.8C12.42 50.38 13.08 50.49 13.45 51.1C13.83 51.73 13.59 52.36 12.8 52.85C10.6 54.21 9.17001 56.05 8.82001 58.72C8.3 62.66 10.49 66.2 14.25 67.21C16.38 67.78 18.45 67.54 20.47 66.7C21.94 66.09 22.37 66.28 22.81 67.78C23.19 69.08 23.85 70.19 24.89 71.07C28.71 74.33 34.5 72.47 36.03 67.51C37.12 63.97 35.85 61.07 32.6 59.78C30.26 58.86 27.98 59 25.76 60.22C24.97 60.66 24.33 60.55 23.97 59.95C23.59 59.33 23.83 58.65 24.62 58.2C26.61 57.05 28.75 56.64 31.03 56.94C33.05 57.2 34.8 58.04 36.45 59.5V59.48ZM38.83 61.52C38.83 63.04 38.75 64.46 38.85 65.86C38.99 67.87 39.69 69.67 41.27 71.02C45 74.22 50.71 72.53 52.15 67.83C52.65 66.2 52.94 66.12 54.57 66.67C55.67 67.05 56.82 67.35 57.97 67.45C61.83 67.78 65.16 65.37 66 61.75C66.47 59.73 66.12 57.78 65.44 55.86C65 54.62 65.48 53.97 66.79 54.02C67.95 54.06 68.94 53.69 69.8 52.92C72.26 50.69 72.95 45.52 68.76 43.27C68.25 43 67.76 42.64 67.9 42.06C68.01 41.63 68.38 41.14 68.77 40.93C73.69 38.25 74.02 30.87 69.29 27.86C68.44 27.32 67.44 27.01 66.48 26.67C65.55 26.34 65.25 25.8 65.61 24.88C65.74 24.56 65.88 24.25 65.99 23.93C67.45 19.69 65.86 13.94 59.77 13.53C57.73 13.39 57.73 13.35 57.71 11.26C57.68 8.51004 55.82 6.38004 53.19 6.27004C52.27 6.23004 51.31 6.49004 50.41 6.76004C49.23 7.11004 48.89 7.01004 48.31 5.91004C47.34 4.06004 45.89 2.78004 43.78 2.43004C41.05 1.98004 38.67 3.64004 38.79 6.58004C38.85 8.12004 38.79 9.66004 38.8 11.19C38.8 11.43 38.82 11.66 38.84 11.96C40.21 11.96 41.52 11.93 42.84 11.97C43.45 11.99 43.82 11.85 44.14 11.24C45.07 9.52004 47.19 8.88004 48.95 9.68004C50.72 10.49 51.6 12.5 50.95 14.34C50.43 15.81 49.35 16.67 47.81 16.83C46.14 17.01 44.88 16.31 44.03 14.85C43.9 14.63 43.67 14.3 43.47 14.3C41.94 14.25 40.41 14.27 38.85 14.27V25.79C41.08 25.79 43.28 25.72 45.47 25.81C47.1 25.88 48.38 25.01 49.81 24.55C49.78 24.32 49.75 24.18 49.73 24.04C49.3 21.35 50.85 18.76 53.42 17.84C55.99 16.93 58.83 17.95 60.21 20.29C61.59 22.63 61.12 25.59 59.06 27.41C57.04 29.2 53.88 29.39 51.88 27.58C50.92 26.71 50.22 26.77 49.24 27.27C47.87 27.98 46.42 28.23 44.86 28.15C43.11 28.06 41.35 28.13 39.59 28.13C39.33 28.13 39.08 28.13 38.83 28.13V35C39.01 35.01 39.15 35.03 39.29 35.03C44.66 35.03 50.03 35.03 55.4 35.04C55.89 35.04 55.99 34.81 56.12 34.42C57.05 31.69 59.85 30.07 62.6 30.64C65.3 31.2 67.25 33.62 67.18 36.31C67.1 39.11 65.08 41.37 62.24 41.81C59.67 42.21 57.01 40.6 56.15 38.05C55.97 37.51 55.74 37.35 55.19 37.35C49.99 37.37 44.79 37.36 39.59 37.36C39.34 37.36 39.08 37.36 38.82 37.36V44.49C40.46 44.49 42.07 44.56 43.67 44.47C45.95 44.34 48.14 44.6 50.18 45.69C50.63 45.93 50.91 45.87 51.29 45.48C53.08 43.6 55.97 43.26 58.21 44.59C60.46 45.93 61.5 48.6 60.74 51.11C59.98 53.61 57.6 55.23 54.91 55.08C52.35 54.93 50.19 53.04 49.77 50.47C49.64 49.69 49.75 48.88 49.75 47.95C48.57 47.58 47.4 46.98 46.18 46.88C43.95 46.7 41.69 46.83 39.45 46.83C39.24 46.83 39.03 46.86 38.82 46.87V59.1H44.6C45.71 56.96 47.42 56.11 49.36 56.72C51.01 57.24 52.06 58.75 51.99 60.51C51.93 62.13 50.7 63.59 49.1 63.97C47.41 64.36 45.71 63.59 44.88 62.08C44.75 61.84 44.49 61.51 44.28 61.51C42.48 61.46 40.68 61.48 38.82 61.48L38.83 61.52ZM61.53 32.93C59.67 32.93 58.16 34.42 58.18 36.25C58.2 38.06 59.69 39.54 61.5 39.54C63.35 39.54 64.86 38.05 64.85 36.2C64.84 34.38 63.37 32.93 61.53 32.92V32.93ZM55.34 19.87C53.49 19.87 52.02 21.31 52.01 23.14C52 24.96 53.47 26.46 55.29 26.49C57.15 26.52 58.65 25.03 58.65 23.16C58.65 21.32 57.2 19.88 55.34 19.87ZM58.65 49.47C58.65 47.64 57.19 46.17 55.35 46.16C53.53 46.15 52.03 47.62 52.01 49.44C51.99 51.29 53.5 52.79 55.36 52.78C57.21 52.77 58.65 51.31 58.66 49.47H58.65ZM48.24 58.92C47.47 58.92 46.85 59.53 46.83 60.31C46.81 61.13 47.43 61.78 48.23 61.78C49.01 61.78 49.67 61.11 49.65 60.32C49.64 59.56 49 58.92 48.24 58.92ZM47.42 11.69C46.63 11.67 46 12.24 45.97 13.02C45.93 13.84 46.53 14.49 47.34 14.51C48.16 14.53 48.79 13.92 48.8 13.11C48.8 12.33 48.21 11.72 47.43 11.7L47.42 11.69Z" fill="#FF6C1A"/>
<path id="Vector_2" d="M21.0201 32.9299C23.5901 32.6199 25.8801 33.2099 27.8901 34.7499C30.1201 36.4799 31.2901 38.7899 31.4501 41.5999C31.5001 42.5199 31.0801 43.0699 30.3401 43.0999C29.5901 43.1299 29.1701 42.6599 29.1001 41.7199C28.8801 38.6999 27.0301 36.2999 24.2801 35.4699C21.5001 34.6399 18.6801 35.5899 16.8101 37.9999C16.4601 38.4599 16.0501 38.8599 15.4701 38.6399C15.1101 38.5099 14.7101 38.1399 14.6101 37.7899C14.5101 37.4699 14.6901 36.9799 14.9001 36.6599C15.8401 35.2499 17.1801 34.2799 18.7501 33.5399C18.1201 30.7399 16.5101 28.8099 13.9201 27.6799C13.7201 27.5899 13.5001 27.5399 13.3101 27.4499C12.6901 27.1599 12.4101 26.5299 12.6301 25.9399C12.8501 25.3599 13.4801 25.0699 14.1401 25.2899C17.4601 26.4199 19.6501 28.6799 20.7701 31.9899C20.8201 32.1299 20.8601 32.2699 20.8901 32.4099C20.9301 32.5499 20.9601 32.6899 21.0101 32.9099L21.0201 32.9299Z" fill="#FF6C1A"/>
<path id="Vector_3" d="M19.3398 47.3798C19.4298 45.5098 20.2798 43.8098 22.0598 42.6298C22.7898 42.1498 23.4698 42.2098 23.8698 42.7798C24.2898 43.3798 24.0998 44.0298 23.3498 44.5698C21.9698 45.5598 21.4198 46.9698 21.8098 48.5298C22.1698 49.9498 23.3998 51.0698 24.9498 51.1898C25.6198 51.2398 26.3398 51.0398 26.9998 50.8198C27.8398 50.5398 28.4698 50.6298 28.7798 51.2398C29.1098 51.8898 28.8098 52.5398 28.0098 52.9398C24.0798 54.9298 19.3398 52.0298 19.3398 47.3898V47.3798Z" fill="#FF6C1A"/>
<path id="Vector_4" d="M19.3598 15.08C19.7598 15.35 20.1198 15.52 20.3798 15.78C21.6998 17.12 22.8798 17.24 24.3798 16.11C24.7698 15.82 25.1198 15.48 25.4798 15.15C27.5398 13.31 30.4098 12.81 32.6798 13.92C33.5198 14.33 33.7698 15.12 33.2598 15.76C32.8798 16.24 32.3798 16.35 31.8198 16.1C29.8698 15.22 28.2198 15.78 26.7498 17.16C25.4498 18.37 24.0298 19.31 22.1498 19.2C20.5798 19.11 19.3698 18.34 18.4898 17.09C18.2798 16.8 18.2698 16.23 18.4098 15.88C18.5398 15.56 18.9898 15.38 19.3598 15.08Z" fill="#FF6C1A"/>
<path id="Vector_5" d="M33.0096 25.1902C32.9496 27.7602 30.9496 29.8302 28.3996 29.9902C27.6196 30.0402 27.0396 29.6202 26.9596 28.9502C26.8696 28.2702 27.3396 27.7602 28.1296 27.6602C29.7096 27.4602 30.6796 26.4702 30.6596 25.0602C30.6396 23.6702 29.6996 22.7302 28.1396 22.5502C27.3996 22.4602 26.9196 21.9802 26.9496 21.3202C26.9796 20.6302 27.4996 20.2002 28.2996 20.2002C30.8896 20.2202 33.0696 22.5302 33.0096 25.1802V25.1902Z" fill="#FF6C1A"/>
<path id="Vector_6" d="M61.4702 35.0601C62.1002 35.0401 62.6602 35.5601 62.6802 36.1901C62.7002 36.8301 62.2002 37.3601 61.5502 37.3801C60.9002 37.4001 60.3702 36.9101 60.3502 36.2701C60.3302 35.6401 60.8402 35.0901 61.4802 35.0701L61.4702 35.0601Z" fill="#FF6C1A"/>
<path id="Vector_7" d="M55.3401 22.0001C55.9701 22.0201 56.5101 22.5701 56.5001 23.1901C56.4901 23.8201 55.9501 24.3301 55.3001 24.3301C54.6501 24.3301 54.1601 23.8201 54.1701 23.1501C54.1701 22.5001 54.7001 21.9901 55.3401 22.0001Z" fill="#FF6C1A"/>
<path id="Vector_8" d="M55.3301 48.3302C55.9801 48.3302 56.5101 48.8602 56.5001 49.4902C56.5001 50.1002 55.9301 50.6602 55.3101 50.6502C54.6801 50.6502 54.1601 50.1202 54.1701 49.4702C54.1701 48.8102 54.6701 48.3202 55.3301 48.3302Z" fill="#FF6C1A"/>
</g>
<defs>
<clipPath id="clip0_1823_763">
<rect width="74.98" height="75" fill="white"/>
</clipPath>
</defs>
</svg>
