<svg width="75" height="75" viewBox="0 0 75 75" fill="none" xmlns="http://www.w3.org/2000/svg">
<g id="Layer_1" clip-path="url(#clip0_1823_795)">
<path id="Vector" d="M21.5398 42.4401C17.9598 41.5001 16.2598 39.3001 16.2598 35.6601C16.2598 33.4201 16.2598 31.1801 16.2598 28.9401C16.2598 26.8901 17.0198 25.1901 18.6098 23.8901C18.9698 23.6001 18.9998 23.3701 18.8598 22.9701C18.1598 20.9301 17.4798 18.8801 16.8098 16.8301C14.7798 10.7201 18.9198 4.95008 25.3698 5.02008C27.9898 5.05008 30.1698 4.33008 32.0698 2.48008C33.8098 0.790082 36.0198 0.0300822 38.4598 0.0100822C40.5398 -0.00991784 42.6198 8.21613e-05 44.7098 0.0100822C46.0598 0.0100822 46.5698 0.860082 45.9798 2.09008C45.8298 2.39008 45.6698 2.69008 45.5198 3.00008C44.9798 4.13008 45.4998 4.99008 46.7498 5.01008C47.7898 5.03008 48.8298 5.01008 49.8698 5.01008C55.9698 5.04008 60.1098 10.7301 58.2698 16.5601C57.5998 18.6901 56.8798 20.8101 56.1498 22.9201C55.9898 23.3901 56.0598 23.6401 56.4498 23.9501C57.9598 25.2001 58.7198 26.8301 58.7298 28.7901C58.7398 31.0301 58.7298 33.2701 58.7298 35.5101C58.7298 39.3001 57.1198 41.4201 53.6498 42.3801C53.1498 44.2001 52.6998 45.9601 52.1698 47.6901C51.9698 48.3501 51.5898 48.9601 51.2498 49.5801C50.7398 50.4901 50.0398 50.7601 49.3498 50.3501C48.6698 49.9501 48.5698 49.2601 49.0698 48.3801C50.0998 46.5901 50.7098 44.6801 50.8798 42.5101C50.5798 42.5101 50.3098 42.5101 50.0398 42.5101C47.9598 42.5101 45.8798 42.4901 43.7898 42.5101C42.5398 42.5301 41.4598 42.1401 40.6698 41.1901C39.8798 40.2401 38.9498 39.8201 37.7398 40.0001C37.5598 40.0301 37.3698 40.0301 37.1898 40.0001C36.0098 39.8301 35.0898 40.2201 34.3198 41.1601C33.5198 42.1401 32.4098 42.5301 31.1298 42.5101C29.0698 42.4801 27.0198 42.5101 24.9598 42.5101H24.0298C24.6998 47.8701 27.3298 51.7301 32.2098 53.9001C35.6598 55.4301 39.1798 55.3801 42.6698 53.9501C42.8598 53.8701 43.0498 53.7801 43.2498 53.7201C43.9498 53.4801 44.5898 53.7501 44.8598 54.4001C45.1098 55.0001 44.9098 55.7201 44.2498 55.9601C42.7898 56.4801 41.3098 57.1001 39.7998 57.3001C31.0698 58.4701 23.4898 52.9701 21.7898 44.3301C21.6698 43.7201 21.6098 43.1001 21.5198 42.4401H21.5398ZM37.5598 25.0101C32.6198 25.0101 27.6698 25.0101 22.7298 25.0101C20.3398 25.0101 18.7698 26.5901 18.7598 28.9701C18.7598 31.3101 18.7598 33.6501 18.7598 36.0001C18.7598 38.4401 20.3198 40.0001 22.7598 40.0101C25.2298 40.0101 27.7098 39.9501 30.1798 40.0401C31.4498 40.0801 32.4298 39.7901 33.2498 38.7801C34.0198 37.8401 35.0898 37.4701 36.3098 37.5101C36.8598 37.5301 37.4098 37.5601 37.9498 37.5101C39.7598 37.3301 41.2198 37.9301 42.3498 39.3401C42.7798 39.8701 43.3298 40.0301 43.9998 40.0301C46.7598 40.0001 49.5198 40.0301 52.2798 40.0201C54.6698 40.0201 56.2398 38.4401 56.2498 36.0601C56.2498 33.7401 56.2498 31.4301 56.2498 29.1101C56.2498 26.5601 54.7098 25.0301 52.1698 25.0301C47.2998 25.0301 42.4398 25.0301 37.5698 25.0301L37.5598 25.0101ZM42.9498 2.51008C41.6398 2.51008 40.3898 2.54008 39.1498 2.51008C36.8098 2.43008 34.8398 3.20008 33.1598 4.85008C31.7098 6.27008 29.9398 7.15008 27.9198 7.39008C26.8598 7.51008 25.7898 7.49008 24.7298 7.53008C21.2198 7.69008 18.2998 10.8701 18.8398 14.3101C19.1998 16.6001 20.1098 18.8101 20.8198 21.2301C21.0198 20.9401 21.0798 20.8601 21.1298 20.7801C22.4298 18.5601 24.3698 17.5001 26.9398 17.5201C28.8898 17.5401 30.8498 17.4501 32.7898 17.5601C33.6098 17.6001 34.4298 17.9501 35.2098 18.2701C35.7098 18.4701 36.1398 18.8401 36.5798 19.1601C37.2098 19.6301 37.8198 19.6101 38.4398 19.1501C38.7698 18.9001 39.1398 18.7001 39.4698 18.4501C40.3798 17.7701 41.3998 17.5001 42.5398 17.5201C44.4898 17.5601 46.4398 17.5101 48.3998 17.5401C50.7398 17.5701 52.5298 18.6101 53.7698 20.6001C53.8698 20.7601 53.9898 20.9101 54.1498 21.1401C54.7898 19.1801 55.4598 17.3401 55.9898 15.4701C56.9998 11.9001 54.7598 8.29008 51.1198 7.68008C49.7998 7.46008 48.4298 7.54008 47.0798 7.53008C44.0198 7.51008 42.4198 5.63008 42.9598 2.53008L42.9498 2.51008ZM51.8498 22.4901C51.3098 20.9601 50.0298 20.0301 48.4398 20.0101C46.4898 19.9901 44.5398 19.9701 42.5898 20.0301C42.0098 20.0501 41.3398 20.2201 40.8698 20.5501C38.2198 22.4201 36.9398 22.5801 34.1298 20.5101C33.8098 20.2701 33.3898 20.0401 33.0098 20.0301C30.7698 19.9901 28.5398 19.9701 26.2998 20.0301C24.7898 20.0701 23.3798 21.2701 23.2298 22.4901H51.8498Z" fill="#FF6C1A"/>
<path id="Vector_2" d="M65.8203 65.0001C66.3103 66.9201 66.8303 68.7901 67.2403 70.6801C67.4403 71.6101 67.4503 72.5901 67.4803 73.5501C67.5103 74.5101 67.0203 74.9701 66.0503 74.9901C65.8903 74.9901 65.7403 74.9901 65.5803 74.9901C46.8703 74.9901 28.1503 74.9901 9.44027 74.9901C7.82027 74.9901 7.47027 74.6501 7.54027 73.0001C7.58027 72.0201 7.70027 71.0401 7.80027 69.9901C6.55027 69.9901 5.30027 69.9901 4.06027 69.9901C1.58027 69.9901 0.0302734 68.4301 0.0302734 65.9301C0.0302734 62.8101 0.0302734 59.6801 0.0302734 56.5601C0.0302734 54.0301 1.58027 52.5001 4.13027 52.5001C9.26027 52.5001 14.3903 52.5001 19.5103 52.5001C22.2803 52.5001 23.7203 53.9201 23.7703 56.7201C23.7703 56.8501 23.7803 56.9801 23.7903 57.2101C25.2703 56.9201 26.7203 56.6601 28.1503 56.3501C28.8603 56.1901 29.4603 56.2301 29.8403 56.9101C30.2303 57.6101 29.9003 58.1401 29.4003 58.6401C27.6603 60.3601 25.9303 62.0901 24.2203 63.8401C23.9703 64.1001 23.8403 64.5401 23.7803 64.9101C23.7103 65.3401 23.7703 65.7901 23.7603 66.2301C23.7103 68.3701 22.1203 69.9601 19.9703 69.9801C17.0803 70.0001 14.1903 69.9801 11.3003 69.9801C11.0203 69.9801 10.7403 69.9801 10.3903 69.9801C10.2703 70.8301 10.1603 71.6101 10.0503 72.4401H64.9303C64.7603 69.9501 64.1103 67.6501 63.0403 65.4501C62.8403 65.0401 62.5803 64.9801 62.1803 64.9801C59.8903 64.9901 57.6003 64.9801 55.3103 64.9801C52.7803 64.9801 51.1803 63.4301 51.2703 60.8801C51.3103 59.6801 50.9503 58.8501 50.0803 58.0501C48.5303 56.6301 47.0903 55.0801 45.5903 53.5901C45.1103 53.1101 44.8003 52.6001 45.1503 51.9301C45.5203 51.2401 46.1103 51.1701 46.8203 51.3201C48.2603 51.6301 49.7103 51.9001 51.1703 52.1801C51.2403 51.5301 51.2303 50.9201 51.3703 50.3501C51.7603 48.6701 53.1903 47.4901 54.9103 47.4901C60.3803 47.4701 65.8403 47.4701 71.3103 47.4901C73.3203 47.4901 74.9503 49.1101 74.9703 51.1201C75.0103 54.5301 75.0103 57.9401 74.9703 61.3501C74.9503 63.3501 73.3203 64.9301 71.3003 64.9701C69.6903 65.0001 68.0703 64.9701 66.4603 64.9701C66.2103 64.9701 65.9603 64.9701 65.8203 64.9701V65.0001ZM50.3003 54.6001C50.3003 54.6001 50.2303 54.7001 50.1903 54.7501C50.6403 55.1701 51.0603 55.6401 51.5403 56.0201C53.2103 57.3201 54.1403 58.8901 53.7703 61.1101C53.6203 62.0001 54.2203 62.5001 55.1503 62.5001C60.4603 62.5001 65.7703 62.5001 71.0803 62.5001C72.0003 62.5001 72.4803 62.0201 72.4803 61.1001C72.4903 57.8701 72.4903 54.6401 72.4803 51.4201C72.4803 50.5001 72.0003 50.0201 71.0803 50.0201C65.7703 50.0201 60.4603 50.0201 55.1503 50.0201C54.2203 50.0201 53.7703 50.4901 53.7503 51.4201C53.7303 52.1001 53.7503 52.7701 53.7503 53.4501C53.7403 54.6601 53.1303 55.1601 51.9603 54.9301C51.4103 54.8201 50.8503 54.7201 50.3003 54.6101V54.6001ZM24.7203 59.8101C24.6903 59.7501 24.6503 59.7001 24.6203 59.6401C24.1203 59.7201 23.6203 59.8001 23.1203 59.8901C21.8403 60.1401 21.2603 59.6701 21.2603 58.3501C21.2603 57.7001 21.2703 57.0501 21.2603 56.4001C21.2403 55.4801 20.7803 55.0001 19.8603 55.0001C14.5503 55.0001 9.24027 55.0001 3.94027 55.0001C3.01027 55.0001 2.53027 55.4701 2.53027 56.3901C2.52027 59.6201 2.52027 62.8401 2.53027 66.0701C2.53027 67.0001 3.00027 67.4801 3.92027 67.4901C9.25027 67.4901 14.5903 67.5001 19.9203 67.4901C20.7903 67.4901 21.2503 67.0001 21.2703 66.1201C21.2903 65.5001 21.3103 64.8701 21.2703 64.2501C21.2203 63.5401 21.4603 63.0101 21.9803 62.5201C22.9203 61.6401 23.8203 60.7201 24.7403 59.8101H24.7203Z" fill="#FF6C1A"/>
<path id="Vector_3" d="M5.00033 43.8701C4.62033 43.6401 4.26033 43.4901 3.99033 43.2301C2.81033 42.0901 1.66033 40.9301 0.510334 39.7601C-0.179666 39.0601 -0.169666 38.4301 0.530334 37.7301C1.68033 36.5601 2.84033 35.4001 4.01033 34.2601C4.71033 33.5701 5.33033 33.5801 6.05033 34.2701C7.22033 35.4201 8.38033 36.5701 9.52033 37.7501C10.2103 38.4501 10.2003 39.0801 9.50033 39.7901C8.35033 40.9601 7.20033 42.1201 6.02033 43.2601C5.76033 43.5101 5.38033 43.6601 5.00033 43.8801V43.8701ZM6.85033 38.7901C6.22033 38.1301 5.62033 37.5001 5.08033 36.9301C4.44033 37.5801 3.81033 38.2101 3.25033 38.7801C3.81033 39.3701 4.41033 40.0101 5.03033 40.6601C5.65033 40.0201 6.26033 39.4001 6.85033 38.8001V38.7901Z" fill="#FF6C1A"/>
<path id="Vector_4" d="M70.0996 34.9699C69.8896 35.3399 69.7496 35.7199 69.4996 35.9799C68.3496 37.1799 67.1696 38.3499 65.9796 39.5199C65.2996 40.1799 64.6796 40.1699 63.9996 39.5199C62.8096 38.3599 61.6296 37.1799 60.4696 35.9899C59.8096 35.3099 59.8096 34.6899 60.4696 34.0099C61.6296 32.8199 62.8096 31.6399 63.9996 30.4799C64.6696 29.8199 65.2996 29.8199 65.9796 30.4799C67.1696 31.6399 68.3496 32.8199 69.5096 34.0099C69.7496 34.2599 69.8796 34.6099 70.0996 34.9699ZM64.9496 36.8699C65.5896 36.2199 66.2196 35.5899 66.8296 34.9799C66.2296 34.3599 65.6196 33.7399 65.0296 33.1299C64.3796 33.7799 63.7496 34.4099 63.1396 35.0199C63.7496 35.6399 64.3596 36.2699 64.9496 36.8699Z" fill="#FF6C1A"/>
<path id="Vector_5" d="M12.6201 14.9899C12.4001 15.3599 12.2701 15.7399 12.0101 15.9999C10.8501 17.1999 9.68015 18.3699 8.49015 19.5299C7.82015 20.1799 7.19015 20.1699 6.51015 19.5099C5.32015 18.3499 4.14015 17.1699 2.98015 15.9799C2.33015 15.3099 2.33015 14.6799 3.00015 13.9999C4.16015 12.8099 5.34015 11.6299 6.53015 10.4699C7.20015 9.81989 7.83015 9.81989 8.51015 10.4899C9.70015 11.6499 10.8801 12.8299 12.0301 14.0199C12.2701 14.2699 12.4001 14.6199 12.6201 14.9799V14.9899ZM7.61015 13.1899C6.91015 13.8299 6.26015 14.4199 5.75015 14.8899C6.38015 15.5599 6.99015 16.2099 7.50015 16.7499C8.12015 16.1799 8.77015 15.5999 9.37015 15.0499C8.74015 14.3899 8.14015 13.7599 7.61015 13.1899Z" fill="#FF6C1A"/>
<path id="Vector_6" d="M69.9899 17.6199C69.6099 17.3899 69.2399 17.2399 68.9799 16.9899C67.7999 15.8499 66.6499 14.6899 65.4999 13.5199C64.8099 12.8099 64.8099 12.1899 65.4999 11.4799C66.6499 10.3099 67.8099 9.14992 68.9699 7.99992C69.6799 7.30992 70.2999 7.30992 71.0099 7.99992C72.1799 9.14992 73.3399 10.2999 74.4799 11.4799C75.1699 12.1899 75.1699 12.8099 74.4799 13.5199C73.3299 14.6899 72.1799 15.8499 70.9999 16.9899C70.7399 17.2499 70.3599 17.3899 69.9799 17.6199H69.9899ZM71.8099 12.6099C71.1499 11.9399 70.5199 11.2999 69.9799 10.7399C69.3799 11.2999 68.7499 11.8999 68.1899 12.4299C68.8199 13.0699 69.4499 13.6999 70.0899 14.3399C70.6499 13.7699 71.2499 13.1599 71.8099 12.6099Z" fill="#FF6C1A"/>
<path id="Vector_7" d="M37.6197 52.3899C35.2397 52.3799 33.3297 51.5099 31.7897 49.8299C31.1197 49.0999 31.0897 48.3699 31.6597 47.8399C32.2397 47.2999 32.9497 47.4099 33.6298 48.1299C35.8798 50.5099 39.1298 50.4999 41.3998 48.1099C42.0498 47.4199 42.7298 47.3199 43.3098 47.8099C43.9098 48.3199 43.8998 49.0799 43.2398 49.7999C41.7098 51.4899 39.8097 52.3599 37.6197 52.3899Z" fill="#FF6C1A"/>
<path id="Vector_8" d="M63.19 52.5C65.35 52.5 67.51 52.5 69.67 52.5C70.66 52.5 71.23 52.96 71.23 53.74C71.23 54.52 70.66 54.99 69.68 54.99C65.31 54.99 60.93 54.99 56.56 54.99C55.57 54.99 55 54.52 55 53.75C55 52.97 55.57 52.5 56.55 52.5C58.76 52.5 60.97 52.5 63.19 52.5Z" fill="#FF6C1A"/>
<path id="Vector_9" d="M63.0501 59.9998C60.8901 59.9998 58.7301 59.9998 56.5701 59.9998C55.5801 59.9998 55.0101 59.5398 55.0001 58.7698C54.9901 57.9898 55.5601 57.5098 56.5401 57.5098C60.9101 57.5098 65.2901 57.5098 69.6601 57.5098C70.6501 57.5098 71.2201 57.9598 71.2301 58.7398C71.2401 59.5398 70.6501 59.9998 69.6101 60.0098C67.4201 60.0098 65.2401 60.0098 63.0501 60.0098V59.9998Z" fill="#FF6C1A"/>
<path id="Vector_10" d="M11.85 60C9.69002 60 7.53002 60 5.37002 60C4.34002 60 3.75002 59.51 3.77002 58.71C3.79002 57.94 4.36002 57.5 5.36002 57.5C9.71002 57.5 14.05 57.5 18.4 57.5C19.43 57.5 20.02 57.98 20 58.79C19.98 59.56 19.41 60 18.41 60C16.22 60 14.04 60 11.85 60Z" fill="#FF6C1A"/>
<path id="Vector_11" d="M11.9203 62.5C14.0803 62.5 16.2403 62.5 18.4003 62.5C19.4303 62.5 20.0203 62.99 20.0003 63.79C19.9703 64.56 19.4103 65 18.4003 65C14.0503 65 9.71026 65 5.36026 65C4.33026 65 3.74026 64.51 3.76026 63.71C3.78026 62.94 4.35026 62.5 5.35026 62.5C7.54026 62.5 9.72026 62.5 11.9103 62.5H11.9203Z" fill="#FF6C1A"/>
</g>
<defs>
<clipPath id="clip0_1823_795">
<rect width="75" height="75" fill="white"/>
</clipPath>
</defs>
</svg>
