<svg width="72" height="75" viewBox="0 0 72 75" fill="none" xmlns="http://www.w3.org/2000/svg">
<g id="Layer_1" clip-path="url(#clip0_1817_523)">
<path id="Vector" d="M14.66 75C14.33 74.86 13.99 74.74 13.67 74.58C11.97 73.73 11.18 72.31 11.18 70.44C11.18 65.8 11.17 61.16 11.19 56.53C11.19 55.96 11.03 55.68 10.49 55.45C7.35 54.11 4.24 52.72 1.1 51.38C0.31 51.04 0 50.55 0 49.7C0.03 44.28 0.03 38.86 0 33.44C0 32.61 0.33 32.15 1.07 31.83C4.21 30.49 7.32 29.09 10.46 27.75C10.99 27.53 11.18 27.27 11.18 26.68C11.15 22.02 11.16 17.35 11.17 12.69C11.17 10.46 12.46 8.76002 14.52 8.28002C15.04 8.16002 15.59 8.16002 16.12 8.16002C23.57 8.15002 31.01 8.15003 38.46 8.14003C38.73 8.14003 38.99 8.14003 39.38 8.14003C39.38 7.78003 39.38 7.47003 39.38 7.17003C39.38 6.22003 39.36 5.27003 39.39 4.31003C39.46 1.93003 41.32 0.0200252 43.7 0.0100252C51.63 -0.0199748 59.57 -0.0299748 67.5 0.0100252C69.82 0.0100252 71.74 1.97003 71.76 4.29003C71.8 8.76003 71.8 13.22 71.76 17.69C71.73 20.24 69.74 22.04 67.04 22.06C63.23 22.08 59.42 22.07 55.61 22.08C53.75 22.08 51.9 22.08 50.04 22.08C49.78 22.08 49.51 22.08 49.21 22.08V58.33C49.52 58.33 49.81 58.33 50.09 58.33C54.36 58.33 58.64 58.33 62.91 58.33C63.2 58.33 63.5 58.33 63.78 58.4C64.32 58.54 64.6 58.93 64.58 59.48C64.56 60.02 64.26 60.4 63.71 60.51C63.43 60.57 63.13 60.57 62.84 60.57C58.62 60.57 54.39 60.57 50.17 60.57C49.88 60.57 49.59 60.57 49.18 60.57V61.39C49.18 64.1 49.18 66.81 49.18 69.52C49.18 72.8 48.52 73.79 45.55 74.99H14.66V75ZM39.4 10.4C39.07 10.4 38.83 10.4 38.59 10.4C31.1 10.4 23.6 10.4 16.11 10.4C14.17 10.4 13.44 11.11 13.44 13.03C13.44 17.2 13.44 21.38 13.44 25.55C13.44 25.8 13.46 26.05 13.48 26.38C14.04 26.12 14.53 25.95 14.95 25.68C15.92 25.05 16.82 25.2 17.75 25.75C18.31 26.08 18.57 26.51 18.36 27.14C18.16 27.74 17.58 28.08 16.95 27.81C16.35 27.55 15.89 27.69 15.38 27.97C14.93 28.21 14.47 28.44 13.99 28.62C13.56 28.78 13.43 29.05 13.44 29.5C13.47 31.38 13.57 33.27 13.41 35.13C13.28 36.72 13.66 37.74 15.31 38.07C15.36 38.07 15.4 38.1 15.45 38.12C16.16 38.46 16.44 39.04 16.19 39.65C15.93 40.27 15.33 40.47 14.59 40.19C14.24 40.06 13.89 39.91 13.45 39.74V40.64C13.45 44.59 13.53 48.55 13.41 52.5C13.37 53.92 13.74 54.71 15.12 55.07C15.85 55.26 16.47 55.77 17.32 55.33C17.56 55.21 18.19 55.55 18.45 55.85C18.8 56.25 18.68 56.78 18.29 57.17C17.66 57.81 16.41 58.05 15.59 57.69C14.91 57.4 14.23 57.1 13.52 56.79V65.34H46.98V60.59C46.64 60.59 46.36 60.59 46.07 60.59C42.26 60.59 38.45 60.59 34.65 60.59C33.95 60.59 33.46 60.35 33.06 59.76C31.62 57.64 30.15 55.54 28.69 53.44C28.55 53.24 28.4 53.06 28.26 52.87C27.56 53.18 26.92 53.47 26.27 53.75C25.53 54.06 24.93 53.89 24.64 53.29C24.34 52.66 24.61 52.06 25.36 51.71C25.88 51.47 26.4 51.23 26.96 50.98C26.36 50.12 25.79 49.36 25.28 48.56C24.82 47.84 25.17 46.99 25.94 46.85C26.49 46.75 26.87 46.99 27.18 47.43C27.9 48.49 28.64 49.53 29.37 50.59C29.6 50.26 29.73 49.88 29.99 49.73C30.42 49.49 30.59 49.21 30.65 48.72C30.72 48.15 31.16 47.84 31.75 47.86C32.38 47.88 32.78 48.25 32.8 48.86C32.88 50.92 32.92 50.84 31.21 51.55C30.91 51.67 30.57 51.7 30.2 51.78C31.59 53.78 32.97 55.75 34.32 57.75C34.61 58.18 34.92 58.36 35.45 58.35C39.04 58.33 42.63 58.34 46.22 58.34C46.46 58.34 46.69 58.32 46.95 58.3V22.79C46.57 23.09 46.28 23.29 46.01 23.52C44.5 24.8 42.99 26.07 41.5 27.37C41.05 27.76 40.6 28.07 39.99 27.78C39.4 27.49 39.4 26.95 39.4 26.4C39.4 21.4 39.4 16.39 39.4 11.39C39.4 11.1 39.4 10.81 39.4 10.41V10.4ZM41.46 24.66C42.55 23.74 43.54 22.96 44.46 22.11C46.05 20.64 47.89 20 50.05 20.02C55.69 20.06 61.32 20.03 66.96 20.02C68.81 20.02 69.74 19.08 69.74 17.22C69.74 13.1 69.74 8.97003 69.74 4.85003C69.74 2.99003 68.81 2.06003 66.95 2.07003C59.39 2.07003 51.82 2.07003 44.26 2.07003C42.35 2.07003 41.46 2.97003 41.46 4.90003C41.46 11.19 41.46 17.49 41.46 23.78C41.46 24.01 41.46 24.25 41.46 24.65V24.66ZM13.45 67.6C13.45 68.51 13.45 69.34 13.45 70.16C13.45 72.03 14.2 72.78 16.07 72.78C25.52 72.78 34.96 72.78 44.41 72.78C44.63 72.78 44.85 72.79 45.07 72.76C45.91 72.65 46.67 72.24 46.81 71.42C47.02 70.17 46.99 68.88 47.06 67.6H13.45ZM2.35 34.82C2.32 35.04 2.3 35.14 2.3 35.23C2.3 39.79 2.3 44.35 2.29 48.91C2.29 49.34 2.48 49.5 2.83 49.65C5.42 50.77 8.01 51.91 10.6 53.03C10.76 53.1 10.94 53.14 11.13 53.2C11.16 53.06 11.19 52.99 11.19 52.92C11.19 48.34 11.2 43.75 11.17 39.17C11.17 38.94 10.92 38.6 10.7 38.5C9.51 37.93 8.3 37.42 7.1 36.89C5.54 36.21 3.99 35.52 2.35 34.81V34.82ZM11.17 29.89C8.75 30.95 6.4 31.97 3.92 33.05C6.4 34.14 8.75 35.16 11.17 36.22V29.89Z" fill="#FF6C1A"/>
<path id="Vector_2" d="M56.3402 56.68C55.3402 56.68 54.3402 56.69 53.3402 56.68C52.5702 56.67 52.0702 56.21 52.0802 55.55C52.0802 54.91 52.5502 54.47 53.3002 54.47C55.3502 54.45 57.4002 54.45 59.4502 54.47C60.2002 54.47 60.6602 54.91 60.6702 55.55C60.6802 56.22 60.2102 56.67 59.4202 56.68C58.4002 56.7 57.3702 56.68 56.3502 56.68H56.3402Z" fill="#FF6C1A"/>
<path id="Vector_3" d="M56.3804 46.83C57.3804 46.83 58.3804 46.82 59.3804 46.83C60.1904 46.84 60.6504 47.26 60.6604 47.92C60.6604 48.58 60.1904 49.04 59.4004 49.04C57.3804 49.06 55.3504 49.06 53.3304 49.04C52.5604 49.04 52.0704 48.55 52.0904 47.89C52.1104 47.25 52.5604 46.83 53.3204 46.82C54.3404 46.8 55.3704 46.82 56.3904 46.82L56.3804 46.83Z" fill="#FF6C1A"/>
<path id="Vector_4" d="M60.2296 52.86C59.2496 52.86 58.2796 52.86 57.2996 52.86C56.4296 52.86 55.9596 52.46 55.9396 51.76C55.9296 51.05 56.3796 50.64 57.2496 50.64C59.2196 50.63 61.1996 50.63 63.1696 50.64C64.0396 50.64 64.4996 51.05 64.4896 51.75C64.4896 52.44 63.9996 52.85 63.1396 52.86C62.1696 52.87 61.1896 52.86 60.2096 52.86H60.2296Z" fill="#FF6C1A"/>
<path id="Vector_5" d="M53.6698 52.89C53.4098 52.86 53.1298 52.88 52.8798 52.8C52.3198 52.63 52.0398 52.22 52.0998 51.64C52.1498 51.1 52.4698 50.74 53.0298 50.68C53.3898 50.64 53.7598 50.64 54.1198 50.66C54.8298 50.69 55.2498 51.1 55.2598 51.73C55.2698 52.38 54.8298 52.83 54.1098 52.87C53.9598 52.87 53.8198 52.87 53.6698 52.87V52.89Z" fill="#FF6C1A"/>
<path id="Vector_6" d="M62.9498 46.8C63.1798 46.82 63.4798 46.75 63.6498 46.87C63.9698 47.08 64.3798 47.38 64.4298 47.69C64.4798 48.04 64.2298 48.74 64.0198 48.78C63.2998 48.91 62.5198 48.9 61.7998 48.76C61.5898 48.72 61.3598 48.01 61.4198 47.66C61.4798 47.35 61.8998 47.07 62.2298 46.87C62.4098 46.76 62.6998 46.82 62.9598 46.8H62.9498Z" fill="#FF6C1A"/>
<path id="Vector_7" d="M63.1199 54.46C63.1799 54.46 63.3999 54.46 63.6199 54.49C64.1999 54.6 64.4999 54.98 64.5099 55.56C64.5299 56.36 63.9499 56.7 62.6799 56.68C61.7999 56.66 61.3099 56.22 61.3499 55.49C61.3899 54.75 61.8599 54.45 63.1199 54.45V54.46Z" fill="#FF6C1A"/>
<path id="Vector_8" d="M29.9496 14.55C28.8496 14.55 27.7596 14.56 26.6596 14.55C25.8796 14.54 25.3896 14.09 25.3896 13.44C25.3896 12.8 25.8996 12.33 26.6696 12.33C28.8596 12.32 31.0497 12.32 33.2397 12.33C34.0097 12.33 34.5096 12.8 34.4996 13.45C34.4996 14.11 34.0197 14.53 33.2197 14.54C32.1297 14.56 31.0296 14.54 29.9296 14.54L29.9496 14.55Z" fill="#FF6C1A"/>
<path id="Vector_9" d="M32.8202 33.46C32.8202 33.77 32.8402 33.99 32.8202 34.21C32.7302 35.14 31.8102 35.61 31.0702 35.05C30.7302 34.8 30.5102 34.83 30.1702 34.97C29.4402 35.28 28.8402 35.09 28.5502 34.5C28.2602 33.9 28.4802 33.41 29.1802 32.94C29.3402 32.83 29.4702 32.6 29.5202 32.4C29.7102 31.6 30.3202 31.24 31.1102 31.51C31.2902 31.57 31.4602 31.68 31.6402 31.74C32.5402 32.02 32.9802 32.58 32.8102 33.46H32.8202Z" fill="#FF6C1A"/>
<path id="Vector_10" d="M20.7804 36.59C21.1204 36.95 21.6004 37.23 21.6904 37.61C21.7804 37.96 21.5704 38.61 21.2804 38.78C20.5004 39.26 19.6204 39.6 18.7604 39.91C18.2504 40.09 17.7204 39.84 17.5804 39.33C17.4704 38.95 17.5304 38.25 17.7704 38.1C18.6604 37.53 19.6604 37.13 20.7904 36.59H20.7804Z" fill="#FF6C1A"/>
<path id="Vector_11" d="M27.2805 35.75C27.1405 35.91 26.9305 36.32 26.5905 36.51C25.9405 36.88 25.2305 37.16 24.5305 37.44C23.8605 37.7 23.2405 37.45 23.0005 36.87C22.7505 36.27 23.0005 35.7 23.6605 35.38C24.3205 35.07 24.9805 34.77 25.6605 34.5C26.5005 34.18 27.2605 34.67 27.2705 35.75H27.2805Z" fill="#FF6C1A"/>
<path id="Vector_12" d="M32.8204 38.7C32.8204 39.09 32.8404 39.48 32.8204 39.86C32.7804 40.52 32.3004 40.96 31.6904 40.95C31.1004 40.94 30.6404 40.52 30.6104 39.89C30.5804 39.11 30.5804 38.34 30.6104 37.56C30.6404 36.94 31.1204 36.51 31.6904 36.5C32.2904 36.5 32.7704 36.95 32.8104 37.6C32.8304 37.96 32.8104 38.33 32.8104 38.69L32.8204 38.7Z" fill="#FF6C1A"/>
<path id="Vector_13" d="M28.6295 30.95C28.6595 31.91 27.9895 32.49 27.2695 32.25C26.4595 31.99 25.6695 31.64 24.9295 31.24C24.3795 30.95 24.2995 30.38 24.5595 29.83C24.8095 29.31 25.2795 29.07 25.8395 29.27C26.6195 29.55 27.3895 29.87 28.1095 30.26C28.3895 30.41 28.5395 30.8 28.6395 30.94L28.6295 30.95Z" fill="#FF6C1A"/>
<path id="Vector_14" d="M19.3096 28.29C19.3496 27.35 19.9996 26.82 20.6796 27.05C21.4596 27.32 22.2296 27.65 22.9596 28.03C23.4996 28.31 23.6596 28.84 23.4196 29.41C23.1896 29.96 22.7096 30.22 22.1696 30.03C21.3396 29.75 20.5296 29.4 19.7696 28.98C19.4996 28.84 19.3896 28.41 19.3096 28.28V28.29Z" fill="#FF6C1A"/>
<path id="Vector_15" d="M32.8198 44.37C32.8198 44.76 32.8398 45.15 32.8198 45.54C32.7698 46.17 32.3198 46.59 31.7298 46.59C31.1298 46.59 30.6498 46.19 30.6198 45.57C30.5798 44.77 30.5798 43.96 30.6198 43.16C30.6598 42.54 31.0698 42.2 31.6898 42.19C32.3198 42.18 32.7098 42.53 32.7998 43.14C32.8598 43.55 32.8098 43.97 32.8098 44.38L32.8198 44.37Z" fill="#FF6C1A"/>
<path id="Vector_16" d="M23.6401 54.38C23.5001 54.55 23.3001 54.96 22.9701 55.16C22.3701 55.52 21.7001 55.78 21.0501 56.04C20.4101 56.29 19.8301 56.05 19.5701 55.48C19.3101 54.92 19.5201 54.32 20.1401 54.01C20.7901 53.69 21.4601 53.38 22.1401 53.13C22.9001 52.85 23.6101 53.35 23.6401 54.38Z" fill="#FF6C1A"/>
<path id="Vector_17" d="M62.7101 12.56C63.3601 13.6 64.0201 14.62 64.6501 15.66C65.0201 16.27 64.8801 16.87 64.3501 17.18C63.8501 17.47 63.3101 17.3 62.9101 16.73C62.8301 16.61 62.7601 16.48 62.6801 16.36C62.1201 15.47 61.5601 14.59 61.0001 13.7C60.6334 13.1133 60.0534 12.88 59.2601 13C59.2601 13.87 59.2601 14.77 59.2601 15.66C59.2601 15.95 59.2601 16.25 59.2101 16.53C59.1001 17.05 58.7201 17.4 58.2201 17.27C57.8601 17.18 57.5401 16.83 57.2801 16.53C57.1501 16.38 57.2101 16.06 57.2101 15.82C57.2101 12.63 57.2101 9.42998 57.2101 6.23998C57.2101 5.01998 57.5001 4.72998 58.7201 4.72998C59.4001 4.72998 60.0901 4.72998 60.7701 4.72998C62.7101 4.72998 64.1701 5.73998 64.6801 7.41998C65.2701 9.34998 64.6401 11.26 63.0501 12.33C62.9501 12.4 62.8501 12.46 62.7001 12.56H62.7101ZM59.2701 10.83C60.0101 10.83 60.6801 10.95 61.2701 10.79C61.7601 10.66 62.3301 10.31 62.5801 9.88998C63.4601 8.38998 62.4901 6.78998 60.7701 6.76998C60.4301 6.76998 60.0701 6.71998 59.7501 6.78998C59.5701 6.82998 59.3101 7.07998 59.3001 7.24998C59.2601 8.41998 59.2801 9.57998 59.2801 10.83H59.2701Z" fill="#FF6C1A"/>
<path id="Vector_18" d="M56.0997 16.33C55.7897 16.61 55.5197 17 55.1497 17.15C54.6697 17.36 54.2297 17.09 54.0297 16.61C53.6897 15.81 53.3597 14.99 53.0697 14.17C52.9397 13.8 52.7497 13.64 52.3297 13.65C51.3597 13.68 50.3797 13.63 49.4097 13.68C49.1697 13.69 48.8397 13.92 48.7397 14.14C48.3897 14.89 48.1297 15.68 47.8097 16.44C47.5297 17.11 47.0697 17.35 46.4997 17.15C45.9197 16.95 45.6497 16.38 45.9097 15.71C47.2297 12.28 48.5497 8.85002 49.9297 5.45002C50.0597 5.13002 50.5597 4.79002 50.9097 4.77002C51.2197 4.75002 51.7097 5.11002 51.8397 5.42002C53.2197 8.88002 54.5497 12.35 55.8897 15.83C55.9297 15.94 55.9497 16.06 55.9797 16.18C56.0197 16.23 56.0697 16.29 56.1097 16.34L56.0997 16.33ZM50.8797 8.55002C50.4597 9.65002 50.0997 10.58 49.7197 11.56H52.0397C51.6597 10.58 51.3097 9.66002 50.8797 8.55002Z" fill="#FF6C1A"/>
<path id="Vector_19" d="M30.0402 69.08C31.1102 69.08 32.1802 69.07 33.2502 69.08C34.0402 69.09 34.5302 69.53 34.5302 70.17C34.5302 70.82 34.0302 71.28 33.2602 71.29C31.0702 71.3 28.8802 71.3 26.6902 71.29C25.9102 71.29 25.4202 70.84 25.4102 70.18C25.4102 69.52 25.8802 69.09 26.6702 69.07C27.7902 69.05 28.9102 69.07 30.0302 69.07L30.0402 69.08Z" fill="#FF6C1A"/>
</g>
<defs>
<clipPath id="clip0_1817_523">
<rect width="71.8" height="75" fill="white"/>
</clipPath>
</defs>
</svg>
