<svg width="74" height="75" viewBox="0 0 74 75" fill="none" xmlns="http://www.w3.org/2000/svg">
<g id="Layer_1" clip-path="url(#clip0_1823_807)">
<path id="Vector" d="M57.09 0C57.51 0.12 57.93 0.22 58.34 0.37C61.22 1.4 62.9 4.31 62.42 7.45H60.01C60.01 7.17 60.01 6.88 60.01 6.6C60 4.04 58.46 2.49 55.91 2.49C41.46 2.49 27.02 2.49 12.57 2.49C10.54 2.49 8.52 2.49 6.49 2.49C4.12 2.49 2.51 4.06 2.51 6.42C2.5 19.65 2.5 32.87 2.51 46.1C2.51 47.97 3.48 49.21 5.31 49.9C5.12 50.67 4.92 51.43 4.73 52.19C2.59 51.94 0.49 49.71 0.13 47.34C0.05 46.79 0.01 46.22 0.01 45.66C0 32.74 0 19.81 0 6.87C0 3.18 1.69 1.01 5.27 0.08C5.31 0.07 5.35 0.03 5.39 0C22.62 0 39.86 0 57.09 0Z" fill="#FF6C1A"/>
<path id="Vector_2" d="M12.5596 53.75V51.26H28.9696C28.9696 49.49 28.8996 47.79 28.9996 46.09C29.0496 45.18 29.4196 44.29 29.5996 43.39C29.7696 42.57 29.9796 41.73 29.9896 40.9C30.0296 37.14 30.0096 33.38 30.0096 29.62C30.0096 29.36 30.0096 29.09 30.0096 28.78H32.4696V37.7C33.2896 36.94 34.0996 36.22 34.8696 35.45C35.0096 35.31 34.9996 35 34.9996 34.77C34.9996 32.23 34.9996 29.69 34.9996 27.16C34.9996 26.89 34.9996 26.63 34.9996 26.3H37.4696V33.57C38.3296 33.18 39.0996 32.85 39.8396 32.46C39.9696 32.39 39.9996 32.03 39.9996 31.8C40.0096 30.41 39.9996 29.02 39.9996 27.57H42.4896V31.62C43.3396 31.5 44.1096 31.39 44.9696 31.27V22.56H47.5196V31.26C48.3696 31.38 49.1396 31.49 50.0096 31.62V20.04H52.5196V20.92C52.5196 24.53 52.5196 28.14 52.5096 31.76C52.5096 32.25 52.6396 32.5 53.1096 32.67C53.7196 32.89 54.2996 33.22 54.9796 33.54V25.07H57.5196C57.5196 25.33 57.5196 25.58 57.5196 25.84C57.5196 28.72 57.5296 31.6 57.5096 34.48C57.5096 35.08 57.5996 35.54 58.1296 35.92C58.8196 36.42 59.4496 37 59.9796 37.44V30.06H62.5096V30.83C62.5096 34.44 62.5096 38.05 62.5096 41.67C62.5096 42 62.5396 42.36 62.6596 42.67C63.6596 45.35 63.9496 48.11 63.5896 50.95C63.5896 51.02 63.5896 51.09 63.5996 51.22H64.9496V53.72H63.1196C62.6196 54.85 62.1196 55.9 61.6896 56.98C61.6196 57.15 61.8096 57.51 61.9796 57.69C64.8496 60.58 67.7396 63.46 70.6196 66.34C71.4796 67.2 72.3496 68.06 73.2096 68.93C73.9296 69.66 73.9396 70.3 73.2296 71.03C72.0996 72.18 70.9596 73.32 69.8096 74.45C69.0396 75.2 68.4396 75.19 67.6696 74.42C64.0596 70.82 60.4496 67.21 56.8396 63.6C56.6696 63.43 56.4896 63.27 56.2896 63.07C54.5396 64.25 52.6796 65.13 50.6596 65.66C41.8796 67.99 32.6396 63.06 29.7396 54.45C29.5496 53.88 29.2996 53.73 28.7296 53.73C23.6296 53.75 18.5296 53.74 13.4296 53.74H12.5596V53.75ZM46.2396 33.74C37.9596 33.75 31.2596 40.47 31.2696 48.75C31.2796 57.04 37.9796 63.73 46.2696 63.73C54.5596 63.73 61.2496 57.02 61.2396 48.73C61.2296 40.44 54.5096 33.72 46.2396 33.74ZM58.3496 61.38C61.8496 64.89 65.3296 68.36 68.7796 71.81C69.3796 71.23 70.0196 70.61 70.5696 70.07C67.0496 66.54 63.5396 63.03 60.0296 59.52C59.4896 60.11 58.9096 60.76 58.3496 61.37V61.38Z" fill="#FF6C1A"/>
<path id="Vector_3" d="M29.9695 60V62.5C29.7195 62.5 29.4895 62.5 29.2495 62.5C24.1695 62.5 19.0995 62.51 14.0195 62.5C10.8295 62.49 8.33953 60.56 7.67953 57.59C7.54953 57 7.51953 56.38 7.51953 55.77C7.51953 42.76 7.51953 29.75 7.51953 16.74C7.51953 12.59 10.1395 9.97998 14.2995 9.97998C30.6295 9.97998 46.9595 9.97998 63.2795 9.97998C67.3895 9.97998 69.9995 12.6 69.9995 16.71C69.9995 29.77 69.9995 42.83 69.9995 55.88C69.9995 57.56 69.5695 59.04 68.4295 60.36C67.7995 59.81 67.1995 59.28 66.5695 58.72C67.3995 57.75 67.5095 56.64 67.5095 55.47C67.4995 42.58 67.5095 29.7 67.5095 16.81C67.5095 13.95 66.0495 12.49 63.1795 12.49C46.8995 12.49 30.6195 12.49 14.3395 12.49C13.7795 12.49 13.2095 12.53 12.6795 12.67C11.0295 13.13 10.0295 14.56 10.0295 16.44C10.0295 29.64 10.0195 42.85 10.0295 56.05C10.0295 58.47 11.6095 59.98 14.0695 59.99C19.0695 60 24.0795 59.99 29.0795 59.99C29.3695 59.99 29.6495 59.99 29.9695 59.99V60Z" fill="#FF6C1A"/>
<path id="Vector_4" d="M20.0801 33.7798H22.4801V48.6998H20.0801V33.7798Z" fill="#FF6C1A"/>
<path id="Vector_5" d="M27.4703 37.54V48.71H25.0703V37.54H27.4703Z" fill="#FF6C1A"/>
<path id="Vector_6" d="M15.0596 41.2998H17.4596V48.6998H15.0596V41.2998Z" fill="#FF6C1A"/>
<path id="Vector_7" d="M7.4798 5.02979V7.42978H5.0498V5.02979H7.4798Z" fill="#FF6C1A"/>
<path id="Vector_8" d="M12.4696 7.4498H10.0596V5.0498H12.4696V7.4498Z" fill="#FF6C1A"/>
<path id="Vector_9" d="M15.0596 7.45004V5.04004H17.4696V7.45004H15.0596Z" fill="#FF6C1A"/>
<path id="Vector_10" d="M22.5703 15.0298H24.9603V17.4498H22.5703V15.0298Z" fill="#FF6C1A"/>
<path id="Vector_11" d="M15.0196 15.0498C15.0196 15.7598 15.0396 16.4298 14.9996 17.0998C14.9996 17.2398 14.7596 17.4698 14.6196 17.4798C13.9496 17.5198 13.2796 17.4998 12.5596 17.4998V15.0598H15.0096L15.0196 15.0498Z" fill="#FF6C1A"/>
<path id="Vector_12" d="M19.9801 15.0298V17.4498H17.5801V15.0298H19.9801Z" fill="#FF6C1A"/>
<path id="Vector_13" d="M58.7403 48.7601C58.7403 55.6901 53.1403 61.2501 46.2103 61.2301C39.3203 61.2101 33.7703 55.6301 33.7803 48.7301C33.7803 41.8301 39.3303 36.2701 46.2403 36.2501C53.1303 36.2201 58.7503 41.8501 58.7503 48.7701L58.7403 48.7601ZM36.6303 51.2101H55.8803C57.0303 47.5501 55.3303 42.9201 52.4803 41.0901V48.7001H50.0103C50.0103 48.3901 50.0103 48.1201 50.0103 47.8501C50.0103 45.7301 50.0103 43.6001 50.0103 41.4801C50.0103 39.9535 49.247 39.0835 47.7203 38.8701C47.7203 38.8701 47.6303 38.9001 47.5003 38.9401V48.7101H44.9803V38.7801C44.2803 38.9601 43.7203 39.1101 43.1503 39.2301C42.6303 39.3401 42.4803 39.6201 42.4803 40.1501C42.5103 42.7401 42.4903 45.3201 42.4903 47.9101C42.4903 48.1701 42.4603 48.4201 42.4503 48.6901H39.9603V41.0401C37.0003 43.1701 35.4803 47.8701 36.6303 51.1901V51.2101ZM37.7403 53.7801C38.8603 56.5501 42.7903 58.7701 46.4403 58.7301C49.8803 58.6901 53.7803 56.3801 54.7603 53.7801H37.7403Z" fill="#FF6C1A"/>
</g>
<defs>
<clipPath id="clip0_1823_807">
<rect width="73.76" height="75" fill="white"/>
</clipPath>
</defs>
</svg>
