<svg width="75" height="75" viewBox="0 0 75 75" fill="none" xmlns="http://www.w3.org/2000/svg">
<g id="Layer_1" clip-path="url(#clip0_1823_786)">
<path id="Vector" d="M37.5197 74.99C36.7497 74.99 36.0097 74.81 35.3097 74.46C34.0097 73.8 33.1597 72.72 32.7197 71.16L32.6997 71.09L30.2397 70.92C26.6997 70.67 23.1697 70.42 19.6397 70.19C19.2997 70.19 18.9397 70.44 18.7397 70.68C17.7997 71.84 16.4197 72.5 14.9397 72.5C13.8397 72.5 12.7997 72.14 11.9297 71.45C10.9097 70.65 10.2597 69.5 10.0897 68.22C9.9297 66.94 10.2797 65.68 11.0697 64.66C11.3397 64.32 11.4597 64.01 11.2497 63.51C9.5597 59.61 7.8797 55.7 6.2297 51.79C6.0397 51.33 5.7997 51.16 5.3597 51.16H5.2097C5.0897 51.17 4.9797 51.18 4.8597 51.18C2.6197 51.18 0.679697 49.66 0.149697 47.48C-0.440303 45.09 0.759697 42.7 2.9397 41.92C4.1897 41.48 4.4697 40.75 4.5097 39.74C4.5097 39.52 4.5497 39.31 4.5797 39.09L5.0797 35.45C5.7897 30.22 6.4997 24.99 7.2297 19.75C7.2997 19.23 7.1197 18.96 6.7797 18.68C4.8697 17.07 4.4897 14.22 5.9197 12.19C6.8397 10.87 8.3397 10.09 9.9397 10.09C10.7997 10.09 11.6597 10.32 12.4297 10.76C12.6197 10.87 12.8797 10.93 13.1197 10.93C13.2397 10.93 13.3497 10.91 13.4497 10.88C19.2297 8.87002 25.0697 6.81002 30.7997 4.76002C31.0297 4.68002 31.2297 4.45002 31.4597 4.04002C31.6197 3.75002 31.7597 3.44002 31.8997 3.14002C32.1197 2.66002 32.3497 2.16002 32.6497 1.73002C33.3597 0.71002 34.5697 0.34002 35.6297 0.0200195H36.9197C37.9697 0.30002 39.1897 0.74002 40.0697 1.85002C40.9897 3.02002 41.3297 4.34002 41.0897 5.90002V5.98002L41.9197 6.37002L45.9997 8.24002C52.1197 11.05 58.2497 13.85 64.3697 16.67C64.6597 16.8 64.8997 16.86 65.1397 16.86C65.3597 16.86 65.5797 16.81 65.8297 16.71C66.3997 16.47 67.0097 16.35 67.6397 16.35C69.2597 16.35 70.7897 17.17 71.6597 18.49C72.9997 20.54 72.7197 23.21 71.0097 24.72C70.3797 25.27 70.2997 25.8 70.3697 26.52C70.5897 28.64 70.8597 31.29 71.0297 33.82C71.0897 34.75 71.3097 35.33 72.2597 35.7C73.6197 36.23 74.4997 37.38 75.0197 39.32V40.76C74.9697 40.81 74.9297 40.87 74.9197 40.93C74.4797 42.87 73.3397 44.13 71.4197 44.77C71.1497 44.86 70.9197 45.22 70.8297 45.52C70.1897 47.69 69.5697 49.87 68.9497 52.04L66.8997 59.25L67.4697 59.58C69.3197 60.6 70.2797 62.6 69.9297 64.66C69.5797 66.72 67.9797 68.33 65.9597 68.69C65.6897 68.74 65.4097 68.76 65.1297 68.76C63.3197 68.76 61.6797 67.77 60.8397 66.17C60.6697 65.84 60.4697 65.7 60.1997 65.7C60.0897 65.7 59.9797 65.72 59.7997 65.76C54.2997 67.22 48.7897 68.67 43.2797 70.1C42.6597 70.26 42.3997 70.54 42.2697 71.16C41.8197 73.39 39.8297 75 37.5397 75L37.5197 74.99ZM37.5197 67.51C36.8097 67.51 36.1497 67.78 35.6497 68.28C35.1597 68.77 34.8897 69.42 34.8897 70.11C34.8897 71.5 36.0697 72.7 37.4697 72.72C38.1997 72.72 38.8497 72.45 39.3397 71.95C39.8297 71.45 40.0997 70.8 40.0997 70.1C40.0997 68.66 38.9697 67.52 37.5397 67.51H37.5097H37.5197ZM14.8997 65.01C13.4697 65.03 12.3497 66.18 12.3597 67.61C12.3597 69.03 13.5197 70.2 14.9297 70.22C15.6297 70.22 16.2997 69.94 16.7897 69.44C17.2897 68.94 17.5697 68.27 17.5597 67.59C17.5597 66.17 16.3797 65.01 14.9397 65.01H14.8997ZM25.9197 62.89C25.8297 62.89 25.7097 62.9 25.5997 62.95C23.9197 63.76 22.1497 64.65 20.0197 65.74C19.8397 65.83 19.6397 66.11 19.6597 66.31C19.6897 66.65 19.7597 67 19.8297 67.35L19.9297 67.87L24.6597 68.22C27.1597 68.4 29.6597 68.58 32.1597 68.74C32.4397 68.74 32.7397 68.55 32.8997 68.37L32.9297 68.33V68.19C32.9297 68.04 32.8097 67.76 32.6597 67.64C30.5897 66.08 28.4997 64.53 26.3997 63.01C26.2797 62.93 26.0897 62.87 25.8997 62.87L25.9197 62.89ZM50.5297 52.14C50.4497 52.26 50.3697 52.36 50.3097 52.47L48.3097 55.69C46.0897 59.27 43.8697 62.84 41.6197 66.41C41.2797 66.96 41.4597 67.28 41.6997 67.69C41.8297 67.91 41.9897 68.02 42.1897 68.02C42.3097 68.02 42.4297 67.98 42.5497 67.94C42.5997 67.92 42.6497 67.91 42.6997 67.89L47.4797 66.63C51.1797 65.66 54.8697 64.68 58.5697 63.74C59.6197 63.47 60.4297 63.17 60.6297 61.94C60.7097 61.49 60.7597 61.19 60.3897 60.85C58.1797 58.8 55.9897 56.74 53.7897 54.68L51.3297 52.38C51.2197 52.28 51.1097 52.19 50.9897 52.08L50.7197 51.86L50.5197 52.14H50.5297ZM65.0797 61.23C63.6697 61.23 62.4997 62.38 62.4897 63.81C62.4897 64.53 62.7497 65.19 63.2297 65.68C63.7097 66.17 64.3697 66.44 65.0797 66.44C66.4997 66.44 67.6697 65.29 67.6997 63.88C67.7097 63.2 67.4397 62.53 66.9397 62.02C66.4397 61.51 65.7697 61.22 65.0897 61.22L65.0797 61.23ZM28.5297 61.47L28.5597 61.56C28.5997 61.71 28.6197 61.76 28.6597 61.8L29.3097 62.28C30.9597 63.51 32.6097 64.74 34.2697 65.95C34.3297 66 34.4197 66.02 34.5297 66.02C34.6897 66.02 34.8797 65.97 35.0097 65.9C35.8097 65.45 36.6297 65.22 37.4497 65.22C37.8997 65.22 38.3597 65.29 38.8197 65.43C38.9497 65.47 39.0597 65.49 39.1597 65.49C39.4597 65.49 39.6197 65.32 39.7997 65.03C41.5097 62.27 43.2197 59.51 44.9297 56.76L47.4997 52.63C47.5497 52.54 47.5897 52.45 47.6397 52.32L47.8397 51.83L28.5197 61.49L28.5297 61.47ZM17.6497 63.42L17.7597 63.78H17.8397C17.9297 63.78 18.0297 63.79 18.1297 63.8C18.2397 63.81 18.3397 63.82 18.4397 63.82C18.5897 63.82 18.6997 63.8 18.7997 63.75C20.0197 63.17 21.2197 62.56 22.4597 61.94L23.9297 61.2L20.9597 58.99L17.6397 63.42H17.6497ZM8.1897 50.01C8.1897 50.09 8.1997 50.18 8.1997 50.26C8.1997 50.45 8.2097 50.65 8.2897 50.82C9.8997 54.62 11.5197 58.4 13.1497 62.19C13.2197 62.35 13.2997 62.51 13.3697 62.65L13.4897 62.88L13.9697 62.83C14.2797 62.8 14.5797 62.77 14.8597 62.72C15.0797 62.68 15.3597 62.61 15.4797 62.45C16.4297 61.22 17.3597 59.97 18.2997 58.71L19.0897 57.66L18.7897 57.42C18.6497 57.31 18.5297 57.21 18.3997 57.12L17.3097 56.31C14.5697 54.28 11.8297 52.26 9.0897 50.24C8.9297 50.13 8.7497 50.06 8.5697 50C8.4897 49.97 8.4097 49.95 8.3297 49.91L8.1797 50.02L8.1897 50.01ZM22.3397 57.16L23.3597 57.91C24.1397 58.48 24.8997 59.04 25.6397 59.62C25.8897 59.81 26.0997 59.9 26.3297 59.9C26.5097 59.9 26.6997 59.84 26.9297 59.73C31.3097 57.52 35.6997 55.33 40.0897 53.14L47.9397 49.22L45.5697 47L45.4997 47.06C43.1297 48.95 40.5997 49.9 37.7597 49.96H37.4997C34.7197 49.96 32.2197 49.1 29.8497 47.33L29.7597 47.27L22.3297 57.17L22.3397 57.16ZM65.7697 42.95C65.6797 42.95 65.5997 42.97 65.5397 43C61.5797 44.96 57.6197 46.94 53.5497 48.97L51.8597 49.82L52.2197 50.11C52.3397 50.21 52.4297 50.28 52.5197 50.36L54.7097 52.41C56.9297 54.48 59.1497 56.56 61.3397 58.65C61.8297 59.12 62.2597 59.53 62.7997 59.53C63.0797 59.53 63.3697 59.42 63.6697 59.2C63.6997 59.18 63.7597 59.16 63.8197 59.16C64.4697 59.15 64.6497 58.69 64.7697 58.27C65.2497 56.53 65.7497 54.79 66.2497 53.05L68.5597 44.95L67.8597 44.38C67.2997 43.92 66.7797 43.5 66.2497 43.1C66.1297 43.01 65.9297 42.95 65.7597 42.95H65.7697ZM25.0897 39.99L24.9697 40.01L21.7697 41.08C17.9297 42.36 14.0897 43.64 10.2397 44.9C9.7797 45.05 9.7097 45.31 9.7397 45.71V45.83C9.7797 46.25 9.8197 46.68 9.7197 47.06C9.5797 47.63 9.7797 47.9 10.1697 48.19C12.4997 49.89 14.8097 51.61 17.1297 53.32L19.4297 55.02L20.4897 55.79L28.0997 45.64L28.0497 45.57C26.6997 43.95 25.8097 42.15 25.3397 40.06L25.3197 39.97H25.0897V39.99ZM4.9197 43.71C4.2097 43.71 3.5397 43.99 3.0397 44.5C2.5497 45 2.2897 45.65 2.2997 46.34C2.3197 47.76 3.4897 48.92 4.9097 48.92C5.6097 48.92 6.2597 48.65 6.7497 48.15C7.2497 47.65 7.5197 46.98 7.5097 46.27C7.4997 44.83 6.3597 43.71 4.9197 43.71ZM49.9797 38.71C49.8797 39.06 49.7897 39.41 49.6997 39.77C49.4997 40.55 49.2997 41.36 48.9997 42.11C48.6897 42.88 48.2897 43.59 47.8597 44.34C47.6697 44.67 47.4797 45.01 47.2997 45.35L47.2597 45.42L50.2397 48.21L55.8997 39.1L49.9997 38.63L49.9797 38.71ZM37.4897 27.41C34.7797 27.41 32.2397 28.46 30.3297 30.37C28.4197 32.28 27.3697 34.82 27.3697 37.53C27.3697 43.09 31.8997 47.62 37.4597 47.64C40.1997 47.64 42.7497 46.59 44.6497 44.68C46.5597 42.77 47.5997 40.23 47.5997 37.51C47.5997 31.95 43.0697 27.42 37.5097 27.4H37.4797L37.4897 27.41ZM58.8997 39.35C58.6697 39.35 58.3697 39.51 58.2497 39.69C57.3097 41.17 56.3797 42.67 55.4497 44.16L54.5997 45.53L54.7097 45.65L54.8897 45.73L56.2797 45.03C59.1297 43.61 61.9797 42.18 64.8197 40.74C64.9597 40.67 65.0297 40.52 65.0897 40.38C65.1197 40.32 65.1397 40.27 65.1697 40.22L65.2297 40.13L65.1297 40.07C65.1297 40.07 65.0397 40.01 64.9997 39.98C64.8897 39.9 64.7697 39.81 64.6297 39.8C62.7297 39.63 60.8297 39.48 58.9297 39.35H58.8997ZM8.2097 43.01L8.6997 42.95C8.7997 42.94 8.8697 42.93 8.9297 42.91L10.0997 42.52C14.9297 40.92 19.7597 39.31 24.5797 37.68C24.8397 37.59 25.0197 37.21 25.0797 36.99C25.2097 36.47 25.3197 35.95 25.4297 35.43C25.6197 34.57 25.8097 33.67 26.0697 32.82C26.2497 32.23 26.5497 31.69 26.8597 31.11C26.9997 30.85 27.1397 30.59 27.2797 30.32L27.3197 30.24L21.4797 25.7L8.1997 43.02L8.2097 43.01ZM70.0897 37.42C68.6797 37.42 67.5197 38.56 67.4897 39.97C67.4797 40.68 67.7397 41.35 68.2197 41.85C68.6997 42.35 69.3597 42.62 70.0597 42.63C70.7797 42.63 71.4397 42.36 71.9397 41.86C72.4297 41.37 72.6997 40.71 72.6897 40.02C72.6897 38.6 71.5197 37.44 70.0997 37.42H70.0797H70.0897ZM12.7397 19.06C12.6797 19.06 12.6197 19.06 12.5697 19.09C11.8397 19.33 11.1197 19.58 10.3497 19.85L9.4797 20.15L6.6697 40.78L6.9497 40.91L19.6997 24.28L18.6497 23.46C16.7897 22.01 14.9697 20.59 13.1397 19.18C13.0497 19.11 12.8997 19.06 12.7497 19.06H12.7397ZM67.3497 26.09C66.8597 26.09 66.4997 26.34 66.1497 26.91C64.7897 29.17 63.3997 31.4 61.9997 33.64L60.4097 36.2C60.3197 36.35 60.2297 36.5 60.1297 36.68L59.8897 37.1L61.3497 37.22C62.7797 37.34 64.1597 37.45 65.5397 37.55C65.7497 37.55 65.9697 37.38 66.0897 37.23C66.6897 36.41 67.4397 35.83 68.3797 35.45C68.5897 35.36 68.7997 35.04 68.7797 34.83C68.5897 32.52 68.3697 30.22 68.1597 27.92L67.9997 26.22L67.9297 26.2C67.6997 26.13 67.5097 26.1 67.3297 26.1L67.3497 26.09ZM48.6997 31.8L50.0297 36.3L51.5197 36.42C53.2597 36.57 55.0397 36.72 56.8197 36.83C57.1297 36.83 57.4797 36.53 57.6097 36.31C59.6597 33.04 61.6997 29.76 63.7397 26.49L64.2897 25.61C64.3597 25.5 64.4097 25.39 64.4497 25.29L64.4797 25.22V25.08L63.4597 24.02L48.7097 31.79L48.6997 31.8ZM38.4597 19.95C38.5897 21.61 38.7097 23.2 38.8697 24.78C38.8897 25.01 39.2997 25.23 39.5197 25.26C42.4797 25.78 44.9397 27.17 46.8497 29.38C47.0797 29.64 47.2697 29.76 47.4897 29.76C47.6397 29.76 47.7997 29.71 48.0097 29.59C52.6897 27.1 57.3897 24.63 62.0897 22.18C62.6897 21.87 62.8397 21.48 62.6097 20.83L62.5897 20.77L38.3597 18.52L38.4697 19.95H38.4597ZM28.1197 17.58C27.9097 17.58 27.6397 17.7 27.5197 17.86C26.3197 19.4 25.1297 20.94 23.9297 22.52L22.8997 23.86L28.9297 28.55L28.9997 28.49C31.0997 26.55 33.5397 25.45 36.4697 25.12H36.5697L36.0397 18.3L34.3497 18.14C32.2697 17.95 30.2097 17.75 28.1597 17.58H28.1197ZM67.5897 18.61C66.1597 18.61 64.9997 19.78 64.9997 21.22C64.9997 22.66 66.1197 23.8 67.5597 23.82C68.2897 23.82 68.9397 23.55 69.4397 23.06C69.9397 22.57 70.2097 21.92 70.2097 21.22C70.2097 19.83 69.0297 18.63 67.6397 18.61H67.5997H67.5897ZM15.0297 16.36C14.4997 16.36 14.4397 16.75 14.3897 17.07V17.13L14.4097 17.27L21.0897 22.46L24.9497 17.41L24.6797 17.31C24.6097 17.28 24.5597 17.26 24.4997 17.25L21.3697 16.96C19.2997 16.77 17.2197 16.57 15.1497 16.37C15.0997 16.37 15.0597 16.37 15.0197 16.37L15.0297 16.36ZM40.1697 8.22002C39.8397 8.22002 39.5697 8.37002 39.2997 8.71002C39.0997 8.96002 38.7397 9.19002 38.3097 9.33002C37.7397 9.52002 37.6597 9.86002 37.7097 10.38C37.8597 12.02 38.0197 13.76 38.1097 15.49C38.1397 16.1 38.4397 16.25 38.9097 16.28C39.9197 16.36 40.9297 16.45 41.9397 16.55L56.0697 17.87L61.8497 18.4L61.8897 18.06L61.1697 17.72L56.6097 15.63C51.4297 13.25 46.2397 10.88 41.0597 8.49002C40.7597 8.35002 40.4597 8.23002 40.1697 8.23002V8.22002ZM9.9297 12.36C8.5397 12.36 7.3997 13.46 7.3397 14.86C7.3097 15.55 7.5497 16.21 8.0297 16.72C8.5097 17.24 9.1697 17.54 9.8797 17.56C11.3397 17.56 12.4797 16.46 12.5397 15.06C12.5697 14.36 12.3197 13.69 11.8397 13.18C11.3597 12.67 10.7097 12.38 9.9997 12.36H9.9297ZM29.3997 15.39L35.7697 15.98L35.8097 15.73C35.8197 15.66 35.8297 15.61 35.8297 15.55C35.7897 15.08 35.7497 14.62 35.7097 14.15C35.6197 13.1 35.5197 12.02 35.4997 10.95C35.4797 9.92002 35.0397 9.46002 34.0397 9.42002H33.9797L29.3997 15.4V15.39ZM14.5197 12.95V13.03C14.5197 13.97 15.0597 14.09 15.6597 14.14C19.1497 14.43 22.5597 14.75 25.8197 15.08C25.9197 15.09 26.0097 15.1 26.0997 15.1C26.5797 15.1 26.8997 14.93 27.2097 14.52C28.9397 12.2 30.3997 10.3 31.8097 8.53002C32.2997 7.91002 32.2697 7.46002 31.6897 6.96002L31.6397 6.92002L14.5197 12.97V12.95ZM36.2497 2.31002C35.5597 2.31002 34.9097 2.58002 34.4197 3.08002C33.9197 3.58002 33.6497 4.25002 33.6597 4.96002C33.6697 6.40002 34.8097 7.52002 36.2497 7.52002C36.9597 7.52002 37.6297 7.24002 38.1297 6.74002C38.6197 6.24002 38.8797 5.59002 38.8697 4.90002C38.8497 3.48002 37.6797 2.32002 36.2697 2.31002H36.2597H36.2497Z" fill="#FF6C1A"/>
<path id="Vector_2" d="M36.4104 44.8599L36.3204 43.6799H34.9004C34.6304 43.6799 34.3504 43.6799 34.0804 43.6799C33.0304 43.6599 32.6104 43.2499 32.6104 42.2199C32.6104 39.0899 32.6104 35.9599 32.6104 32.8199C32.6104 31.7899 33.0204 31.3699 34.0704 31.3399C34.4804 31.3299 34.8804 31.3299 35.2904 31.3199H36.0804L36.2004 31.2699L36.2504 31.2399L36.3503 31.1399L36.4203 30.1499H38.6504L38.7204 31.2299L38.7904 31.2499C40.7204 31.8899 41.8904 32.7899 42.3004 33.9199C42.6504 34.9199 42.4004 36.0899 41.5504 37.3999C42.4004 39.2099 42.5903 40.4599 42.1703 41.4399C41.7403 42.4399 40.6704 43.1699 38.7904 43.7399L38.7204 43.7599L38.6504 44.8499H36.4203L36.4104 44.8599ZM34.9203 41.3299H37.3404C37.8804 41.3399 38.4204 41.3299 38.9504 41.3099C39.6104 41.2799 40.0503 40.8199 40.1003 40.0899C40.1503 39.3399 39.7403 38.7899 39.1003 38.7399C38.5303 38.6999 37.9704 38.6899 37.4004 38.6899C37.0104 38.6899 36.6104 38.6899 36.2204 38.6999C35.8204 38.6999 35.4303 38.7099 35.0303 38.7099H34.9203V41.3199V41.3299ZM34.9403 36.3099H37.3204C37.8604 36.3199 38.4003 36.3099 38.9403 36.2899C39.6303 36.2599 40.1103 35.7199 40.1003 34.9999C40.0803 34.2399 39.6703 33.7499 39.0303 33.7199C38.4803 33.6899 37.9204 33.6799 37.3703 33.6799C36.9804 33.6799 34.9304 33.6999 34.9304 33.6999V36.3099H34.9403Z" fill="#FF6C1A"/>
</g>
<defs>
<clipPath id="clip0_1823_786">
<rect width="75" height="74.99" fill="white"/>
</clipPath>
</defs>
</svg>
