<svg width="75" height="75" viewBox="0 0 75 75" fill="none" xmlns="http://www.w3.org/2000/svg">
<g id="Layer_1" clip-path="url(#clip0_1821_753)">
<path id="Vector" d="M0 45.9899C2.93 39.5899 5.85 33.1899 8.78 26.7899C9.45 25.3299 10.52 24.4799 11.9 24.7799C14.14 25.2599 16.25 26.2299 18.08 27.6099C19.06 28.3499 19.17 29.5799 18.77 30.7699C18.69 31.0199 18.57 31.2599 18.45 31.5799C20.02 32.2899 21.52 33.1499 23.13 33.6299C24.09 33.9199 25.25 33.7499 26.29 33.5799C28.28 33.2499 30.22 32.6199 32.28 32.7599C33.72 32.8599 35.07 33.2299 36.33 33.9099C36.71 34.1199 37 34.1599 37.4 33.9199C40.53 32.0699 43.8 31.9099 47.18 33.1599C48.46 33.6399 49.73 34.1299 51.01 34.5899C52.08 34.9699 53.1 34.8599 54.1 34.2699C55.11 33.6799 56.15 33.1599 57.22 32.5899C57.18 32.4099 57.15 32.2499 57.11 32.0899C56.7 30.5199 57.38 29.0399 58.86 28.4199C60.32 27.8099 61.79 27.2299 63.28 26.6799C64.89 26.0899 66.57 26.8099 67.2 28.4199C69.74 34.8599 72.26 41.2999 74.76 47.7499C75.4 49.4099 74.67 51.0399 73.04 51.7299C71.62 52.3199 70.2 52.8899 68.76 53.4099C67.24 53.9599 65.99 53.4899 64.97 52.1799C63.45 52.8299 61.93 53.4699 60.42 54.1299C60.29 54.1899 60.16 54.4199 60.16 54.5599C60.23 56.8799 59.12 58.3899 56.94 59.2599C57.33 60.8599 57.22 62.3899 56.07 63.6999C54.93 64.9999 53.46 65.3999 51.79 65.1799C51.53 68.5699 49.15 69.8999 46.75 69.7999C46.69 71.8499 45.81 73.4099 43.86 74.2099C41.91 75.0199 40.25 74.1599 38.67 73.1599C35.24 75.8999 32.69 75.5399 30.7 72.0599C28.14 72.8899 26.13 72.1799 24.73 69.7599C23.11 70.5299 21.48 70.5599 19.97 69.4999C18.45 68.4399 17.92 66.9099 18.09 65.0699C17.74 65.0299 17.4 65.0199 17.07 64.9499C14.12 64.3599 12.49 61.2199 13.95 58.5799C14.77 57.0999 15 55.7699 14.54 54.1399C14.21 52.9699 13.84 52.0899 12.58 51.7199C11.75 51.4799 10.98 50.9999 10.16 50.6899C9.95 50.6099 9.59 50.6499 9.42 50.7899C8.31 51.7199 7.13 51.8899 5.81 51.2799C4.73 50.7799 3.66 50.2399 2.55 49.7999C1.32 49.3399 0.42 48.5799 0 47.3099C0 46.8699 0 46.4299 0 45.9899ZM35.52 62.5499C37.07 62.1399 38.41 62.4299 39.73 63.2799C41.92 64.6799 44.18 65.9699 46.44 67.2499C47.15 67.6499 47.92 67.4999 48.57 66.9999C49.23 66.4899 49.46 65.7899 49.34 64.9899C49.22 64.1999 48.7 63.7099 48.03 63.3399C45.86 62.1299 43.69 60.9099 41.53 59.6799C40.71 59.2199 40.47 58.5899 40.84 57.9499C41.2 57.3199 41.87 57.1999 42.68 57.6499C44.26 58.5199 45.83 59.4099 47.41 60.2799C48.82 61.0599 50.22 61.8499 51.63 62.6299C52.43 63.0699 53.23 63.0399 53.97 62.4999C54.67 61.9899 54.9 61.2699 54.77 60.4299C54.64 59.6399 54.11 59.1599 53.44 58.7899C50.85 57.3399 48.25 55.8699 45.67 54.4099C44.84 53.9399 44.6 53.3299 44.96 52.6799C45.32 52.0399 46 51.9099 46.8 52.3599C47.93 52.9899 49.05 53.6299 50.18 54.2699C51.67 55.1099 53.14 55.9699 54.64 56.7799C56.03 57.5299 57.62 56.7399 57.8 55.2299C57.92 54.1899 57.39 53.4799 56.51 52.9699C52.84 50.8899 49.17 48.7999 45.52 46.6999C44.56 46.1499 43.54 46.0199 42.48 46.2099C41.88 46.3199 41.28 46.4699 40.71 46.6699C38.74 47.3799 36.81 48.2099 34.81 48.8299C30.48 50.1799 27.27 49.1799 24.6 45.7699C23.73 44.6599 23.83 44.0899 25.06 43.3799C28.63 41.3199 31.81 38.7599 34.76 35.6699C34.02 35.4899 33.36 35.2699 32.67 35.1599C30.81 34.8699 29.03 35.3799 27.26 35.8199C24.92 36.3999 22.69 36.3599 20.53 35.1299C19.57 34.5799 18.52 34.1899 17.47 33.6999C15.22 38.6299 13 43.4899 10.75 48.3999C12 48.9499 13.15 49.4799 14.32 49.9599C15.39 50.3999 16.07 51.1699 16.42 52.2499C16.55 52.6499 16.67 53.0599 16.81 53.5199C18.24 52.2899 19.79 51.9099 21.5 52.5199C23.21 53.1299 24.1 54.4699 24.43 56.1799C27.08 55.9099 28.8 57.0399 29.69 59.4299C31.95 58.8399 34.37 59.5599 35.51 62.5499H35.52ZM64.09 50.0099C62.09 44.8999 60.12 39.8599 58.13 34.7699C57.04 35.3499 56.05 35.8699 55.07 36.4199C53.68 37.1899 52.21 37.3999 50.69 36.9299C49.48 36.5499 48.3 36.0999 47.12 35.6399C45.32 34.9499 43.51 34.4399 41.56 34.8099C39.03 35.2899 37.04 36.7199 35.26 38.4599C32.88 40.7999 30.31 42.8699 27.48 44.6299C27.33 44.7299 27.19 44.8499 27.04 44.9699C27.13 45.0799 27.17 45.1399 27.22 45.1899C29.14 47.1999 31.47 47.4399 33.96 46.6399C35.81 46.0399 37.61 45.2899 39.44 44.6099C42.05 43.6499 44.59 43.3299 47.15 44.9099C49.86 46.5899 52.7 48.0699 55.46 49.6799C56.66 50.3799 57.79 51.1699 58.97 51.8999C59.12 51.9899 59.39 52.0099 59.55 51.9399C61.03 51.3199 62.5 50.6799 64.09 49.9999V50.0099ZM64.53 28.7999C64.22 28.8699 64.1 28.8799 63.99 28.9199C62.63 29.4499 61.27 29.9699 59.91 30.5099C59.31 30.7499 59.23 31.1799 59.46 31.7599C61.92 38.0399 64.37 44.3199 66.83 50.5899C67.11 51.2999 67.41 51.4199 68.14 51.1499C69.35 50.6899 70.55 50.2199 71.75 49.7499C72.69 49.3799 72.8 49.1399 72.43 48.2099C71.11 44.8299 69.79 41.4599 68.46 38.0799C67.35 35.2499 66.25 32.4099 65.13 29.5799C65 29.2599 64.7 29.0199 64.52 28.7899L64.53 28.7999ZM16.7 29.6399C16.48 29.4299 16.27 29.1099 15.96 28.9599C14.74 28.3599 13.49 27.7999 12.24 27.2499C11.53 26.9299 11.24 27.0399 10.91 27.7499C8.1 33.8899 5.3 40.0299 2.48 46.1599C2.19 46.7899 2.38 47.1799 2.98 47.4399C4.16 47.9699 5.33 48.5099 6.5 49.0499C7.48 49.4899 7.68 49.4199 8.13 48.4399C10.87 42.4599 13.6 36.4699 16.34 30.4899C16.44 30.2699 16.52 30.0399 16.69 29.6299L16.7 29.6399ZM27.5 60.6199C27.42 59.6299 26.82 58.8199 25.93 58.5799C24.93 58.3099 23.97 58.6999 23.45 59.6499C22.54 61.3199 21.65 62.9999 20.76 64.6799C20.1 65.9299 20.43 67.1899 21.54 67.7599C22.63 68.3199 23.82 67.8899 24.48 66.6799C25.36 65.0499 26.24 63.4199 27.09 61.7799C27.28 61.4199 27.36 61.0099 27.49 60.6299L27.5 60.6199ZM28.97 70.0699C29.59 70.0699 30.23 69.7799 30.61 69.1199C31.46 67.6099 32.29 66.0999 33.06 64.5499C33.55 63.5599 33.08 62.3499 32.15 61.8399C31.21 61.3299 29.93 61.6099 29.38 62.5599C28.5 64.0799 27.65 65.6099 26.92 67.1999C26.29 68.5599 27.35 70.0599 28.98 70.0699H28.97ZM19.97 54.6199C19.16 54.6199 18.52 54.9699 18.11 55.6999C17.39 56.9999 16.68 58.2999 16 59.6299C15.48 60.6499 15.87 61.8899 16.82 62.4399C17.82 63.0199 19.08 62.7199 19.68 61.6799C20.45 60.3499 21.18 58.9999 21.85 57.6199C22.54 56.1899 21.52 54.6199 19.97 54.6299V54.6199ZM36.98 64.7199C36.23 64.7199 35.55 65.0099 35.18 65.6499C34.42 66.9799 33.68 68.3299 33.01 69.7099C32.52 70.7199 32.98 71.8899 33.95 72.3999C34.93 72.9199 36.13 72.6499 36.7 71.6699C37.46 70.3699 38.19 69.0399 38.84 67.6799C39.5 66.2799 38.49 64.7299 36.98 64.7199ZM41.55 67.2999C40.94 68.6099 40.36 69.8499 39.77 71.1299C40.32 71.4299 40.83 71.7499 41.39 71.9999C42.44 72.4699 43.64 72.0399 44.13 71.0499C44.65 70.0199 44.31 68.8699 43.3 68.2699C42.72 67.9199 42.11 67.6099 41.55 67.2999Z" fill="#FF6C1A"/>
<path id="Vector_2" d="M38.38 0C38.8 0.12 39.22 0.22 39.63 0.36C44.02 1.88 45.48 7.34 42.44 10.84C42.25 11.06 42.04 11.27 41.79 11.55C43.78 12.38 45.45 13.6 46.75 15.2C47.77 14.45 48.75 13.74 49.77 12.99C48.68 11.73 48.18 10.2 48.5 8.46C48.73 7.24 49.35 6.24 50.29 5.44C52.2 3.84 55.04 3.85 56.96 5.48C59.17 7.35 59.32 9.76 57.42 13.11C59.66 14.21 61.27 15.89 62.16 18.24C63.07 20.66 61.75 22.6 59.16 22.61C56.16 22.62 53.16 22.61 50.16 22.61C49.9 22.61 49.63 22.61 49.25 22.61C49.25 22.96 49.25 23.24 49.25 23.52C49.2 25.87 47.61 27.58 45.26 27.6C40.09 27.65 34.91 27.65 29.74 27.6C27.39 27.58 25.8 25.86 25.75 23.52C25.75 23.26 25.75 22.99 25.75 22.61C25.41 22.61 25.12 22.61 24.84 22.61C21.86 22.61 18.89 22.61 15.91 22.61C13.23 22.61 11.91 20.66 12.87 18.17C13.76 15.85 15.37 14.2 17.66 13.08C16.45 11.74 15.99 10.19 16.3 8.46C16.53 7.19 17.19 6.15 18.21 5.35C20.26 3.76 23.12 3.91 24.98 5.69C27.02 7.64 27.11 10.4 25.24 13.01C26.23 13.73 27.22 14.45 28.25 15.2C29.54 13.62 31.18 12.39 33.2 11.57C33.07 11.42 32.99 11.31 32.9 11.22C31.11 9.36 30.49 7.16 31.23 4.69C31.96 2.25 33.66 0.76 36.14 0.15C36.3 0.11 36.46 0.05 36.62 0C37.21 0 37.79 0 38.38 0ZM37.43 25.29C37.65 25.29 37.87 25.29 38.09 25.29C40.38 25.29 42.68 25.29 44.97 25.29C46.08 25.29 46.82 24.77 46.87 23.87C46.93 22.9 46.98 21.9 46.82 20.95C45.83 14.99 39.44 11.51 33.87 13.84C30.09 15.42 28.07 18.71 28.1 23.21C28.1 24.7 28.69 25.29 30.19 25.29C32.61 25.29 35.02 25.29 37.44 25.29H37.43ZM37.5 2.34C35.2 2.34 33.3 4.22 33.28 6.52C33.25 8.83 35.18 10.77 37.5 10.77C39.8 10.77 41.7 8.89 41.72 6.59C41.74 4.28 39.82 2.34 37.5 2.34ZM20.53 20.27C22.09 20.27 23.65 20.24 25.21 20.28C25.76 20.29 25.97 20.1 26.08 19.58C26.2 19.01 26.4 18.45 26.65 17.93C26.86 17.5 26.76 17.23 26.47 16.9C23.14 13.1 16.74 14.3 15.04 19.06C14.73 19.93 14.94 20.26 15.85 20.26C17.41 20.27 18.97 20.26 20.53 20.26V20.27ZM54.42 20.27C56.03 20.27 57.64 20.28 59.25 20.27C60.03 20.27 60.28 19.91 60.01 19.19C59.13 16.85 57.47 15.33 55.02 14.82C52.45 14.28 50.25 15.04 48.5 17C48.33 17.19 48.3 17.61 48.37 17.88C48.52 18.52 48.8 19.12 48.96 19.75C49.07 20.16 49.25 20.29 49.66 20.28C51.24 20.26 52.83 20.28 54.41 20.28L54.42 20.27ZM21.36 6.59C19.8 6.61 18.55 7.88 18.55 9.45C18.55 11.05 19.84 12.32 21.43 12.3C22.98 12.28 24.25 11 24.25 9.45C24.25 7.87 22.93 6.58 21.35 6.59H21.36ZM56.44 9.43C56.44 7.86 55.17 6.6 53.61 6.59C52.03 6.59 50.72 7.89 50.73 9.46C50.74 11.04 52.06 12.32 53.64 12.29C55.2 12.26 56.44 10.99 56.43 9.42L56.44 9.43Z" fill="#FF6C1A"/>
<path id="Vector_3" d="M64.6504 32.4301C64.6504 33.3201 63.9304 34.0601 63.0404 34.0701C62.1704 34.0701 61.4004 33.3201 61.4004 32.4501C61.4004 31.5801 62.1504 30.8201 63.0204 30.8101C63.9104 30.8101 64.6404 31.5401 64.6504 32.4301Z" fill="#FF6C1A"/>
<path id="Vector_4" d="M11.25 30.7499C11.25 29.8299 11.94 29.1299 12.85 29.1299C13.75 29.1299 14.48 29.8399 14.49 30.7299C14.49 31.6099 13.75 32.3599 12.87 32.3599C11.98 32.3599 11.26 31.6399 11.25 30.7399V30.7499Z" fill="#FF6C1A"/>
</g>
<defs>
<clipPath id="clip0_1821_753">
<rect width="75" height="74.99" fill="white"/>
</clipPath>
</defs>
</svg>
