<svg width="75" height="75" viewBox="0 0 75 75" fill="none" xmlns="http://www.w3.org/2000/svg">
<g id="Layer_1" clip-path="url(#clip0_1823_772)">
<path id="Vector" d="M12.8704 50.4302C12.7804 50.4302 12.6804 50.4302 12.5904 50.4002C8.36045 49.6402 5.03045 47.5302 2.71045 44.1402C-0.0395536 40.1402 -0.729554 35.2602 0.800446 30.7502C2.33045 26.2502 5.85045 22.8102 10.4604 21.3102C11.4604 20.9902 12.5404 20.8602 13.5904 20.7402C14.0604 20.6902 14.5204 20.6302 14.9904 20.5602C15.0504 20.5602 15.1104 20.5502 15.1704 20.5402C15.3504 20.5302 15.5504 20.5102 15.6104 20.3502C15.8804 19.6602 16.1304 18.9602 16.3804 18.2602C16.9204 16.7602 17.4704 15.2102 18.2104 13.7802C21.7804 6.84023 27.5404 2.40023 35.3104 0.600234C36.1304 0.410234 36.9804 0.290234 37.8004 0.170234C38.1904 0.110234 38.5904 0.0602344 38.9804 -0.00976562H42.4904C42.9104 0.0702344 43.3604 0.130234 43.8004 0.200234C44.7404 0.340234 45.7104 0.490234 46.6304 0.730234C54.8504 2.89023 60.7304 7.96023 64.1105 15.8002C64.2804 16.1902 64.6605 16.5902 65.0505 16.8002C69.7405 19.2202 72.8504 22.9902 74.2905 27.9902C74.5005 28.7302 74.6404 29.5202 74.7804 30.2702C74.8404 30.6302 74.9105 30.9802 74.9805 31.3402V34.4002C74.8905 34.7802 74.8104 35.1902 74.7205 35.6002C74.5505 36.4702 74.3705 37.3602 74.0805 38.2002C71.9305 44.4702 67.5704 48.4902 61.1104 50.1402C60.9204 50.1902 60.7304 50.2102 60.5604 50.2102C60.0704 50.2102 59.6404 50.0202 59.3804 49.6902C59.1404 49.3802 59.0704 48.9802 59.1704 48.5502C59.3404 47.8602 59.8704 47.6002 60.6204 47.4302C62.5604 46.9802 64.2904 46.2102 65.7704 45.1202C70.4204 41.7102 72.5705 37.1902 72.1605 31.6802C71.7405 25.9002 68.8004 21.6702 63.4504 19.0902C62.5604 18.6602 62.0404 18.1202 61.7104 17.2702C58.2804 8.44024 50.0004 2.74023 40.6004 2.74023C39.8304 2.74023 39.0404 2.78023 38.2704 2.85023C28.4204 3.81023 20.0804 11.5902 18.4304 21.3502C18.4104 21.4802 18.3804 21.6002 18.3604 21.7302L18.3304 21.8502C18.1004 22.9902 17.6904 23.3902 16.7704 23.3902C16.6204 23.3902 16.4604 23.3802 16.2904 23.3602C15.8504 23.3102 15.4004 23.2802 14.9604 23.2802C13.4604 23.2802 12.0004 23.5602 10.4904 24.1402C5.59045 26.0102 2.33045 31.2102 2.75045 36.5002C3.18045 41.9702 7.16045 46.5202 12.4204 47.5602C12.7404 47.6202 13.0104 47.6802 13.2604 47.7602C14.0104 48.0102 14.3804 48.6902 14.1804 49.4302C14.0204 50.0102 13.4904 50.4002 12.8604 50.4002L12.8704 50.4302Z" fill="#FF6C1A"/>
<path id="Vector_2" d="M73.1197 72.0601C67.7097 72.0501 62.2997 72.0501 56.8897 72.0501H47.7997C47.5297 72.0501 47.1897 72.0401 46.8897 71.9401C46.3097 71.7601 45.9897 71.3301 45.9797 70.7201C45.9697 70.0801 46.2897 69.6201 46.8897 69.4301C47.1797 69.3401 47.5097 69.3201 47.7997 69.3201H56.8397C62.2597 69.3201 67.6897 69.3201 73.1097 69.3101C74.1197 69.3101 74.6797 69.6501 74.9797 70.4301V70.9801C74.6797 71.7301 74.1197 72.0601 73.1197 72.0601Z" fill="#FF6C1A"/>
<path id="Vector_3" d="M37.4304 75.0001C36.4504 75.0001 35.5204 74.6301 34.6604 73.8901C33.6104 73.0001 33.0904 71.7001 33.2104 70.3101C33.3404 68.9101 34.1504 67.6501 35.3804 66.9401C35.5204 66.8601 35.6704 66.7901 35.8204 66.7101L36.1004 66.5701V62.3501H26.1104C22.9004 62.3501 20.1304 60.5701 19.0704 57.8301C17.8904 54.7801 18.6304 51.8201 21.1804 49.5101C21.2204 49.4801 21.3704 49.3001 21.3704 49.3001L21.4404 49.2201L21.3604 49.1501C19.5704 47.6601 18.5404 45.5501 18.5304 43.3601C18.5304 41.1501 19.5104 39.1001 21.3204 37.5701L21.4004 37.5001L21.3304 37.4201C21.1904 37.2601 21.0404 37.1101 20.8904 36.9601C20.5704 36.6301 20.2504 36.3001 19.9804 35.9301C18.2904 33.6001 18.0304 31.1401 19.2004 28.6201C20.4704 25.8901 22.6904 24.4301 25.6004 24.4001C29.2904 24.3601 32.9804 24.3501 36.6804 24.3501C40.3804 24.3501 44.1104 24.3601 47.8204 24.3701H49.3904C52.2004 24.3801 54.9704 26.2901 55.9604 28.9201C57.0504 31.7801 56.3704 34.8401 54.1804 36.8901C54.0804 36.9801 53.5404 37.4701 53.5404 37.4701L53.6304 37.5401C55.5404 39.1601 56.4704 41.0501 56.4804 43.3001C56.4804 45.6101 55.5304 47.5301 53.5504 49.2001L53.4504 49.2801L53.7804 49.5101C53.9204 49.6101 54.0504 49.6901 54.1604 49.8001C56.3904 51.8901 57.0704 54.9601 55.9304 57.8301C54.8904 60.4501 52.1804 62.3001 49.3204 62.3301C48.0104 62.3401 46.7104 62.3501 45.4004 62.3501H38.8504V63.3501C38.8504 64.3601 38.8504 65.3501 38.8804 66.3401C38.8804 66.5201 39.1104 66.6601 39.4004 66.8201C41.0304 67.7501 41.8204 69.0701 41.7704 70.7701C41.7204 72.5601 40.8304 73.8801 39.2004 74.6001C38.6004 74.8601 38.0004 75.0001 37.4204 75.0001H37.4304ZM37.4704 69.1301C36.6404 69.1401 35.9204 69.8801 35.9304 70.7101C35.9404 71.5301 36.6704 72.2501 37.4904 72.2501C37.9104 72.2501 38.3004 72.0701 38.5904 71.7601C38.8804 71.4601 39.0504 71.0601 39.0404 70.6701C39.0304 69.8501 38.3004 69.1301 37.4804 69.1301H37.4604H37.4704ZM27.8104 50.6001C27.1304 50.6001 26.4604 50.6001 25.7804 50.6201C24.3704 50.6501 23.0704 51.2701 22.2304 52.3301C21.4104 53.3601 21.0904 54.7201 21.3704 56.0501C21.8204 58.2201 23.6704 59.6201 26.0904 59.6201H35.3504C39.8704 59.6201 44.3904 59.6201 48.9004 59.6201C49.3504 59.6201 49.7804 59.5801 50.1604 59.5001C51.3504 59.2601 52.3704 58.5601 53.0404 57.5401C53.6904 56.5401 53.9104 55.3601 53.6604 54.2201C53.1704 52.0101 51.4004 50.6301 49.0404 50.6201C47.5004 50.6201 45.9704 50.6201 44.4304 50.6201H30.9204H27.8104V50.6001ZM44.5604 47.8801C46.0704 47.8801 47.5804 47.8801 49.0904 47.8701C50.4304 47.8701 51.6504 47.3701 52.5204 46.4701C53.3404 45.6201 53.7804 44.4801 53.7504 43.2501C53.6904 40.7101 51.6904 38.8701 49.0104 38.8601C45.7504 38.8601 42.4904 38.8601 39.2304 38.8601H26.0504C25.8004 38.8601 25.5504 38.8601 25.3104 38.9001C24.0404 39.0401 22.9204 39.6801 22.1704 40.6801C21.4204 41.6801 21.1304 42.9301 21.3604 44.1901C21.7504 46.3801 23.6104 47.8601 25.9804 47.8701C27.6004 47.8701 29.2304 47.8701 30.8504 47.8701H37.5704H44.5604V47.8801ZM28.3904 27.1101C27.5404 27.1101 26.6804 27.1101 25.8304 27.1301C24.4104 27.1501 23.1004 27.7601 22.2604 28.8101C21.4204 29.8401 21.1004 31.1601 21.3604 32.5201C21.7804 34.6801 23.6304 36.1301 25.9604 36.1401C29.2904 36.1401 32.6104 36.1401 35.9404 36.1401H49.0704C49.3904 36.1401 49.7204 36.1101 50.0404 36.0501C52.2704 35.6501 53.8304 33.7101 53.7504 31.4501C53.6604 29.0001 51.6604 27.1401 49.0904 27.1301C47.5304 27.1301 45.9704 27.1201 44.4204 27.1201H32.3204H28.3904V27.1101Z" fill="#FF6C1A"/>
<path id="Vector_4" d="M1.69977 72.0501C1.54977 72.0501 1.38977 72.0501 1.23977 72.0201C0.529766 71.9101 0.00976562 71.3501 0.00976562 70.6801C0.00976562 70.0101 0.529766 69.4401 1.23977 69.3401C1.38977 69.3201 1.53977 69.3101 1.69977 69.3101H27.0698C28.1898 69.3101 28.8698 69.8301 28.8698 70.6801C28.8698 71.5301 28.1998 72.0401 27.0698 72.0401H20.7398H1.70977L1.69977 72.0501Z" fill="#FF6C1A"/>
<path id="Vector_5" d="M29.1696 44.5401C28.4596 44.5401 27.7396 44.5401 27.0296 44.5401C26.3396 44.5401 25.4896 44.3201 25.3696 43.3401C25.2796 42.5601 25.7396 41.9601 26.5096 41.8501C26.7896 41.8101 27.0896 41.8101 27.3696 41.8101H37.7896C38.8096 41.8401 39.3796 42.3101 39.4096 43.1301C39.4196 43.4901 39.3096 43.8101 39.0796 44.0601C38.7996 44.3601 38.3396 44.5301 37.8096 44.5401C37.0696 44.5401 36.3196 44.5501 35.5796 44.5501H29.1596L29.1696 44.5401Z" fill="#FF6C1A"/>
<path id="Vector_6" d="M43.3302 44.4901C42.5802 44.4901 41.9902 43.9001 41.9902 43.1601C41.9902 42.8001 42.1202 42.4701 42.3702 42.2101C42.6202 41.9601 42.9602 41.8201 43.3302 41.8101C44.0702 41.8101 44.7002 42.4201 44.7002 43.1401C44.7002 43.8601 44.0802 44.4801 43.3402 44.4801L43.3302 44.4901Z" fill="#FF6C1A"/>
<path id="Vector_7" d="M48.4601 44.4898C47.7201 44.4898 47.1301 43.9098 47.1201 43.1798C47.1201 42.8198 47.2501 42.4798 47.4901 42.2198C47.7401 41.9698 48.0701 41.8198 48.4301 41.8198C49.1701 41.8198 49.8001 42.4198 49.8101 43.1298C49.8101 43.4698 49.6801 43.8098 49.4301 44.0698C49.1801 44.3298 48.8301 44.4898 48.4701 44.4898H48.4401H48.4601Z" fill="#FF6C1A"/>
<path id="Vector_8" d="M37.4796 32.7801H27.2796C27.0396 32.7801 26.7996 32.7801 26.5696 32.7301C25.7796 32.6001 25.3296 32.0801 25.3696 31.3301C25.4096 30.5901 25.9096 30.0901 26.6396 30.0801C27.4596 30.0601 28.2696 30.0601 29.0896 30.0601H32.5396H35.7296C36.4696 30.0601 37.2096 30.0601 37.9396 30.0601C38.5296 30.0701 39.0296 30.3201 39.2796 30.7301C39.4896 31.0701 39.4996 31.4701 39.3096 31.8601C39.1296 32.2301 38.6296 32.5201 38.2996 32.7101C38.1696 32.7801 37.9996 32.7901 37.8496 32.7901H37.4896L37.4796 32.7801Z" fill="#FF6C1A"/>
<path id="Vector_9" d="M43.2503 32.7501C42.5003 32.7101 41.9503 32.0801 41.9903 31.3301C42.0303 30.6201 42.6103 30.0801 43.3403 30.0801C43.7703 30.1001 44.1203 30.2701 44.3603 30.5501C44.6003 30.8201 44.7103 31.1601 44.6903 31.4901C44.6403 32.2001 44.0403 32.7501 43.3403 32.7501H43.2603H43.2503Z" fill="#FF6C1A"/>
<path id="Vector_10" d="M48.4501 32.7601C48.0901 32.7601 47.7601 32.6201 47.5101 32.3601C47.2601 32.1001 47.1201 31.7601 47.1201 31.4001C47.1201 30.6601 47.7101 30.0801 48.4601 30.0801C48.8301 30.0801 49.1801 30.2301 49.4301 30.4901C49.6801 30.7501 49.8201 31.0801 49.8101 31.4201C49.8101 32.1301 49.1701 32.7601 48.4501 32.7601Z" fill="#FF6C1A"/>
<path id="Vector_11" d="M37.4996 56.2698H27.2896C27.0296 56.2698 26.7596 56.2598 26.4996 56.2098C25.7896 56.0898 25.3496 55.5898 25.3496 54.8998C25.3496 54.1498 25.8396 53.6098 26.5496 53.5798C27.7596 53.5298 28.9796 53.5298 30.1896 53.5298H35.6896C36.4096 53.5198 37.1296 53.5298 37.8496 53.5298C38.4696 53.5298 38.9996 53.7898 39.2596 54.1898C39.4596 54.4998 39.4796 54.8798 39.3196 55.2598C39.1496 55.6498 38.6596 55.9598 38.2996 56.1798C38.1896 56.2498 38.0196 56.2598 37.8796 56.2598H37.4996V56.2698Z" fill="#FF6C1A"/>
<path id="Vector_12" d="M43.3102 56.2401C42.9502 56.2401 42.6202 56.0901 42.3702 55.8301C42.1202 55.5701 41.9902 55.2301 41.9902 54.8701C42.0002 54.1401 42.5902 53.5601 43.3302 53.5601C43.7102 53.5601 44.0602 53.7201 44.3202 53.9901C44.5702 54.2501 44.7002 54.5801 44.6902 54.9201C44.6702 55.6301 44.0502 56.2301 43.3302 56.2301H43.3102V56.2401Z" fill="#FF6C1A"/>
<path id="Vector_13" d="M48.4601 56.2401C48.1001 56.2401 47.7601 56.1001 47.5101 55.8501C47.2601 55.6001 47.1201 55.2601 47.1201 54.9001C47.1201 54.1601 47.7201 53.5601 48.4601 53.5601C49.2001 53.5601 49.8201 54.1801 49.8201 54.9001C49.8201 55.6201 49.2001 56.2401 48.4601 56.2401Z" fill="#FF6C1A"/>
</g>
<defs>
<clipPath id="clip0_1823_772">
<rect width="74.99" height="75" fill="white"/>
</clipPath>
</defs>
</svg>
