<svg width="71" height="75" viewBox="0 0 71 75" fill="none" xmlns="http://www.w3.org/2000/svg">
<g id="Layer_1" clip-path="url(#clip0_1817_580)">
<path id="Vector" d="M30.9199 0C32.2599 0.22 33.6299 0.34 34.9399 0.67C46.2299 3.52 53.4699 10.56 56.6399 21.76C56.8099 22.35 57.0199 22.52 57.6199 22.51C59.9899 22.47 62.3499 22.49 64.7199 22.5C67.9499 22.52 70.0199 24.6 70.0199 27.83C70.0199 41.76 70.0199 55.7 70.0199 69.63C70.0199 72.88 67.9099 74.97 64.6499 74.97C56.5699 74.97 48.4999 74.97 40.4199 74.97C37.2799 74.97 35.3299 73.18 35.0199 70.02C35.0199 69.98 34.9799 69.94 34.9299 69.85C34.7099 70.05 34.4999 70.23 34.2899 70.42C32.7899 71.78 31.2999 73.15 29.7899 74.5C29.0399 75.16 28.5299 75.15 27.7899 74.5C19.6199 67.43 12.4499 59.49 6.85988 50.21C3.86988 45.25 1.63988 39.99 0.539875 34.26C-2.38013 19.18 7.15987 4.32 22.0799 0.79C23.5899 0.43 25.1399 0.26 26.6799 0C28.0999 0 29.5099 0 30.9299 0H30.9199ZM28.8099 72.17C30.8499 70.2 32.8399 68.3 34.7999 66.37C34.9699 66.2 35.0099 65.84 35.0099 65.57C35.0199 57.2 35.0099 48.83 35.0099 40.46C35.0099 40.26 34.9799 40.06 34.9599 39.86C34.8599 39.86 34.8399 39.86 34.8199 39.86C34.6599 39.92 34.5099 39.99 34.3499 40.06C29.5299 42.04 24.8999 41.64 20.6899 38.57C16.4199 35.46 14.5999 31.1 15.1399 25.86C15.7499 19.88 20.5499 14.9 26.4599 13.94C32.6699 12.93 38.7399 16.15 41.2799 21.84C41.4999 22.33 41.7399 22.53 42.2999 22.52C46.0299 22.49 49.7699 22.51 53.4999 22.5C53.7299 22.5 53.9499 22.47 54.2199 22.45C54.1799 22.24 54.1599 22.13 54.1299 22.01C50.7599 8.77 37.1199 0.23 23.7299 2.97C9.32987 5.92 0.219875 19.61 3.02988 34.03C4.05988 39.29 6.16988 44.11 8.86987 48.69C13.2299 56.08 18.7599 62.53 24.8899 68.49C26.1499 69.71 27.4499 70.89 28.8099 72.16V72.17ZM37.5099 48.71C37.5099 55.66 37.5099 62.62 37.5099 69.57C37.5099 71.52 38.4699 72.48 40.4399 72.48C48.4699 72.48 56.4999 72.48 64.5299 72.48C66.5799 72.48 67.5199 71.53 67.5199 69.48C67.5199 55.67 67.5199 41.86 67.5199 28.04C67.5199 25.91 66.6199 25 64.5099 25C56.9199 25 49.3299 25 41.7399 25C41.3299 25 40.9099 25.03 40.4999 25.02C38.4799 24.98 37.5199 25.91 37.5199 27.91C37.5199 34.84 37.5199 41.77 37.5199 48.7L37.5099 48.71ZM38.8699 22.58C38.7799 22.38 38.7099 22.23 38.6299 22.08C36.4199 17.98 31.8499 15.71 27.1299 16.37C22.6699 16.99 19.0099 20.29 17.8699 24.73C16.7399 29.14 18.3999 33.78 22.0999 36.54C25.6699 39.2 30.6899 39.44 34.5099 37.17C34.8999 36.94 35.0199 36.68 35.0199 36.24C34.9999 33.53 35.0099 30.83 35.0099 28.12C35.0099 25.2 36.0599 23.66 38.8599 22.59L38.8699 22.58Z" fill="#FF6C1A"/>
<path id="Vector_2" d="M7.55979 27.57C8.47979 18.6 12.9798 12.25 21.3998 8.84002C23.6998 7.91002 26.1398 7.54002 28.6298 7.50002C29.4298 7.49002 29.9898 8.00002 30.0198 8.70002C30.0498 9.42002 29.4998 9.94002 28.6398 9.99002C28.4898 9.99002 28.3498 9.99002 28.1998 10C24.2398 10.17 20.6298 11.37 17.4798 13.8C12.7798 17.43 10.3098 22.25 10.0198 28.18C9.95979 29.45 9.53979 30.03 8.70979 29.99C7.86979 29.95 7.46979 29.31 7.51979 28.08C7.51979 27.91 7.53979 27.74 7.54979 27.57H7.55979Z" fill="#FF6C1A"/>
<path id="Vector_3" d="M40.0098 47.34C40.0098 42.07 40.0098 36.8 40.0098 31.52C40.0098 29.51 40.9498 28.58 42.9798 28.58C49.3498 28.58 55.7198 28.58 62.0898 28.58C64.0898 28.58 65.0298 29.52 65.0298 31.55C65.0298 42.07 65.0298 52.59 65.0298 63.11C65.0298 65.1 64.0598 66.07 62.0598 66.07C55.6898 66.07 49.3198 66.07 42.9498 66.07C40.9998 66.07 40.0198 65.1 40.0198 63.15C40.0198 57.88 40.0198 52.61 40.0198 47.33L40.0098 47.34ZM42.5498 31.11V63.52H62.4798V31.12H42.5498V31.11Z" fill="#FF6C1A"/>
<path id="Vector_4" d="M52.5404 68.04C53.5404 68.04 54.5404 68.03 55.5304 68.04C56.3404 68.05 56.8804 68.56 56.8804 69.26C56.8804 69.96 56.3504 70.51 55.5504 70.52C53.5304 70.54 51.5104 70.54 49.4904 70.52C48.6804 70.52 48.1504 69.99 48.1504 69.28C48.1504 68.53 48.6704 68.05 49.5504 68.04C50.5504 68.03 51.5504 68.04 52.5404 68.04Z" fill="#FF6C1A"/>
<path id="Vector_5" d="M58.7104 41.0701C59.6404 41.0901 60.1904 41.8601 59.9204 42.7801C59.2404 45.1401 58.5204 47.5001 57.8204 49.8501C57.3104 51.5501 56.7804 53.2501 56.2804 54.9601C56.1004 55.5901 55.7504 56.0201 55.0804 56.0501C54.4104 56.0801 54.0104 55.6901 53.7704 55.0801C53.1404 53.4701 52.4704 51.8701 51.8604 50.2601C51.6604 49.7401 51.3804 49.4301 50.8504 49.2301C49.2504 48.6401 47.6804 47.9701 46.1004 47.3501C45.4804 47.1101 45.0104 46.7401 45.0404 46.0301C45.0704 45.3301 45.5304 44.9901 46.1904 44.7901C50.1804 43.6001 54.1704 42.3901 58.1504 41.2001C58.3604 41.1401 58.5804 41.1001 58.7204 41.0601L58.7104 41.0701ZM54.8504 51.0101C55.5604 48.6501 56.2004 46.4901 56.8904 44.1901C54.5704 44.8901 52.4004 45.5401 50.0704 46.2401C51.0404 46.6301 51.8404 46.9801 52.6604 47.2801C53.2304 47.4901 53.5904 47.8401 53.8004 48.4201C54.0904 49.2401 54.4504 50.0301 54.8504 51.0201V51.0101Z" fill="#FF6C1A"/>
</g>
<defs>
<clipPath id="clip0_1817_580">
<rect width="70.02" height="75" fill="white"/>
</clipPath>
</defs>
</svg>
