<svg width="75" height="75" viewBox="0 0 75 75" fill="none" xmlns="http://www.w3.org/2000/svg">
<g id="Layer_1" clip-path="url(#clip0_1817_490)">
<path id="Vector" d="M41.13 41.14C41.13 50.24 41.13 59.33 41.13 68.43C41.13 72.47 38.62 74.99 34.59 74.99C25.24 74.99 15.89 74.99 6.54 74.99C2.51 75 0 72.48 0 68.43C0 50.22 0 32 0 13.78C0 9.79001 2.52 7.26001 6.5 7.26001C15.87 7.26001 25.25 7.26001 34.62 7.26001C38.6 7.26001 41.12 9.79001 41.12 13.78C41.12 22.9 41.12 32.02 41.12 41.15L41.13 41.14ZM38.68 14.56H2.48V67.69H38.68V14.57V14.56ZM38.42 12.06C37.84 10.48 36.59 9.67001 34.78 9.67001C25.31 9.67001 15.83 9.67001 6.36 9.67001C6.16 9.67001 5.96 9.67001 5.76 9.69001C4.32 9.82001 3.05 10.82 2.78 12.07H38.42V12.06ZM2.71 70.18C3.3 71.76 4.55 72.57 6.35 72.57C15.82 72.57 25.3 72.57 34.77 72.57C34.97 72.57 35.17 72.57 35.37 72.55C36.82 72.42 38.08 71.41 38.35 70.17H2.71V70.18Z" fill="#FF6C1A"/>
<path id="Vector_2" d="M75.0001 14.58C74.9401 22.67 68.3801 29.09 60.2601 29.02C52.3101 28.95 45.9101 22.36 45.9701 14.29C46.0201 6.35999 52.6501 -0.0700137 60.7101 -1.36663e-05C68.5901 0.0699863 75.0701 6.66999 75.0001 14.58ZM60.5301 26.61C67.1201 26.61 72.5701 21.17 72.5801 14.58C72.5901 7.86999 67.1701 2.39999 60.5201 2.41999C53.7701 2.42999 48.3801 7.83999 48.3901 14.6C48.4001 21.22 53.8501 26.62 60.5301 26.62V26.61Z" fill="#FF6C1A"/>
<path id="Vector_3" d="M43.5801 43.55V41.15H59.2701V31.49H61.6501C61.6601 31.7 61.6901 31.92 61.6901 32.14C61.6901 35.41 61.6901 38.69 61.6901 41.96C61.6901 43.15 61.2901 43.55 60.1101 43.55C54.8001 43.55 49.4901 43.55 44.1801 43.55H43.5801Z" fill="#FF6C1A"/>
<path id="Vector_4" d="M33.5102 36.6C33.4102 37.59 33.3302 38.65 33.1702 39.69C33.1002 40.14 33.1902 40.42 33.5202 40.74C36.3002 43.41 35.2102 47.89 31.5102 48.99C31.0802 49.12 30.9302 49.34 30.8002 49.74C29.6002 53.47 27.3502 56.28 23.5502 57.57C19.0402 59.11 14.0902 57 11.5502 52.53C11.0302 51.62 10.7302 50.59 10.2802 49.64C10.1602 49.39 9.91021 49.1 9.66021 49.02C5.87021 47.83 4.83021 43.43 7.67021 40.64C7.85021 40.46 7.97021 40.07 7.92021 39.81C7.53021 37.27 7.45021 34.74 8.36021 32.28C9.97021 27.92 14.6702 24.88 19.4602 25.05C21.6102 25.12 23.5502 25.78 25.3402 26.95C25.6002 27.12 25.9202 27.28 26.2202 27.32C30.1402 27.77 32.6902 30.21 33.2602 34.12C33.3802 34.91 33.4102 35.72 33.4902 36.59L33.5102 36.6ZM13.7802 38.7C13.7802 39.35 13.7802 39.9 13.7802 40.45C13.7802 41.12 13.5402 41.57 12.8002 41.63C12.0702 41.69 11.3502 41.74 10.6202 41.83C9.28021 42 8.40021 43.04 8.43021 44.37C8.46021 45.67 9.44021 46.67 10.7802 46.76C11.9002 46.83 12.1702 47.06 12.4102 48.15C12.7202 49.59 13.2902 50.93 14.1502 52.13C16.8702 55.92 21.5202 56.76 25.0702 54.08C27.0702 52.57 28.2002 50.52 28.7302 48.1C28.9502 47.11 29.2402 46.83 30.1702 46.76C31.6702 46.64 32.6702 45.64 32.6602 44.26C32.6602 42.9 31.6202 41.89 30.1302 41.78C29.5002 41.73 28.8802 41.67 28.2502 41.62C27.5802 41.57 27.3602 41.15 27.3502 40.55C27.3502 40 27.3702 39.44 27.3302 38.89C27.3102 38.68 27.2002 38.4 27.0302 38.29C25.8402 37.5 24.6302 36.75 23.3602 35.95C20.5702 37.79 17.1902 38.21 13.7602 38.7H13.7802ZM11.3602 39.34C11.3602 38.94 11.3602 38.59 11.3602 38.24C11.3602 36.68 11.6402 36.41 13.1702 36.28C15.6302 36.06 18.0802 35.7 20.3802 34.75C21.2102 34.41 21.9702 33.82 22.6602 33.22C23.3402 32.63 24.0902 32.58 24.6602 33.35C25.7402 34.78 27.1002 35.81 28.8002 36.37C29.4602 36.59 29.7702 37.05 29.7602 37.74C29.7602 38.26 29.7602 38.79 29.7602 39.35C30.1202 39.39 30.4102 39.42 30.9202 39.47C30.9202 37.82 31.0902 36.22 30.8802 34.68C30.4302 31.41 28.8002 30.01 25.5202 29.71C25.1402 29.68 24.7402 29.5 24.4202 29.29C21.2402 27.06 17.9502 26.88 14.5402 28.73C10.5502 30.9 9.28021 35.05 10.4102 39.46C10.7002 39.43 10.9902 39.39 11.3402 39.35L11.3602 39.34Z" fill="#FF6C1A"/>
<path id="Vector_5" d="M33.8798 59.3V53.27H36.2298C36.2498 53.44 36.2798 53.63 36.2798 53.82C36.2798 55.93 36.2798 58.04 36.2798 60.16C36.2798 61.29 35.8598 61.7 34.7298 61.7C32.8698 61.7 31.0098 61.7 29.0898 61.7V59.31H33.8798V59.3Z" fill="#FF6C1A"/>
<path id="Vector_6" d="M7.24964 22.97V27.76H4.82964C4.82964 27.03 4.82964 26.29 4.82964 25.54C4.82964 24.33 4.81964 23.13 4.82964 21.92C4.82964 21.09 5.25964 20.58 6.02964 20.57C8.00964 20.54 9.99964 20.57 12.0296 20.57V22.98H7.23964L7.24964 22.97Z" fill="#FF6C1A"/>
<path id="Vector_7" d="M29.0596 23.02V20.58C31.1396 20.58 33.1896 20.55 35.2396 20.6C35.8596 20.61 36.2596 21.09 36.2696 21.71C36.2996 23.72 36.2796 25.72 36.2796 27.78H33.8896V23.02H29.0596Z" fill="#FF6C1A"/>
<path id="Vector_8" d="M12.0597 59.25V61.69C9.99967 61.69 7.96967 61.71 5.93967 61.68C5.31967 61.67 4.86967 61.24 4.85967 60.62C4.81967 58.59 4.84967 56.56 4.84967 54.49H7.21967V59.26H12.0597V59.25Z" fill="#FF6C1A"/>
<path id="Vector_9" d="M52.79 17.13C53.42 16.53 53.96 16.01 54.59 15.41C55.33 16.23 56.12 17.1 56.91 17.99C60.16 14.74 63.26 11.63 66.39 8.5C67.01 9.14 67.55 9.69 68.11 10.26C67.97 10.41 67.82 10.58 67.67 10.74C64.54 13.88 61.4 17.01 58.27 20.14C57.31 21.1 56.83 21.09 55.87 20.14C54.87 19.15 53.86 18.16 52.79 17.12V17.13Z" fill="#FF6C1A"/>
<path id="Vector_10" d="M16.9697 49.08C17.6697 49.08 18.3197 49.06 18.9697 49.1C19.1297 49.11 19.3397 49.3 19.4197 49.46C19.6597 49.96 20.0197 50.27 20.5897 50.26C21.1597 50.26 21.5097 49.94 21.7397 49.43C21.8097 49.28 21.9897 49.1 22.1397 49.1C22.8097 49.07 23.4797 49.08 24.1497 49.08C24.2197 51.04 22.6497 52.63 20.6797 52.69C18.6897 52.75 17.0497 51.21 16.9797 49.08H16.9697Z" fill="#FF6C1A"/>
<path id="Vector_11" d="M18.1401 41.78C18.1601 42.43 17.63 42.99 16.97 43.01C16.31 43.03 15.7501 42.51 15.7301 41.85C15.7101 41.19 16.2301 40.65 16.9001 40.63C17.5701 40.61 18.1201 41.12 18.1401 41.78Z" fill="#FF6C1A"/>
<path id="Vector_12" d="M25.4002 41.88C25.3602 42.54 24.7902 43.04 24.1302 43C23.4702 42.96 22.9602 42.39 23.0002 41.74C23.0402 41.08 23.6102 40.59 24.2702 40.63C24.9302 40.67 25.4402 41.23 25.4002 41.89V41.88Z" fill="#FF6C1A"/>
</g>
<defs>
<clipPath id="clip0_1817_490">
<rect width="75" height="75" fill="white"/>
</clipPath>
</defs>
</svg>
