<svg width="75" height="75" viewBox="0 0 75 75" fill="none" xmlns="http://www.w3.org/2000/svg">
<g id="Layer_1" clip-path="url(#clip0_1817_543)">
<path id="Vector" d="M22.9797 37.44C22.9797 31.57 22.9797 25.71 22.9797 19.84C22.9797 16.5 24.9497 14.52 28.2597 14.52C34.4297 14.52 40.5897 14.52 46.7597 14.52C49.9797 14.52 51.9797 16.52 51.9797 19.75C51.9797 31.58 51.9797 43.42 51.9797 55.25C51.9797 58.43 49.9697 60.46 46.8097 60.46C40.5897 60.46 34.3697 60.46 28.1597 60.46C24.9897 60.46 22.9797 58.44 22.9697 55.26C22.9697 49.32 22.9697 43.38 22.9697 37.43L22.9797 37.44ZM25.4497 21.8V53.14H49.5297V21.8H25.4497ZM49.5497 19.32C49.4297 17.81 48.4797 16.94 47.0097 16.93C43.5097 16.93 40.0197 16.93 36.5197 16.93C33.6497 16.93 30.7897 16.93 27.9197 16.93C26.4597 16.93 25.4697 17.9 25.4497 19.32H49.5497ZM25.4397 55.66C25.3597 57.03 26.7197 58.06 27.9497 58.05C32.0997 58.01 36.2597 58.04 40.4197 58.04C42.6397 58.04 44.8497 58.05 47.0697 58.04C48.5297 58.03 49.5397 57.03 49.5097 55.66H25.4397Z" fill="#FF6C1A"/>
<path id="Vector_2" d="M18.4396 54.87C19.0496 55.44 19.5996 55.95 20.2596 56.57C19.7096 57.08 19.1696 57.54 18.6796 58.03C16.3296 60.37 13.9896 62.73 11.6296 65.07C11.2696 65.43 11.1396 65.68 11.4196 66.21C12.7196 68.67 12.1296 71.64 10.0396 73.49C8.01961 75.27 5.02961 75.49 2.75961 74.01C0.469607 72.53 -0.530393 69.67 0.319607 67.06C1.15961 64.47 3.67961 62.72 6.40961 62.94C7.23961 63.01 8.06961 63.3 8.84961 63.63C9.30961 63.82 9.53961 63.77 9.86961 63.44C12.5796 60.71 15.3096 57.99 18.0296 55.27C18.1696 55.13 18.3196 55 18.4396 54.89V54.87ZM9.67961 68.91C9.66961 66.94 8.04961 65.32 6.06961 65.31C4.05961 65.31 2.42961 66.94 2.42961 68.96C2.42961 70.93 4.06961 72.56 6.03961 72.56C8.04961 72.56 9.68961 70.92 9.67961 68.91Z" fill="#FF6C1A"/>
<path id="Vector_3" d="M54.7197 56.55C55.3597 55.91 55.8897 55.37 56.4697 54.8C56.6797 55 56.8797 55.18 57.0697 55.37C59.7397 58.04 62.4097 60.7 65.0697 63.38C65.4197 63.73 65.6597 63.83 66.1497 63.57C68.6297 62.26 71.5797 62.83 73.4397 64.91C75.2297 66.91 75.4597 69.92 73.9997 72.19C72.5297 74.47 69.7397 75.49 67.1397 74.68C64.5197 73.87 62.7397 71.43 62.9097 68.68C62.9597 67.83 63.2497 66.96 63.5897 66.16C63.7997 65.66 63.7297 65.42 63.3797 65.08C60.7197 62.44 58.0697 59.78 55.4197 57.13C55.2297 56.94 54.9997 56.77 54.7297 56.54L54.7197 56.55ZM72.5297 68.93C72.5297 66.92 70.8797 65.29 68.8697 65.3C66.8997 65.32 65.2797 66.95 65.2797 68.92C65.2797 70.93 66.9197 72.56 68.9397 72.55C70.8997 72.55 72.5297 70.9 72.5297 68.93Z" fill="#FF6C1A"/>
<path id="Vector_4" d="M20.1799 18.49C19.5999 19.06 19.0699 19.59 18.4899 20.17C18.2899 19.98 18.0899 19.8 17.8999 19.61C15.2499 16.96 12.5899 14.32 9.94985 11.65C9.55985 11.26 9.29985 11.15 8.74985 11.43C6.11985 12.8 2.88985 12 1.14985 9.59C-0.590147 7.18001 -0.330147 3.9 1.76985 1.79C3.82985 -0.289995 7.09985 -0.579995 9.50985 1.1C11.9399 2.8 12.7999 6.02 11.4599 8.67C11.1599 9.27001 11.2599 9.57 11.6899 9.99C14.3399 12.61 16.9699 15.25 19.5999 17.88C19.7899 18.07 19.9799 18.27 20.1799 18.49ZM6.09985 2.43001C4.12985 2.40001 2.45985 4.01 2.42985 5.97C2.39985 7.99 4.00985 9.66 5.99985 9.68001C7.97985 9.70001 9.62985 8.11 9.66985 6.14C9.70985 4.13 8.09985 2.46001 6.08985 2.43001H6.09985Z" fill="#FF6C1A"/>
<path id="Vector_5" d="M56.5898 20.3C55.9198 19.6 55.4098 19.05 54.8398 18.45C54.9898 18.3 55.1598 18.1 55.3498 17.91C58.0198 15.24 60.6798 12.56 63.3598 9.91C63.7398 9.53 63.7998 9.27 63.5298 8.77C62.2398 6.3 62.8398 3.33 64.9398 1.49C66.9598 -0.279998 69.9798 -0.479998 72.2298 1.01C74.5198 2.52 75.5098 5.39 74.6398 7.97C73.7498 10.6 71.2198 12.32 68.4598 12.07C67.6798 12 66.8798 11.73 66.1598 11.41C65.6798 11.19 65.4398 11.22 65.0698 11.58C62.4198 14.27 59.7398 16.93 57.0798 19.6C56.8898 19.79 56.7598 20.05 56.5798 20.31L56.5898 20.3ZM68.8898 2.43C66.9198 2.44 65.2998 4.06 65.2898 6.04C65.2898 8.05 66.9198 9.68 68.9398 9.68C70.8998 9.68 72.5398 8.04 72.5398 6.07C72.5398 4.05 70.8998 2.42 68.8998 2.43H68.8898Z" fill="#FF6C1A"/>
<path id="Vector_6" d="M54.4404 36.28C56.3104 36.28 58.1204 36.26 59.9304 36.29C60.4404 36.29 60.6604 36.14 60.8504 35.66C61.7804 33.34 64.3004 32.14 66.6704 32.84C68.9804 33.52 70.4704 35.87 70.0904 38.21C69.6904 40.67 67.5504 42.45 65.0704 42.3C63.1204 42.18 61.6704 41.21 60.9104 39.4C60.6504 38.78 60.3404 38.66 59.7504 38.67C58.0004 38.7 56.2404 38.68 54.4504 38.68V36.26L54.4404 36.28ZM65.3004 35.07C63.9804 35.05 62.8804 36.13 62.8704 37.44C62.8504 38.76 63.9104 39.86 65.2204 39.9C66.5704 39.93 67.6904 38.84 67.6904 37.49C67.6904 36.17 66.6204 35.09 65.3004 35.07Z" fill="#FF6C1A"/>
<path id="Vector_7" d="M20.5201 36.35V38.7C18.6801 38.7 16.8701 38.71 15.0601 38.7C14.5801 38.7 14.3201 38.79 14.1201 39.3C13.2501 41.49 10.9801 42.7 8.76013 42.25C6.41013 41.77 4.82013 39.84 4.83013 37.48C4.83013 35.14 6.46012 33.21 8.82012 32.75C11.0001 32.32 13.2601 33.55 14.1201 35.69C14.3101 36.18 14.5401 36.32 15.0401 36.31C16.8001 36.28 18.5701 36.31 20.3301 36.31C20.3801 36.31 20.4201 36.34 20.5201 36.37V36.35ZM9.69012 39.9C11.0001 39.9 12.0901 38.8 12.0901 37.49C12.0901 36.17 11.0201 35.08 9.70012 35.07C8.35012 35.05 7.24013 36.17 7.26013 37.51C7.28013 38.83 8.36012 39.9 9.69012 39.89V39.9Z" fill="#FF6C1A"/>
<path id="Vector_8" d="M38.6899 12.06H36.2699C36.2699 11.47 36.2199 10.87 36.2799 10.28C36.3399 9.7 36.1199 9.46 35.5899 9.24C33.5499 8.42 32.3399 6.23 32.6899 4.12C33.0699 1.85 34.8899 0.14 37.0799 -1.61119e-07C39.4099 -0.15 41.4499 1.24 42.1099 3.41C42.8399 5.81 41.6299 8.35 39.2799 9.29C38.8199 9.47 38.6499 9.67 38.6899 10.15C38.7299 10.77 38.6899 11.4 38.6899 12.05V12.06ZM37.4599 7.26C38.7799 7.26 39.8799 6.2 39.8999 4.89C39.9199 3.54 38.8199 2.42 37.4699 2.43C36.1499 2.43 35.0799 3.52 35.0699 4.84C35.0699 6.15 36.1499 7.25 37.4599 7.26Z" fill="#FF6C1A"/>
<path id="Vector_9" d="M36.2705 62.91H38.6905C38.6905 63.56 38.7205 64.18 38.6905 64.8C38.6605 65.27 38.8005 65.49 39.2705 65.67C41.6005 66.59 42.8105 69.07 42.1405 71.47C41.4905 73.8 39.0905 75.34 36.7205 74.93C34.2605 74.51 32.5005 72.37 32.6605 69.88C32.7905 67.94 33.7705 66.5 35.5805 65.74C36.1505 65.5 36.3305 65.21 36.2805 64.63C36.2305 64.08 36.2705 63.53 36.2705 62.9V62.91ZM37.4605 67.72C36.1405 67.74 35.0705 68.82 35.0705 70.14C35.0705 71.49 36.1905 72.58 37.5405 72.55C38.8605 72.52 39.9105 71.42 39.9005 70.1C39.8805 68.79 38.7805 67.71 37.4605 67.73V67.72Z" fill="#FF6C1A"/>
<path id="Vector_10" d="M31.6304 36.21C30.9604 35.72 30.3604 35.28 29.6904 34.79C31.6604 32.28 34.1604 30.92 37.2904 30.86C40.5704 30.8 43.2104 32.15 45.2904 34.79C44.6204 35.28 44.0204 35.72 43.3604 36.2C41.8304 34.34 39.9204 33.26 37.5004 33.27C35.1104 33.27 33.1804 34.29 31.6404 36.21H31.6304Z" fill="#FF6C1A"/>
<path id="Vector_11" d="M41.3102 37.71C40.7102 38.15 40.1102 38.58 39.5202 39.01C37.7402 37.84 36.9602 37.83 35.5002 39.04C34.9002 38.61 34.2702 38.16 33.6602 37.72C35.1302 35.18 39.5502 34.89 41.3102 37.71Z" fill="#FF6C1A"/>
<path id="Vector_12" d="M37.4904 40.52C38.1504 40.52 38.6904 41.08 38.6804 41.73C38.6804 42.38 38.1204 42.93 37.4704 42.92C36.8104 42.92 36.2704 42.36 36.2804 41.71C36.2804 41.05 36.8404 40.51 37.4904 40.52Z" fill="#FF6C1A"/>
</g>
<defs>
<clipPath id="clip0_1817_543">
<rect width="74.96" height="75" fill="white"/>
</clipPath>
</defs>
</svg>
