<svg width="75" height="75" viewBox="0 0 75 75" fill="none" xmlns="http://www.w3.org/2000/svg">
<g id="Layer_1" clip-path="url(#clip0_1823_789)">
<path id="Vector" d="M75 38.3698C74.94 38.5498 74.88 38.7398 74.83 38.9198C74.15 41.7098 71.71 43.6798 68.85 43.7598C66.06 43.8298 63.51 41.9498 62.71 39.2298C62.66 39.0698 62.62 38.9098 62.56 38.7098H57.98C57.64 43.3998 55.93 47.5398 52.88 51.0498C53.99 52.1598 55.05 53.2198 56.13 54.2998C59.7 52.6398 62.85 53.2698 64.75 56.0798C66.46 58.5998 66.08 61.9898 63.87 64.1098C61.67 66.2098 58.27 66.3898 55.8 64.5698C53.82 63.1098 52.16 59.7698 54.28 56.1898C53.2 55.1098 52.14 54.0498 51.02 52.9198C47.58 55.8998 43.45 57.6498 38.67 57.9798C38.67 59.4498 38.65 60.8798 38.7 62.3098C38.7 62.4498 39.05 62.6398 39.27 62.7098C41.94 63.5298 43.78 65.9798 43.78 68.7298C43.78 71.4398 41.99 73.8798 39.41 74.6998C36.13 75.7398 32.6 73.9298 31.55 70.6698C30.48 67.3598 32.3 63.8298 35.61 62.7698C35.84 62.6998 36.07 62.6298 36.31 62.5598V57.9998C31.61 57.6498 27.46 55.9598 23.97 52.9098C22.87 54.0098 21.81 55.0698 20.72 56.1698C22.35 59.9198 21.7 62.9898 18.83 64.8498C16.29 66.4898 12.92 66.0798 10.86 63.8898C8.75004 61.6398 8.59004 58.2298 10.47 55.7698C11.94 53.8298 15.26 52.2198 19.09 54.4698C19.55 53.9498 20.03 53.3798 20.55 52.8398C21.07 52.2998 21.64 51.7898 22.24 51.2098C19.11 47.6098 17.37 43.4798 17.04 38.7398H12.5C10.8 42.7298 8.33004 44.3398 4.98004 43.6498C2.12004 43.0398 0.0100354 40.4498 3.53953e-05 37.5298C-0.0099646 34.5698 2.10004 31.9398 4.96004 31.3598C8.32003 30.6798 10.77 32.2798 12.49 36.2998H17.01C17.35 31.5998 19.05 27.4598 22.1 23.9598C21 22.8598 19.94 21.7998 18.84 20.7098C15.05 22.3098 12.1 21.7098 10.21 18.8898C8.53004 16.3898 8.89004 13.0098 11.06 10.9098C13.22 8.81977 16.55 8.55976 19 10.2798C21.74 12.1898 22.32 15.2398 20.7 18.8598C21.79 19.9398 22.85 21.0098 23.92 22.0798C27.8667 19.4398 31.9834 17.7431 36.27 16.9898V12.4698C36.16 12.4298 36.03 12.3598 35.89 12.3198C33.06 11.5198 31.14 8.98977 31.22 6.14977C31.3 3.18977 33.32 0.789766 36.28 0.139766C36.4 0.109766 36.51 0.0597656 36.62 0.00976562C37.21 0.00976562 37.79 0.00976562 38.38 0.00976562C38.47 0.0497656 38.55 0.0997656 38.65 0.119766C41.7 0.819766 43.7 3.16977 43.78 6.14977C43.85 9.04977 41.97 11.4898 38.97 12.3598C38.88 12.3898 38.8 12.4498 38.74 12.4798V17.0398C43.49 17.3698 47.61 19.1198 51.09 22.1398C52.21 21.0198 53.27 19.9698 54.33 18.9098C52.68 15.2798 53.27 12.2298 56.02 10.2998C58.48 8.56977 61.87 8.87977 64.01 11.0098C66.15 13.1498 66.45 16.5298 64.73 18.9998C62.82 21.7398 59.75 22.3398 56.16 20.7098C55.08 21.7898 54.01 22.8598 52.91 23.9598C55.96 27.4598 57.66 31.5998 58 36.2898H62.58C62.64 36.0898 62.68 35.9298 62.73 35.7598C63.52 33.0698 66.03 31.1998 68.8 31.2298C71.66 31.2698 74.13 33.2198 74.84 35.9998C74.89 36.2098 74.96 36.4198 75.02 36.6298V38.3898L75 38.3698ZM19.33 37.4098C19.3 47.4198 27.39 55.5998 37.34 55.6498C47.45 55.6998 55.64 47.5798 55.66 37.4898C55.68 27.5498 47.56 19.3698 37.64 19.3298C27.54 19.2898 19.36 27.3698 19.33 37.4098ZM2.34004 37.4998C2.34004 39.6398 4.13004 41.4198 6.26004 41.4098C8.43004 41.4098 10.22 39.5898 10.18 37.4298C10.15 35.2898 8.35003 33.5298 6.22004 33.5598C4.07003 33.5898 2.33004 35.3598 2.34004 37.4998ZM37.5 72.6298C39.64 72.6298 41.42 70.8498 41.42 68.7198C41.42 66.5498 39.61 64.7698 37.44 64.7898C35.3 64.8098 33.54 66.6098 33.56 68.7398C33.58 70.8898 35.36 72.6298 37.5 72.6298ZM37.52 2.33977C35.38 2.31977 33.59 4.06977 33.56 6.20977C33.53 8.36977 35.32 10.1698 37.5 10.1798C39.63 10.1798 41.41 8.40977 41.42 6.26977C41.42 4.12977 39.67 2.35977 37.52 2.33977ZM72.65 37.4498C72.64 35.3198 70.85 33.5498 68.71 33.5598C66.56 33.5698 64.81 35.3398 64.81 37.4798C64.81 39.6398 66.57 41.3998 68.7 41.4098C70.87 41.4098 72.65 39.6198 72.64 37.4498H72.65ZM19.33 15.3798C19.31 13.2398 17.54 11.4798 15.4 11.4898C13.24 11.4998 11.5 13.2498 11.51 15.4098C11.51 17.5998 13.29 19.3598 15.48 19.3298C17.62 19.2998 19.36 17.5298 19.34 15.3798H19.33ZM19.33 59.5998C19.33 57.4398 17.6 55.6798 15.46 55.6598C13.28 55.6398 11.49 57.4098 11.5 59.5898C11.5 61.7498 13.24 63.4798 15.41 63.4898C17.56 63.4898 19.33 61.7498 19.34 59.6098L19.33 59.5998ZM63.49 59.5698C63.49 57.4098 61.73 55.6498 59.59 55.6598C57.4 55.6598 55.64 57.4398 55.66 59.6198C55.68 61.7698 57.43 63.4898 59.6 63.4898C61.75 63.4898 63.49 61.7298 63.48 59.5698H63.49ZM59.6 11.5098C57.44 11.5098 55.68 13.2298 55.66 15.3798C55.64 17.5598 57.41 19.3398 59.59 19.3298C61.74 19.3298 63.49 17.5698 63.49 15.4198C63.49 13.2698 61.75 11.5198 59.59 11.5098H59.6Z" fill="#FF6C1A"/>
<path id="Vector_2" d="M37.8796 28.1201C42.1696 28.2101 46.1996 29.8001 49.5597 33.0201C50.0497 33.4901 50.2796 34.0201 49.8896 34.6501C49.5796 35.1501 49.0796 35.2901 48.5496 35.1101C48.2696 35.0101 48.0196 34.7701 47.7896 34.5601C44.7997 31.8101 41.2696 30.4101 37.2096 30.4801C33.4196 30.5501 30.1296 31.9101 27.3196 34.4601C27.1796 34.5901 27.0396 34.7301 26.8896 34.8601C26.3496 35.3001 25.6796 35.2801 25.2396 34.8301C24.7896 34.3601 24.7396 33.6501 25.2896 33.2001C26.5896 32.1501 27.8896 31.0501 29.3296 30.2101C31.8396 28.7401 34.6196 28.1401 37.8796 28.1201Z" fill="#FF6C1A"/>
<path id="Vector_3" d="M37.0797 32.7898C40.8797 32.8598 43.8397 33.9998 46.2597 36.3898C46.5497 36.6798 46.7297 37.2798 46.6597 37.6698C46.5997 37.9898 46.0897 38.4098 45.7497 38.4398C45.3597 38.4698 44.8697 38.2098 44.5497 37.9298C42.5797 36.1598 40.2997 35.1998 37.6497 35.1598C34.9797 35.1198 32.6397 36.0098 30.6297 37.7798C30.4997 37.8898 30.3797 38.0198 30.2497 38.1198C29.6597 38.6098 29.0197 38.6098 28.5497 38.1198C28.0997 37.6398 28.1297 36.9498 28.6597 36.4198C30.3597 34.7198 32.3897 33.6198 34.7297 33.1098C35.6297 32.9198 36.5597 32.8498 37.0697 32.7798L37.0797 32.7898Z" fill="#FF6C1A"/>
<path id="Vector_4" d="M37.4998 48.66C35.6898 48.66 34.2598 47.23 34.2598 45.42C34.2598 43.62 35.7198 42.18 37.5198 42.19C39.2798 42.19 40.7198 43.65 40.7198 45.41C40.7198 47.23 39.3098 48.65 37.4898 48.66H37.4998ZM37.4298 46.31C38.0098 46.31 38.3998 45.92 38.3798 45.43C38.3598 44.88 38.0498 44.58 37.5198 44.54C37.0098 44.5 36.5798 44.95 36.6198 45.46C36.6598 46.01 36.9798 46.28 37.4298 46.31Z" fill="#FF6C1A"/>
<path id="Vector_5" d="M37.5198 37.4902C39.5798 37.5402 41.3798 38.2202 42.8998 39.6202C43.5398 40.2202 43.6298 40.8802 43.1498 41.4202C42.6898 41.9402 41.9798 41.9202 41.3298 41.3702C38.8998 39.3102 36.1098 39.3202 33.6398 41.3902C33.0198 41.9102 32.3398 41.9402 31.8798 41.4502C31.3798 40.9202 31.4398 40.2402 32.0698 39.6502C33.5998 38.2202 35.4298 37.5302 37.5098 37.4902H37.5198Z" fill="#FF6C1A"/>
</g>
<defs>
<clipPath id="clip0_1823_789">
<rect width="75" height="74.98" fill="white"/>
</clipPath>
</defs>
</svg>
