<svg width="75" height="75" viewBox="0 0 75 75" fill="none" xmlns="http://www.w3.org/2000/svg">
<g id="Layer_1" clip-path="url(#clip0_1817_570)">
<path id="Vector" d="M20.94 75C20.11 74.67 19.21 74.45 18.46 73.98C16.51 72.74 15.71 70.85 15.71 68.56C15.71 59.94 15.71 51.33 15.71 42.71C15.71 42.4 15.71 42.08 15.71 41.75C14.78 41.58 14.07 41.61 13.4 42.41C11.67 44.49 9.83 46.48 8.04 48.52C7.63 48.98 7.21 49.38 6.53 49.14C5.84 48.9 5.71 48.33 5.69 47.67C5.65 45.7 5.58 43.73 5.51 41.66C4.89 41.66 4.31 41.66 3.73 41.66C1.38 41.63 0 40.23 0 37.85C0 31.14 0 24.42 0 17.71C0 15.22 1.39 13.83 3.91 13.82C7.52 13.82 11.13 13.82 14.75 13.82C15.04 13.82 15.33 13.82 15.72 13.82C15.72 13.5 15.72 13.24 15.72 12.98C15.72 10.78 15.72 8.59 15.72 6.39C15.74 2.56 18.3 0 22.11 0C32.36 0 42.61 0 52.86 0C56.69 0 59.25 2.54 59.26 6.37C59.28 12.57 59.26 18.77 59.26 24.97C59.26 25.25 59.26 25.54 59.26 25.9H60.15C63.66 25.9 67.18 25.9 70.69 25.9C73.22 25.9 74.01 26.42 74.98 28.71V50.98C74.07 53.7 71.88 53.94 69.45 53.7C69.39 55.79 69.32 57.76 69.27 59.73C69.26 60.36 69.15 60.92 68.51 61.18C67.83 61.44 67.36 61.08 66.93 60.59C65.18 58.59 63.38 56.64 61.68 54.6C61.01 53.79 60.29 53.58 59.27 53.84C59.27 54.12 59.27 54.4 59.27 54.69C59.27 59.32 59.27 63.95 59.27 68.59C59.27 70.96 58.4 72.88 56.33 74.12C55.64 74.54 54.81 74.73 54.04 75.02H20.94V75ZM18.06 41.71V42.49C18.06 51.18 18.06 59.87 18.06 68.56C18.06 71.18 19.57 72.67 22.21 72.67C32.39 72.67 42.56 72.67 52.74 72.67C55.46 72.67 56.92 71.19 56.93 68.45C56.93 63.84 56.93 59.22 56.93 54.61V53.75H55.98C50.17 53.75 44.36 53.75 38.56 53.75C35.95 53.75 34.57 52.38 34.57 49.8C34.57 47.38 34.57 44.97 34.57 42.55C34.57 42.29 34.57 42.03 34.57 41.73H18.07L18.06 41.71ZM66.98 57.05C67.01 56.64 67.03 56.38 67.04 56.12C67.07 55 67.08 53.87 67.13 52.75C67.18 51.77 67.58 51.41 68.56 51.4C69.39 51.4 70.22 51.4 71.05 51.4C72.3 51.4 72.64 51.05 72.64 49.78C72.64 43.14 72.64 36.51 72.64 29.87C72.64 28.59 72.32 28.26 71.05 28.26C60.19 28.26 49.34 28.26 38.48 28.26C37.22 28.26 36.9 28.58 36.9 29.88C36.9 36.47 36.9 43.06 36.9 49.65C36.9 51.12 37.19 51.41 38.64 51.41C46.06 51.41 53.47 51.41 60.89 51.4C61.61 51.4 62.13 51.61 62.6 52.16C63.83 53.61 65.11 55.02 66.38 56.44C66.53 56.61 66.7 56.78 66.97 57.06L66.98 57.05ZM38.07 25.87V25.11C38.07 22.69 38.07 20.28 38.07 17.86C38.07 16.5 37.75 16.18 36.38 16.18C31.82 16.18 27.25 16.18 22.69 16.18C16.44 16.18 10.19 16.18 3.94 16.18C2.67 16.18 2.33 16.53 2.33 17.79C2.33 24.45 2.33 31.12 2.33 37.78C2.33 38.99 2.67 39.33 3.91 39.34C4.69 39.34 5.47 39.34 6.25 39.34C7.45 39.34 7.81 39.69 7.85 40.91C7.89 42.06 7.9 43.2 7.94 44.35C7.94 44.52 7.99 44.69 8.04 44.98C9.52 43.3 10.93 41.75 12.29 40.16C12.79 39.57 13.35 39.32 14.12 39.33C20.59 39.35 27.06 39.34 33.52 39.34C33.83 39.34 34.14 39.34 34.54 39.34C34.54 39.01 34.54 38.75 34.54 38.48C34.54 35.57 34.54 32.67 34.54 29.76C34.54 27.48 35.68 26.18 38.05 25.87H38.07ZM40.41 25.86H56.91V24.94C56.91 20.86 56.91 16.79 56.91 12.71C56.91 10.56 56.93 8.41 56.91 6.27C56.89 3.97 55.35 2.37 53.15 2.37C42.71 2.36 32.26 2.37 21.82 2.37C19.77 2.37 18.17 3.78 18.1 5.83C18 8.44 18.08 11.05 18.09 13.66C18.09 13.7 18.14 13.74 18.22 13.84H19.04C23.8 13.84 28.56 13.92 33.31 13.82C39.71 13.69 40.68 14.16 40.42 20.91C40.36 22.54 40.42 24.18 40.42 25.87L40.41 25.86Z" fill="#FF6C1A"/>
<path id="Vector_2" d="M37.5103 70.8C35.0803 70.8 33.1104 68.86 33.1104 66.45C33.1104 64 35.0803 62.02 37.5303 62.03C39.9303 62.03 41.9004 64.01 41.9004 66.43C41.9004 68.85 39.9404 70.8 37.5204 70.8H37.5103ZM39.5404 66.45C39.5504 65.32 38.6504 64.4 37.5204 64.38C36.4004 64.36 35.4604 65.27 35.4504 66.39C35.4304 67.52 36.3304 68.44 37.4704 68.45C38.6104 68.47 39.5403 67.57 39.5504 66.45H39.5404Z" fill="#FF6C1A"/>
<path id="Vector_3" d="M46.4903 43.52C44.4103 43.53 42.7603 41.92 42.7403 39.85C42.7303 37.75 44.3903 36.07 46.4803 36.07C48.4703 36.07 50.1603 37.76 50.1703 39.76C50.1903 41.82 48.5303 43.5 46.4803 43.51L46.4903 43.52ZM47.8303 39.78C47.8203 39.03 47.1403 38.39 46.4003 38.42C45.6303 38.45 45.0503 39.09 45.0803 39.87C45.1103 40.62 45.7103 41.18 46.4603 41.17C47.2303 41.17 47.8503 40.54 47.8303 39.77V39.78Z" fill="#FF6C1A"/>
<path id="Vector_4" d="M54.7996 43.52C52.7196 43.52 51.0696 41.91 51.0596 39.84C51.0496 37.75 52.7296 36.06 54.8096 36.08C56.8196 36.1 58.4696 37.77 58.4796 39.78C58.4796 41.86 56.8596 43.52 54.7996 43.52ZM56.1396 39.78C56.1296 39.02 55.4796 38.39 54.7296 38.42C53.9996 38.45 53.4096 39.06 53.4096 39.8C53.4096 40.58 54.0096 41.19 54.7896 41.18C55.5696 41.18 56.1596 40.57 56.1496 39.78H56.1396Z" fill="#FF6C1A"/>
<path id="Vector_5" d="M66.8101 39.84C66.7901 41.92 65.1501 43.53 63.0701 43.52C61.0201 43.51 59.3601 41.82 59.3801 39.77C59.4101 37.72 61.0901 36.06 63.1401 36.07C65.1801 36.07 66.8401 37.78 66.8101 39.84ZM64.4701 39.79C64.4701 39.02 63.8301 38.4 63.0701 38.41C62.3501 38.43 61.7301 39.05 61.7201 39.77C61.7001 40.53 62.3201 41.16 63.0901 41.17C63.8701 41.17 64.4701 40.57 64.4601 39.79H64.4701Z" fill="#FF6C1A"/>
<path id="Vector_6" d="M32.2497 27.78C32.2297 29.85 30.5597 31.5 28.5097 31.48C26.4697 31.46 24.7897 29.75 24.8197 27.72C24.8497 25.64 26.5597 23.99 28.6497 24.03C30.6597 24.07 32.2697 25.75 32.2497 27.79V27.78ZM29.9097 27.78C29.9297 27 29.3197 26.38 28.5597 26.37C27.7997 26.37 27.1597 27 27.1597 27.75C27.1597 28.47 27.7697 29.1 28.4897 29.13C29.2497 29.16 29.8897 28.54 29.9097 27.77V27.78Z" fill="#FF6C1A"/>
<path id="Vector_7" d="M11.9401 24.03C13.9401 24.04 15.6201 25.73 15.6101 27.73C15.6101 29.81 13.9001 31.51 11.8301 31.48C9.7701 31.45 8.1501 29.77 8.1801 27.7C8.2001 25.64 9.8701 24.01 11.9401 24.03ZM11.8601 26.37C11.0901 26.39 10.5001 27.02 10.5301 27.8C10.5501 28.54 11.1601 29.14 11.8901 29.14C12.6401 29.14 13.2801 28.49 13.2801 27.74C13.2801 26.98 12.6301 26.36 11.8701 26.37H11.8601Z" fill="#FF6C1A"/>
<path id="Vector_8" d="M16.5002 27.66C16.5502 25.6 18.2201 23.99 20.3001 24.02C22.3401 24.05 23.9802 25.78 23.9202 27.83C23.8602 29.91 22.1702 31.53 20.1202 31.47C18.0702 31.42 16.4502 29.72 16.5002 27.65V27.66ZM20.2402 26.37C19.4702 26.35 18.8502 26.97 18.8402 27.74C18.8402 28.48 19.4101 29.1 20.1401 29.14C20.8902 29.18 21.5501 28.57 21.5701 27.8C21.6002 27.03 21.0001 26.39 20.2301 26.37H20.2402Z" fill="#FF6C1A"/>
<path id="Vector_9" d="M37.4898 5.56C39.1698 5.56 40.8598 5.56 42.5398 5.56C43.4098 5.56 43.9298 6.01 43.9298 6.72C43.9298 7.43 43.3998 7.9 42.5398 7.9C39.1698 7.9 35.8098 7.9 32.4398 7.9C31.5798 7.9 31.0498 7.43 31.0498 6.72C31.0498 6.01 31.5698 5.56 32.4298 5.56C34.1098 5.56 35.7998 5.56 37.4798 5.56H37.4898Z" fill="#FF6C1A"/>
</g>
<defs>
<clipPath id="clip0_1817_570">
<rect width="74.99" height="75" fill="white"/>
</clipPath>
</defs>
</svg>
