<svg width="75" height="75" viewBox="0 0 75 75" fill="none" xmlns="http://www.w3.org/2000/svg">
<g id="Layer_1" clip-path="url(#clip0_1817_481)">
<path id="Vector" d="M74.95 55.66C73.44 55.66 71.92 55.66 70.41 55.65C47.27 55.65 24.13 55.65 0.98 55.65H0V14.51H0.91C25.27 14.51 49.64 14.51 74 14.51C74.32 14.51 74.63 14.51 74.95 14.51V55.67V55.66ZM72.47 53.17V17H2.44V53.18H72.47V53.17Z" fill="#FF6C1A"/>
<path id="Vector_2" d="M53.86 0C55.05 0.28 56.2 0.65 57.14 1.5C58.29 2.54 59.08 3.8 59.13 5.36C59.2 7.57 59.15 9.79 59.15 12.05H56.81V9.72H18.12V12.06H15.81C15.81 12.06 15.71 11.97 15.71 11.94C15.79 9.41 15.6 6.84 16.02 4.37C16.43 1.98 18.29 0.6 20.71 0.11C20.83 0.09 20.94 0.03 21.05 0C31.99 0 42.92 0 53.86 0ZM18.16 7.21H56.74C57.17 4.26 55.4 2.38 52.5 2.4C42.47 2.47 32.43 2.43 22.4 2.43C21.84 2.43 21.27 2.45 20.74 2.59C18.82 3.11 17.92 4.74 18.16 7.2V7.21Z" fill="#FF6C1A"/>
<path id="Vector_3" d="M59.0896 62.95C59.0896 65.4 59.3296 67.84 59.0296 70.21C58.6496 73.12 56.0196 74.99 52.9096 75C48.4196 75.01 43.9296 75 39.4396 75C33.6296 75 27.8296 75 22.0196 75C19.4296 75 17.4496 73.89 16.2996 71.53C15.9696 70.85 15.7696 70.04 15.7396 69.29C15.6696 67.2 15.7096 65.11 15.7096 62.96H59.0796L59.0896 62.95ZM18.1396 65.35C18.1396 66.75 18.1196 68.09 18.1596 69.42C18.1696 69.79 18.3196 70.19 18.4896 70.53C19.2596 72.06 20.5796 72.58 22.2296 72.58C32.3796 72.56 42.5296 72.58 52.6796 72.58C52.9496 72.58 53.2196 72.57 53.4796 72.54C55.0996 72.4 56.4796 71.34 56.6796 69.73C56.8596 68.3 56.7196 66.83 56.7196 65.36H18.1396V65.35Z" fill="#FF6C1A"/>
<path id="Vector_4" d="M18.06 60.45H15.71V58.12H18.06V60.45Z" fill="#FF6C1A"/>
<path id="Vector_5" d="M56.8496 58.1H59.1696V60.44H56.8496V58.1Z" fill="#FF6C1A"/>
<path id="Vector_6" d="M45.9202 29.03V24.24H55.6102V31.43H60.4302V19.39H70.0602V50.77H38.7002V29.02H45.9202V29.03ZM67.6402 48.34V21.86H62.8902V48.34H67.6402ZM48.3802 26.67V48.31H53.1202V26.67H48.3802ZM41.1402 31.51V48.32H45.8902V31.51H41.1402ZM60.4202 33.91H55.6502V48.33H60.4202V33.91Z" fill="#FF6C1A"/>
<path id="Vector_7" d="M36.2501 35.11C36.2001 43.78 29.0401 50.9 20.4501 50.81C11.7801 50.72 4.76013 43.66 4.79013 35.05C4.82013 26.39 11.9801 19.27 20.5801 19.35C29.2401 19.43 36.3001 26.53 36.2501 35.11ZM11.9601 45.19C12.9801 43.73 13.9501 42.3 14.9801 40.91C15.3501 40.41 15.3301 40.1 14.9201 39.62C12.5601 36.86 12.7801 32.62 15.3401 30.04C16.4401 28.93 17.7601 28.27 19.2401 27.95V21.87C13.7001 22.49 9.21013 26.22 7.74013 31.37C6.31013 36.4 8.02013 42.07 11.9601 45.19ZM17.4101 41.63C16.2601 43.27 15.1101 44.92 13.9201 46.62C18.1901 48.84 22.4201 49.05 26.6201 46.86C30.8301 44.67 33.1301 41.08 33.7701 36.34H27.6601C27.1601 38.59 25.9701 40.37 23.9001 41.46C21.8301 42.55 19.7101 42.61 17.4001 41.63H17.4101ZM33.7101 33.81C33.3901 27.74 27.9701 22.3 21.7901 21.87V27.91C24.9901 28.67 26.9301 30.65 27.6801 33.8H33.7001L33.7101 33.81ZM25.3401 35.1C25.3601 32.44 23.2101 30.25 20.5401 30.24C17.9101 30.22 15.6801 32.44 15.6901 35.08C15.6901 37.7 17.8301 39.85 20.4801 39.9C23.1301 39.95 25.3201 37.79 25.3501 35.11L25.3401 35.1Z" fill="#FF6C1A"/>
<path id="Vector_8" d="M31.46 67.77H43.45V70.11H31.46V67.77Z" fill="#FF6C1A"/>
</g>
<defs>
<clipPath id="clip0_1817_481">
<rect width="74.95" height="75" fill="white"/>
</clipPath>
</defs>
</svg>
