<svg width="75" height="75" viewBox="0 0 75 75" fill="none" xmlns="http://www.w3.org/2000/svg">
<g id="Layer_1" clip-path="url(#clip0_1817_595)">
<path id="Vector" d="M23.4103 62.95C22.8703 63.53 22.3603 64.11 21.8203 64.65C20.5503 65.94 18.9903 66.71 17.1903 66.54C14.7103 66.3 12.8603 67.14 11.2403 69.01C9.65027 70.85 7.81027 72.48 6.10027 74.22C5.90027 74.42 5.80027 74.7 5.62027 75C4.91027 74.22 4.39027 73.65 3.82027 73.04C3.93027 72.92 4.09027 72.73 4.27027 72.56C6.38027 70.45 8.50027 68.36 10.5803 66.23C12.0103 64.77 13.7003 64.03 15.7503 64.11C16.1103 64.12 16.4703 64.09 16.8303 64.11C18.2403 64.2 19.3803 63.71 20.3303 62.66C20.6003 62.36 20.9403 62.12 21.4303 61.7C20.9603 61.67 20.7503 61.64 20.5403 61.64C18.5903 61.64 16.6403 61.64 14.6803 61.64C12.3203 61.64 10.7603 60.08 10.7603 57.73C10.7603 52.8 10.7603 47.87 10.7603 42.94C10.7603 41.77 11.1503 40.8 11.9903 39.97C13.3403 38.64 14.7103 37.31 16.0203 35.93C17.2803 34.6 16.7503 32.6 15.0403 32.13C14.2903 31.92 13.5803 32.06 13.0303 32.6C10.7403 34.85 8.46027 37.11 6.22027 39.41C5.96027 39.68 5.86027 40.2 5.86027 40.61C5.83027 43.87 5.82027 47.13 5.86027 50.4C5.88027 52.33 5.24027 53.96 3.86027 55.31C3.18027 55.97 2.54027 56.67 1.87027 57.36C1.25027 56.75 0.700273 56.19 0.0302734 55.52C0.720273 54.87 1.41027 54.23 2.10027 53.58C2.99027 52.74 3.40027 51.72 3.39027 50.48C3.37027 47.17 3.39027 43.85 3.38027 40.54C3.38027 39.31 3.79027 38.3 4.66027 37.44C6.53027 35.6 8.36027 33.73 10.2303 31.9C10.6303 31.51 10.7903 31.13 10.7903 30.56C10.7703 21.78 10.7803 12.99 10.7803 4.21C10.7603 1.44 12.2003 0 14.9803 0C24.5103 0 34.0403 0 43.5703 0C46.2903 0 47.7403 1.46 47.7403 4.2C47.7403 9.34 47.7403 14.47 47.7403 19.65C49.0003 19.77 50.2603 19.81 51.4803 20.01C61.5503 21.64 68.7903 27.12 72.7503 36.48C79.1903 51.69 70.5203 69.07 54.5003 73.06C46.7603 74.99 39.1003 74.44 31.9503 70.46C28.7203 68.66 26.0003 66.27 23.7503 63.34C23.6703 63.24 23.5803 63.15 23.4103 62.96V62.95ZM20.6203 22.19V23.23C20.6203 30.91 20.6203 38.59 20.6203 46.27C20.6203 47.24 20.6403 48.22 20.7503 49.19C21.7503 57.97 26.1503 64.54 33.9203 68.69C40.4803 72.19 47.5103 72.37 54.5303 70.52C66.9303 67.24 74.7103 54.07 71.8403 41.64C69.1603 30.01 59.3703 22.21 47.4203 22.2C38.7603 22.2 30.1103 22.2 21.4503 22.2H20.6103L20.6203 22.19ZM18.4103 2.46C17.2403 2.46 16.1203 2.46 14.9903 2.46C13.5803 2.46 13.2203 2.82 13.2203 4.24C13.2203 12.46 13.2203 20.67 13.2203 28.89C13.2203 29.16 13.2203 29.43 13.2203 29.74C15.1703 29.32 16.7403 29.88 18.1603 31.32V19.71H45.2803V18.79C45.2803 15.94 45.2803 13.09 45.2803 10.24C45.2803 8.13 45.2803 6.03 45.2803 3.92C45.2803 3.01 44.8603 2.49 44.0503 2.47C42.7403 2.44 41.4403 2.47 40.0903 2.47C39.9103 3.15 39.7503 3.79 39.5803 4.43C39.0903 6.33 37.7403 7.4 35.7903 7.4C31.4203 7.4 27.0603 7.4 22.6903 7.4C20.7403 7.4 19.4003 6.33 18.9103 4.43C18.7403 3.79 18.5803 3.15 18.4003 2.48L18.4103 2.46ZM21.0703 59.17C21.0003 58.97 20.9603 58.82 20.8903 58.69C18.9803 54.77 18.1003 50.62 18.1503 46.26C18.1803 43.56 18.1503 40.87 18.1503 38.17V37.31C16.5503 38.91 15.0403 40.37 13.5903 41.89C13.3303 42.16 13.2303 42.68 13.2303 43.09C13.2003 45.94 13.2103 48.79 13.2103 51.64C13.2103 53.67 13.2103 55.7 13.2103 57.73C13.2103 58.64 13.6403 59.16 14.4503 59.17C16.6303 59.2 18.8103 59.17 21.0503 59.17H21.0703ZM37.5203 2.5H20.9903C21.1203 3.03 21.2303 3.52 21.3703 4C21.5503 4.62 21.9903 4.93 22.6303 4.93C27.0403 4.93 31.4603 4.93 35.8703 4.93C36.5403 4.93 36.9903 4.6 37.1603 3.95C37.2803 3.48 37.3903 3.01 37.5203 2.5Z" fill="#FF6C1A"/>
<path id="Vector_2" d="M67.4698 44.38C66.6498 44.38 65.9098 44.37 65.1798 44.38C64.3298 44.4 63.7898 44.88 63.7898 45.6C63.7898 46.3 64.3498 46.82 65.1798 46.84C65.9198 46.86 66.6598 46.84 67.4898 46.84C67.4898 48.18 67.4898 49.45 67.4898 50.73C67.4898 51.89 67.4998 53.04 67.4898 54.2C67.4598 56.32 65.8998 57.93 63.7898 57.94C52.2798 57.95 40.7798 57.95 29.2698 57.94C27.2598 57.94 25.6198 56.4 25.5798 54.44C25.5298 51.95 25.5698 49.46 25.5698 46.85C26.2998 46.85 26.9998 46.85 27.7098 46.85C28.6598 46.85 29.2498 46.36 29.2598 45.61C29.2598 44.85 28.6898 44.39 27.7198 44.39C27.0298 44.39 26.3398 44.39 25.5698 44.39C25.5698 42.92 25.5698 41.52 25.5698 40.12C25.5698 39.09 25.5598 38.07 25.5698 37.04C25.5998 34.92 27.1698 33.31 29.2698 33.31C40.7798 33.3 52.2798 33.3 63.7898 33.31C65.7998 33.31 67.4298 34.85 67.4798 36.81C67.5398 39.3 67.4898 41.79 67.4898 44.4L67.4698 44.38ZM39.1098 55.48H39.7498C47.6398 55.48 55.5198 55.48 63.4098 55.48C63.5398 55.48 63.6698 55.48 63.7998 55.48C64.5098 55.41 64.9798 55.02 64.9898 54.31C65.0298 52.67 64.9998 51.03 64.9998 49.4C62.6098 48.89 61.3398 47.61 61.3098 45.69C61.2698 43.71 62.4998 42.42 65.0098 41.83C65.0098 40.41 65.0098 38.97 65.0098 37.54C65.0098 36.12 64.6498 35.76 63.2398 35.76C55.4798 35.76 47.7298 35.76 39.9698 35.76C39.6998 35.76 39.4298 35.76 39.0698 35.76V38.18H36.6198V35.76C34.0998 35.76 31.6598 35.74 29.2198 35.76C28.5098 35.76 28.0398 36.21 28.0298 36.92C27.9898 38.56 28.0198 40.2 28.0198 41.83C30.4198 42.33 31.6798 43.61 31.7098 45.53C31.7398 47.51 30.5198 48.8 28.0098 49.4C28.0098 50.9 28.0098 52.41 28.0098 53.92C28.0098 55.03 28.4398 55.46 29.5398 55.47C31.6198 55.47 33.6998 55.47 35.7798 55.47C36.0498 55.47 36.3198 55.47 36.6798 55.47V53.05H39.0998V55.47L39.1098 55.48Z" fill="#FF6C1A"/>
<path id="Vector_3" d="M15.6897 13.54C15.4597 10.82 16.5597 9.81002 19.3997 9.82002C22.1897 9.82002 23.1397 10.78 23.1397 13.56C23.1397 16.35 22.2397 17.33 19.3497 17.32C16.6897 17.31 15.4597 16.44 15.6997 13.55L15.6897 13.54ZM20.5897 12.37H18.1997V14.74H20.5897V12.37Z" fill="#FF6C1A"/>
<path id="Vector_4" d="M25.5498 13.52C25.3198 10.76 26.4898 9.64004 29.1898 9.85004C29.6198 9.89004 30.0598 9.85004 30.4998 9.85004C31.8798 9.90004 32.9098 10.92 32.9398 12.31C32.9598 13.13 32.9598 13.95 32.9398 14.77C32.8998 16.2 31.8698 17.2 30.4198 17.23C29.6498 17.25 28.8798 17.24 28.1098 17.23C26.5898 17.21 25.5698 16.17 25.5498 14.65C25.5498 14.27 25.5498 13.88 25.5498 13.5V13.52ZM30.4498 12.37H28.0698V14.74H30.4498V12.37Z" fill="#FF6C1A"/>
<path id="Vector_5" d="M39.1001 17.2601C36.3401 17.4801 35.3701 16.3701 35.3701 13.5601C35.3701 10.7501 36.3501 9.81006 39.1001 9.81006C41.9101 9.81006 42.8801 10.7301 42.8701 13.5901C42.8701 16.2901 41.9701 17.4901 39.1101 17.2501L39.1001 17.2601ZM40.3101 12.3701H37.9301V14.7301H40.3101V12.3701Z" fill="#FF6C1A"/>
<path id="Vector_6" d="M58.8097 39.5V41.88H41.6396V39.5H58.8097Z" fill="#FF6C1A"/>
<path id="Vector_7" d="M51.4096 49.37V51.74H41.6396V49.37H51.4096Z" fill="#FF6C1A"/>
<path id="Vector_8" d="M51.4096 44.4399V46.8099H41.6396V44.4399H51.4096Z" fill="#FF6C1A"/>
<path id="Vector_9" d="M53.96 44.42H58.79V46.8H53.96V44.42Z" fill="#FF6C1A"/>
<path id="Vector_10" d="M53.9502 51.73V49.36H58.7902V51.73H53.9502Z" fill="#FF6C1A"/>
<path id="Vector_11" d="M36.71 46.87H39.05V50.5H36.71V46.87Z" fill="#FF6C1A"/>
<path id="Vector_12" d="M39.0602 44.35H36.7002V40.72H39.0602V44.35Z" fill="#FF6C1A"/>
</g>
<defs>
<clipPath id="clip0_1817_595">
<rect width="74.9" height="75" fill="white"/>
</clipPath>
</defs>
</svg>
