<svg width="75" height="74" viewBox="0 0 75 74" fill="none" xmlns="http://www.w3.org/2000/svg">
<g id="Layer_1" clip-path="url(#clip0_1817_586)">
<path id="Vector" d="M44.1302 29.9901C44.5802 29.9901 44.9002 29.9901 45.2302 29.9901C53.8002 29.9901 62.3602 29.9901 70.9302 29.9901C73.0702 29.9901 74.5202 31.0801 74.9202 32.9601C74.9902 33.3001 75.0002 33.6601 75.0002 34.0101C75.0002 42.2501 75.0002 50.4901 75.0002 58.7201C75.0002 61.2101 73.4802 62.7301 71.0102 62.7301C62.3902 62.7301 53.7802 62.7301 45.1602 62.7301H44.1402C44.1402 63.5601 44.1402 64.3501 44.1402 65.1501C44.1102 67.6201 43.2502 69.73 41.4102 71.3901C39.8902 72.7601 38.0902 73.4701 36.0402 73.4801C26.7402 73.4901 17.4502 73.5001 8.15017 73.4801C3.60017 73.4701 0.0401693 69.8701 0.0201693 65.2801C-0.00983073 58.9101 0.0201693 52.5301 0.0201693 46.1601C0.0201693 33.7401 0.0201693 21.3201 0.0201693 8.90005C0.0101693 4.80005 2.58017 1.55005 6.48017 0.700054C7.16017 0.550054 7.88017 0.500054 8.58017 0.500054C17.5702 0.490054 26.5702 0.490054 35.5602 0.500054C39.7802 0.500054 42.9902 2.96005 43.9002 6.88005C44.0702 7.63005 44.1302 8.43005 44.1302 9.20005C44.1502 15.8001 44.1302 22.4001 44.1302 29.0001C44.1302 29.3001 44.1302 29.5901 44.1302 29.9901ZM2.47017 13.2401V60.4501H41.6702V13.2401H2.47017ZM44.1902 57.2901V60.3101H44.9302C53.5702 60.3101 62.2102 60.3101 70.8502 60.3101C72.1902 60.3101 72.5802 59.9101 72.5802 58.5301C72.5802 50.4401 72.5802 42.3601 72.5802 34.2701C72.5802 32.7501 72.2302 32.4001 70.7202 32.4001C62.1602 32.4001 53.5902 32.4001 45.0302 32.4001C44.7602 32.4001 44.4902 32.4001 44.1902 32.4001V35.4401C44.5402 35.4401 44.8402 35.4401 45.1402 35.4401C50.9602 35.4401 56.7802 35.4401 62.6002 35.4401C63.8402 35.4401 64.1702 35.7401 64.2802 36.9601C64.4402 38.7201 65.8102 40.0801 67.5802 40.2301C68.7202 40.3301 69.0802 40.7101 69.0902 41.8601C69.0902 44.8601 69.0902 47.8601 69.0902 50.8501C69.0902 52.0001 68.7402 52.3601 67.5902 52.4701C65.8602 52.6301 64.4702 53.9801 64.2902 55.6801C64.1502 57.0201 63.8502 57.2901 62.4702 57.2901C57.1302 57.2901 51.7902 57.2901 46.4502 57.2901H44.2202H44.1902ZM2.43017 62.9401C2.43017 63.7001 2.43017 64.3801 2.43017 65.0501C2.44017 68.6201 4.89017 71.0601 8.48017 71.0601C17.5502 71.0601 26.6202 71.0601 35.6902 71.0601C39.8502 71.0601 42.4902 67.7201 41.5802 62.9301H2.43017V62.9401ZM2.48017 10.7301H41.6702C41.6702 9.81005 41.7602 8.92005 41.6502 8.06005C41.2802 5.00005 38.9602 2.97005 35.8302 2.92005C34.3202 2.89005 32.8102 2.92005 31.3002 2.92005C23.6902 2.92005 16.0802 2.92005 8.48017 2.92005C5.31017 2.92005 2.94017 4.87005 2.50017 7.89005C2.37017 8.80005 2.48017 9.74005 2.48017 10.7401V10.7301ZM44.1602 54.8501H61.6702C62.3602 53.7601 62.8302 52.6601 63.6202 51.8801C64.4202 51.0801 65.5402 50.5801 66.6602 49.8601C66.6602 47.8101 66.6502 45.5201 66.6702 43.2301C66.6702 42.7501 66.5402 42.5401 66.0602 42.3901C64.1402 41.7801 62.8002 40.5001 62.1802 38.5901C61.9802 37.9601 61.6902 37.8601 61.1202 37.8701C55.7602 37.8901 50.3902 37.8801 45.0302 37.8801H44.1902V39.9801C47.5002 38.9301 50.3102 39.6101 52.3602 42.3901C54.0702 44.7101 54.2202 47.3101 52.7402 49.7701C50.7702 53.0401 47.7902 53.8601 44.1702 52.7801V54.8501H44.1602ZM44.1302 46.3501C44.1302 47.3801 44.1002 48.4101 44.1502 49.4401C44.1602 49.7001 44.3602 50.0601 44.5802 50.2001C46.3602 51.3101 48.7702 50.8901 50.1802 49.2501C51.5902 47.6001 51.6002 45.1801 50.2002 43.5001C48.8302 41.8601 46.3802 41.4101 44.6102 42.5101C44.3702 42.6601 44.1702 43.0501 44.1602 43.3301C44.1102 44.3301 44.1402 45.3401 44.1402 46.3501H44.1302Z" fill="#FF6C1A"/>
<path id="Vector_2" d="M74.7297 13.74C74.7497 21.37 68.6097 27.54 60.9797 27.55C53.3897 27.56 47.1997 21.42 47.1797 13.85C47.1597 6.22005 53.3097 0.0200487 60.8997 4.87213e-05C68.5297 -0.0199513 74.7097 6.12005 74.7297 13.74ZM60.9597 25.13C67.2397 25.13 72.2897 20.09 72.3097 13.81C72.3297 7.51005 67.2497 2.41005 60.9497 2.41005C54.6597 2.41005 49.5797 7.51005 49.5897 13.81C49.5897 20.06 54.6897 25.1301 60.9597 25.1201V25.13Z" fill="#FF6C1A"/>
<path id="Vector_3" d="M36.6496 37.01C36.6496 45.08 30.0996 51.61 22.0196 51.59C13.9496 51.57 7.40956 44.99 7.43956 36.95C7.46956 28.91 14.0696 22.37 22.1196 22.4C30.1296 22.43 36.6496 28.99 36.6396 37.02L36.6496 37.01ZM34.2296 37C34.2296 30.25 28.7596 24.8 22.0196 24.81C15.3396 24.82 9.85956 30.31 9.85956 37C9.85956 43.72 15.3496 49.19 22.0896 49.17C28.8096 49.15 34.2296 43.71 34.2296 37Z" fill="#FF6C1A"/>
<path id="Vector_4" d="M22.0104 68.07C20.8504 68.07 19.7004 68.08 18.5404 68.07C17.6904 68.06 17.1904 67.6 17.1904 66.88C17.1904 66.16 17.6904 65.67 18.5304 65.67C20.8704 65.65 23.2104 65.65 25.5504 65.67C26.4404 65.67 26.9504 66.17 26.9304 66.92C26.9104 67.64 26.4104 68.07 25.5504 68.08C24.3704 68.09 23.1904 68.08 22.0004 68.08L22.0104 68.07Z" fill="#FF6C1A"/>
<path id="Vector_5" d="M22.0803 5.23999C23.7103 5.23999 25.3503 5.23999 26.9803 5.23999C27.8903 5.23999 28.4203 5.67999 28.4303 6.40999C28.4403 7.13999 27.9203 7.63999 27.0303 7.64999C23.7103 7.65999 20.3903 7.66999 17.0703 7.64999C16.1703 7.64999 15.6803 7.14999 15.7103 6.38999C15.7403 5.65999 16.2103 5.25999 17.1003 5.24999C18.7603 5.23999 20.4203 5.24999 22.0803 5.24999V5.23999Z" fill="#FF6C1A"/>
<path id="Vector_6" d="M59.0303 45.16C59.7003 45.16 60.2203 45.68 60.2103 46.35C60.2103 47.01 59.6803 47.56 59.0403 47.58C58.3703 47.6 57.7803 47 57.8003 46.33C57.8203 45.68 58.3703 45.16 59.0303 45.16Z" fill="#FF6C1A"/>
<path id="Vector_7" d="M62.3097 6.62994C63.8997 7.08994 64.9697 7.99994 65.2397 9.66994C65.3797 10.5499 65.0397 11.1899 64.3597 11.3399C63.6097 11.4999 63.0597 11.0599 62.8797 10.1399C62.7197 9.33994 62.1797 8.94994 61.2097 8.93994C60.1997 8.93994 59.3397 9.49994 59.1597 10.2899C58.9797 11.0799 59.3197 11.8299 60.0797 12.1499C60.5597 12.3499 61.0897 12.4599 61.5997 12.5699C63.3697 12.9399 64.8697 13.6799 65.4397 15.5599C66.0197 17.4799 65.5597 19.8899 62.2797 20.8199C62.2797 21.1099 62.2997 21.4399 62.2797 21.7599C62.2197 22.5199 61.6997 23.0199 61.0097 22.9799C60.3497 22.9499 59.8497 22.4599 59.8897 21.7199C59.9297 21.0399 59.7097 20.7499 59.0497 20.4899C57.4197 19.8599 56.6197 18.5199 56.4397 16.8199C56.3597 16.1199 56.8197 15.5499 57.4597 15.4399C58.0897 15.3399 58.6697 15.7699 58.8297 16.4599C59.2497 18.2799 60.4497 18.9399 62.1797 18.2999C62.7597 18.0799 63.1797 17.7299 63.2197 17.0499C63.2697 16.2699 63.0097 15.6199 62.2697 15.3199C61.6697 15.0799 61.0197 14.9599 60.3797 14.8099C58.0297 14.2599 56.6997 12.7699 56.7197 10.6499C56.7397 8.83994 57.6797 7.61994 59.3097 6.92994C59.6697 6.77994 59.9497 6.64994 59.8597 6.18994C59.6697 5.12994 60.4297 4.54994 61.0897 4.55994C61.8597 4.57994 62.2497 5.14994 62.2797 6.25994C62.2797 6.35994 62.2897 6.45994 62.2997 6.62994H62.3097Z" fill="#FF6C1A"/>
<path id="Vector_8" d="M19.1903 36.9C21.0003 34.86 22.7803 32.87 24.5503 30.88C25.1803 30.17 25.9303 29.7 26.8903 29.65C28.3103 29.57 29.4103 30.15 30.0603 31.41C30.7203 32.69 30.5803 33.97 29.6303 35.07C27.7703 37.22 25.8603 39.33 23.9703 41.46C23.1303 42.4 22.3203 43.36 21.4703 44.29C20.1803 45.7 19.0003 45.79 17.5303 44.55C16.2203 43.44 14.9403 42.31 13.6903 41.14C12.2903 39.82 12.2103 37.77 13.4603 36.39C14.7103 35 16.7203 34.86 18.2203 36.07C18.5303 36.32 18.8303 36.6 19.2103 36.92L19.1903 36.9ZM19.3903 42.98C19.5803 42.76 19.7003 42.63 19.8203 42.5C22.1203 39.9 24.4303 37.3 26.7303 34.7C27.1003 34.29 27.4803 33.89 27.8203 33.45C28.1403 33.03 28.1303 32.51 27.6703 32.27C27.3803 32.12 26.9103 32.26 26.5303 32.33C26.3903 32.36 26.2903 32.57 26.1703 32.7C24.2603 34.84 22.3603 36.99 20.4503 39.13C19.6703 40 19.0903 40.03 18.2003 39.25C17.6903 38.8 17.1903 38.34 16.6703 37.9C16.1903 37.5 15.6803 37.52 15.2603 37.99C14.8603 38.44 14.9103 38.95 15.3303 39.34C16.6403 40.55 17.9903 41.72 19.3903 42.97V42.98Z" fill="#FF6C1A"/>
</g>
<defs>
<clipPath id="clip0_1817_586">
<rect width="75" height="73.49" fill="white"/>
</clipPath>
</defs>
</svg>
