<svg width="75" height="75" viewBox="0 0 75 75" fill="none" xmlns="http://www.w3.org/2000/svg">
<g id="Layer_1" clip-path="url(#clip0_1819_731)">
<path id="Vector" d="M0.00046875 68.69C0.0804687 67.6 0.190469 66.51 0.240469 65.42C0.510469 60.11 0.770469 54.79 1.03047 49.48C1.05047 48.99 1.07047 48.5 1.13047 48.02C1.32047 46.39 2.34047 45.24 3.93047 44.83C4.07047 44.79 4.21047 44.76 4.38047 44.72C4.18047 43.88 3.97047 43.08 3.79047 42.28C3.19047 39.59 4.72047 37.07 7.33047 36.43C9.94047 35.79 12.4905 37.32 13.1805 39.98C13.9805 43.07 14.7405 46.17 15.5105 49.27C16.3205 52.53 17.1405 55.8 17.9505 59.06C18.6405 61.84 17.1805 64.46 14.5705 65.14C11.8805 65.84 9.34047 64.29 8.59047 61.49C8.46047 61 8.30047 60.5 8.22047 60C8.14047 59.45 7.91047 59.23 7.32047 59.25C5.91047 59.3 4.49047 59.27 3.00047 59.27C2.94047 60.22 2.87047 61.14 2.83047 62.05C2.70047 64.66 2.58047 67.27 2.46047 69.87C2.39047 71.44 3.34047 72.53 4.90047 72.54C9.61047 72.56 14.3205 72.54 19.0305 72.54C19.1005 72.54 19.1705 72.52 19.3605 72.49C19.3605 71.81 19.3605 71.11 19.3605 70.42C19.3705 68.7 20.3205 67.73 22.0305 67.72C25.3705 67.71 28.7205 67.71 32.0605 67.72C32.5605 67.72 32.8005 67.61 32.9905 67.08C33.8305 64.64 35.5505 63.12 38.1405 62.95C40.8905 62.78 43.6505 62.87 46.4105 62.86C48.7705 62.86 50.7005 61.96 52.0505 60.03C52.5705 59.29 52.9605 58.4 53.1605 57.52C53.6805 55.2 54.7005 53.22 56.5605 51.7C56.7005 51.59 56.8405 51.4 56.8505 51.24C56.8805 50.3 56.8605 49.35 56.8605 48.36C55.1605 48.29 53.6805 47.82 52.4005 46.79C50.7105 45.44 49.7305 43.69 49.6605 41.51C49.6005 39.81 49.6505 38.1 49.6505 36.27C48.1105 36.35 46.6905 36.23 45.6805 35.01C45.0105 35.29 44.7505 35.72 44.7705 36.44C44.8105 38.22 44.8305 40.01 44.7205 41.78C44.4705 45.46 41.2905 48.33 37.5505 48.34C33.7805 48.35 30.5805 45.47 30.3405 41.75C30.2205 39.93 30.2705 38.09 30.2805 36.26C30.2805 35.8 30.1305 35.5 29.7705 35.22C27.9905 33.82 26.1705 32.45 24.4705 30.95C18.9705 26.1 16.9305 20 18.8505 12.94C20.7605 5.92 25.5905 1.72 32.7405 0.25C33.1705 0.17 33.6505 0.09 34.1305 0C36.3805 0 38.6205 0 40.8705 0C41.3905 0.1 41.9205 0.2 42.4405 0.29C50.4105 1.61 56.7005 8.91 56.8305 17C56.8505 18.16 56.8305 19.32 56.8305 20.56C57.8805 20.56 59.0705 20.56 60.2605 20.56C71.3105 20.66 78.3205 32.03 73.3905 41.88C71.7805 45.09 69.2305 47.31 65.9905 48.77C65.4505 49.02 65.1405 49.3 65.3905 49.96C66.9105 50.42 68.3005 51.17 69.4005 52.36C72.4905 55.68 74.4205 59.6 74.7905 64.11C75.0805 67.65 74.9305 71.23 74.9705 74.79C74.9705 74.85 74.9105 74.91 74.8905 74.95H55.6105V69.16C53.5505 70.47 51.5005 71.52 49.2305 71.93C46.9705 72.34 44.6705 72.51 42.3305 72.8C41.9705 74.37 41.1905 74.99 39.4405 74.99C38.5405 74.99 37.6305 74.99 36.7305 74.99C26.1905 74.99 15.6405 74.99 5.10047 74.99C2.57047 74.99 0.850469 73.69 0.120469 71.28C0.0904687 71.19 0.0304688 71.12 -0.0195312 71.04C-0.0195312 70.26 -0.0195312 69.48 -0.0195312 68.7L0.00046875 68.69ZM32.6305 20.31C31.0805 20.55 29.5705 20.8 28.1405 20.07C26.6705 19.33 25.7505 18.15 25.4905 16.52C25.0905 13.98 26.6105 11.66 29.0405 11.04C30.2205 10.74 31.3705 10.86 32.4505 11.43C34.3605 12.44 35.1105 14.14 35.1205 16.26C35.1905 16.28 35.2605 16.3 35.3305 16.31C36.0405 15.55 36.7405 14.78 37.5705 13.9C38.3505 14.74 39.0605 15.5 39.8705 16.36C39.9205 15.83 39.9405 15.45 39.9905 15.07C40.2705 12.57 42.7405 10.62 45.2305 10.92C47.8705 11.24 49.7805 13.46 49.5905 15.99C49.3905 18.7 47.3005 20.6 44.5605 20.54C43.8405 20.52 43.1205 20.42 42.4005 20.36V33.82C43.5405 33.89 44.7605 32.85 44.8205 31.79C45.1005 26.88 48.6305 22.49 53.4405 21.09C53.8905 20.96 54.1205 20.76 54.2105 20.28C55.5505 12.85 51.2505 5.59 44.0805 3.2C40.7505 2.09 37.2905 2.16 33.9305 2.58C27.5605 3.38 23.1705 7 21.2905 13.14C19.4005 19.34 21.0905 24.75 25.9505 29.08C27.7405 30.67 29.6605 32.1 31.5405 33.57C31.8105 33.78 32.2205 33.81 32.6405 33.95V20.3L32.6305 20.31ZM42.3505 70.09C50.4605 70.91 59.3605 66.04 61.7905 56.58C62.5305 56.77 63.2805 56.95 64.0605 57.15C63.2805 60.21 61.9305 62.88 59.9605 65.24C59.3305 66 58.4305 66.66 58.1205 67.52C57.8005 68.43 58.0505 69.55 58.0505 70.57C58.0505 71.22 58.0505 71.86 58.0505 72.51H72.5705C72.5705 70.44 72.5905 68.42 72.5705 66.4C72.5105 61.91 71.0305 57.95 68.1305 54.52C66.1905 52.23 63.1405 51.39 60.3005 52.37C57.5805 53.31 56.1505 55.31 55.5105 58.07C54.6605 61.78 52.3205 64.21 48.6005 65.01C46.8905 65.38 45.0605 65.23 43.2905 65.31C42.9905 65.32 42.6805 65.31 42.3605 65.31V70.08L42.3505 70.09ZM65.3605 46.35C65.5205 46.29 65.6405 46.25 65.7405 46.2C70.4005 43.91 73.0205 39.1 72.4905 33.79C72.0205 28.97 68.3405 24.74 63.5305 23.41C61.7805 22.93 60.0005 22.96 58.2305 23.01C56.9705 23.04 55.6805 23.04 54.4605 23.32C50.3005 24.28 47.2005 28.21 47.1705 32.39C47.1705 33.23 47.5205 33.76 48.1905 33.84C48.6405 33.89 49.1005 33.84 49.5305 33.84C50.0505 31.21 51.2405 30.24 53.8405 30.24C54.2105 30.24 54.5705 30.24 54.9405 30.24C57.1405 30.24 59.3305 30.22 61.5305 30.24C63.5705 30.26 64.9305 31.43 65.2905 33.43C65.3205 33.57 65.3505 33.7 65.3705 33.83C67.9205 34.12 68.8705 35.91 68.9405 37.38C69.0305 39.28 67.8505 40.53 65.3505 41.21V46.35H65.3605ZM62.8905 36.3C62.8905 35.52 62.8905 34.82 62.8905 34.12C62.8705 33.07 62.4605 32.67 61.4105 32.67C58.8005 32.67 56.1905 32.67 53.5805 32.67C52.4205 32.67 52.0205 33.08 52.0205 34.27C52.0205 36.44 52.0205 38.61 52.0205 40.79C52.0205 43.92 54.0705 45.95 57.2105 45.97C57.8805 45.97 58.5605 45.97 59.3105 45.97V50.03C60.5305 49.85 61.6805 49.67 62.9405 49.48V38.69C63.7605 38.69 64.4605 38.69 65.1705 38.69C66.0305 38.67 66.5305 38.23 66.5305 37.5C66.5305 36.77 66.0305 36.31 65.1805 36.3C64.4605 36.29 63.7305 36.3 62.9105 36.3H62.8905ZM15.7105 60.32C15.6905 60.2 15.6505 59.91 15.5805 59.63C14.6205 55.75 13.6505 51.87 12.6805 48C12.0705 45.54 11.4605 43.08 10.8305 40.63C10.4505 39.16 9.11047 38.41 7.74047 38.83C6.42047 39.24 5.82047 40.52 6.21047 42.09C7.27047 46.35 8.33047 50.6 9.40047 54.86C9.93047 56.96 10.4305 59.07 11.0005 61.17C11.3405 62.4 12.4505 63.05 13.7105 62.87C14.8405 62.7 15.7005 61.7 15.7005 60.34L15.7105 60.32ZM37.4805 17.54C36.8705 18.01 36.2905 18.53 35.6405 18.95C35.2105 19.22 35.0705 19.51 35.0705 20C35.0905 24.36 35.0805 28.73 35.0805 33.09C35.0805 33.33 35.0805 33.56 35.0805 33.81H39.8405C39.8705 33.71 39.9105 33.64 39.9105 33.57C39.9105 28.94 39.9205 24.31 39.9105 19.68C39.9105 19.5 39.7805 19.27 39.6305 19.15C38.9405 18.61 38.2305 18.1 37.4805 17.54ZM21.8305 72.52H39.8705V70.2H21.8305V72.52ZM32.7105 41.16C32.6405 43.82 35.0205 46.08 37.6805 45.96C40.2905 45.84 42.5705 43.46 42.2405 41.16H32.7005H32.7105ZM7.38047 56.81C7.33047 56.54 7.30047 56.35 7.25047 56.16C6.56047 53.39 5.87047 50.63 5.16047 47.86C5.10047 47.61 4.90047 47.19 4.78047 47.2C4.47047 47.21 4.08047 47.34 3.88047 47.56C3.66047 47.81 3.55047 48.21 3.53047 48.55C3.42047 50.08 3.33047 51.62 3.28047 53.16C3.24047 54.37 3.28047 55.57 3.28047 56.8H7.39047L7.38047 56.81ZM32.7305 36.33V38.64H42.3105V36.33H32.7305ZM32.6605 16.46C32.6605 16.14 32.6805 15.82 32.6605 15.51C32.5505 14.28 31.5505 13.34 30.3305 13.31C29.0905 13.28 28.0305 14.16 27.8605 15.36C27.6905 16.58 28.4205 17.75 29.6305 18.02C30.1605 18.14 30.7405 18.11 31.2905 18.04C32.6805 17.87 32.6805 17.85 32.6705 16.46H32.6605ZM42.3205 16.45C42.3205 16.45 42.3305 16.45 42.3405 16.45C42.3405 16.62 42.3705 16.8 42.3405 16.96C42.2205 17.61 42.5205 17.91 43.1405 17.96C43.7205 18.01 44.3005 18.14 44.8805 18.12C46.1505 18.08 47.1305 17.04 47.1805 15.81C47.2205 14.55 46.2905 13.45 45.0705 13.32C43.7705 13.18 42.6205 14.01 42.3905 15.28C42.3205 15.66 42.3505 16.06 42.3305 16.45H42.3205ZM39.8605 67.69V65.35C37.4605 65.16 35.7305 66.07 35.4405 67.69H39.8605Z" fill="#FF6C1A"/>
</g>
<defs>
<clipPath id="clip0_1819_731">
<rect width="75" height="74.99" fill="white"/>
</clipPath>
</defs>
</svg>
