<svg width="75" height="75" viewBox="0 0 75 75" fill="none" xmlns="http://www.w3.org/2000/svg">
<g id="Layer_1" clip-path="url(#clip0_1829_2)">
<path id="Vector" d="M43.55 41.14H26.61C26.61 41.42 26.61 41.69 26.61 41.95C26.61 44.7 26.61 47.44 26.61 50.19C26.61 51.78 25.83 52.85 24.47 53.16C23.22 53.45 22.04 52.81 21.36 51.46C19.77 48.29 18.17 45.12 16.62 41.93C16.33 41.34 16.02 41.09 15.32 41.1C11.94 41.15 8.57 41.12 5.19 41.12C2.02 41.12 0 39.09 0 35.92C0 25.69 0 15.46 0 5.23C0 2 2.01 0 5.24 0C18.7 0 32.15 0 45.61 0C48.79 0 50.81 2.02 50.81 5.19C50.81 9.6 50.81 14.01 50.81 18.42V19.35H51.72C57.72 19.35 63.71 19.35 69.71 19.35C73 19.35 75 21.33 75 24.6C75 39.64 75 54.68 75 69.72C75 72.99 73 74.98 69.72 74.98C62.74 74.98 55.76 74.98 48.78 74.98C45.56 74.98 43.55 72.96 43.55 69.74C43.55 60.52 43.55 51.3 43.55 42.08V41.13V41.14ZM24.2 38.68H43.55C43.55 38.32 43.55 38.05 43.55 37.77C43.55 33.26 43.55 28.75 43.55 24.24C43.55 22.04 44.91 20.2 46.95 19.57C47.4 19.43 47.87 19.37 48.38 19.27C48.38 19.07 48.38 18.87 48.38 18.67C48.38 14.16 48.38 9.65 48.38 5.14C48.38 3.35 47.42 2.41 45.61 2.41C32.13 2.41 18.65 2.41 5.17 2.41C3.37 2.41 2.41 3.37 2.41 5.15C2.41 15.4 2.41 25.66 2.41 35.91C2.41 37.76 3.34 38.69 5.2 38.69C9.08 38.69 12.96 38.7 16.84 38.68C17.44 38.68 17.76 38.82 18.04 39.4C19.76 42.93 21.53 46.43 23.3 49.94C23.45 50.24 23.75 50.47 23.97 50.73C24.04 50.4 24.16 50.08 24.17 49.75C24.18 46.1 24.17 42.45 24.17 38.67L24.2 38.68ZM46.03 31.49V58.01H72.55V31.49H46.03ZM45.98 60.51C45.98 63.68 45.98 66.78 45.98 69.87C45.98 71.62 46.94 72.57 48.7 72.57C55.75 72.57 62.81 72.57 69.86 72.57C71.62 72.57 72.58 71.61 72.59 69.87C72.59 66.97 72.59 64.08 72.59 61.18C72.59 60.96 72.56 60.74 72.55 60.5H45.98V60.51ZM72.59 29.01C72.59 27.47 72.59 26.01 72.59 24.55C72.59 22.74 71.65 21.79 69.85 21.78C66.83 21.78 63.8 21.78 60.78 21.78C56.7 21.78 52.62 21.78 48.54 21.78C47.23 21.78 46.13 22.54 46.05 23.74C45.93 25.48 46.02 27.24 46.02 29.01H72.59Z" fill="#FF6C1A"/>
<path id="Vector_2" d="M21.7699 59.3301C21.7399 61.3001 20.0899 62.9001 18.1199 62.89C16.1199 62.88 14.4899 61.2101 14.5199 59.2001C14.5499 57.2001 16.2399 55.59 18.2499 55.64C20.2199 55.69 21.7999 57.3501 21.7699 59.3301ZM18.1099 58.0601C17.4499 58.0801 16.9199 58.65 16.9399 59.3C16.9599 59.95 17.5299 60.4901 18.1799 60.4701C18.8299 60.4501 19.3699 59.8801 19.3499 59.2301C19.3299 58.58 18.7599 58.0401 18.1099 58.0601Z" fill="#FF6C1A"/>
<path id="Vector_3" d="M31.4502 59.24C31.4602 61.25 29.8102 62.9 27.8102 62.89C25.8402 62.89 24.2102 61.26 24.2002 59.29C24.1902 57.28 25.8302 55.64 27.8402 55.64C29.8202 55.64 31.4402 57.27 31.4502 59.24ZM27.8502 60.47C28.5002 60.45 29.0402 59.89 29.0202 59.24C29.0002 58.59 28.4402 58.05 27.7902 58.07C27.1402 58.09 26.6002 58.65 26.6202 59.3C26.6402 59.95 27.2002 60.49 27.8502 60.47Z" fill="#FF6C1A"/>
<path id="Vector_4" d="M37.5102 62.89C35.5002 62.89 33.8602 61.25 33.8702 59.24C33.8802 57.27 35.5102 55.64 37.4802 55.64C39.4902 55.64 41.1302 57.28 41.1202 59.29C41.1102 61.26 39.4802 62.89 37.5102 62.89ZM37.5102 58.06C36.8602 58.05 36.3002 58.59 36.2902 59.24C36.2802 59.89 36.8202 60.45 37.4702 60.46C38.1202 60.47 38.6802 59.93 38.6902 59.28C38.7002 58.63 38.1602 58.07 37.5102 58.06Z" fill="#FF6C1A"/>
<path id="Vector_5" d="M36.2896 26.5499C38.0896 26.9499 38.7096 27.7199 38.7096 29.5099C38.7096 30.1399 38.7196 30.7699 38.7096 31.3999C38.6796 32.8199 37.6796 33.8599 36.2796 33.8599C28.2196 33.8699 20.1596 33.8699 12.0996 33.8599C10.7296 33.8599 9.72955 32.8299 9.68955 31.4599C9.66955 30.8299 9.68955 30.1999 9.68955 29.5699C9.68955 27.7099 10.2596 26.9799 12.1096 26.5299C12.1096 24.7099 12.1296 22.8699 12.1096 21.0399C12.0696 17.5399 13.5296 14.8899 16.5696 13.1099C16.7596 12.9999 16.9296 12.6999 16.9396 12.4799C16.9796 11.5999 16.9496 10.7199 16.9596 9.83994C16.9696 8.28994 17.9596 7.26994 19.4996 7.25994C22.6496 7.24994 25.7996 7.24994 28.9496 7.25994C30.4596 7.25994 31.4496 8.26994 31.4796 9.76994C31.4896 10.6299 31.4996 11.4799 31.4796 12.3399C31.4696 12.7299 31.5696 12.9499 31.9396 13.1699C34.8596 14.8799 36.3196 17.4399 36.3296 20.8299C36.3296 22.7199 36.3296 24.6099 36.3296 26.5499H36.2896ZM33.8696 26.5799C33.8696 24.4799 33.8996 22.4699 33.8696 20.4599C33.8196 17.1899 31.1996 14.5699 27.9296 14.5299C25.4396 14.4899 22.9396 14.4999 20.4496 14.5299C17.5796 14.5699 15.0396 16.5999 14.6896 19.4399C14.4196 21.5999 14.5596 23.8099 14.5296 25.9999C14.5296 26.1899 14.5596 26.3799 14.5796 26.5899H33.8796L33.8696 26.5799ZM12.1296 31.4099H36.2496V29.0799H12.1296V31.4099ZM19.3896 12.0999H28.9996V9.70994H19.3896V12.0999Z" fill="#FF6C1A"/>
<path id="Vector_6" d="M65.1299 38.63C65.7099 37.98 66.2399 37.38 66.8299 36.71C67.4399 37.24 68.0299 37.76 68.6399 38.3C68.0799 38.94 67.5899 39.55 67.0399 40.11C66.7099 40.45 66.6899 40.72 66.8999 41.16C69.1999 46.08 66.4599 51.72 61.1699 53.01C56.6099 54.12 51.8499 51.06 50.9599 46.46C50.0499 41.72 53.1899 37.17 57.8599 36.43C60.6099 35.99 62.9799 36.78 65.1199 38.64L65.1299 38.63ZM59.4099 48.84C58.2899 47.72 57.2099 46.64 56.1499 45.58C56.6399 45.07 57.1699 44.52 57.8099 43.85C58.2799 44.38 58.7199 44.89 59.1899 45.42C60.6799 43.71 62.0999 42.1 63.5099 40.48C61.1399 38.17 57.5199 38.13 55.1699 40.31C52.7899 42.52 52.5599 46.15 54.6399 48.64C56.6899 51.09 60.2899 51.5 62.8699 49.59C65.0599 47.96 66.0299 44.54 64.7899 42.7C62.9799 44.77 61.1699 46.83 59.3999 48.84H59.4099Z" fill="#FF6C1A"/>
<path id="Vector_7" d="M59.2603 70.15C58.1003 70.15 56.9403 70.15 55.7803 70.15C54.2303 70.13 53.2403 69.14 53.2203 67.59C53.2203 66.86 53.2103 66.13 53.2203 65.4C53.2403 63.94 54.2403 62.91 55.6803 62.9C58.0703 62.88 60.4703 62.88 62.8603 62.9C64.2703 62.91 65.2703 63.93 65.3103 65.34C65.3303 66.12 65.3303 66.9 65.3103 67.68C65.2803 69.13 64.2703 70.11 62.8103 70.15C62.7803 70.15 62.7603 70.15 62.7303 70.15C61.5703 70.15 60.4103 70.15 59.2503 70.15H59.2603ZM62.8503 67.69V65.36H55.6803V67.69H62.8503Z" fill="#FF6C1A"/>
<path id="Vector_8" d="M50.8398 26.55V24.23H58.0298V26.55H50.8398Z" fill="#FF6C1A"/>
<path id="Vector_9" d="M60.5303 24.23H62.8503V26.56H60.5303V24.23Z" fill="#FF6C1A"/>
<path id="Vector_10" d="M67.7001 26.58H65.3701V24.24H67.7001V26.58Z" fill="#FF6C1A"/>
<path id="Vector_11" d="M32.5204 20.02C31.7704 20.39 31.1104 20.73 30.5904 20.99C29.5004 19.9 28.4904 18.89 27.4004 17.8C27.6604 17.27 28.0104 16.59 28.3704 15.87C30.2204 16.82 31.5604 18.17 32.5304 20.03L32.5204 20.02Z" fill="#FF6C1A"/>
</g>
<defs>
<clipPath id="clip0_1829_2">
<rect width="75" height="74.99" fill="white"/>
</clipPath>
</defs>
</svg>
