<svg width="75" height="75" viewBox="0 0 75 75" fill="none" xmlns="http://www.w3.org/2000/svg">
<g id="Layer_1" clip-path="url(#clip0_1819_733)">
<path id="Vector" d="M26.0101 72.4599H30.6001C30.6001 72.0999 30.6001 71.7699 30.6001 71.4399C30.6001 62.8299 30.6001 54.2299 30.6001 45.6199C30.6001 44.0199 30.8301 43.7899 32.4601 43.7899C34.3801 43.7899 36.3001 43.7899 38.2101 43.7899C39.5101 43.7899 39.8301 44.1199 39.8301 45.3799C39.8301 47.7599 39.8301 61.3199 39.8301 63.6999C39.8301 64.6399 39.4401 65.1299 38.6901 65.1499C37.9201 65.1699 37.5001 64.6599 37.4901 63.6799C37.4901 61.5799 37.4901 48.3199 37.4901 46.1799H32.9901V72.4399H37.4901V71.6199C37.4901 67.5199 37.4901 63.4299 37.4901 59.3299C37.4901 59.0699 37.4701 58.8099 37.5201 58.5499C37.6401 57.9199 38.0601 57.6099 38.6801 57.6099C39.2901 57.6099 39.7101 57.9399 39.8101 58.5699C39.8501 58.8199 39.8301 59.0899 39.8301 59.3499C39.8301 63.4199 39.8301 67.4899 39.8301 71.5599C39.8301 71.8399 39.8301 72.1199 39.8301 72.4399H44.3901V71.4299C44.3901 60.2799 44.3901 49.1399 44.3901 37.9899C44.3901 37.6999 44.3801 37.4199 44.4001 37.1399C44.4701 36.3299 44.8301 35.9599 45.6401 35.9499C47.8901 35.9299 50.1501 35.9299 52.4001 35.9499C53.3001 35.9499 53.6501 36.3899 53.6501 37.4399C53.6501 41.8999 53.6501 46.3599 53.6501 50.8199C53.6501 51.0999 53.6501 51.3799 53.6501 51.5499C55.0701 50.8599 56.5101 50.1999 57.9101 49.4699C58.0901 49.3799 58.1801 48.9699 58.1801 48.6999C58.2001 43.1799 58.1901 37.6599 58.1901 32.1399C58.1901 31.2599 58.1801 30.3799 58.1901 29.4999C58.2101 28.5099 58.5701 28.1199 59.5501 28.1199C61.7301 28.0999 63.9001 28.1099 66.0801 28.1199C67.0701 28.1199 67.4501 28.5099 67.4501 29.4899C67.4501 34.5699 67.4501 45.0099 67.4501 50.0899C67.4501 51.0199 67.0301 51.4899 66.2501 51.4799C65.4701 51.4799 65.1201 51.0399 65.1101 50.0499C65.1101 45.6199 65.1101 35.8299 65.1101 31.3999C65.1101 31.1199 65.1101 30.8399 65.1101 30.5199H60.5701V48.8499C67.1501 48.7399 71.9401 51.4499 74.2401 57.7299C75.9001 62.2799 74.8401 68.2499 69.5101 72.4999C70.7801 72.4999 71.9001 72.4999 73.0101 72.4999C73.3201 72.4999 73.6401 72.4799 73.9401 72.5199C74.5401 72.5999 74.8601 72.9799 74.9001 73.5699C74.9401 74.1899 74.6601 74.6299 74.0501 74.7899C73.7801 74.8599 73.4801 74.8399 73.2001 74.8399C49.3601 74.8399 25.5201 74.8399 1.67006 74.8399C1.44006 74.8399 1.20006 74.8599 0.970062 74.8199C0.310062 74.7099 -0.0399381 74.2899 -0.00993811 73.6299C0.0100619 72.9699 0.370062 72.5599 1.05006 72.5199C1.64006 72.4899 2.23006 72.5199 2.92006 72.5199C2.92006 72.1699 2.92006 71.8899 2.92006 71.6099C2.92006 67.3599 2.92006 63.1099 2.92006 58.8599C2.92006 57.6099 3.24006 57.2799 4.47006 57.2799C6.49006 57.2799 8.51006 57.2799 10.5301 57.2799C11.8301 57.2799 12.1401 57.5799 12.1501 58.8699C12.1501 63.0699 12.1501 67.2699 12.1501 71.4699C12.1501 71.7799 12.1501 72.0799 12.1501 72.4499H16.7401C16.7401 72.1199 16.7401 71.8199 16.7401 71.5199C16.7401 65.5099 16.7401 59.4899 16.7401 53.4799C16.7401 52.0499 16.9901 51.7999 18.4001 51.7899C20.3401 51.7899 22.2901 51.7899 24.2301 51.7899C25.7201 51.7899 25.9601 52.0299 25.9601 53.4899C25.9601 59.4799 25.9601 65.4699 25.9601 71.4499C25.9601 71.7599 25.9601 72.0699 25.9601 72.4699L26.0101 72.4599ZM51.3201 61.7899C51.3101 67.6899 56.0601 72.4799 61.9501 72.4999C67.7701 72.5099 72.5901 67.7599 72.6301 61.9899C72.6701 56.1699 67.8001 51.2199 62.0201 51.1899C56.0701 51.1699 51.3401 55.8599 51.3201 61.7899ZM54.4501 72.4499C54.1901 72.2199 54.0301 72.0699 53.8601 71.9299C48.6101 67.6399 47.4301 60.4699 51.0301 54.7299C51.2201 54.4299 51.3101 54.0099 51.3101 53.6499C51.3301 48.8099 51.3201 43.9599 51.3201 39.1199C51.3201 38.8699 51.3001 38.6199 51.2901 38.3299H46.8001V72.4599H54.4701L54.4501 72.4499ZM19.1901 54.1499V72.4499H23.6001V54.1499H19.1901ZM9.78006 72.4599V59.6599H5.34006V72.4599H9.78006Z" fill="#FF6C1A"/>
<path id="Vector_2" d="M28.46 29.62C27.96 29.38 27.04 29.03 26.23 28.51C25.41 27.98 24.76 27.87 23.97 28.56C23.49 28.97 22.86 29.22 22.27 29.49C21.84 29.69 21.64 29.95 21.66 30.44C21.69 31.22 21.69 32 21.66 32.77C21.6 34.11 20.65 35.15 19.31 35.21C17.68 35.28 16.05 35.28 14.42 35.21C13.12 35.15 12.18 34.12 12.12 32.81C12.08 32.03 12.08 31.26 12.12 30.48C12.14 30.03 11.98 29.79 11.57 29.59C10.76 29.19 10.01 28.67 9.21001 28.27C8.94001 28.14 8.52001 28.1 8.25001 28.21C7.56001 28.5 6.93001 28.93 6.27001 29.27C4.78001 30.03 3.40001 29.62 2.54001 28.2C1.86001 27.07 1.18001 25.94 0.520007 24.79C-0.379993 23.23 -0.0699933 21.73 1.52001 20.89C3.07001 20.08 4.02001 19.22 3.79001 17.2C3.66001 16.08 3.64001 15.29 2.48001 14.92C2.14001 14.81 1.84001 14.58 1.53001 14.4C0.110007 13.57 -0.339993 12.04 0.450007 10.59C1.08001 9.42996 1.76001 8.29996 2.42001 7.14996C3.37001 5.50996 5.08001 5.05996 6.74001 6.00996C7.37001 6.36996 7.97001 6.78996 8.61001 7.10996C8.82001 7.21996 9.19001 7.19996 9.41001 7.07996C10.2 6.63996 10.98 6.16996 11.71 5.64996C11.95 5.47996 12.17 5.11996 12.2 4.81996C12.27 4.12996 12.2 3.41996 12.23 2.71996C12.25 1.04996 13.29 0.0199601 14.95 0.00996009C16.35 -3.9909e-05 17.75 -0.0100399 19.15 0.00996009C20.72 0.0299601 21.77 1.08996 21.8 2.64996C21.81 3.47996 21.56 4.43996 21.9 5.09996C22.22 5.69996 23.26 5.86996 23.83 6.39996C24.72 7.22996 25.5 7.17996 26.38 6.44996C26.75 6.13996 27.21 5.91996 27.65 5.69996C29 5.01996 30.44 5.42996 31.21 6.72996C31.95 7.97996 32.68 9.22996 33.37 10.5C34.17 11.96 33.76 13.36 32.35 14.24C31.62 14.69 30.64 14.97 30.24 15.62C29.87 16.22 30.25 17.23 30.09 18.01C29.83 19.23 30.31 19.83 31.37 20.32C34.33 21.72 34.27 23.48 32.79 25.66C32.22 26.49 31.76 27.4 31.23 28.26C30.71 29.11 29.96 29.61 28.47 29.62H28.46ZM31.14 12.1C30.36 10.74 29.62 9.42996 28.85 8.14996C28.79 8.04996 28.43 8.01996 28.29 8.09996C27.65 8.43996 27.04 8.82996 26.42 9.19996C25.27 9.88996 24.18 9.82996 23.09 9.03996C22.46 8.58996 21.8 8.17996 21.1 7.83996C19.86 7.21996 19.19 6.29996 19.24 4.88996C19.27 4.06996 19.24 3.24996 19.24 2.34996C17.68 2.34996 16.23 2.32996 14.78 2.36996C14.62 2.36996 14.35 2.69996 14.34 2.88996C14.29 3.60996 14.31 4.33996 14.32 5.06996C14.33 6.30996 13.76 7.16996 12.67 7.74996C11.85 8.17996 11.05 8.66996 10.29 9.18996C9.33001 9.83996 8.38001 9.91996 7.38001 9.34996C6.66001 8.93996 5.95001 8.50996 5.25001 8.07996C4.90001 7.85996 4.65001 7.87996 4.43001 8.26996C3.81001 9.37996 3.18001 10.48 2.53001 11.57C2.29001 11.97 2.44001 12.17 2.79001 12.37C3.44001 12.74 4.07001 13.16 4.72001 13.52C5.74001 14.08 6.17001 14.94 6.12001 16.08C6.08001 17.04 6.06001 18 6.12001 18.95C6.19001 20.18 5.69001 21.04 4.66001 21.65C4.04001 22.02 3.40001 22.37 2.81001 22.78C2.64001 22.9 2.46001 23.29 2.53001 23.42C3.24001 24.77 4.00001 26.08 4.77001 27.47C5.69001 26.95 6.55001 26.48 7.40001 25.99C8.35001 25.43 9.27001 25.52 10.18 26.09C10.99 26.59 11.82 27.08 12.64 27.56C13.63 28.14 14.21 28.96 14.19 30.15C14.18 30.85 14.21 31.55 14.19 32.25C14.17 32.71 14.33 32.91 14.81 32.9C16.05 32.88 17.3 32.88 18.54 32.9C19.04 32.9 19.16 32.68 19.14 32.23C19.12 31.53 19.13 30.83 19.14 30.13C19.16 28.98 19.72 28.2 20.74 27.68C21.57 27.26 22.39 26.81 23.14 26.27C24.16 25.53 25.16 25.43 26.25 26.05C27.06 26.51 27.87 26.96 28.72 27.44C29.49 26.12 30.24 24.86 30.94 23.57C31.02 23.42 30.84 22.98 30.66 22.86C30.02 22.42 29.32 22.08 28.66 21.68C27.66 21.07 27.23 20.17 27.33 18.99C27.39 18.17 27.46 17.32 27.35 16.51C27.17 15.06 27.71 14.06 28.96 13.37C29.68 12.98 30.38 12.55 31.15 12.1H31.14Z" fill="#FF6C1A"/>
<path id="Vector_3" d="M60.9099 15.45C59.3999 17.18 58.0299 18.84 56.5799 20.42C46.4799 31.38 34.6199 39.76 20.4899 44.74C15.3199 46.56 10.0099 47.8 4.56989 48.43C3.64989 48.54 2.92989 48.1 2.84989 47.4C2.77989 46.77 3.42989 46.18 4.30989 46.08C8.53989 45.6 12.6899 44.72 16.7599 43.49C27.2199 40.34 36.5499 35.11 44.9799 28.21C50.0299 24.08 54.5999 19.46 58.6499 14.34C58.7799 14.18 58.8899 14.01 59.1099 13.71C57.6599 13.89 56.3499 14.05 55.0399 14.21C54.1199 14.32 53.4399 13.95 53.3299 13.28C53.2199 12.59 53.8099 11.99 54.7599 11.88C57.0199 11.62 59.2899 11.36 61.5499 11.11C62.3999 11.02 62.8399 11.43 62.9599 12.47C63.1399 14.07 63.2799 15.67 63.4399 17.26C63.4799 17.7 63.5299 18.14 63.5699 18.57C63.6499 19.47 63.2799 20 62.5199 20.09C61.8199 20.17 61.3499 19.74 61.2399 18.85C61.1099 17.75 61.0099 16.65 60.8899 15.42L60.9099 15.45Z" fill="#FF6C1A"/>
<path id="Vector_4" d="M63.1403 55.6C63.1403 55.7 63.1503 55.81 63.1403 55.91C62.9903 57.03 63.2203 57.79 64.3803 58.42C66.0903 59.35 66.6203 61.57 65.8303 63.41C65.6403 63.85 65.6803 64.11 66.0103 64.42C66.4003 64.79 66.7703 65.2 67.1203 65.62C67.5803 66.18 67.5603 66.76 67.1103 67.22C66.6703 67.67 65.9503 67.75 65.5203 67.22C64.5903 66.1 63.6303 65.66 62.0503 65.93C60.1303 66.26 58.3103 64.69 57.8703 62.83C57.3903 60.8 58.3403 58.76 60.2303 57.94C60.7103 57.73 60.8203 57.49 60.8003 57.02C60.7703 56.01 60.7803 55 60.8003 53.99C60.8103 53.19 61.2503 52.73 61.9503 52.72C62.6703 52.72 63.0903 53.15 63.1203 53.96C63.1403 54.5 63.1203 55.05 63.1203 55.59L63.1403 55.6ZM63.8103 61.81C63.8003 60.76 62.9703 59.94 61.9303 59.96C60.9003 59.98 60.0703 60.83 60.0803 61.86C60.1003 62.9 60.9303 63.7 61.9803 63.69C63.0403 63.68 63.8203 62.88 63.8103 61.81Z" fill="#FF6C1A"/>
<path id="Vector_5" d="M16.7504 24.8101C12.8604 24.7901 9.64041 21.5401 9.65041 17.6501C9.65041 13.6801 12.7904 10.5601 16.7704 10.5601C20.7204 10.5601 23.9704 13.8301 23.9204 17.7401C23.8704 21.7201 20.7104 24.8201 16.7504 24.8101ZM16.8304 12.7801C14.2204 12.7601 12.0004 14.9401 11.9804 17.5301C11.9604 20.1701 14.0904 22.3401 16.7304 22.3701C19.3804 22.4101 21.5204 20.3001 21.5704 17.6201C21.6104 15.0001 19.4504 12.7901 16.8304 12.7701V12.7801Z" fill="#FF6C1A"/>
</g>
<defs>
<clipPath id="clip0_1819_733">
<rect width="75" height="74.84" fill="white"/>
</clipPath>
</defs>
</svg>
