<svg width="73" height="75" viewBox="0 0 73 75" fill="none" xmlns="http://www.w3.org/2000/svg">
<g id="Layer_1" clip-path="url(#clip0_1821_758)">
<path id="Vector" d="M13.7504 73.62C10.7104 73.62 8.41044 73.31 6.26044 72.3C2.53044 70.55 0.630437 67.49 0.140437 63.5C-0.409563 58.99 0.640437 54.71 2.30044 50.6C3.53044 47.55 5.08044 44.61 6.52044 41.65C6.73044 41.22 6.77044 40.97 6.44044 40.57C4.91044 38.71 4.91044 35.96 6.44044 34.13C6.79044 33.72 6.73044 33.46 6.49044 33.06C4.34044 29.45 2.54044 25.68 1.36044 21.64C0.290437 17.9 -0.329563 14.12 0.410437 10.24C1.46044 4.73002 5.34044 1.38002 10.9504 1.02002C14.0904 0.820019 17.1504 1.26002 20.1704 2.08002C20.6404 2.21002 20.9004 2.16002 21.2204 1.77002C22.6804 0.0300188 24.8804 -0.449981 27.0104 0.430019C29.0904 1.29002 30.3104 3.18002 30.1504 5.41002C30.1004 6.01002 30.3004 6.25002 30.7904 6.53002C32.5204 7.51002 34.2204 8.52002 35.9004 9.57002C36.3604 9.86002 36.6604 9.88002 37.1304 9.57002C41.4804 6.71002 46.0304 4.24002 50.9904 2.60002C54.5504 1.42002 58.1704 0.720019 61.9604 1.01002C68.0204 1.47002 72.2504 5.66002 72.8004 11.7C73.2404 16.58 72.0004 21.12 70.2304 25.57C68.7404 29.31 66.8204 32.84 64.5804 36.18C63.9904 37.06 64.0404 37.61 64.6104 38.47C67.9104 43.41 70.5204 48.67 71.9604 54.47C72.7804 57.78 73.1404 61.12 72.5104 64.52C71.4904 69.99 67.5904 73.37 62.0204 73.69C59.1304 73.85 56.3004 73.49 53.5104 72.77C53.0504 72.65 52.8304 72.74 52.5404 73.1C51.0904 74.91 48.8904 75.46 46.7204 74.61C44.5304 73.75 43.3104 71.82 43.5004 69.47C43.5404 68.96 43.3804 68.75 42.9604 68.51C41.0904 67.45 39.2104 66.39 37.3904 65.23C36.7404 64.82 36.3304 64.79 35.6804 65.23C31.0804 68.35 26.1804 70.89 20.8004 72.41C19.6204 72.74 18.4304 73.02 17.2204 73.22C15.8504 73.44 14.4504 73.54 13.7504 73.62ZM14.3904 40.63C14.4604 40.73 14.5004 40.82 14.5604 40.9C20.7004 48.85 27.8304 55.76 36.0304 61.57C36.4904 61.9 36.7604 61.72 37.1104 61.47C46.2804 54.94 54.1204 47.1 60.6504 37.93C60.9804 37.47 60.9704 37.19 60.6504 36.73C55.3804 29.28 49.1504 22.73 42.0904 16.97C40.2904 15.51 38.4104 14.15 36.5604 12.74C27.9904 18.74 20.6504 25.83 14.3704 34.01C15.9204 36.34 15.9204 38.35 14.3904 40.63ZM38.5004 11.29C47.9004 18.04 55.8004 25.96 62.4504 35.2C62.5604 35.06 62.6404 34.97 62.7004 34.87C65.3104 30.77 67.5604 26.48 69.0604 21.84C70.1804 18.39 70.8904 14.88 70.4304 11.22C69.9204 7.16002 67.3804 4.36002 63.4204 3.56002C61.5304 3.18002 59.6204 3.20002 57.7204 3.46002C53.7804 4.00002 50.0504 5.27002 46.5104 7.02002C43.8404 8.33002 41.2504 9.82002 38.5104 11.29H38.5004ZM8.90044 42.25C7.28044 44.48 4.54044 50.57 3.51044 54.21C2.71044 57.01 2.25044 59.84 2.48044 62.76C2.80044 66.98 5.21044 70.01 9.13044 71C11.0504 71.49 13.0104 71.48 14.9704 71.26C18.9004 70.8 22.6104 69.57 26.1404 67.85C28.9404 66.49 31.6604 64.95 34.5604 63.41C34.1404 63.1 33.9304 62.94 33.7104 62.78C29.0704 59.44 24.7204 55.74 20.8004 51.58C18.0504 48.66 15.5104 45.55 12.8604 42.53C12.7004 42.35 12.3704 42.11 12.2004 42.16C11.0904 42.51 9.99044 42.52 8.90044 42.24V42.25ZM38.5704 63.34C40.6004 64.52 42.5304 65.65 44.4804 66.78C46.1804 64.89 48.1804 64.3 50.4504 65.2C52.7704 66.11 53.8104 67.93 53.7104 70.39C55.9304 71.23 60.2404 71.67 62.5104 71.3C66.8404 70.59 69.4004 68.34 70.2504 64.45C70.8804 61.56 70.5704 58.7 69.9004 55.86C68.5104 50 65.8104 44.73 62.6004 39.69C62.5604 39.63 62.4904 39.61 62.4004 39.55C55.7904 48.76 47.8604 56.66 38.5804 63.35L38.5704 63.34ZM19.9704 4.43002C16.5204 3.50002 13.0704 2.83002 9.52044 3.59002C5.89044 4.36002 3.62044 6.58002 2.76044 10.22C2.22044 12.5 2.33044 14.8 2.73044 17.08C3.66044 22.46 5.91044 27.34 8.60044 32.03C8.80044 32.39 9.02044 32.37 9.37044 32.36C10.1904 32.34 11.0304 32.3 11.8304 32.46C12.3704 32.57 12.6304 32.5 12.9604 32.06C17.2604 26.46 22.1104 21.38 27.4904 16.82C29.7104 14.94 32.0304 13.17 34.3704 11.3C32.6604 10.29 30.9204 9.26002 29.1804 8.24002C27.4604 10.17 25.4304 10.74 23.1404 9.81002C20.8104 8.85002 19.7904 6.99002 19.9804 4.44002L19.9704 4.43002ZM7.64044 37.23C7.63044 38.77 8.90044 40.13 10.3604 40.13C11.8704 40.13 13.1904 38.88 13.2104 37.44C13.2304 35.91 11.9604 34.57 10.4804 34.55C8.96044 34.54 7.65044 35.77 7.64044 37.22V37.23ZM27.8004 5.12002C27.8004 3.53002 26.6604 2.37002 25.0904 2.35002C23.4904 2.34002 22.3204 3.51002 22.3204 5.13002C22.3204 6.71002 23.4704 7.89002 25.0304 7.92002C26.6004 7.94002 27.8004 6.74002 27.7904 5.12002H27.8004ZM45.8504 69.88C45.8504 71.48 46.9704 72.65 48.5304 72.67C50.1404 72.69 51.3204 71.53 51.3204 69.91C51.3204 68.29 50.1504 67.09 48.5604 67.11C47.0004 67.12 45.8504 68.29 45.8404 69.88H45.8504Z" fill="#FF6C1A"/>
<path id="Vector_2" d="M29.8299 26.22C29.1098 24.84 28.8299 23.43 29.2499 21.93C29.7399 20.21 31.1399 19.1 32.9299 18.92C33.3599 18.88 33.8298 18.71 34.1898 18.47C38.1098 15.77 43.0499 17.9 43.6099 22.55C43.7699 23.86 43.3999 25.07 42.8399 26.23C43.7399 27.34 43.8599 28.18 43.2499 29.09C43.1599 29.23 43.0498 29.43 42.9198 29.47C41.8798 29.77 41.8899 30.68 41.6099 31.49C41.3499 32.23 40.9198 32.94 40.4398 33.58C39.8699 34.35 40.0599 34.99 40.9899 35.27C42.1299 35.62 43.2999 35.96 44.3599 36.48C47.5699 38.07 48.8399 40.91 49.1099 44.31C49.1899 45.28 49.1799 46.27 49.1499 47.25C49.0799 49.63 47.4499 51.37 45.0799 51.4C39.3499 51.47 33.6199 51.48 27.8898 51.45C25.7998 51.45 24.0998 49.72 23.9598 47.62C23.8198 45.58 23.8898 43.55 24.4798 41.58C25.3898 38.53 27.5298 36.71 30.4698 35.73C31.0998 35.52 31.7398 35.37 32.3698 35.18C32.9498 35.01 33.0999 34.46 32.6499 34.05C31.5599 33.07 30.9699 31.85 30.7699 30.41C30.7399 30.23 30.6298 29.98 30.4798 29.9C28.7598 28.98 28.5099 27.67 29.8599 26.21L29.8299 26.22ZM43.4699 49.1C43.9999 49.1 44.4799 49.12 44.9699 49.1C46.0499 49.04 46.7398 48.35 46.7799 47.27C46.8099 46.39 46.7999 45.51 46.7598 44.63C46.5998 41.06 44.9699 39.02 41.5899 37.86C40.2999 37.42 39.2498 37.35 38.4398 38.62C38.3898 38.7 38.3098 38.77 38.2298 38.83C37.7899 39.17 37.6499 39.6 37.6499 40.17C37.6799 42.89 37.6599 45.61 37.6599 48.33V49.11H40.9799C41.1599 47.61 41.4399 47.17 42.1999 47.15C42.9699 47.13 43.2698 47.58 43.4599 49.12L43.4699 49.1ZM35.3299 49.14C35.3299 46.16 35.2998 43.3 35.3498 40.43C35.3598 39.68 35.1599 39.16 34.6099 38.64C33.2699 37.38 33.2999 37.35 31.5299 37.85C28.9499 38.57 27.0999 40.09 26.5799 42.8C26.2999 44.28 26.2598 45.81 26.2098 47.32C26.1798 48.21 26.8199 48.97 27.6099 49.08C28.2499 49.17 28.8999 49.1 29.5399 49.1C29.6699 47.64 29.9399 47.17 30.6899 47.11C31.4399 47.05 31.7199 47.45 32.0399 49.1C32.2199 49.11 32.4098 49.14 32.5998 49.14C33.4798 49.14 34.3499 49.14 35.3299 49.14ZM40.5599 25.34C41.6399 23.68 41.4799 21.79 40.2099 20.57C38.9699 19.38 37.0598 19.26 35.5698 20.41C34.7899 21.01 34.0399 21.38 33.0399 21.33C32.2899 21.29 31.7199 21.73 31.4999 22.47C31.2099 23.45 31.4199 24.38 32.0199 25.28C33.1499 24.38 34.3898 24.19 35.7298 24.42C36.1398 24.49 36.5698 24.49 36.9798 24.45C38.2698 24.3 39.4699 24.5 40.5599 25.35V25.34ZM33.0599 29C33.0599 29.27 33.0599 29.54 33.0599 29.81C33.0799 31.66 34.4898 33.09 36.2998 33.1C38.0498 33.11 39.4798 31.69 39.5298 29.88C39.5498 29.27 39.4998 28.65 39.5498 28.04C39.5898 27.5 39.3399 27.18 38.8999 27.02C38.5199 26.88 38.0999 26.8 37.6999 26.78C36.7299 26.72 35.7499 26.71 34.7699 26.67C33.7699 26.62 33.0699 27.27 33.0599 28.27C33.0599 28.51 33.0599 28.76 33.0599 29ZM37.9398 35.4C37.0198 35.4 36.1999 35.4 35.3799 35.4C35.2699 35.4 35.0899 35.47 35.0799 35.52C35.0699 35.64 35.0999 35.81 35.1799 35.9C35.5899 36.37 36.0299 36.82 36.5199 37.35C36.9599 36.54 37.9199 36.32 37.9299 35.41L37.9398 35.4Z" fill="#FF6C1A"/>
</g>
<defs>
<clipPath id="clip0_1821_758">
<rect width="72.89" height="75" fill="white"/>
</clipPath>
</defs>
</svg>
