<svg width="75" height="75" viewBox="0 0 75 75" fill="none" xmlns="http://www.w3.org/2000/svg">
<g id="Layer_1" clip-path="url(#clip0_1817_514)">
<path id="Vector" d="M30.0703 67.48C30.0003 68.38 30.0003 69.17 29.8603 69.93C29.3403 72.77 26.8803 74.93 24.0003 74.96C18.0103 75.01 12.0303 75.01 6.04031 74.96C2.75031 74.93 0.0403125 72.18 0.0303125 68.88C0.0003125 57.95 0.0003125 47.01 0.0303125 36.08C0.0403125 32.75 2.79031 30.08 6.13031 30C6.57031 29.99 7.00031 30 7.51031 30V29.01C7.51031 21.59 7.51031 14.17 7.51031 6.75C7.51031 2.61 10.1003 0 14.2203 0C32.2303 0 50.2503 0 68.2603 0C72.3903 0 74.9903 2.6 74.9903 6.72C74.9903 19.74 74.9903 32.75 74.9903 45.77C74.9903 49.88 72.3803 52.48 68.2503 52.49C61.2503 52.49 54.2403 52.49 47.2403 52.49H46.2903V59.99C46.5603 59.99 46.8303 59.99 47.1103 59.99C50.6003 59.99 54.0903 59.97 57.5703 60C59.4303 60.02 60.9503 61.41 61.2103 63.24C61.4603 64.94 60.4303 66.68 58.7703 67.24C58.2403 67.42 57.6503 67.48 57.0903 67.48C48.4003 67.49 39.7003 67.48 31.0103 67.48C30.7003 67.48 30.4003 67.48 30.0803 67.48H30.0703ZM15.0603 7.54V30C17.9303 30 20.7403 30 23.5403 30C27.3003 30.01 29.9803 32.69 29.9903 36.45C30.0003 39 29.9903 41.55 29.9903 44.1C29.9903 44.38 29.9903 44.65 29.9903 44.93H67.4403V7.54H15.0603ZM2.54031 62.43H27.4403V40.03H2.54031V62.43ZM30.0403 49.99H30.8603C43.3303 49.99 55.8003 49.99 68.2703 49.99C70.9803 49.99 72.4903 48.49 72.4903 45.8C72.4903 32.76 72.4903 19.71 72.4903 6.67C72.4903 4.01 70.9803 2.5 68.3303 2.5C50.2603 2.5 32.2003 2.5 14.1303 2.5C11.5303 2.5 10.0003 4.03 10.0003 6.62C10.0003 14.14 10.0003 21.67 10.0003 29.19C10.0003 29.44 10.0203 29.69 10.0303 29.93H12.4903V28.94C12.4903 21.6 12.4903 14.26 12.4903 6.92C12.4903 5.32 12.8103 5 14.4003 5C32.2803 5 50.1703 5 68.0503 5C69.6503 5 69.9703 5.32 69.9703 6.9C69.9703 19.79 69.9703 32.67 69.9703 45.56C69.9703 47.16 69.6503 47.49 68.0703 47.49C55.7003 47.49 43.3403 47.49 30.9703 47.49H30.0203V49.99H30.0403ZM2.51031 65.02C2.51031 66.33 2.49031 67.55 2.51031 68.77C2.55031 70.85 4.16031 72.48 6.25031 72.48C12.0803 72.5 17.9103 72.5 23.7403 72.48C25.6003 72.48 27.1803 71.21 27.4003 69.38C27.5703 67.95 27.4303 66.49 27.4303 65.02H2.51031ZM2.56031 37.45H27.5003C27.5003 36.99 27.5103 36.58 27.5003 36.17C27.4303 34.13 25.8403 32.52 23.7903 32.51C17.9403 32.49 12.0903 32.49 6.24031 32.51C4.40031 32.51 2.88031 33.81 2.58031 35.62C2.48031 36.2 2.56031 36.8 2.56031 37.45ZM30.0403 64.99C30.2803 64.99 30.4603 64.99 30.6403 64.99C39.4803 64.99 48.3303 64.99 57.1703 64.99C57.3303 64.99 57.4903 65.01 57.6403 64.98C58.3103 64.85 58.7203 64.45 58.7303 63.76C58.7403 63.07 58.3403 62.65 57.6703 62.52C57.4703 62.48 57.2603 62.5 57.0503 62.5C48.2803 62.5 39.5203 62.5 30.7503 62.5H30.0403V65V64.99ZM30.0403 59.94H36.1903V52.53H30.0403V59.94ZM38.7803 59.94H43.6803V52.54H38.7803V59.94Z" fill="#FF6C1A"/>
<path id="Vector_2" d="M33.3099 25.76C32.7399 25.16 32.1799 24.59 31.6299 24.02C36.6299 18.68 45.8499 18.67 50.8799 24.03C50.3299 24.57 49.7799 25.12 49.1599 25.72C46.9799 23.67 44.3599 22.52 41.2899 22.51C38.2099 22.51 35.5699 23.62 33.3099 25.76Z" fill="#FF6C1A"/>
<path id="Vector_3" d="M35.1797 27.53C38.0697 24.18 44.5297 24.19 47.3597 27.59C46.7997 28.12 46.2497 28.66 45.6297 29.25C44.4097 28.15 42.9497 27.49 41.2397 27.49C39.5497 27.49 38.1097 28.13 36.8397 29.27C36.2697 28.67 35.7197 28.09 35.1797 27.52V27.53Z" fill="#FF6C1A"/>
<path id="Vector_4" d="M43.8404 31.12C43.2404 31.68 42.6804 32.21 42.2204 32.64H40.2304C39.7904 32.22 39.2404 31.68 38.6904 31.15C39.8404 29.64 42.3404 29.61 43.8404 31.12Z" fill="#FF6C1A"/>
<path id="Vector_5" d="M22.8703 48.29C22.2903 48.88 21.7503 49.43 21.2103 49.98C17.1303 46.35 11.9903 47.01 8.67031 50.14C8.43031 49.82 8.20031 49.46 7.92031 49.16C7.66031 48.88 7.35031 48.65 7.07031 48.4C10.9303 44.08 18.6003 43.75 22.8703 48.29Z" fill="#FF6C1A"/>
<path id="Vector_6" d="M17.5005 53.41C15.6505 52.18 14.2805 52.18 12.3605 53.53C11.8305 52.95 11.2805 52.37 10.7305 51.78C12.3705 49.73 16.6605 49.07 19.3505 51.78C18.7605 52.3 18.1605 52.82 17.5005 53.41Z" fill="#FF6C1A"/>
<path id="Vector_7" d="M13.4102 55.61C14.4102 54.76 15.5402 54.75 16.6902 55.68C16.1002 56.21 15.5202 56.73 14.9402 57.25C14.5102 56.79 13.9602 56.2 13.4102 55.61Z" fill="#FF6C1A"/>
<path id="Vector_8" d="M13.79 69.95V67.54H16.21V69.95H13.79Z" fill="#FF6C1A"/>
</g>
<defs>
<clipPath id="clip0_1817_514">
<rect width="74.99" height="75" fill="white"/>
</clipPath>
</defs>
</svg>
