<svg width="73" height="75" viewBox="0 0 73 75" fill="none" xmlns="http://www.w3.org/2000/svg">
<g id="Layer_1" clip-path="url(#clip0_1817_503)">
<path id="Vector" d="M38.1297 -9.76585e-06C39.2697 0.37999 39.9297 1.20999 40.4497 2.26999C42.4597 6.35999 44.5297 10.43 46.5497 14.51C47.4597 16.35 46.5197 18.33 44.5897 18.71C44.3097 18.77 44.0097 18.76 43.7197 18.76C39.6197 18.76 35.5197 18.76 31.4097 18.76C28.6897 18.76 27.4197 16.68 28.6397 14.23C30.6497 10.22 32.6697 6.20999 34.6497 2.18999C35.1597 1.14999 35.8297 0.35999 36.9397 -0.0100098H38.1097L38.1297 -9.76585e-06ZM37.5197 16.43C39.5697 16.43 41.6197 16.43 43.6797 16.43C44.6097 16.43 44.7797 16.16 44.3597 15.32C42.3097 11.22 40.2597 7.10999 38.1897 3.01999C38.0597 2.75999 37.7897 2.57999 37.5797 2.35999C37.3497 2.57999 37.0397 2.75999 36.9097 3.02999C34.8397 7.11999 32.7897 11.23 30.7397 15.33C30.3197 16.17 30.4797 16.42 31.4297 16.43C33.4597 16.43 35.4897 16.43 37.5097 16.43H37.5197Z" fill="#FF6C1A"/>
<path id="Vector_2" d="M72.71 66.87V69.2H55.32C55.04 69.77 54.86 70.3 54.55 70.74C54.11 71.34 53.44 71.58 52.69 71.58C50.91 71.57 49.12 71.58 47.34 71.58C45.67 71.58 44.88 70.94 44.54 69.24C42.01 69.24 39.48 69.24 36.94 69.25C36.79 69.25 36.58 69.4 36.5 69.55C34.8 72.39 32.11 73.66 29.03 74.37C26.56 74.94 24.05 75.07 21.53 74.99C19.87 74.93 18.16 75.09 16.57 74.71C12.69 73.79 10.37 71.21 9.54 67.31C9.52 67.21 9.5 67.12 9.48 67.03C9.48 67.01 9.45 67 9.34 66.9C8.73 66.9 8.03 66.9 7.33 66.9C3.44 66.89 1.24 63.31 3 59.86C3.03 59.8 3.06 59.73 3.12 59.61C1.21 58.71 0 57.32 0 55.14C0 52.99 1.18 51.6 3.05 50.73C1.4 47.84 2.62 44.14 6.57 43.38C6.47 42.84 6.31 42.3 6.28 41.75C6.19 39.52 7.95 37.58 10.19 37.57C15.76 37.53 21.33 37.52 26.91 37.59C29.3 37.62 31.65 38.1 33.67 39.46C34.65 40.12 35.44 41.04 36.33 41.83C36.51 41.99 36.74 42.22 36.95 42.22C39.46 42.25 41.98 42.24 44.48 42.24C45.02 40.38 45.67 39.89 47.58 39.89C49.07 39.89 50.56 39.89 52.05 39.89C54.06 39.89 54.64 40.31 55.23 42.24H72.69V44.54H55.19V45.75C55.9 45.75 56.61 45.75 57.31 45.75C59.5 45.77 61 47.25 61 49.44C61.01 53.64 61.01 57.85 61 62.05C61 64.19 59.48 65.68 57.34 65.69C56.64 65.69 55.93 65.69 55.18 65.69V66.85H72.7L72.71 66.87ZM24.62 66.89H11.9C11.92 67.05 11.92 67.17 11.95 67.29C12.65 70.32 15.3 72.53 18.41 72.61C20.19 72.66 21.98 72.62 23.76 72.63C25.85 72.63 27.89 72.29 29.89 71.69C32.09 71.03 33.84 69.8 34.84 67.66C35.11 67.08 35.58 66.87 36.2 66.88C38.72 66.89 41.23 66.88 43.75 66.88C44.01 66.88 44.27 66.88 44.53 66.88V65.71C43.82 65.71 43.16 65.71 42.5 65.71C40.21 65.71 38.73 64.24 38.72 61.96C38.72 57.83 38.72 53.7 38.72 49.57C38.72 47.24 40.2 45.78 42.52 45.76C43.2 45.76 43.87 45.76 44.54 45.76V44.59C44.24 44.59 43.98 44.59 43.72 44.59C41.28 44.59 38.83 44.57 36.39 44.6C35.65 44.6 35.15 44.36 34.76 43.72C33.96 42.4 32.81 41.49 31.4 40.88C29.83 40.2 28.16 39.92 26.47 39.91C21.17 39.88 15.86 39.89 10.56 39.89C9.43 39.89 8.65 40.59 8.62 41.56C8.59 42.53 9.42 43.34 10.51 43.4C10.89 43.42 11.27 43.4 11.66 43.4V45.75C10.19 45.75 8.77 45.75 7.36 45.75C5.77 45.75 4.66 46.75 4.68 48.13C4.7 49.51 5.77 50.43 7.34 50.44C8.77 50.44 10.21 50.44 11.66 50.44V52.79C9.34 52.79 7.08 52.79 4.81 52.79C3.38 52.79 2.33 53.8 2.32 55.13C2.32 56.46 3.36 57.47 4.79 57.47C6.82 57.48 8.85 57.47 10.87 57.47C11.13 57.47 11.39 57.47 11.64 57.47V59.82C10.1 59.82 8.61 59.82 7.12 59.82C6.1 59.82 5.33 60.27 4.88 61.2C4.12 62.78 5.3 64.51 7.15 64.51C12.67 64.51 18.2 64.51 23.72 64.51C24 64.51 24.29 64.51 24.58 64.51V66.87L24.62 66.89ZM49.85 63.36C52.27 63.36 54.69 63.36 57.11 63.36C58.27 63.36 58.67 62.98 58.67 61.84C58.67 57.76 58.67 53.68 58.67 49.6C58.67 48.52 58.25 48.11 57.15 48.11C52.31 48.11 47.47 48.11 42.63 48.11C41.47 48.11 41.07 48.5 41.07 49.64C41.07 53.7 41.07 57.75 41.07 61.81C41.07 62.99 41.45 63.36 42.66 63.36C45.06 63.36 47.45 63.36 49.85 63.36ZM52.74 45.73V42.28H46.98V45.73H52.74ZM52.76 69.19V65.75H46.99V69.19H52.76Z" fill="#FF6C1A"/>
<path id="Vector_3" d="M0.0498047 21.71V19.36C0.469805 19.36 0.869805 19.36 1.2798 19.36C2.7998 19.36 4.3098 19.33 5.8298 19.37C6.3698 19.38 6.7498 19.23 7.0998 18.83C7.4998 18.37 7.9498 17.95 8.3898 17.53C9.2998 16.65 10.2498 16.9 10.5798 18.11C10.7898 18.89 10.9798 19.67 11.1798 20.45C11.2498 20.43 11.3198 20.45 11.3398 20.41C12.0398 19.45 12.9998 19.31 14.1198 19.34C16.4098 19.41 18.7098 19.36 21.0698 19.36V21.62C21.0698 21.62 20.9998 21.69 20.9698 21.69C19.6798 21.46 18.9198 22.1 18.1798 23.11C16.3198 25.62 13.6598 27.26 11.2098 29.12C10.7698 29.45 10.2798 29.41 9.8498 29.09C7.06981 26.98 4.1398 25.04 2.0998 22.11C1.9598 21.91 1.6498 21.78 1.3998 21.74C0.979805 21.68 0.539805 21.72 0.0698047 21.72L0.0498047 21.71ZM10.5698 26.7C12.5398 25.14 14.6898 23.84 16.2498 21.76C14.4631 21.6333 12.9865 22.1533 11.8198 23.32C11.7498 23.39 11.6798 23.46 11.6098 23.53C10.6798 24.43 9.7098 24.17 9.3798 22.93C9.1798 22.16 8.9798 21.38 8.8098 20.7C8.19981 21.04 7.6398 21.51 6.9998 21.68C6.3498 21.85 5.6298 21.72 4.8098 21.72C6.4698 23.83 8.5698 25.17 10.5698 26.71V26.7Z" fill="#FF6C1A"/>
<path id="Vector_4" d="M64.5403 24.59C64.5403 20.28 64.5403 16.03 64.5403 11.78C64.5403 11.04 65.0003 10.59 65.7403 10.57C67.2803 10.55 68.8203 10.55 70.3603 10.57C71.1203 10.58 71.5703 11.05 71.5703 11.84C71.5803 16.07 71.5703 20.29 71.5703 24.58H69.2403V12.95H66.9103V24.59H64.5303H64.5403Z" fill="#FF6C1A"/>
<path id="Vector_5" d="M18.9402 17.02C18.6202 16.12 18.4602 15.31 18.0602 14.63C16.8902 12.62 14.3802 12.37 12.7702 14.04C12.3302 14.5 11.9302 14.99 11.4802 15.44C10.9002 16.04 10.2102 16.04 9.6202 15.44C9.2402 15.06 8.8802 14.66 8.5302 14.25C7.6102 13.19 6.5102 12.62 5.0902 13.01C3.6202 13.42 2.8502 14.49 2.4902 15.91C2.4102 16.21 2.3702 16.53 2.3002 16.91H0.0701991C-0.109801 14.58 1.4002 12.07 3.5902 11.05C5.9202 9.97001 8.0802 10.54 10.5402 12.93C12.6202 10.63 15.0602 9.74001 17.9602 11.3C19.8802 12.34 21.1002 14.62 21.0202 16.89C20.2902 16.93 19.5502 16.96 18.9202 16.99L18.9402 17.02Z" fill="#FF6C1A"/>
<path id="Vector_6" d="M62.1804 24.6H59.8604V17.65H57.5004V24.6H55.2004C55.1804 24.42 55.1504 24.23 55.1504 24.05C55.1504 21.61 55.1504 19.16 55.1504 16.72C55.1504 15.67 55.5604 15.26 56.6104 15.25C58.0304 15.25 59.4404 15.24 60.8604 15.25C61.6604 15.25 62.1604 15.67 62.1704 16.42C62.1904 19.13 62.1704 21.84 62.1704 24.6H62.1804Z" fill="#FF6C1A"/>
<path id="Vector_7" d="M72.7103 27.04V29.3H54.0303V27.04H72.7103Z" fill="#FF6C1A"/>
<path id="Vector_8" d="M38.6797 11.7H36.4297V5.89001H38.6797V11.7Z" fill="#FF6C1A"/>
<path id="Vector_9" d="M36.4199 12.94H38.6699V15.2H36.4199V12.94Z" fill="#FF6C1A"/>
<path id="Vector_10" d="M48.5202 55.33C48.4502 55.36 48.4202 55.37 48.4102 55.38C48.0102 56.86 46.9102 57.03 45.6102 56.91C44.9102 56.85 44.2002 56.9 43.4502 56.9V54.55C44.2002 54.55 44.9302 54.59 45.6502 54.53C45.8902 54.51 46.2202 54.3 46.3302 54.09C46.7602 53.22 47.1302 52.31 47.5002 51.41C47.7302 50.84 48.0902 50.43 48.7402 50.46C49.4302 50.49 49.7302 50.97 49.9002 51.59C50.3202 53.11 50.7702 54.62 51.2102 56.14C51.2802 56.11 51.3202 56.1 51.3202 56.08C51.7102 54.66 52.7402 54.41 54.0302 54.54C54.7502 54.61 55.4902 54.55 56.2602 54.55V56.9C55.5402 56.9 54.8402 56.92 54.1402 56.9C53.7202 56.88 53.4902 57.01 53.3302 57.42C52.9802 58.33 52.5702 59.21 52.1902 60.11C51.9502 60.68 51.5602 61.06 50.9102 61C50.2902 60.94 50.0002 60.52 49.8402 59.95C49.4102 58.41 48.9502 56.87 48.5102 55.33H48.5202Z" fill="#FF6C1A"/>
</g>
<defs>
<clipPath id="clip0_1817_503">
<rect width="72.71" height="75" fill="white"/>
</clipPath>
</defs>
</svg>
