<svg width="120" height="70" viewBox="0 0 120 70" fill="none" xmlns="http://www.w3.org/2000/svg">
<path d="M54.0009 38.0211C53.9774 38.0211 53.9541 38.0154 53.9332 38.0046C53.9123 37.9938 53.8942 37.9782 53.8806 37.959L45.0821 25.4991C45.0672 25.4779 45.0581 25.4532 45.0557 25.4274C45.0533 25.4017 45.0578 25.3757 45.0686 25.3522L51.4411 11.4893C51.4519 11.4658 51.4687 11.4455 51.4898 11.4306C51.5109 11.4156 51.5356 11.4065 51.5614 11.4042L66.732 10.001C66.7578 9.99789 66.784 10.002 66.8077 10.0129C66.8313 10.0238 66.8515 10.0411 66.8659 10.0627L75.6643 22.5224C75.6793 22.5436 75.6884 22.5683 75.6908 22.5941C75.6931 22.6198 75.6887 22.6458 75.6779 22.6693L69.3056 36.5326C69.2947 36.5561 69.2779 36.5763 69.2568 36.5912C69.2357 36.6062 69.211 36.6153 69.1852 36.6177L54.0145 38.0207C54.01 38.0211 54.0054 38.0211 54.0009 38.0211ZM45.372 25.3983L54.0721 37.7191L69.0734 36.3318L75.3745 22.6232L66.6743 10.3024L51.6733 11.6897L45.372 25.3983Z" fill="#5F5F5F"/>
<path d="M53.9482 37.9895L51.5132 25.312L51.5013 11.4524L63.3649 14.9443L75.6668 22.5974L66.5302 30.7189L53.9482 37.9895ZM51.649 11.6495L51.6593 25.298L54.054 37.7583L66.4443 30.5999L75.4215 22.618L63.2955 15.0747L51.649 11.6495Z" fill="#5F5F5F"/>
<path d="M63.5595 15.5256C63.8035 15.5256 64.0013 15.3278 64.0013 15.0838C64.0013 14.8398 63.8035 14.642 63.5595 14.642C63.3155 14.642 63.1177 14.8398 63.1177 15.0838C63.1177 15.3278 63.3155 15.5256 63.5595 15.5256Z" fill="#5F5F5F"/>
<path d="M63.5595 15.9955C63.3792 15.9956 63.2028 15.9423 63.0528 15.8423C62.9028 15.7422 62.7858 15.5999 62.7166 15.4334C62.6475 15.2668 62.6293 15.0835 62.6644 14.9066C62.6994 14.7297 62.7862 14.5672 62.9136 14.4396C63.0411 14.312 63.2035 14.2251 63.3803 14.1898C63.5572 14.1546 63.7405 14.1726 63.9072 14.2415C64.0738 14.3105 64.2162 14.4273 64.3164 14.5772C64.4167 14.7271 64.4702 14.9034 64.4702 15.0837C64.47 15.3253 64.374 15.557 64.2033 15.7279C64.0326 15.8988 63.8011 15.995 63.5595 15.9955ZM63.5595 15.0574L63.5321 15.0837C63.5323 15.0909 63.5352 15.0977 63.5403 15.1026C63.5455 15.1076 63.5523 15.1103 63.5595 15.1103V15.0574Z" fill="#5F5F5F"/>
<path d="M66.5091 31.079C66.7531 31.079 66.9509 30.8812 66.9509 30.6372C66.9509 30.3932 66.7531 30.1954 66.5091 30.1954C66.2651 30.1954 66.0673 30.3932 66.0673 30.6372C66.0673 30.8812 66.2651 31.079 66.5091 31.079Z" fill="#5F5F5F"/>
<path d="M66.5088 31.549C66.3284 31.5492 66.1521 31.4958 66.002 31.3958C65.852 31.2957 65.735 31.1533 65.6659 30.9868C65.5968 30.8202 65.5786 30.6368 65.6137 30.4599C65.6488 30.283 65.7355 30.1205 65.863 29.9929C65.9905 29.8653 66.1529 29.7784 66.3298 29.7432C66.5067 29.7079 66.69 29.7259 66.8567 29.7949C67.0233 29.8639 67.1658 29.9808 67.266 30.1307C67.3662 30.2807 67.4197 30.457 67.4197 30.6373C67.4195 30.8789 67.3236 31.1106 67.1528 31.2815C66.982 31.4525 66.7504 31.5487 66.5088 31.549ZM66.5088 30.611L66.4816 30.6373C66.4818 30.6444 66.4847 30.6511 66.4898 30.6561C66.4949 30.661 66.5017 30.6637 66.5088 30.6636V30.611Z" fill="#5F5F5F"/>
<path d="M54.1091 38.3157C54.3531 38.3157 54.5509 38.1179 54.5509 37.8739C54.5509 37.6299 54.3531 37.4321 54.1091 37.4321C53.8651 37.4321 53.6673 37.6299 53.6673 37.8739C53.6673 38.1179 53.8651 38.3157 54.1091 38.3157Z" fill="#5F5F5F"/>
<path d="M54.1091 38.7857C53.9287 38.7859 53.7524 38.7325 53.6023 38.6325C53.4523 38.5324 53.3353 38.39 53.2662 38.2235C53.197 38.0569 53.1789 37.8735 53.214 37.6966C53.249 37.5197 53.3358 37.3572 53.4633 37.2296C53.5907 37.102 53.7532 37.0151 53.9301 36.9799C54.107 36.9446 54.2903 36.9626 54.4569 37.0316C54.6236 37.1006 54.766 37.2174 54.8662 37.3674C54.9665 37.5173 55.02 37.6936 55.02 37.874C55.0198 38.1156 54.9238 38.3473 54.7531 38.5182C54.5823 38.6892 54.3507 38.7853 54.1091 38.7857ZM54.1091 37.8477L54.0819 37.874C54.0821 37.8811 54.085 37.8878 54.0901 37.8927C54.0952 37.8977 54.102 37.9004 54.1091 37.9003V37.8477Z" fill="#5F5F5F"/>
<path d="M51.5748 25.8873C51.8188 25.8873 52.0166 25.6895 52.0166 25.4455C52.0166 25.2015 51.8188 25.0037 51.5748 25.0037C51.3308 25.0037 51.133 25.2015 51.133 25.4455C51.133 25.6895 51.3308 25.8873 51.5748 25.8873Z" fill="#5F5F5F"/>
<path d="M51.5749 26.3569C51.3945 26.3571 51.2182 26.3038 51.0682 26.2037C50.9182 26.1036 50.8012 25.9613 50.7321 25.7948C50.663 25.6282 50.6449 25.4449 50.68 25.268C50.7151 25.0912 50.8018 24.9287 50.9293 24.8011C51.0568 24.6736 51.2192 24.5867 51.396 24.5515C51.5729 24.5163 51.7562 24.5343 51.9228 24.6033C52.0894 24.6723 52.2318 24.7892 52.332 24.9391C52.4321 25.089 52.4856 25.2653 52.4855 25.4457C52.4853 25.6872 52.3893 25.9187 52.2186 26.0895C52.0478 26.2604 51.8164 26.3565 51.5749 26.3569ZM51.5749 25.4189L51.5475 25.4456C51.5477 25.4527 51.5507 25.4595 51.5558 25.4644C51.5609 25.4693 51.5678 25.472 51.5749 25.472V25.4189Z" fill="#5F5F5F"/>
<path d="M75.5443 23.0716C75.7883 23.0716 75.9861 22.8738 75.9861 22.6298C75.9861 22.3858 75.7883 22.188 75.5443 22.188C75.3003 22.188 75.1024 22.3858 75.1024 22.6298C75.1024 22.8738 75.3003 23.0716 75.5443 23.0716Z" fill="#5F5F5F"/>
<path d="M75.5444 23.5413C75.364 23.5414 75.1877 23.488 75.0378 23.3879C74.8878 23.2878 74.7709 23.1455 74.7018 22.979C74.6327 22.8124 74.6146 22.6291 74.6497 22.4522C74.6848 22.2754 74.7716 22.1129 74.8991 21.9854C75.0265 21.8579 75.189 21.771 75.3658 21.7358C75.5427 21.7006 75.726 21.7186 75.8926 21.7876C76.0591 21.8566 76.2015 21.9735 76.3017 22.1234C76.4018 22.2734 76.4553 22.4497 76.4552 22.63C76.455 22.8715 76.3589 23.1031 76.1882 23.2739C76.0174 23.4448 75.7859 23.5409 75.5444 23.5413ZM75.5444 22.6032L75.5172 22.63C75.5173 22.6371 75.5203 22.6438 75.5254 22.6487C75.5304 22.6537 75.5373 22.6564 75.5444 22.6563V22.6032Z" fill="#5F5F5F"/>
<path d="M51.5748 11.993C51.8188 11.993 52.0166 11.7952 52.0166 11.5512C52.0166 11.3072 51.8188 11.1094 51.5748 11.1094C51.3308 11.1094 51.133 11.3072 51.133 11.5512C51.133 11.7952 51.3308 11.993 51.5748 11.993Z" fill="#5F5F5F"/>
<path d="M51.5751 12.4629C51.3947 12.463 51.2184 12.4097 51.0684 12.3097C50.9183 12.2096 50.8013 12.0673 50.7322 11.9008C50.6631 11.7342 50.6449 11.5509 50.6799 11.374C50.715 11.1971 50.8017 11.0346 50.9292 10.907C51.0566 10.7794 51.219 10.6925 51.3959 10.6572C51.5727 10.622 51.7561 10.64 51.9227 10.7089C52.0893 10.7779 52.2318 10.8947 52.332 11.0446C52.4322 11.1945 52.4857 11.3708 52.4858 11.5512C52.4856 11.7927 52.3896 12.0244 52.2189 12.1953C52.0482 12.3662 51.8166 12.4624 51.5751 12.4629ZM51.5751 11.5248L51.5477 11.5512C51.5478 11.5583 51.5508 11.5651 51.5559 11.5701C51.561 11.575 51.5679 11.5778 51.5751 11.5777L51.5751 11.5248Z" fill="#5F5F5F"/>
<path d="M69.1717 36.6181C69.1549 36.6182 69.1383 36.6155 69.1225 36.6099L57.5554 32.5266L45.1303 25.5423C45.1099 25.5309 45.0926 25.5149 45.0797 25.4955C45.0668 25.4761 45.0587 25.4539 45.056 25.4308C45.0533 25.4076 45.0562 25.3842 45.0643 25.3624C45.0725 25.3406 45.0857 25.321 45.1029 25.3053L54.4512 16.7391L66.6746 10.0185C66.6945 10.0074 66.7168 10.0012 66.7397 10.0002C66.7625 9.99931 66.7852 10.0037 66.806 10.0132C66.8268 10.0226 66.8452 10.0367 66.8596 10.0543C66.8741 10.072 66.8842 10.0927 66.8893 10.115L69.628 22.1544L69.319 36.4742C69.3185 36.4975 69.3124 36.5203 69.3014 36.5408C69.2903 36.5613 69.2746 36.579 69.2554 36.5922C69.2308 36.6092 69.2016 36.6182 69.1717 36.6181ZM45.452 25.3851L57.6768 32.2591L69.0287 36.2643L69.3369 22.1838L66.6451 10.3709L54.6218 16.9769L45.452 25.3851Z" fill="#5F5F5F"/>
<path d="M66.5568 30.693L66.4965 30.6724L51.5024 25.4597L51.5508 25.4177L63.5836 15.0139L66.5568 30.693ZM51.6473 25.4317L66.4605 30.5819L63.5351 15.1534L51.6473 25.4317Z" fill="#5F5F5F"/>
<path d="M57.5089 32.6642L54.3564 16.6218L69.7728 22.1339L57.5089 32.6642ZM54.7456 17.074L57.7007 32.1112L69.196 22.2408L54.7456 17.074Z" fill="#5F5F5F"/>
<path d="M51.7035 11.4788L51.4464 11.6233L54.4222 16.9201L54.6793 16.7757L51.7035 11.4788Z" fill="#5F5F5F"/>
<path d="M53.9848 37.7947L57.4806 32.3081L57.7291 32.4672L54.2333 37.9534L53.9848 37.7947Z" fill="#5F5F5F"/>
<path d="M69.4951 22.0404L69.4736 22.3342L75.5334 22.7769L75.5549 22.4831L69.4951 22.0404Z" fill="#5F5F5F"/>
<path d="M15 50.2668L16.9716 50.256L16.9894 53.5899L20.8196 53.5696L20.8018 50.2357L22.7734 50.2255L22.8205 59.1674L20.8488 59.1776L20.8285 55.3131L16.9983 55.3335L17.0187 59.1979L15.047 59.2088L15 50.2668Z" fill="#5F5F5F"/>
<path d="M26.6939 55.3329L23.304 50.223L25.756 50.2097L27.6698 53.5467L29.6618 50.1893L32 50.1772L28.6655 55.3227L28.6852 59.1369L26.7135 59.1472L26.6939 55.3329Z" fill="#5F5F5F"/>
<path d="M32.5303 50.1741L35.8547 50.157C36.2961 50.1522 36.7367 50.1922 37.17 50.2765C37.5556 50.3477 37.9236 50.4936 38.2533 50.706C38.5655 50.9155 38.8192 51.2011 38.9904 51.5358C39.1871 51.9468 39.2828 52.3988 39.2693 52.8543C39.2857 53.3055 39.2017 53.7547 39.0234 54.1695C38.8698 54.5072 38.632 54.7997 38.3328 55.019C38.0184 55.2403 37.662 55.3947 37.2856 55.4727C36.8539 55.5665 36.4134 55.6133 35.9716 55.6125L34.5305 55.6201L34.549 59.1059L32.5773 59.1161L32.5303 50.1741ZM34.5223 53.9528L35.8369 53.9459C36.0088 53.9457 36.1801 53.928 36.3484 53.8931C36.5046 53.8615 36.654 53.8028 36.79 53.7197C36.9209 53.6381 37.0289 53.5246 37.1039 53.3899C37.1884 53.2283 37.229 53.0473 37.2215 52.8651C37.2296 52.6696 37.1731 52.4768 37.0607 52.3167C36.954 52.1777 36.8142 52.0676 36.654 51.9965C36.4796 51.9194 36.2937 51.8713 36.1038 51.8541C35.9106 51.8348 35.7165 51.8254 35.5224 51.8262L34.5108 51.8312L34.5223 53.9528Z" fill="#5F5F5F"/>
<path d="M40.4432 50.1331L46.5227 50.1013L46.5322 51.9198L42.4244 51.9414L42.4333 53.6087L46.3136 53.5877L46.3231 55.4062L42.4428 55.4272L42.4523 57.2463L46.7876 57.2235L46.7971 59.042L40.4901 59.075L40.4432 50.1331Z" fill="#5F5F5F"/>
<path d="M48.2032 50.0922L51.6667 50.0738C52.1018 50.0693 52.5362 50.1115 52.9623 50.1996C53.3455 50.2757 53.711 50.4236 54.0393 50.6355C54.3515 50.845 54.6051 51.1306 54.7763 51.4653C54.9722 51.8721 55.0678 52.3198 55.0553 52.7711C55.0751 53.3475 54.9047 53.9143 54.5705 54.3843C54.2201 54.8431 53.7048 55.1471 53.1338 55.232L55.4289 58.996L53.0652 59.0087L51.1768 55.4442L50.2034 55.4492L50.2218 59.0233L48.2502 59.0341L48.2032 50.0922ZM50.1945 53.782L51.3579 53.7762C51.5345 53.775 51.722 53.7679 51.9202 53.754C52.1039 53.7434 52.2849 53.7041 52.4565 53.6377C52.6133 53.5756 52.7503 53.4722 52.853 53.3384C52.9662 53.1713 53.0205 52.9712 53.0074 52.7698C53.0159 52.5787 52.9665 52.3896 52.8657 52.2271C52.7757 52.0958 52.6534 51.9898 52.5105 51.9196C52.3548 51.8453 52.1881 51.797 52.0168 51.7766C51.8365 51.7528 51.6548 51.7414 51.4729 51.7423L50.1837 51.7487L50.1945 53.782Z" fill="#5F5F5F"/>
<path d="M56.3427 50.049L58.3143 50.0388L58.3518 57.1623L62.0047 57.1432L62.0142 58.9617L56.3896 58.9909L56.3427 50.049Z" fill="#5F5F5F"/>
<path d="M63.0034 50.0139L69.0829 49.9822L69.0923 51.8007L64.9845 51.8223L64.9934 53.4896L68.8738 53.4692L68.8833 55.2877L65.0029 55.3081L65.0124 57.1272L69.3477 57.1043L69.3572 58.9228L63.0503 58.9559L63.0034 50.0139Z" fill="#5F5F5F"/>
<path d="M70.7636 49.9733L73.7213 49.9574C74.409 49.9507 75.095 50.0275 75.7641 50.1862C76.3736 50.327 76.9487 50.5884 77.4556 50.955C77.9451 51.3191 78.34 51.7954 78.6069 52.344C78.9096 52.9955 79.0581 53.708 79.0409 54.4262C79.0583 55.0873 78.921 55.7433 78.6399 56.3419C78.3799 56.8812 78.0052 57.3572 77.542 57.7366C77.0668 58.1209 76.524 58.4129 75.9414 58.5976C75.3251 58.7962 74.6815 58.8976 74.034 58.8981L70.8106 58.9152L70.7636 49.9733ZM72.7727 57.0866L73.797 57.0808C74.2243 57.0816 74.6504 57.0328 75.0665 56.9353C75.4334 56.8516 75.779 56.6926 76.0812 56.4683C76.3723 56.2457 76.6031 55.9539 76.7528 55.6194C76.9261 55.2144 77.0081 54.7762 76.993 54.3359C77.0003 53.9406 76.9136 53.5493 76.7401 53.1941C76.5821 52.8799 76.3535 52.6066 76.0723 52.3954C75.7775 52.1788 75.4445 52.0199 75.0906 51.9271C74.7053 51.8225 74.3074 51.7714 73.9082 51.7753L72.7447 51.7816L72.7727 57.0866Z" fill="#5F5F5F"/>
<path d="M88.3767 58.1911C87.8041 58.4946 87.193 58.7191 86.5601 58.8583C85.925 58.9965 85.2772 59.0677 84.6272 59.0705C83.9683 59.0804 83.3129 58.9726 82.6918 58.7522C82.122 58.5493 81.6 58.2316 81.158 57.8188C80.719 57.4038 80.3735 56.8999 80.1445 56.3409C79.6576 55.091 79.6504 53.7052 80.1242 52.4503C80.3474 51.8888 80.6874 51.3811 81.1218 50.961C81.5595 50.5437 82.0784 50.2208 82.6461 50.0123C83.2644 49.7845 83.9187 49.6697 84.5777 49.6736C85.2458 49.6637 85.9119 49.7471 86.5569 49.9215C87.15 50.0852 87.6956 50.3878 88.1486 50.804L86.766 52.3271C86.5066 52.0588 86.1959 51.8455 85.8523 51.6999C85.4486 51.5471 85.0185 51.4764 84.5872 51.4921C84.1955 51.4884 83.807 51.5634 83.4448 51.7126C83.1141 51.851 82.8159 52.0568 82.5692 52.3169C82.3225 52.582 82.1329 52.8949 82.0119 53.2363C81.7545 53.9836 81.7588 54.7963 82.024 55.5409C82.1496 55.8782 82.3424 56.1865 82.5908 56.447C82.84 56.705 83.1404 56.908 83.4727 57.043C83.8367 57.188 84.226 57.2589 84.6177 57.2514C84.9938 57.2565 85.3686 57.2056 85.7296 57.1001C85.9866 57.0244 86.2356 56.9237 86.4731 56.7996L86.4655 55.3471L84.8605 55.3554L84.851 53.5362L88.352 53.5178L88.3767 58.1911Z" fill="#5F5F5F"/>
<path d="M90.0141 49.8724L96.0936 49.84L96.1032 51.6585L91.9954 51.6801L92.0043 53.3473L95.8846 53.327L95.8942 55.1455L92.0139 55.1658L92.0234 56.985L96.3587 56.9621L96.3683 58.7806L90.0614 58.8143L90.0141 49.8724Z" fill="#5F5F5F"/>
<path d="M97.7743 49.8309L101.237 49.8131C101.673 49.8083 102.107 49.8505 102.533 49.9389C102.917 50.015 103.282 50.1629 103.61 50.3748C103.923 50.584 104.177 50.8697 104.347 51.2046C104.543 51.6114 104.639 52.0591 104.626 52.5104C104.646 53.0868 104.476 53.6536 104.142 54.1236C103.791 54.582 103.276 54.8859 102.705 54.9713L105 58.7354L102.636 58.7474L100.747 55.1835L99.7739 55.1885L99.7923 58.7626L97.8213 58.7729L97.7743 49.8309ZM99.765 53.5213L100.928 53.5149C101.105 53.5143 101.292 53.5066 101.491 53.4933C101.675 53.4828 101.855 53.4433 102.027 53.3764C102.184 53.3147 102.321 53.2115 102.423 53.0778C102.537 52.9108 102.592 52.7106 102.579 52.5091C102.587 52.3181 102.538 52.1289 102.437 51.9665C102.346 51.8352 102.224 51.7293 102.081 51.6589C101.925 51.5844 101.759 51.536 101.587 51.516C101.407 51.4919 101.225 51.4803 101.043 51.481L99.7542 51.488L99.765 53.5213Z" fill="#5F5F5F"/>
</svg>
