<svg width="120" height="70" viewBox="0 0 120 70" fill="none" xmlns="http://www.w3.org/2000/svg">
<path d="M42.5559 44.3326C41.8551 44.1676 41.1379 44.082 40.418 44.0772C39.1665 44.0772 38.0351 44.2935 37.1772 44.6443C37.1302 44.6678 37.0905 44.7038 37.0626 44.7484C37.0347 44.7929 37.0196 44.8443 37.019 44.8969C37.019 44.9369 37.0286 44.9779 37.0448 45.0113C37.1439 45.2991 36.9809 45.6118 36.1679 45.79C34.9621 46.055 34.2015 47.2988 33.7659 47.7115C33.2541 48.1881 31.81 48.495 32.0274 48.2072C32.197 47.9813 32.8471 47.275 33.2426 46.5125C33.5953 45.83 33.9098 45.6356 34.3445 44.9855C34.4712 44.7949 34.964 44.1248 35.1089 43.5939C35.2709 43.0773 35.2157 42.4263 35.2776 42.1594C35.3663 41.7734 35.7304 40.9365 35.758 40.4628C35.7742 40.1959 34.6428 40.8441 34.1052 40.8441C33.5677 40.8441 33.0453 40.5219 32.5649 40.499C31.9711 40.4724 31.5899 40.9566 31.0523 40.8727C30.7454 40.8231 30.4871 40.5534 29.9514 40.5334C29.1889 40.5048 28.2548 40.9585 26.5029 40.9013C24.7796 40.8441 23.1878 38.7233 22.9705 38.385C22.716 37.9894 22.4053 37.9894 22.065 38.2896C21.7247 38.5899 21.3082 38.3564 21.1881 38.1467C20.9622 37.7521 20.3589 36.5959 19.4219 36.3528C18.1275 36.0173 17.4718 37.0696 17.5566 37.9065C17.6519 38.7643 18.1924 38.995 18.4468 39.4468C18.7013 39.8986 18.831 40.1902 19.3094 40.3999C19.6488 40.5429 19.7746 40.7507 19.6745 41.029C19.5859 41.2711 19.2332 41.3264 19.0006 41.3378C18.5078 41.3616 18.1619 41.2282 17.9093 41.0662C17.6157 40.8784 17.3774 40.6182 17.122 40.1797C16.836 39.7032 16.3594 39.4811 15.8161 39.4811C15.5569 39.4811 15.3148 39.5497 15.0994 39.6603C14.2482 40.1044 13.2341 40.3656 12.1427 40.3656L10.9036 40.3666C13.2636 47.3665 19.8823 52.4077 27.6791 52.4077C33.907 52.4077 39.3838 49.1918 42.5483 44.3288M45.3839 42.4358C45.1466 42.4358 44.919 42.53 44.751 42.6976C44.583 42.8652 44.4884 43.0926 44.4879 43.3299C44.4884 43.5672 44.583 43.7946 44.751 43.9622C44.919 44.1298 45.1466 44.224 45.3839 44.224C45.6209 44.2235 45.848 44.1291 46.0155 43.9615C46.1831 43.794 46.2774 43.5669 46.2779 43.3299C46.2774 43.0929 46.1831 42.8658 46.0155 42.6983C45.848 42.5307 45.6209 42.4364 45.3839 42.4358ZM45.3839 42.5941C45.529 42.5946 45.6708 42.6382 45.7912 42.7192C45.9116 42.8002 46.0054 42.915 46.0606 43.0493C46.1158 43.1835 46.1301 43.3311 46.1016 43.4734C46.0731 43.6157 46.003 43.7464 45.9003 43.8489C45.7976 43.9515 45.6669 44.0213 45.5245 44.0497C45.3822 44.078 45.2346 44.0636 45.1005 44.0082C44.9663 43.9528 44.8516 43.8589 44.7707 43.7383C44.6899 43.6178 44.6465 43.476 44.6461 43.3309C44.6461 42.9239 44.9759 42.5941 45.3839 42.5941ZM45.0817 42.8724V43.7855H45.2199V43.3795H45.3801L45.6212 43.775H45.7766L45.5164 43.3728C45.6517 43.3566 45.7547 43.2775 45.7547 43.1231C45.7547 42.9324 45.6479 42.8629 45.4325 42.8629L45.0817 42.8724ZM45.2199 42.9896H45.4087C45.504 42.9896 45.5993 43.0106 45.5993 43.1231C45.5993 43.2632 45.504 43.2727 45.3772 43.2727H45.2114L45.2199 42.9896Z" fill="white"/>
<path d="M27.7001 17.0086C17.9255 17.0086 10 24.9321 10 34.7086C9.99798 36.632 10.3099 38.5428 10.9236 40.3656H12.1627C13.2541 40.3656 14.2596 40.1025 15.1194 39.6602C15.3406 39.5441 15.5864 39.4827 15.8362 39.4811C16.3795 39.4811 16.8465 39.6927 17.142 40.1788C17.3974 40.6201 17.6357 40.8793 17.9293 41.0652C18.1819 41.2272 18.5279 41.3511 19.0206 41.3378C19.2523 41.3264 19.6059 41.2711 19.6945 41.028C19.7956 40.7497 19.6688 40.54 19.3295 40.3989C18.851 40.2083 18.7194 39.9062 18.4659 39.4458C18.2124 38.9854 17.6624 38.7557 17.5757 37.9064C17.4804 37.0696 18.1476 36.0173 19.441 36.3528C20.377 36.5949 20.9813 37.7511 21.2072 38.1466C21.3263 38.3544 21.7438 38.5984 22.0841 38.2896C22.4244 37.9808 22.7341 37.9779 22.9896 38.3849C23.2069 38.7223 24.7987 40.8441 26.522 40.9013C28.2758 40.9584 29.206 40.5047 29.9705 40.5333C30.5071 40.5524 30.7654 40.8231 31.0723 40.8727C31.6099 40.968 31.9911 40.4723 32.585 40.4914C33.0644 40.5152 33.5877 40.8345 34.1243 40.8345C34.6609 40.8345 35.7923 40.1864 35.778 40.4533C35.7494 40.926 35.3968 41.7629 35.2976 42.148C35.2357 42.4149 35.29 43.0659 35.1289 43.5834C34.9859 44.1134 34.4922 44.7844 34.3645 44.975C33.9308 45.6251 33.6153 45.8195 33.2617 46.5001C32.8661 47.2626 32.217 47.9679 32.0464 48.1967C31.8291 48.4855 33.2731 48.1871 33.785 47.701C34.2196 47.2874 34.9812 46.0426 36.1869 45.7785C37 45.6003 37.1629 45.2877 37.0638 44.9998C37.0351 44.933 37.0329 44.8578 37.0577 44.7894C37.0825 44.7211 37.1324 44.6648 37.1973 44.6319C38.036 44.2821 39.176 44.0657 40.438 44.0657C41.1579 44.0696 41.8751 44.155 42.5759 44.3202C44.4351 41.4565 45.4219 38.1143 45.4163 34.7C45.4163 24.9245 37.4927 17 27.7182 17L27.7001 17.0086ZM31.5965 42.7122C31.6871 42.7999 31.8444 43.1002 31.6518 43.4786C31.5481 43.6775 31.4012 43.8508 31.2219 43.9857C30.9741 44.1763 30.4861 44.4146 29.8189 43.9923C29.4605 43.7636 29.4376 43.6873 28.942 43.7521C28.5893 43.7998 28.4464 43.4414 28.5741 43.144C28.7018 42.8466 29.2241 42.6083 29.8742 42.9896C30.1668 43.1612 30.6224 43.5234 31.0218 43.2031C31.2032 43.0591 31.3687 42.8962 31.5155 42.717C31.5251 42.7075 31.5403 42.6979 31.5565 42.6979C31.5727 42.6979 31.5851 42.7037 31.5946 42.7113" fill="#5F5F5F"/>
<path d="M30.3574 20.6563C29.9479 20.6721 29.5412 20.7312 29.1441 20.8327C28.5569 20.9833 27.4074 21.5809 25.2762 21.1014C21.5875 20.2703 21.0404 22.1185 20.8297 22.9124L20.1091 26.0054C19.9395 26.9376 19.7184 28.557 25.4468 29.6484C28.1156 30.1564 28.251 30.8455 28.3682 31.3412C28.5798 32.2305 28.9191 32.7394 29.3004 32.993C29.6817 33.2465 29.3004 33.4581 28.8772 33.501C27.741 33.6192 23.5395 32.4144 21.0556 31.0018C19.0226 29.7589 18.9892 28.6409 19.4543 27.6915C16.3833 27.3579 14.0785 27.9794 13.6592 29.4339C12.9424 31.9293 19.1446 36.1898 26.2074 38.3287C33.6201 40.5724 41.2434 39.0055 42.0907 34.3474C42.4749 32.2314 40.6925 30.6654 37.6872 29.9867C37.5118 30.5748 37.263 31.3259 36.1564 31.893C35.9944 31.976 35.9343 31.8406 36.0077 31.7138C36.4271 31.0028 36.5005 30.8246 36.6216 30.5443C36.7931 30.1345 36.8808 29.5492 36.5424 28.333C35.8771 25.9377 34.4884 22.7361 33.479 21.6972C32.7489 20.9442 31.5727 20.5991 30.3584 20.6449L30.3574 20.6563ZM30.691 21.476L30.7921 21.477C31.9359 21.5027 32.8347 21.9536 32.8223 22.4835C32.8099 23.0135 31.8691 23.4233 30.7444 23.3985C30.4034 23.3923 30.0645 23.3426 29.736 23.2508C29.7007 23.2413 29.6759 23.2127 29.6759 23.1765C29.6759 23.1402 29.7007 23.1097 29.7369 23.1021C30.4442 22.9382 30.9227 22.6703 30.8903 22.4177C30.8455 22.0822 29.9199 21.9002 28.8219 22.0108C28.7018 22.0231 28.5836 22.0393 28.4692 22.0565C28.4283 22.0575 28.4025 22.0327 28.4025 22.0041C28.4025 21.9822 28.4159 21.9631 28.4349 21.9545C28.8314 21.7448 29.4224 21.579 30.0991 21.5103C30.2961 21.4897 30.494 21.4786 30.692 21.477L30.691 21.476ZM22.2795 23.6082C22.3604 23.6062 22.4407 23.622 22.5148 23.6545C22.5889 23.6869 22.655 23.7352 22.7084 23.796C22.9019 24.0372 23.3156 24.4318 23.8522 24.4175C24.3888 24.4032 25.0074 24.2907 25.871 24.2907C26.7459 24.2907 27.335 24.6176 27.3674 24.8978C27.396 25.1361 27.2959 25.363 26.3218 25.4335C24.2773 25.5813 24.0647 25.8024 23.6816 26.2103C23.1411 26.7851 22.431 25.464 22.431 25.464C22.004 25.3744 21.4874 24.6853 21.7657 24.0438C21.903 23.7264 22.0993 23.6149 22.2804 23.6082H22.2795Z" fill="#AEAEAE"/>
<path fill-rule="evenodd" clip-rule="evenodd" d="M52.339 35.0794L52.2475 31.8463H54.6847L54.7801 33.7573H54.8582C55.4063 32.341 56.7045 31.6175 57.9054 31.6175C58.1799 31.6175 58.3401 31.627 58.565 31.6718V34.0681C58.2857 34.0185 58.0027 33.9947 57.7072 33.9966C56.3661 33.9966 55.4358 34.7591 55.1851 35.9219C55.1346 36.1752 55.11 36.4329 55.1117 36.6911V41.9097H52.2961L52.339 35.0794ZM61.9716 37.5623C62.0478 39.3828 63.6072 40.1835 65.4106 40.1835C66.704 40.1835 67.6295 40.0005 68.4797 39.7069L68.8991 41.4607C67.9459 41.8248 66.6249 42.0993 65.0083 42.0993C61.3864 42.0993 59.2799 40.0806 59.2799 36.9962C59.2799 34.2177 61.1433 31.5899 64.7224 31.5899C68.3415 31.5899 69.5196 34.2806 69.5196 36.4853C69.5196 36.958 69.4748 37.3374 69.4186 37.5719L61.9716 37.5623ZM66.8679 35.7895C66.8803 34.8554 66.4314 33.337 64.547 33.337C62.8142 33.337 62.0936 34.7591 61.9687 35.7895H66.8679ZM102.4 39.5525C102.4 40.3379 102.433 41.15 102.56 41.9097H101.559L101.401 40.4876H101.348C100.814 41.2529 99.5944 42.1365 97.8502 42.1365C95.6427 42.1365 94.6152 40.7296 94.6152 39.4076C94.6152 37.1182 96.8503 35.738 101.316 35.778V35.514C101.316 34.5323 101.104 32.5735 98.5088 32.5897C97.549 32.5897 96.5481 32.8223 95.7446 33.3294L95.3986 32.6145C96.4023 32.0007 97.6252 31.7567 98.6184 31.7567C101.786 31.7567 102.393 33.906 102.393 35.6789V39.5506L102.4 39.5525ZM101.313 36.6054C98.9234 36.5425 95.7656 36.8722 95.7656 39.2551C95.7656 40.681 96.8065 41.3216 97.9483 41.3216C99.7784 41.3216 100.817 40.2979 101.195 39.3323C101.269 39.1426 101.308 38.9412 101.311 38.7376L101.313 36.6054ZM106.872 29.7999V31.9864H110V32.7832H106.872V39.2332C106.872 40.4952 107.306 41.2853 108.484 41.2853C109.05 41.2853 109.449 41.2186 109.73 41.1309L109.862 41.8915C109.506 42.025 109.009 42.1298 108.346 42.1298C107.544 42.1298 106.881 41.903 106.452 41.4274C105.957 40.9031 105.785 40.0739 105.785 39.0597V32.7851H103.936V31.9883H105.785V30.164L106.872 29.7999ZM88.9982 31.7595C88.2166 31.7586 87.4513 31.9559 86.7869 32.3286C86.1512 32.6717 85.6336 33.1673 85.2886 33.7583H85.2428V28.8496L84.1562 28.5827V41.9116H85.2428V35.84C85.2428 35.4368 85.2762 35.1575 85.3915 34.862C85.6561 34.2001 86.1126 33.6324 86.7023 33.2319C87.292 32.8314 87.988 32.6164 88.7008 32.6145C90.9465 32.6145 91.7242 34.2444 91.7242 36.0316V41.9087H92.8108V35.9229C92.8118 32.2247 90.0372 31.7576 88.9982 31.7576V31.7595ZM81.6399 27.966L78.8281 27.2769V32.931H78.7823C78.2838 32.1875 77.1868 31.6194 75.6627 31.6194C72.9872 31.6194 70.6558 33.621 70.6739 36.9952C70.6739 40.0891 72.7784 42.1394 75.4368 42.1394C77.0428 42.1394 78.3858 41.4464 79.0492 40.3188H79.1007L79.2275 41.9106H81.7343L81.6418 39.0874L81.6399 27.966ZM78.8281 37.5471C78.8281 37.814 78.8071 38.0637 78.7423 38.2905C78.4583 39.3924 77.4632 40.1015 76.3118 40.1015C74.5389 40.1015 73.5257 38.75 73.5257 36.9018C73.5257 35.0336 74.5313 33.5896 76.3442 33.5896C77.609 33.5896 78.5135 34.3969 78.7652 35.3758C78.8128 35.5826 78.8281 35.8371 78.8281 36.0401V37.5471Z" fill="#5F5F5F"/>
</svg>
