<svg width="120" height="70" viewBox="0 0 120 70" fill="none" xmlns="http://www.w3.org/2000/svg">
<path fill-rule="evenodd" clip-rule="evenodd" d="M10 42.5833V28.3297H13.7397L19.0724 35.7042C19.1829 35.8138 19.3477 36.1444 19.5678 36.5846C19.8422 37.0248 20.0623 37.5755 20.3377 38.1805C20.2824 37.6298 20.2271 37.08 20.1719 36.6398C20.1719 36.1444 20.1176 35.7595 20.1176 35.3736V28.3297H23.8563V42.5833H20.1176L14.7839 35.264C14.6743 35.0983 14.5085 34.8239 14.2894 34.3284C14.0141 33.8882 13.794 33.3375 13.5196 32.7325C13.5739 33.3375 13.6291 33.8882 13.6844 34.3284C13.6844 34.8239 13.7397 35.2088 13.7397 35.5937V42.5833H10Z" fill="#838383"/>
<path fill-rule="evenodd" clip-rule="evenodd" d="M30.6191 37.3001H34.4683L33.0382 32.5677C32.9829 32.4571 32.9286 32.1818 32.8734 31.9064C32.7638 31.5768 32.6533 31.1366 32.5437 30.6412C32.4884 31.0261 32.3789 31.3567 32.3236 31.6864C32.214 31.9617 32.1588 32.2923 32.0482 32.5677L30.6191 37.3001ZM25.2311 42.5833L30.1246 28.3297H34.9628L39.8563 42.5833H36.007L35.2925 40.0518H29.794L29.0794 42.5833H25.2311Z" fill="#838383"/>
<path fill-rule="evenodd" clip-rule="evenodd" d="M41.8361 38.0156C42.3859 38.6759 42.99 39.1713 43.5407 39.4457C44.0904 39.7763 44.6402 39.9412 45.1899 39.9412C45.7397 39.9412 46.1246 39.8316 46.4543 39.5563C46.7839 39.2809 46.9487 38.896 46.9487 38.4558C46.9487 38.0156 46.8392 37.6297 46.5638 37.4096C46.2342 37.1352 45.6291 36.8599 44.5849 36.5845C43.21 36.1996 42.2201 35.7042 41.6704 35.0982C41.0663 34.4932 40.7909 33.6681 40.7909 32.6219C40.7909 31.2461 41.2311 30.1457 42.1658 29.3206C43.0452 28.4402 44.2552 28 45.6844 28C46.4543 28 47.2241 28.1096 47.8834 28.3297C48.599 28.5498 49.2583 28.8804 49.8633 29.2653L48.6533 32.0722C48.214 31.6863 47.7739 31.4119 47.3337 31.2461C46.8392 31.026 46.399 30.9165 45.9598 30.9165C45.5196 30.9165 45.1347 31.026 44.805 31.3014C44.5296 31.5215 44.3648 31.7968 44.3648 32.1265C44.3648 32.5124 44.5296 32.7877 44.7497 33.0078C45.0251 33.2279 45.5196 33.3927 46.2342 33.6128L46.399 33.6681C47.9939 34.1083 49.0382 34.5484 49.5336 35.0439C49.8633 35.4288 50.1377 35.8137 50.3035 36.3092C50.4683 36.8046 50.5779 37.3553 50.5779 37.9604C50.5779 39.501 50.0834 40.712 49.0935 41.5923C48.1035 42.528 46.7839 42.9682 45.1347 42.9682C44.1447 42.9682 43.2653 42.8033 42.4402 42.4727C41.616 42.143 40.8462 41.5923 40.0764 40.8768L41.8361 38.0156Z" fill="#838383"/>
<path fill-rule="evenodd" clip-rule="evenodd" d="M53.3276 38.0156C53.9317 38.6759 54.4824 39.1713 55.0322 39.4457C55.6362 39.7763 56.186 39.9412 56.7367 39.9412C57.2312 39.9412 57.6713 39.8316 58.001 39.5563C58.3307 39.2809 58.4955 38.896 58.4955 38.4558C58.4955 38.0156 58.3307 37.6297 58.0563 37.4096C57.7809 37.1352 57.1216 36.8599 56.1317 36.5845C54.7015 36.1996 53.7669 35.7042 53.1628 35.0982C52.6121 34.4932 52.2824 33.6681 52.2824 32.6219C52.2824 31.2461 52.7779 30.1457 53.6573 29.3206C54.592 28.4402 55.7467 28 57.1759 28C58.001 28 58.7156 28.1096 59.4302 28.3297C60.1448 28.5498 60.805 28.8804 61.4101 29.2653L60.2 32.0722C59.7598 31.6863 59.3206 31.4119 58.8252 31.2461C58.3859 31.026 57.9458 30.9165 57.5056 30.9165C57.0111 30.9165 56.6262 31.026 56.3517 31.3014C56.0764 31.5215 55.9116 31.7968 55.9116 32.1265C55.9116 32.5124 56.0211 32.7877 56.2965 33.0078C56.5709 33.2279 57.0663 33.3927 57.7809 33.6128L57.9458 33.6681C59.5407 34.1083 60.5297 34.5484 61.0251 35.0439C61.4101 35.4288 61.6301 35.8137 61.795 36.3092C62.0151 36.8046 62.0694 37.3553 62.0694 37.9604C62.0694 39.501 61.5749 40.712 60.5849 41.5923C59.595 42.528 58.2754 42.9682 56.6262 42.9682C55.6362 42.9682 54.7568 42.8033 53.9317 42.4727C53.1628 42.143 52.3377 41.5923 51.6231 40.8768L53.3276 38.0156Z" fill="#838383"/>
<path fill-rule="evenodd" clip-rule="evenodd" d="M74.4955 28.8804V33.1726C74.001 32.5676 73.4513 32.1265 72.9568 31.8521C72.4061 31.5767 71.8563 31.4119 71.2523 31.4119C70.1518 31.4119 69.2171 31.7968 68.5578 32.5676C67.8432 33.3375 67.5126 34.3284 67.5126 35.5393C67.5126 36.6951 67.8432 37.6297 68.5578 38.4005C69.2724 39.1713 70.1518 39.5563 71.2523 39.5563C71.8563 39.5563 72.4061 39.3914 72.9568 39.1161C73.4513 38.8407 74.001 38.4005 74.4955 37.7955V42.0878C73.8915 42.3631 73.2865 42.5832 72.6814 42.7481C72.0764 42.9129 71.4714 42.9682 70.8673 42.9682C70.0975 42.9682 69.382 42.8576 68.7226 42.6928C68.0624 42.528 67.4583 42.1974 66.9085 41.8677C65.8633 41.1522 65.0392 40.2165 64.4885 39.1713C63.9387 38.0699 63.6643 36.8599 63.6643 35.4841C63.6643 34.3836 63.8292 33.3927 64.1588 32.5124C64.5438 31.632 65.0392 30.8059 65.7538 30.0904C66.4131 29.3758 67.183 28.8804 68.0081 28.4945C68.8875 28.1648 69.8221 28 70.8673 28C71.4714 28 72.0764 28.0543 72.6814 28.2201C73.2865 28.3849 73.8915 28.605 74.4955 28.8804Z" fill="#838383"/>
<path fill-rule="evenodd" clip-rule="evenodd" d="M91.2654 35.4841C91.2654 36.5293 91.0463 37.5202 90.6613 38.4005C90.3307 39.2809 89.781 40.107 89.0664 40.8215C88.3518 41.4828 87.5267 42.0325 86.592 42.4175C85.6573 42.8033 84.6674 42.9682 83.6784 42.9682C82.6885 42.9682 81.6985 42.8033 80.7639 42.4175C79.8292 42.0325 79.0041 41.4828 78.3448 40.8215C77.5749 40.107 77.0252 39.2809 76.6402 38.4005C76.3106 37.4649 76.0905 36.5293 76.0905 35.4841C76.0905 34.4932 76.3106 33.5023 76.6402 32.6219C77.0252 31.7416 77.5749 30.9165 78.3448 30.2009C79.0041 29.5406 79.8292 28.9899 80.7639 28.605C81.6985 28.2201 82.6885 28 83.6784 28C84.6674 28 85.6573 28.2201 86.592 28.605C87.5267 28.9899 88.3518 29.5406 89.0664 30.2009C89.781 30.9165 90.2764 31.7416 90.6613 32.6219C91.0463 33.5023 91.2654 34.4932 91.2654 35.4841ZM83.6784 39.7211C84.7227 39.7211 85.6573 39.2809 86.3176 38.5101C87.0322 37.7403 87.3619 36.6951 87.3619 35.4841C87.3619 34.3284 87.0322 33.3375 86.3176 32.5124C85.6021 31.7416 84.7227 31.3014 83.6784 31.3014C82.5789 31.3014 81.6985 31.7416 81.0392 32.5124C80.3237 33.2822 79.994 34.3284 79.994 35.4841C79.994 36.7494 80.3237 37.7403 80.984 38.5101C81.6985 39.2809 82.5789 39.7211 83.6784 39.7211Z" fill="#838383"/>
<path fill-rule="evenodd" clip-rule="evenodd" d="M109.906 42.5833H106.332L105.507 36.4198C105.451 36.0339 105.397 35.5394 105.342 34.9887C105.286 34.438 105.231 33.8882 105.177 33.2279C105.122 33.833 104.902 34.6038 104.681 35.4841C104.627 35.7042 104.572 35.8138 104.517 35.9243L102.592 42.5833H100.008L98.0835 35.9243C98.0835 35.8138 98.0292 35.7042 97.9739 35.4841C97.6985 34.6038 97.5337 33.833 97.4794 33.2823C97.4241 33.7777 97.3689 34.3284 97.3136 34.8782C97.2593 35.3736 97.204 35.9243 97.1488 36.4198L96.3246 42.5833H92.6955L94.8945 28.3297H98.7437L100.887 35.7042C100.887 35.7595 100.887 35.8138 100.943 35.9796C101.163 36.5846 101.272 37.1896 101.328 37.6298C101.328 37.4097 101.383 37.08 101.438 36.8047C101.548 36.4741 101.657 36.1444 101.768 35.7042L103.912 28.3297H107.761L109.906 42.5833Z" fill="#838383"/>
</svg>
