<svg width="120" height="70" viewBox="0 0 120 70" fill="none" xmlns="http://www.w3.org/2000/svg">
<path d="M83.2389 14.0959C83.8607 14.0655 84.4825 14.0091 85.1049 14.0078C90.0049 14.0002 94.9055 13.9995 99.8054 14.0097C100.322 14.011 100.851 14.0477 101.351 14.1637C101.731 14.2512 102.082 14.4787 102.435 14.6656C102.748 14.8323 103.116 14.9686 103.334 15.2253C103.767 15.7342 104.157 16.2919 104.487 16.8731C104.912 17.6234 105.001 18.4657 105 19.3232C104.994 24.3395 104.996 29.3564 104.999 34.3727C104.999 34.8594 104.947 35.3328 104.842 35.8107C104.598 36.9141 104.006 37.8102 103.172 38.5232C102.382 39.1976 101.437 39.6063 100.388 39.7223C100.226 39.7401 100.058 39.6913 99.8918 39.6913C94.6844 39.6894 89.4777 39.6742 84.2704 39.7001C82.8274 39.7071 81.6708 39.1513 80.6629 38.1886C80.5587 38.0891 80.485 37.9592 80.3967 37.8432C80.4298 37.8229 80.4609 37.7887 80.4965 37.7836C81.0179 37.7057 81.5412 37.641 82.0614 37.5548C82.8026 37.4325 83.4777 37.1321 84.1217 36.7544C84.1427 36.7569 84.1637 36.7626 84.1846 36.7626C89.4663 36.7639 94.748 36.7664 100.029 36.7588C100.253 36.7588 100.491 36.6973 100.7 36.6086C101.624 36.2157 102.052 35.4868 102.054 34.5013C102.058 32.389 102.055 30.2766 102.055 28.1643C102.055 25.1437 102.059 22.1232 102.052 19.1027C102.051 18.4416 101.783 17.8757 101.28 17.4498C100.78 17.0271 100.159 16.9314 99.5285 16.9314C94.5644 16.9276 89.6003 16.9288 84.6362 16.9301C84.5098 16.9301 84.3828 16.9396 84.2564 16.9453C83.1062 16.8661 82.1586 17.8896 82.1706 18.9417C82.1903 20.637 82.1878 22.3323 82.1948 24.0277C82.1941 27.4976 82.1935 30.9668 82.1929 34.4367C82.0785 34.4874 81.9687 34.5666 81.8493 34.5844C80.9734 34.7118 80.0963 34.8271 79.2199 34.9462C79.2313 34.8106 79.2523 34.6756 79.2523 34.5406C79.2542 29.421 79.27 24.3015 79.2427 19.1819C79.2351 17.8022 79.6854 16.636 80.5498 15.5966C80.6038 15.5694 80.6673 15.5529 80.7092 15.5136C81.2205 15.0288 81.7832 14.6257 82.4507 14.3817C82.7124 14.286 82.9741 14.1922 83.2357 14.0971L83.2389 14.0959Z" fill="#999999"/>
<path d="M42.4796 34.5304C42.2522 34.8409 42.0407 35.1654 41.7936 35.4601C41.069 36.3258 40.1385 36.8728 39.0372 37.0997C38.2192 37.2683 37.3884 37.3754 36.564 37.5154C35.8318 37.6403 35.1026 37.7822 34.3697 37.8995C33.5129 38.0364 32.6523 38.1467 31.7956 38.2842C30.8175 38.4407 29.8438 38.6195 28.8657 38.7779C28.021 38.9148 27.1719 39.0289 26.3272 39.167C25.4723 39.3065 24.62 39.4598 23.7676 39.6138C22.1576 39.9047 20.6593 39.6487 19.3707 38.6118C18.4758 37.8919 17.8502 36.9558 17.6095 35.8169C17.4443 35.0361 17.3542 34.2388 17.224 33.4504C17.1052 32.7324 16.9744 32.0162 16.8556 31.2975C16.7406 30.6004 16.6358 29.9013 16.5228 29.2035C16.4027 28.4646 16.2745 27.7269 16.1563 26.9873C16.0433 26.2793 15.941 25.5695 15.8299 24.861C15.7187 24.1511 15.6031 23.442 15.4882 22.7328C15.37 22.0052 15.2367 21.2795 15.137 20.5488C15.0658 20.0247 14.9902 19.4942 15.001 18.9675C15.0214 17.9643 15.3681 17.0536 15.9664 16.2487C16.8492 15.061 18.0445 14.4171 19.5066 14.2124C20.6955 14.0463 21.8781 13.8359 23.0639 13.6445C24.5253 13.4094 25.9855 13.1698 27.4475 12.9391C28.4396 12.7826 29.4354 12.6489 30.4269 12.4879C31.5288 12.3098 32.6257 12.0962 33.7295 11.9302C34.3875 11.8313 35.0575 11.7229 35.7174 11.7458C36.921 11.7876 37.988 12.2344 38.8937 13.0481C39.6755 13.7504 40.1773 14.6129 40.4243 15.627C40.4954 15.9198 40.5456 16.2183 40.6053 16.5136C40.5374 16.7075 40.4815 16.9065 40.3989 17.0941C40.096 17.7818 39.7886 18.4675 39.4748 19.1501C39.1268 19.9068 38.7705 20.6603 38.418 21.4152C38.3386 20.9747 38.2566 20.5349 38.1798 20.0944C37.9658 18.8623 37.7422 17.6322 37.544 16.3976C37.4081 15.5509 36.8657 15.0756 36.1245 14.7739C35.5688 14.5483 35.0055 14.7112 34.4497 14.7942C33.7365 14.9007 33.0271 15.0318 32.3144 15.1459C31.3459 15.3006 30.3748 15.4425 29.4062 15.6016C28.4402 15.76 27.478 15.9407 26.5113 16.0959C25.3897 16.2766 24.2649 16.4356 23.1427 16.6125C21.9817 16.7956 20.8232 16.9959 19.6622 17.1746C18.6625 17.3286 17.7517 18.5169 17.9131 19.4594C18.1538 20.8663 18.3792 22.2752 18.6123 23.6834C18.8899 25.3585 19.1706 27.0335 19.445 28.7092C19.7854 30.7899 20.1214 32.8712 20.4593 34.9525C20.6517 36.1395 21.7486 36.921 22.9286 36.7296C26.0255 36.227 29.1236 35.7339 32.2205 35.2345C34.2751 34.903 36.3303 34.576 38.3818 34.2287C38.9661 34.1298 39.4469 33.8345 39.7422 33.2939C39.9702 32.9491 40.115 32.5689 40.0712 32.1575C39.9988 31.4839 39.8864 30.8146 39.7905 30.1434C39.666 29.3747 39.544 28.6053 39.4145 27.8378C39.3668 27.5583 39.2995 27.2813 39.2411 27.0037C39.2538 26.9004 39.2424 26.7864 39.2824 26.6945C39.4767 26.2464 39.6844 25.804 39.887 25.3597C40.397 24.238 40.907 23.1156 41.417 21.9938C41.4361 22.0274 41.4665 22.0591 41.4716 22.0946C41.5409 22.575 41.598 23.0573 41.6742 23.5364C41.814 24.411 41.9658 25.2843 42.1087 26.1583C42.2217 26.8504 42.3246 27.5443 42.4402 28.2358C42.6295 29.3633 42.8251 30.4895 43.0182 31.6163C43.0423 32.6253 42.9483 33.612 42.4777 34.5297L42.4796 34.5304Z" fill="#5F5F5F"/>
<path d="M84.1226 36.7545C83.4793 37.1315 82.8035 37.432 82.0623 37.5549C81.5421 37.6411 81.0188 37.7057 80.4974 37.7837C80.4618 37.7888 80.4307 37.823 80.3976 37.8433C79.7168 37.9206 79.0353 37.996 78.3551 38.0765C77.8197 38.1399 77.2843 38.209 76.7495 38.2793C76.0496 38.3712 75.3497 38.465 74.6504 38.5613C74.1169 38.6348 73.5841 38.7141 73.0512 38.7908C72.4872 38.8712 71.9232 38.9555 71.3586 39.0303C70.8238 39.1013 70.2872 39.1558 69.753 39.2293C69.0341 39.3288 68.3183 39.4505 67.598 39.5418C66.9477 39.6242 66.2922 39.7439 65.6419 39.73C64.531 39.7072 63.5193 39.3345 62.6333 38.6444C61.5549 37.8046 60.9845 36.6746 60.7235 35.364C60.6981 35.2366 60.6784 35.1086 60.6555 34.9805C60.679 34.8715 60.6841 34.7536 60.7286 34.6541C61.4596 33.0152 62.1963 31.3788 62.9312 29.7412C62.9775 30.0074 63.0309 30.2729 63.0696 30.541C63.1744 31.2628 63.2767 31.986 63.3732 32.7091C63.4672 33.4132 63.5542 34.1173 63.6406 34.8221C63.7714 35.8862 64.5876 36.7937 65.6749 36.7488C66.7908 36.7031 67.901 36.513 69.0118 36.3691C70.0274 36.2379 71.0391 36.0814 72.0534 35.9432C73.0487 35.8076 74.0452 35.6834 75.0404 35.5497C75.7765 35.4508 76.512 35.3494 77.2474 35.2429C77.9061 35.1479 78.5634 35.0445 79.2214 34.945C80.0985 34.8259 80.9756 34.7106 81.8514 34.5832C81.9708 34.566 82.0807 34.4862 82.195 34.4355C82.7978 34.111 83.2589 33.6236 83.3173 32.9512C83.3726 32.3168 83.2468 31.664 83.1795 31.0214C83.1204 30.4567 83.0321 29.8945 82.9566 29.3311C82.8689 28.6821 82.7825 28.0325 82.6936 27.3835C82.6136 26.8011 82.5329 26.2187 82.4472 25.6369C82.3678 25.0994 82.2808 24.5626 82.197 24.0258C82.19 22.3305 82.1925 20.6352 82.1728 18.9398C82.1607 17.8872 83.1077 16.8636 84.2586 16.9435C84.4364 18.2997 84.6098 19.6573 84.7921 21.0129C84.9775 22.3901 85.1725 23.7666 85.3618 25.1432C85.5555 26.5514 85.7498 27.959 85.9378 29.3679C86.0496 30.207 86.1252 31.0518 86.2611 31.8865C86.444 33.0127 86.1874 34.0419 85.6717 35.0306C85.3027 35.7373 84.7374 36.2671 84.1226 36.7532V36.7545Z" fill="#5F5F5F"/>
<path d="M41.4178 21.9952C40.9078 23.1176 40.3977 24.2394 39.8877 25.3611C39.6858 25.8061 39.4775 26.2478 39.2831 26.6959C39.2431 26.7878 39.2545 26.9012 39.2418 27.0051C39.2018 27.0489 39.1491 27.0863 39.1231 27.137C38.554 28.2378 38.7236 29.3045 39.7912 30.1448C39.8871 30.816 39.9995 31.4853 40.0719 32.159C40.1164 32.5703 39.9709 32.9505 39.7429 33.2953C38.9713 32.9987 38.2212 32.6672 37.5918 32.1089C36.6461 31.2704 36.0777 30.2209 35.9049 28.9838C35.8319 28.4596 35.8293 27.8962 35.9398 27.3822C36.2275 26.0469 36.9274 24.8636 37.4648 23.6208C37.7823 22.8856 38.0999 22.1511 38.4174 21.4159C38.7699 20.6611 39.1269 19.9082 39.4743 19.1508C39.788 18.4683 40.0954 17.7825 40.3984 17.0949C40.481 16.9073 40.5368 16.7083 40.6048 16.5144C40.9376 15.7919 41.2615 15.0656 41.6045 14.3475C42.1291 13.2486 42.5927 12.1122 43.2158 11.0709C43.9297 9.87818 45.118 9.31349 46.4663 9.06949C47.7988 8.82802 48.989 9.25074 50.1691 9.80022C51.7861 10.5538 53.4196 11.2731 55.0487 12.0013C56.6086 12.6984 58.1704 13.3899 59.7328 14.0807C60.2332 14.3019 60.7375 14.5123 61.2405 14.7271C61.1853 14.7753 61.137 14.8387 61.0735 14.8704C60.4917 15.1581 60.0554 15.6125 59.668 16.1151C59.4514 16.3959 59.2628 16.6988 59.0621 16.9916C58.8175 16.887 58.5711 16.7856 58.3279 16.6772C56.7661 15.9839 55.2043 15.2899 53.6432 14.594C52.0236 13.8722 50.4079 13.1415 48.7845 12.4285C48.2701 12.2022 47.7791 11.9487 47.1662 11.9658C46.3844 11.988 45.6362 12.5451 45.3511 13.1807C44.0364 16.117 42.728 19.0564 41.4171 21.9939L41.4178 21.9952Z" fill="#999999"/>
<path d="M62.9313 29.7411C62.1958 31.3781 61.4597 33.0151 60.7287 34.6534C60.6843 34.7529 60.6792 34.8708 60.6557 34.9798C60.5064 35.2707 60.3426 35.5553 60.2098 35.8538C59.8065 36.7632 59.4204 37.6841 58.6417 38.3546C57.7798 39.0968 56.7973 39.5601 55.6465 39.6881C54.5579 39.8091 53.5855 39.5062 52.6201 39.0613C51.2845 38.4465 49.9329 37.866 48.5877 37.2715C47.092 36.6105 45.595 35.9533 44.1012 35.2878C43.5563 35.0451 43.0196 34.7833 42.4785 34.5298C42.9491 33.6121 43.0431 32.6254 43.019 31.6164C43.5906 31.8528 44.1667 32.0784 44.7325 32.3275C46.0511 32.9093 47.3619 33.5063 48.6798 34.0894C50.4956 34.893 52.3159 35.6884 54.133 36.4888C55.5087 37.0947 56.6233 36.6631 57.2406 35.2847C57.8859 33.8435 58.5344 32.4035 59.1727 30.9592C59.4439 30.3451 59.6947 29.7221 59.9545 29.1029C60.0187 28.997 60.093 28.8956 60.145 28.7835C60.4118 28.215 60.6785 27.6458 60.9339 27.0723C61.3689 26.0944 61.7951 25.1127 62.2251 24.1322C62.6347 23.2 63.0361 22.2639 63.4553 21.336C63.9488 20.2434 63.5144 18.9657 62.4582 18.4987C62.2594 18.4106 62.0682 18.306 61.8732 18.209C62.0275 17.695 62.7281 17.1804 63.3327 17.1126C63.945 17.0435 64.5553 16.9516 65.1663 16.8699C65.3911 17.1658 65.6414 17.446 65.8351 17.761C66.5591 18.9391 66.8405 20.2225 66.4435 21.556C66.1609 22.5047 65.7214 23.4078 65.3314 24.3224C65.0412 25.0037 64.7116 25.6672 64.4118 26.3447C63.9126 27.4735 63.4235 28.6073 62.93 29.7385L62.9313 29.7411Z" fill="#999999"/>
<path d="M65.1676 16.8719C64.5566 16.9536 63.9469 17.0455 63.334 17.1146C62.73 17.1824 62.0288 17.6964 61.8751 18.211C61.5258 18.5685 61.5182 19.0191 61.5671 19.4653C61.6497 20.2144 61.7627 20.9603 61.8694 21.7063C61.985 22.5162 62.1076 23.3249 62.227 24.1342C61.797 25.1147 61.3708 26.0964 60.9358 27.0743C60.6805 27.6479 60.4131 28.217 60.147 28.7855C60.0949 28.897 60.0206 28.9984 59.9564 29.1049C59.9145 28.9274 59.8593 28.7513 59.8332 28.5719C59.7424 27.9464 59.6624 27.3189 59.576 26.6928C59.496 26.1103 59.4109 25.5285 59.3308 24.9461C59.2832 24.5975 59.2445 24.2477 59.1943 23.8998C59.1136 23.3382 59.0222 22.7786 58.9447 22.2171C58.8488 21.5206 58.7713 20.8215 58.669 20.1263C58.5789 19.509 58.5211 18.8942 58.6856 18.2827C58.8024 17.8504 58.9358 17.4226 59.0622 16.9929C59.2635 16.7001 59.4515 16.3972 59.6681 16.1164C60.0555 15.6139 60.4912 15.1601 61.0736 14.8717C61.1371 14.84 61.1854 14.7773 61.2406 14.7285C62.1171 14.2867 63.0673 14.1727 64.0263 14.0706C64.8291 13.9851 65.6249 13.8387 66.4251 13.7303C67.1898 13.627 67.9577 13.544 68.7224 13.4413C69.4115 13.3488 70.0974 13.2372 70.7865 13.1428C71.3327 13.0674 71.8808 13.0091 72.427 12.9349C73.1263 12.8405 73.8243 12.7365 74.5236 12.6396C75.0482 12.5667 75.5741 12.4964 76.0993 12.4292C76.8005 12.3398 77.508 12.2853 78.2028 12.1592C79.261 11.9678 80.2657 12.1047 81.24 12.5293C82.0402 12.8785 82.702 13.4077 83.2374 14.0954C82.9758 14.1904 82.7135 14.2842 82.4524 14.3799C81.7849 14.6233 81.2216 15.027 80.7109 15.5118C80.669 15.5518 80.6049 15.5676 80.5515 15.5948C80.3451 15.4478 80.1558 15.2634 79.9291 15.162C79.4674 14.9554 78.9809 15.0137 78.4899 15.0847C77.4274 15.2374 76.3597 15.3527 75.2959 15.4972C74.1812 15.6487 73.0698 15.8249 71.9545 15.9751C70.9008 16.1171 69.8434 16.2337 68.7891 16.3731C67.5811 16.5328 66.3743 16.7052 65.167 16.8719H65.1676Z" fill="#5F5F5F"/>
<path d="M75.013 42.9761C76.6916 42.9812 77.3851 43.9319 77.4067 45.278C77.4264 46.5227 76.6941 47.5633 75.0885 47.6007C73.5306 47.6369 72.7589 46.5721 72.7367 45.2577C72.7151 44.0123 73.6633 42.9096 75.013 42.9761ZM75.0955 43.8007C74.6611 43.8007 74.4267 43.8926 74.2108 44.1296C73.7345 44.6518 73.7141 45.8864 74.2305 46.4017C74.59 46.7604 75.0104 46.8649 75.4912 46.7135C75.8844 46.5892 76.1467 46.3243 76.2121 45.9162C76.2629 45.6006 76.2813 45.2767 76.2781 44.9567C76.2718 44.2601 75.791 43.8007 75.0955 43.8007Z" fill="#5F5F5F"/>
<path d="M56.5278 45.3028C56.6555 46.6046 55.4799 47.5989 54.2579 47.6224C52.8238 47.6503 51.8426 46.5266 51.8883 45.2128C51.9277 44.0746 52.7743 42.8926 54.3341 42.9648C55.6133 43.0238 56.6237 43.9129 56.5285 45.3028H56.5278ZM55.5028 45.2781C55.4875 45.2736 55.4716 45.2692 55.4564 45.2648C55.4564 45.1596 55.4583 45.0544 55.4564 44.9492C55.445 44.4238 55.0709 43.963 54.5355 43.8147C54.0375 43.6765 53.5078 43.8597 53.2589 44.2774C52.8803 44.9124 52.86 45.5671 53.2417 46.2046C53.4774 46.5982 53.8375 46.8169 54.3176 46.7769C54.7647 46.7395 55.1331 46.5526 55.3027 46.1216C55.4075 45.8554 55.4392 45.5601 55.5034 45.2781H55.5028Z" fill="#5F5F5F"/>
<path d="M63.7574 45.7153C63.7574 46.2014 63.7485 46.6748 63.7606 47.1482C63.7676 47.4271 63.6742 47.5488 63.377 47.545C62.6986 47.5367 62.6987 47.5475 62.6987 46.8808C62.6987 45.7305 62.7063 44.5802 62.6936 43.4299C62.6904 43.1314 62.7736 43.0199 63.0892 43.0332C63.8234 43.0636 63.7555 42.928 63.7574 43.7214C63.7587 44.0694 63.758 44.4179 63.7593 44.7659C63.7593 44.7862 63.7682 44.8064 63.7784 44.847H65.5992C65.5992 44.3596 65.6113 43.8773 65.5942 43.3957C65.5846 43.1238 65.6666 43.0237 65.9524 43.0338C66.7355 43.061 66.632 42.9299 66.6351 43.7328C66.6396 44.8622 66.637 45.991 66.6358 47.1203C66.6358 47.5323 66.6269 47.5399 66.2039 47.5393C66.0559 47.5393 65.9079 47.5361 65.7599 47.5317C65.7199 47.5304 65.6799 47.5209 65.6126 47.5107V45.7153H63.7561H63.7574Z" fill="#5F5F5F"/>
<path d="M43.994 46.7155C44.6139 46.7155 45.1823 46.7294 45.7489 46.7098C46.0556 46.699 46.1287 46.8264 46.1179 47.104C46.1077 47.3556 46.1223 47.5533 45.7622 47.5463C44.8006 47.5267 43.8384 47.5425 42.8768 47.5356C42.7727 47.5349 42.5885 47.4887 42.5809 47.4411C42.5599 47.3112 42.5733 47.1426 42.6438 47.0362C43.2903 46.0621 43.9527 45.0987 44.6095 44.131C44.6666 44.0473 44.7181 43.9598 44.7987 43.8325C44.2493 43.8325 43.7457 43.8325 43.242 43.8325C42.8082 43.8325 42.8317 43.8299 42.8013 43.4205C42.7759 43.0776 42.9226 43.0174 43.2236 43.0225C44.069 43.0383 44.9149 43.0231 45.7603 43.0326C45.8949 43.0339 46.1287 43.077 46.1426 43.1397C46.175 43.283 46.1426 43.4782 46.0613 43.6043C45.6021 44.3217 45.1207 45.0246 44.6476 45.7331C44.4367 46.0481 44.2271 46.3644 43.994 46.7142V46.7155Z" fill="#5F5F5F"/>
<path d="M65.9512 56.2542V53.098H66.8225V60.9042H65.9734V60.0796C65.9016 60.1062 65.8514 60.1088 65.8311 60.1341C65.3459 60.7565 64.6739 61.0347 63.9213 61.0189C62.7139 60.9941 61.8934 60.2653 61.6349 59.0193C61.5129 58.4312 61.5339 57.845 61.6901 57.2682C61.9423 56.3366 62.7438 55.5539 63.6488 55.4671C64.5139 55.384 65.3046 55.5501 65.8946 56.2618C65.92 56.2859 65.9454 56.31 65.9708 56.334C65.9639 56.3074 65.9569 56.2814 65.9499 56.2548L65.9512 56.2542ZM65.9486 58.2233C66.0153 56.9881 65.4126 56.2821 64.4891 56.1674C63.6844 56.0679 62.9591 56.3283 62.6422 57.1852C62.4745 57.6383 62.4656 58.0959 62.4872 58.563C62.5209 59.2982 62.9832 60.1012 63.7873 60.259C64.2852 60.3566 65.1452 60.1297 65.4678 59.7272C65.8299 59.2754 66.002 58.7645 65.9493 58.2233H65.9486ZM65.967 60.015C65.9658 60.0093 65.967 60.001 65.9632 59.9985C65.9581 59.9947 65.9499 59.9953 65.9435 59.9941C65.9454 60.0036 65.9474 60.0124 65.9493 60.0219L65.9677 60.015H65.967Z" fill="#838383"/>
<path d="M15 60.9184C15.8473 58.4487 16.6799 56.0232 17.5189 53.5762C17.8485 53.5762 18.1889 53.5674 18.5287 53.5838C18.5935 53.587 18.6856 53.6789 18.7104 53.7493C18.9289 54.3691 19.127 54.9959 19.3461 55.6157C19.9304 57.2673 20.523 58.9164 21.1105 60.5673C21.1473 60.6713 21.1677 60.7816 21.2051 60.9267C20.9282 60.9267 20.685 60.9387 20.4443 60.9184C20.3807 60.9134 20.2969 60.8183 20.2721 60.7467C20.0765 60.196 19.8879 59.642 19.7088 59.0856C19.6612 58.9379 19.5938 58.8822 19.4331 58.8834C18.5389 58.8917 17.6446 58.8923 16.7504 58.8828C16.5834 58.8809 16.523 58.9455 16.476 59.0894C16.3001 59.6287 16.1045 60.1617 15.9362 60.703C15.8809 60.8798 15.799 60.9368 15.6211 60.9223C15.43 60.9064 15.2369 60.9184 15 60.9184ZM19.402 58.1558C18.9562 56.9048 18.5224 55.6861 18.0607 54.3894C17.6256 55.6886 17.2159 56.9099 16.7987 58.1558H19.4014H19.402Z" fill="#838383"/>
<path d="M32.3776 53.0887H33.223V56.2627C33.6498 55.7075 34.1598 55.4698 34.8324 55.4552C36.3884 55.4223 36.8775 56.4604 36.9384 57.5036C37.0026 58.6025 36.9524 59.7078 36.9511 60.81C36.9511 60.8347 36.9403 60.8594 36.9308 60.9012H36.0753V60.6135C36.0753 59.5988 36.0874 58.5835 36.0702 57.5689C36.0613 57.0726 35.9178 56.6258 35.4459 56.3432C34.8444 55.9825 33.7209 56.2208 33.397 56.8299C33.2776 57.0542 33.2376 57.3413 33.2331 57.6012C33.2154 58.6158 33.2204 59.6311 33.23 60.6458C33.2319 60.8594 33.1766 60.9526 32.9499 60.931C32.7682 60.9139 32.5834 60.9278 32.377 60.9278V53.09L32.3776 53.0887Z" fill="#838383"/>
<path d="M60.7599 58.3991H56.6786C56.5319 59.0734 57.1315 59.9727 57.8117 60.1971C58.6786 60.4835 59.2991 60.0177 59.691 59.5132C59.7983 59.3744 59.8727 59.3301 60.027 59.4042C60.222 59.4974 60.422 59.5785 60.631 59.6691C60.2379 60.3961 59.6408 60.801 58.8565 60.9703C58.1705 61.1179 57.5424 60.9703 56.9562 60.6299C56.4379 60.3289 56.128 59.851 55.9362 59.2914C55.5767 58.2419 55.7044 57.2456 56.3465 56.3507C56.7453 55.7949 57.3239 55.4691 58.0314 55.4723C58.4233 55.4742 58.8355 55.4736 59.202 55.5902C60.0588 55.8627 60.4773 56.537 60.6335 57.3863C60.6926 57.7076 60.7155 58.0359 60.7599 58.3991ZM56.7307 57.6607H59.8047C59.7571 56.6923 59.2331 56.1568 58.3414 56.1492C57.4763 56.1416 56.7815 56.788 56.7301 57.6607H56.7307Z" fill="#838383"/>
<path d="M38.1702 58.2875C38.1512 57.3362 38.4637 56.5795 39.1407 56.0123C39.5351 55.6821 40.0076 55.4571 40.5513 55.466C40.8746 55.4711 41.2068 55.4343 41.5192 55.497C42.6485 55.722 43.4316 56.7012 43.5319 57.8768C43.6132 58.8243 43.3744 59.6755 42.6345 60.3295C42.2052 60.7092 41.7098 60.9215 41.1274 60.9918C40.3925 61.0812 39.7345 60.9291 39.1737 60.4721C38.5018 59.9246 38.1372 59.1976 38.169 58.2875H38.1702ZM39.06 58.2051C39.0289 58.9137 39.3471 59.5804 39.6488 59.8447C40.5424 60.6268 41.8838 60.3283 42.3735 59.3909C42.6548 58.8529 42.6898 58.2844 42.5977 57.6893C42.362 56.1676 40.7907 55.8158 39.8717 56.4255C39.2417 56.8438 39.1121 57.5131 39.06 58.2051Z" fill="#838383"/>
<path d="M26.1732 55.5293H27.049V55.7847C27.049 57.3938 27.0433 59.003 27.0548 60.6121C27.0567 60.8758 26.9684 60.9531 26.722 60.9296C26.5505 60.9132 26.3758 60.9265 26.1821 60.9265V60.166C25.9757 60.3516 25.8042 60.5399 25.6003 60.6831C24.8833 61.187 23.6461 61.0932 23.0243 60.4759C22.6947 60.1488 22.5105 59.7185 22.5016 59.2609C22.4787 58.046 22.494 56.8298 22.4952 55.6142C22.4952 55.5901 22.506 55.5661 22.5143 55.5312H23.3653C23.3653 55.6237 23.3653 55.715 23.3653 55.8069C23.3577 56.9141 23.3253 58.0219 23.3526 59.1285C23.3647 59.6158 23.6346 60.0633 24.2374 60.1919C24.7683 60.3054 25.2879 60.2895 25.7077 59.9099C25.9382 59.7014 26.1751 59.4612 26.1738 59.0987C26.1707 57.9186 26.1726 56.7392 26.1726 55.5299L26.1732 55.5293Z" fill="#838383"/>
<path d="M50.6487 60.9073C50.5325 60.617 50.6601 60.4053 50.8278 60.1918C51.4604 59.3843 52.0841 58.57 52.7141 57.76C53.0564 57.3202 53.4051 56.8854 53.7475 56.4462C53.7868 56.3961 53.8065 56.3302 53.8465 56.2485H50.918V55.5304H55.0977C55.1759 55.7725 55.0755 55.9582 54.9409 56.1344C53.985 57.3848 53.0291 58.6352 52.0733 59.8863C52.0206 59.9547 51.971 60.0257 51.8974 60.1265H55.0723V60.9079H50.6481L50.6487 60.9073Z" fill="#838383"/>
<path d="M28.9121 56.2595H28.1411V55.5243H28.9121C28.9121 55.2303 28.8994 54.9603 28.9197 54.6935C28.9267 54.6054 28.9998 54.4888 29.0766 54.4469C29.2881 54.3316 29.5174 54.2492 29.7727 54.1389V55.5091H31.0017V56.2513H29.7975C29.7924 56.3634 29.7848 56.4553 29.7841 56.5479C29.7765 57.5765 29.7714 58.6045 29.7632 59.6331C29.7606 59.9379 30.0179 60.2117 30.35 60.2383C30.472 60.2478 30.5952 60.2427 30.7171 60.2339C30.8251 60.2263 30.9318 60.2035 31.069 60.1825C31.069 60.3872 31.0766 60.5698 31.0639 60.7504C31.0601 60.8024 31.0074 60.8835 30.9623 60.8949C30.4548 61.0286 29.9493 61.0457 29.4761 60.7783C29.0626 60.5444 28.921 60.1451 28.9166 59.7047C28.9038 58.5683 28.9121 57.4313 28.9121 56.2589V56.2595Z" fill="#838383"/>
<path d="M47.4217 55.4762V56.1968C47.0768 56.2906 46.7294 56.3502 46.4106 56.4795C45.9082 56.6835 45.7075 57.1202 45.6999 57.6317C45.6846 58.6368 45.6897 59.6426 45.6999 60.6484C45.7024 60.8683 45.6351 60.9488 45.4154 60.9298C45.2331 60.9139 45.0489 60.9266 44.8444 60.9266V55.5352H45.6846V56.3926C46.1413 55.7925 46.6475 55.3945 47.4211 55.4768L47.4217 55.4762Z" fill="#838383"/>
<path d="M71.2479 53.4881C72.1746 53.4881 73.0777 53.4557 73.9764 53.4995C74.5601 53.528 75.1158 53.72 75.5395 54.1656C75.8557 54.4983 76.012 54.8906 76.0749 55.3526C76.1333 55.7855 76.0971 56.1917 75.9409 56.5834C75.7065 57.1709 75.2194 57.4808 74.6357 57.6513C73.984 57.8421 73.3121 57.8484 72.6401 57.8452C72.4852 57.8452 72.3302 57.8452 72.1454 57.8452V58.5164C72.1454 59.1894 72.1339 59.8625 72.1511 60.5356C72.1574 60.7973 72.0622 60.8765 71.817 60.8563C71.6347 60.8411 71.4505 60.8531 71.2479 60.8531V53.4874V53.4881ZM72.1562 57.1075C72.7297 57.1075 73.2721 57.1291 73.8113 57.1018C74.4343 57.0701 74.959 56.8382 75.1266 56.1727C75.1933 55.9091 75.1673 55.6194 75.1641 55.3418C75.1584 54.9159 74.9628 54.5959 74.5811 54.3975C74.1631 54.1808 73.7097 54.1884 73.2562 54.1934C72.8923 54.1973 72.5283 54.1941 72.1562 54.1941V57.1075Z" fill="#838383"/>
<path d="M101.121 58.311H97.0884C96.9194 59.1925 97.6333 60.0963 98.5288 60.1749C99.2052 60.2344 99.7279 59.9803 100.096 59.4226C100.199 59.2667 100.284 59.2572 100.432 59.3301C100.612 59.4188 100.799 59.4898 101.013 59.5817C100.722 60.1375 100.302 60.531 99.7235 60.7472C97.9858 61.3955 96.2462 60.2433 96.1567 58.394C96.1268 57.7735 96.1643 57.1638 96.492 56.6188C96.9029 55.935 97.4758 55.4907 98.3046 55.3823C98.9124 55.3031 99.479 55.3975 99.9915 55.6884C100.61 56.0395 100.858 56.6644 100.994 57.328C101.058 57.6373 101.077 57.9554 101.121 58.3097V58.311ZM100.2 57.5821C100.167 56.7164 99.6651 56.1447 98.894 56.0763C97.9051 55.9895 97.2599 56.4952 97.0598 57.5821H100.2Z" fill="#838383"/>
<path d="M80.3053 57.6318C80.4075 56.9143 80.1491 56.3389 79.6448 56.1532C78.9074 55.8813 78.2564 56.1576 77.7026 56.9891C77.4752 56.8915 77.2446 56.792 76.9919 56.683C77.2866 55.9935 77.7902 55.5688 78.4977 55.4142C79.2834 55.2425 80.0322 55.316 80.6591 55.8952C81.0592 56.2647 81.1995 56.7451 81.2053 57.2636C81.2173 58.3739 81.204 59.4836 81.2135 60.594C81.2154 60.807 81.143 60.8798 80.9391 60.8545C80.7442 60.8304 80.4914 60.8836 80.3688 60.7797C80.2678 60.6941 80.3205 60.4286 80.3021 60.2118C79.6587 60.845 78.9055 61.044 78.0633 60.8481C77.3278 60.677 76.9372 60.2118 76.8566 59.4697C76.7797 58.7656 77.1602 58.1698 77.8366 57.9715C78.3097 57.8327 78.809 57.7769 79.2993 57.7078C79.6321 57.6609 79.9706 57.6559 80.3053 57.6318ZM80.325 58.2915C79.9033 58.2915 79.5038 58.2459 79.1202 58.3048C78.7588 58.36 78.3898 58.4804 78.0684 58.654C77.7311 58.8366 77.6962 59.2041 77.754 59.5591C77.8029 59.8595 77.982 60.0629 78.2723 60.1624C78.849 60.3614 79.721 60.1206 80.0855 59.6357C80.2011 59.4817 80.2869 59.2821 80.3155 59.0926C80.3542 58.8378 80.325 58.5729 80.325 58.2909V58.2915Z" fill="#838383"/>
<path d="M91.1528 60.8417H90.3309V55.4661H91.1579V56.1753C91.3395 56.0073 91.4646 55.8742 91.6075 55.7633C92.3614 55.1784 93.5936 55.1961 94.2935 55.8514C94.5659 56.1068 94.7939 56.5384 94.8187 56.9048C94.9057 58.1812 94.8949 59.4646 94.9197 60.7448C94.9197 60.7688 94.9032 60.7936 94.8879 60.8354H94.0534V60.5673C94.0534 59.5964 94.0597 58.6254 94.049 57.6551C94.0464 57.427 93.9912 57.1982 93.9505 56.9713C93.8622 56.4833 93.5167 56.2545 93.0747 56.1398C92.4389 55.975 91.6825 56.257 91.3573 56.8129C91.2493 56.9967 91.2062 57.2407 91.2023 57.4587C91.1852 58.5424 91.1909 59.6268 91.1871 60.7112C91.1871 60.7524 91.1661 60.7936 91.1528 60.8417Z" fill="#838383"/>
<path d="M86.8908 56.176H86.1312V55.4471H86.8908C86.8908 55.1835 86.9092 54.9408 86.8857 54.7025C86.8628 54.4775 86.9568 54.3723 87.1543 54.3045C87.3423 54.2404 87.5221 54.153 87.745 54.0598V55.43H89.0114C89.0114 55.6398 89.0292 55.8306 89.0019 56.015C88.9924 56.079 88.8717 56.169 88.798 56.1728C88.4589 56.1899 88.1191 56.1804 87.7495 56.1804V56.6919C87.7495 57.5918 87.7584 58.4924 87.7469 59.3923C87.7374 60.1478 88.222 60.2511 88.7504 60.1377C88.8425 60.118 88.9327 60.0901 89.0413 60.0616V60.7866C88.5288 60.9571 88.0092 60.9749 87.5119 60.7353C87.1004 60.5369 86.9105 60.1624 86.9035 59.72C86.8876 58.6451 86.894 57.5703 86.8908 56.4954C86.8908 56.401 86.8908 56.3059 86.8908 56.1753V56.176Z" fill="#838383"/>
<path d="M102.378 55.4546H103.2V56.2114C103.217 56.2304 103.234 56.2488 103.251 56.2678C103.667 55.6511 104.251 55.3723 104.997 55.3507C104.997 55.5725 104.997 55.7962 104.997 56.02C104.997 56.193 104.869 56.1581 104.759 56.1854C104.439 56.2652 104.099 56.3197 103.81 56.4687C103.351 56.7057 103.224 57.1728 103.215 57.6469C103.198 58.626 103.21 59.6065 103.22 60.5863C103.223 60.7942 103.154 60.8715 102.947 60.8556C102.765 60.8423 102.582 60.8531 102.378 60.8531V55.4546Z" fill="#838383"/>
<path d="M82.8487 60.8535V55.4576H83.6826V56.2156C83.7023 56.2352 83.722 56.2549 83.7417 56.2751C84.1513 55.6407 84.7312 55.3536 85.4654 55.3587C85.4699 55.3955 85.4775 55.4291 85.4775 55.4626C85.4775 55.6636 85.5264 55.8822 85.4635 56.0616C85.3752 56.3144 85.1116 56.1408 84.9313 56.1883C84.0719 56.4127 83.7182 56.7441 83.7004 57.89C83.6864 58.7817 83.6902 59.6734 83.7029 60.5645C83.7061 60.8015 83.6248 60.8763 83.3994 60.8567C83.2266 60.8414 83.0519 60.8535 82.8487 60.8535Z" fill="#838383"/>
<path d="M48.7162 55.5775H49.5508V60.9012H48.7162V55.5775Z" fill="#838383"/>
<path d="M49.2264 54.3474H49.0398C48.8227 54.3474 48.6468 54.523 48.6468 54.7395C48.6468 54.9561 48.8227 55.1316 49.0398 55.1316H49.2264C49.4434 55.1316 49.6193 54.9561 49.6193 54.7395C49.6193 54.523 49.4434 54.3474 49.2264 54.3474Z" fill="#838383"/>
<path d="M65.9513 56.2542C65.9582 56.2808 65.9652 56.3067 65.9722 56.3333C65.9468 56.3093 65.9214 56.2852 65.896 56.2611C65.9144 56.2586 65.9328 56.2567 65.9513 56.2542Z" fill="#838383"/>
<path d="M65.9669 60.0147L65.9488 60.0215C65.9469 60.0122 65.945 60.0035 65.9432 59.9941C65.95 59.9954 65.9575 59.9948 65.9625 59.9985C65.9656 60.001 65.9656 60.0091 65.9662 60.0147H65.9669Z" fill="#838383"/>
</svg>
