<svg width="120" height="70" viewBox="0 0 120 70" fill="none" xmlns="http://www.w3.org/2000/svg">
<path d="M85.4296 30.989C87.0429 30.895 88.5183 31.4453 89.8557 32.3812C90.7092 32.9785 91.3288 33.7993 91.8642 34.7023C92.2313 35.3231 92.3973 36.0028 92.5867 36.673C92.8463 37.5854 92.8089 38.5331 92.6428 39.462C92.3646 41.0047 91.6865 42.3499 90.5736 43.4481C89.5494 44.4593 88.3125 45.0754 86.8979 45.3411C85.6306 45.5763 84.368 45.5152 83.1428 45.1836C81.45 44.725 80.1172 43.7091 79.1516 42.2299C78.3379 40.9835 77.9638 39.6078 78.0059 38.1192C78.0479 36.5389 78.4524 35.0997 79.4321 33.8134C80.3534 32.6046 81.5014 31.8098 82.9254 31.3253C83.7391 31.0478 84.5504 30.982 85.4366 30.9867L85.4296 30.989ZM85.3594 34.6341C83.241 34.4577 81.7236 36.4378 81.7656 38.2462C81.8147 40.3063 83.2106 41.7949 85.301 41.816C87.4334 41.8372 88.8503 40.3557 88.8947 38.2133C88.9345 36.2003 87.2767 34.4648 85.3594 34.6341Z" fill="#5F5F5F"/>
<path d="M50.7755 41.9031C51.2875 41.976 51.6873 42.0254 52.0825 42.0936C52.5805 42.1782 53.0715 42.2982 53.5719 42.3687C54.402 42.4863 55.2063 42.3405 55.9662 42.0018C56.3123 41.8466 56.5531 41.5621 56.6069 41.1553C56.6677 40.6943 56.4128 40.3769 56.0574 40.2052C55.3957 39.883 54.7153 39.5891 54.0162 39.3609C52.971 39.0176 52.0568 38.472 51.4021 37.5972C51.035 37.1104 50.7474 36.5272 50.7614 35.8664C50.7684 35.5724 50.7567 35.2785 50.7614 34.9845C50.7801 33.717 51.3577 32.7269 52.3397 31.9909C53.1978 31.3489 54.1845 30.982 55.2694 31.0032C56.2795 31.022 57.2896 31.069 58.2974 31.1396C58.599 31.1607 58.9006 31.2854 59.1906 31.3936C59.2794 31.4265 59.387 31.5605 59.387 31.6499C59.401 32.5435 59.3963 33.4395 59.3963 34.3778C58.751 34.2884 58.1758 34.2273 57.6076 34.1285C56.8664 33.9968 56.1346 34.0227 55.4074 34.1944C55.2414 34.2344 55.0683 34.3073 54.9351 34.4107C54.25 34.9351 54.3809 35.5983 55.1385 36.0357C55.5687 36.285 56.0691 36.4237 56.5531 36.5648C57.5351 36.8517 58.4704 37.2445 59.2022 37.9711C59.878 38.6437 60.355 39.4433 60.355 40.4521C60.355 41.214 60.3503 41.9595 60.0206 42.6885C59.6044 43.6104 58.924 44.2453 58.0799 44.7203C57.1259 45.2589 56.0644 45.4047 54.9912 45.4729C53.7426 45.5528 52.5104 45.3271 51.2711 45.2236C51.0303 45.2024 50.7801 45.1483 50.7755 44.8379C50.7661 43.902 50.7708 42.966 50.7708 41.9078L50.7755 41.9031Z" fill="#5F5F5F"/>
<path d="M74.2648 35.1797C74.1315 35.1444 73.9702 35.1327 73.8392 35.0621C73.3131 34.7823 72.7379 34.7117 72.1651 34.5989C71.4496 34.4578 70.7528 34.5424 70.0888 34.7235C69.2237 34.961 68.5433 35.5066 68.078 36.3109C67.5121 37.2891 67.4396 38.3403 67.7506 39.3727C68.0733 40.4404 68.7934 41.2117 69.8737 41.6326C70.9492 42.0536 72.0014 41.9713 73.0676 41.6515C73.4558 41.5339 73.8392 41.4045 74.2882 41.2587C74.3186 41.3928 74.3723 41.5339 74.3747 41.6726C74.3817 42.6321 74.384 43.5916 74.3747 44.551C74.37 45.0025 74.3396 45.0237 73.893 45.1248C72.9227 45.3435 71.9476 45.4846 70.9492 45.4776C69.0179 45.4635 67.3181 44.8285 65.8941 43.5375C64.9121 42.6462 64.2433 41.5245 63.9534 40.2005C63.8459 39.7043 63.6658 39.2081 63.6541 38.7095C63.6027 36.3015 64.3509 34.1897 66.2331 32.6305C67.5028 31.5793 68.9875 30.9468 70.6804 30.9938C71.4566 31.0149 72.2329 31.0455 73.0045 31.1184C73.3646 31.1513 73.727 31.2689 74.0684 31.4006C74.197 31.45 74.3583 31.6405 74.3583 31.7698C74.3747 32.8657 74.3583 33.9616 74.3466 35.0574C74.3466 35.088 74.3045 35.1186 74.2601 35.1774L74.2648 35.1797Z" fill="#5F5F5F"/>
<path d="M37.7729 35.2008C37.1906 35.008 36.7441 34.8152 36.2741 34.7164C35.437 34.54 34.5929 34.4765 33.7325 34.6552C32.5564 34.8998 31.3499 36.0992 31.1161 37.2961C30.9126 38.3309 30.9781 39.3256 31.5697 40.2263C32.0069 40.8942 32.6102 41.3598 33.3654 41.6537C34.7636 42.1993 36.073 41.8184 37.3847 41.3433C37.4712 41.3128 37.5577 41.2798 37.7144 41.2234C37.7425 41.435 37.7822 41.5997 37.7822 41.7619C37.7892 42.6626 37.7892 43.5633 37.7822 44.464C37.7775 45.0166 37.7658 45.0378 37.2093 45.1601C35.575 45.5175 33.9265 45.6492 32.3015 45.1883C30.6437 44.7179 29.2899 43.7796 28.3126 42.3169C27.3212 40.8354 26.9939 39.1798 27.1669 37.4514C27.41 34.9845 28.5791 33.0608 30.7957 31.8638C31.8362 31.3018 32.9375 30.9514 34.1346 30.9914C34.9109 31.0172 35.6872 31.0455 36.4588 31.1207C36.8165 31.156 37.1696 31.2877 37.5157 31.41C37.6209 31.4476 37.7588 31.5958 37.7612 31.6945C37.7775 32.8421 37.7729 33.9921 37.7729 35.1985V35.2008Z" fill="#5F5F5F"/>
<path d="M77.2974 14.0713C77.2974 10.9742 77.2927 7.87941 77.2997 4.78229C77.3021 3.76168 78.0246 3.03031 79.0113 3.0068C79.9442 2.98563 80.7415 3.71464 80.8093 4.6553C80.821 4.81051 80.8163 4.96807 80.8163 5.12563C80.8163 11.1035 80.8163 17.0791 80.8163 23.0569C80.8163 23.4473 80.8 23.8118 80.5989 24.1881C80.2295 24.8818 79.6917 25.1523 78.9341 25.1311C78.1695 25.1099 77.7089 24.6702 77.4003 24.047C77.288 23.8189 77.2997 23.5132 77.2997 23.2451C77.2927 20.1879 77.2951 17.1308 77.2951 14.0737L77.2974 14.0713Z" fill="#999999"/>
<path d="M42.5872 14.0619C42.5872 17.0979 42.5872 20.1339 42.5872 23.1698C42.5872 23.6731 42.51 24.1458 42.1639 24.5361C41.6191 25.1499 40.9317 25.2651 40.1929 25.03C39.4844 24.8042 39.1734 24.2281 39.0775 23.5202C39.0565 23.365 39.0682 23.2075 39.0682 23.0499C39.0682 17.0955 39.0682 11.1411 39.0705 5.18443C39.0705 4.91399 39.1266 4.64119 39.1407 4.37076C39.1828 3.60177 40.1975 2.92449 40.9177 3.0068C41.8951 3.11968 42.5123 3.70524 42.5778 4.65766C42.5918 4.87166 42.5848 5.08801 42.5848 5.30436C42.5848 8.22275 42.5848 11.1411 42.5848 14.0595L42.5872 14.0619Z" fill="#999999"/>
<path d="M46.057 45.1907H42.6106C42.5965 44.9414 42.5731 44.7321 42.5731 44.5228C42.5731 40.3322 42.5731 36.1415 42.5731 31.9509C42.5731 31.8333 42.5778 31.7157 42.5755 31.5981C42.5755 31.3583 42.6877 31.2336 42.9285 31.2336C43.8638 31.2336 44.7967 31.2336 45.732 31.2336C45.9705 31.2336 46.0898 31.3536 46.0898 31.5934C46.0898 31.751 46.0921 31.9062 46.0921 32.0638C46.0921 36.1768 46.0921 40.2875 46.0921 44.4005C46.0921 44.6498 46.0711 44.8967 46.057 45.1883V45.1907Z" fill="#5F5F5F"/>
<path d="M29.1427 61.3348V66.9834C28.7077 67.181 28.3336 67.1175 27.8964 67.0493C27.88 66.8541 27.8496 66.666 27.8496 66.4802C27.8473 61.8192 27.8473 57.1582 27.8496 52.4973C27.8496 51.867 27.8894 51.8271 28.5113 51.8271C29.9914 51.8224 31.4715 51.7847 32.9492 51.8412C33.7582 51.8717 34.5976 51.9564 35.3599 52.208C36.6412 52.6337 37.5881 53.485 38.0488 54.8325C38.3668 55.7661 38.4533 56.6926 38.2592 57.6568C37.9669 59.1078 37.1228 60.1072 35.8111 60.7328C34.8221 61.2031 33.7629 61.3066 32.692 61.3301C31.7567 61.3512 30.8238 61.3348 29.8885 61.3348H29.145H29.1427ZM29.1754 60.2695H29.8371C30.7326 60.2695 31.6281 60.2648 32.5237 60.2695C33.3303 60.2765 34.116 60.1284 34.8665 59.8579C35.2593 59.7168 35.6475 59.4911 35.9631 59.2159C36.6014 58.6586 37.0059 57.9531 36.9755 57.0665C36.9568 56.5233 37.034 55.9401 36.8703 55.4415C36.3606 53.8965 35.0933 53.0076 33.48 52.9888C32.2337 52.9747 30.9898 52.9841 29.7436 52.9888C29.5588 52.9888 29.3718 53.0217 29.1777 53.0382V60.2695H29.1754Z" fill="#999999"/>
<path d="M52.169 15.6211C52.169 16.9733 52.1737 18.3255 52.169 19.6776C52.1643 20.7735 51.6032 21.4625 50.5627 21.6695C50.0834 21.7636 49.1364 21.352 48.9096 20.8699C48.7319 20.4913 48.5706 20.0586 48.5659 19.6494C48.5355 16.945 48.5635 14.2406 48.5448 11.5362C48.5378 10.4545 49.4216 9.61495 50.3335 9.59849C51.3623 9.57967 52.1526 10.3416 52.1667 11.3881C52.183 12.6815 52.1713 13.9749 52.1713 15.2683C52.1713 15.3859 52.1713 15.5035 52.1713 15.6211H52.169Z" fill="#999999"/>
<path d="M90.3982 15.654C90.3982 17.0227 90.4052 18.3937 90.3982 19.7624C90.3912 21.1052 89.5167 21.5332 88.5955 21.6719C87.9782 21.7636 87.0476 21.0652 86.9096 20.4561C86.8372 20.1339 86.7881 19.8 86.7881 19.4708C86.7787 16.9286 86.7787 14.3842 86.7881 11.842C86.7881 11.494 86.8372 11.1389 86.919 10.8002C87.1341 9.89016 88.3921 9.33987 89.2104 9.71849C90.0405 10.1042 90.4029 10.7179 90.4005 11.6069C90.3959 12.9567 90.4005 14.3066 90.4005 15.6564L90.3982 15.654Z" fill="#999999"/>
<path d="M82.8833 64.079H84.0734C84.043 64.286 84.05 64.4577 83.9916 64.6058C83.3883 66.1273 82.2613 67.0162 80.6784 67.3337C79.8063 67.5101 78.9435 67.4372 78.0783 67.2491C76.9981 67.0163 76.1657 66.4189 75.5274 65.5371C74.4705 64.0814 74.2648 62.4329 74.4472 60.688C74.5173 60.0013 74.6599 59.3546 74.9101 58.7079C75.5601 57.0453 77.2296 55.7848 78.9879 55.8083C79.2404 55.8106 79.4953 55.8059 79.7478 55.8083C81.5131 55.8342 82.764 56.7066 83.5894 58.2305C84.0921 59.1594 84.2371 60.1918 84.3213 61.2288C84.3657 61.7674 84.2932 61.8262 83.7344 61.8262C81.3191 61.8285 78.9061 61.8262 76.4907 61.8262C76.3551 61.8262 76.2172 61.8215 76.0815 61.8262C75.5999 61.8473 75.5321 61.9226 75.6466 62.3953C75.8033 63.0373 75.8921 63.7169 76.1727 64.3025C77.0753 66.1932 79.023 66.7505 80.8023 66.2237C81.8031 65.9274 82.5326 65.1937 82.8856 64.0767L82.8833 64.079ZM83.0633 60.7773C83.068 60.7585 83.0797 60.7397 83.0797 60.7209C83.0633 60.5469 83.054 60.3705 83.0236 60.1988C82.729 58.5362 81.9317 57.2828 80.2061 56.8548C79.1071 56.582 78.0971 56.8077 77.1922 57.5156C76.6193 57.9648 76.2569 58.5644 75.9904 59.2135C75.7893 59.705 75.6653 60.2388 75.6981 60.7773C76.299 60.9137 82.6144 60.902 83.0633 60.7773Z" fill="#999999"/>
<path d="M33.0006 15.6586C33.0006 17.0696 33.003 18.4806 33.0006 19.8916C32.9983 20.7664 32.7037 21.2179 31.9789 21.486C31.1652 21.787 30.4333 21.6294 29.9213 21.0204C29.6196 20.6629 29.5004 20.2208 29.5004 19.7669C29.491 17.0226 29.4817 14.2805 29.5051 11.5362C29.5121 10.8142 29.7482 10.2075 30.459 9.78184C31.4317 9.20099 33.0755 10.0617 33.0123 11.2516C32.9585 12.2675 33.0006 13.2881 33.003 14.3088C33.003 14.7603 33.003 15.2094 33.003 15.661L33.0006 15.6586Z" fill="#999999"/>
<path d="M71.2298 15.6517C71.2298 17.0627 71.1994 18.4737 71.2392 19.8823C71.2649 20.8183 70.4535 21.6343 69.5089 21.6649C68.5269 21.6978 67.7202 20.8724 67.7179 19.88C67.7109 17.058 67.7413 14.2384 67.7015 11.4164C67.6875 10.4804 68.6461 9.54919 69.5089 9.5727C70.2735 9.59152 71.2719 10.4546 71.2438 11.3012C71.1947 12.7498 71.2298 14.2007 71.2298 15.6494V15.6517Z" fill="#999999"/>
<path d="M39.793 58.929C39.9731 57.7203 40.567 56.8572 41.5934 56.321C42.2528 55.9753 42.9589 55.7731 43.7235 55.8013C44.5372 55.8319 45.3392 55.7919 46.1248 56.1447C47.2284 56.6385 48.1099 57.8284 48.0959 59.0113C48.0655 61.5182 48.0889 64.025 48.0865 66.5319C48.0865 66.6871 48.0655 66.84 48.0491 67.061C47.7732 67.0775 47.516 67.0916 47.2191 67.1104C47.1396 66.6048 47.0694 66.1509 46.9853 65.61C46.6603 65.9181 46.389 66.1838 46.1108 66.4402C45.6735 66.8447 45.1732 67.1245 44.5863 67.2562C43.7235 67.449 42.8631 67.5078 41.9886 67.322C40.5202 67.0093 39.4797 65.8993 39.475 64.359C39.4727 63.2819 39.8679 62.2966 40.8873 61.6922C41.7548 61.1772 42.6924 60.9091 43.6767 60.7609C44.6564 60.6128 45.6291 60.4364 46.6088 60.2859C46.873 60.2459 46.9712 60.0954 47.0016 59.8579C47.1443 58.7832 46.5457 57.4686 45.4608 57.0453C44.3314 56.6032 43.2863 56.6926 42.2575 57.1935C41.7735 57.4287 41.3783 57.852 41.2076 58.3999C41.0182 59.0113 41.086 59.0066 40.2887 58.9996C40.1414 58.9996 39.9918 58.9619 39.7954 58.9361L39.793 58.929ZM46.9806 61.2736C46.7444 61.2736 46.555 61.2477 46.3727 61.2783C45.7601 61.3794 45.1521 61.5111 44.5395 61.6099C43.7726 61.7322 43.0033 61.8474 42.2855 62.1696C41.729 62.4189 41.2263 62.7081 40.927 63.2937C40.4524 64.2249 40.8125 65.5066 41.7477 65.9698C42.1078 66.1486 42.5053 66.2944 42.9005 66.3532C44.4834 66.5907 45.8606 65.8734 46.5925 64.5753C47.1723 63.5476 47.0157 62.4236 46.9806 61.2736Z" fill="#999999"/>
<path d="M72.5018 67.0799H71.2836C71.2649 66.8306 71.2322 66.6048 71.2322 66.3791C71.2275 64.0674 71.2158 61.7581 71.2368 59.4464C71.2462 58.5763 70.9212 57.8426 70.2782 57.3464C69.6773 56.8831 68.9057 56.6456 68.1271 56.7891C66.82 57.0313 65.8193 57.7321 65.3727 59.0396C65.2184 59.4911 65.1646 59.9967 65.1599 60.4788C65.1365 62.4166 65.1506 64.3567 65.1506 66.2944C65.1506 66.4308 65.1459 66.5696 65.1506 66.706C65.1576 66.9693 65.0453 67.1128 64.7718 67.1081C64.5426 67.1034 64.3112 67.1081 64.1054 67.1081C63.9487 66.6425 63.902 57.0971 64.0376 56.2247C64.1685 56.2035 64.3135 56.1612 64.4608 56.1588C64.8489 56.1565 64.9331 56.2176 64.9939 56.6197C65.043 56.9419 65.0453 57.2711 65.0781 57.7086C65.3306 57.4264 65.5106 57.2147 65.7024 57.0125C66.4483 56.2294 67.3508 55.8061 68.4404 55.8037C69.1418 55.8037 69.8316 55.7826 70.491 56.1282C71.3818 56.5939 72.0225 57.2453 72.2843 58.24C72.4433 58.8491 72.5205 59.4605 72.5158 60.0955C72.4971 62.172 72.5088 64.2461 72.5088 66.3226V67.0799H72.5018Z" fill="#999999"/>
<path d="M96.3629 18.0032C96.3629 17.3965 96.3535 16.7898 96.3629 16.1854C96.391 14.8097 97.8079 14.0783 98.8975 14.5839C99.6176 14.9202 99.9146 15.5693 99.9567 16.2842C100.022 17.4341 100.003 18.5911 99.966 19.7434C99.9286 20.8299 99.3815 21.4272 98.3293 21.6506C97.6816 21.7894 96.751 21.2485 96.5102 20.5618C96.4143 20.2914 96.3746 19.9927 96.3629 19.7035C96.3395 19.1367 96.3559 18.57 96.3559 18.0032C96.3559 18.0032 96.3582 18.0032 96.3606 18.0032H96.3629Z" fill="#999999"/>
<path d="M58.1314 18.0785C58.1314 17.453 58.1197 16.8275 58.1337 16.2019C58.1524 15.2801 58.8445 14.5346 59.7517 14.4288C60.6192 14.3277 61.503 14.8991 61.6363 15.8092C61.8514 17.279 61.8491 18.7699 61.634 20.2397C61.5194 21.0322 60.8062 21.6013 60.0674 21.6789C59.1812 21.7706 58.1735 20.9146 58.1384 20.0116C58.1127 19.3672 58.1337 18.7205 58.1337 18.0762C58.1337 18.0762 58.1314 18.0762 58.129 18.0762L58.1314 18.0785Z" fill="#999999"/>
<path d="M23.4188 18.0503C23.4188 18.6946 23.3954 19.3413 23.4235 19.9857C23.4702 21.0063 22.57 21.6765 21.6979 21.6554C20.8585 21.6342 19.9793 21.1333 20.0004 19.9622C20.0214 18.6923 20.0191 17.42 20.0004 16.1502C19.9863 15.2377 20.5171 14.6663 21.3261 14.4734C22.0322 14.3041 22.8179 14.5463 23.2551 15.3271C23.372 15.534 23.3673 15.8115 23.4164 16.0584C23.4235 16.0961 23.4164 16.136 23.4164 16.176C23.4164 16.8016 23.4164 17.4271 23.4164 18.0526L23.4188 18.0503Z" fill="#999999"/>
<path d="M57.1096 57.0265C57.0932 56.8665 57.0698 56.7325 57.0722 56.5985C57.0722 56.4856 57.1026 56.3703 57.1283 56.1846C57.458 56.1728 57.7806 56.1681 58.1033 56.1516C58.5125 56.1305 58.5733 56.0764 58.585 55.6625C58.6013 55.1545 58.592 54.6442 58.599 54.1363C58.6013 53.9434 58.6177 53.753 58.6294 53.5107H59.7307C59.747 53.7788 59.7681 54.0258 59.7728 54.2727C59.7798 54.6842 59.7728 55.0958 59.7751 55.5049C59.7821 56.1046 59.8195 56.1446 60.3994 56.154C60.7875 56.1587 61.178 56.154 61.5661 56.1563C61.7555 56.1587 61.9449 56.1775 62.1834 56.1893V57.0288C61.7368 57.1934 61.2856 57.1064 60.8483 57.1111C59.6933 57.1252 59.7751 57.0265 59.7751 58.1929C59.7751 60.347 59.7961 62.4987 59.7681 64.6529C59.747 66.2872 60.6192 66.5154 61.8046 66.3578C62.0268 66.3272 62.2489 66.3155 62.5271 66.2896C62.5412 66.5506 62.5786 66.7435 62.5482 66.9269C62.5295 67.0398 62.4313 67.1973 62.3331 67.2279C61.3323 67.5383 60.3363 67.5877 59.4384 66.941C58.8679 66.5318 58.592 65.9416 58.592 65.2267C58.592 63.4653 58.592 61.7039 58.592 59.9425C58.592 59.2582 58.592 58.5715 58.592 57.8872C58.592 57.3776 58.327 57.1205 57.797 57.1158C57.6403 57.1158 57.486 57.1111 57.3317 57.1017C57.2756 57.097 57.2241 57.0664 57.1119 57.0265H57.1096Z" fill="#999999"/>
<path d="M86.4701 67.0586V56.2152C86.6548 56.1964 86.8395 56.1682 87.0242 56.1587C87.3071 56.1446 87.4521 56.2834 87.4755 56.5726C87.5105 56.9795 87.5643 57.384 87.6158 57.8566C87.8402 57.5086 88.0062 57.2052 88.2143 56.9324C88.7638 56.2128 89.4723 55.7801 90.4076 55.8036C90.6998 55.8107 90.9921 55.7966 91.2844 55.8201C91.6982 55.8554 91.7894 55.9565 91.8011 56.3704C91.8058 56.5962 91.7777 56.8243 91.7637 57.0782C91.3732 57.0406 91.0482 57.0053 90.7232 56.9795C89.5354 56.8854 88.7919 57.5298 88.2447 58.4986C87.88 59.143 87.707 59.832 87.7093 60.5751C87.7163 62.4753 87.7093 64.3754 87.7046 66.2779C87.7046 67.0986 87.6602 67.1386 86.8442 67.1057C86.7483 67.101 86.6524 67.0822 86.4747 67.0563L86.4701 67.0586Z" fill="#999999"/>
<path d="M50.2751 56.194C50.4364 56.1799 50.5697 56.1564 50.703 56.1587C50.8362 56.1587 50.9695 56.1822 51.1542 56.2011C51.2992 56.7161 51.1846 57.2522 51.2688 57.859C51.4068 57.6755 51.5166 57.5556 51.5938 57.4169C51.9819 56.7278 52.5244 56.154 53.2656 55.9471C53.8618 55.7778 54.5306 55.8554 55.1665 55.853C55.2531 55.853 55.405 56.02 55.4167 56.1211C55.4495 56.4221 55.4284 56.7302 55.4284 57.05C54.9491 57.0241 54.5446 56.9983 54.1424 56.9842C53.4971 56.9606 52.957 57.2193 52.5384 57.692C51.7902 58.5409 51.3764 59.5498 51.3577 60.681C51.3273 62.5599 51.3483 64.4412 51.3483 66.3226C51.3483 66.5507 51.3483 66.7811 51.3483 67.0586H50.2751C50.1395 66.5366 50.1348 56.7702 50.2727 56.1917L50.2751 56.194Z" fill="#999999"/>
</svg>
