<svg width="120" height="70" viewBox="0 0 120 70" fill="none" xmlns="http://www.w3.org/2000/svg">
<path fill-rule="evenodd" clip-rule="evenodd" d="M48.9656 34.321C49.61 34.0756 50.1629 33.6422 50.5503 33.079C50.9377 32.5158 51.141 31.8496 51.1331 31.1695C51.1331 28.3332 49.0887 26.9271 46.2809 26.9271H38.9163V42.35H46.9212C49.3843 42.35 51.7981 40.653 51.7981 38.0591C51.7981 34.9755 48.9656 34.3501 48.9656 34.321ZM42.7587 30.1271H45.6158C45.7988 30.1159 45.9822 30.1404 46.1555 30.1991C46.3288 30.2577 46.4887 30.3495 46.626 30.4691C46.7633 30.5886 46.8752 30.7337 46.9555 30.8959C47.0357 31.0581 47.0827 31.2343 47.0937 31.4144C47.0937 31.4693 47.0937 31.5251 47.0937 31.5816C47.0859 31.9608 46.9262 32.3216 46.6494 32.5854C46.3726 32.8492 46.0011 32.9946 45.6158 32.9901H42.7341L42.7587 30.1271ZM45.6405 39.1209H42.7833V36.0907H45.5666C46.9705 36.0907 47.6355 36.6967 47.6355 37.5937C47.6355 38.7137 46.7981 39.1209 45.6405 39.1209Z" fill="#838383"/>
<path fill-rule="evenodd" clip-rule="evenodd" d="M60.2711 26.5393C55.7391 26.5393 53.079 30.1029 53.079 34.612C53.079 39.121 55.7391 42.6846 60.2711 42.6846C64.8031 42.6846 67.4632 39.1452 67.4632 34.612C67.4632 30.0787 64.8278 26.5393 60.2711 26.5393ZM60.2711 38.9998C58.0544 38.9998 56.946 37.0362 56.946 34.612C56.946 32.1877 58.0544 30.2484 60.2711 30.2484C62.4879 30.2484 63.6209 32.212 63.6209 34.612C63.6209 37.0604 62.4879 38.9998 60.2711 38.9998Z" fill="#838383"/>
<path fill-rule="evenodd" clip-rule="evenodd" d="M75.813 32.9877L75.2711 32.8665C73.941 32.5998 72.8819 32.2604 72.8819 31.315C72.8819 30.2968 73.8918 29.8847 74.7785 29.8847C75.3834 29.8935 75.98 30.0251 76.531 30.2712C77.0819 30.5173 77.5754 30.8727 77.9804 31.315L80.4189 28.9392C79.3105 27.7029 77.5125 26.515 74.7046 26.515C71.4041 26.515 68.8918 28.3332 68.8918 31.3635C68.8918 34.1271 70.9115 35.4846 73.3745 35.9937L73.9164 36.1149C75.9607 36.527 76.7243 36.8422 76.7243 37.8119C76.7243 38.7331 75.8868 39.3391 74.6061 39.3391C73.079 39.3391 71.6997 38.6846 70.6405 37.3513L68.1529 39.7755C69.5322 41.3997 71.2809 42.6603 74.6553 42.6603C77.5864 42.6603 80.7144 41.0118 80.7144 37.6422C80.7637 34.1271 78.0543 33.4483 75.813 32.9877Z" fill="#838383"/>
<path fill-rule="evenodd" clip-rule="evenodd" d="M89.4829 38.9998C87.7588 38.9998 85.9607 37.5938 85.9607 34.515C85.9607 31.7757 87.6356 30.2484 89.3844 30.2484C90.7637 30.2484 91.5765 30.8787 92.2169 31.9696L95.3696 29.909C93.7933 27.5575 91.9213 26.5636 89.3351 26.5636C84.6061 26.5636 82.0445 30.1757 82.0445 34.5393C82.0445 39.121 84.877 42.7089 89.2859 42.7089C92.3893 42.7089 93.8672 41.6422 95.4681 39.3635L92.2908 37.2592C91.6504 38.2726 90.9608 38.9998 89.4829 38.9998Z" fill="#838383"/>
<path fill-rule="evenodd" clip-rule="evenodd" d="M105.887 26.9271V32.5998H101.133V26.9271H97.0197V42.3452H101.133V36.2604H105.887V42.3452H110V26.9271H105.887Z" fill="#838383"/>
<path d="M21.8719 23C19.5239 23 17.2286 23.6853 15.2762 24.9692C13.3239 26.2532 11.8023 28.0781 10.9037 30.2132C10.0051 32.3483 9.77004 34.6977 10.2281 36.9643C10.6862 39.2309 11.8169 41.3129 13.4772 42.9471C15.1375 44.5812 17.2529 45.6941 19.5558 46.1449C21.8588 46.5958 24.2458 46.3644 26.4151 45.48C28.5844 44.5956 30.4386 43.098 31.7431 41.1764C33.0476 39.2549 33.7438 36.9958 33.7438 34.6847C33.7438 31.5857 32.4931 28.6137 30.2666 26.4224C28.0402 24.2311 25.0206 23 21.8719 23ZM21.8719 45.2786C19.7431 45.2786 17.6621 44.6572 15.892 43.4932C14.122 42.3291 12.7424 40.6746 11.9277 38.7388C11.113 36.803 10.8999 34.673 11.3152 32.618C11.7305 30.563 12.7556 28.6753 14.2609 27.1938C15.7663 25.7122 17.6841 24.7032 19.7721 24.2945C21.86 23.8857 24.0242 24.0955 25.991 24.8973C27.9577 25.6991 29.6388 27.057 30.8215 28.7991C32.0042 30.5413 32.6355 32.5895 32.6355 34.6847C32.6348 37.4942 31.5006 40.1884 29.4822 42.175C27.4638 44.1616 24.7264 45.2779 21.8719 45.2786Z" fill="#5F5F5F"/>
<path d="M26.7733 27.3878H25.9605V31.3878H17.8078V27.3878H16.9704C15.7438 28.1842 14.7372 29.2678 14.0407 30.5413C13.3442 31.8148 12.9796 33.2384 12.9796 34.6847C12.9796 36.131 13.3442 37.5547 14.0407 38.8282C14.7372 40.1017 15.7438 41.1852 16.9704 41.9816H17.8078V37.9865H25.9605V41.9865H26.7733C28.0004 41.1904 29.0076 40.107 29.7045 38.8335C30.4014 37.5599 30.7662 36.1361 30.7662 34.6896C30.7662 33.2431 30.4014 31.8192 29.7045 30.5456C29.0076 29.2721 28.0004 28.1887 26.7733 27.3927V27.3878ZM16.6748 40.4107C15.9109 39.7427 15.2882 38.9331 14.8423 38.0282C14.3963 37.1233 14.1358 36.1408 14.0756 35.1368C14.0155 34.1328 14.1569 33.1269 14.4917 32.1767C14.8265 31.2265 15.3482 30.3505 16.027 29.5987C16.2305 29.375 16.4468 29.163 16.6748 28.9636V40.4107ZM25.9605 36.8714H17.8078V32.4787H25.9605V36.8714ZM27.0689 40.3865V37.9623V31.3878V28.9636C27.8309 29.637 28.4506 30.4517 28.8927 31.3609C29.3347 32.2702 29.5903 33.2563 29.645 34.2629C29.6996 35.2694 29.5523 36.2767 29.2113 37.2272C28.8703 38.1776 28.3423 39.0527 27.6576 39.8022C27.4713 40.0049 27.2749 40.1983 27.0689 40.3816V40.3865Z" fill="#5F5F5F"/>
</svg>
