<svg width="120" height="70" viewBox="0 0 120 70" fill="none" xmlns="http://www.w3.org/2000/svg">
<path d="M29.2968 46.45C27.4324 46.45 25.568 46.45 23.7037 46.45C23.6267 46.45 23.5481 46.4552 23.4736 46.4413C23.3407 46.4172 23.2205 46.2642 23.2513 46.1117C23.2857 45.9381 23.2529 45.7753 23.2436 45.6074C23.2328 45.4031 23.2421 45.1977 23.2421 44.9928C23.2421 42.3028 23.2421 39.6128 23.2421 36.9228C23.2421 36.6867 23.241 36.4499 23.2431 36.2138C23.2431 36.1629 23.2529 36.1121 23.2636 36.0623C23.3258 35.7681 23.3566 35.7409 23.6539 35.7409C27.417 35.7404 31.1796 35.7404 34.9427 35.7409C35.2534 35.7409 35.3016 35.7881 35.3016 36.0962C35.3021 39.4182 35.3016 42.7398 35.3016 46.0619C35.3016 46.1214 35.3027 46.1825 35.2903 46.24C35.259 46.3858 35.1933 46.4392 35.0439 46.449C34.9925 46.4526 34.9412 46.45 34.8898 46.45C33.0255 46.45 31.1611 46.45 29.2968 46.45Z" fill="#999999"/>
<path d="M16.03 34.7171C14.2001 34.7171 12.3701 34.7171 10.5397 34.7171C10.4539 34.7171 10.3682 34.7212 10.2834 34.7135C10.1202 34.6986 10.0206 34.598 10.0036 34.4352C9.99745 34.3762 10.001 34.3156 10.001 34.256C10.001 31.011 10.001 27.7665 10.001 24.5214C10.001 24.4788 10 24.4362 10.0016 24.3936C10.0123 24.145 10.0991 24.0567 10.3456 24.0557C10.876 24.0536 11.4059 24.0547 11.9363 24.0547C15.0232 24.0547 18.1106 24.0536 21.1975 24.0578C21.4172 24.0578 21.6334 24.0013 21.8573 24.0495C21.9887 24.0778 22.0627 24.125 22.0688 24.2554C22.0806 24.5009 22.0929 24.7468 22.0945 24.9922C22.0955 25.1191 22.0642 25.2459 22.0642 25.3727C22.0621 28.3359 22.0627 31.299 22.0621 34.2617C22.0621 34.7038 22.0467 34.7156 21.5964 34.7156C19.7408 34.7145 17.8852 34.7156 16.0295 34.7156V34.7171H16.03Z" fill="#999999"/>
<path d="M29.3029 24.0557C31.1585 24.0557 33.0147 24.0557 34.8703 24.0557C34.9473 24.0557 35.0244 24.0516 35.1014 24.0577C35.257 24.0696 35.2893 24.1045 35.3016 24.2626C35.3052 24.3134 35.3027 24.3648 35.3027 24.4161C35.3027 27.7038 35.3027 30.9915 35.3027 34.2791C35.3027 34.695 35.2816 34.7161 34.8703 34.7161C31.1503 34.7161 27.4298 34.7161 23.7098 34.7161C23.2451 34.7161 23.2421 34.7125 23.2421 34.2401C23.241 30.9781 23.2405 27.7161 23.2395 24.4536C23.2395 24.4023 23.2369 24.3509 23.241 24.3001C23.2554 24.1363 23.3186 24.0711 23.4788 24.0572C23.5465 24.0511 23.6154 24.0552 23.6842 24.0552C25.5572 24.0552 27.4298 24.0552 29.3029 24.0552V24.0557Z" fill="#999999"/>
<path d="M16.0865 35.741C17.9509 35.741 19.8153 35.741 21.6791 35.741C21.9341 35.741 22.0616 35.8688 22.0616 36.1245C22.0616 39.4122 22.0616 42.6993 22.0616 45.987C22.0616 46.0039 22.0616 46.0214 22.0616 46.0383C22.0591 46.3608 21.9143 46.4763 21.5918 46.425C21.4747 46.406 21.3541 46.4014 21.2355 46.4014C17.6608 46.4003 14.0861 46.4003 10.5119 46.4003C10.4349 46.4003 10.3574 46.4049 10.2814 46.3978C10.1171 46.3818 10.02 46.2833 10.0041 46.1174C9.99848 46.0584 10.0021 45.9978 10.0021 45.9382C10.0021 42.7188 10.0021 39.5 10.0021 36.2806C10.0021 36.238 10.0016 36.1954 10.0021 36.1528C10.0098 35.8349 10.1017 35.742 10.4169 35.7415C12.307 35.741 14.1965 35.7415 16.0865 35.7415V35.741Z" fill="#999999"/>
<path d="M39.0457 41.8763C39.0457 40.681 39.0442 39.4862 39.0478 38.2908C39.0478 38.1558 39.0771 38.0213 39.0955 37.8867C39.1094 37.7861 39.1741 37.7404 39.2727 37.7389C39.3328 37.7378 39.3923 37.7373 39.4524 37.7373C40.239 37.7373 41.0256 37.7245 41.8117 37.7414C42.4099 37.7543 43.0045 37.8303 43.5534 38.0926C43.7423 38.183 43.9077 38.3216 44.0833 38.4397C44.1043 38.4536 44.1187 38.4767 44.1382 38.4931C44.8601 39.1098 45.008 39.8959 44.8108 40.7811C44.6671 41.428 44.2542 41.8809 43.7249 42.2414C43.3382 42.5048 42.9013 42.6516 42.4464 42.744C42.2636 42.781 42.0756 42.8021 41.8893 42.8118C41.4297 42.8349 40.9691 42.8488 40.5091 42.8632C40.2431 42.8714 40.2246 42.8852 40.2241 43.163C40.2226 43.9399 40.2241 44.7167 40.2241 45.4936C40.2241 45.5619 40.2277 45.6307 40.2221 45.6985C40.2087 45.8617 40.1466 45.9311 39.9823 45.9367C39.7517 45.9449 39.5207 45.9367 39.2901 45.9398C39.1531 45.9413 39.0853 45.8612 39.0611 45.7426C39.0442 45.66 39.0463 45.5732 39.0463 45.488C39.0452 44.2844 39.0457 43.0809 39.0457 41.8773V41.8763ZM40.2755 40.3046H40.276C40.276 40.7744 40.2734 41.2437 40.2775 41.7135C40.2791 41.8963 40.3135 41.9379 40.4788 41.9395C41.1509 41.9441 41.8282 41.9744 42.4823 41.7808C42.9223 41.6504 43.2694 41.3813 43.5031 40.9803C43.7038 40.6358 43.6977 40.2548 43.6417 39.8836C43.5893 39.538 43.4168 39.2346 43.1159 39.0353C42.7529 38.795 42.3391 38.6841 41.9088 38.6662C41.4564 38.6477 41.0025 38.66 40.5491 38.6626C40.2991 38.6641 40.277 38.6872 40.276 38.947C40.2739 39.3994 40.2755 39.8523 40.2755 40.3046Z" fill="#777677"/>
<path d="M70.2747 43.2723C70.2043 43.5855 70.2993 43.8376 70.3835 44.0672C70.5627 44.5565 70.898 44.92 71.4074 45.1069C71.6995 45.2142 71.9937 45.2666 72.3054 45.2774C72.826 45.2953 73.3267 45.2173 73.8093 45.0299C74.0306 44.9441 74.2396 44.8281 74.4547 44.7259C74.4835 44.7121 74.5138 44.7008 74.5769 44.6741C74.6314 44.9349 74.6154 45.1783 74.5918 45.4191C74.5872 45.4684 74.5066 45.5172 74.4527 45.5536C74.1061 45.7878 73.704 45.8807 73.3082 45.9788C72.9102 46.0773 72.5031 46.1061 72.0908 46.0948C71.4726 46.0784 70.8883 45.9377 70.3707 45.605C69.8233 45.2532 69.4434 44.7578 69.2673 44.12C69.2036 43.889 69.1897 43.6523 69.1569 43.4171C69.1132 43.107 69.1389 42.8035 69.1764 42.5047C69.2128 42.2131 69.2832 41.9101 69.4115 41.6483C69.7284 41.0013 70.2326 40.5212 70.8877 40.2152C71.2672 40.0376 71.6687 39.9492 72.0944 39.9359C72.5806 39.921 73.0479 39.9811 73.4946 40.1654C73.682 40.2429 73.8658 40.3451 74.0244 40.4699C74.3844 40.7538 74.6683 41.1091 74.829 41.5399C74.9507 41.8649 75.0221 42.2074 75.0195 42.5597C75.0185 42.7132 75.0247 42.8672 75.018 43.0202C75.0098 43.201 74.9476 43.258 74.7643 43.2708C74.7217 43.2739 74.6791 43.2718 74.636 43.2718C73.4309 43.2718 72.2258 43.2718 71.0207 43.2718C70.7768 43.2718 70.5329 43.2718 70.2742 43.2718L70.2747 43.2723ZM72.1031 42.401C72.3249 42.401 72.5472 42.401 72.769 42.401C73.0591 42.401 73.3498 42.4056 73.6399 42.3984C73.8103 42.3943 73.8494 42.3373 73.8232 42.1725C73.8108 42.097 73.8001 42.0215 73.7857 41.9466C73.72 41.6087 73.5654 41.313 73.2892 41.1091C72.7988 40.7471 72.2299 40.7338 71.6733 40.8709C71.0644 41.0208 70.6613 41.4393 70.4338 42.0236C70.3009 42.3651 70.3234 42.4005 70.6947 42.401C71.1645 42.402 71.6338 42.401 72.1036 42.401H72.1031Z" fill="#777677"/>
<path d="M46.5648 41.368C46.5376 41.3279 46.497 41.2951 46.4955 41.2607C46.4883 41.0563 46.4791 40.8509 46.4924 40.6476C46.5017 40.5043 46.6208 40.4253 46.743 40.3821C47.0711 40.2656 47.3997 40.1485 47.735 40.0561C48.1314 39.9472 48.5401 39.9123 48.9508 39.9442C49.4181 39.9806 49.8864 40.0253 50.2966 40.2841C50.6278 40.493 50.8809 40.7693 51.0119 41.1497C51.1402 41.522 51.2075 41.904 51.2085 42.2958C51.2121 43.3879 51.2101 44.48 51.2095 45.5721C51.2095 45.6404 51.2095 45.7087 51.2059 45.777C51.2008 45.8792 51.1423 45.9347 51.0422 45.9357C50.7859 45.9382 50.5292 45.9454 50.2735 45.9316C50.1082 45.9228 50.0625 45.8463 50.0686 45.6769C50.0722 45.5763 50.0692 45.4751 50.0692 45.375C49.9572 45.3016 49.8679 45.317 49.7796 45.3919C49.6887 45.4689 49.5927 45.5403 49.5018 45.6173C49.262 45.8207 48.9704 45.9023 48.6797 46.0035C48.3337 46.1241 47.9804 46.1293 47.6441 46.08C46.9458 45.9778 46.2886 45.7498 45.9728 45.0315C45.829 44.7039 45.7428 44.3547 45.8758 43.9922C45.9107 43.8967 45.9317 43.7956 45.9661 43.6996C46.1361 43.22 46.5155 42.9535 46.9525 42.7548C47.4089 42.5474 47.9024 42.5063 48.3932 42.4503C48.9082 42.3918 49.4217 42.3148 49.9357 42.2455C50.025 42.2331 50.0712 42.1782 50.0748 42.0899C50.1015 41.4553 49.7642 40.8355 49.0366 40.7718C48.4749 40.7226 47.9075 40.7421 47.3761 40.9736C47.1342 41.0789 46.9027 41.2088 46.666 41.3269C46.6367 41.3413 46.6054 41.3521 46.5653 41.369L46.5648 41.368ZM50.0255 43.5445C50.0255 43.4762 50.0255 43.4079 50.0255 43.3396C50.0255 43.3227 50.026 43.3052 50.0255 43.2883C50.0147 43.1086 49.988 43.0742 49.8165 43.0706C49.6979 43.068 49.5788 43.0819 49.4607 43.0957C49.2748 43.1173 49.09 43.1435 48.9046 43.1702C48.5262 43.2251 48.1432 43.2611 47.7709 43.3448C47.5599 43.3925 47.3453 43.4885 47.201 43.6693C47.0151 43.9024 46.9817 44.1622 47.0315 44.4615C47.0834 44.7758 47.2451 44.9668 47.5168 45.0936C47.9922 45.3154 48.4718 45.2882 48.9529 45.1152C49.0566 45.0777 49.1655 45.0412 49.2558 44.9801C49.7621 44.6371 50.0584 44.1771 50.0265 43.544L50.0255 43.5445Z" fill="#777677"/>
<path d="M63.2655 40.7785C63.398 40.8376 63.4842 40.7616 63.5669 40.6892C63.6634 40.605 63.7476 40.5064 63.8477 40.4279C64.2652 40.1003 64.7458 39.9426 65.2736 39.9457C65.5709 39.9473 65.8749 39.9473 66.1639 40.0068C66.3909 40.0541 66.6266 40.1557 66.8094 40.2964C67.2443 40.6322 67.558 41.0543 67.6478 41.6258C67.6956 41.9297 67.7372 42.2296 67.7356 42.5382C67.731 43.5456 67.7336 44.553 67.7336 45.5599C67.7336 45.6281 67.7336 45.6964 67.731 45.7647C67.7274 45.8638 67.6802 45.9321 67.5775 45.9342C67.3213 45.9388 67.0646 45.9378 66.8083 45.9342C66.7195 45.9331 66.6666 45.8777 66.6589 45.7889C66.6533 45.7211 66.6543 45.6523 66.6543 45.584C66.6543 44.5684 66.6651 43.5522 66.6487 42.5366C66.6425 42.1644 66.5819 41.7834 66.4197 41.4466C66.2363 41.0661 65.9031 40.8212 65.4795 40.7755C65.1524 40.74 64.8182 40.739 64.486 40.8124C63.9284 40.9362 63.2424 41.6165 63.265 42.2265C63.0673 43.182 63.2126 44.1489 63.1705 45.1096C63.1613 45.3139 63.1736 45.5193 63.1669 45.7242C63.1613 45.8962 63.1248 45.9311 62.9497 45.9372C62.7531 45.9439 62.5564 45.9434 62.3597 45.9372C62.1841 45.9321 62.1174 45.8684 62.0938 45.6918C62.0845 45.6246 62.0886 45.5552 62.0886 45.4875C62.0886 43.7972 62.0886 42.1069 62.0886 40.4171C62.0886 40.3575 62.0845 40.2969 62.0933 40.2379C62.1143 40.0931 62.1605 40.0525 62.3125 40.0433C62.5502 40.0294 62.7885 40.015 63.0267 40.0068C63.1674 40.0017 63.2588 40.0936 63.2645 40.2466C63.2706 40.416 63.266 40.5865 63.266 40.7785H63.2655Z" fill="#777677"/>
<path d="M59.1106 38.4033C59.1106 38.85 59.1106 39.2423 59.1106 39.6341C59.1106 39.9059 59.2462 40.0419 59.5173 40.0423C59.8679 40.0423 60.2186 40.0412 60.5693 40.0433C60.6525 40.0433 60.7352 40.0531 60.8517 40.0602C60.8517 40.2898 60.8569 40.5003 60.8497 40.7103C60.8451 40.8469 60.7418 40.8669 60.6299 40.8669C60.2623 40.8669 59.8946 40.8669 59.5265 40.8669C59.4664 40.8669 59.4069 40.8643 59.3468 40.8669C59.145 40.8751 59.1127 40.9028 59.1121 41.1128C59.1096 42.1803 59.1039 43.2478 59.1162 44.3153C59.1188 44.5479 59.1291 44.7989 59.3037 44.9899C59.3642 45.0567 59.4377 45.127 59.5193 45.1568C59.8905 45.2924 60.2674 45.3165 60.6448 45.1712C60.6766 45.1589 60.709 45.1491 60.7413 45.1394C60.749 45.1373 60.7583 45.1404 60.7917 45.1424C60.8091 45.1825 60.8445 45.2318 60.8502 45.2842C60.861 45.3858 60.8563 45.489 60.8553 45.5912C60.8533 45.8366 60.805 45.909 60.5668 45.9712C60.253 46.0528 59.9362 46.1308 59.6081 46.0893C59.2595 46.0451 58.9057 45.9778 58.6228 45.7678C58.2331 45.4782 58.0329 45.0659 58.0313 44.574C58.0277 43.5066 58.0303 42.4391 58.0303 41.3716C58.0303 41.3121 58.0313 41.252 58.0303 41.1924C58.0257 40.9141 57.9815 40.8695 57.6976 40.8664C57.5266 40.8643 57.3556 40.87 57.1846 40.8659C57.0614 40.8628 56.9253 40.8992 56.8457 40.7493C56.7585 40.584 56.7045 40.4192 56.7923 40.2384C56.8257 40.1701 56.8617 40.1029 56.9043 40.0202C57.1944 40.0264 57.4881 40.0294 57.7813 40.0407C57.9733 40.0479 58.0257 40.0099 58.0287 39.8122C58.0334 39.5134 58.0272 39.2146 58.0313 38.9158C58.0344 38.6847 58.0477 38.6744 58.2721 38.601C58.4328 38.5481 58.5889 38.4809 58.7522 38.4377C58.8539 38.4105 58.9643 38.4162 59.1111 38.4038L59.1106 38.4033Z" fill="#777677"/>
<path d="M56.5397 40.9305C56.3749 40.9064 56.209 40.8843 56.0437 40.8576C55.5996 40.7857 55.2052 40.8725 54.8607 41.1821C54.5583 41.4538 54.3503 41.7788 54.2589 42.1695C54.2112 42.3749 54.1881 42.59 54.1865 42.8011C54.1788 43.697 54.1835 44.5935 54.1835 45.49C54.1835 45.5583 54.1871 45.6271 54.1819 45.6949C54.1691 45.8602 54.108 45.9306 53.9452 45.9357C53.6977 45.9439 53.4492 45.9434 53.2017 45.9362C53.0462 45.9316 53.0169 45.8926 53.0056 45.7298C53.002 45.679 53.0046 45.6276 53.0046 45.5763C53.0046 43.8434 53.0046 42.1105 53.0046 40.3781C53.0046 40.2851 53.0046 40.1922 53.0046 40.1188C53.0374 40.0874 53.0497 40.0659 53.0621 40.0654C53.3655 40.0525 53.6674 39.9832 53.974 40.0407C54.1552 40.0746 54.1758 40.0844 54.1824 40.2636C54.1881 40.4171 54.1824 40.5706 54.1855 40.7246C54.1871 40.7981 54.1978 40.871 54.204 40.9336C54.3242 40.9773 54.3673 40.9085 54.4186 40.8515C54.5732 40.6815 54.7113 40.489 54.8905 40.3503C55.0615 40.2189 55.274 40.1383 55.4743 40.0484C55.5652 40.0073 55.6689 39.9853 55.769 39.9765C56.0324 39.9539 56.2974 39.9729 56.5448 40.0659C56.6932 40.1218 56.7507 40.4463 56.6706 40.6466C56.6393 40.7246 56.6008 40.8001 56.5407 40.93L56.5397 40.9305Z" fill="#777677"/>
<path d="M77.671 40.9238C77.7373 40.8658 77.8174 40.8181 77.8682 40.7487C78.1937 40.3046 78.6255 40.0628 79.1724 39.9816C79.4122 39.9457 79.6263 39.9791 79.8506 40.0335C80.0098 40.072 80.0832 40.1742 80.0951 40.32C80.1074 40.4725 80.1053 40.6276 80.0956 40.7806C80.0874 40.9177 80.0108 40.9716 79.8686 40.9485C79.7259 40.9254 79.5842 40.8935 79.4424 40.8643C78.664 40.7051 77.9894 41.2401 77.7753 41.8229C77.6464 42.1741 77.5786 42.5207 77.5822 42.8924C77.5909 43.7889 77.5858 44.6854 77.5848 45.5819C77.5848 45.8946 77.5401 45.9377 77.23 45.9393C77.059 45.9403 76.888 45.9444 76.717 45.9377C76.5337 45.9305 76.4736 45.8684 76.4598 45.6902C76.4557 45.6394 76.4588 45.5881 76.4588 45.5367C76.4588 43.8207 76.4588 42.1048 76.4588 40.3888C76.4588 40.3292 76.4552 40.2687 76.4623 40.2096C76.4819 40.0525 76.5353 40.0207 76.7021 40.0294C76.9152 40.0402 77.1288 40.0371 77.3424 40.0438C77.5488 40.0499 77.5796 40.0792 77.5848 40.2841C77.5899 40.4858 77.5873 40.6871 77.5884 40.8889L77.6715 40.9243L77.671 40.9238Z" fill="#777677"/>
<path d="M41.0585 27.4697C41.0549 27.5672 41.0487 27.6653 41.0487 27.7629C41.0482 30.2906 41.0487 32.8184 41.0487 35.3461C41.0487 35.4057 41.0513 35.4657 41.0477 35.5253C41.0364 35.7215 40.9784 35.7851 40.7807 35.7887C40.4814 35.7944 40.182 35.7892 39.8827 35.7887C39.7892 35.7887 39.6958 35.7938 39.6028 35.7872C39.4277 35.7749 39.2527 35.7559 39.0611 35.7384C39.055 35.6121 39.0468 35.5202 39.0468 35.4288C39.0462 32.0128 39.0468 28.5972 39.0468 25.1812C39.0468 25.1386 39.0452 25.096 39.0473 25.0534C39.057 24.8649 39.0868 24.8295 39.2763 24.8269C39.627 24.8218 39.9777 24.8254 40.3283 24.8249C40.8331 24.8249 41.3373 24.8285 41.842 24.8228C42.0135 24.8208 42.1224 24.8654 42.1968 25.0416C42.4587 25.6598 42.7385 26.2708 43.0142 26.8833C43.2869 27.4892 43.5636 28.093 43.8363 28.6984C44.0386 29.1482 44.2352 29.6 44.437 30.0498C44.6599 30.5453 44.8863 31.0392 45.1107 31.5342C45.2858 31.9203 45.4588 32.307 45.6349 32.6926C45.6585 32.7444 45.694 32.7917 45.7489 32.882C45.8234 32.765 45.8896 32.6813 45.9338 32.5873C46.1761 32.0708 46.4133 31.5522 46.6526 31.0341C47.1121 30.038 47.5737 29.0429 48.0307 28.0453C48.4949 27.0317 48.9554 26.0171 49.4129 25.001C49.4766 24.8593 49.5767 24.8223 49.7179 24.8233C50.1456 24.8269 50.5733 24.8244 51.0005 24.8244C51.3856 24.8244 51.7702 24.8228 52.1553 24.8249C52.3951 24.8264 52.4321 24.866 52.4413 25.1098C52.4434 25.1612 52.4413 25.2125 52.4413 25.2634C52.4413 28.628 52.4413 31.9922 52.4413 35.3569C52.4413 35.3826 52.4413 35.4082 52.4413 35.4339C52.4387 35.7466 52.3987 35.7882 52.0844 35.7892C51.6228 35.7908 51.1607 35.7903 50.6991 35.7892C50.6309 35.7892 50.5615 35.7903 50.4948 35.7779C50.4029 35.761 50.3428 35.7086 50.3372 35.6054C50.3233 35.3677 50.2909 35.1305 50.2904 34.8927C50.2863 33.014 50.2863 31.1353 50.2904 29.2565C50.2909 28.9849 50.3269 28.7133 50.3341 28.4411C50.3402 28.205 50.333 27.9683 50.3228 27.7326C50.3207 27.691 50.2843 27.6294 50.2488 27.616C50.2129 27.6022 50.141 27.6222 50.1164 27.653C50.0589 27.7254 50.0137 27.8096 49.9757 27.8943C49.7292 28.4437 49.4884 28.9962 49.2409 29.5451C48.8327 30.4508 48.4179 31.353 48.0122 32.2597C47.8664 32.5858 47.7468 32.9231 47.6009 33.2486C47.3062 33.9064 47.0023 34.5595 46.6998 35.2142C46.6321 35.361 46.5581 35.5043 46.4837 35.648C46.4256 35.76 46.3271 35.7923 46.2054 35.7908C45.8916 35.7872 45.5774 35.7826 45.2637 35.7923C45.0727 35.7985 44.952 35.7502 44.8683 35.5541C44.5777 34.8742 44.2681 34.2021 43.96 33.5295C43.8009 33.1809 43.6258 32.8399 43.4656 32.4918C43.2386 31.9984 43.0194 31.5014 42.796 31.0059C42.4885 30.323 42.1809 29.6401 41.8723 28.9582C41.6792 28.532 41.4867 28.1059 41.2885 27.6817C41.2505 27.6001 41.1894 27.5287 41.1391 27.4527C41.1124 27.4584 41.0852 27.4635 41.0585 27.4692V27.4697Z" fill="#5F5F5F"/>
<path d="M101.657 29.4553V29.7808C101.657 31.5994 101.657 33.4181 101.657 35.2373C101.657 35.3056 101.659 35.3739 101.657 35.4422C101.649 35.7312 101.592 35.7893 101.31 35.7903C100.831 35.7918 100.352 35.7928 99.8734 35.7903C99.5854 35.7887 99.552 35.7533 99.552 35.4622C99.5515 33.5922 99.5515 31.7222 99.5515 29.8522C99.5515 29.8008 99.5525 29.7495 99.5515 29.6986C99.5453 29.464 99.5232 29.4404 99.2799 29.4378C98.9805 29.4347 98.6812 29.4388 98.3818 29.4363C98.1477 29.4342 98.0753 29.369 98.0691 29.1333C98.0614 28.8263 98.0619 28.5187 98.0691 28.2111C98.0743 27.9914 98.121 27.9529 98.3526 27.9508C98.6519 27.9483 98.9512 27.9529 99.2506 27.9493C99.4945 27.9467 99.5484 27.8913 99.5515 27.6438C99.5546 27.3706 99.551 27.0975 99.552 26.8243C99.5546 26.259 99.6927 25.7486 100.031 25.2726C100.423 24.7212 100.949 24.409 101.566 24.1959C102.109 24.0085 102.667 23.9787 103.23 24.0116C103.424 24.0229 103.619 24.0691 103.804 24.1266C103.868 24.1466 103.949 24.2467 103.951 24.3125C103.964 24.7617 103.957 25.2115 103.957 25.6649C103.785 25.7116 103.656 25.6341 103.519 25.6028C103.078 25.5006 102.634 25.4765 102.227 25.7045C101.96 25.8539 101.77 26.0947 101.718 26.4069C101.68 26.6323 101.669 26.8633 101.66 27.0923C101.651 27.3141 101.659 27.5365 101.659 27.7583C101.659 27.8825 101.717 27.9498 101.846 27.9498C101.931 27.9498 102.017 27.9508 102.102 27.9508C102.889 27.9508 103.676 27.9508 104.463 27.9508C104.782 27.9508 104.788 27.9436 104.789 27.6161C104.79 27.2233 104.788 26.8305 104.79 26.4377C104.792 26.1861 104.862 26.1183 105.108 26.0572C105.512 25.9566 105.913 25.8415 106.315 25.7332C106.462 25.6937 106.609 25.6557 106.756 25.6177C106.876 25.6813 106.845 25.7943 106.845 25.8914C106.848 26.4377 106.847 26.9845 106.847 27.5308C106.847 27.5822 106.845 27.6335 106.848 27.6843C106.857 27.863 106.871 27.8918 107.058 27.901C107.569 27.9252 108.081 27.9406 108.592 27.9503C108.999 27.9585 108.999 27.9524 108.999 28.3616C108.999 28.6091 109.003 28.8571 108.997 29.1046C108.991 29.3726 108.925 29.4368 108.661 29.4383C108.173 29.4404 107.686 29.4383 107.198 29.4383C107.138 29.4383 107.079 29.4393 107.019 29.4409C106.903 29.444 106.849 29.5061 106.848 29.6196C106.848 29.6791 106.847 29.7392 106.847 29.7988C106.847 30.8318 106.846 31.8649 106.847 32.8985C106.847 33.2759 106.909 33.6471 107.062 33.9896C107.199 34.2946 107.496 34.3911 107.804 34.4075C108.134 34.425 108.468 34.4363 108.781 34.2771C108.892 34.2206 108.989 34.2853 108.992 34.4152C109.001 34.7736 109.006 35.1331 108.987 35.4904C108.983 35.5715 108.881 35.6537 108.812 35.723C108.78 35.7559 108.719 35.7631 108.669 35.7759C108.011 35.9459 107.349 36.0141 106.671 35.8868C106.329 35.8226 106.01 35.7194 105.722 35.5264C105.324 35.2594 105.065 34.8953 104.934 34.4317C104.83 34.0671 104.791 33.6974 104.79 33.3226C104.787 32.1612 104.789 31.0002 104.789 29.8388C104.789 29.7705 104.788 29.7022 104.788 29.6339C104.788 29.5112 104.733 29.4404 104.604 29.4398C104.569 29.4398 104.536 29.4383 104.501 29.4383C103.638 29.4383 102.774 29.4388 101.91 29.4404C101.843 29.4404 101.776 29.4491 101.658 29.4568L101.657 29.4553Z" fill="#5F5F5F"/>
<path d="M76.524 27.7541C77.1565 27.691 77.7737 27.8147 78.377 28.0185C79.0363 28.2409 79.6186 28.5962 80.0678 29.1302C80.341 29.4547 80.5392 29.8269 80.6845 30.2356C80.9094 30.8693 80.953 31.5162 80.9192 32.1724C80.8955 32.6232 80.7687 33.0545 80.6121 33.4817C80.3831 34.1071 79.9497 34.5697 79.4753 35.001C79.1775 35.2716 78.8063 35.4354 78.434 35.5818C77.5591 35.9253 76.6415 36.011 75.7184 35.934C74.9774 35.8724 74.2565 35.6767 73.6029 35.3004C73.4129 35.191 73.2455 35.0395 73.0771 34.8958C72.6345 34.5184 72.2849 34.0614 72.0846 33.5202C71.9511 33.1588 71.8299 32.7798 71.8397 32.3793C71.8423 32.2782 71.8145 32.177 71.8089 32.0754C71.8032 31.9742 71.8032 31.872 71.8089 31.7709C71.813 31.6949 71.8376 31.6194 71.8397 31.5434C71.8592 30.6788 72.1627 29.9307 72.7038 29.2539C73.2291 28.5967 73.9161 28.2219 74.6976 27.9831C75.2891 27.8024 75.8929 27.6997 76.5245 27.7536L76.524 27.7541ZM78.7164 31.8346C78.7436 31.3463 78.6918 30.8523 78.4474 30.3928C78.2928 30.1016 78.089 29.8413 77.8143 29.6693C77.3891 29.4028 76.9137 29.2585 76.4048 29.2893C76.1343 29.3058 75.8595 29.334 75.5982 29.4003C75.1037 29.5266 74.7012 29.7982 74.4188 30.2356C74.1266 30.6885 74.0563 31.2035 74.0008 31.719C73.9577 32.1211 74.0368 32.5154 74.1564 32.9015C74.2997 33.3647 74.5482 33.7518 74.9672 34.0126C75.2814 34.2088 75.6182 34.3217 75.9936 34.369C76.3304 34.4111 76.6564 34.3977 76.984 34.3505C77.1678 34.3238 77.3568 34.2801 77.5237 34.2021C78.0428 33.9603 78.3868 33.5551 78.5757 33.0134C78.7077 32.6361 78.7308 32.2484 78.7159 31.8346H78.7164Z" fill="#5F5F5F"/>
<path d="M93.5307 27.7167C93.887 27.7567 94.3239 27.7737 94.7455 27.8646C95.0567 27.9318 95.3688 28.0165 95.6687 28.1516C96.12 28.3544 96.5185 28.6245 96.8502 28.9782C97.2794 29.4357 97.5726 29.9738 97.72 30.5956C97.8273 31.048 97.8714 31.5008 97.8581 31.9609C97.8252 33.1234 97.3934 34.1164 96.5215 34.8897C96.0317 35.324 95.4438 35.5905 94.803 35.7564C94.1165 35.934 93.4233 35.9705 92.723 35.9417C92.4693 35.9315 92.2142 35.8868 91.9662 35.8319C91.482 35.7245 91.0132 35.5695 90.5844 35.3117C89.8851 34.8912 89.3506 34.3233 89.0451 33.5598C88.8736 33.1311 88.7509 32.69 88.7719 32.2192C88.7812 32.0061 88.7719 31.7925 88.774 31.5794C88.7807 30.8087 89.0353 30.1227 89.4595 29.4835C89.7588 29.0322 90.1439 28.683 90.6034 28.415C90.9639 28.205 91.3469 28.0381 91.7587 27.9488C91.9913 27.8984 92.2224 27.8327 92.4575 27.8034C92.7867 27.7624 93.1189 27.749 93.5301 27.7177L93.5307 27.7167ZM93.2914 29.2581C93.0665 29.3002 92.8401 29.3356 92.6172 29.3859C91.94 29.5389 91.463 29.9358 91.1775 30.5694C91.0568 30.838 91.0214 31.1219 90.9711 31.4074C90.8704 31.9799 90.9464 32.5324 91.1482 33.0618C91.3182 33.508 91.6073 33.8766 92.0519 34.0969C92.6619 34.3988 93.2986 34.463 93.9645 34.3326C94.5565 34.2165 95.0341 33.9393 95.3154 33.3929C95.4315 33.168 95.5403 32.9272 95.586 32.6818C95.6594 32.2844 95.7241 31.8782 95.6523 31.47C95.6081 31.22 95.5758 30.9653 95.5013 30.724C95.3899 30.363 95.1979 30.0452 94.8944 29.8028C94.4261 29.4291 93.8839 29.292 93.2919 29.2591L93.2914 29.2581Z" fill="#5F5F5F"/>
<path d="M82.0118 33.7981C82.193 33.889 82.3661 33.9958 82.5535 34.0646C82.9283 34.2027 83.3036 34.3547 83.6918 34.4368C84.1683 34.5374 84.6571 34.5333 85.1346 34.3988C85.302 34.3516 85.456 34.2787 85.5675 34.1416C85.8042 33.8499 85.7569 33.3319 85.4453 33.1218C85.186 32.9473 84.9036 32.7932 84.6119 32.6818C83.9829 32.441 83.3421 32.2254 82.7814 31.8444C82.4374 31.6107 82.1992 31.2847 82.0436 30.8904C81.8921 30.5063 81.9301 30.112 81.9702 29.7294C82.0041 29.4034 82.1756 29.1041 82.4061 28.8525C82.8251 28.3945 83.337 28.1074 83.9321 27.9226C84.5857 27.7193 85.2486 27.7213 85.911 27.7593C86.3151 27.7824 86.713 27.9087 87.1135 27.9909C87.2547 28.0201 87.3415 28.0992 87.3409 28.2548C87.3394 28.6902 87.3409 29.1256 87.3379 29.5605C87.3379 29.5985 87.3142 29.6365 87.2973 29.6879C87.2449 29.6755 87.2008 29.6745 87.1669 29.6555C86.6801 29.3854 86.1425 29.2863 85.6039 29.199C85.2168 29.1364 84.8296 29.1764 84.4779 29.35C84.3254 29.425 84.1529 29.5641 84.101 29.7125C84.0297 29.9184 84.0286 30.1654 84.1534 30.3764C84.2546 30.5479 84.3809 30.6906 84.577 30.7671C85.0288 30.9443 85.4807 31.123 85.9243 31.3186C86.2278 31.4521 86.5312 31.5948 86.8105 31.7709C87.2598 32.0539 87.6002 32.4405 87.7784 32.9514C87.8 33.0135 87.8 33.0854 87.8015 33.1527C87.8046 33.3319 87.7984 33.5111 87.8036 33.6902C87.8128 34.0065 87.706 34.2823 87.5412 34.5477C87.1443 35.1859 86.5543 35.5449 85.8483 35.7425C85.2019 35.9238 84.539 35.9972 83.8736 35.9371C83.281 35.8837 82.6906 35.7867 82.1253 35.5818C82.0267 35.5464 81.9553 35.4853 81.9548 35.3816C81.9527 34.8784 81.9574 34.3752 81.962 33.872C81.962 33.852 81.9882 33.832 82.0128 33.7976L82.0118 33.7981Z" fill="#5F5F5F"/>
<path d="M64.8967 29.8552C64.7617 29.791 64.6446 29.7438 64.5358 29.6811C64.0829 29.4213 63.5998 29.2776 63.075 29.2832C62.9297 29.2847 62.7839 29.2868 62.6391 29.2822C62.1164 29.2657 61.643 29.4316 61.2122 29.7048C60.8789 29.9163 60.6417 30.2228 60.4446 30.573C60.1581 31.0808 60.1 31.6251 60.1509 32.1776C60.196 32.6684 60.3403 33.131 60.6674 33.5392C61.1382 34.1272 61.7718 34.3731 62.4717 34.4234C63.2008 34.4758 63.9176 34.3408 64.5671 33.9649C64.6185 33.9351 64.6652 33.8971 64.7145 33.8637C64.8654 33.7605 64.9466 33.7991 64.9609 33.9844C64.9676 34.0691 64.963 34.1549 64.963 34.2406C64.963 34.5564 64.9594 34.8727 64.9645 35.1885C64.9671 35.3451 64.9055 35.4318 64.7571 35.4981C64.2544 35.723 63.7327 35.8642 63.1839 35.8965C62.7587 35.9217 62.3279 35.9735 61.9069 35.9355C61.1732 35.8688 60.4666 35.6809 59.8223 35.2948C59.0177 34.8131 58.478 34.1241 58.1797 33.2455C58.1011 33.0145 58.0775 32.7644 58.0354 32.5221C58.0108 32.3799 57.98 32.234 57.9892 32.0923C58.0108 31.7622 58.0447 31.432 58.0934 31.1049C58.1422 30.7763 58.2249 30.4523 58.3877 30.1597C58.5448 29.8778 58.7019 29.5933 58.8919 29.3335C59.3622 28.6891 60.0359 28.3261 60.7665 28.0612C61.3544 27.8476 61.9634 27.75 62.5929 27.7387C63.266 27.7264 63.9196 27.8106 64.5609 28.0057C64.658 28.035 64.7576 28.0725 64.8392 28.1305C64.8947 28.17 64.9532 28.2506 64.9548 28.3138C64.963 28.7831 64.9578 29.2529 64.9543 29.7222C64.9543 29.7525 64.9291 29.7828 64.8967 29.8557V29.8552Z" fill="#5F5F5F"/>
<path d="M66.5049 27.976C66.6071 27.9647 66.6728 27.9508 66.7385 27.9508C67.2689 27.9493 67.7988 27.9488 68.3292 27.9508C68.5823 27.9518 68.6034 27.9749 68.6065 28.2327C68.609 28.4463 68.6054 28.6599 68.6075 28.873C68.608 28.9464 68.6172 29.0198 68.6665 29.1122C68.7158 29.0491 68.7687 28.989 68.8134 28.9228C69.1271 28.4581 69.5199 28.0951 70.0642 27.9133C70.4539 27.7829 70.8518 27.7619 71.2513 27.8199C71.6395 27.8764 71.6379 27.8897 71.6379 28.2774C71.6379 28.7092 71.6379 29.1415 71.6379 29.6C71.563 29.676 71.4603 29.6385 71.3519 29.6047C71.0593 29.5117 70.7645 29.4337 70.4518 29.4383C69.7135 29.4496 69.124 29.8984 68.8309 30.5366C68.6558 30.9181 68.6162 31.3263 68.6121 31.7329C68.5998 32.9452 68.6075 34.158 68.6075 35.3708C68.6075 35.4478 68.6121 35.5253 68.6008 35.6008C68.5839 35.7163 68.5135 35.7841 68.3918 35.7846C67.8815 35.7872 67.3706 35.7887 66.8602 35.7903C66.8089 35.7903 66.7575 35.7928 66.7062 35.7892C66.5465 35.7774 66.5177 35.7482 66.5064 35.5869C66.5028 35.5361 66.5054 35.4842 66.5054 35.4334C66.5054 33.051 66.5054 30.668 66.5054 28.2856V27.976H66.5049Z" fill="#5F5F5F"/>
<path d="M54.4443 31.8465C54.4443 30.6943 54.4443 29.5416 54.4443 28.3894C54.4443 28.3298 54.4417 28.2697 54.4453 28.2102C54.4577 27.9981 54.4998 27.9514 54.7051 27.9504C55.235 27.9473 55.7649 27.9478 56.2953 27.9504C56.4684 27.9514 56.5017 27.9812 56.5341 28.1496C56.5479 28.224 56.5469 28.3026 56.5469 28.3791C56.5474 30.701 56.5469 33.0228 56.5469 35.3441C56.5469 35.3868 56.5485 35.4294 56.5459 35.472C56.5305 35.7703 56.4786 35.8063 56.1844 35.7683C56.0781 35.7544 55.9667 35.7857 55.8579 35.7867C55.4733 35.7898 55.0887 35.7919 54.7041 35.7873C54.5434 35.7852 54.4761 35.72 54.4515 35.5583C54.4402 35.4828 54.4443 35.4052 54.4443 35.3282C54.4443 34.1673 54.4443 33.0064 54.4443 31.8454V31.8465Z" fill="#5F5F5F"/>
<path d="M54.2872 25.6044C54.279 25.3687 54.3776 25.1782 54.5367 25.0124C55.0533 24.4753 55.8168 24.4301 56.3954 24.8743C56.911 25.2696 56.9798 25.9992 56.3605 26.4305C55.7803 26.8346 55.1647 26.812 54.6148 26.3735C54.3991 26.2015 54.2846 25.9345 54.2872 25.6039V25.6044Z" fill="#5F5F5F"/>
</svg>
