<svg width="112" height="13" viewBox="0 0 112 13" fill="none" xmlns="http://www.w3.org/2000/svg">
<path d="M8.783 0.815999V2.592H2.815V5.552H8.175V7.232H2.815V10.224H8.975V12H0.927V0.815999H8.783ZM18.0198 12L15.2678 7.792H15.1878L12.4358 12H10.0838L13.9238 6.256L10.3558 0.815999H12.6918L15.1878 4.592H15.2678L17.7638 0.815999H20.0998L16.5318 6.256L20.3718 12H18.0198ZM26.0014 0.815999C27.6974 0.815999 28.9347 1.14133 29.7134 1.792C30.492 2.44267 30.8814 3.44533 30.8814 4.8C30.8814 6.15467 30.4814 7.14667 29.6814 7.776C28.892 8.40533 27.676 8.72 26.0334 8.72H24.0494V12H22.1614V0.815999H26.0014ZM26.2414 7.008C27.2867 7.008 27.996 6.81067 28.3694 6.416C28.7534 6.01067 28.9454 5.424 28.9454 4.656C28.9454 3.87733 28.7054 3.328 28.2254 3.008C27.7454 2.688 26.9934 2.528 25.9694 2.528H24.0494V7.008H26.2414ZM34.0735 9.456L32.9535 12H30.9375L35.8655 0.815999H37.8815L42.8095 12H40.7935L39.6735 9.456H34.0735ZM38.9055 7.712L36.8735 3.104L34.8415 7.712H38.9055ZM52.7485 0.815999H54.6365V12H52.5885L46.2525 3.84V12H44.3645V0.815999H46.2525L52.7485 9.168V0.815999ZM61.5795 0.815999C63.5848 0.815999 65.1262 1.30667 66.2035 2.288C67.2808 3.25867 67.8195 4.61333 67.8195 6.352C67.8195 8.09067 67.2968 9.46667 66.2515 10.48C65.2062 11.4933 63.6062 12 61.4515 12H57.7395V0.815999H61.5795ZM65.9155 6.4C65.9155 3.84 64.4488 2.56 61.5155 2.56H59.6275V10.224H61.7235C63.0782 10.224 64.1128 9.904 64.8275 9.264C65.5528 8.61333 65.9155 7.65867 65.9155 6.4ZM70.2551 0.815999H72.1431V12H70.2551V0.815999ZM83.6235 0.815999H85.5115V12H83.4635L77.1275 3.84V12H75.2395V0.815999H77.1275L83.6235 9.168V0.815999ZM96.3585 6.56H98.2465V10.384C97.1905 11.5467 95.6812 12.128 93.7185 12.128C92.0652 12.128 90.6785 11.584 89.5585 10.496C88.4492 9.408 87.8945 8.032 87.8945 6.368C87.8945 4.704 88.4598 3.31733 89.5905 2.208C90.7318 1.09867 92.1078 0.544 93.7185 0.544C95.3292 0.544 96.6678 1.01333 97.7345 1.952L96.7265 3.392C96.2892 3.01867 95.8465 2.76267 95.3985 2.624C94.9612 2.47467 94.4492 2.4 93.8625 2.4C92.7318 2.4 91.7825 2.768 91.0145 3.504C90.2465 4.22933 89.8625 5.18933 89.8625 6.384C89.8625 7.568 90.2358 8.52267 90.9825 9.248C91.7292 9.96267 92.6305 10.32 93.6865 10.32C94.7532 10.32 95.6438 10.0907 96.3585 9.632V6.56ZM100.564 11.776C100.34 11.5413 100.228 11.2587 100.228 10.928C100.228 10.5973 100.34 10.32 100.564 10.096C100.799 9.86133 101.081 9.744 101.412 9.744C101.743 9.744 102.025 9.86133 102.26 10.096C102.495 10.32 102.612 10.5973 102.612 10.928C102.612 11.2587 102.495 11.5413 102.26 11.776C102.025 12.0107 101.743 12.128 101.412 12.128C101.081 12.128 100.799 12.0107 100.564 11.776ZM105.048 11.776C104.824 11.5413 104.712 11.2587 104.712 10.928C104.712 10.5973 104.824 10.32 105.048 10.096C105.283 9.86133 105.566 9.744 105.896 9.744C106.227 9.744 106.51 9.86133 106.744 10.096C106.979 10.32 107.096 10.5973 107.096 10.928C107.096 11.2587 106.979 11.5413 106.744 11.776C106.51 12.0107 106.227 12.128 105.896 12.128C105.566 12.128 105.283 12.0107 105.048 11.776ZM109.533 11.776C109.309 11.5413 109.197 11.2587 109.197 10.928C109.197 10.5973 109.309 10.32 109.533 10.096C109.767 9.86133 110.05 9.744 110.381 9.744C110.711 9.744 110.994 9.86133 111.229 10.096C111.463 10.32 111.581 10.5973 111.581 10.928C111.581 11.2587 111.463 11.5413 111.229 11.776C110.994 12.0107 110.711 12.128 110.381 12.128C110.05 12.128 109.767 12.0107 109.533 11.776Z" fill="#4C596D"/>
</svg>
