<svg width="120" height="70" viewBox="0 0 120 70" fill="none" xmlns="http://www.w3.org/2000/svg">
<path d="M69.9724 41.738H69.9379C69.9552 41.738 69.9552 41.7552 69.9724 41.7552H69.9897L69.9724 41.738ZM69.9724 41.7552C69.8345 41.7552 69.4725 41.8242 69.0933 41.8242C67.9038 41.8242 67.4901 41.2726 67.4901 40.5485V35.7563H69.9207C70.0586 35.7563 70.162 35.6356 70.162 35.4632V32.8602C70.162 32.7223 70.0414 32.6016 69.9207 32.6016H67.4901V29.3608C67.4901 29.2402 67.4039 29.1712 67.266 29.1712H63.9562C63.8183 29.1712 63.7494 29.2574 63.7494 29.3608V32.6878C63.7494 32.6878 62.0772 33.1016 61.9738 33.1188C61.8531 33.1533 61.7842 33.2567 61.7842 33.3774V35.4632C61.7842 35.6356 61.9049 35.7563 62.0428 35.7563H63.7321V40.7899C63.7321 44.5306 66.3351 44.9099 68.1107 44.9099C68.9209 44.9099 69.9035 44.6513 70.0586 44.5651C70.1448 44.5306 70.1965 44.4272 70.1965 44.3238V42.0311C70.1965 41.8931 70.1103 41.7897 69.9724 41.7552ZM106.277 38.3937C106.277 35.6184 105.156 35.2564 103.984 35.377C103.07 35.4287 102.329 35.8942 102.329 35.8942V41.2898C102.329 41.2898 103.07 41.807 104.191 41.8414C105.759 41.8759 106.277 41.307 106.277 38.3937ZM110 38.1524C110 43.4101 108.293 44.9099 105.328 44.9099C102.812 44.9099 101.467 43.6342 101.467 43.6342C101.467 43.6342 101.415 44.341 101.329 44.4272C101.277 44.5134 101.208 44.5479 101.105 44.5479H98.8468C98.6916 44.5479 98.5537 44.4272 98.5537 44.2893L98.5882 27.275C98.5882 27.1371 98.7088 27.0164 98.8468 27.0164H102.105C102.243 27.0164 102.363 27.1371 102.363 27.275V33.0498C102.363 33.0498 103.622 32.2396 105.466 32.2396L105.449 32.2052C107.276 32.2052 110 32.8947 110 38.1524ZM96.6402 32.6189H93.4167C93.2443 32.6189 93.1581 32.7396 93.1581 32.9119V41.2381C93.1581 41.2381 92.3134 41.8242 91.1584 41.8242C90.0207 41.8242 89.6759 41.307 89.6759 40.1521V32.8775C89.6759 32.7396 89.5553 32.6189 89.4173 32.6189H86.1421C86.0041 32.6189 85.8835 32.7396 85.8835 32.8775V40.7209C85.8835 44.0824 87.7625 44.9271 90.3482 44.9271C92.4858 44.9271 94.2096 43.7549 94.2096 43.7549C94.2096 43.7549 94.2958 44.3582 94.3303 44.4444C94.3648 44.5134 94.4682 44.5823 94.5716 44.5823H96.623C96.7954 44.5823 96.8816 44.4617 96.8816 44.3238L96.9161 32.8775C96.9333 32.7396 96.7954 32.6189 96.6402 32.6189ZM60.3362 32.6016H57.0781C56.9402 32.6016 56.8195 32.7396 56.8195 32.9119V44.1514C56.8195 44.4617 57.0264 44.5651 57.285 44.5651H60.2327C60.543 44.5651 60.612 44.4272 60.612 44.1514V32.8602C60.5947 32.7223 60.4741 32.6016 60.3362 32.6016ZM58.7157 27.4129C57.5435 27.4129 56.5954 28.3438 56.5954 29.5332C56.5954 30.7054 57.5263 31.6535 58.7157 31.6535C59.8707 31.6535 60.8016 30.7227 60.8016 29.5332C60.8016 28.361 59.8707 27.4129 58.7157 27.4129ZM83.9872 27.0336H80.7464C80.6085 27.0336 80.4879 27.1543 80.4879 27.2922V33.5498H75.4198V27.2922C75.4198 27.1543 75.2991 27.0336 75.1612 27.0336H71.9031C71.7652 27.0336 71.6445 27.1543 71.6445 27.2922V44.3065C71.6445 44.4444 71.7825 44.5651 71.9031 44.5651H75.1612C75.2991 44.5651 75.4198 44.4444 75.4198 44.3065V37.0319H80.4879L80.4534 44.3065C80.4534 44.4444 80.574 44.5651 80.712 44.5651H83.97C84.1079 44.5651 84.2286 44.4444 84.2286 44.3065V27.2922C84.2458 27.1543 84.1252 27.0336 83.9872 27.0336ZM55.0784 34.5668V43.3584C55.0784 43.4101 55.0612 43.5308 54.9922 43.548C54.9922 43.548 53.0788 44.9099 49.9242 44.9099C46.1145 44.9099 41.5808 43.7204 41.5808 35.8425C41.5808 27.9645 45.5284 26.3441 49.3898 26.3613C52.734 26.3613 54.0786 27.1198 54.2855 27.2577C54.3372 27.3439 54.3717 27.3956 54.3717 27.4646L53.7511 30.2055C53.7511 30.3434 53.6132 30.5158 53.4408 30.4641C52.8892 30.2917 52.0617 29.9642 50.1138 29.9642C47.8555 29.9642 45.4422 30.602 45.4422 35.6873C45.4422 40.7554 47.7349 41.3588 49.3898 41.3588C50.8033 41.3588 51.3032 41.1864 51.3032 41.1864V37.6697H49.045C48.8726 37.6697 48.7519 37.5491 48.7519 37.4112V34.5841C48.7519 34.4462 48.8726 34.3255 49.045 34.3255H54.7854C54.9578 34.3082 55.0784 34.4289 55.0784 34.5668Z" fill="#999999"/>
<path fill-rule="evenodd" clip-rule="evenodd" d="M23.1357 22C15.8783 22 10 27.8783 10 35.1357C10 40.945 13.758 45.858 18.9812 47.599C19.6363 47.7025 19.8948 47.3232 19.8948 46.9785C19.8948 46.6682 19.8776 45.6339 19.8776 44.5306C16.5851 45.1339 15.7232 43.7204 15.4646 42.9964C15.3094 42.6171 14.6716 41.4449 14.12 41.1346C13.6545 40.8933 12.9995 40.2727 14.1027 40.2555C15.137 40.2382 15.8783 41.2036 16.1196 41.6001C17.3091 43.5825 19.1881 43.0309 19.9466 42.6861C20.0672 41.8414 20.412 41.2553 20.7912 40.9278C17.878 40.6002 14.8095 39.4625 14.8095 34.4461C14.8095 33.0153 15.3267 31.8259 16.1541 30.9123C16.0162 30.5847 15.568 29.2401 16.292 27.4301C16.292 27.4301 17.3953 27.0853 19.9121 28.7747C20.9636 28.4816 22.0841 28.3265 23.1874 28.3265C24.3079 28.3265 25.4111 28.4816 26.4627 28.7747C28.9795 27.0681 30.0655 27.4301 30.0655 27.4301C30.7895 29.2401 30.3241 30.5847 30.2034 30.9123C31.0481 31.8259 31.548 32.9981 31.548 34.4461C31.548 39.4797 28.4796 40.6002 25.549 40.9278C26.0317 41.3415 26.4454 42.1172 26.4454 43.3584C26.4454 45.1167 26.4282 46.5303 26.4282 46.9612C26.4282 47.306 26.6695 47.7197 27.3246 47.5818C32.6685 45.7718 36.2713 40.7554 36.2713 35.1184C36.2713 27.8783 30.393 22 23.1357 22Z" fill="#5F5F5F"/>
</svg>
