<svg width="120" height="70" viewBox="0 0 120 70" fill="none" xmlns="http://www.w3.org/2000/svg">
<path d="M36.1703 43.2446V49.7585H34.1082V33.6852H39.5858C40.9817 33.6852 42.1554 34.1505 43.1283 35.081C44.1117 36.0116 44.6087 37.1431 44.6087 38.4755C44.6087 39.8078 44.1117 40.971 43.1283 41.891C42.166 42.8004 40.9922 43.2657 39.5858 43.2657H36.1703V43.2446ZM36.1703 35.652V41.2671H39.6281C40.4529 41.2671 41.1297 40.9922 41.669 40.4317C42.2189 39.8819 42.5044 39.2157 42.5044 38.4543C42.5044 37.6929 42.2295 37.0585 41.669 36.498C41.1297 35.927 40.4529 35.6415 39.6281 35.6415H36.1703V35.652Z" fill="#777677"/>
<path d="M50.1287 38.4014C51.6514 38.4014 52.8569 38.8139 53.7452 39.6281C54.6228 40.4423 55.067 41.5632 55.067 42.9802V49.7585H53.0895V48.2358H53.0049C52.1484 49.4941 51.0169 50.118 49.5894 50.118C48.3733 50.118 47.3581 49.7585 46.5439 49.0394C45.7296 48.3204 45.3172 47.4215 45.3172 46.3429C45.3172 45.2009 45.7508 44.302 46.6073 43.6253C47.4639 42.9485 48.6165 42.6101 50.0546 42.6101C51.2813 42.6101 52.2964 42.8322 53.0895 43.2869V42.811C53.0895 42.092 52.804 41.4786 52.233 40.9816C51.662 40.4846 50.9958 40.2308 50.2344 40.2308C49.0818 40.2308 48.1724 40.7173 47.4956 41.6901L45.6768 40.5481C46.6814 39.1099 48.1618 38.3909 50.1181 38.3909L50.1287 38.4014ZM47.4533 46.3958C47.4533 46.9351 47.6859 47.3792 48.1406 47.7388C48.5953 48.0983 49.1346 48.2781 49.748 48.2781C50.6151 48.2781 51.387 47.9608 52.0744 47.3158C52.7511 46.6707 53.1001 45.9199 53.1001 45.0528C52.4551 44.5453 51.5562 44.2915 50.4036 44.2915C49.5682 44.2915 48.8703 44.4924 48.2993 44.8942C47.7388 45.2961 47.4533 45.8036 47.4533 46.3958Z" fill="#777677"/>
<path d="M57.4039 38.761H59.3814V40.5586H59.466C60.0793 39.1522 61.3483 38.4437 63.2622 38.4437L63.6852 38.486V40.6432L62.7652 40.5586C61.803 40.5586 61.0204 40.8547 60.3965 41.4469C59.7726 42.0391 59.466 42.7899 59.466 43.6993V49.7585H57.4039V38.761ZM70.2943 49.9383C69.3955 49.9383 68.6553 49.6633 68.0631 49.1029C67.4709 48.553 67.1643 47.7811 67.1537 46.7871V40.6327H65.2185V38.7504H67.1537V35.3877H69.2157V38.7504H71.9122V40.6327H69.2157V46.1103C69.2157 46.8399 69.3532 47.3369 69.6387 47.6013C69.9242 47.8657 70.2415 47.9926 70.601 47.9926C70.7702 47.9926 70.9288 47.9714 71.0874 47.9397C71.246 47.8974 71.3941 47.8551 71.521 47.7916L72.1766 49.6316C71.6373 49.822 71.0134 49.9277 70.2943 49.9277V49.9383Z" fill="#777677"/>
<path d="M73.9954 38.761H75.9729V40.2838H76.0575C76.3747 39.7445 76.8505 39.3003 77.5062 38.9408C78.1618 38.5813 78.8386 38.4015 79.5365 38.4015C80.8794 38.4015 81.9158 38.7822 82.6454 39.5541C83.375 40.3261 83.7346 41.4258 83.7346 42.8428V49.7586H81.6725V42.9803C81.6302 41.1826 80.7208 40.2838 78.9549 40.2838C78.1301 40.2838 77.4427 40.6221 76.8928 41.2778C76.343 41.944 76.0575 42.7371 76.0575 43.6676V49.748H73.9954V38.7504V38.761Z" fill="#777677"/>
<path d="M91.105 50.1181C89.4871 50.1181 88.1547 49.5682 87.1079 48.4579C86.061 47.3476 85.5322 45.9517 85.5322 44.2598C85.5322 42.5679 86.0398 41.1932 87.055 40.0723C88.0701 38.9619 89.3708 38.4015 90.957 38.4015C92.5432 38.4015 93.8861 38.9302 94.8484 39.9877C95.8107 41.0451 96.2971 42.5256 96.2971 44.4184L96.276 44.6405H87.6366C87.6683 45.7191 88.0278 46.5862 88.7152 47.2418C89.4025 47.8974 90.2273 48.2252 91.1896 48.2252C92.5115 48.2252 93.5372 47.5696 94.288 46.2478L96.1279 47.1466C95.6309 48.0772 94.9542 48.7963 94.0765 49.325C93.1988 49.8537 92.2048 50.1075 91.105 50.1075V50.1181ZM87.8058 42.938H94.1188C94.0553 42.1766 93.7487 41.5421 93.1882 41.0451C92.6278 40.5481 91.877 40.2943 90.9358 40.2943C90.1533 40.2943 89.4871 40.5375 88.9267 41.0134C88.3662 41.4893 87.9961 42.1343 87.8163 42.9485L87.8058 42.938Z" fill="#777677"/>
<path d="M100.263 49.7585H98.2005V38.761H100.178V40.5587H100.263C100.474 39.9771 100.908 39.4801 101.553 39.0677C102.208 38.6553 102.843 38.4543 103.477 38.4543C104.112 38.4543 104.588 38.5389 105 38.7187L104.376 40.7173C104.122 40.6116 103.72 40.5587 103.16 40.5587C102.377 40.5587 101.701 40.8759 101.13 41.4998C100.548 42.1237 100.263 42.8639 100.263 43.6993V49.7585Z" fill="#777677"/>
<path d="M38.7822 24.2844V25.6908H42.1343C42.0286 26.5791 41.6584 27.2664 41.0346 27.7529C40.4212 28.2393 39.6704 28.4825 38.7822 28.4825C37.7459 28.4825 36.8788 28.123 36.1703 27.3933C35.4618 26.6743 35.1022 25.7966 35.1022 24.7497C35.1022 23.7028 35.4618 22.8251 36.1703 22.1061C36.8788 21.3764 37.7564 21.0169 38.7822 21.0169C39.755 21.0169 40.5904 21.3553 41.3095 22.0215L42.3035 21.0275C41.3095 20.0863 40.1357 19.6105 38.7822 19.6105C37.8622 19.6105 36.9951 19.8431 36.1808 20.3084C35.3666 20.7631 34.7321 21.3976 34.2668 22.2012C33.8121 22.9838 33.5795 23.8297 33.5795 24.7391C33.5795 25.6485 33.8121 26.5051 34.2668 27.2982C34.7215 28.0913 35.3666 28.7152 36.1808 29.1804C36.9951 29.6457 37.8622 29.8784 38.7822 29.8784C40.1674 29.8784 41.3201 29.4448 42.2295 28.5777C43.1283 27.7212 43.583 26.5791 43.583 25.1621C43.583 24.8237 43.5619 24.5382 43.509 24.2844H38.7927H38.7822Z" fill="#5F5F5F"/>
<path d="M47.3898 23.2693C46.4487 23.2693 45.6556 23.5865 45.0211 24.221C44.3867 24.8449 44.0694 25.6274 44.0694 26.5791C44.0694 27.5308 44.3867 28.2922 45.0317 28.9372C45.6662 29.5717 46.4487 29.889 47.3898 29.889C48.331 29.889 49.1135 29.5717 49.748 28.9372C50.393 28.2922 50.7103 27.5097 50.7103 26.5791C50.7103 25.6486 50.393 24.8555 49.748 24.221C49.1135 23.5865 48.331 23.2693 47.3898 23.2693ZM48.7011 28.0067C48.3416 28.3874 47.908 28.5777 47.3898 28.5777C46.8717 28.5777 46.417 28.3874 46.0575 28.0067C45.6979 27.626 45.5181 27.1501 45.5181 26.5791C45.5181 26.0081 45.6979 25.5217 46.0575 25.1516C46.417 24.7709 46.8611 24.5805 47.3898 24.5805C47.9186 24.5805 48.3627 24.7709 48.7222 25.1516C49.0818 25.5217 49.2615 25.9975 49.2615 26.5791C49.2615 27.1607 49.0818 27.6154 48.7117 28.0067H48.7011Z" fill="#5F5F5F"/>
<path d="M67.3335 19.9701H65.8847V29.6881H67.3335V19.9701Z" fill="#5F5F5F"/>
<path d="M54.6334 23.2693C53.6923 23.2693 52.8992 23.5865 52.2647 24.221C51.6302 24.8449 51.313 25.6274 51.313 26.5791C51.313 27.5308 51.6302 28.2922 52.2753 28.9372C52.9098 29.5717 53.6923 29.889 54.6334 29.889C55.5745 29.889 56.3571 29.5717 56.9915 28.9372C57.6366 28.2922 57.9538 27.5097 57.9538 26.5791C57.9538 25.6486 57.6366 24.8555 56.9915 24.221C56.3571 23.5865 55.5745 23.2693 54.6334 23.2693ZM55.9447 28.0067C55.5851 28.3874 55.1516 28.5777 54.6334 28.5777C54.1153 28.5777 53.6606 28.3874 53.301 28.0067C52.9415 27.626 52.7617 27.1501 52.7617 26.5791C52.7617 26.0081 52.9415 25.5217 53.301 25.1516C53.6606 24.7709 54.1047 24.5805 54.6334 24.5805C55.1621 24.5805 55.6063 24.7709 55.9658 25.1516C56.3253 25.5217 56.5051 25.9975 56.5051 26.5791C56.5051 27.1607 56.3253 27.6154 55.9552 28.0067H55.9447Z" fill="#5F5F5F"/>
<path d="M71.3201 28.5777C70.5904 28.5777 70.0617 28.2393 69.7127 27.5731L74.1329 25.7437L73.9848 25.363C73.8685 25.0563 73.7205 24.7708 73.5301 24.5065C73.3398 24.2527 73.1283 24.02 72.8851 23.8403C72.6419 23.6499 72.3775 23.5125 72.0814 23.4067C71.7853 23.3115 71.4787 23.2587 71.1509 23.2587C70.2626 23.2587 69.5224 23.5759 68.9196 24.1998C68.3275 24.8343 68.0314 25.6274 68.0314 26.5685C68.0314 27.5096 68.3486 28.2922 68.9725 28.9266C69.5964 29.5611 70.3789 29.8783 71.3095 29.8783C72.4833 29.8783 73.3927 29.3919 74.0589 28.4085L72.9274 27.6577C72.515 28.271 71.9757 28.5671 71.2989 28.5671L71.3201 28.5777ZM69.9771 25.0986C70.3472 24.7285 70.749 24.5488 71.2037 24.5488C71.4893 24.5488 71.743 24.6122 71.9651 24.7391C72.1872 24.866 72.3458 25.0352 72.4304 25.2467L69.4801 26.4733C69.4589 25.9129 69.6281 25.4582 69.9771 25.0986Z" fill="#5F5F5F"/>
<path d="M63.5055 24.0095H63.4526C63.0402 23.5125 62.4586 23.2693 61.7078 23.2693C60.8512 23.2693 60.111 23.5971 59.4766 24.2421C58.8527 24.8978 58.5354 25.6697 58.5354 26.5791C58.5354 27.4885 58.8527 28.2605 59.4766 28.9055C60.1216 29.5506 60.8618 29.8678 61.7078 29.8678C62.448 29.8678 63.0296 29.614 63.4526 29.117H63.5055V29.4554C63.5055 30.8407 62.9133 31.5386 61.7395 31.5386C61.3588 31.5386 61.031 31.4328 60.7349 31.2108C60.4388 30.9887 60.2168 30.7138 60.0687 30.3542L58.7998 30.883C58.9267 31.1791 59.0853 31.4434 59.2756 31.6761C59.466 31.9193 59.688 32.1202 59.9418 32.2894C60.1956 32.4586 60.4706 32.596 60.7772 32.6912C61.0733 32.7864 61.3905 32.8393 61.7289 32.8393C62.7124 32.8393 63.4843 32.5432 64.0342 31.9404C64.5841 31.3482 64.8696 30.4917 64.8696 29.392V23.4596H63.4949V23.9989L63.5055 24.0095ZM63.093 28.0173C62.7547 28.3979 62.3317 28.5777 61.8453 28.5777C61.3271 28.5777 60.8935 28.3874 60.534 28.0067C60.185 27.626 60.0053 27.1501 60.0053 26.5897C60.0053 26.0292 60.185 25.5428 60.5446 25.1621C60.9147 24.7709 61.3482 24.57 61.8453 24.57C62.3423 24.57 62.7652 24.7603 63.093 25.141C63.4314 25.5322 63.6112 26.0187 63.6112 26.5791C63.6112 27.1396 63.442 27.6154 63.093 28.0067V28.0173Z" fill="#5F5F5F"/>
<path d="M25.5323 15H15V55.0352H25.5323V15Z" fill="#999999"/>
</svg>
