<svg width="120" height="70" viewBox="0 0 120 70" fill="none" xmlns="http://www.w3.org/2000/svg">
<path d="M39.5148 31.8532L38.9801 33.4573C38.9731 33.484 38.9569 33.5075 38.9345 33.5236C38.912 33.5397 38.8846 33.5476 38.8571 33.5458H37.5838C37.5068 33.5458 37.4838 33.5034 37.4953 33.438L39.6918 27.0986C39.7679 26.8837 39.8056 26.6572 39.8034 26.4292C39.8023 26.4198 39.8032 26.4103 39.8059 26.4013C39.8087 26.3922 39.8133 26.3838 39.8194 26.3766C39.8255 26.3694 39.8331 26.3635 39.8416 26.3593C39.85 26.3552 39.8593 26.3528 39.8687 26.3523H41.6267C41.6806 26.3523 41.7037 26.3523 41.7152 26.4177L44.2079 33.4496C44.231 33.5034 44.2079 33.5458 44.154 33.5458H42.7231C42.6972 33.5496 42.6709 33.5439 42.649 33.5297C42.627 33.5155 42.611 33.4939 42.6038 33.4688L42.0576 31.8532H39.5148ZM41.646 30.4799C41.4267 29.7528 40.9843 28.4257 40.7766 27.6448C40.6035 28.3795 40.2073 29.5913 39.9226 30.4799H41.646Z" fill="#5F5F5F"/>
<path d="M44.5426 30.8684C44.5426 29.2951 45.7197 27.9795 47.7277 27.9795C47.8162 27.9795 47.9278 27.9795 48.0932 27.9987V25.8368C48.0919 25.8264 48.0931 25.8159 48.0965 25.806C48.0999 25.7961 48.1056 25.7871 48.113 25.7797C48.1204 25.7723 48.1294 25.7666 48.1393 25.7632C48.1492 25.7598 48.1597 25.7586 48.1701 25.7599H49.5511C49.6088 25.7599 49.6203 25.7791 49.6203 25.8253V32.3148C49.6162 32.5834 49.6304 32.852 49.6626 33.1188C49.6626 33.1726 49.6627 33.1957 49.5857 33.2188C48.9076 33.5053 48.1793 33.6544 47.4431 33.6573C45.7966 33.6573 44.5426 32.7341 44.5426 30.8684ZM48.0932 29.3066C47.9614 29.2652 47.8234 29.2469 47.6854 29.2527C47.4781 29.2377 47.2699 29.267 47.0748 29.3386C46.8796 29.4102 46.7019 29.5225 46.5535 29.668C46.4051 29.8135 46.2893 29.9889 46.2138 30.1826C46.1384 30.3763 46.105 30.5839 46.1159 30.7915C46.1159 31.8762 46.7391 32.3494 47.5777 32.3494C47.752 32.3562 47.9261 32.3341 48.0932 32.284V29.3066Z" fill="#5F5F5F"/>
<path d="M56.0213 30.7915C56.0213 32.5148 54.9019 33.6573 53.3285 33.6573C51.4475 33.6573 50.6127 32.2379 50.6127 30.8223C50.6127 29.2643 51.6591 27.9795 53.3478 27.9795C55.1096 27.9795 56.0213 29.3066 56.0213 30.7915ZM52.1553 30.7915C52.1553 31.7609 52.6054 32.3763 53.3401 32.3763C53.9787 32.3763 54.4633 31.8263 54.4633 30.8146C54.4633 29.9567 54.1094 29.2451 53.2747 29.2451C52.64 29.2528 52.1553 29.8221 52.1553 30.7992V30.7915Z" fill="#5F5F5F"/>
<path d="M58.4256 25.7599C58.5141 25.7599 58.5372 25.7599 58.5372 25.8484V28.0987C58.8383 28.0184 59.1487 27.9783 59.4604 27.9795C59.809 27.9621 60.1575 28.0175 60.4836 28.1423C60.8096 28.2671 61.106 28.4585 61.354 28.7043C61.6019 28.9501 61.7959 29.2448 61.9236 29.5697C62.0512 29.8946 62.1097 30.2426 62.0954 30.5914C62.0954 32.6456 60.4721 33.6688 58.7987 33.6688C58.2083 33.6668 57.6218 33.5734 57.06 33.3919C57.0409 33.3809 57.0249 33.3652 57.0135 33.3464C57.002 33.3276 56.9955 33.3062 56.9946 33.2842V25.8368C56.9946 25.7791 57.0177 25.7599 57.0715 25.7599H58.4256ZM59.195 29.272C58.9764 29.2707 58.7588 29.3005 58.5487 29.3605V32.3379C58.6821 32.3705 58.8191 32.386 58.9564 32.384C59.1715 32.392 59.3858 32.3541 59.585 32.2728C59.7843 32.1915 59.964 32.0687 60.1121 31.9126C60.2602 31.7565 60.3734 31.5706 60.4441 31.3673C60.5147 31.1641 60.5413 30.9481 60.5221 30.7338C60.5221 29.7336 59.9528 29.272 59.1834 29.272H59.195Z" fill="#5F5F5F"/>
<path d="M64.392 31.2184C64.4458 31.8454 64.8843 32.3724 65.9614 32.3724C66.4242 32.3815 66.8838 32.2951 67.3117 32.1185C67.3463 32.0955 67.3771 32.1185 67.3771 32.1724V33.2187C67.3771 33.2957 67.377 33.3264 67.3001 33.3495C66.7725 33.5862 66.1967 33.6956 65.6191 33.6688C63.5572 33.6688 62.8302 32.2493 62.8302 30.8876C62.8302 29.372 63.7649 27.991 65.4883 27.991C67.1462 27.991 67.7963 29.2758 67.7963 30.3606C67.8042 30.6081 67.7848 30.8558 67.7386 31.0992C67.7386 31.1216 67.7297 31.1431 67.7139 31.159C67.698 31.1749 67.6765 31.1838 67.654 31.1838C67.277 31.2211 66.8981 31.2365 66.5192 31.2299L64.392 31.2184ZM65.8191 30.1529C66.0028 30.1598 66.1867 30.1521 66.3692 30.1298V30.0528C66.3652 29.9344 66.3379 29.818 66.2886 29.7102C66.2394 29.6025 66.1693 29.5056 66.0823 29.4251C65.9954 29.3446 65.8934 29.2822 65.7822 29.2413C65.671 29.2005 65.5528 29.1822 65.4344 29.1873C65.1666 29.1797 64.9061 29.2759 64.7075 29.4559C64.509 29.6358 64.3876 29.8855 64.3689 30.1529H65.8191Z" fill="#5F5F5F"/>
<path d="M37.9531 44.2551C37.9252 44.2356 37.9032 44.2087 37.8897 44.1775C37.8761 44.1462 37.8714 44.1119 37.8761 44.0782V42.7741C37.8761 42.7164 37.9223 42.6856 37.9646 42.7164C38.5614 43.0885 39.2501 43.287 39.9534 43.2896C40.7881 43.2896 41.1074 43.0049 41.1074 42.6202C41.1074 42.2356 40.8535 42.0163 40.1073 41.697L39.5572 41.4662C38.207 40.893 37.8338 40.2121 37.8338 39.3582C37.8338 38.1695 38.734 37.2271 40.4804 37.2271C41.0648 37.1977 41.6487 37.2948 42.1922 37.5117C42.2499 37.5425 42.2576 37.5887 42.2576 37.6541V38.885C42.2576 38.9273 42.2268 38.9812 42.1614 38.9389C41.637 38.677 41.0546 38.5526 40.4689 38.5773C39.6226 38.5773 39.3148 38.8619 39.3148 39.2235C39.3148 39.5851 39.5456 39.7967 40.3689 40.1237L40.7766 40.2891C42.2384 40.893 42.6423 41.5854 42.6423 42.4779C42.6423 43.805 41.5652 44.6398 39.8765 44.6398C39.2142 44.662 38.5558 44.5303 37.9531 44.2551Z" fill="#5F5F5F"/>
<path d="M48.8164 41.7739C48.8164 43.4973 47.697 44.6397 46.1236 44.6397C44.2426 44.6397 43.4078 43.2241 43.4078 41.8047C43.4078 40.266 44.4541 38.9619 46.1429 38.9619C47.9047 38.9619 48.8164 40.289 48.8164 41.7739ZM44.9696 41.7739C44.9696 42.7394 45.4197 43.3549 46.1544 43.3549C46.793 43.3549 47.2777 42.8048 47.2777 41.7931C47.2777 40.9392 46.9238 40.2237 46.089 40.2237C45.4351 40.2352 44.9504 40.8045 44.9504 41.7854L44.9696 41.7739Z" fill="#5F5F5F"/>
<path d="M49.805 36.8309C49.805 36.7771 49.8281 36.7424 49.9127 36.7424H51.2206C51.2975 36.7424 51.3322 36.7771 51.3322 36.8309V42.9857C51.3322 43.2935 51.4322 43.4012 51.6938 43.4012H51.8938C51.9361 43.4012 51.9476 43.4012 51.9476 43.4781V44.4206C51.9476 44.5091 51.9476 44.5321 51.8707 44.5514C51.6526 44.6292 51.4212 44.6632 51.1898 44.6514C50.3974 44.6514 49.805 44.3552 49.805 43.1358V36.8309Z" fill="#5F5F5F"/>
<path d="M57.5062 43.3127C57.5061 43.6907 57.5279 44.0683 57.5716 44.4437C57.5716 44.5091 57.5485 44.5283 57.4716 44.5283H56.3176C56.2291 44.5283 56.2099 44.5091 56.1868 44.4514C56.1591 44.3398 56.1372 44.2268 56.1214 44.1129C55.7011 44.4661 55.1662 44.6536 54.6173 44.6399C53.5171 44.6399 52.7593 44.0359 52.7593 42.5203V39.1621C52.7593 39.0851 52.7824 39.0736 52.8593 39.0736H54.198C54.2634 39.0736 54.2749 39.0967 54.2749 39.1621V42.3472C54.2749 42.9396 54.5288 43.3243 55.1328 43.3243C55.4487 43.3339 55.7561 43.2209 55.9906 43.0089V39.1621C55.9906 39.0967 56.0214 39.0736 56.0983 39.0736H57.4293C57.5062 39.0736 57.5178 39.0967 57.5178 39.1621L57.5062 43.3127Z" fill="#5F5F5F"/>
<path d="M61.6761 44.3437C61.6761 44.4091 61.6761 44.4629 61.5992 44.486C61.2858 44.5972 60.9545 44.6493 60.6221 44.6399C59.6642 44.6399 59.1064 44.1667 59.1064 43.0704V40.3469H58.4448C58.3794 40.3469 58.3563 40.3122 58.3563 40.2468V39.1621C58.3563 39.0851 58.3794 39.062 58.4563 39.062H59.118C59.1283 38.618 59.1642 38.1748 59.2257 37.7349C59.2295 37.7097 59.2413 37.6865 59.2593 37.6685C59.2773 37.6505 59.3005 37.6387 59.3257 37.6349L60.6105 37.4695C60.6644 37.4695 60.699 37.4695 60.699 37.5349C60.6644 37.8772 60.6413 38.5235 60.6413 39.0736H61.653C61.7184 39.0736 61.7415 39.0967 61.7415 39.1621V40.2738C61.7415 40.3276 61.7184 40.3392 61.6645 40.3507H60.6298V42.7011C60.6298 43.1819 60.7759 43.4012 61.226 43.4012C61.3553 43.399 61.484 43.3848 61.6107 43.3589C61.653 43.3589 61.6876 43.3589 61.6876 43.4358L61.6761 44.3437Z" fill="#5F5F5F"/>
<path d="M62.5224 37.6234C62.5191 37.5104 62.5391 37.3979 62.5812 37.293C62.6233 37.188 62.6866 37.0929 62.7671 37.0135C62.8476 36.9341 62.9435 36.8721 63.049 36.8315C63.1545 36.7908 63.2672 36.7723 63.3802 36.7771C63.4932 36.7697 63.6065 36.7866 63.7126 36.8265C63.8186 36.8664 63.9148 36.9285 63.9949 37.0086C64.075 37.0887 64.1371 37.185 64.1771 37.291C64.217 37.397 64.2338 37.5103 64.2265 37.6234C64.2338 37.7379 64.2167 37.8527 64.1762 37.9601C64.1356 38.0675 64.0727 38.1651 63.9915 38.2462C63.9104 38.3274 63.8128 38.3903 63.7054 38.4309C63.598 38.4714 63.4832 38.4885 63.3687 38.4812C63.2547 38.4881 63.1406 38.4705 63.0341 38.4297C62.9275 38.3889 62.8309 38.3257 62.7507 38.2445C62.6705 38.1632 62.6087 38.0657 62.5693 37.9586C62.5299 37.8515 62.5139 37.7372 62.5224 37.6234ZM62.5993 39.1621C62.5973 39.15 62.5982 39.1376 62.6019 39.126C62.6057 39.1143 62.6121 39.1037 62.6208 39.0951C62.6294 39.0864 62.64 39.08 62.6517 39.0762C62.6633 39.0725 62.6757 39.0716 62.6878 39.0736H64.038C64.1034 39.0736 64.1265 39.0967 64.1265 39.1621V44.4321C64.1265 44.4975 64.1265 44.5283 64.0265 44.5283H62.7109C62.6339 44.5283 62.5993 44.4975 62.5993 44.4321V39.1621Z" fill="#5F5F5F"/>
<path d="M70.5237 41.7739C70.5237 43.4973 69.4004 44.6397 67.831 44.6397C65.9537 44.6397 65.119 43.2241 65.119 41.8047C65.119 40.266 66.1615 38.9619 67.854 38.9619C69.6197 38.9619 70.5237 40.289 70.5237 41.7739ZM66.6577 41.7739C66.6577 42.7394 67.1078 43.3549 67.8425 43.3549C68.4811 43.3549 68.9619 42.8048 68.9619 41.7931C68.9619 40.9392 68.6119 40.2237 67.7771 40.2237C67.1462 40.2352 66.6769 40.8045 66.6769 41.7854L66.6577 41.7739Z" fill="#5F5F5F"/>
<path d="M71.5199 40.3468C71.5199 39.9621 71.4969 39.4005 71.4738 39.1582C71.4738 39.1043 71.4738 39.0697 71.5507 39.0697H72.7048C72.733 39.0693 72.7607 39.078 72.7836 39.0947C72.8065 39.1113 72.8234 39.135 72.8317 39.162C72.8765 39.2783 72.9062 39.3998 72.9202 39.5236C73.3521 39.1634 73.8965 38.9661 74.4589 38.9658C75.3052 38.9658 76.3053 39.4044 76.3053 41.1739V44.4321C76.3053 44.4975 76.2822 44.5282 76.2053 44.5282H74.8897C74.8128 44.5282 74.7782 44.4975 74.7782 44.4321V41.3008C74.7782 40.643 74.4935 40.2891 73.9203 40.2891C73.5842 40.2843 73.2586 40.4066 73.0086 40.6315V44.4436C73.0086 44.4975 72.9779 44.5282 72.9125 44.5282H71.5815C71.5046 44.5282 71.4853 44.4975 71.4853 44.4321L71.5199 40.3468Z" fill="#5F5F5F"/>
<path d="M80.2829 37.4347C80.2829 37.3693 80.2829 37.3463 80.3483 37.3463C80.7984 37.3463 81.6678 37.3116 82.5025 37.3116C84.7221 37.3116 85.4915 38.5426 85.4915 39.7428C85.4915 41.52 84.1182 42.2778 82.414 42.2778H81.787V44.4436C81.787 44.4974 81.7639 44.5282 81.6985 44.5282H80.3483C80.2945 44.5282 80.2714 44.4974 80.2714 44.4436L80.2829 37.4347ZM81.7986 40.9276C81.9871 40.9276 82.1063 40.9276 82.414 40.9276C83.2834 40.9276 83.972 40.6622 83.972 39.7736C83.972 39.0812 83.5027 38.6426 82.5448 38.6426C82.1948 38.6426 81.8986 38.6426 81.7986 38.6657V40.9276Z" fill="#5F5F5F"/>
<path d="M90.5269 43.3126C90.5269 43.5973 90.5269 43.8281 90.55 44.082C90.55 44.1051 90.55 44.1281 90.5269 44.1397C89.771 44.4646 88.9569 44.6321 88.1342 44.6321C86.9148 44.6321 85.9146 44.0704 85.9146 42.7971C85.9146 41.6431 86.9379 41.0199 88.3958 41.0199C88.6123 41.0068 88.8294 41.0068 89.0459 41.0199V40.943C89.0459 40.7353 88.9151 40.2506 87.9919 40.2506C87.4925 40.2454 86.9979 40.3478 86.5416 40.5506C86.4955 40.5506 86.4416 40.5506 86.4416 40.4929V39.412C86.4381 39.3871 86.4441 39.3619 86.4583 39.3412C86.4726 39.3205 86.4941 39.306 86.5186 39.3004C87.0621 39.0653 87.6498 38.9498 88.2419 38.9619C89.8268 38.9619 90.5269 39.939 90.5269 41.1892V43.3126ZM89.0459 42.1778C88.8633 42.1568 88.6796 42.1465 88.4958 42.147C87.7264 42.147 87.3956 42.4009 87.3956 42.7933C87.3956 43.1857 87.6726 43.4549 88.365 43.4549C88.5958 43.4569 88.8254 43.4232 89.0459 43.3549V42.1778Z" fill="#5F5F5F"/>
<path d="M93.0235 39.0696C93.0539 39.0663 93.0845 39.0748 93.1089 39.0934C93.1332 39.1121 93.1495 39.1394 93.1542 39.1696C93.2272 39.3671 93.2688 39.5748 93.2773 39.7851C93.4917 39.5299 93.7589 39.3242 94.0603 39.1821C94.3618 39.04 94.6905 38.9649 95.0238 38.9619C95.0892 38.9619 95.1123 38.9811 95.1123 39.0504V40.4006C95.1123 40.4545 95.0892 40.4775 95.0122 40.4775C94.7183 40.4429 94.4205 40.4669 94.1359 40.5481C93.8513 40.6293 93.5856 40.7662 93.3543 40.9507V44.4436C93.3543 44.509 93.3312 44.5282 93.2543 44.5282H91.9348C91.8502 44.5282 91.8271 44.4974 91.8271 44.432V40.643C91.8271 40.1698 91.8271 39.5312 91.7733 39.1466C91.7733 39.0927 91.7733 39.0696 91.8387 39.0696H93.0235Z" fill="#5F5F5F"/>
<path d="M99.0205 44.3437C99.0205 44.4091 99.0205 44.4629 98.9436 44.486C98.6302 44.5972 98.2989 44.6493 97.9665 44.6399C97.0086 44.6399 96.4509 44.1667 96.4509 43.0704V40.3469H95.7892C95.7238 40.3469 95.7046 40.3122 95.7046 40.2468V39.1621C95.7046 39.0851 95.7238 39.062 95.8008 39.062H96.4624C96.4727 38.618 96.5086 38.1748 96.5701 37.7349C96.5745 37.71 96.5864 37.687 96.6043 37.6691C96.6222 37.6512 96.6452 37.6393 96.6701 37.6349L97.955 37.4695C98.0088 37.4695 98.0434 37.4695 98.0434 37.5349C98.0088 37.8772 97.9896 38.5235 97.9896 39.0736H98.9897C99.0551 39.0736 99.0782 39.0967 99.0782 39.1621V40.2738C99.0782 40.3276 99.0551 40.3392 99.0013 40.3507H97.9703V42.7011C97.9703 43.1819 98.1127 43.4012 98.5627 43.4012C98.692 43.3992 98.8208 43.3851 98.9474 43.3589C98.9897 43.3589 99.0244 43.3589 99.0244 43.4358L99.0205 44.3437Z" fill="#5F5F5F"/>
<path d="M99.9438 40.3468C99.9438 39.9621 99.9207 39.4004 99.8976 39.1581C99.8976 39.1042 99.8976 39.0696 99.9745 39.0696H101.129C101.159 39.0654 101.19 39.0719 101.216 39.0881C101.242 39.1042 101.261 39.129 101.271 39.1581C101.317 39.2738 101.347 39.3956 101.359 39.5197C101.791 39.1595 102.336 38.9622 102.898 38.9619C103.744 38.9619 104.745 39.4004 104.745 41.17V44.432C104.745 44.4974 104.721 44.5282 104.645 44.5282H103.329C103.252 44.5282 103.217 44.4974 103.217 44.432V41.3007C103.217 40.643 102.933 40.289 102.363 40.289C102.027 40.2835 101.701 40.4059 101.452 40.6314V44.4436C101.452 44.4974 101.417 44.5282 101.352 44.5282H100.021C99.9437 44.5282 99.9245 44.4974 99.9245 44.432L99.9438 40.3468Z" fill="#5F5F5F"/>
<path d="M107.31 42.201C107.368 42.828 107.807 43.355 108.884 43.355C109.346 43.3638 109.806 43.2773 110.234 43.1011C110.268 43.0819 110.299 43.1011 110.299 43.1588V44.2013C110.299 44.2782 110.299 44.3128 110.222 44.3321C109.695 44.5684 109.119 44.6777 108.541 44.6513C106.479 44.6513 105.752 43.2357 105.752 41.874C105.752 40.3583 106.687 38.9735 108.41 38.9735C110.068 38.9735 110.719 40.2583 110.719 41.347C110.726 41.5933 110.707 41.8396 110.661 42.0817C110.659 42.1046 110.649 42.1261 110.633 42.1423C110.617 42.1585 110.595 42.1684 110.572 42.1702C110.196 42.2035 109.819 42.2176 109.441 42.2125L107.31 42.201ZM108.741 41.1354C108.925 41.1423 109.109 41.1346 109.291 41.1123V41.0354C109.287 40.917 109.26 40.8005 109.211 40.6928C109.162 40.585 109.091 40.4881 109.005 40.4076C108.918 40.3272 108.816 40.2647 108.704 40.2239C108.593 40.1831 108.475 40.1647 108.357 40.1699C108.091 40.1653 107.833 40.2628 107.637 40.4425C107.441 40.6221 107.321 40.8701 107.303 41.1354H108.741Z" fill="#5F5F5F"/>
<path d="M112.915 39.0696C112.945 39.0672 112.975 39.0761 113 39.0945C113.024 39.113 113.04 39.1398 113.046 39.1696C113.117 39.3674 113.158 39.575 113.165 39.7851C113.38 39.5299 113.647 39.3242 113.948 39.1821C114.25 39.04 114.578 38.9649 114.912 38.9619C114.981 38.9619 115 38.9811 115 39.0504V40.4006C115 40.4545 114.981 40.4775 114.904 40.4775C114.609 40.443 114.311 40.4671 114.026 40.5483C113.741 40.6295 113.474 40.7662 113.242 40.9507V44.4436C113.242 44.509 113.219 44.5282 113.142 44.5282H111.823C111.734 44.5282 111.715 44.4974 111.715 44.432V40.643C111.715 40.1698 111.715 39.5312 111.657 39.1466C111.657 39.0927 111.657 39.0696 111.723 39.0696H112.915Z" fill="#5F5F5F"/>
<path d="M25.9152 23H9.49954C7.01451 23 5 25.0145 5 27.4995V43.2804C5 45.7654 7.01451 47.7799 9.49954 47.7799H25.9152C28.4002 47.7799 30.4147 45.7654 30.4147 43.2804V27.4995C30.4147 25.0145 28.4002 23 25.9152 23Z" fill="#999999"/>
<path d="M24.7578 41.5443H21.7434C21.6121 41.5469 21.4831 41.5104 21.3727 41.4394C21.2623 41.3684 21.1755 41.2662 21.1233 41.1457L17.8461 33.4693C17.8414 33.451 17.833 33.4338 17.8214 33.4188C17.8098 33.4039 17.7952 33.3915 17.7786 33.3823C17.762 33.3732 17.7437 33.3676 17.7249 33.3658C17.706 33.364 17.687 33.3661 17.669 33.3719C17.6458 33.3783 17.6246 33.3902 17.6071 33.4067C17.5896 33.4232 17.5764 33.4437 17.5686 33.4664L15.5285 38.3527C15.5163 38.3789 15.511 38.4077 15.5132 38.4365C15.5154 38.4653 15.525 38.493 15.541 38.517C15.557 38.5411 15.5789 38.5605 15.6047 38.5736C15.6304 38.5867 15.659 38.593 15.6879 38.5918H17.9317C18.0009 38.5891 18.0692 38.6071 18.1281 38.6433C18.187 38.6796 18.2338 38.7326 18.2624 38.7956L19.2456 40.9833C19.287 41.0816 19.2879 41.1923 19.2481 41.2913C19.2083 41.3903 19.131 41.4696 19.033 41.5118C18.9825 41.533 18.9283 41.5441 18.8736 41.5443H10.6894C10.6404 41.5443 10.5919 41.5346 10.5468 41.5156C10.5016 41.4967 10.4607 41.469 10.4263 41.4341C10.392 41.3992 10.3649 41.3578 10.3467 41.3124C10.3285 41.2669 10.3195 41.2183 10.3203 41.1693C10.3198 41.1196 10.3299 41.0702 10.3499 41.0247L15.5491 28.645C15.6009 28.5157 15.69 28.4047 15.8052 28.3263C15.9204 28.2479 16.0564 28.2057 16.1957 28.2051H19.2072C19.3485 28.2038 19.4868 28.245 19.6043 28.3235C19.7217 28.402 19.8128 28.514 19.8656 28.645L25.1003 41.0247C25.1198 41.0696 25.1302 41.118 25.131 41.167C25.1318 41.216 25.1228 41.2647 25.1047 41.3102C25.0866 41.3558 25.0597 41.3973 25.0255 41.4324C24.9913 41.4675 24.9505 41.4955 24.9054 41.5148C24.8586 41.534 24.8085 41.544 24.7578 41.5443Z" fill="white"/>
</svg>
