<svg width="120" height="70" viewBox="0 0 120 70" fill="none" xmlns="http://www.w3.org/2000/svg">
<path d="M44.4907 34.4634C44.9017 34.6951 45.4888 34.8991 46.252 35.0783C47.0184 35.2575 47.8002 35.3472 48.6036 35.3472C49.407 35.3472 50.1084 35.2483 50.7666 35.0536C51.4248 34.8589 51.9934 34.5715 52.4631 34.1976C52.9328 33.8237 53.3036 33.3757 53.5724 32.8504C53.8382 32.3251 53.9741 31.7318 53.9741 31.0736C53.9741 30.2733 53.7362 29.5595 53.2634 28.9353C52.7906 28.3111 52.0027 27.8228 50.8995 27.4675L48.7365 26.7722C47.9176 26.5034 47.3583 26.2253 47.0555 25.9317C46.7526 25.6382 46.6012 25.2766 46.6012 24.8502C46.6012 24.226 46.8422 23.7718 47.3243 23.4875C47.8033 23.2032 48.4831 23.0579 49.3545 23.0579C50.4391 23.0579 51.4217 23.2557 52.2931 23.6451C52.5589 23.7687 52.7566 23.8336 52.8802 23.8336C53.112 23.8336 53.2263 23.6729 53.2263 23.3515V22.6315C53.2263 22.4183 53.1831 22.2483 53.0935 22.1247C53.0038 21.9981 52.8524 21.8745 52.6392 21.7508C52.4785 21.6643 52.2653 21.5747 51.9965 21.4851C51.7276 21.3955 51.4403 21.3151 51.1282 21.2441C50.8161 21.1699 50.4885 21.1143 50.1393 21.071C49.7902 21.0247 49.4472 21.0031 49.1104 21.0031C48.4336 21.0031 47.7909 21.0927 47.1852 21.2688C46.5796 21.448 46.0512 21.7107 45.5969 22.0568C45.1427 22.4059 44.7781 22.8231 44.5031 23.3113C44.225 23.8027 44.089 24.365 44.089 25.0078C44.089 25.8081 44.3424 26.5466 44.8522 27.2265C45.359 27.9032 46.1717 28.4192 47.2965 28.7746L49.5121 29.4698C50.2599 29.7201 50.7728 29.9859 51.0478 30.2702C51.3228 30.5575 51.4619 30.9098 51.4619 31.3393C51.4619 31.9604 51.1992 32.4425 50.6739 32.7824C50.1486 33.1192 49.407 33.2892 48.4429 33.2892C47.8372 33.2892 47.2316 33.2274 46.6259 33.1038C46.0203 32.9771 45.461 32.8009 44.9449 32.5692C44.7843 32.4981 44.6545 32.4456 44.5587 32.4116C44.4598 32.3745 44.3671 32.3591 44.2775 32.3591C44.0457 32.3591 43.9314 32.5167 43.9314 32.838V33.6136C43.9314 33.7589 43.9623 33.901 44.0241 34.0431C44.0859 34.1853 44.2435 34.3274 44.4907 34.4696" fill="#5F5F5F"/>
<path d="M18.673 27.0504C18.1106 26.97 17.5729 26.9298 17.0568 26.9298C15.4902 26.9298 14.2418 27.3254 13.3179 28.1195C12.3908 28.9106 11.9304 29.9581 11.9304 31.259C11.9304 32.4858 12.3043 33.4684 13.0521 34.1977C13.7999 34.9269 14.8135 35.2916 16.0989 35.2916C17.8973 35.2916 19.3929 34.587 20.5857 33.1811C20.7464 33.521 20.9009 33.8207 21.0523 34.0772C21.2037 34.3367 21.386 34.5716 21.5992 34.7848C21.7414 34.9269 21.8928 35.0011 22.0535 35.0011C22.1802 35.0011 22.3131 34.9548 22.4552 34.8682L23.4162 34.2255C23.6109 34.0803 23.7098 33.9319 23.7098 33.7713C23.7098 33.6662 23.6727 33.5488 23.6047 33.4252C23.3884 33.0327 23.2246 32.6681 23.1103 32.3313C22.9929 31.9945 22.9372 31.5371 22.9372 30.9686V25.9997C22.9372 24.3249 22.5139 23.0734 21.6672 22.2453C20.8175 21.4141 19.4887 21 17.6718 21C16.8344 21 16.0433 21.0989 15.2924 21.2936C14.5446 21.4913 13.905 21.7231 13.3704 21.9888C13.1541 22.0939 13.0119 22.202 12.9409 22.3102C12.8698 22.4153 12.8327 22.5945 12.8327 22.8417V23.5895C12.8327 23.9108 12.9409 24.0715 13.1541 24.0715C13.2066 24.0715 13.287 24.0592 13.3951 24.0314C13.5033 24.0066 13.6794 23.9387 13.9297 23.8305C14.4643 23.6142 15.0112 23.4412 15.5736 23.3083C16.136 23.1754 16.6829 23.1074 17.2175 23.1074C18.3918 23.1074 19.2199 23.3423 19.7019 23.8151C20.184 24.2878 20.425 25.1005 20.425 26.2593V27.381C19.8194 27.2388 19.2353 27.1276 18.676 27.0473M20.425 29.7325C20.425 30.2486 20.3756 30.6905 20.2798 31.0551C20.1809 31.4197 20.0079 31.7473 19.7607 32.0315C19.3497 32.4951 18.8707 32.8195 18.3176 33.0049C17.7645 33.1934 17.2392 33.2861 16.7417 33.2861C16.0464 33.2861 15.5118 33.1038 15.141 32.7392C14.7671 32.3745 14.5786 31.8338 14.5786 31.1231C14.5786 30.3598 14.8289 29.7696 15.3264 29.3617C15.8239 28.9507 16.581 28.7468 17.5945 28.7468C18.058 28.7468 18.5339 28.7777 19.0252 28.8395C19.5134 28.9013 19.9801 28.9847 20.4281 29.0929V29.7356L20.425 29.7325Z" fill="#5F5F5F"/>
<path d="M28.0884 34.1947C28.178 34.4975 28.283 34.6983 28.4097 34.7941C28.5364 34.893 28.7311 34.9394 28.9969 34.9394H30.304C30.5882 34.9394 30.7922 34.8868 30.9189 34.7818C31.0425 34.6736 31.1414 34.4697 31.2124 34.1668L33.564 24.3373L35.9402 34.1668C36.0113 34.4697 36.1102 34.6736 36.2338 34.7818C36.3574 34.8868 36.5613 34.9394 36.8487 34.9394H38.1558C38.4247 34.9394 38.6193 34.8899 38.7429 34.7941C38.8696 34.6983 38.9747 34.4975 39.0643 34.1947L42.7507 22.3875C42.8064 22.2299 42.8404 22.1032 42.8589 22.0136C42.8744 21.924 42.8836 21.8467 42.8836 21.7726C42.8836 21.5254 42.76 21.3987 42.5097 21.3987H41.0945C40.8071 21.3987 40.6093 21.4481 40.495 21.5439C40.3776 21.6428 40.2756 21.8437 40.1891 22.1434L37.544 32.3746L35.1399 22.1434C35.0688 21.8437 34.97 21.6397 34.8464 21.5439C34.7228 21.4481 34.5188 21.3987 34.2345 21.3987H33.0047C32.7204 21.3987 32.5133 21.4481 32.3897 21.5439C32.2631 21.6428 32.1673 21.8437 32.0962 22.1434L29.7168 32.2417L27.1552 22.1465C27.0656 21.8467 26.9636 21.6428 26.8493 21.547C26.7318 21.4512 26.5341 21.4018 26.2467 21.4018H24.7511C24.5008 21.4018 24.3772 21.5285 24.3772 21.7757C24.3772 21.8838 24.4205 22.0878 24.5101 22.3906L28.0884 34.1977V34.1947Z" fill="#5F5F5F"/>
<path d="M50.7634 41.5922C45.1302 43.9839 39.0057 45.1396 33.4343 45.1396C25.1776 45.1396 17.1805 42.8746 10.7192 39.1109C10.1506 38.7833 9.73345 39.3642 10.2031 39.7876C16.1948 45.1983 24.1146 48.446 32.9059 48.446C39.1787 48.446 46.4682 46.4745 51.4926 42.7664C52.3239 42.1515 51.6132 41.2306 50.7634 41.5922Z" fill="#939393"/>
<path d="M47.5898 39.5034C47.148 39.8124 47.2252 40.2419 47.7165 40.1832C49.3357 39.9885 52.9418 39.5559 53.5846 40.3778C54.2273 41.2029 52.8677 44.5927 52.262 46.1099C52.0797 46.5673 52.4752 46.7557 52.8893 46.4066C55.5838 44.1508 56.2822 39.4261 55.7291 38.7432C55.1821 38.0665 50.4667 37.4855 47.5898 39.5034Z" fill="#939393"/>
<path d="M67.8051 31.7812C67.6846 31.7812 67.6228 31.7194 67.6228 31.5989V23.3546C67.6228 23.2341 67.6846 23.1723 67.8051 23.1723H68.0369C68.1667 23.1723 68.2346 23.2341 68.2439 23.3546L68.2933 23.8521C68.6642 23.5524 69.0257 23.333 69.3811 23.197C69.7333 23.0611 70.098 22.99 70.4688 22.99C71.2536 22.99 71.8716 23.2712 72.3259 23.8336C72.777 24.3991 73.0026 25.1685 73.0026 26.148C73.0026 27.1276 72.7647 27.9372 72.2857 28.5274C71.8068 29.1176 71.1671 29.4112 70.3544 29.4112C69.6097 29.4112 68.9299 29.1361 68.315 28.5861V31.5958C68.315 31.7163 68.2532 31.7781 68.1327 31.7781H67.8051V31.7812ZM70.2834 28.7839C70.9446 28.7839 71.4452 28.5676 71.782 28.1319C72.1189 27.6993 72.2888 27.0534 72.2888 26.1944C72.2888 24.4794 71.6368 23.6204 70.3328 23.6204C69.6622 23.6204 68.9886 23.8799 68.3181 24.3991V27.9557C68.6487 28.24 68.9732 28.4471 69.2883 28.583C69.6035 28.7159 69.9373 28.7839 70.2864 28.7839" fill="#5F5F5F"/>
<path d="M76.0124 29.4142C75.4531 29.4142 75.0113 29.2566 74.6837 28.9352C74.3562 28.6139 74.1924 28.1874 74.1924 27.6529C74.1924 27.0627 74.3963 26.5961 74.798 26.2562C75.2028 25.9162 75.7529 25.7463 76.4512 25.7463C76.992 25.7463 77.5729 25.839 78.1878 26.0275V25.0078C78.1878 24.5134 78.0704 24.1611 77.8356 23.9448C77.6007 23.7316 77.2114 23.6234 76.6706 23.6234C76.1299 23.6234 75.5273 23.7254 74.8969 23.9262C74.8228 23.951 74.761 23.9633 74.7146 23.9633C74.6343 23.9633 74.5941 23.9108 74.5941 23.8057V23.6111C74.5941 23.5462 74.6065 23.4967 74.6312 23.4596C74.6559 23.4226 74.6992 23.3917 74.7548 23.3669C75.3944 23.1166 76.0681 22.993 76.7819 22.993C77.4957 22.993 78.021 23.1414 78.364 23.4411C78.7101 23.7408 78.88 24.192 78.88 24.8007V29.099C78.88 29.2226 78.8182 29.2813 78.6977 29.2813H78.4412C78.3207 29.2813 78.2558 29.2195 78.2466 29.099L78.2002 28.5768C77.5018 29.1361 76.7757 29.4142 76.0155 29.4142M76.1113 28.7838C76.4172 28.7838 76.751 28.722 77.1094 28.5953C77.4648 28.4717 77.8263 28.2956 78.1909 28.07V26.5497C77.6471 26.4045 77.1218 26.3334 76.6119 26.3334C75.4779 26.3334 74.9124 26.7691 74.9124 27.6436C74.9124 28.0175 75.0143 28.2987 75.2152 28.4965C75.4191 28.688 75.7189 28.7869 76.1144 28.7869" fill="#5F5F5F"/>
<path d="M80.9318 29.2783C80.8113 29.2783 80.7495 29.2165 80.7495 29.096V23.3547C80.7495 23.2342 80.8113 23.1724 80.9318 23.1724H81.1636C81.2934 23.1724 81.3613 23.2342 81.3706 23.3547L81.4324 24.0592C81.7383 23.7193 82.0412 23.4783 82.3347 23.3361C82.6314 23.194 82.9651 23.1229 83.3359 23.1229C83.4657 23.1229 83.5707 23.126 83.6511 23.1353C83.7716 23.1415 83.8334 23.2094 83.8334 23.33V23.6328C83.8334 23.6668 83.821 23.6977 83.7963 23.7224C83.7716 23.7502 83.7376 23.7657 83.7005 23.7657C83.6356 23.7657 83.5738 23.7657 83.5182 23.7595C83.4595 23.7564 83.3761 23.7533 83.2617 23.7533C82.8909 23.7533 82.5603 23.8244 82.2729 23.9603C81.9855 24.0963 81.7074 24.3219 81.4417 24.6278V29.096C81.4417 29.2196 81.3799 29.2783 81.2594 29.2783H80.9318Z" fill="#5F5F5F"/>
<path d="M87.0499 29.3524C86.571 29.3524 86.2094 29.2227 85.9591 28.9693C85.7057 28.7159 85.5821 28.3451 85.5821 27.8599V23.781H84.6242C84.5006 23.781 84.4419 23.7192 84.4419 23.5987V23.4782C84.4419 23.4133 84.4512 23.3639 84.479 23.333C84.5037 23.299 84.5531 23.2805 84.6242 23.2712L85.6068 23.1878L85.6934 21.5871C85.6996 21.5222 85.7181 21.4759 85.7459 21.448C85.7737 21.4202 85.817 21.4048 85.8757 21.4048H86.0951C86.2187 21.4048 86.2774 21.4666 86.2774 21.5871V23.1785H88.0387C88.1592 23.1785 88.221 23.2403 88.221 23.3608V23.6049C88.221 23.7285 88.1592 23.7872 88.0387 23.7872H86.2774V27.8321C86.2774 28.1628 86.3485 28.3976 86.4906 28.5336C86.6358 28.6726 86.8676 28.7406 87.2013 28.7406C87.4362 28.7406 87.6432 28.7221 87.8224 28.6788C87.909 28.6634 87.98 28.6479 88.0356 28.6386C88.0882 28.6263 88.1253 28.6201 88.15 28.6201C88.2396 28.6201 88.2859 28.6695 88.2859 28.7653V28.9476C88.2859 29.0867 88.2396 29.1701 88.15 29.201C87.8348 29.3092 87.4733 29.3586 87.0592 29.3586" fill="#5F5F5F"/>
<path d="M89.7446 29.2783C89.6241 29.2783 89.5623 29.2165 89.5623 29.096V23.3546C89.5623 23.2341 89.6241 23.1723 89.7446 23.1723H89.9887C90.1185 23.1723 90.1864 23.2341 90.1957 23.3546L90.2452 23.8768C90.6407 23.5926 91.0578 23.3732 91.4966 23.2217C91.9323 23.0703 92.3588 22.99 92.7697 22.99C93.3599 22.99 93.8111 23.1476 94.1232 23.4597C94.4353 23.7718 94.5898 24.2322 94.5898 24.8379V29.0991C94.5898 29.2227 94.528 29.2814 94.4075 29.2814H94.0799C93.9563 29.2814 93.8945 29.2196 93.8945 29.0991V25.1314C93.8945 24.6061 93.7956 24.2229 93.5948 23.9819C93.3908 23.744 93.0695 23.6235 92.6214 23.6235C91.8118 23.6235 91.0239 23.883 90.2544 24.3991V29.096C90.2544 29.2196 90.1926 29.2783 90.0721 29.2783H89.7446Z" fill="#5F5F5F"/>
<path d="M99.0456 29.4606C98.0815 29.4606 97.3584 29.1887 96.8733 28.6417C96.3882 28.0948 96.144 27.2821 96.144 26.2068C96.144 25.187 96.3882 24.396 96.8764 23.8336C97.3677 23.2712 98.0506 22.99 98.9344 22.99C99.6698 22.99 100.235 23.2032 100.628 23.6204C101.017 24.0437 101.215 24.6463 101.215 25.4311C101.215 25.7556 101.196 25.9997 101.165 26.1604C101.141 26.2809 101.073 26.3427 100.958 26.3427H96.8424C96.8486 27.1925 97.0371 27.8198 97.3986 28.2246C97.7632 28.6294 98.3256 28.8302 99.0889 28.8302C99.6698 28.8302 100.226 28.7313 100.751 28.5274C100.856 28.4872 100.931 28.4656 100.971 28.4656C101.005 28.4656 101.033 28.478 101.054 28.5058C101.079 28.5336 101.091 28.5707 101.091 28.6108V28.7931C101.091 28.9229 101.045 29.0094 100.955 29.0496C100.371 29.3246 99.7316 29.4606 99.0364 29.4606M100.529 25.7834C100.535 25.6691 100.541 25.5362 100.541 25.3817C100.541 24.8008 100.396 24.3589 100.115 24.0592C99.8305 23.7625 99.4133 23.6111 98.8633 23.6111C97.584 23.6111 96.9073 24.3342 96.8362 25.7834H100.526H100.529Z" fill="#5F5F5F"/>
<path d="M102.93 29.2783C102.809 29.2783 102.748 29.2165 102.748 29.096V23.3547C102.748 23.2342 102.809 23.1724 102.93 23.1724H103.162C103.291 23.1724 103.359 23.2342 103.369 23.3547L103.43 24.0592C103.736 23.7193 104.039 23.4783 104.333 23.3361C104.629 23.194 104.963 23.1229 105.334 23.1229C105.464 23.1229 105.569 23.126 105.649 23.1353C105.77 23.1415 105.831 23.2094 105.831 23.33V23.6328C105.831 23.6668 105.819 23.6977 105.794 23.7224C105.77 23.7502 105.736 23.7657 105.699 23.7657C105.634 23.7657 105.572 23.7657 105.516 23.7595C105.458 23.7564 105.374 23.7533 105.26 23.7533C104.889 23.7533 104.558 23.8244 104.271 23.9603C103.984 24.0963 103.705 24.3219 103.44 24.6278V29.096C103.44 29.2196 103.378 29.2783 103.257 29.2783H102.93Z" fill="#5F5F5F"/>
<path d="M67.8051 42.7664C67.6846 42.7664 67.6228 42.7046 67.6228 42.5841V36.8428C67.6228 36.7223 67.6846 36.6605 67.8051 36.6605H68.0492C68.179 36.6605 68.247 36.7223 68.2563 36.8428L68.3057 37.365C68.7012 37.0807 69.1184 36.8613 69.5541 36.7099C69.9898 36.5585 70.4162 36.4781 70.8272 36.4781C71.4174 36.4781 71.8686 36.6357 72.1807 36.9478C72.4928 37.2599 72.6473 37.7204 72.6473 38.326V42.5872C72.6473 42.7108 72.5855 42.7695 72.4649 42.7695H72.1374C72.0138 42.7695 71.952 42.7077 71.952 42.5872V38.6196C71.952 38.0943 71.8531 37.7111 71.6492 37.4701C71.4483 37.2321 71.1239 37.1116 70.6789 37.1116C69.8693 37.1116 69.0813 37.3712 68.3119 37.8872V42.5841C68.3119 42.7077 68.2501 42.7664 68.1296 42.7664H67.802H67.8051Z" fill="#5F5F5F"/>
<path d="M77.1062 42.9488C76.1421 42.9488 75.419 42.6768 74.9338 42.1299C74.4487 41.5829 74.2046 40.7703 74.2046 39.6949C74.2046 38.6752 74.4487 37.8841 74.9369 37.3217C75.4283 36.7593 76.1112 36.4781 76.9949 36.4781C77.7304 36.4781 78.2958 36.6914 78.6883 37.1085C79.0776 37.5319 79.2754 38.1344 79.2754 38.9193C79.2754 39.2438 79.2569 39.4879 79.226 39.6486C79.2012 39.7691 79.1333 39.8309 79.0189 39.8309H74.9029C74.9091 40.6806 75.0945 41.3079 75.4592 41.7127C75.8238 42.1175 76.3862 42.3184 77.1463 42.3184C77.7304 42.3184 78.2835 42.2195 78.8088 42.0156C78.9139 41.9754 78.988 41.9538 79.0282 41.9538C79.0622 41.9538 79.09 41.9661 79.1116 41.9939C79.1363 42.0217 79.1487 42.0588 79.1487 42.099V42.2813C79.1487 42.4111 79.1023 42.4976 79.0127 42.5378C78.4287 42.8128 77.7891 42.9488 77.0938 42.9488M78.5863 39.2716C78.5925 39.1572 78.5987 39.0244 78.5987 38.8699C78.5987 38.2889 78.4534 37.847 78.1722 37.5473C77.888 37.2507 77.4708 37.0993 76.9208 37.0993C75.6415 37.0993 74.9647 37.8223 74.8937 39.2716H78.5832H78.5863Z" fill="#5F5F5F"/>
<path d="M82.6901 42.8406C82.2111 42.8406 81.8496 42.7108 81.5993 42.4574C81.3459 42.204 81.2223 41.8332 81.2223 41.3481V37.2692H80.2643C80.1438 37.2692 80.082 37.2074 80.082 37.0869V36.9664C80.082 36.9015 80.0913 36.852 80.1191 36.8211C80.1438 36.7872 80.1933 36.7686 80.2643 36.7593L81.247 36.6759L81.3335 35.0753C81.3397 35.0104 81.3582 34.964 81.386 34.9362C81.4139 34.9084 81.4571 34.8929 81.5158 34.8929H81.7352C81.8588 34.8929 81.9175 34.9547 81.9175 35.0753V36.6666H83.6789C83.7994 36.6666 83.8612 36.7284 83.8612 36.849V37.0931C83.8612 37.2167 83.7994 37.2754 83.6789 37.2754H81.9175V41.3203C81.9175 41.6509 81.9886 41.8858 82.1307 42.0217C82.276 42.1608 82.5077 42.2288 82.8446 42.2288C83.0763 42.2288 83.2833 42.2102 83.4626 42.167C83.5491 42.1515 83.6202 42.1361 83.6758 42.1268C83.7283 42.1144 83.7654 42.1083 83.7901 42.1083C83.8797 42.1083 83.9261 42.1577 83.9261 42.2535V42.4358C83.9261 42.5749 83.8797 42.6583 83.7901 42.6892C83.4749 42.7973 83.1134 42.8468 82.6993 42.8468" fill="#5F5F5F"/>
<path d="M86.6483 42.7664C86.5339 42.7664 86.4567 42.7108 86.4165 42.5965L84.4852 36.9509C84.4512 36.8613 84.4358 36.8026 84.4358 36.7686C84.4358 36.6975 84.4852 36.6604 84.581 36.6604H84.9704C85.0754 36.6604 85.1434 36.713 85.1774 36.818L86.8399 41.9661L88.3107 36.8273C88.3509 36.7161 88.4282 36.6573 88.5394 36.6573H88.9875C89.1018 36.6573 89.179 36.7161 89.2161 36.8273L90.6746 42.0001L92.3742 36.818C92.4051 36.713 92.4731 36.6604 92.5812 36.6604H92.9458C93.0416 36.6604 93.0911 36.6975 93.0911 36.7686C93.0911 36.8026 93.0756 36.8613 93.0416 36.9509L91.064 42.5965C91.0207 42.7108 90.9466 42.7664 90.8322 42.7664H90.4336C90.3193 42.7664 90.242 42.7108 90.2019 42.5965L88.7341 37.436L87.2787 42.5965C87.2385 42.7108 87.1612 42.7664 87.05 42.7664H86.6483Z" fill="#5F5F5F"/>
<path d="M96.725 42.9488C95.835 42.9488 95.1429 42.6645 94.6484 42.0928C94.154 41.5211 93.9099 40.727 93.9099 39.7073C93.9099 38.6875 94.154 37.8934 94.6484 37.3279C95.1429 36.7593 95.835 36.4781 96.725 36.4781C97.6149 36.4781 98.3071 36.7624 98.8015 37.3279C99.2959 37.8934 99.54 38.6875 99.54 39.7073C99.54 40.727 99.2959 41.5211 98.8015 42.0928C98.3071 42.6645 97.6149 42.9488 96.725 42.9488ZM96.725 42.3184C98.1248 42.3184 98.8262 41.447 98.8262 39.7073C98.8262 37.9676 98.1248 37.1085 96.725 37.1085C95.3252 37.1085 94.6237 37.9768 94.6237 39.7073C94.6237 41.4377 95.3252 42.3184 96.725 42.3184Z" fill="#5F5F5F"/>
<path d="M101.301 42.7665C101.181 42.7665 101.119 42.7047 101.119 42.5842V36.8428C101.119 36.7223 101.181 36.6605 101.301 36.6605H101.533C101.663 36.6605 101.731 36.7223 101.74 36.8428L101.802 37.5474C102.108 37.2075 102.411 36.9664 102.707 36.8243C103.004 36.6822 103.338 36.6111 103.709 36.6111C103.838 36.6111 103.943 36.6142 104.024 36.6234C104.144 36.6296 104.206 36.6976 104.206 36.8181V37.1209C104.206 37.1549 104.194 37.1858 104.169 37.2106C104.144 37.2384 104.11 37.2538 104.073 37.2538C104.008 37.2538 103.947 37.2538 103.891 37.2476C103.832 37.2445 103.749 37.2415 103.634 37.2415C103.264 37.2415 102.933 37.3125 102.646 37.4485C102.358 37.5845 102.08 37.81 101.814 38.1159V42.5842C101.814 42.7078 101.753 42.7665 101.632 42.7665H101.305H101.301Z" fill="#5F5F5F"/>
<path d="M105.479 42.7664C105.359 42.7664 105.297 42.7046 105.297 42.5841V33.9659C105.297 33.8423 105.359 33.7836 105.479 33.7836H105.807C105.927 33.7836 105.989 33.8454 105.989 33.9659V39.3828L108.903 36.784C108.983 36.7037 109.085 36.6604 109.206 36.6604H109.642C109.737 36.6604 109.787 36.6975 109.787 36.7686C109.787 36.8118 109.74 36.8705 109.651 36.9509L106.712 39.5496L109.892 42.4883C109.966 42.5532 110 42.6057 110 42.6459C110 42.7262 109.954 42.7664 109.855 42.7664H109.333C109.234 42.7664 109.147 42.7293 109.064 42.6582L105.98 39.7814V42.5841C105.98 42.7077 105.918 42.7664 105.797 42.7664H105.47H105.479Z" fill="#5F5F5F"/>
</svg>
