<svg xmlns="http://www.w3.org/2000/svg" width="35.974" height="47" viewBox="0 0 35.974 47">
  <path id="drupal-3" d="M25.388,10.011C22.081,6.706,18.926,3.554,17.986,0c-.939,3.554-4.1,6.706-7.4,10.011C5.624,14.969,0,20.587,0,29.013a17.987,17.987,0,1,0,35.974,0c0-8.426-5.624-14.044-10.585-19M7.645,33.2c-1.1-.037-5.173-7.053,2.378-14.523l5,5.458a.427.427,0,0,1-.033.638C13.794,26,8.712,31.1,8.08,32.858c-.13.364-.321.35-.435.346m10.342,9.246A6.186,6.186,0,0,1,11.8,36.265a6.446,6.446,0,0,1,1.542-4.086c1.116-1.364,4.644-5.2,4.644-5.2s3.474,3.893,4.635,5.187a6.05,6.05,0,0,1,1.552,4.1,6.186,6.186,0,0,1-6.186,6.186m11.84-10.032c-.133.292-.436.778-.844.793-.728.027-.805-.346-1.343-1.142-1.181-1.747-11.485-12.517-13.413-14.6-1.7-1.832-.239-3.123.437-3.8.848-.849,3.322-3.322,3.322-3.322s7.378,7,10.451,11.783,2.014,8.922,1.39,10.288" fill="#009cde"/>
</svg>
