<svg xmlns="http://www.w3.org/2000/svg" width="162.22" height="46" viewBox="0 0 162.22 46">
  <g id="HubSpot_Logo" transform="translate(0 0.002)">
    <path id="Path_4403" data-name="Path 4403" d="M17.569,4.974v12.97H5.653V4.974H0V35.935H5.655V23.386H17.567V35.935h5.656V4.974ZM41.323,25.928a4.679,4.679,0,0,1-9.358,0V12.666H26.6V25.928a10.033,10.033,0,1,0,20.066,0V12.666H41.323Zm39.745-11.9c0-2.719,1.8-3.581,3.768-3.581,1.589,0,3.685,1.209,5.058,2.675l3.512-4.141a11.064,11.064,0,0,0-8.223-4.011c-5.82,0-10.029,3.408-10.029,9.058,0,10.483,12.812,7.156,12.812,13.024A3.7,3.7,0,0,1,84.2,30.462c-3.172,0-4.2-1.55-5.658-3.191l-3.9,4.054A11.511,11.511,0,0,0,83.9,35.941c5.529,0,9.977-3.449,9.977-8.843,0-11.637-12.814-8.021-12.814-13.066m79.273,16.957c-3.169,0-4.071-1.371-4.071-3.471v-9.3h4.928V13.51h-4.928V7.3l-5.439,2.441V28.673c0,4.844,3.342,7.285,7.924,7.285a11.194,11.194,0,0,0,2.146-.171L162.22,30.9c-.6.041-1.286.083-1.887.083M61.742,12.82a8.24,8.24,0,0,0-6.305,2.53V5.159H50.065V24.049c0,7.07,5.111,11.916,10.856,11.916A11.771,11.771,0,0,0,72.9,24.394a11.368,11.368,0,0,0-11.158-11.57m-.034,17.732a6.1,6.1,0,1,1,6.1-6.1,6.1,6.1,0,0,1-6.1,6.1m58.372-6.444A11.756,11.756,0,0,0,108.1,12.543c-5.743,0-10.856,4.844-10.856,11.916v18.9h5.372v-10.2a8.245,8.245,0,0,0,6.3,2.53,11.37,11.37,0,0,0,11.16-11.571m-5.085-.067a6.1,6.1,0,1,1-6.1-6.1,6.1,6.1,0,0,1,6.1,6.1" transform="translate(0 2.639)" fill="#33475b"/>
    <path id="Path_4404" data-name="Path 4404" d="M101.327,14.922v-5.4a4.156,4.156,0,0,0,2.4-3.746V5.654A4.157,4.157,0,0,0,99.567,1.5h-.124a4.157,4.157,0,0,0-4.156,4.157v.124a4.156,4.156,0,0,0,2.4,3.746v5.4a11.77,11.77,0,0,0-5.6,2.464l-14.8-11.53A4.635,4.635,0,0,0,77.45,4.69a4.683,4.683,0,1,0-4.689,4.674,4.632,4.632,0,0,0,2.306-.627L89.644,20.08a11.807,11.807,0,0,0,.181,13.3l-4.434,4.435a3.808,3.808,0,0,0-1.108-.181,3.846,3.846,0,1,0,3.849,3.849,3.8,3.8,0,0,0-.181-1.108l4.386-4.388a11.827,11.827,0,1,0,8.989-21.064M99.509,32.675a12.663,12.663,0,1,1,.006,0" transform="translate(36.11 0)" fill="#ff7a59"/>
  </g>
</svg>
