<svg xmlns="http://www.w3.org/2000/svg" width="46.671" height="47" viewBox="0 0 46.671 47">
  <g id="joomla-seeklogo.com" transform="translate(-0.663 -0.747)">
    <path id="Path_4405" data-name="Path 4405" d="M108.991,8.036a6.166,6.166,0,0,0-12.27-.872l-.062-.033c-5.043-2.274-9.291,1.754-9.291,1.754L76.133,20.176l4.44,4.275,9.044-8.885c4.223-4.223,6.522-1.365,6.522-1.365,3.179,2.686.109,5.865.109,5.865l4.549,4.385c3.715-4.012,3.93-7.514,2.8-10.3a6.166,6.166,0,0,0,5.393-6.116" transform="translate(-61.657 -0.917)" fill="#f9ae41"/>
    <path id="Path_4406" data-name="Path 4406" d="M149.345,98.6l.033-.062c2.275-5.043-1.754-9.291-1.754-9.291L136.333,78.011l-4.275,4.44,8.885,9.043c4.223,4.223,1.365,6.523,1.365,6.523-2.685,3.179-5.865.11-5.865.11l-4.385,4.549c4.012,3.715,7.514,3.93,10.3,2.8a6.166,6.166,0,1,0,6.988-6.877" transform="translate(-107.347 -63.123)" fill="#ee4035"/>
    <path id="Path_4407" data-name="Path 4407" d="M29.083,133.04l-9.044,8.885c-4.223,4.223-6.523,1.365-6.523,1.365-3.179-2.686-.11-5.865-.11-5.865L8.858,133.04c-3.715,4.012-3.93,7.514-2.8,10.3a6.165,6.165,0,1,0,6.877,6.988l.063.033c5.043,2.275,9.29-1.754,9.29-1.754l11.236-11.291-4.44-4.275" transform="translate(0 -108.081)" fill="#4f91cd"/>
    <path id="Path_4408" data-name="Path 4408" d="M14.585,20.123C10.362,15.9,13.22,13.6,13.22,13.6c2.686-3.179,5.865-.11,5.865-.11l4.385-4.549c-4.012-3.715-7.514-3.93-10.3-2.8a6.166,6.166,0,1,0-6.988,6.877l-.033.063C3.874,18.122,7.9,22.37,7.9,22.37L19.194,33.606l4.275-4.44-8.885-9.044" transform="translate(-0.183 0)" fill="#7ac043"/>
  </g>
</svg>
