<svg id="Wordpress-Logo" xmlns="http://www.w3.org/2000/svg" width="47.002" height="47" viewBox="0 0 47.002 47">
  <path id="Path_4398" data-name="Path 4398" d="M8.708,48.076A20.163,20.163,0,0,0,20.07,66.22L10.453,39.872a20.083,20.083,0,0,0-1.745,8.2Z" transform="translate(-5.368 -24.577)" fill="#464342"/>
  <path id="Path_4399" data-name="Path 4399" d="M47.805,27.85a10.614,10.614,0,0,0-1.663-5.56c-1.022-1.661-1.98-3.067-1.98-4.728a3.491,3.491,0,0,1,3.385-3.578c.089,0,.174.011.261.016a20.155,20.155,0,0,0-30.458,3.795c.473.014.919.024,1.3.024,2.109,0,5.373-.256,5.373-.256a.833.833,0,0,1,.129,1.661s-1.092.129-2.307.192l7.341,21.837L33.6,28.021l-3.141-8.606c-1.086-.064-2.114-.192-2.114-.192a.833.833,0,0,1,.127-1.661s3.329.256,5.31.256c2.108,0,5.373-.256,5.373-.256a.833.833,0,0,1,.129,1.661s-1.094.129-2.307.192L44.26,41.086l2.011-6.72C47.142,31.578,47.805,29.576,47.805,27.85Z" transform="translate(-10.696 -5.368)" fill="#464342"/>
  <path id="Path_4400" data-name="Path 4400" d="M52.465,65.857,46.416,83.433a20.169,20.169,0,0,0,12.39-.321,1.769,1.769,0,0,1-.143-.278Z" transform="translate(-28.611 -40.594)" fill="#464342"/>
  <path id="Path_4401" data-name="Path 4401" d="M95.236,36.046a15.468,15.468,0,0,1,.136,2.073,19.017,19.017,0,0,1-1.533,7.221l-6.158,17.8a20.163,20.163,0,0,0,7.555-27.1Z" transform="translate(-54.046 -22.219)" fill="#464342"/>
  <path id="Path_4402" data-name="Path 4402" d="M23.5,0A23.5,23.5,0,1,0,47,23.5,23.527,23.527,0,0,0,23.5,0Zm0,45.923A22.423,22.423,0,1,1,45.922,23.5,22.449,22.449,0,0,1,23.5,45.923Z" fill="#464342"/>
</svg>
