<?xml version="1.0" encoding="utf-8"?>
<!-- Generator: Adobe Illustrator 26.0.1, SVG Export Plug-In . SVG Version: 6.00 Build 0)  -->
<svg version="1.1" id="Layer_1" xmlns="http://www.w3.org/2000/svg" xmlns:xlink="http://www.w3.org/1999/xlink" x="0px" y="0px"
	 viewBox="0 0 100 100" enable-background="new 0 0 100 100" xml:space="preserve">
<image display="none" overflow="visible" width="512" height="512" xlink:href="../../Images/user-experience.png"  transform="matrix(0.1851 0 0 0.1851 2.617 2.617)">
</image>
<g display="none">
	
		<circle display="inline" fill="none" stroke="#FF6C1A" stroke-width="3" stroke-linecap="round" stroke-linejoin="round" stroke-miterlimit="10" cx="18.426" cy="18.489" r="4.723"/>
	
		<circle display="inline" fill="none" stroke="#FF6C1A" stroke-width="3" stroke-linecap="round" stroke-linejoin="round" stroke-miterlimit="10" cx="18.426" cy="18.489" r="12.255"/>
	
		<circle display="inline" fill="none" stroke="#FF6C1A" stroke-width="3" stroke-linecap="round" stroke-linejoin="round" stroke-miterlimit="10" cx="81.38" cy="18.489" r="4.723"/>
	
		<circle display="inline" fill="none" stroke="#FF6C1A" stroke-width="3" stroke-linecap="round" stroke-linejoin="round" stroke-miterlimit="10" cx="50" cy="47.267" r="4.723"/>
	
		<circle display="inline" fill="none" stroke="#FF6C1A" stroke-width="3" stroke-linecap="round" stroke-linejoin="round" stroke-miterlimit="10" cx="81.38" cy="18.489" r="12.255"/>
	
		<circle display="inline" fill="none" stroke="#FF6C1A" stroke-width="3" stroke-linecap="round" stroke-linejoin="round" stroke-miterlimit="10" cx="18.426" cy="81.34" r="4.723"/>
	
		<circle display="inline" fill="none" stroke="#FF6C1A" stroke-width="3" stroke-linecap="round" stroke-linejoin="round" stroke-miterlimit="10" cx="18.426" cy="81.34" r="12.255"/>
	
		<circle display="inline" fill="none" stroke="#FF6C1A" stroke-width="3" stroke-linecap="round" stroke-linejoin="round" stroke-miterlimit="10" cx="50" cy="50" r="20.915"/>
	
		<path display="inline" fill="none" stroke="#FF6C1A" stroke-width="3" stroke-linecap="round" stroke-linejoin="round" stroke-miterlimit="10" d="
		M89.678,70.769C92.935,64.56,94.787,57.498,94.787,50c0-7.46-1.834-14.488-5.06-20.674"/>
	
		<path display="inline" fill="none" stroke="#FF6C1A" stroke-width="3" stroke-linecap="round" stroke-linejoin="round" stroke-miterlimit="10" d="
		M28.526,89.309C34.902,92.8,42.218,94.787,50,94.787c8.124,0,15.232-2.021,21.801-5.802"/>
	
		<path display="inline" fill="none" stroke="#FF6C1A" stroke-width="3" stroke-linecap="round" stroke-linejoin="round" stroke-miterlimit="10" d="
		M10.963,28.052C7.308,34.539,5.213,42.023,5.213,50c0,7.582,1.891,14.719,5.216,20.979"/>
	
		<path display="inline" fill="none" stroke="#FF6C1A" stroke-width="3" stroke-linecap="round" stroke-linejoin="round" stroke-miterlimit="10" d="
		M71.132,10.507C64.836,7.132,57.643,5.213,50,5.213c-7.787,0-15.107,1.99-21.486,5.485"/>
	
		<circle display="inline" fill="none" stroke="#FF6C1A" stroke-width="3" stroke-linecap="round" stroke-linejoin="round" stroke-miterlimit="10" cx="81.38" cy="81.34" r="4.723"/>
	
		<circle display="inline" fill="none" stroke="#FF6C1A" stroke-width="3" stroke-linecap="round" stroke-linejoin="round" stroke-miterlimit="10" cx="81.38" cy="81.34" r="12.255"/>
	
		<path display="inline" fill="none" stroke="#FF6C1A" stroke-width="3" stroke-linecap="round" stroke-linejoin="round" stroke-miterlimit="10" d="
		M38.979,66.489c0,0,0.128-7.596,6.766-9.255c0,0,4.191,2.149,8.404,0c0,0,6.851,2.106,7.149,9.255"/>
</g>
<image display="none" overflow="visible" width="512" height="512" xlink:href="../../Images/maximize.png"  transform="matrix(0.1921 0 0 0.1921 0.8298 0.8298)">
</image>
<g display="none">
	
		<path display="inline" fill="none" stroke="#FF6C1A" stroke-width="3" stroke-linecap="round" stroke-linejoin="round" stroke-miterlimit="10" d="
		M89.17,97.128H10.83c-4.395,0-7.957-3.563-7.957-7.957V10.83c0-4.395,3.563-7.957,7.957-7.957h78.34
		c4.395,0,7.957,3.563,7.957,7.957v78.34C97.128,93.565,93.565,97.128,89.17,97.128z"/>
	
		<polyline display="inline" fill="none" stroke="#FF6C1A" stroke-width="3" stroke-linecap="round" stroke-linejoin="round" stroke-miterlimit="10" points="
		51.521,19.17 80.787,19.17 80.787,48.489 	"/>
	
		<line display="inline" fill="none" stroke="#FF6C1A" stroke-width="3" stroke-linecap="round" stroke-linejoin="round" stroke-miterlimit="10" x1="43.463" y1="56.644" x2="79.255" y2="20.851"/>
	
		<polyline display="inline" fill="none" stroke="#FF6C1A" stroke-width="3" stroke-linecap="round" stroke-linejoin="round" stroke-miterlimit="10" points="
		4.351,64.383 35.468,64.383 35.468,96.138 	"/>
</g>
<image display="none" overflow="visible" width="512" height="512" xlink:href="../../Images/cross-platform.png"  transform="matrix(0.1821 0 0 0.1821 3.383 3.383)">
</image>
<g>
	<path fill="none" stroke="#FF6C1A" stroke-width="3" stroke-linecap="round" stroke-linejoin="round" stroke-miterlimit="10" d="
		M85.745,40.244V8.319c0-1.874-1.519-3.393-3.393-3.393H8.33c-1.874,0-3.393,1.519-3.393,3.393v55.404
		c0,1.874,1.519,3.393,3.393,3.393h53.774"/>
	<path fill="none" stroke="#FF6C1A" stroke-width="3" stroke-linecap="round" stroke-linejoin="round" stroke-miterlimit="10" d="
		M77.941,40.488V17.412c0-1.767-1.432-3.199-3.199-3.199H15.875c-1.767,0-3.199,1.432-3.199,3.199v30.931
		c0,1.767,1.432,3.199,3.199,3.199h47.21"/>
	
		<line fill="none" stroke="#FF6C1A" stroke-width="3" stroke-linecap="round" stroke-linejoin="round" stroke-miterlimit="10" x1="14.128" y1="39.074" x2="42.043" y2="39.074"/>
	
		<circle fill="none" stroke="#FF6C1A" stroke-width="3" stroke-linecap="round" stroke-linejoin="round" stroke-miterlimit="10" cx="22.755" cy="25.925" r="3.872"/>
	
		<polyline fill="none" stroke="#FF6C1A" stroke-width="3" stroke-linecap="round" stroke-linejoin="round" stroke-miterlimit="10" points="
		26.878,38.644 41.319,24.542 55.66,39.202 	"/>
	
		<polyline fill="none" stroke="#FF6C1A" stroke-width="3" stroke-linecap="round" stroke-linejoin="round" stroke-miterlimit="10" points="
		50.409,31.6 62.211,20.138 77.191,34.798 	"/>
	
		<line fill="none" stroke="#FF6C1A" stroke-width="3" stroke-linecap="round" stroke-linejoin="round" stroke-miterlimit="10" x1="6.213" y1="59.282" x2="61.957" y2="59.282"/>
	<path fill="none" stroke="#FF6C1A" stroke-width="3" stroke-linecap="round" stroke-linejoin="round" stroke-miterlimit="10" d="
		M90.452,95.074h-21.84c-2.547,0-4.612-2.065-4.612-4.612V46.835c0-2.547,2.065-4.612,4.612-4.612h21.84
		c2.547,0,4.612,2.065,4.612,4.612v43.628C95.064,93.01,92.999,95.074,90.452,95.074z"/>
	
		<polyline fill="none" stroke="#FF6C1A" stroke-width="3" stroke-linecap="round" stroke-linejoin="round" stroke-miterlimit="10" points="
		70.681,43.585 73.787,48.394 85.106,48.394 88.298,43.372 	"/>
	
		<line fill="none" stroke="#FF6C1A" stroke-width="3" stroke-linecap="round" stroke-linejoin="round" stroke-miterlimit="10" x1="65.362" y1="54.638" x2="93.489" y2="54.638"/>
	
		<circle fill="none" stroke="#FF6C1A" stroke-width="3" stroke-linecap="round" stroke-linejoin="round" stroke-miterlimit="10" cx="71.761" cy="62.394" r="0.16"/>
	
		<line fill="none" stroke="#FF6C1A" stroke-width="3" stroke-linecap="round" stroke-linejoin="round" stroke-miterlimit="10" x1="65.489" y1="73.276" x2="78.037" y2="73.276"/>
	
		<line fill="none" stroke="#FF6C1A" stroke-width="3" stroke-linecap="round" stroke-linejoin="round" stroke-miterlimit="10" x1="65.489" y1="81.074" x2="93.532" y2="81.074"/>
	<path fill="none" stroke="#FF6C1A" stroke-width="3" stroke-linecap="round" stroke-linejoin="round" stroke-miterlimit="10" d="
		M64.003,85.311c0,0,0.125,3.402,3.827,3.529h23.319c0,0,3.66-0.553,3.915-3.149"/>
	
		<polyline fill="none" stroke="#FF6C1A" stroke-width="3" stroke-linecap="round" stroke-linejoin="round" stroke-miterlimit="10" points="
		73.479,72.808 81.181,66 89.255,73.628 	"/>
	
		<polyline fill="none" stroke="#FF6C1A" stroke-width="3" stroke-linecap="round" stroke-linejoin="round" stroke-miterlimit="10" points="
		85.745,68.298 90.312,63.856 94.872,67.969 	"/>
	
		<line fill="none" stroke="#FF6C1A" stroke-width="3" stroke-linecap="round" stroke-linejoin="round" stroke-miterlimit="10" x1="34.426" y1="68.649" x2="31.809" y2="75.032"/>
	
		<line fill="none" stroke="#FF6C1A" stroke-width="3" stroke-linecap="round" stroke-linejoin="round" stroke-miterlimit="10" x1="56.087" y1="68.649" x2="58.704" y2="75.032"/>
	<path fill="none" stroke="#FF6C1A" stroke-width="3" stroke-linecap="round" stroke-linejoin="round" stroke-miterlimit="10" d="
		M63.755,82.564H26.774c-1.688,0-3.056-1.368-3.056-3.056v0c0-1.688,1.368-3.056,3.056-3.056h36.981V82.564z"/>
</g>
</svg>
