<?xml version="1.0" encoding="utf-8"?>
<!-- Generator: Adobe Illustrator 26.0.1, SVG Export Plug-In . SVG Version: 6.00 Build 0)  -->
<svg version="1.1" id="Layer_1" xmlns="http://www.w3.org/2000/svg" xmlns:xlink="http://www.w3.org/1999/xlink" x="0px" y="0px"
	 viewBox="0 0 100 100" enable-background="new 0 0 100 100" xml:space="preserve">
<image display="none" overflow="visible" width="512" height="512" xlink:href="../../Images/user-experience.png"  transform="matrix(0.1851 0 0 0.1851 2.617 2.617)">
</image>
<g display="none">
	
		<circle display="inline" fill="none" stroke="#FF6C1A" stroke-width="3" stroke-linecap="round" stroke-linejoin="round" stroke-miterlimit="10" cx="18.426" cy="18.489" r="4.723"/>
	
		<circle display="inline" fill="none" stroke="#FF6C1A" stroke-width="3" stroke-linecap="round" stroke-linejoin="round" stroke-miterlimit="10" cx="18.426" cy="18.489" r="12.255"/>
	
		<circle display="inline" fill="none" stroke="#FF6C1A" stroke-width="3" stroke-linecap="round" stroke-linejoin="round" stroke-miterlimit="10" cx="81.38" cy="18.489" r="4.723"/>
	
		<circle display="inline" fill="none" stroke="#FF6C1A" stroke-width="3" stroke-linecap="round" stroke-linejoin="round" stroke-miterlimit="10" cx="50" cy="47.267" r="4.723"/>
	
		<circle display="inline" fill="none" stroke="#FF6C1A" stroke-width="3" stroke-linecap="round" stroke-linejoin="round" stroke-miterlimit="10" cx="81.38" cy="18.489" r="12.255"/>
	
		<circle display="inline" fill="none" stroke="#FF6C1A" stroke-width="3" stroke-linecap="round" stroke-linejoin="round" stroke-miterlimit="10" cx="18.426" cy="81.34" r="4.723"/>
	
		<circle display="inline" fill="none" stroke="#FF6C1A" stroke-width="3" stroke-linecap="round" stroke-linejoin="round" stroke-miterlimit="10" cx="18.426" cy="81.34" r="12.255"/>
	
		<circle display="inline" fill="none" stroke="#FF6C1A" stroke-width="3" stroke-linecap="round" stroke-linejoin="round" stroke-miterlimit="10" cx="50" cy="50" r="20.915"/>
	
		<path display="inline" fill="none" stroke="#FF6C1A" stroke-width="3" stroke-linecap="round" stroke-linejoin="round" stroke-miterlimit="10" d="
		M89.678,70.769C92.935,64.56,94.787,57.498,94.787,50c0-7.46-1.834-14.488-5.06-20.674"/>
	
		<path display="inline" fill="none" stroke="#FF6C1A" stroke-width="3" stroke-linecap="round" stroke-linejoin="round" stroke-miterlimit="10" d="
		M28.526,89.309C34.902,92.8,42.218,94.787,50,94.787c8.124,0,15.232-2.021,21.801-5.802"/>
	
		<path display="inline" fill="none" stroke="#FF6C1A" stroke-width="3" stroke-linecap="round" stroke-linejoin="round" stroke-miterlimit="10" d="
		M10.963,28.052C7.308,34.539,5.213,42.023,5.213,50c0,7.582,1.891,14.719,5.216,20.979"/>
	
		<path display="inline" fill="none" stroke="#FF6C1A" stroke-width="3" stroke-linecap="round" stroke-linejoin="round" stroke-miterlimit="10" d="
		M71.132,10.507C64.836,7.132,57.643,5.213,50,5.213c-7.787,0-15.107,1.99-21.486,5.485"/>
	
		<circle display="inline" fill="none" stroke="#FF6C1A" stroke-width="3" stroke-linecap="round" stroke-linejoin="round" stroke-miterlimit="10" cx="81.38" cy="81.34" r="4.723"/>
	
		<circle display="inline" fill="none" stroke="#FF6C1A" stroke-width="3" stroke-linecap="round" stroke-linejoin="round" stroke-miterlimit="10" cx="81.38" cy="81.34" r="12.255"/>
	
		<path display="inline" fill="none" stroke="#FF6C1A" stroke-width="3" stroke-linecap="round" stroke-linejoin="round" stroke-miterlimit="10" d="
		M38.979,66.489c0,0,0.128-7.596,6.766-9.255c0,0,4.191,2.149,8.404,0c0,0,6.851,2.106,7.149,9.255"/>
</g>
<image display="none" overflow="visible" width="512" height="512" xlink:href="../../Images/maximize.png"  transform="matrix(0.1921 0 0 0.1921 0.8298 0.8298)">
</image>
<g display="none">
	
		<path display="inline" fill="none" stroke="#FF6C1A" stroke-width="3" stroke-linecap="round" stroke-linejoin="round" stroke-miterlimit="10" d="
		M89.17,97.128H10.83c-4.395,0-7.957-3.563-7.957-7.957V10.83c0-4.395,3.563-7.957,7.957-7.957h78.34
		c4.395,0,7.957,3.563,7.957,7.957v78.34C97.128,93.565,93.565,97.128,89.17,97.128z"/>
	
		<polyline display="inline" fill="none" stroke="#FF6C1A" stroke-width="3" stroke-linecap="round" stroke-linejoin="round" stroke-miterlimit="10" points="
		51.521,19.17 80.787,19.17 80.787,48.489 	"/>
	
		<line display="inline" fill="none" stroke="#FF6C1A" stroke-width="3" stroke-linecap="round" stroke-linejoin="round" stroke-miterlimit="10" x1="43.463" y1="56.644" x2="79.255" y2="20.851"/>
	
		<polyline display="inline" fill="none" stroke="#FF6C1A" stroke-width="3" stroke-linecap="round" stroke-linejoin="round" stroke-miterlimit="10" points="
		4.351,64.383 35.468,64.383 35.468,96.138 	"/>
</g>
<image display="none" overflow="visible" width="512" height="512" xlink:href="../../Images/cross-platform.png"  transform="matrix(0.1821 0 0 0.1821 3.383 3.383)">
</image>
<g display="none">
	
		<path display="inline" fill="none" stroke="#FF6C1A" stroke-width="3" stroke-linecap="round" stroke-linejoin="round" stroke-miterlimit="10" d="
		M85.745,40.244V8.319c0-1.874-1.519-3.393-3.393-3.393H8.33c-1.874,0-3.393,1.519-3.393,3.393v55.404
		c0,1.874,1.519,3.393,3.393,3.393h53.774"/>
	
		<path display="inline" fill="none" stroke="#FF6C1A" stroke-width="3" stroke-linecap="round" stroke-linejoin="round" stroke-miterlimit="10" d="
		M77.941,40.488V17.412c0-1.767-1.432-3.199-3.199-3.199H15.875c-1.767,0-3.199,1.432-3.199,3.199v30.931
		c0,1.767,1.432,3.199,3.199,3.199h47.21"/>
	
		<line display="inline" fill="none" stroke="#FF6C1A" stroke-width="3" stroke-linecap="round" stroke-linejoin="round" stroke-miterlimit="10" x1="14.128" y1="39.074" x2="42.043" y2="39.074"/>
	
		<circle display="inline" fill="none" stroke="#FF6C1A" stroke-width="3" stroke-linecap="round" stroke-linejoin="round" stroke-miterlimit="10" cx="22.755" cy="25.925" r="3.872"/>
	
		<polyline display="inline" fill="none" stroke="#FF6C1A" stroke-width="3" stroke-linecap="round" stroke-linejoin="round" stroke-miterlimit="10" points="
		26.878,38.644 41.319,24.542 55.66,39.202 	"/>
	
		<polyline display="inline" fill="none" stroke="#FF6C1A" stroke-width="3" stroke-linecap="round" stroke-linejoin="round" stroke-miterlimit="10" points="
		50.409,31.6 62.211,20.138 77.191,34.798 	"/>
	
		<line display="inline" fill="none" stroke="#FF6C1A" stroke-width="3" stroke-linecap="round" stroke-linejoin="round" stroke-miterlimit="10" x1="6.213" y1="59.282" x2="61.957" y2="59.282"/>
	
		<path display="inline" fill="none" stroke="#FF6C1A" stroke-width="3" stroke-linecap="round" stroke-linejoin="round" stroke-miterlimit="10" d="
		M90.452,95.074h-21.84c-2.547,0-4.612-2.065-4.612-4.612V46.835c0-2.547,2.065-4.612,4.612-4.612h21.84
		c2.547,0,4.612,2.065,4.612,4.612v43.628C95.064,93.01,92.999,95.074,90.452,95.074z"/>
	
		<polyline display="inline" fill="none" stroke="#FF6C1A" stroke-width="3" stroke-linecap="round" stroke-linejoin="round" stroke-miterlimit="10" points="
		70.681,43.585 73.787,48.394 85.106,48.394 88.298,43.372 	"/>
	
		<line display="inline" fill="none" stroke="#FF6C1A" stroke-width="3" stroke-linecap="round" stroke-linejoin="round" stroke-miterlimit="10" x1="65.362" y1="54.638" x2="93.489" y2="54.638"/>
	
		<circle display="inline" fill="none" stroke="#FF6C1A" stroke-width="3" stroke-linecap="round" stroke-linejoin="round" stroke-miterlimit="10" cx="71.761" cy="62.394" r="0.16"/>
	
		<line display="inline" fill="none" stroke="#FF6C1A" stroke-width="3" stroke-linecap="round" stroke-linejoin="round" stroke-miterlimit="10" x1="65.489" y1="73.276" x2="78.037" y2="73.276"/>
	
		<line display="inline" fill="none" stroke="#FF6C1A" stroke-width="3" stroke-linecap="round" stroke-linejoin="round" stroke-miterlimit="10" x1="65.489" y1="81.074" x2="93.532" y2="81.074"/>
	
		<path display="inline" fill="none" stroke="#FF6C1A" stroke-width="3" stroke-linecap="round" stroke-linejoin="round" stroke-miterlimit="10" d="
		M64.003,85.311c0,0,0.125,3.402,3.827,3.529h23.319c0,0,3.66-0.553,3.915-3.149"/>
	
		<polyline display="inline" fill="none" stroke="#FF6C1A" stroke-width="3" stroke-linecap="round" stroke-linejoin="round" stroke-miterlimit="10" points="
		73.479,72.808 81.181,66 89.255,73.628 	"/>
	
		<polyline display="inline" fill="none" stroke="#FF6C1A" stroke-width="3" stroke-linecap="round" stroke-linejoin="round" stroke-miterlimit="10" points="
		85.745,68.298 90.312,63.856 94.872,67.969 	"/>
	
		<line display="inline" fill="none" stroke="#FF6C1A" stroke-width="3" stroke-linecap="round" stroke-linejoin="round" stroke-miterlimit="10" x1="34.426" y1="68.649" x2="31.809" y2="75.032"/>
	
		<line display="inline" fill="none" stroke="#FF6C1A" stroke-width="3" stroke-linecap="round" stroke-linejoin="round" stroke-miterlimit="10" x1="56.087" y1="68.649" x2="58.704" y2="75.032"/>
	
		<path display="inline" fill="none" stroke="#FF6C1A" stroke-width="3" stroke-linecap="round" stroke-linejoin="round" stroke-miterlimit="10" d="
		M63.755,82.564H26.774c-1.688,0-3.056-1.368-3.056-3.056v0c0-1.688,1.368-3.056,3.056-3.056h36.981V82.564z"/>
</g>
<image display="none" overflow="visible" width="512" height="512" xlink:href="../../Images/ecommerce.png"  transform="matrix(0.1861 0 0 0.1861 2.3617 2.3617)">
</image>
<g display="none">
	
		<path display="inline" fill="none" stroke="#FF6C1A" stroke-width="3" stroke-linecap="round" stroke-linejoin="round" stroke-miterlimit="10" d="
		M89.702,74.234H10.298c-3.549,0-6.426-2.877-6.426-6.426V15.298c0-3.549,2.877-6.426,6.426-6.426h79.404
		c3.549,0,6.426,2.877,6.426,6.426v52.511C96.128,71.357,93.251,74.234,89.702,74.234z"/>
	
		<path display="inline" fill="none" stroke="#FF6C1A" stroke-width="3" stroke-linecap="round" stroke-linejoin="round" stroke-miterlimit="10" d="
		M88.44,59.255H11.56V18.901c0-1.261,1.022-2.284,2.284-2.284h72.312c1.261,0,2.284,1.022,2.284,2.284V59.255z"/>
	
		<path display="inline" fill="none" stroke="#FF6C1A" stroke-width="3" stroke-linecap="round" stroke-linejoin="round" stroke-miterlimit="10" d="
		M37.601,34.021H22.867c-1.348,0-2.441-1.093-2.441-2.441v-3.713c0-1.348,1.093-2.441,2.441-2.441h14.734
		c1.348,0,2.441,1.093,2.441,2.441v3.713C40.043,32.928,38.949,34.021,37.601,34.021z"/>
	
		<path display="inline" fill="none" stroke="#FF6C1A" stroke-width="3" stroke-linecap="round" stroke-linejoin="round" stroke-miterlimit="10" d="
		M37.601,46.947H22.867c-1.348,0-2.441-1.093-2.441-2.441v-3.713c0-1.348,1.093-2.441,2.441-2.441h14.734
		c1.348,0,2.441,1.093,2.441,2.441v3.713C40.043,45.854,38.949,46.947,37.601,46.947z"/>
	
		<path display="inline" fill="none" stroke="#FF6C1A" stroke-width="3" stroke-linecap="round" stroke-linejoin="round" stroke-miterlimit="10" d="
		M59.064,22.809L59.064,22.809c-2.438,0-4.415,1.977-4.415,4.415v4.755h8.83v-4.755C63.479,24.785,61.502,22.809,59.064,22.809z"/>
	
		<path display="inline" fill="none" stroke="#FF6C1A" stroke-width="3" stroke-linecap="round" stroke-linejoin="round" stroke-miterlimit="10" d="
		M71.702,54.532c0,0-6.074-13.167-6.085-13.191c-0.217-0.47-0.295-1.075-0.214-1.581c0.205-1.271,1.494-1.642,2.622-1.668
		c0.57-0.013,0.997,0.1,1.521,0.335c2.111,1.055,4.328,1.936,6.484,2.898c1.705,0.761,3.41,1.521,5.115,2.282
		c0.342,0.152,0.683,0.305,1.025,0.457l-7.138,3.394L71.702,54.532z"/>
	
		<line display="inline" fill="none" stroke="#FF6C1A" stroke-width="3" stroke-linecap="round" stroke-linejoin="round" stroke-miterlimit="10" x1="75.926" y1="48.543" x2="79.819" y2="52.34"/>
	
		<path display="inline" fill="none" stroke="#FF6C1A" stroke-width="3" stroke-linecap="round" stroke-linejoin="round" stroke-miterlimit="10" d="
		M68.314,36.894v-3.399c0-0.678-0.75-1.228-1.331-1.437c-0.658-0.236-1.404-0.079-2.085-0.079c-2.663,0-5.326,0-7.989,0
		c-1.661,0-3.322,0-4.983,0c-0.641-0.175-1.336,0.648-1.742,1.025c-0.41,0.381-0.277,1.812-0.314,2.341
		c-0.189,2.672-0.377,5.344-0.566,8.017c0,0.926-0.132,1.872-0.197,2.796c-0.064,0.913-0.021,1.846-0.413,2.688
		c-0.396,0.849-0.792,1.699-1.188,2.548c-0.023,0.049-0.046,0.099-0.05,0.153c-0.022,0.318,0.699,0.637,0.919,0.792
		c0.251,0.176,0.694,0.534,1.03,0.45h20.043"/>
	
		<circle display="inline" fill="none" stroke="#FF6C1A" stroke-width="3" stroke-linecap="round" stroke-linejoin="round" stroke-miterlimit="10" cx="50.021" cy="66.894" r="3.468"/>
	
		<line display="inline" fill="none" stroke="#FF6C1A" stroke-width="3" stroke-linecap="round" stroke-linejoin="round" stroke-miterlimit="10" x1="39.617" y1="75.809" x2="37.532" y2="84.234"/>
	
		<line display="inline" fill="none" stroke="#FF6C1A" stroke-width="3" stroke-linecap="round" stroke-linejoin="round" stroke-miterlimit="10" x1="60.45" y1="75.809" x2="62.535" y2="84.234"/>
	
		<path display="inline" fill="none" stroke="#FF6C1A" stroke-width="3" stroke-linecap="round" stroke-linejoin="round" stroke-miterlimit="10" d="
		M66.809,91.128H33.234c-0.776,0-1.404-0.629-1.404-1.404V86.83c0-0.776,0.629-1.404,1.404-1.404h33.574
		c0.776,0,1.404,0.629,1.404,1.404v2.894C68.213,90.499,67.584,91.128,66.809,91.128z"/>
	
		<line display="inline" fill="none" stroke="#FF6C1A" stroke-width="3" stroke-linecap="round" stroke-linejoin="round" stroke-miterlimit="10" x1="5.362" y1="59.255" x2="94.755" y2="59.255"/>
</g>
<image display="none" overflow="visible" width="512" height="512" xlink:href="../../Images/mobile-application.png"  transform="matrix(0.1861 0 0 0.1861 2.3617 2.3617)">
</image>
<g display="none">
	
		<path display="inline" fill="none" stroke="#FF6C1A" stroke-width="3" stroke-linecap="round" stroke-linejoin="round" stroke-miterlimit="10" d="
		M76.766,20.91v-9.815c0-3.167-2.567-5.734-5.734-5.734H28.979c-3.167,0-5.734,2.567-5.734,5.734v9.186"/>
	
		<path display="inline" fill="none" stroke="#FF6C1A" stroke-width="3" stroke-linecap="round" stroke-linejoin="round" stroke-miterlimit="10" d="
		M23.245,69.134v19.834c0,3.167,2.567,5.734,5.734,5.734h42.053c3.167,0,5.734-2.567,5.734-5.734V68.937"/>
	
		<line display="inline" fill="none" stroke="#FF6C1A" stroke-width="3" stroke-linecap="round" stroke-linejoin="round" stroke-miterlimit="10" x1="32.149" y1="87.213" x2="38.085" y2="87.213"/>
	
		<line display="inline" fill="none" stroke="#FF6C1A" stroke-width="3" stroke-linecap="round" stroke-linejoin="round" stroke-miterlimit="10" x1="61.936" y1="87.213" x2="67.872" y2="87.213"/>
	
		<line display="inline" fill="none" stroke="#FF6C1A" stroke-width="3" stroke-linecap="round" stroke-linejoin="round" stroke-miterlimit="10" x1="44.095" y1="11.298" x2="55.979" y2="11.298"/>
	
		<circle display="inline" fill="none" stroke="#FF6C1A" stroke-width="3" stroke-linecap="round" stroke-linejoin="round" stroke-miterlimit="10" cx="50" cy="87.213" r="3.053"/>
	
		<line display="inline" fill="none" stroke="#FF6C1A" stroke-width="3" stroke-linecap="round" stroke-linejoin="round" stroke-miterlimit="10" x1="24.617" y1="79.702" x2="75.489" y2="79.702"/>
	
		<line display="inline" fill="none" stroke="#FF6C1A" stroke-width="3" stroke-linecap="round" stroke-linejoin="round" stroke-miterlimit="10" x1="54.617" y1="39.234" x2="45.445" y2="60.506"/>
	
		<polyline display="inline" fill="none" stroke="#FF6C1A" stroke-width="3" stroke-linecap="round" stroke-linejoin="round" stroke-miterlimit="10" points="
		60.777,42.138 68.851,49.87 61.096,57.617 	"/>
	
		<polyline display="inline" fill="none" stroke="#FF6C1A" stroke-width="3" stroke-linecap="round" stroke-linejoin="round" stroke-miterlimit="10" points="
		39.391,42.138 31.317,49.87 39.072,57.617 	"/>
	
		<circle display="inline" fill="none" stroke="#FF6C1A" stroke-width="3" stroke-linecap="round" stroke-linejoin="round" stroke-miterlimit="10" cx="61.894" cy="11.298" r="0.128"/>
	
		<circle display="inline" fill="none" stroke="#FF6C1A" stroke-width="3" stroke-linecap="round" stroke-linejoin="round" stroke-miterlimit="10" cx="64.814" cy="27.638" r="0.128"/>
	
		<circle display="inline" fill="none" stroke="#FF6C1A" stroke-width="3" stroke-linecap="round" stroke-linejoin="round" stroke-miterlimit="10" cx="70.787" cy="27.638" r="0.128"/>
	
		<circle display="inline" fill="none" stroke="#FF6C1A" stroke-width="3" stroke-linecap="round" stroke-linejoin="round" stroke-miterlimit="10" cx="76.766" cy="27.638" r="0.128"/>
	
		<rect x="17.255" y="21.681" display="inline" fill="none" stroke="#FF6C1A" stroke-width="3" stroke-linecap="round" stroke-linejoin="round" stroke-miterlimit="10" width="65.574" height="46.213"/>
	
		<line display="inline" fill="none" stroke="#FF6C1A" stroke-width="3" stroke-linecap="round" stroke-linejoin="round" stroke-miterlimit="10" x1="18.064" y1="33.633" x2="81.553" y2="33.633"/>
</g>
<image display="none" overflow="visible" width="512" height="512" xlink:href="../../Images/payment-method.png"  transform="matrix(0.1953 0 0 0.1953 0 0)">
</image>
<g>
	<path fill="none" stroke="#FF6C1A" stroke-width="3" stroke-linecap="round" stroke-linejoin="round" stroke-miterlimit="10" d="
		M68.051,13.598H36.233c-3.008,0-5.446,2.438-5.446,5.446v17.881"/>
	<path fill="none" stroke="#FF6C1A" stroke-width="3" stroke-linecap="round" stroke-linejoin="round" stroke-miterlimit="10" d="
		M30.788,65.649v25.906c0,3.008,2.438,5.446,5.446,5.446h38.618c3.008,0,5.446-2.438,5.446-5.446V28.178"/>
	
		<circle fill="none" stroke="#FF6C1A" stroke-width="3" stroke-linecap="round" stroke-linejoin="round" stroke-miterlimit="10" cx="39.242" cy="22.077" r="0.591"/>
	
		<circle fill="none" stroke="#FF6C1A" stroke-width="3" stroke-linecap="round" stroke-linejoin="round" stroke-miterlimit="10" cx="45.347" cy="22.077" r="0.591"/>
	
		<circle fill="none" stroke="#FF6C1A" stroke-width="3" stroke-linecap="round" stroke-linejoin="round" stroke-miterlimit="10" cx="51.549" cy="22.077" r="0.591"/>
	
		<line fill="none" stroke="#FF6C1A" stroke-width="3" stroke-linecap="round" stroke-linejoin="round" stroke-miterlimit="10" x1="22.924" y1="13.598" x2="22.924" y2="21.055"/>
	
		<line fill="none" stroke="#FF6C1A" stroke-width="3" stroke-linecap="round" stroke-linejoin="round" stroke-miterlimit="10" x1="11.555" y1="17.326" x2="16.829" y2="22.6"/>
	
		<line fill="none" stroke="#FF6C1A" stroke-width="3" stroke-linecap="round" stroke-linejoin="round" stroke-miterlimit="10" x1="7.691" y1="28.956" x2="15.149" y2="28.956"/>
	
		<line fill="none" stroke="#FF6C1A" stroke-width="3" stroke-linecap="round" stroke-linejoin="round" stroke-miterlimit="10" x1="32.154" y1="82.86" x2="78.525" y2="82.86"/>
	
		<circle fill="none" stroke="#FF6C1A" stroke-width="3" stroke-linecap="round" stroke-linejoin="round" stroke-miterlimit="10" cx="54.638" cy="89.948" r="1.754"/>
	
		<circle fill="none" stroke="#FF6C1A" stroke-width="3" stroke-linecap="round" stroke-linejoin="round" stroke-miterlimit="10" cx="80.101" cy="15.208" r="12.208"/>
	
		<rect x="10.666" y="38.389" fill="none" stroke="#FF6C1A" stroke-width="3" stroke-linecap="round" stroke-linejoin="round" stroke-miterlimit="10" width="44.673" height="25.936"/>
	
		<line fill="none" stroke="#FF6C1A" stroke-width="3" stroke-linecap="round" stroke-linejoin="round" stroke-miterlimit="10" x1="12.069" y1="45.964" x2="53.715" y2="45.964"/>
	
		<line fill="none" stroke="#FF6C1A" stroke-width="3" stroke-linecap="round" stroke-linejoin="round" stroke-miterlimit="10" x1="12.069" y1="51.958" x2="53.715" y2="51.958"/>
	
		<line fill="none" stroke="#FF6C1A" stroke-width="3" stroke-linecap="round" stroke-linejoin="round" stroke-miterlimit="10" x1="16.832" y1="58.345" x2="25.951" y2="58.345"/>
	
		<line fill="none" stroke="#FF6C1A" stroke-width="3" stroke-linecap="round" stroke-linejoin="round" stroke-miterlimit="10" x1="30.874" y1="58.345" x2="35.181" y2="58.345"/>
	
		<polyline fill="none" stroke="#FF6C1A" stroke-width="3" stroke-linecap="round" stroke-linejoin="round" stroke-miterlimit="10" points="
		75.203,16.459 78.572,19.828 84.894,10.182 	"/>
</g>
</svg>
