<svg width="83" height="77" viewBox="0 0 83 77" fill="none" xmlns="http://www.w3.org/2000/svg">
<path d="M13.8038 19.1495C13.13 18.7247 12.2377 18.9463 11.8189 19.6481L9.90672 22.8432L9.03259 22.0306C8.44985 21.4765 7.5393 21.5135 6.99298 22.1045C6.44665 22.6955 6.48307 23.6189 7.06582 24.1729L9.23291 26.2045C9.50608 26.4631 9.85208 26.5923 10.2163 26.5923C10.2891 26.5923 10.3438 26.5923 10.4166 26.5923C10.8355 26.5369 11.2179 26.2784 11.4546 25.909L14.2773 21.181C14.6962 20.4977 14.4776 19.5927 13.8038 19.168V19.1495Z" fill="#FF6C1A"/>
<path d="M13.8038 30.7108C13.13 30.286 12.2377 30.5077 11.8189 31.2095L9.90672 34.4045L9.03259 33.5919C8.44985 33.0379 7.5393 33.0748 6.99298 33.6658C6.44665 34.2568 6.48307 35.1802 7.06582 35.7343L9.23291 37.7658C9.50608 38.0244 9.85208 38.1537 10.2163 38.1537C10.2891 38.1537 10.3438 38.1537 10.4166 38.1537C10.8355 38.0983 11.2179 37.8397 11.4546 37.4703L14.2773 32.7424C14.6962 32.059 14.4776 31.1541 13.8038 30.7478V30.7108Z" fill="#FF6C1A"/>
<path d="M13.8038 42.2721C13.13 41.8474 12.2377 42.069 11.8189 42.7708L9.90672 45.9659L9.03259 45.1532C8.44985 44.5992 7.5393 44.6361 6.99298 45.2271C6.44665 45.8181 6.48307 46.7415 7.06582 47.2956L9.23291 49.3271C9.50608 49.5857 9.85208 49.715 10.2163 49.715C10.2891 49.715 10.3438 49.715 10.4166 49.715C10.8355 49.6596 11.2179 49.401 11.4546 49.0316L14.2773 44.3037C14.6962 43.6204 14.4776 42.7154 13.8038 42.2906V42.2721Z" fill="#FF6C1A"/>
<path d="M13.8038 54.7938C13.13 54.3691 12.2377 54.5907 11.8189 55.2925L9.90672 58.4876L9.03259 57.6749C8.44985 57.1209 7.5393 57.1578 6.99298 57.7488C6.44665 58.3398 6.48307 59.2632 7.06582 59.8173L9.23291 61.8488C9.50608 62.1074 9.85208 62.2367 10.2163 62.2367C10.2891 62.2367 10.3438 62.2367 10.4166 62.2367C10.8355 62.1813 11.2179 61.9227 11.4546 61.5533L14.2773 56.8254C14.6962 56.1421 14.4776 55.2371 13.8038 54.8123V54.7938Z" fill="#FF6C1A"/>
<path d="M35.8754 22.7509C35.8754 21.9382 35.238 21.2919 34.4368 21.2919H17.4278C16.6265 21.2919 15.9891 21.9382 15.9891 22.7509C15.9891 23.5635 16.6265 24.2099 17.4278 24.2099H34.4368C35.238 24.2099 35.8754 23.5635 35.8754 22.7509Z" fill="#FF6C1A"/>
<path d="M32.0876 35.2726C32.0876 34.4599 31.4502 33.8135 30.6489 33.8135H17.446C16.6447 33.8135 16.0074 34.4599 16.0074 35.2726C16.0074 36.0852 16.6447 36.7316 17.446 36.7316H30.6489C31.4502 36.7316 32.0876 36.0852 32.0876 35.2726Z" fill="#FF6C1A"/>
<path d="M25.8777 45.3749H17.4278C16.6265 45.3749 15.9891 46.0213 15.9891 46.8339C15.9891 47.6465 16.6265 48.2929 17.4278 48.2929H25.8777C26.6789 48.2929 27.3163 47.6465 27.3163 46.8339C27.3163 46.0213 26.6789 45.3749 25.8777 45.3749Z" fill="#FF6C1A"/>
<path d="M25.8777 57.915H17.446C16.6447 57.915 16.0074 58.5614 16.0074 59.374C16.0074 60.1867 16.6447 60.8331 17.446 60.8331H25.8777C26.6789 60.8331 27.3163 60.1867 27.3163 59.374C27.3163 58.5614 26.6789 57.915 25.8777 57.915Z" fill="#FF6C1A"/>
<path d="M42.1218 28.1068C42.1218 36.4546 48.8234 43.251 57.0547 43.251C65.286 43.251 71.9876 36.4546 71.9876 28.1068C71.9876 19.759 65.286 12.9625 57.0547 12.9625C48.8234 12.9625 42.1218 19.759 42.1218 28.1068ZM57.0547 15.8806C63.7016 15.8806 69.1103 21.3657 69.1103 28.1068C69.1103 34.8478 63.7016 40.333 57.0547 40.333C50.4077 40.333 44.9991 34.8478 44.9991 28.1068C44.9991 21.3657 50.4077 15.8806 57.0547 15.8806Z" fill="#FF6C1A"/>
<path d="M82.987 54.8308C82.6227 45.6334 74.7921 42.7893 70.6218 42.5676C63.5195 42.5676 58.985 45.1348 57.0729 46.5015C55.2154 45.024 50.7719 42.2167 43.6151 42.2167C43.5604 42.2167 43.5058 42.2167 43.4694 42.2167C39.1898 42.6785 31.1042 45.9105 31.1042 54.8677V73.4102H9.03259C5.62716 73.4102 2.87732 70.6029 2.87732 67.1678V9.89674C2.87732 6.44312 5.64537 3.65436 9.03259 3.65436H46.0007C49.0783 3.65436 51.7189 5.9814 52.1013 9.08412C52.2106 9.87827 52.9208 10.4508 53.7221 10.34C54.5052 10.2292 55.0697 9.5089 54.9604 8.69628C54.3777 4.15301 50.517 0.736328 46.0007 0.736328H9.03259C4.06103 0.736328 0 4.85482 0 9.89674V67.1678C0 72.2282 4.06103 76.3282 9.03259 76.3282H81.5483C82.3496 76.3282 82.987 75.6818 82.987 74.8692V54.8123V54.8308ZM73.9179 73.4286V57.5087C73.9362 56.6961 73.2988 56.0497 72.4975 56.0497C71.6962 56.0497 71.0588 56.6961 71.0588 57.5087V73.4286H42.9959V57.5087C42.9959 56.6961 42.3585 56.0497 41.5572 56.0497C40.7559 56.0497 40.1186 56.6961 40.1186 57.5087V73.4286H33.9815V54.8862C33.9815 46.6123 42.7773 45.2641 43.7061 45.1348C51.8646 45.1717 55.8163 49.2348 55.9802 49.401C56.5266 49.9735 57.4189 50.0105 58.0016 49.4749C58.0381 49.438 62.354 45.4857 70.5489 45.4857C70.9314 45.5042 79.7818 46.1321 80.1279 54.8862V73.4286H73.9179Z" fill="#FF6C1A"/>
</svg>
