<svg width="76" height="69" viewBox="0 0 76 69" fill="none" xmlns="http://www.w3.org/2000/svg">
<path d="M70.0741 0.54541H5.55197C2.49368 0.54541 0 2.91578 0 5.82283V49.7119C0 52.6189 2.49368 54.9893 5.55197 54.9893H27.8226L24.3565 62.4432H18.1929V68.7791H57.4174V62.4432H51.2538L47.7877 54.9893H70.0584C73.1167 54.9893 75.6103 52.6189 75.6103 49.7119V5.82283C75.6103 2.91578 73.1167 0.54541 70.0584 0.54541H70.0741ZM2.22706 5.82283C2.22706 4.0786 3.717 2.66234 5.55197 2.66234H36.6995V20.2537H33.7353V4.76436H25.2191C22.7411 4.76436 20.5454 6.00172 19.3064 7.85031C18.0518 6.00172 15.8717 4.76436 13.3937 4.76436H4.87758V20.2388H2.21138V5.82283H2.22706ZM23.7606 16.0199C22.5059 16.0199 21.361 16.4075 20.4357 17.0783V11.4431C20.4357 8.92368 22.6 6.86638 25.2505 6.86638H31.5396V16.005H23.7762L23.7606 16.0199ZM31.5239 18.1368V20.2537H20.6082C21.063 19.0313 22.302 18.1368 23.7449 18.1368H31.5239ZM14.868 16.0199H7.10464V6.88129H13.3937C16.0443 6.88129 18.2086 8.93859 18.2086 11.458V17.0932C17.2833 16.4224 16.1227 16.0348 14.8837 16.0348L14.868 16.0199ZM18.0047 20.2388H7.08896V18.1219H14.8523C16.2952 18.1219 17.5342 19.0015 17.989 20.2388H18.0047ZM2.21138 22.3558H36.6995V39.9471H27.8226C27.7912 39.8428 28.2931 34.9679 23.6821 32.3739C23.9645 31.7925 24.1213 31.1365 24.1213 30.4508V29.0494C24.1213 26.53 21.957 24.4727 19.3064 24.4727C16.6559 24.4727 14.4916 26.53 14.4916 29.0494V30.4508C14.4916 31.1365 14.6484 31.7776 14.9307 32.3739C10.2884 34.9977 10.8216 39.8279 10.7903 39.9471H2.22706V22.3558H2.21138ZM19.3064 35.0126C20.42 35.0126 21.4551 34.6399 22.2706 34.0287C26.0974 35.9667 25.5485 39.7533 25.5955 39.9322H13.0173C13.0644 39.7533 12.5155 35.9667 16.3422 34.0287C17.1578 34.6399 18.1929 35.0126 19.3064 35.0126ZM16.7187 30.4359V29.0345C16.7187 27.6779 17.8792 26.5747 19.3064 26.5747C20.7336 26.5747 21.8942 27.6779 21.8942 29.0345V30.4359C21.8942 31.7925 20.7336 32.8957 19.3064 32.8957C17.8792 32.8957 16.7187 31.7925 16.7187 30.4359ZM55.2061 64.5453V66.6622H20.42V64.5453H55.2061ZM26.7875 62.4283L30.2536 54.9744H45.3882L48.8542 62.4283H26.7875ZM73.4146 49.697C73.4146 51.4412 71.9247 52.8574 70.0897 52.8574H5.55197C3.717 52.8574 2.22706 51.4412 2.22706 49.697V42.0343H73.4146V49.697ZM56.3196 34.9977C57.4331 34.9977 58.4682 34.625 59.2838 34.0138C63.1106 35.9518 62.5616 39.7384 62.6087 39.9173H50.0305C50.0775 39.7384 49.5286 35.9518 53.3554 34.0138C54.171 34.625 55.2061 34.9977 56.3196 34.9977ZM53.7318 30.421V29.0196C53.7318 27.663 54.8924 26.5598 56.3196 26.5598C57.7468 26.5598 58.9074 27.663 58.9074 29.0196V30.421C58.9074 31.7776 57.7468 32.8808 56.3196 32.8808C54.8924 32.8808 53.7318 31.7776 53.7318 30.421ZM73.4146 39.9173H64.8358C64.8044 39.813 65.3063 34.9381 60.6953 32.3441C60.9776 31.7627 61.1344 31.1067 61.1344 30.421V29.0196C61.1344 26.5002 58.9701 24.4429 56.3196 24.4429C53.6691 24.4429 51.5047 26.5002 51.5047 29.0196V30.421C51.5047 31.1067 51.6616 31.7478 51.9439 32.3441C47.3016 34.9679 47.8348 39.7981 47.8034 39.9173H38.9265V22.3259H73.4146V39.9173ZM56.3196 15.3043C57.4331 15.3043 58.4682 14.9316 59.2838 14.3204C63.1106 16.2584 62.5616 20.0599 62.6087 20.2239H50.0305C50.0775 20.045 49.5286 16.2584 53.3554 14.3204C54.171 14.9316 55.2061 15.3043 56.3196 15.3043ZM53.7318 10.7275V9.3262C53.7318 7.96957 54.8924 6.86638 56.3196 6.86638C57.7468 6.86638 58.9074 7.96957 58.9074 9.3262V10.7275C58.9074 12.0842 57.7468 13.1874 56.3196 13.1874C54.8924 13.1874 53.7318 12.0842 53.7318 10.7275ZM73.4146 20.2239H64.8358C64.8044 20.1196 65.3063 15.2447 60.6953 12.6507C60.9776 12.0693 61.1344 11.4133 61.1344 10.7275V9.3262C61.1344 6.80675 58.9701 4.74945 56.3196 4.74945C53.6691 4.74945 51.5047 6.80675 51.5047 9.3262V10.7275C51.5047 11.4133 51.6616 12.0544 51.9439 12.6507C47.3016 15.2745 47.8348 20.1047 47.8034 20.2239H38.9265V2.66234H70.0741C71.909 2.66234 73.399 4.0786 73.399 5.82283V20.2388L73.4146 20.2239Z" fill="#FF6C1A"/>
<path d="M37.813 50.6361C39.648 50.6361 41.1379 49.2199 41.1379 47.4757C41.1379 45.7314 39.648 44.3152 37.813 44.3152C35.978 44.3152 34.4881 45.7314 34.4881 47.4757C34.4881 49.2199 35.978 50.6361 37.813 50.6361ZM37.813 46.4172C38.4247 46.4172 38.9265 46.8942 38.9265 47.4757C38.9265 48.0571 38.4247 48.5341 37.813 48.5341C37.2014 48.5341 36.6995 48.0571 36.6995 47.4757C36.6995 46.8942 37.2014 46.4172 37.813 46.4172Z" fill="#FF6C1A"/>
<path d="M9.55128 10.1163H15.464V12.2332H9.55128V10.1163Z" fill="#FF6C1A"/>
<path d="M23.1646 10.1163H29.0773V12.2332H23.1646V10.1163Z" fill="#FF6C1A"/>
</svg>
