<svg width="76" height="76" viewBox="0 0 76 76" fill="none" xmlns="http://www.w3.org/2000/svg">
<path d="M55.1372 42.0324C55.1372 37.9472 61.0136 37.9472 61.0136 42.0324V51.183M61.0134 44.4992C61.0134 40.4098 66.8857 40.414 66.8857 44.4992V51.1088M49.2608 48.2757V29.505C49.2608 25.4198 43.3844 25.4198 43.3844 29.505V49.7253M49.2608 39.5657C49.2608 35.4805 55.1373 35.4805 55.1373 39.5657V49.7293M43.3844 48.185V50.3018C43.3844 52.5008 42.9124 54.1604 41.4047 52.3114C39.0784 48.9756 37.3702 47.1596 34.1041 47.7196C32.1871 48.0532 31.4561 49.8076 32.7677 51.4713L42.073 64.9296C44.0652 67.8163 44.3409 69.6532 44.3409 72.2271C44.3409 73.0136 44.9964 73.6601 45.7985 73.6601H63.2063C64.0081 73.6601 64.6639 73.0136 64.6639 72.2271V67.7876C64.6639 64.0648 66.3887 64.4148 66.8858 59.8642V56.1372M62.0953 13.6951L53.5667 22.1044M64.6389 29.2495H56.5655M64.6389 29.2495C64.6389 31.5021 66.4932 33.3266 68.7778 33.3266C71.0624 33.3266 72.9126 31.5022 72.9126 29.2496C72.9126 26.997 71.0624 25.1685 68.7778 25.1685C66.4932 25.1685 64.6389 26.9969 64.6389 29.2495ZM34.5969 17.6857L39.0784 22.1046M16.1324 17.7351H7.42439C5.98344 17.7351 4.8056 16.5738 4.8056 15.1531V4.1162C4.8056 2.69545 5.98344 1.53418 7.42439 1.53418H32.5004C33.9412 1.53418 35.1191 2.69545 35.1191 4.1162V15.1531C35.1191 16.5696 33.9412 17.7351 32.5004 17.7351H21.2362M18.3377 6.96605H29.8734M9.28303 6.96605H12.6451M22.4849 39.8003L36.4263 31.8605M36.4263 31.8605C37.3827 35.3692 40.0974 37.9513 43.3845 38.9232M36.4263 31.8605C34.9645 26.4739 38.2055 20.935 43.6726 19.4936C49.1355 18.048 54.753 21.248 56.2149 26.6345C57.238 30.3903 55.9684 34.2202 53.2535 36.687M20.8186 12.1838H9.28303M29.8734 12.1838H26.5113M63.4067 5.03461C65.871 2.60482 69.8719 2.60482 72.336 5.03461C74.8044 7.4644 74.8044 11.4096 72.336 13.8394C69.8719 16.2732 65.871 16.2732 63.4067 13.8394C60.9383 11.4096 60.9383 7.4644 63.4067 5.03461ZM18.1915 55.5936C13.0294 58.534 6.42629 56.7921 3.44833 51.6978C0.466392 46.6078 2.2372 40.1011 7.39935 37.1606C12.5615 34.2203 19.1646 35.9664 22.1426 41.0564C25.1246 46.1464 23.3538 52.6574 18.1915 55.5936ZM15.0423 50.2111C12.8914 51.4342 10.1474 50.7095 8.90694 48.5927C7.66664 46.476 8.40163 43.7662 10.5484 42.5431C12.6993 41.32 15.4433 42.0448 16.6837 44.1656C17.9242 46.2824 17.1891 48.988 15.0423 50.2111Z" stroke="#FF6C1A" stroke-width="2.91697" stroke-miterlimit="10" stroke-linecap="round" stroke-linejoin="round"/>
</svg>
