<svg xmlns="http://www.w3.org/2000/svg" width="127.707" height="119.157" viewBox="0 0 127.707 119.157">
    <g data-name="Group 621" transform="translate(518.279 -346.928)">
        <path data-name="Path 2133" d="M-499.458 427.383a16.825 16.825 0 0 0 16.82-16.83h-33.641a16.825 16.825 0 0 0 16.821 16.83z" style="fill:none;stroke:#ff6c1a;stroke-linecap:round;stroke-linejoin:round;stroke-width:4px"/>
        <path data-name="Path 2134" d="m-516.279 410.553 16.82-36.93 16.82 36.93z" style="fill:none;stroke:#ff6c1a;stroke-linecap:round;stroke-linejoin:round;stroke-width:4px"/>
        <circle data-name="Ellipse 487" cx="4.004" cy="4.004" r="4.004" transform="translate(-503.463 365.615)" style="fill:none;stroke:#ff6c1a;stroke-linecap:round;stroke-linejoin:round;stroke-width:4px"/>
        <circle data-name="Ellipse 488" cx="6.47" cy="6.47" r="6.47" transform="translate(-460.778 363.149)" style="fill:none;stroke:#ff6c1a;stroke-linecap:round;stroke-linejoin:round;stroke-width:4px"/>
        <path data-name="Line 33" transform="translate(-495.454 369.619)" style="fill:none;stroke:#ff6c1a;stroke-linecap:round;stroke-linejoin:round;stroke-width:4px" d="M0 0h20.22"/>
        <path data-name="Path 2135" d="M-409.393 427.383a16.825 16.825 0 0 1-16.82-16.83h33.64a16.825 16.825 0 0 1-16.82 16.83z" style="fill:none;stroke:#ff6c1a;stroke-linecap:round;stroke-linejoin:round;stroke-width:4px"/>
        <path data-name="Path 2136" d="m-392.573 410.553-16.82-36.93-16.82 36.93z" style="fill:none;stroke:#ff6c1a;stroke-linecap:round;stroke-linejoin:round;stroke-width:4px"/>
        <circle data-name="Ellipse 489" cx="4.004" cy="4.004" r="4.004" transform="translate(-413.397 365.615)" style="fill:none;stroke:#ff6c1a;stroke-linecap:round;stroke-linejoin:round;stroke-width:4px"/>
        <path data-name="Line 34" transform="translate(-433.617 369.619)" style="fill:none;stroke:#ff6c1a;stroke-linecap:round;stroke-linejoin:round;stroke-width:4px" d="M20.22 0H0"/>
        <path data-name="Line 35" transform="translate(-454.308 355.239)" style="fill:none;stroke:#ff6c1a;stroke-linecap:round;stroke-linejoin:round;stroke-width:4px" d="M0 7.91V0"/>
        <circle data-name="Ellipse 490" cx="20.691" cy="20.691" r="20.691" transform="translate(-474.999 348.928)" style="fill:none;stroke:#ff6c1a;stroke-linecap:round;stroke-linejoin:round;stroke-width:4px"/>
        <g data-name="Group 620">
            <path data-name="Line 36" transform="translate(-468.39 385.02)" style="fill:none;stroke:#ff6c1a;stroke-linecap:round;stroke-linejoin:round;stroke-width:4px" d="m0 0 7.878 66.895"/>
            <path data-name="Line 37" transform="translate(-448.104 385.02)" style="fill:none;stroke:#ff6c1a;stroke-linecap:round;stroke-linejoin:round;stroke-width:4px" d="M7.878 0 0 66.895"/>
            <path data-name="Line 38" transform="translate(-454.308 390.31)" style="fill:none;stroke:#ff6c1a;stroke-linecap:round;stroke-linejoin:round;stroke-width:4px" d="M0 0v61.605"/>
        </g>
        <rect data-name="Rectangle 302" width="92.589" height="12.17" rx="6.085" transform="translate(-500.603 451.915)" style="fill:none;stroke:#ff6c1a;stroke-linecap:round;stroke-linejoin:round;stroke-width:4px"/>
    </g>
</svg>
