<svg xmlns="http://www.w3.org/2000/svg" width="123.989" height="123.647" viewBox="0 0 123.989 123.647">
    <g data-name="Group 619" transform="translate(533.814 469.34)">
        <circle data-name="Ellipse 486" cx="6.619" cy="6.619" r="6.619" transform="translate(-491.361 -401.383)" style="fill:none;stroke:#ff6c1a;stroke-linecap:round;stroke-linejoin:round;stroke-width:4px"/>
        <path data-name="Path 2130" d="M-418.336-310.734a26.036 26.036 0 0 1 1.322 8.216 26.062 26.062 0 0 1-26.063 26.063 26.062 26.062 0 0 1-26.062-26.063 26.062 26.062 0 0 1 26.062-26.062 26.029 26.029 0 0 1 8.243 1.331" transform="translate(-41.666 -92.247)" style="fill:none;stroke:#ff6c1a;stroke-linecap:round;stroke-linejoin:round;stroke-width:4px"/>
        <path data-name="Path 2131" d="M-444.238-368.178a46.852 46.852 0 0 1 6.566 23.994 47.072 47.072 0 0 1-47.072 47.072 47.071 47.071 0 0 1-47.071-47.072 47.071 47.071 0 0 1 47.071-47.071 46.852 46.852 0 0 1 24.408 6.815" transform="translate(0 -50.581)" style="fill:none;stroke:#ff6c1a;stroke-linecap:round;stroke-linejoin:round;stroke-width:4px"/>
        <path data-name="Path 2132" d="m-377.18-399.358 40.768-40.767-2.225-13.865 13.779-13.351 2.7 12.666 13.135 2.568-15.664 15.407-11.725-3.423" transform="translate(-102.8)" style="fill:none;stroke:#ff6c1a;stroke-linecap:round;stroke-linejoin:round;stroke-width:4px"/>
    </g>
</svg>
