<svg xmlns="http://www.w3.org/2000/svg" width="118.111" height="111.044" viewBox="0 0 118.111 111.044">
  <g id="Group_3519" data-name="Group 3519" transform="translate(-3678.973 -212.63)">
    <path id="Path_6413" data-name="Path 6413" d="M3781.508,261.244q-.043,18.673-.028,37.347a17.919,17.919,0,0,1-.145,2.442,5,5,0,0,1-4.342,4.528,11.793,11.793,0,0,1-2.043.182c-3.267.027-6.535-.016-9.8.046a22.793,22.793,0,0,0-12.612,3.987q-9.127,6.181-18.29,12.307c-1.277.858-1.569.856-2.819.015q-9.141-6.158-18.283-12.318a21.306,21.306,0,0,0-10.862-3.843c-3.976-.2-7.967-.133-11.951-.184-4.034-.052-6.108-2.108-6.112-6.131q-.025-25.78-.02-51.559c0-4.942,1.952-6.869,6.922-6.871q29.309-.017,58.618-.014c4.476,0,8.953.006,13.429-.016.347,0,.859-.09,1.015-.325,1.03-1.541,1.981-3.133,3.068-4.883h-1.2q-32.74,0-65.479-.008c-3.463,0-6.928-.035-10.39.04-5.493.119-9.326,2.889-10.657,7.713a14.441,14.441,0,0,0-.528,3.766q-.051,26.319.014,52.638a12.242,12.242,0,0,0,.885,4.475c1.788,4.382,5.387,6.219,9.913,6.378,3.427.12,6.861.019,10.292.055a18.2,18.2,0,0,1,10.227,3.191q9.005,6.1,18.029,12.169c3.069,2.071,5.843,2.074,8.928-.006,5.958-4.016,11.928-8.013,17.867-12.058A18.513,18.513,0,0,1,3765.838,311c3.267,0,6.535.041,9.8-.023,6.679-.131,11.041-4.631,11.039-11.307q0-23.084,0-46.168v-1.194c-1.718,2.352-3.225,4.712-4.659,7.117A3.749,3.749,0,0,0,3781.508,261.244Z" transform="translate(0 -4.249)" fill="#ff6c1a"/>
    <path id="Path_6414" data-name="Path 6414" d="M3795.287,224.793q-10.9,17.5-21.778,35.015a8.087,8.087,0,0,0-.948,2.343c-1.126,4.7-2.205,9.405-3.28,14.114a5.675,5.675,0,0,0-.135,1.552,1.778,1.778,0,0,0,2.479,1.662,5.688,5.688,0,0,0,1.584-.945c3.624-2.946,7.256-5.884,10.818-8.9a12.618,12.618,0,0,0,2.488-2.864c5.106-8.127,10.152-16.292,15.218-24.445l6.508-10.476c-4.15-2.609-8.256-5.19-12.439-7.819C3795.576,224.363,3795.425,224.573,3795.287,224.793Zm-18.122,45.7a1.25,1.25,0,0,1-1.108-.141c-.517-.352-1.46-.464-1.266-1.391.473-2.259,1.019-4.5,1.577-6.936l6.322,3.976C3780.8,267.554,3779.011,269.06,3777.166,270.492Z" transform="translate(-16.437 -2.077)" fill="#ff6c1a"/>
    <path id="Path_6415" data-name="Path 6415" d="M3769.162,304.444c.424,0,.85.011,1.272-.021a2.555,2.555,0,1,0-.14-5.1c-1.077-.026-2.155-.007-3.233-.007q-31.794,0-63.588,0c-1.864,0-3.052,1.02-3.034,2.581s1.2,2.534,3.077,2.534q16.607-.007,33.214,0v.018Z" transform="translate(-3.913 -15.801)" fill="#ff6c1a"/>
    <path id="Path_6416" data-name="Path 6416" d="M3759.695,258.5h-56.2a6.407,6.407,0,0,0-.783.022,2.551,2.551,0,0,0-2.127,3.393,2.6,2.6,0,0,0,2.8,1.678q16.216,0,32.431,0c6.6,0,13.195.007,19.791-.02a1.58,1.58,0,0,0,1.156-.423C3757.752,261.7,3758.648,260.187,3759.695,258.5Z" transform="translate(-3.913 -8.362)" fill="#ff6c1a"/>
    <path id="Path_6417" data-name="Path 6417" d="M3750.981,284h1.07c.4-1.726.768-3.34,1.172-5.1h-49.435c-2.154,0-3.349.907-3.359,2.546S3701.6,284,3703.766,284Z" transform="translate(-3.911 -12.081)" fill="#ff6c1a"/>
    <path id="Path_6418" data-name="Path 6418" d="M3817.859,216.779q-2.726-1.728-5.483-3.411a3.829,3.829,0,0,0-5.459.944c-1.083,1.457-1.985,3.051-3.018,4.663l12.6,7.82c1.007-1.691,2.077-3.258,2.9-4.944A3.719,3.719,0,0,0,3817.859,216.779Z" transform="translate(-22.774 0)" fill="#ff6c1a"/>
  </g>
</svg>
