<svg xmlns="http://www.w3.org/2000/svg" width="96.515" height="96.41" viewBox="0 0 96.515 96.41">
  <g id="Group_3512" data-name="Group 3512" transform="translate(-630.729 -377.304)">
    <path id="Path_6390" data-name="Path 6390" d="M680.7,499.055c-29.648-.057-51.514-23.169-49.888-51.4a47.079,47.079,0,0,1,10.748-27.4c1.453-1.8,2.079-1.815,3.74-.162,2.94,2.925,5.8,5.934,8.832,8.76,1.466,1.367,1.4,2.366.275,3.933a30.312,30.312,0,0,0,16.221,46.995,28.945,28.945,0,0,0,26.2-4.52c1.648-1.188,2.6-1.026,3.918.365,2.847,3.013,5.842,5.886,8.769,8.824,1.7,1.707,1.664,2.306-.262,3.868A46.2,46.2,0,0,1,680.7,499.055Zm17.609-20.908c-16.45,11.121-34.1,5.34-43.346-3.976a33.6,33.6,0,0,1-3.385-42.725l-8.3-8.337C629.5,439.955,629.858,468,648.931,484.652c18.739,16.36,44.11,13.733,57.576,1.685Z" transform="translate(0 -25.341)" fill="#ff6c1a"/>
    <path id="Path_6391" data-name="Path 6391" d="M806.082,424.9c-.146,12.272-3.7,22.264-10.755,31-1.508,1.867-1.81,1.875-3.469.217-3.025-3.024-5.991-6.111-9.1-9.045-1.375-1.3-1.4-2.253-.3-3.775,11.955-16.621,4.426-40.317-14.808-46.686a28.969,28.969,0,0,0-5.284-1.24c-1.69-.223-2.337-.926-2.3-2.643.087-4.146.023-8.295.027-12.442,0-2.849.367-3.207,3.136-2.888a46.072,46.072,0,0,1,27.248,12.468A48.8,48.8,0,0,1,806.082,424.9ZM785.2,444.835l8.309,8.334c10.623-12.4,12.728-31.869,4.735-47.731-7.236-14.361-18.979-22.6-35.018-25.039v11.851C788.3,396.72,799.073,425.465,785.2,444.835Z" transform="translate(-78.838)" fill="#ff6c1a"/>
    <path id="Path_6392" data-name="Path 6392" d="M702.507,386.349c0,2.2-.04,4.4.015,6.6.035,1.4-.468,2.151-1.935,2.347a29.284,29.284,0,0,0-14.164,5.9,1.852,1.852,0,0,1-2.859-.182q-4.761-4.85-9.619-9.605c-1.329-1.3-1.027-2.31.263-3.374A46.81,46.81,0,0,1,697.1,377.719c1.086-.171,2.181-.29,3.276-.39,1.461-.133,2.164.53,2.141,2.029C702.481,381.689,702.507,384.019,702.507,386.349Zm-3.144,5.333v-11.2a44.66,44.66,0,0,0-22.46,9.352l7.99,8Z" transform="translate(-25.818 -0.006)" fill="#ff6c1a"/>
    <path id="Path_6393" data-name="Path 6393" d="M774.3,477.255c0-4.274.039-8.55-.019-12.823-.023-1.676.671-2.35,2.32-2.3,2.006.062,4.016.031,6.023,0,1.449-.021,2.123.6,2.118,2.1q-.039,13.018,0,26.036c0,1.493-.652,2.127-2.108,2.1-1.942-.031-3.889-.084-5.828,0-1.828.084-2.57-.619-2.533-2.49C774.361,485.676,774.3,481.465,774.3,477.255Zm3.193-11.978v23.882h4.087V465.277Z" transform="translate(-87.502 -51.708)" fill="#ff6c1a"/>
    <path id="Path_6394" data-name="Path 6394" d="M736.887,496.5c0-2.78.048-5.561-.018-8.339-.041-1.7.552-2.521,2.364-2.428,2,.1,4.008.063,6.011.022,1.369-.028,2.037.527,2.033,1.936q-.028,8.631,0,17.261c0,1.282-.538,1.918-1.853,1.906-2.2-.02-4.4-.029-6.594.014-1.436.028-1.949-.686-1.936-2.031.028-2.78.008-5.56.008-8.34ZM740,503.7h4.169V488.908H740Z" transform="translate(-64.699 -66.088)" fill="#ff6c1a"/>
    <path id="Path_6395" data-name="Path 6395" d="M708.136,511.769q0,2.331,0,4.662a1.681,1.681,0,0,1-1.92,1.9c-1.748-.006-3.5-.014-5.245,0a1.658,1.658,0,0,1-1.889-1.908c.01-3.3,0-6.6.009-9.908a1.564,1.564,0,0,1,1.8-1.771c1.748.02,3.5.039,5.245,0,1.392-.031,2.027.592,2.005,1.978C708.115,508.4,708.135,510.085,708.136,511.769Zm-3.16,3.447V507.9h-2.746v7.315Z" transform="translate(-41.667 -77.681)" fill="#ff6c1a"/>
  </g>
</svg>
