<svg xmlns="http://www.w3.org/2000/svg" width="98.04" height="97.423" viewBox="0 0 98.04 97.423">
  <g id="Group_3513" data-name="Group 3513" transform="translate(-904.426 -364.026)">
    <path id="Path_6396" data-name="Path 6396" d="M972.959,446.921l-7.466-8.99c-7.29,4.605-14.452,4.6-21.817-.125l-6.768,7.823c2.458,5.685,1.976,9.221-1.548,11.736a7.813,7.813,0,0,1-11.149-10.521c2.218-3.5,5.951-4.429,10.882-2.594l6.409-7.458c-1.575-3.136-3.529-5.928-4.373-9.022-.829-3.039-.531-6.386-.754-10.039l-15.623-5.641c-3.8,4.434-7.858,5.517-11.722,3.236a8.274,8.274,0,0,1,5.268-15.341c4.65.706,6.98,3.878,7.2,9.937l16.29,5.883a19.142,19.142,0,0,1,10.905-10.059c-.768-2.785-1.518-5.519-2.275-8.25-1.289-4.647-2.635-9.278-3.838-13.947a2.091,2.091,0,0,0-2.3-1.921,8.421,8.421,0,0,1-7.979-7.937,8.563,8.563,0,0,1,16.574-3.56,8.435,8.435,0,0,1-3.334,10.129c-.742.509-1.335.868-1.021,1.974,2.135,7.517,4.212,15.051,6.383,22.847,5.733-.868,11.016.209,15.69,4.112l15.8-16.481c-3.7-6.37-3.014-12.089,1.833-15.853a11,11,0,0,1,15.711,15.057c-3.575,5.044-9.2,5.929-15.934,2.415l-15.76,16.441a19.223,19.223,0,0,1,4.782,12.257c3.963.219,7.79.486,11.622.57.469.01,1.058-.9,1.423-1.482a6.249,6.249,0,0,1,6.719-2.9,6.137,6.137,0,1,1-6.215,9.749c-.161-.2-.4-.412-.433-.643-.371-2.581-2.335-2.472-4.215-2.551-2.866-.121-5.731-.27-8.6-.4-.114-.005-.232.088-.489.193a19.188,19.188,0,0,1-5.6,10.854l7.413,8.951c6.234-1.624,9.939-.441,11.94,3.766a8.268,8.268,0,0,1-13.131,9.567C970.259,455.713,970.066,451.6,972.959,446.921Zm-18.272-7.862a16,16,0,1,0-16.055-16.009A15.985,15.985,0,0,0,954.687,439.06Zm44.978-53.524a8.707,8.707,0,1,0-8.629,8.761A8.744,8.744,0,0,0,999.665,385.535ZM934.579,373.2a6.273,6.273,0,0,0,6.2,6.221,6.375,6.375,0,0,0,6.364-6.294,6.266,6.266,0,0,0-6.335-6.283A6.2,6.2,0,0,0,934.579,373.2Zm-27.346,34.858a5.984,5.984,0,1,0,6.057-5.866A6.034,6.034,0,0,0,907.233,408.062Zm71.926,50.581a5.963,5.963,0,1,0-6.062-5.866A5.975,5.975,0,0,0,979.159,458.643ZM930.916,445.5a5.492,5.492,0,0,0-5.62,5.314,5.519,5.519,0,1,0,11.031.39A5.449,5.449,0,0,0,930.916,445.5Zm64.363-20.226a3.869,3.869,0,1,0-3.958,3.8A3.967,3.967,0,0,0,995.28,425.277Z" transform="translate(0)" fill="#ff6c1a" stroke="#ff6c1a" stroke-width="1"/>
  </g>
</svg>
