<svg xmlns="http://www.w3.org/2000/svg" width="120.148" height="84.238" viewBox="0 0 120.148 84.238">
  <g id="wireframe" transform="translate(-167.622 -233.934)">
    <path id="Path_6397" data-name="Path 6397" d="M286.4,247.743H169.016a1.381,1.381,0,0,1-1.381-1.381V235.315a1.381,1.381,0,0,1,1.381-1.381H286.4a1.38,1.38,0,0,1,1.381,1.381v11.048A1.38,1.38,0,0,1,286.4,247.743Zm-116-2.762H285.016V236.7H170.4Z" transform="translate(-0.01 0)" fill="#ff6c1a"/>
    <path id="Path_6398" data-name="Path 6398" d="M286.4,345H169.013a1.38,1.38,0,0,1-1.381-1.381V273.192a1.381,1.381,0,0,1,1.381-1.381H286.395a1.38,1.38,0,0,1,1.381,1.381v70.431A1.378,1.378,0,0,1,286.4,345Zm-116-2.762H285.014V274.574H170.393Z" transform="translate(-0.007 -26.832)" fill="#ff6c1a"/>
    <path id="Path_6399" data-name="Path 6399" d="M513.936,252.579a2.071,2.071,0,1,1-2.072-2.071,2.071,2.071,0,0,1,2.072,2.071" transform="translate(-242.393 -11.741)" fill="#ff6c1a"/>
    <path id="Path_6400" data-name="Path 6400" d="M532.876,252.579a2.071,2.071,0,1,1-2.071-2.071,2.071,2.071,0,0,1,2.071,2.071" transform="translate(-255.81 -11.741)" fill="#ff6c1a"/>
    <path id="Path_6401" data-name="Path 6401" d="M551.816,252.579a2.071,2.071,0,1,1-2.072-2.071,2.071,2.071,0,0,1,2.072,2.071" transform="translate(-269.227 -11.741)" fill="#ff6c1a"/>
    <path id="Path_6402" data-name="Path 6402" d="M195.242,345H169a1.38,1.38,0,0,1-1.381-1.381V273.192A1.381,1.381,0,0,1,169,271.811h26.239a1.381,1.381,0,0,1,1.381,1.381v70.431A1.379,1.379,0,0,1,195.242,345Zm-24.858-2.762H193.86V274.574H170.384Z" transform="translate(0 -26.832)" fill="#ff6c1a"/>
    <path id="Path_6403" data-name="Path 6403" d="M203.737,317.4H192.689a1.381,1.381,0,0,1-1.381-1.381V306.35a1.381,1.381,0,0,1,1.381-1.381h11.048a1.381,1.381,0,0,1,1.381,1.381v9.667A1.38,1.38,0,0,1,203.737,317.4Zm-9.666-2.762h8.286V307.73h-8.286Z" transform="translate(-16.78 -50.321)" fill="#ff6c1a"/>
    <path id="Path_6404" data-name="Path 6404" d="M203.737,378.958H192.689a1.38,1.38,0,0,1-1.381-1.381V367.91a1.381,1.381,0,0,1,1.381-1.381h11.048a1.381,1.381,0,0,1,1.381,1.381v9.667A1.379,1.379,0,0,1,203.737,378.958Zm-9.666-2.762h8.286V369.29h-8.286Z" transform="translate(-16.78 -93.93)" fill="#ff6c1a"/>
    <path id="Path_6405" data-name="Path 6405" d="M203.737,440.528H192.689a1.38,1.38,0,0,1-1.381-1.381V429.48a1.38,1.38,0,0,1,1.381-1.381h11.048a1.38,1.38,0,0,1,1.381,1.381v9.667A1.379,1.379,0,0,1,203.737,440.528Zm-9.666-2.762h8.286V430.86h-8.286Z" transform="translate(-16.78 -137.546)" fill="#ff6c1a"/>
    <path id="Path_6406" data-name="Path 6406" d="M370.456,355.273H311.073a1.38,1.38,0,0,1-1.381-1.381v-42.81a1.381,1.381,0,0,1,1.381-1.381h59.382a1.38,1.38,0,0,1,1.381,1.381v42.81a1.378,1.378,0,0,1-1.381,1.381Zm-58-2.761h56.621V312.463H312.456Z" transform="translate(-100.642 -53.673)" fill="#ff6c1a"/>
    <path id="Path_6407" data-name="Path 6407" d="M364.186,372.844a1.383,1.383,0,0,1-1.119-.567l-15.225-20.914-9.195,9.987a1.38,1.38,0,0,1-2.185-.2l-14.012-22.284-10.57,7.526a1.381,1.381,0,1,1-1.6-2.25l11.762-8.376a1.382,1.382,0,0,1,1.971.39l13.83,21.993,9.113-9.9a1.34,1.34,0,0,1,1.095-.443,1.388,1.388,0,0,1,1.037.566L365.3,370.648a1.384,1.384,0,0,1-1.116,2.2Z" transform="translate(-100.647 -71.955)" fill="#ff6c1a"/>
    <path id="Path_6408" data-name="Path 6408" d="M459.221,338.011a5.87,5.87,0,1,1,5.87-5.87A5.876,5.876,0,0,1,459.221,338.011Zm0-8.977a3.107,3.107,0,1,0,3.107,3.107A3.111,3.111,0,0,0,459.221,329.034Z" transform="translate(-202.409 -65.412)" fill="#ff6c1a"/>
  </g>
</svg>
