<svg xmlns="http://www.w3.org/2000/svg" width="960" height="772" viewBox="0 0 960 772">
    <defs>
        <clipPath id="o7u2yoor0a">
            <path data-name="Rectangle 510" style="fill:none" d="M0 0h749.56v671.744H0z"/>
        </clipPath>
        <clipPath id="wgiye90p0b">
            <path data-name="Path 2954" d="M390.867 252.269s164.395-13.82 185.742 173.57l109.9-.791s-.362-269.225-295.68-282.271c0 0-.231 111.782.033 109.492" transform="translate(-390.741 -142.777)" style="fill:none"/>
        </clipPath>
        <clipPath id="m4hp811mzc">
            <path data-name="Rectangle 514" style="fill:#ff6c1a" d="M0 0h749.56v671.744H0z"/>
        </clipPath>
        <clipPath id="ufv36l50ad">
            <path data-name="Rectangle 486" style="fill:none" d="M0 0h121.665v30.253H0z"/>
        </clipPath>
    </defs>
    <g data-name="Group 3245">
        <path data-name="Rectangle 516" d="M0 0h880a80 80 0 0 1 80 80v612a80 80 0 0 1-80 80H0V0z" style="fill:#f6f9fb"/>
        <g data-name="Group 1042">
            <g data-name="Group 1037">
                <path data-name="Path 2968" d="M59.408 79.008a5.374 5.374 0 1 0 5.373-5.373 5.374 5.374 0 0 0-5.373 5.373" transform="rotate(90 -227.111 413.235)" style="fill:#dfdfdf;stroke:#f6f9fb;stroke-width:2.5px"/>
                <path data-name="Path 2969" d="M59.408 64.281a5.374 5.374 0 1 0 5.373-5.373 5.374 5.374 0 0 0-5.373 5.373" transform="rotate(90 -216.506 423.84)" style="fill:#dfdfdf;stroke:#f6f9fb;stroke-width:2.5px"/>
                <path data-name="Path 2970" d="M59.408 49.554a5.374 5.374 0 1 0 5.373-5.373 5.374 5.374 0 0 0-5.373 5.373" transform="rotate(90 -205.902 434.445)" style="fill:#dfdfdf;stroke:#f6f9fb;stroke-width:2.5px"/>
                <path data-name="Path 2971" d="M59.408 34.827a5.374 5.374 0 1 0 5.373-5.373 5.374 5.374 0 0 0-5.373 5.373" transform="rotate(90 -195.297 445.049)" style="fill:#dfdfdf;stroke:#f6f9fb;stroke-width:2.5px"/>
                <path data-name="Path 2972" d="M59.408 20.1a5.374 5.374 0 1 0 5.373-5.373 5.374 5.374 0 0 0-5.373 5.373" transform="rotate(90 -184.693 455.654)" style="fill:#dfdfdf;stroke:#f6f9fb;stroke-width:2.5px"/>
                <path data-name="Path 2973" d="M59.408 5.373A5.374 5.374 0 1 0 64.781 0a5.374 5.374 0 0 0-5.373 5.373" transform="rotate(90 -174.088 466.259)" style="fill:#dfdfdf;stroke:#f6f9fb;stroke-width:2.5px"/>
                <path data-name="Path 2974" d="M47.527 79.008a5.374 5.374 0 1 0 5.373-5.373 5.374 5.374 0 0 0-5.373 5.373" transform="rotate(90 -218.556 404.68)" style="fill:#dfdfdf;stroke:#f6f9fb;stroke-width:2.5px"/>
                <path data-name="Path 2975" d="M47.527 64.281a5.374 5.374 0 1 0 5.373-5.373 5.374 5.374 0 0 0-5.373 5.373" transform="rotate(90 -207.951 415.285)" style="fill:#dfdfdf;stroke:#f6f9fb;stroke-width:2.5px"/>
                <path data-name="Path 2976" d="M47.527 49.554a5.374 5.374 0 1 0 5.373-5.373 5.374 5.374 0 0 0-5.373 5.373" transform="rotate(90 -197.347 425.89)" style="fill:#dfdfdf;stroke:#f6f9fb;stroke-width:2.5px"/>
                <path data-name="Path 2977" d="M47.527 34.827a5.374 5.374 0 1 0 5.373-5.373 5.374 5.374 0 0 0-5.373 5.373" transform="rotate(90 -186.742 436.494)" style="fill:#dfdfdf;stroke:#f6f9fb;stroke-width:2.5px"/>
                <path data-name="Path 2978" d="M47.527 20.1a5.374 5.374 0 1 0 5.373-5.373 5.374 5.374 0 0 0-5.373 5.373" transform="rotate(90 -176.138 447.099)" style="fill:#dfdfdf;stroke:#f6f9fb;stroke-width:2.5px"/>
                <path data-name="Path 2979" d="M47.527 5.373A5.374 5.374 0 1 0 52.9 0a5.374 5.374 0 0 0-5.373 5.373" transform="rotate(90 -165.533 457.704)" style="fill:#dfdfdf;stroke:#f6f9fb;stroke-width:2.5px"/>
                <path data-name="Path 2980" d="M35.645 79.008a5.374 5.374 0 1 0 5.373-5.373 5.374 5.374 0 0 0-5.373 5.373" transform="rotate(90 -210 396.124)" style="fill:#dfdfdf;stroke:#f6f9fb;stroke-width:2.5px"/>
                <path data-name="Path 2981" d="M35.645 64.281a5.374 5.374 0 1 0 5.373-5.373 5.374 5.374 0 0 0-5.373 5.373" transform="rotate(90 -199.395 406.729)" style="fill:#dfdfdf;stroke:#f6f9fb;stroke-width:2.5px"/>
                <path data-name="Path 2982" d="M35.645 49.554a5.374 5.374 0 1 0 5.373-5.373 5.374 5.374 0 0 0-5.373 5.373" transform="rotate(90 -188.79 417.333)" style="fill:#dfdfdf;stroke:#f6f9fb;stroke-width:2.5px"/>
                <path data-name="Path 2983" d="M35.645 34.827a5.374 5.374 0 1 0 5.373-5.373 5.374 5.374 0 0 0-5.373 5.373" transform="rotate(90 -178.186 427.938)" style="fill:#dfdfdf;stroke:#f6f9fb;stroke-width:2.5px"/>
                <path data-name="Path 2984" d="M35.645 20.1a5.374 5.374 0 1 0 5.373-5.373 5.374 5.374 0 0 0-5.373 5.373" transform="rotate(90 -167.581 438.542)" style="fill:#dfdfdf;stroke:#f6f9fb;stroke-width:2.5px"/>
                <path data-name="Path 2985" d="M35.645 5.373A5.374 5.374 0 1 0 41.018 0a5.374 5.374 0 0 0-5.373 5.373" transform="rotate(90 -156.976 449.147)" style="fill:#dfdfdf;stroke:#f6f9fb;stroke-width:2.5px"/>
                <path data-name="Path 2986" d="M23.763 79.008a5.374 5.374 0 1 0 5.373-5.373 5.374 5.374 0 0 0-5.373 5.373" transform="rotate(90 -201.444 387.568)" style="fill:#dfdfdf;stroke:#f6f9fb;stroke-width:2.5px"/>
                <path data-name="Path 2987" d="M23.763 64.281a5.374 5.374 0 1 0 5.373-5.373 5.374 5.374 0 0 0-5.373 5.373" transform="rotate(90 -190.839 398.173)" style="fill:#dfdfdf;stroke:#f6f9fb;stroke-width:2.5px"/>
                <path data-name="Path 2988" d="M23.763 49.554a5.374 5.374 0 1 0 5.373-5.373 5.374 5.374 0 0 0-5.373 5.373" transform="rotate(90 -180.235 408.778)" style="fill:#dfdfdf;stroke:#f6f9fb;stroke-width:2.5px"/>
                <path data-name="Path 2989" d="M23.763 34.827a5.374 5.374 0 1 0 5.373-5.373 5.374 5.374 0 0 0-5.373 5.373" transform="rotate(90 -169.63 419.382)" style="fill:#dfdfdf;stroke:#f6f9fb;stroke-width:2.5px"/>
                <path data-name="Path 2990" d="M23.763 20.1a5.374 5.374 0 1 0 5.373-5.373 5.374 5.374 0 0 0-5.373 5.373" transform="rotate(90 -159.026 429.987)" style="fill:#dfdfdf;stroke:#f6f9fb;stroke-width:2.5px"/>
                <path data-name="Path 2991" d="M23.763 5.373A5.374 5.374 0 1 0 29.136 0a5.374 5.374 0 0 0-5.373 5.373" transform="rotate(90 -148.42 440.592)" style="fill:#dfdfdf;stroke:#f6f9fb;stroke-width:2.5px"/>
                <path data-name="Path 2992" d="M11.882 79.008a5.374 5.374 0 1 0 5.373-5.373 5.374 5.374 0 0 0-5.373 5.373" transform="rotate(90 -192.889 379.013)" style="fill:#dfdfdf;stroke:#f6f9fb;stroke-width:2.5px"/>
                <path data-name="Path 2993" d="M11.882 64.281a5.374 5.374 0 1 0 5.373-5.373 5.374 5.374 0 0 0-5.373 5.373" transform="rotate(90 -182.284 389.618)" style="fill:#dfdfdf;stroke:#f6f9fb;stroke-width:2.5px"/>
                <path data-name="Path 2994" d="M11.882 49.554a5.374 5.374 0 1 0 5.373-5.373 5.374 5.374 0 0 0-5.373 5.373" transform="rotate(90 -171.68 400.223)" style="fill:#dfdfdf;stroke:#f6f9fb;stroke-width:2.5px"/>
                <path data-name="Path 2995" d="M11.882 34.827a5.374 5.374 0 1 0 5.373-5.373 5.374 5.374 0 0 0-5.373 5.373" transform="rotate(90 -161.075 410.827)" style="fill:#dfdfdf;stroke:#f6f9fb;stroke-width:2.5px"/>
                <path data-name="Path 2996" d="M11.882 20.1a5.374 5.374 0 1 0 5.373-5.373 5.374 5.374 0 0 0-5.373 5.373" transform="rotate(90 -150.47 421.432)" style="fill:#dfdfdf;stroke:#f6f9fb;stroke-width:2.5px"/>
                <path data-name="Path 2997" d="M11.882 5.373A5.374 5.374 0 1 0 17.255 0a5.374 5.374 0 0 0-5.373 5.373" transform="rotate(90 -139.866 432.037)" style="fill:#dfdfdf;stroke:#f6f9fb;stroke-width:2.5px"/>
                <path data-name="Path 2998" d="M0 79.008a5.374 5.374 0 1 0 5.373-5.373A5.374 5.374 0 0 0 0 79.008" transform="rotate(90 -184.333 370.457)" style="fill:#dfdfdf;stroke:#f6f9fb;stroke-width:2.5px"/>
                <path data-name="Path 2999" d="M0 64.281a5.374 5.374 0 1 0 5.373-5.373A5.374 5.374 0 0 0 0 64.281" transform="rotate(90 -173.728 381.062)" style="fill:#dfdfdf;stroke:#f6f9fb;stroke-width:2.5px"/>
                <path data-name="Path 3000" d="M0 49.554a5.374 5.374 0 1 0 5.373-5.373A5.374 5.374 0 0 0 0 49.554" transform="rotate(90 -163.123 391.666)" style="fill:#dfdfdf;stroke:#f6f9fb;stroke-width:2.5px"/>
                <path data-name="Path 3001" d="M0 34.827a5.374 5.374 0 1 0 5.373-5.373A5.374 5.374 0 0 0 0 34.827" transform="rotate(90 -152.519 402.27)" style="fill:#dfdfdf;stroke:#f6f9fb;stroke-width:2.5px"/>
                <path data-name="Path 3002" d="M0 20.1a5.374 5.374 0 1 0 5.373-5.373A5.374 5.374 0 0 0 0 20.1" transform="rotate(90 -141.914 412.875)" style="fill:#dfdfdf;stroke:#f6f9fb;stroke-width:2.5px"/>
                <path data-name="Path 3003" d="M0 5.373A5.374 5.374 0 1 0 5.373 0 5.374 5.374 0 0 0 0 5.373" style="fill:#dfdfdf;stroke:#f6f9fb;stroke-width:2.5px" transform="rotate(90 -131.309 423.48)"/>
            </g>
            <g data-name="Group 1034">
                <g data-name="Group 1021">
                    <g data-name="Group 1020" style="clip-path:url(#o7u2yoor0a)" transform="translate(169 50.002)">
                        <path data-name="Path 2952" d="M570.954 430.8c0 157.2-127.438 284.643-284.642 284.643S1.669 588.009 1.669 430.8s127.438-284.638 284.642-284.638S570.954 273.6 570.954 430.8M286.311 252.9a177.9 177.9 0 1 0 177.9 177.9 177.9 177.9 0 0 0-177.9-177.9" transform="translate(-.499 -43.703)" style="fill:#ff6c1a"/>
                    </g>
                </g>
                <g data-name="Group 1043">
                    <path data-name="Path 3004" d="M939.786 715.97H808.963a6.072 6.072 0 0 1-5.784-6.324v-51.66a6.072 6.072 0 0 1 5.784-6.324h130.823a6.072 6.072 0 0 1 5.783 6.324v51.661a6.072 6.072 0 0 1-5.783 6.324" transform="translate(-71.153 -144.846)" style="fill:#b34000"/>
                    <path data-name="Path 3005" d="m788.522 680.679-14.973-.034.268-8.845-21.49 18.728 21.6 17.346-.182-7.215 14.924.034.046-19.964" transform="translate(-55.948 -150.865)" style="fill:#b34000"/>
                    <text transform="translate(751.511 537.59)" style="font-family:ProximaNova-Semibold,Proxima Nova;font-weight:600;font-size:18px;fill:#fff"><tspan x="0" y="0" style="letter-spacing:-.015em">S</tspan><tspan y="0">tart</tspan></text>
                    <text data-name="Initial Planning" transform="translate(751.767 553.785)" style="font-family:ProximaNova-Regular,Proxima Nova;font-size:13px;fill:#fff"><tspan x="0" y="0">Initial Planning</tspan></text>
                </g>
                <g data-name="Group 1023">
                    <g data-name="Group 1022" style="clip-path:url(#wgiye90p0b)" transform="translate(442.908 150.088)">
                        <path data-name="Path 2953" d="M570.954 429.7c0 157.2-127.438 284.642-284.642 284.642S1.669 586.9 1.669 429.7s127.438-284.643 284.642-284.643S570.954 272.5 570.954 429.7M286.311 251.8a177.9 177.9 0 1 0 177.9 177.9 177.9 177.9 0 0 0-177.9-177.9" transform="translate(-274.407 -143.459)" style="fill:#192a44"/>
                    </g>
                </g>
                <g data-name="Group 1025">
                    <g data-name="Group 1024" style="clip-path:url(#o7u2yoor0a)" transform="translate(169 50.002)">
                        <path data-name="Path 2955" d="M637.844 543.756h136l-69.584 79.858z" transform="translate(-190.717 -162.585)" style="fill:#192a44"/>
                        <path data-name="Path 2956" d="M955.356 126.986v136.392l79.858-70.37z" transform="translate(-285.654 -37.969)" style="fill:#192a44"/>
                        <path data-name="Path 2957" d="M400.7 141.931h389.6v107.334H623.074z" transform="translate(-119.81 -42.438)" style="fill:#192a44"/>
                        <path data-name="Path 2958" d="M390.827 126.423v136l79.858-69.58z" transform="translate(-116.859 -37.801)" style="fill:#ff6c1a"/>
                        <path data-name="Line 136" transform="translate(218.094 107.993)" style="stroke-width:1.5px;stroke:#fff;stroke-miterlimit:10;fill:none" d="m0 0 21.875 105.95"/>
                        <path data-name="Line 137" transform="translate(55.347 218.49)" style="stroke-width:1.5px;stroke:#fff;stroke-miterlimit:10;fill:none" d="m0 0 91.125 57.522"/>
                        <path data-name="Line 138" transform="translate(0 378.799)" style="stroke-width:1.5px;stroke:#fff;stroke-miterlimit:10;fill:none" d="M0 0h108.915"/>
                        <path data-name="Line 139" transform="translate(43.289 481.587)" style="stroke-width:1.5px;stroke:#fff;stroke-miterlimit:10;fill:none" d="M0 54.161 93.498 0"/>
                        <path data-name="Line 140" transform="translate(203.203 555.317)" style="stroke-width:1.5px;stroke:#fff;stroke-miterlimit:10;fill:none" d="M31.429 0 0 102.59"/>
                        <path data-name="Line 141" transform="translate(347.897 549.783)" style="stroke-width:1.5px;stroke:#fff;stroke-miterlimit:10;fill:none" d="m0 0 44.871 98.637"/>
                        <path data-name="Line 142" transform="translate(429.336 486.726)" style="stroke-width:1.5px;stroke:#fff;stroke-miterlimit:10;fill:none" d="M92.114 55.347 0 0"/>
                        <path data-name="Line 143" transform="translate(445.15 286.093)" style="stroke-width:3px;stroke:#fff;stroke-miterlimit:10;fill:none" d="M0 32.615 103.381 0"/>
                        <path data-name="Line 144" transform="translate(619.493 100.086)" style="stroke-width:3px;stroke:#fff;stroke-miterlimit:10;fill:none" d="M0 0v107.532"/>
                    </g>
                </g>
                <text data-name="Client Testing" transform="translate(284.505 250.564)" style="font-size:14px;font-family:ProximaNova-Regular,Proxima Nova;fill:#fff"><tspan x="0" y="0">Client </tspan><tspan y="0" style="letter-spacing:-.114em">T</tspan><tspan y="0">esting</tspan></text>
                <text data-name="Development &amp;" transform="translate(188.222 353.66)" style="font-size:14px;font-family:ProximaNova-Regular,Proxima Nova;fill:#fff"><tspan x="0" y="0">Development &amp;</tspan></text>
                <text transform="translate(188.222 368.524)" style="font-size:14px;font-family:ProximaNova-Regular,Proxima Nova;fill:#fff"><tspan x="0" y="0">Implementation</tspan></text>
                <text data-name="Development &amp;" transform="translate(259.241 608.77)" style="font-size:14px;font-family:ProximaNova-Regular,Proxima Nova;fill:#fff"><tspan x="0" y="0">Development &amp;</tspan></text>
                <text data-name="Implementation" transform="translate(259.241 623.635)" style="font-size:14px;font-family:ProximaNova-Regular,Proxima Nova;fill:#fff"><tspan x="0" y="0">Implementation</tspan></text>
                <text data-name="Higher Level" transform="translate(429.541 666.509)" style="font-size:14px;font-family:ProximaNova-Regular,Proxima Nova;fill:#fff"><tspan x="0" y="0">Higher </tspan><tspan y="0" style="letter-spacing:-.02em">L</tspan><tspan y="0">evel</tspan></text>
                <text transform="translate(440.122 683.374)" style="font-size:14px;font-family:ProximaNova-Regular,Proxima Nova;fill:#fff"><tspan x="0" y="0">Planning</tspan></text>
                <text data-name="Deﬁne" transform="translate(583.001 608.837)" style="font-size:14px;font-family:ProximaNova-Regular,Proxima Nova;fill:#fff"><tspan x="0" y="0">Deﬁne</tspan></text>
                <text transform="translate(561 625.702)" style="font-size:14px;font-family:ProximaNova-Regular,Proxima Nova;fill:#fff"><tspan x="0" y="0" style="letter-spacing:-.029em">R</tspan><tspan y="0">equirements</tspan></text>
                <text data-name="Initial Testing" transform="translate(192.283 497.822)" style="font-size:14px;font-family:ProximaNova-Regular,Proxima Nova;fill:#fff"><tspan x="0" y="0">Initial </tspan><tspan y="0" style="letter-spacing:-.114em">T</tspan><tspan y="0">esting</tspan></text>
                <g data-name="Group 1027">
                    <g data-name="Group 1026" style="clip-path:url(#o7u2yoor0a)" transform="translate(169 50.002)">
                        <path data-name="Path 2959" d="M718.5 690.39a11.564 11.564 0 1 1-11.564-11.564A11.564 11.564 0 0 1 718.5 690.39" transform="translate(-207.917 -202.971)" style="fill:#b34000"/>
                        <path data-name="Path 2960" d="M443.527 216.359a18.878 18.878 0 1 1-18.877-18.877 18.877 18.877 0 0 1 18.877 18.877" transform="translate(-121.327 -59.048)" style="fill:#b34000"/>
                    </g>
                </g>
                <text transform="translate(669 400.992)" style="font-size:14px;font-family:ProximaNova-Regular,Proxima Nova;fill:#fff"><tspan x="0" y="0">Next</tspan></text>
                <text transform="translate(658 417.857)" style="font-size:14px;font-family:ProximaNova-Regular,Proxima Nova;fill:#fff"><tspan x="0" y="0">Iteration</tspan></text>
                <text transform="translate(615 284.422)" style="font-size:14px;font-family:ProximaNova-Regular,Proxima Nova;fill:#fff"><tspan x="0" y="0" style="letter-spacing:-.029em">R</tspan><tspan y="0">ecord</tspan></text>
                <text data-name="&amp; Incorporate" transform="translate(595 301.287)" style="font-size:14px;font-family:ProximaNova-Regular,Proxima Nova;fill:#fff"><tspan x="0" y="0">&amp; Incorporate</tspan></text>
                <text transform="translate(609.001 318.152)" style="font-size:14px;font-family:ProximaNova-Regular,Proxima Nova;fill:#fff"><tspan x="0" y="0">Changes</tspan></text>
                <text data-name="System Testing" transform="translate(668.386 210.433)" style="font-size:14px;font-family:ProximaNova-Regular,Proxima Nova;fill:#fff"><tspan x="0" y="0" style="letter-spacing:-.006em">S</tspan><tspan y="0">ystem </tspan><tspan y="0" style="letter-spacing:-.114em">T</tspan><tspan y="0">esting</tspan></text>
                <text transform="translate(825.691 210.431)" style="font-size:14px;font-family:ProximaNova-Regular,Proxima Nova;fill:#fff"><tspan x="0" y="0" style="letter-spacing:-.029em">R</tspan><tspan y="0">elease</tspan></text>
                <g data-name="Group 1029">
                    <g data-name="Group 1028" style="clip-path:url(#o7u2yoor0a)" transform="translate(169 50.002)">
                        <path data-name="Path 2961" d="M428.912 221.563c0-2.756 3.636-3.027 3.636-4.947 0-.88-.7-1.626-2.146-1.626a3.758 3.758 0 0 0-3.139 1.581l-1.536-1.694a6.176 6.176 0 0 1 4.923-2.237c2.846 0 4.586 1.513 4.586 3.546 0 3.343-4.021 3.614-4.021 5.624a1.3 1.3 0 0 0 .5 1.016l-2.011.678a2.607 2.607 0 0 1-.79-1.942m.022 5.014a1.581 1.581 0 0 1 3.162 0 1.581 1.581 0 1 1-3.162 0" transform="translate(-127.294 -63.58)" style="fill:#fff"/>
                    </g>
                </g>
                <text transform="translate(555.969 205.215)" style="font-size:15px;font-family:ProximaNova-Semibold,Proxima Nova;font-weight:600;fill:#fff"><tspan x="0" y="0" style="letter-spacing:-.124em">Y</tspan><tspan y="0">es</tspan></text>
                <text transform="translate(555.969 241.565)" style="font-size:14px;font-family:ProximaNova-Semibold,Proxima Nova;font-weight:600;fill:#fff"><tspan x="0" y="0">No</tspan></text>
                <g data-name="Group 1031">
                    <g data-name="Group 1030" style="clip-path:url(#m4hp811mzc)" transform="translate(169 50.002)">
                        <path data-name="Path 2962" d="M516.732 207.027v11.712h8.2v3.822l9.439-10.591-7.956-7.956-1.483-1.549v4.612s-8.2-.346-8.2-.049" transform="translate(-154.504 -60.537)" style="fill:#405e8d"/>
                        <path data-name="Path 2963" d="m522.469 237.691-8.319 8.244 5.774 5.827-2.715 2.69 14.167-.751.051-11.251.057-2.143-3.277 3.246s-5.529-6.071-5.739-5.862" transform="translate(-153.733 -71.069)" style="fill:#405e8d"/>
                        <path data-name="Path 2964" d="M513.224 64.309H370.175a6.324 6.324 0 0 1-6.324-6.324V6.325A6.324 6.324 0 0 1 370.175 0h143.049a6.324 6.324 0 0 1 6.324 6.324v51.661a6.324 6.324 0 0 1-6.324 6.324" transform="translate(-108.793)" style="fill:#b34000"/>
                        <path data-name="Path 2965" d="M411.3 88.029 411.268 103l-8.845-.268 18.729 21.49 17.346-21.6-7.215.182.034-14.924-19.965-.046" transform="translate(-120.326 -26.262)" style="fill:#b34000"/>
                    </g>
                </g>
                <path data-name="Path 2966" d="m386.728 29.808 1.3-1.8a5.656 5.656 0 0 0 4.164 1.835c1.895 0 2.625-.927 2.625-1.816 0-2.763-7.657-1.046-7.657-5.881 0-2.191 1.894-3.868 4.8-3.868a6.815 6.815 0 0 1 4.914 1.855l-1.3 1.717a5.363 5.363 0 0 0-3.828-1.519c-1.342 0-2.21.671-2.21 1.638 0 2.467 7.657.948 7.657 5.841 0 2.191-1.559 4.085-5.091 4.085a7.2 7.2 0 0 1-5.374-2.087zM399 19.684a1.283 1.283 0 1 1 1.283 1.282A1.28 1.28 0 0 1 399 19.684zm.237 11.979v-9.532h2.072v9.532zm4.636 2.447.967-1.5a3.761 3.761 0 0 0 3.039 1.224 2.525 2.525 0 0 0 2.822-2.664v-1.086a3.832 3.832 0 0 1-3.058 1.6c-2.427 0-4.223-1.756-4.223-4.894 0-3.1 1.757-4.894 4.223-4.894a3.742 3.742 0 0 1 3.058 1.559v-1.324h2.072v9.039c0 3.434-2.566 4.362-4.894 4.362a5.456 5.456 0 0 1-4.005-1.422zm6.828-5.546v-3.571a3.161 3.161 0 0 0-2.447-1.263c-1.658 0-2.7 1.223-2.7 3.058s1.046 3.04 2.7 3.04a3.161 3.161 0 0 0 2.446-1.263zm11.207 3.1V25.7c0-1.5-.77-1.973-1.934-1.973a3.247 3.247 0 0 0-2.447 1.263v6.67h-2.072v-9.529h2.072v1.283a4.547 4.547 0 0 1 3.375-1.519 2.747 2.747 0 0 1 3.079 3.058v6.71zm4.181-4.776a4.9 4.9 0 1 1 9.789 0 4.9 4.9 0 1 1-9.789 0zm7.637 0c0-1.677-.967-3.157-2.743-3.157-1.757 0-2.743 1.48-2.743 3.157 0 1.7.986 3.178 2.743 3.178 1.777-.001 2.745-1.482 2.745-3.179zm4.774 4.776v-7.737h-1.579v-1.8h1.579V21.6c0-2.072 1.2-3.3 3-3.3a3.049 3.049 0 0 1 2.289.829l-.809 1.283A1.538 1.538 0 0 0 441.9 20c-.829 0-1.322.533-1.322 1.6v.533h1.933v1.8h-1.933v7.736zm6.1 0v-7.737h-1.58v-1.8h1.58V21.6c0-2.072 1.2-3.3 3-3.3a3.048 3.048 0 0 1 2.289.829l-.809 1.283a1.538 1.538 0 0 0-1.086-.412c-.829 0-1.322.533-1.322 1.6v.533h1.934v1.8h-1.934v7.736z" transform="translate(53.367 46.535)" style="fill:#fff"/>
                <text data-name="Client Acceptance" transform="translate(438.799 95.973)" style="font-family:ProximaNova-Regular,Proxima Nova;font-size:13px;fill:#fff"><tspan x="0" y="0">Client Acceptance</tspan></text>
                <g data-name="Group 1033">
                    <g data-name="Group 1032" style="clip-path:url(#m4hp811mzc)" transform="translate(169 50.002)">
                        <path data-name="Path 2967" d="M456.959 519.861a91.718 91.718 0 1 1-91.718-91.718 91.718 91.718 0 0 1 91.718 91.718" transform="translate(-81.784 -128.016)" style="fill:#ff6c1a"/>
                    </g>
                </g>
                <text data-name="Agile Methodology Development" transform="translate(452.541 438.857)" style="font-family:ProximaNova-Regular,Proxima Nova;font-size:18px;fill:#fff"><tspan x="-74.709" y="0">Agile Methodology</tspan><tspan x="-53.109" y="20">Development</tspan></text>
            </g>
            <g data-name="Group 967">
                <g data-name="Group 966" transform="translate(594.885 61.477)" style="clip-path:url(#ufv36l50ad)">
                    <path data-name="Path 2865" d="m.6.6 20.03 15.383L40.658.6l20.031 15.381L80.72.6l20.033 15.383L120.787.6" transform="translate(.14 .14)" style="stroke-linecap:round;stroke-linejoin:round;stroke-width:1.196px;stroke:#dfdfdf;fill:none"/>
                    <path data-name="Path 2866" d="M.6 11.447 20.628 26.83l20.03-15.383L60.689 26.83 80.72 11.447l20.033 15.383 20.034-15.383" transform="translate(.14 2.685)" style="stroke:#ffc4a4;stroke-linecap:round;stroke-linejoin:round;stroke-width:1.196px;fill:none"/>
                </g>
            </g>
        </g>
    </g>
</svg>
