<svg xmlns="http://www.w3.org/2000/svg" xmlns:xlink="http://www.w3.org/1999/xlink" width="107" height="107" viewBox="0 0 107 107">
  <defs>
    <clipPath id="clip-path">
      <rect id="Rectangle_723" data-name="Rectangle 723" width="107" height="107" transform="translate(0 -0.305)" fill="#ff6c1a"/>
    </clipPath>
  </defs>
  <g id="Group_3730" data-name="Group 3730" transform="translate(0 0.305)">
    <g id="Group_3729" data-name="Group 3729" clip-path="url(#clip-path)">
      <path id="Path_6734" data-name="Path 6734" d="M106.7,65.642V6.252A6.26,6.26,0,0,0,100.443,0H6.252A6.26,6.26,0,0,0,0,6.252V89.607a6.259,6.259,0,0,0,6.252,6.252H47.2l5.9,5.9a2.083,2.083,0,0,0,2.947,0l1.993-1.993a23.708,23.708,0,0,0,4.9,2.03v2.816a2.083,2.083,0,0,0,2.083,2.084h9.169a2.084,2.084,0,0,0,2.084-2.084v-2.816a23.679,23.679,0,0,0,4.894-2.03l1.993,1.993a2.085,2.085,0,0,0,2.948,0l5.9-5.9h8.439a6.259,6.259,0,0,0,6.252-6.252V65.643h0M4.168,6.252A2.086,2.086,0,0,1,6.252,4.168h94.192a2.086,2.086,0,0,1,2.084,2.083V16.67H4.168Zm84.794,76.67a19.6,19.6,0,0,1-2.737,6.6,2.085,2.085,0,0,0,.275,2.608L88.169,93.8l-3.537,3.536-1.669-1.668a2.084,2.084,0,0,0-2.607-.274,19.639,19.639,0,0,1-6.6,2.736,2.082,2.082,0,0,0-1.649,2.038v2.358h-5v-2.358a2.082,2.082,0,0,0-1.649-2.038,19.631,19.631,0,0,1-6.6-2.736,2.086,2.086,0,0,0-2.608.274l-1.668,1.668L51.035,93.8,52.7,92.133a2.084,2.084,0,0,0,.275-2.608,19.641,19.641,0,0,1-2.737-6.6A2.083,2.083,0,0,0,48.2,81.272H45.846v-5H48.2a2.084,2.084,0,0,0,2.037-1.649,19.641,19.641,0,0,1,2.737-6.6A2.082,2.082,0,0,0,52.7,65.41l-1.668-1.67L54.572,60.2l1.668,1.67a2.084,2.084,0,0,0,2.608.274,19.622,19.622,0,0,1,6.6-2.737A2.084,2.084,0,0,0,67.1,57.372V55.015h5v2.357a2.084,2.084,0,0,0,1.649,2.038,19.622,19.622,0,0,1,6.6,2.737,2.083,2.083,0,0,0,2.607-.274l1.669-1.67,3.537,3.537L86.5,65.41a2.084,2.084,0,0,0-.275,2.607,19.6,19.6,0,0,1,2.737,6.6A2.085,2.085,0,0,0,91,76.27h2.358v5H91a2.083,2.083,0,0,0-2.038,1.649m11.482,8.77H91.952L90.6,90.335a23.7,23.7,0,0,0,2.028-4.9h2.818a2.083,2.083,0,0,0,2.083-2.084V74.187A2.084,2.084,0,0,0,95.442,72.1H92.624A23.694,23.694,0,0,0,90.6,67.208l1.992-1.993a2.083,2.083,0,0,0,0-2.947l-6.483-6.484a2.086,2.086,0,0,0-2.948,0l-1.993,1.993a23.724,23.724,0,0,0-4.894-2.028V52.931a2.084,2.084,0,0,0-2.084-2.083H65.017a2.083,2.083,0,0,0-2.083,2.083v2.818a23.7,23.7,0,0,0-4.9,2.027l-1.993-1.993a2.085,2.085,0,0,0-2.947,0l-6.484,6.484a2.085,2.085,0,0,0,0,2.948l1.993,1.992A23.748,23.748,0,0,0,46.579,72.1H43.762a2.086,2.086,0,0,0-2.084,2.085v9.168a2.084,2.084,0,0,0,2.084,2.084h2.817a23.735,23.735,0,0,0,2.029,4.9l-1.357,1.357h-41a2.086,2.086,0,0,1-2.084-2.083V20.839h98.36V89.607a2.087,2.087,0,0,1-2.084,2.084" transform="translate(0 0)" fill="#ff6c1a"/>
      <path id="Path_6735" data-name="Path 6735" d="M97.393,9.063H52.38a2.084,2.084,0,0,0,0,4.168H97.393a2.084,2.084,0,1,0,0-4.168" transform="translate(-4.035 -0.727)" fill="#ff6c1a"/>
      <path id="Path_6736" data-name="Path 6736" d="M24.287,9.063a2.085,2.085,0,1,0,1.473.611,2.1,2.1,0,0,0-1.473-.611" transform="translate(-1.781 -0.727)" fill="#ff6c1a"/>
      <path id="Path_6737" data-name="Path 6737" d="M14.318,9.063a2.085,2.085,0,1,0,1.473.611,2.1,2.1,0,0,0-1.473-.611" transform="translate(-0.981 -0.727)" fill="#ff6c1a"/>
      <path id="Path_6738" data-name="Path 6738" d="M34.256,9.063a2.085,2.085,0,1,0,1.473.611,2.1,2.1,0,0,0-1.473-.611" transform="translate(-2.581 -0.727)" fill="#ff6c1a"/>
      <path id="Path_6739" data-name="Path 6739" d="M74.488,70.876a13.58,13.58,0,1,0,13.581,13.58,13.6,13.6,0,0,0-13.581-13.58m0,22.993A9.413,9.413,0,1,1,83.9,84.456a9.424,9.424,0,0,1-9.413,9.413" transform="translate(-4.886 -5.685)" fill="#ff6c1a"/>
      <path id="Path_6740" data-name="Path 6740" d="M98.419,33.988H65.173a2.084,2.084,0,1,0,0,4.168H98.419a2.084,2.084,0,1,0,0-4.168" transform="translate(-5.061 -2.726)" fill="#ff6c1a"/>
      <path id="Path_6741" data-name="Path 6741" d="M98.419,44.863H65.173a2.084,2.084,0,1,0,0,4.168H98.419a2.084,2.084,0,1,0,0-4.168" transform="translate(-5.061 -3.599)" fill="#ff6c1a"/>
      <path id="Path_6742" data-name="Path 6742" d="M33.97,78.391H14.318a2.084,2.084,0,1,0,0,4.168H33.97a2.084,2.084,0,1,0,0-4.168" transform="translate(-0.981 -6.288)" fill="#ff6c1a"/>
      <path id="Path_6743" data-name="Path 6743" d="M26.752,89.266H14.318a2.084,2.084,0,1,0,0,4.168H26.752a2.084,2.084,0,1,0,0-4.168" transform="translate(-0.981 -7.16)" fill="#ff6c1a"/>
      <path id="Path_6744" data-name="Path 6744" d="M47.245,49.731,45.076,48.48a16.468,16.468,0,0,0,0-3.353l2.169-1.252a2.082,2.082,0,0,0,.763-2.846L43.366,32.99a2.085,2.085,0,0,0-2.847-.763l-2.167,1.252a16.344,16.344,0,0,0-2.9-1.68V29.3a2.084,2.084,0,0,0-2.083-2.084H24.082A2.084,2.084,0,0,0,22,29.3v2.5a16.287,16.287,0,0,0-2.9,1.68l-2.167-1.252a2.084,2.084,0,0,0-2.847.763L9.438,41.029a2.084,2.084,0,0,0,.763,2.846l2.169,1.253a16.459,16.459,0,0,0,0,3.352L10.2,49.731a2.085,2.085,0,0,0-.763,2.847l4.641,8.039a2.083,2.083,0,0,0,2.847.763l2.167-1.251a16.344,16.344,0,0,0,2.9,1.68v2.5a2.084,2.084,0,0,0,2.084,2.084h9.282a2.084,2.084,0,0,0,2.083-2.084v-2.5a16.344,16.344,0,0,0,2.9-1.68l2.167,1.251a2.084,2.084,0,0,0,2.847-.763l4.641-8.039a2.083,2.083,0,0,0-.763-2.847m-6.481-5.3a12.365,12.365,0,0,1,0,4.747,2.084,2.084,0,0,0,1,2.2l1.589.917L40.8,56.729l-1.591-.918a2.083,2.083,0,0,0-2.414.235,12.184,12.184,0,0,1-4.1,2.373,2.083,2.083,0,0,0-1.41,1.972v1.833H26.165V60.392a2.084,2.084,0,0,0-1.411-1.972,12.18,12.18,0,0,1-4.1-2.373,2.083,2.083,0,0,0-2.414-.235l-1.591.918L14.089,52.3l1.588-.918a2.083,2.083,0,0,0,1-2.2,12.365,12.365,0,0,1,0-4.747,2.083,2.083,0,0,0-1-2.2l-1.588-.918,2.557-4.429,1.591.918a2.083,2.083,0,0,0,2.414-.235,12.189,12.189,0,0,1,4.1-2.373,2.084,2.084,0,0,0,1.411-1.972V31.383H31.28v1.833a2.083,2.083,0,0,0,1.41,1.972,12.19,12.19,0,0,1,4.1,2.373,2.085,2.085,0,0,0,2.414.236l1.591-.919,2.557,4.43-1.589.917a2.084,2.084,0,0,0-1,2.2" transform="translate(-0.735 -2.183)" fill="#ff6c1a"/>
      <path id="Path_6745" data-name="Path 6745" d="M29.81,40.81A7.085,7.085,0,1,0,36.9,47.9,7.093,7.093,0,0,0,29.81,40.81m0,10A2.918,2.918,0,1,1,32.728,47.9a2.921,2.921,0,0,1-2.918,2.918" transform="translate(-1.823 -3.274)" fill="#ff6c1a"/>
    </g>
  </g>
</svg>
