<svg id="Group_3696" data-name="Group 3696" xmlns="http://www.w3.org/2000/svg" xmlns:xlink="http://www.w3.org/1999/xlink" width="116" height="116" viewBox="0 0 116 116">
  <defs>
    <clipPath id="clip-path">
      <rect id="Rectangle_703" data-name="Rectangle 703" width="116" height="116" fill="none"/>
    </clipPath>
  </defs>
  <g id="Group_3695" data-name="Group 3695" clip-path="url(#clip-path)">
    <path id="Path_6654" data-name="Path 6654" d="M93.5,116h-71A22.534,22.534,0,0,1,0,93.5v-71A22.534,22.534,0,0,1,22.5,0h71A22.534,22.534,0,0,1,116,22.5v71A22.47,22.47,0,0,1,93.5,116" fill="#fff"/>
    <path id="Path_6655" data-name="Path 6655" d="M68.3,31.1a37.5,37.5,0,0,0-8.1,8.3,23.26,23.26,0,0,0-3.6,7c-.3,1.1-.8,1.2-1.8.7-5.4-2.8-11.5-1.4-15.5,3.4a12.753,12.753,0,0,0,0,15.5,12.26,12.26,0,0,0,15.5,3.3c.7-.3,1.2-.8,1.6.4A32.813,32.813,0,0,0,67.8,85c.1.1.2.3.3.4-13.6,9.8-31.7,7-42.2-3.3a33.366,33.366,0,0,1-1.7-46C36.6,22.5,56,22,68.3,31.1" fill="#ff6c1a"/>
    <circle id="Ellipse_1162" data-name="Ellipse 1162" cx="17" cy="17" r="17" transform="translate(68 41.051)" fill="#ff6c1a"/>
  </g>
</svg>
