<svg id="Group_3720" data-name="Group 3720" xmlns="http://www.w3.org/2000/svg" xmlns:xlink="http://www.w3.org/1999/xlink" width="118.224" height="118.009" viewBox="0 0 118.224 118.009">
  <defs>
    <clipPath id="clip-path">
      <rect id="Rectangle_713" data-name="Rectangle 713" width="118.224" height="118.009" fill="#ff6c1a" stroke="#ff6c1a" stroke-width="1"/>
    </clipPath>
  </defs>
  <g id="Group_3720-2" data-name="Group 3720" clip-path="url(#clip-path)">
    <path id="Path_6695" data-name="Path 6695" d="M1.788,251.576a1.788,1.788,0,0,0,1.788-1.788v-.024a1.788,1.788,0,1,0-1.788,1.812" transform="translate(0 -190.717)" fill="#ff6c1a" stroke="#ff6c1a" stroke-width="1"/>
    <path id="Path_6696" data-name="Path 6696" d="M173.5,15.227a1.788,1.788,0,1,0-2.251-1.152,1.8,1.8,0,0,0,2.251,1.152" transform="translate(-131.641 -9.026)" fill="#ff6c1a" stroke="#ff6c1a" stroke-width="1"/>
    <path id="Path_6697" data-name="Path 6697" d="M203.522,7.491a1.788,1.788,0,1,0-2.105-1.413,1.806,1.806,0,0,0,2.105,1.413" transform="translate(-154.883 -3.035)" fill="#ff6c1a" stroke="#ff6c1a" stroke-width="1"/>
    <path id="Path_6698" data-name="Path 6698" d="M31.632,367.737h0a1.789,1.789,0,0,0-.689,2.433l.005.01a1.788,1.788,0,0,0,3.133-1.723l-.018-.032a1.787,1.787,0,0,0-2.432-.687" transform="translate(-23.624 -282.649)" fill="#ff6c1a" stroke="#ff6c1a" stroke-width="1"/>
    <path id="Path_6699" data-name="Path 6699" d="M144.752,26.623a1.8,1.8,0,0,0,.875-2.422,1.781,1.781,0,0,0-2.386-.819,1.788,1.788,0,1,0,1.511,3.241" transform="translate(-109.371 -17.843)" fill="#ff6c1a" stroke="#ff6c1a" stroke-width="1"/>
    <path id="Path_6700" data-name="Path 6700" d="M3.682,220.469a1.8,1.8,0,1,0-1.778-2,1.787,1.787,0,0,0,1.778,2" transform="translate(-1.454 -166.792)" fill="#ff6c1a" stroke="#ff6c1a" stroke-width="1"/>
    <path id="Path_6701" data-name="Path 6701" d="M9,189.784a1.8,1.8,0,1,0-1.281-2.194l0,.017A1.788,1.788,0,0,0,9,189.784" transform="translate(-5.893 -143.236)" fill="#ff6c1a" stroke="#ff6c1a" stroke-width="1"/>
    <path id="Path_6702" data-name="Path 6702" d="M33.172,128.571a1.8,1.8,0,1,0,.722,2.423,1.8,1.8,0,0,0-.722-2.423" transform="translate(-23.473 -98.719)" fill="#ff6c1a" stroke="#ff6c1a" stroke-width="1"/>
    <path id="Path_6703" data-name="Path 6703" d="M18.417,160.044a1.8,1.8,0,1,0-1-2.361,1.8,1.8,0,0,0,1,2.361" transform="translate(-13.294 -120.415)" fill="#ff6c1a" stroke="#ff6c1a" stroke-width="1"/>
    <path id="Path_6704" data-name="Path 6704" d="M234.052,3.625a1.788,1.788,0,1,0-1.783-1.683,1.795,1.795,0,0,0,1.783,1.683" transform="translate(-178.634 -0.038)" fill="#ff6c1a" stroke="#ff6c1a" stroke-width="1"/>
    <path id="Path_6705" data-name="Path 6705" d="M467.594,371a1.789,1.789,0,0,0,1.574-.937l.005-.01a1.788,1.788,0,1,0-3.133-1.723l-.017.032A1.8,1.8,0,0,0,467.594,371" transform="translate(-358.25 -282.566)" fill="#ff6c1a" stroke="#ff6c1a" stroke-width="1"/>
    <path id="Path_6706" data-name="Path 6706" d="M265.249,3.577a1.789,1.789,0,1,0-1.81-1.894,1.788,1.788,0,0,0,1.81,1.894" transform="translate(-202.607 0)" fill="#ff6c1a" stroke="#ff6c1a" stroke-width="1"/>
    <path id="Path_6707" data-name="Path 6707" d="M488.714,187.807a1.788,1.788,0,1,0,3.466-.879l-.007-.029a1.788,1.788,0,1,0-3.458.909" transform="translate(-375.823 -142.716)" fill="#ff6c1a" stroke="#ff6c1a" stroke-width="1"/>
    <path id="Path_6708" data-name="Path 6708" d="M496.066,216.152a1.8,1.8,0,1,0,2.013,1.588l-.006-.049a1.788,1.788,0,0,0-2.007-1.539" transform="translate(-380.327 -166.229)" fill="#ff6c1a" stroke="#ff6c1a" stroke-width="1"/>
    <path id="Path_6709" data-name="Path 6709" d="M480.086,156.027h0a1.788,1.788,0,0,0-1.015,2.316l.021.054a1.788,1.788,0,0,0,3.311-1.351l0,0a1.787,1.787,0,0,0-2.316-1.015" transform="translate(-368.356 -119.904)" fill="#ff6c1a" stroke="#ff6c1a" stroke-width="1"/>
    <path id="Path_6710" data-name="Path 6710" d="M325.862,15.006a1.788,1.788,0,1,0-1.169-2.248,1.8,1.8,0,0,0,1.169,2.248" transform="translate(-249.654 -8.855)" fill="#ff6c1a" stroke="#ff6c1a" stroke-width="1"/>
    <path id="Path_6711" data-name="Path 6711" d="M468.285,131.126a1.789,1.789,0,0,0,.689-2.433l-.005-.01a1.788,1.788,0,0,0-3.133,1.723l.018.032a1.777,1.777,0,0,0,2.432.687" transform="translate(-358.101 -98.257)" fill="#ff6c1a" stroke="#ff6c1a" stroke-width="1"/>
    <path id="Path_6712" data-name="Path 6712" d="M354.65,26.362a1.788,1.788,0,1,0-.867-2.379,1.8,1.8,0,0,0,.867,2.379" transform="translate(-271.963 -17.655)" fill="#ff6c1a" stroke="#ff6c1a" stroke-width="1"/>
    <path id="Path_6713" data-name="Path 6713" d="M295.868,7.369a1.8,1.8,0,0,0,2.077-1.449A1.783,1.783,0,0,0,296.5,3.85h0a1.788,1.788,0,1,0-.628,3.52" transform="translate(-226.396 -2.935)" fill="#ff6c1a" stroke="#ff6c1a" stroke-width="1"/>
    <path id="Path_6714" data-name="Path 6714" d="M118.511,106.138a11.86,11.86,0,0,0-7.449,2.624l-6.332-6.332a38.5,38.5,0,0,0,.65-51.942l6.464-6.464a11.959,11.959,0,1,0-2.629-2.427l-6.332,6.332a38.545,38.545,0,0,0-52.671-.018L43.9,41.6a11.9,11.9,0,1,0-2.629,2.428l6.451,6.451a38.722,38.722,0,0,0-3.754,4.985,1.781,1.781,0,0,0-.179.239,38.813,38.813,0,0,0-5.069,12.858c-.006.024-.013.048-.018.073-.031.157-.058.314-.087.472l-.018.1q-.06.329-.113.659c-.008.048-.015.1-.023.144q-.225,1.419-.345,2.858l-.007.083c-.085,1.05-.131,2.1-.131,3.159A38.437,38.437,0,0,0,48.381,102.43l-6.332,6.332a11.9,11.9,0,1,0,2.428,2.629l6.464-6.464a38.5,38.5,0,0,0,51.23,0l6.464,6.464a11.916,11.916,0,1,0,9.877-5.253m0-80.333a8.343,8.343,0,1,1-8.343,8.343,8.353,8.353,0,0,1,8.343-8.343M34.6,42.491a8.343,8.343,0,1,1,8.343-8.343A8.353,8.353,0,0,1,34.6,42.491m0,83.909a8.343,8.343,0,1,1,8.343-8.343A8.353,8.353,0,0,1,34.6,126.4m41.954-15.292A35.045,35.045,0,0,1,41.55,76.1c0-.116,0-.231,0-.347h0q.011-1.408.139-2.824c.006-.067.01-.134.017-.2.013-.135.029-.27.043-.4s.028-.265.043-.4c.018-.151.038-.3.058-.451.015-.111.029-.221.044-.331.024-.173.051-.345.078-.518.013-.081.025-.163.039-.245q.048-.294.1-.589c.009-.052.019-.1.028-.155A35.053,35.053,0,0,1,43.813,63.7q.439-1.163.96-2.292c.008-.016.017-.03.024-.046a35.038,35.038,0,0,1,6.665-9.66l.006-.005.01-.011a35.005,35.005,0,1,1,25.078,59.427M118.511,126.4a8.343,8.343,0,1,1,8.343-8.343,8.353,8.353,0,0,1-8.343,8.343" transform="translate(-17.445 -17.096)" fill="#ff6c1a" stroke="#ff6c1a" stroke-width="1"/>
    <path id="Path_6715" data-name="Path 6715" d="M355.015,472.616l-.032.015a1.788,1.788,0,0,0,1.535,3.229l.012-.005a1.788,1.788,0,1,0-1.515-3.239" transform="translate(-272.231 -363.356)" fill="#ff6c1a" stroke="#ff6c1a" stroke-width="1"/>
    <path id="Path_6716" data-name="Path 6716" d="M481.589,339.315h0a1.787,1.787,0,0,0-2.316,1.015,1.811,1.811,0,0,0,1.656,2.461,1.788,1.788,0,0,0,1.657-1.116l.018-.045a1.788,1.788,0,0,0-1.015-2.316" transform="translate(-368.512 -260.87)" fill="#ff6c1a" stroke="#ff6c1a" stroke-width="1"/>
    <path id="Path_6717" data-name="Path 6717" d="M496.566,278.945h0a1.792,1.792,0,0,0-1.99,1.559s0,.02,0,.025a1.788,1.788,0,0,0,3.551.419s0-.021,0-.025a1.782,1.782,0,0,0-1.561-1.978" transform="translate(-380.361 -214.525)" fill="#ff6c1a" stroke="#ff6c1a" stroke-width="1"/>
    <path id="Path_6718" data-name="Path 6718" d="M326.254,484.027h0l-.039.013a1.788,1.788,0,0,0,1.13,3.392l.008,0a1.788,1.788,0,0,0-1.1-3.4" transform="translate(-249.951 -372.195)" fill="#ff6c1a" stroke="#ff6c1a" stroke-width="1"/>
    <path id="Path_6719" data-name="Path 6719" d="M500.089,249.03a1.788,1.788,0,1,0-3.576,0v.024c0,.018,0,.036,0,.055s0,.033,0,.05v.024c-.023,2.27,3.6,2.3,3.576,0v-.024c0-.018,0-.036,0-.055s0-.033,0-.05Z" transform="translate(-381.865 -190.152)" fill="#ff6c1a" stroke="#ff6c1a" stroke-width="1"/>
    <path id="Path_6720" data-name="Path 6720" d="M490.986,309.584h0a1.788,1.788,0,0,0-2.177,1.285l-.008.029a1.788,1.788,0,1,0,3.466.88l0-.017a1.788,1.788,0,0,0-1.286-2.177" transform="translate(-375.89 -238.055)" fill="#ff6c1a" stroke="#ff6c1a" stroke-width="1"/>
    <path id="Path_6721" data-name="Path 6721" d="M173.947,484.08a1.787,1.787,0,0,0-2.267,1.12,1.822,1.822,0,0,0,1.718,2.369,1.787,1.787,0,0,0,.548-3.489" transform="translate(-131.968 -372.23)" fill="#ff6c1a" stroke="#ff6c1a" stroke-width="1"/>
    <path id="Path_6722" data-name="Path 6722" d="M145.132,472.679a1.788,1.788,0,1,0,.867,2.379,1.788,1.788,0,0,0-.867-2.379" transform="translate(-109.654 -363.4)" fill="#ff6c1a" stroke="#ff6c1a" stroke-width="1"/>
    <path id="Path_6723" data-name="Path 6723" d="M3.978,282.668a1.8,1.8,0,1,0-2.013-1.588,1.806,1.806,0,0,0,2.013,1.588" transform="translate(-1.501 -214.641)" fill="#ff6c1a" stroke="#ff6c1a" stroke-width="1"/>
    <path id="Path_6724" data-name="Path 6724" d="M296.267,491.711h0a1.788,1.788,0,1,0,.621,3.521l.054-.01a1.788,1.788,0,0,0-.675-3.511" transform="translate(-226.72 -378.146)" fill="#ff6c1a" stroke="#ff6c1a" stroke-width="1"/>
    <path id="Path_6725" data-name="Path 6725" d="M11.3,311.046h0a1.788,1.788,0,1,0-1.283,2.186,1.788,1.788,0,0,0,1.283-2.186" transform="translate(-5.981 -238.187)" fill="#ff6c1a" stroke="#ff6c1a" stroke-width="1"/>
    <path id="Path_6726" data-name="Path 6726" d="M19.85,342.794h0a1.788,1.788,0,0,0,1.015-2.316l-.021-.054a1.788,1.788,0,0,0-3.311,1.351l0,0a1.793,1.793,0,0,0,2.316,1.015" transform="translate(-13.38 -260.963)" fill="#ff6c1a" stroke="#ff6c1a" stroke-width="1"/>
    <path id="Path_6727" data-name="Path 6727" d="M265.592,495.572l-.048,0a1.788,1.788,0,0,0,.252,3.567h.006a1.788,1.788,0,0,0-.21-3.57" transform="translate(-202.957 -381.139)" fill="#ff6c1a" stroke="#ff6c1a" stroke-width="1"/>
    <path id="Path_6728" data-name="Path 6728" d="M203.9,491.748h0l-.053-.01a1.788,1.788,0,1,0-.632,3.519,2.012,2.012,0,0,0,.347.034,1.788,1.788,0,0,0,.339-3.543" transform="translate(-155.161 -378.171)" fill="#ff6c1a" stroke="#ff6c1a" stroke-width="1"/>
    <path id="Path_6729" data-name="Path 6729" d="M234.613,495.582a1.788,1.788,0,1,0-.21,3.57c.036,0,.071,0,.107,0a1.788,1.788,0,0,0,.1-3.573" transform="translate(-178.965 -381.146)" fill="#ff6c1a" stroke="#ff6c1a" stroke-width="1"/>
    <path id="Path_6730" data-name="Path 6730" d="M207.034,207.777a10.38,10.38,0,1,0-11.619,0,16.973,16.973,0,0,0-10.639,11.838l3,0a14.126,14.126,0,0,1,13.447-9.973,14.06,14.06,0,0,1,13.449,9.973h3a16.988,16.988,0,0,0-10.634-11.843m-5.811-1.106a7.49,7.49,0,1,1,7.49-7.49,7.5,7.5,0,0,1-7.49,7.49" transform="translate(-142.11 -145.206)" fill="#ff6c1a" stroke="#ff6c1a" stroke-width="1"/>
  </g>
</svg>
