<svg id="Group_3616" data-name="Group 3616" xmlns="http://www.w3.org/2000/svg" xmlns:xlink="http://www.w3.org/1999/xlink" width="125.541" height="112.263" viewBox="0 0 125.541 112.263">
  <defs>
    <clipPath id="clip-path">
      <rect id="Rectangle_664" data-name="Rectangle 664" width="125.541" height="112.263" fill="#ff6c1a" stroke="#ff6c1a" stroke-width="1.5"/>
    </clipPath>
  </defs>
  <g id="Group_3615" data-name="Group 3615" clip-path="url(#clip-path)">
    <path id="Path_6493" data-name="Path 6493" d="M115.487,0H10.053A10.064,10.064,0,0,0,0,10.053V83.07A10.064,10.064,0,0,0,10.053,93.123H55.209v7.518H48.549a5.818,5.818,0,0,0-5.811,5.811v4.585a1.226,1.226,0,0,0,1.226,1.226H81.577a1.226,1.226,0,0,0,1.226-1.226v-4.585a5.818,5.818,0,0,0-5.811-5.811H70.331V93.123h45.156A10.064,10.064,0,0,0,125.541,83.07V10.053A10.064,10.064,0,0,0,115.487,0M80.351,106.453v3.359H45.19v-3.359a3.363,3.363,0,0,1,3.359-3.359H76.992a3.363,3.363,0,0,1,3.359,3.359m-12.472-5.811H57.661V93.123H67.879Zm47.609-9.971H10.053a7.61,7.61,0,0,1-7.6-7.6v-4H123.089v4a7.61,7.61,0,0,1-7.6,7.6m7.6-14.056H2.452V10.053a7.61,7.61,0,0,1,7.6-7.6H115.487a7.61,7.61,0,0,1,7.6,7.6ZM94.646,66.1H90V34.874a1.864,1.864,0,0,0-1.861-1.861H79.654a1.864,1.864,0,0,0-1.861,1.861V66.1H75.918V41.445a1.863,1.863,0,0,0-1.861-1.861H65.568a1.864,1.864,0,0,0-1.861,1.861V66.1H61.833V48.016a1.863,1.863,0,0,0-1.861-1.861H51.483a1.864,1.864,0,0,0-1.861,1.861V66.1H47.748V54.587a1.863,1.863,0,0,0-1.861-1.861H37.4a1.863,1.863,0,0,0-1.861,1.861V66.1H30.895a1.226,1.226,0,0,0,0,2.452H94.646a1.226,1.226,0,0,0,0-2.452Zm-14.4-30.631h7.307V66.1H80.245ZM66.159,42.036h7.307V66.1H66.159ZM52.074,48.608h7.307V66.1H52.074ZM37.989,55.179H45.3V66.1H37.989Zm.852-14.08q1.357.089,2.722.089c13.461,0,27.5-6.419,39.025-17.915l2.289,1.555a1.226,1.226,0,0,0,1.911-1.117L83.769,11.641a1.226,1.226,0,0,0-1.575-1.071l-11.6,3.49a1.226,1.226,0,0,0-.336,2.188l2.152,1.463A53.678,53.678,0,0,1,38.7,38.669a1.226,1.226,0,0,0,.139,2.429ZM59.4,33.13A56.187,56.187,0,0,0,75.144,18.114a1.226,1.226,0,0,0-.294-1.709l-.018-.013-1.068-.726,7.688-2.313.676,8-1.005-.683a1.226,1.226,0,0,0-1.567.157C70.878,29.722,60.7,35.583,50.467,37.772A56.447,56.447,0,0,0,59.4,33.131Z" fill="#ff6c1a" stroke="#ff6c1a" stroke-width="1.5"/>
  </g>
</svg>
