<svg id="Group_3690" data-name="Group 3690" xmlns="http://www.w3.org/2000/svg" xmlns:xlink="http://www.w3.org/1999/xlink" width="116" height="116" viewBox="0 0 116 116">
  <defs>
    <clipPath id="clip-path">
      <rect id="Rectangle_700" data-name="Rectangle 700" width="116" height="116" fill="none"/>
    </clipPath>
  </defs>
  <g id="Group_3689" data-name="Group 3689" clip-path="url(#clip-path)">
    <path id="Path_6642" data-name="Path 6642" d="M93.5,116h-71A22.534,22.534,0,0,1,0,93.5v-71A22.534,22.534,0,0,1,22.5,0h71A22.534,22.534,0,0,1,116,22.5v71A22.47,22.47,0,0,1,93.5,116" fill="#fff"/>
    <path id="Path_6643" data-name="Path 6643" d="M96.906,50.8a2.155,2.155,0,0,0-1,.272l-21.042-29.9-.088-.38a.3.3,0,0,0-.3-.3h-.09l-.213-.3a.3.3,0,0,0-.3-.3L36.539,23.3a2.382,2.382,0,0,0-4.5,1.128,2.436,2.436,0,0,0,.771,1.678L17.182,60.2v.3l.145.206c-.125.22-.074.4.158.4l.2.114L39.1,91.645a2.4,2.4,0,0,0-.7,1.6,2.608,2.608,0,0,0,2.426,2.425,2.385,2.385,0,0,0,2.419-2.371l36.988-3.388c.606,0,.606-.3.909,0l.042-1.717L96.168,55.5a2.054,2.054,0,0,0,.738.155,2.231,2.231,0,0,0,2.425-2.425A2.609,2.609,0,0,0,96.906,50.8M79.937,89.024l-.618.057L60,82.182l11.372-6.634a2.516,2.516,0,0,0,1.889,1.02,2.231,2.231,0,0,0,2.425-2.425,2.317,2.317,0,0,0-.519-1.384l5.284-4.674ZM94.571,52.673l-12.65-.924L79.9,43.005l14.863,9.2a2.376,2.376,0,0,0-.195.468M80.658,51.512l-12.37-4.465L66.142,35.9a2.464,2.464,0,0,0,1.249-.646l11.16,6.909ZM71,73.367l-9.872-3.394L70.9,61.587l1.914,10.185A2.73,2.73,0,0,0,71,73.367m-10.7-3.678L48,65.46,45.213,51.514,54.946,43.1l13.387,4.82,2.407,12.8ZM48.031,65.607l12.135,4.2-9.639,8.276ZM36.239,59.269l8.334-7.2,2.542,13.087-10.5-3.609a4.2,4.2,0,0,0,.27-.741,2.377,2.377,0,0,0-.647-1.536m-.326-33.078a3.5,3.5,0,0,0,.62-.843l18.639,5.537L42.587,37.771l-.211-.076Zm20.158,4.961,7.215,2.143a1.768,1.768,0,0,0-.028.229,2.379,2.379,0,0,0,.649,1.537L55.422,42.4,43.436,38.077Zm7.99,4.077a2.171,2.171,0,0,0,2.014.683L68.16,47l-12.5-4.512ZM54.71,43.02l-9.544,8.259-2.521-12.6Zm13.756,4.952,12.071,4.346L70.9,60.594Zm-.751-13.11a2.4,2.4,0,0,0,.393-1.338,2.4,2.4,0,0,0-4.677-.788l-6.67-1.962L73.868,21.4,78.4,41.518ZM55.859,30.509,36.742,24.886c.047-.124.084-.249.118-.375L72.9,21.184ZM35.157,26.7l6.456,11.491.239-.134.03.154-7.421,6.78V26.855a1.8,1.8,0,0,0,.7-.152m6.87,12.261,2.5,12.868-8.421,7.287a2.425,2.425,0,0,0-1.645-.739V45.86ZM34.158,58.416a2.416,2.416,0,0,0,.3,4.814,1.715,1.715,0,0,0,.217-.027l1.43,7.421L18.4,60.5,34.158,46.136Zm.817,4.731a2.8,2.8,0,0,0,1.6-1.506L47.143,65.3l2.541,13.081L36.469,70.83ZM49.629,79.132l-7.863,11.92a2.124,2.124,0,0,0-.939-.237,1.946,1.946,0,0,0-.461.057l-3.7-19.006ZM42.435,91.523l7.82-12.11,9,3.15L42.871,92.055a2.809,2.809,0,0,0-.436-.532M50.757,78.88l10.236-8.786,9.951,3.445a2,2,0,0,0-.107.6,2.322,2.322,0,0,0,.531,1.4L59.945,82.162Zm24.41-6.123a2.525,2.525,0,0,0-1.9-1.039,2.023,2.023,0,0,0-.218.026L71.062,61.45l9.759-8.378-.369,15Zm6.877-20.088,12.479.913a2.575,2.575,0,0,0,.761,1.35L81.7,66.971Zm13.31-1.207a2.851,2.851,0,0,0-.359.386L79.754,42.359l-4.433-19.21Zm-61.2-24.644V45.271L18.527,59.55l15.056-32.9a2.186,2.186,0,0,0,.575.167m2.15,44.845L40.031,90.99a2.638,2.638,0,0,0-.271.136L19.2,62.07ZM43.07,92.427a2.452,2.452,0,0,0-.147-.283l16.389-9.561,18.867,6.6Zm38.147-5.579L81.7,66.983,95.3,54.948a2.826,2.826,0,0,0,.375.3Z" fill="#ff6c1a" stroke="#ff6c1a" stroke-width="1" fill-rule="evenodd"/>
  </g>
</svg>
