<svg id="Group_3614" data-name="Group 3614" xmlns="http://www.w3.org/2000/svg" xmlns:xlink="http://www.w3.org/1999/xlink" width="123.819" height="111.465" viewBox="0 0 123.819 111.465">
  <defs>
    <clipPath id="clip-path">
      <rect id="Rectangle_663" data-name="Rectangle 663" width="123.819" height="111.465" fill="#ff6c1a" stroke="#ff6c1a" stroke-width="1"/>
    </clipPath>
  </defs>
  <g id="Group_3613" data-name="Group 3613" clip-path="url(#clip-path)">
    <path id="Path_6491" data-name="Path 6491" d="M4.268,98.079H66.825a15.122,15.122,0,0,0,5.318,9.843H15.153c-5.767,0-9.932-4.368-10.884-9.843M108.655,3.543c5.768,0,9.94,4.365,10.894,9.84H97.185A11.543,11.543,0,0,1,108.655,3.543ZM31.249,0A15.168,15.168,0,0,0,16.091,15.161V94.535H1.589A1.7,1.7,0,0,0,0,96.3a15.163,15.163,0,0,0,15.153,15.161l66.977-.009a14.8,14.8,0,0,0,9.067-3.177,1.772,1.772,0,0,0-1.262-3.186,1.7,1.7,0,0,0-.9.375,14.655,14.655,0,0,1-7.151,2.453,11.578,11.578,0,0,1-11.6-11.186c-.089-1.727-.749-2.2-2.068-2.2H19.64V15.161A11.549,11.549,0,0,1,31.249,3.543H98.92a15.12,15.12,0,0,0-5.391,11.013L93.5,26.13a1.773,1.773,0,1,0,3.544,0v-9.2h25.01a1.78,1.78,0,0,0,1.769-1.766A15.062,15.062,0,0,0,108.935.013Z" fill="#ff6c1a" stroke="#ff6c1a" stroke-width="1" fill-rule="evenodd"/>
    <path id="Path_6492" data-name="Path 6492" d="M180.249,139.64a4.89,4.89,0,0,1,3.308,1.728l11.8,13.955a4.861,4.861,0,0,1-7.42,6.281L176.127,147.65a4.811,4.811,0,0,1,.577-6.852,4.877,4.877,0,0,1,3.544-1.157M150.091,79.929a29.879,29.879,0,1,1-18.922,7.079,29.794,29.794,0,0,1,18.922-7.079m-.048-3.529a33.426,33.426,0,1,0,20.66,60.037l2.484,2.939a8.433,8.433,0,0,0,.244,10.561l11.8,13.945a8.408,8.408,0,1,0,12.84-10.859l-11.8-13.952a8.438,8.438,0,0,0-10.371-1.98l-2.493-2.951A33.417,33.417,0,0,0,150.043,76.4Z" transform="translate(-84.872 -55.394)" fill="#ff6c1a" stroke="#ff6c1a" stroke-width="1" fill-rule="evenodd"/>
  </g>
</svg>
