<svg id="Group_3532" data-name="Group 3532" xmlns="http://www.w3.org/2000/svg" xmlns:xlink="http://www.w3.org/1999/xlink" width="114.547" height="114.491" viewBox="0 0 114.547 114.491">
  <defs>
    <clipPath id="clip-path">
      <rect id="Rectangle_647" data-name="Rectangle 647" width="114.547" height="114.491" fill="#ff6c1a"/>
    </clipPath>
  </defs>
  <g id="Group_3531" data-name="Group 3531" clip-path="url(#clip-path)">
    <path id="Path_6430" data-name="Path 6430" d="M193.585,195.583h19.082a5.725,5.725,0,0,0,5.725-5.725V172.685a5.725,5.725,0,0,0-5.725-5.725v-3.816a9.541,9.541,0,0,0-19.082,0v3.816a5.725,5.725,0,0,0-5.725,5.725v17.174a5.725,5.725,0,0,0,5.725,5.725m3.816-32.439a5.725,5.725,0,1,1,11.449,0v3.816H197.4Zm-5.725,9.541a1.908,1.908,0,0,1,1.908-1.908h19.082a1.908,1.908,0,0,1,1.908,1.908v17.174a1.908,1.908,0,0,1-1.908,1.908H193.585a1.908,1.908,0,0,1-1.908-1.908Z" transform="translate(-145.853 -119.255)" fill="#ff6c1a"/>
    <path id="Path_6431" data-name="Path 6431" d="M234.343,258.485v.351a1.908,1.908,0,1,0,3.816,0v-.351a5.724,5.724,0,1,0-3.816,0m1.908-7.282a1.908,1.908,0,1,1-1.908,1.908A1.908,1.908,0,0,1,236.251,251.2Z" transform="translate(-178.977 -192.049)" fill="#ff6c1a"/>
    <path id="Path_6432" data-name="Path 6432" d="M111.061,143.374A32.439,32.439,0,1,0,143.5,110.935a32.439,32.439,0,0,0-32.439,32.439M143.5,114.751a28.623,28.623,0,1,1-28.623,28.623A28.623,28.623,0,0,1,143.5,114.751" transform="translate(-86.226 -86.128)" fill="#ff6c1a"/>
    <path id="Path_6433" data-name="Path 6433" d="M340.668,384.042a7.633,7.633,0,0,0-7.362,5.724H319.678V378.231a39.884,39.884,0,0,0,11.449-8.119,1.908,1.908,0,1,0-2.725-2.672,36.176,36.176,0,0,1-11.329,7.833,1.872,1.872,0,0,0-.675.46c-.021.023-.033.053-.053.08a1.889,1.889,0,0,0-.334.525,1.829,1.829,0,0,0-.074.368,1.774,1.774,0,0,0-.074.332v12.727a3.816,3.816,0,0,0,3.816,3.816h13.628a7.619,7.619,0,1,0,7.362-9.541Zm0,11.449a3.816,3.816,0,1,1,3.816-3.816,3.816,3.816,0,0,1-3.816,3.816" transform="translate(-245.231 -284.816)" fill="#ff6c1a"/>
    <path id="Path_6434" data-name="Path 6434" d="M15.023,296.858h9.22c.015,0,.029-.01.046-.01a1.832,1.832,0,0,0,.555-.112,1.922,1.922,0,0,0,.259-.107c.021-.012.046-.015.067-.029s.053-.053.084-.074a1.788,1.788,0,0,0,.454-.4,1.11,1.11,0,0,0,.063-.092,1.874,1.874,0,0,0,.275-.572.468.468,0,0,1,.017-.086,1.807,1.807,0,0,0,.088-.426,1.651,1.651,0,0,0-.044-.214.15.15,0,0,0-.013-.074,1.857,1.857,0,0,0-.216-.637l-.01-.031a35.942,35.942,0,0,1-4.125-10.877,1.909,1.909,0,1,0-3.74.763,39.783,39.783,0,0,0,3.053,9.159H15.023a7.633,7.633,0,1,0,0,3.816Zm-7.362,1.908a3.816,3.816,0,1,1,3.816-3.816,3.816,3.816,0,0,1-3.816,3.816" transform="translate(0 -218.623)" fill="#ff6c1a"/>
    <path id="Path_6435" data-name="Path 6435" d="M.128,124.293A7.617,7.617,0,0,0,15.122,126.2h9.272a1.957,1.957,0,0,0,.552-.112,1.725,1.725,0,0,0,.244-.1,1.67,1.67,0,0,0,.286-.191,1.792,1.792,0,0,0,.412-.437c.025-.036.057-.063.08-.1a36.192,36.192,0,0,1,9.652-10.89,1.908,1.908,0,0,0-2.29-3.053,40.013,40.013,0,0,0-10.05,11.068H15.122A7.617,7.617,0,0,0,.128,124.293Zm11.449,0a3.817,3.817,0,1,1-1.118-2.7,3.816,3.816,0,0,1,1.118,2.7" transform="translate(-0.099 -86.129)" fill="#ff6c1a"/>
    <path id="Path_6436" data-name="Path 6436" d="M413.8,287.32a7.633,7.633,0,0,0-7.362,5.725H400.4a39.636,39.636,0,0,0,3.053-9.159,1.91,1.91,0,1,0-3.742-.763A35.935,35.935,0,0,1,395.588,294v.025a1.853,1.853,0,0,0-.221.652.1.1,0,0,1-.013.061,2.085,2.085,0,0,0-.048.216,1.9,1.9,0,0,0,.088.441.13.13,0,0,0,.015.074,1.828,1.828,0,0,0,.28.572c.019.029.035.057.056.084a1.853,1.853,0,0,0,.458.4c.03.021.049.053.082.072a.675.675,0,0,0,.066.029,1.778,1.778,0,0,0,.263.109,1.911,1.911,0,0,0,.551.11c.017,0,.03.01.048.01h9.22a7.619,7.619,0,1,0,7.362-9.539Zm0,11.449a3.816,3.816,0,1,1,3.816-3.816,3.816,3.816,0,0,1-3.816,3.816" transform="translate(-306.91 -218.626)" fill="#ff6c1a"/>
    <path id="Path_6437" data-name="Path 6437" d="M83.667,370.391v-.032a1.933,1.933,0,0,0-.063-.317,2,2,0,0,0-.078-.382,1.872,1.872,0,0,0-.328-.517c-.025-.029-.036-.063-.061-.09a1.883,1.883,0,0,0-.677-.46,36.557,36.557,0,0,1-12.987-9.644,1.908,1.908,0,1,0-2.9,2.481,40.372,40.372,0,0,0,13.277,10.148v11.508H66.223a7.633,7.633,0,1,0,0,3.816H79.851a3.816,3.816,0,0,0,3.816-3.816ZM58.861,388.81a3.816,3.816,0,1,1,3.816-3.816,3.816,3.816,0,0,1-3.816,3.816" transform="translate(-39.751 -278.136)" fill="#ff6c1a"/>
    <path id="Path_6438" data-name="Path 6438" d="M230.1,414.725a36.831,36.831,0,0,1-14.5,0,1.908,1.908,0,1,0-.763,3.738,40.215,40.215,0,0,0,6.106.708v15.361a1.908,1.908,0,0,0,3.816,0V419.171a40.192,40.192,0,0,0,6.106-.708,1.908,1.908,0,0,0-.763-3.738Z" transform="translate(-165.572 -321.949)" fill="#ff6c1a"/>
    <path id="Path_6439" data-name="Path 6439" d="M79.851,5.724H66.223a7.633,7.633,0,1,0,0,3.816H79.851V22.272a1.955,1.955,0,0,0,.046.227,1.9,1.9,0,0,0,.151.572,1.779,1.779,0,0,0,.313.464,1.716,1.716,0,0,0,.208.191,2.027,2.027,0,0,0,.574.328,1.946,1.946,0,0,0,.42.084,1.69,1.69,0,0,0,.191.04,1.89,1.89,0,0,0,.788-.191,36.192,36.192,0,0,1,7.232-2.271,1.909,1.909,0,0,0-.763-3.742,39.705,39.705,0,0,0-5.343,1.488V9.541A3.816,3.816,0,0,0,79.851,5.724Zm-20.99,5.725a3.817,3.817,0,1,1,2.7-1.118,3.816,3.816,0,0,1-2.7,1.118" transform="translate(-39.751 0)" fill="#ff6c1a"/>
    <path id="Path_6440" data-name="Path 6440" d="M333.306,9.541a7.633,7.633,0,1,0,0-3.816H319.678a3.816,3.816,0,0,0-3.816,3.816V22.267a1.754,1.754,0,0,0,.067.332,1.831,1.831,0,0,0,.074.368,1.89,1.89,0,0,0,.334.525c.021.025.033.057.053.08a1.876,1.876,0,0,0,.676.46,36.181,36.181,0,0,1,11.329,7.824,1.908,1.908,0,1,0,2.732-2.66,39.884,39.884,0,0,0-11.449-8.119V9.541Zm7.362-5.725a3.816,3.816,0,1,1-3.816,3.816,3.816,3.816,0,0,1,3.816-3.816" transform="translate(-245.231 0)" fill="#ff6c1a"/>
    <path id="Path_6441" data-name="Path 6441" d="M249.5,0a1.908,1.908,0,0,0-1.908,1.908V19.084a1.908,1.908,0,0,0,1.908,1.908,36.541,36.541,0,0,1,7.251.725,1.852,1.852,0,0,0,.381.038,1.908,1.908,0,0,0,.382-3.776,40.167,40.167,0,0,0-6.106-.708V1.91A1.908,1.908,0,0,0,249.5,0" transform="translate(-192.229 -0.002)" fill="#ff6c1a"/>
    <path id="Path_6442" data-name="Path 6442" d="M406.434,146.074a7.633,7.633,0,1,0,0-3.816h-9.22c-.036,0-.065.019-.1.019a1.769,1.769,0,0,0-.327.067,1.836,1.836,0,0,0-.452.153.06.06,0,0,0-.051.019.471.471,0,0,1-.082.073,1.849,1.849,0,0,0-.458.4c-.021.027-.036.055-.056.084a1.83,1.83,0,0,0-.28.572.132.132,0,0,1-.015.074,1.891,1.891,0,0,0-.088.443,2.029,2.029,0,0,0,.042.217.354.354,0,0,0,.013.061,1.857,1.857,0,0,0,.221.653v.025a36.232,36.232,0,0,1,4.857,18.126,1.908,1.908,0,0,0,1.908,1.908h17.174a1.908,1.908,0,1,0,0-3.816H404.192a40.051,40.051,0,0,0-3.816-15.265Zm7.362-5.725a3.816,3.816,0,1,1-3.817,3.816,3.816,3.816,0,0,1,3.817-3.816" transform="translate(-306.91 -106.002)" fill="#ff6c1a"/>
    <path id="Path_6443" data-name="Path 6443" d="M2.036,209.808H19.21a1.908,1.908,0,0,0,1.908-1.908,36.241,36.241,0,0,1,1.811-11.35,1.908,1.908,0,0,0-3.625-1.193,39.971,39.971,0,0,0-1.927,10.634H2.036a1.908,1.908,0,0,0,0,3.816" transform="translate(-0.099 -150.654)" fill="#ff6c1a"/>
  </g>
</svg>
