<svg id="Group_3732" data-name="Group 3732" xmlns="http://www.w3.org/2000/svg" xmlns:xlink="http://www.w3.org/1999/xlink" width="116.727" height="107" viewBox="0 0 116.727 107">
  <defs>
    <clipPath id="clip-path">
      <rect id="Rectangle_724" data-name="Rectangle 724" width="116.727" height="107" fill="#ff6c1a"/>
    </clipPath>
  </defs>
  <g id="Group_3731" data-name="Group 3731" clip-path="url(#clip-path)">
    <path id="Path_6746" data-name="Path 6746" d="M90.722,19.669A36.443,36.443,0,0,0,22.645,29.24a24.312,24.312,0,0,0-1.031,48.417,2.691,2.691,0,0,0,.277.015,2.432,2.432,0,0,0,.267-4.849,19.451,19.451,0,0,1,2.549-38.778,2.435,2.435,0,0,0,2.407-2.091A31.575,31.575,0,0,1,86.947,23.01a2.429,2.429,0,0,0,2.072,1.4,24.257,24.257,0,0,1,5.175,47.562,2.432,2.432,0,0,0,1.3,4.688,29.124,29.124,0,0,0-4.771-56.992" fill="#ff6c1a"/>
    <path id="Path_6747" data-name="Path 6747" d="M195.534,265.739h-37.9l5.574-5.574a2.431,2.431,0,0,0-3.438-3.439l-9.727,9.727a2.434,2.434,0,0,0,0,3.439l9.727,9.727a2.442,2.442,0,0,0,1.722.71,2.407,2.407,0,0,0,1.717-.715,2.434,2.434,0,0,0,0-3.439l-5.574-5.574h37.9a2.432,2.432,0,1,0,0-4.864" transform="translate(-115.284 -197.648)" fill="#ff6c1a"/>
    <path id="Path_6748" data-name="Path 6748" d="M187.527,363.415a2.431,2.431,0,0,0-3.439,3.439l5.569,5.569H151.765a2.432,2.432,0,1,0,0,4.864h37.9l-5.579,5.578a2.433,2.433,0,0,0,3.439,3.443l9.727-9.727a2.433,2.433,0,0,0,0-3.438Z" transform="translate(-115.288 -280.014)" fill="#ff6c1a"/>
  </g>
</svg>
