<svg id="Group_3722" data-name="Group 3722" xmlns="http://www.w3.org/2000/svg" xmlns:xlink="http://www.w3.org/1999/xlink" width="118" height="118" viewBox="0 0 118 118">
  <defs>
    <clipPath id="clip-path">
      <rect id="Rectangle_714" data-name="Rectangle 714" width="118" height="118" fill="#ff6c1a"/>
    </clipPath>
  </defs>
  <g id="Group_3721" data-name="Group 3721" clip-path="url(#clip-path)">
    <path id="Path_6731" data-name="Path 6731" d="M13.766,76.534V65.384A1.844,1.844,0,0,1,15.61,63.54H57.156V54.866a1.844,1.844,0,0,1,3.688,0V63.54H102.39a1.844,1.844,0,0,1,1.844,1.844V76.535a1.844,1.844,0,0,1-3.688,0V67.227h-39.7v9.308a1.844,1.844,0,0,1-3.688,0V67.227h-39.7v9.308a1.844,1.844,0,0,1-3.688,0ZM74.61,92.312v15.9a1.843,1.843,0,0,1-.922,1.6l-13.766,7.949a1.846,1.846,0,0,1-1.844,0L44.312,109.8a1.841,1.841,0,0,1-.922-1.6v-15.9a1.842,1.842,0,0,1,.922-1.6l13.766-7.948a1.846,1.846,0,0,1,1.844,0l13.766,7.948a1.843,1.843,0,0,1,.921,1.6Zm-25.688,0L59,98.131l10.078-5.819L59,86.5Zm-1.844,14.831,10.078,5.82V101.324L47.077,95.506Zm23.844,0V95.506l-10.078,5.819v11.638ZM31.22,92.312v15.9a1.845,1.845,0,0,1-.922,1.6l-13.766,7.949a1.846,1.846,0,0,1-1.844,0L.922,109.8a1.841,1.841,0,0,1-.922-1.6v-15.9a1.842,1.842,0,0,1,.922-1.6l13.766-7.948a1.846,1.846,0,0,1,1.844,0L30.3,90.716a1.844,1.844,0,0,1,.922,1.6m-25.689,0L15.61,98.131l10.078-5.819L15.61,86.5ZM3.687,107.145l10.079,5.819V101.325L3.687,95.506Zm23.845,0V95.506l-10.079,5.819v11.638ZM118,92.312v15.9a1.843,1.843,0,0,1-.922,1.6l-13.766,7.949a1.846,1.846,0,0,1-1.844,0L87.7,109.8a1.843,1.843,0,0,1-.922-1.6v-15.9a1.842,1.842,0,0,1,.922-1.6l13.766-7.948a1.846,1.846,0,0,1,1.844,0l13.766,7.948a1.844,1.844,0,0,1,.922,1.6m-25.689,0,10.079,5.819,10.079-5.819L102.39,86.5Zm-1.843,14.831,10.078,5.82V101.324L90.468,95.506Zm23.844,0V95.506l-10.078,5.819v11.639ZM57.156,34.04V35.2a1.844,1.844,0,0,0,3.688,0V34.069A8.42,8.42,0,0,0,65.88,31.5,5.656,5.656,0,0,0,67.207,27c-.415-3.421-3.07-5.557-7.89-6.348-4.113-.676-4.192-2.291-4.221-2.9-.086-1.768,1.388-2.74,2.8-3.059a5.4,5.4,0,0,1,1.09-.131H59l.036,0a4.282,4.282,0,0,1,4.149,2.623,1.844,1.844,0,1,0,3.44-1.327c-.013-.033-.027-.066-.041-.1a7.744,7.744,0,0,0-5.74-4.692V9.9a1.844,1.844,0,0,0-3.688,0v1.187l-.079.016c-3.547.8-5.824,3.551-5.664,6.833.115,2.374,1.475,5.4,7.306,6.359,4.019.66,4.691,2.032,4.827,3.154a1.986,1.986,0,0,1-.455,1.643,5.5,5.5,0,0,1-3.875,1.433c-1.874.048-4.261-.726-4.84-3.047a1.844,1.844,0,1,0-3.578.892,7.781,7.781,0,0,0,6.358,5.669M36.45,22.549A22.55,22.55,0,1,1,59,45.1,22.549,22.549,0,0,1,36.45,22.549m3.688,0A18.862,18.862,0,1,0,59,3.687,18.862,18.862,0,0,0,40.138,22.549" fill="#ff6c1a"/>
  </g>
</svg>
