<svg id="Group_3700" data-name="Group 3700" xmlns="http://www.w3.org/2000/svg" xmlns:xlink="http://www.w3.org/1999/xlink" width="116" height="116" viewBox="0 0 116 116">
  <defs>
    <clipPath id="clip-path">
      <rect id="Rectangle_705" data-name="Rectangle 705" width="116" height="116" fill="none"/>
    </clipPath>
  </defs>
  <g id="Group_3699" data-name="Group 3699" clip-path="url(#clip-path)">
    <path id="Path_6658" data-name="Path 6658" d="M93.5,116h-71A22.534,22.534,0,0,1,0,93.5v-71A22.534,22.534,0,0,1,22.5,0h71A22.534,22.534,0,0,1,116,22.5v71A22.534,22.534,0,0,1,93.5,116" fill="#fff"/>
    <path id="Path_6659" data-name="Path 6659" d="M85.991,67.147a16.641,16.641,0,0,0-8.4-2.1,6.852,6.852,0,1,1-.3-13.7,16.481,16.481,0,0,0,8.5-2.3,15.908,15.908,0,0,0,5.8-22.3,17.086,17.086,0,0,0-23-5.7,15.908,15.908,0,0,0-5.8,22.3,6.658,6.658,0,0,1-2.4,9.3,7.105,7.105,0,0,1-9.5-2.2,16.868,16.868,0,0,0-29,.2,16.072,16.072,0,0,0,6.3,22.2,16.925,16.925,0,0,0,22.8-6.2l.1-.1a6.924,6.924,0,0,1,9.4-2.4,6.586,6.586,0,0,1,2.6,9.2,16.072,16.072,0,0,0,6.3,22.2,16.925,16.925,0,0,0,22.8-6.2,15.834,15.834,0,0,0-6.2-22.2" fill="#ff6c1a"/>
  </g>
</svg>
