<svg id="Group_3726" data-name="Group 3726" xmlns="http://www.w3.org/2000/svg" xmlns:xlink="http://www.w3.org/1999/xlink" width="103.059" height="116" viewBox="0 0 103.059 116">
  <defs>
    <clipPath id="clip-path">
      <rect id="Rectangle_716" data-name="Rectangle 716" width="103.059" height="116" fill="#ff6c1a" stroke="#ff6c1a" stroke-width="1"/>
    </clipPath>
  </defs>
  <g id="Group_3725" data-name="Group 3725" clip-path="url(#clip-path)">
    <path id="Path_6733" data-name="Path 6733" d="M98.435,74.02a9.251,9.251,0,0,0-11.672,2.038L74.346,69.594V46.406l12.425-6.469a9.205,9.205,0,1,0-1.7-2.964L72.639,43.446,53.3,33.38V18.33a9.244,9.244,0,1,0-3.415,0V33.38L30.552,43.446,18.119,36.973a9.319,9.319,0,1,0-1.7,2.964l12.425,6.469V69.594L16.427,76.058a9.23,9.23,0,1,0,1.692,2.968l12.433-6.472L49.888,82.62V97.67a9.243,9.243,0,1,0,3.415,0V82.62L72.639,72.554l12.433,6.472A9.243,9.243,0,1,0,98.437,74.02ZM90.9,28.928a5.829,5.829,0,1,1-2.131,7.963v0a5.8,5.8,0,0,1,2.077-7.929l.055-.031M45.766,9.251A5.829,5.829,0,1,1,51.6,15.08a5.829,5.829,0,0,1-5.829-5.829M51.6,36.342l17.346,9.031L51.6,54.4,34.249,45.371ZM6.463,39.025a5.829,5.829,0,1,1,7.961-2.137,5.829,5.829,0,0,1-7.961,2.137Zm5.829,48.048a5.829,5.829,0,1,1,2.131-7.963v0a5.8,5.8,0,0,1-2.077,7.929ZM32.259,48.184l17.628,9.178v21.41L32.259,69.594Zm25.165,58.565A5.829,5.829,0,1,1,51.6,100.92a5.829,5.829,0,0,1,5.829,5.829M53.3,78.772V57.362l17.628-9.178V69.594Zm45.56,6.168a5.885,5.885,0,1,1,.04-.072l-.042.072Z" transform="translate(0 0)" fill="#ff6c1a" stroke="#ff6c1a" stroke-width="1"/>
  </g>
</svg>
