<svg id="Group_3599" data-name="Group 3599" xmlns="http://www.w3.org/2000/svg" xmlns:xlink="http://www.w3.org/1999/xlink" width="106.685" height="123.109" viewBox="0 0 106.685 123.109">
  <defs>
    <clipPath id="clip-path">
      <rect id="Rectangle_659" data-name="Rectangle 659" width="106.685" height="123.109" fill="#ff6c1a"/>
    </clipPath>
  </defs>
  <g id="Group_3598" data-name="Group 3598" clip-path="url(#clip-path)">
    <path id="Path_6464" data-name="Path 6464" d="M21.237,26.025v3.526c0,8.384,12.671,8.376,12.671,0V26.025h3.526c8.384,0,8.376-12.671,0-12.671H33.908V9.829c0-8.384-12.671-8.376-12.671,0v3.526H17.712c-8.384,0-8.376,12.67,0,12.67Zm-3.526-9.064c8.213,0,7.132.989,7.132-7.133,0-3.611,5.457-3.607,5.457,0,0,8.115-1.082,7.133,7.133,7.133,3.611,0,3.607,5.457,0,5.457-8.213,0-7.133-.989-7.133,7.132,0,3.611-5.457,3.607-5.457,0,0-8.115,1.081-7.132-7.132-7.132-3.611,0-3.607-5.457,0-5.457M3.607,117.09V73.982A2.415,2.415,0,0,1,6.019,71.57c5.571,0,11.712.407,14.166-2.8,2.755-3.6-1-8.688-1-14.435a8.383,8.383,0,0,1,8.631-8.385,8.551,8.551,0,0,1,8.134,8.937c-.222,5.525-3.658,10.4-.988,13.882,2.6,3.392,9.284,2.8,16.578,2.8,0,20.735-.67,12.479-12.925,11.985A12.155,12.155,0,0,0,25.926,95.192a11.987,11.987,0,0,0,11.99,12.339c5.492,0,10.73-2.9,12.241-1.743,1.815,1.391,1.382,9.3,1.382,13.715-48.559,0-47.932.8-47.932-2.412m97.059,6.019a6.025,6.025,0,0,0,6.019-6.019V73.982a6.025,6.025,0,0,0-6.019-6.019c-.016-.024.338,0-4.327,0-10.109,0-8.864,3.493-8.864.805,0-5.52-2.905-10.725-1.743-12.241,1.326-1.731,8.125-1.382,14.165-1.382a3.16,3.16,0,0,0,3.156-3.156V6.019A6.025,6.025,0,0,0,97.035,0H53.927a6.026,6.026,0,0,0-6.019,6.019c0,5.571-.407,11.712,2.8,14.166,3.6,2.754,8.689-1,14.435-1a8.384,8.384,0,0,1,8.377,8.831,8.586,8.586,0,0,1-9.185,7.922c-5.412-.314-10.2-3.6-13.627-.976-3.375,2.585-2.8,9.108-2.8,17.028a3.16,3.16,0,0,0,3.156,3.156c21.471,0,12.882.734,12.444,12.846-24.341-.9-27.574,2.579-25.189-6.263,1.516-5.625,2.4-10.8-2.077-15.587a11.882,11.882,0,0,0-17.031-.4c-4.772,4.64-3.987,10.046-2.385,15.989,1.671,6.194,1.421,6.235-10.808,6.235A6.025,6.025,0,0,0,0,73.982V117.09a6.026,6.026,0,0,0,6.019,6.019h94.647m-1.219-71.57H92.708c-21.491,0-2.549,14.854-11.451,23.312a8.268,8.268,0,0,1-11.9-.449c-7.854-8.759,9.895-22.862-11.108-22.862H51.515c0-14.482-.369-15,6.235-13.22,5.354,1.443,10.527,2.454,15.429-1.941a11.871,11.871,0,0,0,.656-17.067c-4.623-4.865-10.056-4.11-16.085-2.485-4.649,1.254-6.234,2.052-6.234-6.481,0-3.259-.629-6.738,2.412-6.738H97.035c3.238,0,2.412-.522,2.412,47.932M71.5,80.074a11.936,11.936,0,0,0,12.247-2.609c2.735-2.6,1.32-3.6,2.633,1.278,1.292,4.791,2.158,8.988-1.417,12.464a8.278,8.278,0,0,1-11.881-.279c-2.971-3.18-2.641-6.7-1.582-10.855m31.582,37.016a2.415,2.415,0,0,1-2.412,2.412H55.146c0-7.555.551-14.015-2.8-16.578-3.593-2.752-8.692,1-14.435,1a8.382,8.382,0,0,1-8.385-8.631,8.55,8.55,0,0,1,8.937-8.134c5.525.222,10.4,3.658,13.882.988,3.392-2.6,2.8-9.285,2.8-16.578,7.213,0,7.5-.017,8.76.051A12.348,12.348,0,0,0,68.24,78.27c-1.472,5.493-2.113,10.5,2.2,15.121a11.884,11.884,0,0,0,17.031.4c4.772-4.64,3.987-10.046,2.385-15.989-1.254-4.649-2.052-6.234,6.481-6.234,3.257,0,6.739-.629,6.739,2.412,0,44.013-.024,43.11,0,43.108" fill="#ff6c1a"/>
  </g>
</svg>
