<svg id="Group_3694" data-name="Group 3694" xmlns="http://www.w3.org/2000/svg" xmlns:xlink="http://www.w3.org/1999/xlink" width="116" height="116" viewBox="0 0 116 116">
  <defs>
    <clipPath id="clip-path">
      <rect id="Rectangle_702" data-name="Rectangle 702" width="116" height="116" fill="none"/>
    </clipPath>
  </defs>
  <g id="Group_3693" data-name="Group 3693" clip-path="url(#clip-path)">
    <path id="Path_6651" data-name="Path 6651" d="M93.5,116h-71A22.534,22.534,0,0,1,0,93.5v-71A22.534,22.534,0,0,1,22.5,0h71A22.534,22.534,0,0,1,116,22.5v71A22.534,22.534,0,0,1,93.5,116" fill="#fff"/>
    <path id="Path_6652" data-name="Path 6652" d="M88.2,31.7,78.1,36.9,29.2,61.8A29.087,29.087,0,0,1,72.3,32.6l5.8-3,.9-.4A35.6,35.6,0,0,0,22.5,58a24.369,24.369,0,0,0,.1,2.7A6.58,6.58,0,0,1,19.1,67L16,68.6v7.3l9-4.6,5.8-3L82.4,42l5.8-3,12-6.1V25.6Z" fill="#ff6c1a"/>
    <path id="Path_6653" data-name="Path 6653" d="M100.1,40.2,33.7,74l-5.8,3L16,83.1v7.3l11.8-6,10.1-5.2,49-24.9a24.2,24.2,0,0,1,.2,3.8A29.179,29.179,0,0,1,43.7,83.5l-.4.2L37,86.9A35.6,35.6,0,0,0,93.5,58.1a24.369,24.369,0,0,0-.1-2.7,6.58,6.58,0,0,1,3.5-6.3l3.1-1.6V40.2Z" fill="#ff6c1a"/>
  </g>
</svg>
