<svg xmlns="http://www.w3.org/2000/svg" xmlns:xlink="http://www.w3.org/1999/xlink" width="142.821" height="116" viewBox="0 0 142.821 116">
  <defs>
    <clipPath id="clip-path">
      <rect id="Rectangle_760" data-name="Rectangle 760" width="142.821" height="116" fill="none"/>
    </clipPath>
  </defs>
  <g id="Group_3794" data-name="Group 3794" transform="translate(0 0)">
    <g id="Group_3793" data-name="Group 3793" transform="translate(0 0)" clip-path="url(#clip-path)">
      <path id="Path_6874" data-name="Path 6874" d="M43.435,59.613a32.771,32.771,0,0,1,11.91-23.232,40.359,40.359,0,0,1,51.217,0,32.841,32.841,0,0,1,11.911,23.232,32.381,32.381,0,0,1-10,24.947,40.179,40.179,0,0,1-54.991,0,32.123,32.123,0,0,1-10-24.9Z" transform="translate(10.043 6.292)" fill="#fff"/>
      <path id="Path_6875" data-name="Path 6875" d="M60.114,55.733a16.844,16.844,0,0,1,6.12-11.939,20.741,20.741,0,0,1,26.32,0,16.88,16.88,0,0,1,6.12,11.939,16.64,16.64,0,0,1-5.138,12.821,20.649,20.649,0,0,1-28.259,0,16.511,16.511,0,0,1-5.139-12.8Z" transform="translate(13.899 9.036)" fill="#265787"/>
      <path id="Path_6876" data-name="Path 6876" d="M43.789,74.845a35.127,35.127,0,0,0,1.518,8.312,43.792,43.792,0,0,0,9.47,16.4A49.148,49.148,0,0,0,71.35,111.467a54.075,54.075,0,0,0,43.523-.075,49.261,49.261,0,0,0,16.572-11.964,43.9,43.9,0,0,0,9.47-16.447A41.283,41.283,0,0,0,142.4,64.7a42.237,42.237,0,0,0-6.045-16.522,45.537,45.537,0,0,0-11.032-12.141l.01-.007L80.755,1.772c-.041-.031-.073-.063-.116-.091-2.922-2.246-7.859-2.238-11.058.014-3.249,2.277-3.626,6.044-.73,8.412l-.012.012L87.452,25.256l-56.669.06h-.076c-4.685,0-9.192,3.073-10.074,6.976-.917,3.955,2.267,7.254,7.152,7.254l-.007.017,28.713-.055L5.11,78.8c-.065.048-.137.1-.2.147-4.835,3.7-6.4,9.873-3.349,13.751,3.1,3.955,9.671,3.979,14.558.022L44.079,69.8a43.725,43.725,0,0,0-.376,4.936ZM115.823,85.2a32.358,32.358,0,0,1-45.16.075,27.047,27.047,0,0,1-6.171-9.647A25.354,25.354,0,0,1,66.175,54.7a28.367,28.367,0,0,1,6.85-8.16,32.582,32.582,0,0,1,40.424-.05,28.14,28.14,0,0,1,6.85,8.136,25.341,25.341,0,0,1,1.678,20.929,26.875,26.875,0,0,1-6.171,9.672Z" transform="translate(0 0)" fill="#ea7600"/>
    </g>
  </g>
</svg>
