<svg id="Group_3818" data-name="Group 3818" xmlns="http://www.w3.org/2000/svg" xmlns:xlink="http://www.w3.org/1999/xlink" width="101.057" height="116" viewBox="0 0 101.057 116">
  <defs>
    <clipPath id="clip-path">
      <rect id="Rectangle_766" data-name="Rectangle 766" width="101.057" height="116" fill="#e9e9e9"/>
    </clipPath>
    <clipPath id="clip-path-2">
      <rect id="Rectangle_770" data-name="Rectangle 770" width="2.681" height="58.315" transform="translate(97.196 28.863)" fill="#e9e9e9"/>
    </clipPath>
    <clipPath id="clip-path-3">
      <rect id="Rectangle_773" data-name="Rectangle 773" width="2.681" height="113.78" transform="translate(49.104 1.047)" fill="#e9e9e9"/>
    </clipPath>
    <clipPath id="clip-path-4">
      <rect id="Rectangle_774" data-name="Rectangle 774" width="101.057" height="116" fill="none"/>
    </clipPath>
  </defs>
  <g id="Group_3819" data-name="Group 3819">
    <g id="Group_3804" data-name="Group 3804" clip-path="url(#clip-path)">
      <path id="Path_6887" data-name="Path 6887" d="M2.352,31.545A1.321,1.321,0,0,1,1.012,30.2a1.412,1.412,0,0,1,.67-1.173L49.774,1.215a1.351,1.351,0,0,1,1.341,2.346L3.022,31.377a1,1,0,0,1-.67.168" fill="#e9e9e9"/>
      <path id="Path_6888" data-name="Path 6888" d="M2.352,87.178a1.321,1.321,0,0,1-1.34-1.341,1.412,1.412,0,0,1,.67-1.173L97.867,29.031a1.351,1.351,0,0,1,1.34,2.346L3.022,87.01a1,1,0,0,1-.67.168" fill="#e9e9e9"/>
      <path id="Path_6889" data-name="Path 6889" d="M98.537,31.545a1,1,0,0,1-.67-.168L49.774,3.561a1.351,1.351,0,0,1,1.341-2.346L99.207,29.031a1.348,1.348,0,0,1,.5,1.844,1.266,1.266,0,0,1-1.173.67" fill="#e9e9e9"/>
      <path id="Path_6890" data-name="Path 6890" d="M98.537,87.178a1,1,0,0,1-.67-.168L1.682,31.377a1.351,1.351,0,0,1,1.34-2.346L99.207,84.664a1.348,1.348,0,0,1,.5,1.844,1.7,1.7,0,0,1-1.173.67" fill="#e9e9e9"/>
      <path id="Path_6891" data-name="Path 6891" d="M50.445,115a1,1,0,0,1-.67-.168L1.682,87.011a1.351,1.351,0,0,1,1.341-2.346l48.092,27.816a1.348,1.348,0,0,1,.5,1.844,1.411,1.411,0,0,1-1.173.67" fill="#e9e9e9"/>
      <path id="Path_6892" data-name="Path 6892" d="M50.445,115a1.322,1.322,0,0,1-1.341-1.341,1.413,1.413,0,0,1,.671-1.173L97.867,84.665a1.351,1.351,0,0,1,1.341,2.346L51.115,114.827c-.167.168-.335.168-.67.168" fill="#e9e9e9"/>
      <rect id="Rectangle_765" data-name="Rectangle 765" width="2.681" height="58.314" transform="translate(1.012 28.864)" fill="#e9e9e9"/>
    </g>
  </g>
  <g id="Group_3820" data-name="Group 3820">
    <g id="Group_3810" data-name="Group 3810" clip-path="url(#clip-path-2)">
      <path id="Path_6894" data-name="Path 6894" d="M98.537,87.178A1.322,1.322,0,0,1,97.2,85.837V30.2a1.341,1.341,0,0,1,2.682,0V85.837a1.322,1.322,0,0,1-1.341,1.341" fill="#e9e9e9"/>
    </g>
  </g>
  <g id="Group_3821" data-name="Group 3821">
    <g id="Group_3814" data-name="Group 3814" clip-path="url(#clip-path-3)">
      <path id="Path_6895" data-name="Path 6895" d="M50.445,114.827a1.322,1.322,0,0,1-1.341-1.341V2.388a1.341,1.341,0,1,1,2.682,0V113.319a1.369,1.369,0,0,1-1.341,1.508" fill="#e9e9e9"/>
    </g>
  </g>
  <g id="Group_3817" data-name="Group 3817">
    <g id="Group_3816" data-name="Group 3816" clip-path="url(#clip-path-4)">
      <path id="Path_6896" data-name="Path 6896" d="M64.353,12.945a2.427,2.427,0,0,1-1.173-.335L50.445,5.237l-12.9,7.373a2.443,2.443,0,1,1-2.514-4.189L49.1.377a2.016,2.016,0,0,1,2.346,0L65.358,8.421a2.439,2.439,0,0,1,.838,3.351c0,.67-.838,1.173-1.843,1.173"/>
      <path id="Path_6897" data-name="Path 6897" d="M50.445,76.621A2.29,2.29,0,0,1,48.1,74.275V58.021a2.346,2.346,0,1,1,4.692,0V74.107a2.547,2.547,0,0,1-2.346,2.514"/>
      <path id="Path_6898" data-name="Path 6898" d="M2.352,48.805A2.29,2.29,0,0,1,.007,46.459V30.2a2.29,2.29,0,0,1,2.345-2.346A2.29,2.29,0,0,1,4.7,30.2V46.459a2.4,2.4,0,0,1-2.346,2.346"/>
      <path id="Path_6899" data-name="Path 6899" d="M98.537,48.805a2.29,2.29,0,0,1-2.346-2.346V30.2a2.346,2.346,0,1,1,4.692,0V46.459a2.4,2.4,0,0,1-2.346,2.346"/>
      <path id="Path_6900" data-name="Path 6900" d="M98.537,88.184a2.29,2.29,0,0,1-2.346-2.346V69.583a2.346,2.346,0,0,1,4.692,0V85.838a2.29,2.29,0,0,1-2.346,2.346"/>
      <path id="Path_6901" data-name="Path 6901" d="M2.352,88.184A2.29,2.29,0,0,1,.007,85.838V69.583a2.29,2.29,0,0,1,2.345-2.345A2.29,2.29,0,0,1,4.7,69.583V85.838a2.29,2.29,0,0,1-2.346,2.346"/>
      <path id="Path_6902" data-name="Path 6902" d="M50.445,22.5A2.29,2.29,0,0,1,48.1,20.15V2.388a2.346,2.346,0,0,1,4.692,0V19.982A2.336,2.336,0,0,1,50.445,22.5"/>
      <path id="Path_6903" data-name="Path 6903" d="M50.445,116a2.29,2.29,0,0,1-2.346-2.346V97.567a2.346,2.346,0,0,1,4.692,0v16.255A2.257,2.257,0,0,1,50.445,116"/>
      <path id="Path_6904" data-name="Path 6904" d="M50.445,116a2.427,2.427,0,0,1-1.173-.335L35.2,107.622a2.443,2.443,0,0,1,2.514-4.19l12.9,7.373,12.735-7.373a2.253,2.253,0,0,1,3.016,1.508,2.609,2.609,0,0,1-.67,2.682l-13.908,8.043a3.959,3.959,0,0,1-1.341.335"/>
      <path id="Path_6905" data-name="Path 6905" d="M50.445,60.367a2.427,2.427,0,0,1-1.173-.335L35.2,51.989A2.443,2.443,0,0,1,37.71,47.8l12.9,7.373L63.348,47.8a2.264,2.264,0,0,1,3.184,1.006,2.576,2.576,0,0,1-.838,3.184L51.786,60.032a3.959,3.959,0,0,1-1.341.335"/>
      <path id="Path_6906" data-name="Path 6906" d="M84.462,40.761a2.29,2.29,0,0,1-2.346-2.346,2.862,2.862,0,0,1,1.172-2.178l14.077-8.044a2.443,2.443,0,0,1,2.513,4.19L85.8,40.426a3.954,3.954,0,0,1-1.34.335"/>
      <path id="Path_6907" data-name="Path 6907" d="M98.537,32.55a2.427,2.427,0,0,1-1.173-.335L83.288,24.172a2.443,2.443,0,1,1,2.514-4.19l14.076,8.044a2.435,2.435,0,0,1-1.341,4.524"/>
      <path id="Path_6908" data-name="Path 6908" d="M16.428,40.761a2.427,2.427,0,0,1-1.173-.335L1.179,32.215a2.443,2.443,0,1,1,2.514-4.189l14.076,8.043a2.439,2.439,0,0,1,.837,3.351,3.721,3.721,0,0,1-2.178,1.341"/>
      <path id="Path_6909" data-name="Path 6909" d="M2.352,32.55A2.29,2.29,0,0,1,.007,30.2a2.862,2.862,0,0,1,1.172-2.178l14.076-8.044a2.443,2.443,0,0,1,2.513,4.19L3.525,32.215a2.427,2.427,0,0,1-1.173.335"/>
      <path id="Path_6910" data-name="Path 6910" d="M84.462,96.227a2.29,2.29,0,0,1-2.346-2.346A2.862,2.862,0,0,1,83.288,91.7l14.077-8.044a2.443,2.443,0,0,1,2.513,4.19L85.8,95.892a2.014,2.014,0,0,1-1.34.335"/>
      <path id="Path_6911" data-name="Path 6911" d="M98.537,88.184a2.427,2.427,0,0,1-1.173-.335L83.288,79.806a2.443,2.443,0,1,1,2.514-4.19L99.878,83.66a2.439,2.439,0,0,1,.837,3.351,2.863,2.863,0,0,1-2.178,1.173"/>
      <path id="Path_6912" data-name="Path 6912" d="M16.428,96.227a2.427,2.427,0,0,1-1.173-.335L1.179,87.849a2.443,2.443,0,0,1,2.514-4.19L17.769,91.7a2.439,2.439,0,0,1,.837,3.351,2.143,2.143,0,0,1-2.178,1.173"/>
      <path id="Path_6913" data-name="Path 6913" d="M2.352,88.184A2.29,2.29,0,0,1,.007,85.838,2.862,2.862,0,0,1,1.179,83.66l13.908-8.044a2.443,2.443,0,0,1,2.514,4.19L3.693,87.849a3.959,3.959,0,0,1-1.341.335"/>
    </g>
  </g>
</svg>
