<svg id="Group_3796" data-name="Group 3796" xmlns="http://www.w3.org/2000/svg" xmlns:xlink="http://www.w3.org/1999/xlink" width="115.031" height="116" viewBox="0 0 115.031 116">
  <defs>
    <clipPath id="clip-path">
      <rect id="Rectangle_761" data-name="Rectangle 761" width="115.031" height="116" fill="none"/>
    </clipPath>
  </defs>
  <g id="Group_3795" data-name="Group 3795" clip-path="url(#clip-path)">
    <path id="Path_6877" data-name="Path 6877" d="M82.778,75.338a3.47,3.47,0,0,1-2.907-1.246c-.138-.554-.277-8.79-.346-16.957-.069-8.513,0-16.957.415-17.026,2.423-4.5,10.036-13.566,10.036-13.566A40.733,40.733,0,0,0,67.967,38.725c-2.284-1.8-6.991-1.523-6.991-1.523a9.734,9.734,0,0,1,4.36,7.613V73.469s-4.775,4.222-8.443,4.222A5.262,5.262,0,0,1,52.6,75.546a6.277,6.277,0,0,1-.692-1.246V38.932a3.094,3.094,0,0,1-1.73.623,2.414,2.414,0,0,1-2.146-1.522,9.64,9.64,0,0,1-.692-4.084c0-6.506,7.406-10.866,7.406-10.866C45.4,25.574,36.683,30.419,25.124,43.708S15.78,67.932,15.78,67.932a55.235,55.235,0,0,1,10.8-15.573c3.668-3.737,6.367-4.983,8.236-5.052a2.867,2.867,0,0,1,3.045,2.907V77.138c0,2.63-1.73,3.253-3.322,3.183a8.051,8.051,0,0,1-2.561-.484c7.89,11.42,26.716,13.081,26.716,13.081L67,84.059l.207.138,7.614,6.437C88.661,82.4,95.375,67.1,95.375,67.1c-6.3,6.713-10.244,8.236-12.6,8.236" fill="#383838"/>
    <path id="Path_6878" data-name="Path 6878" d="M57.585,2.561a54.277,54.277,0,0,1,38.9,16.265,55.811,55.811,0,0,1,0,78.487,54.643,54.643,0,0,1-77.794,0,55.811,55.811,0,0,1,0-78.487,54.16,54.16,0,0,1,38.9-16.265m0-2.561A57.763,57.763,0,0,0,0,58c0,32.045,25.747,58,57.516,58s57.515-25.955,57.515-58A57.645,57.645,0,0,0,57.585,0" fill="#383838"/>
  </g>
</svg>
