<svg id="Group_3792" data-name="Group 3792" xmlns="http://www.w3.org/2000/svg" xmlns:xlink="http://www.w3.org/1999/xlink" width="100.958" height="116" viewBox="0 0 100.958 116">
  <defs>
    <clipPath id="clip-path">
      <rect id="Rectangle_759" data-name="Rectangle 759" width="100.958" height="116" fill="none"/>
    </clipPath>
  </defs>
  <g id="Group_3791" data-name="Group 3791" clip-path="url(#clip-path)">
    <path id="Path_6870" data-name="Path 6870" d="M100.851,53.371c-2.36-1.355-4.67-2.679-6.977-4.006q-21.357-12.276-42.7-24.573a1.35,1.35,0,0,0-1.571.07Q25.4,38.86,1.181,52.837c-.329.19-.665.367-1.1.609-.024-.371-.058-.64-.058-.908,0-7.523.006-15.047-.018-22.57a1.274,1.274,0,0,1,.735-1.287Q25.153,14.468,49.544.2a1.109,1.109,0,0,1,1.3.01Q75.56,14.487,100.284,28.752a1.332,1.332,0,0,1,.628.916c.034,7.781.026,15.563.022,23.344a2.07,2.07,0,0,1-.083.359" fill="#484848"/>
    <path id="Path_6871" data-name="Path 6871" d="M.016,62.53c2.1,1.2,4.045,2.315,5.991,3.435Q27.9,78.571,49.778,91.2a1.436,1.436,0,0,0,1.663-.057Q75.7,77.132,99.969,63.153c.273-.158.552-.3.971-.534v.832c0,7.523-.011,15.046.019,22.568a1.362,1.362,0,0,1-.8,1.353Q75.821,101.541,51.51,115.75a1.256,1.256,0,0,1-1.477.019Q25.4,101.538.751,87.334a1.448,1.448,0,0,1-.7-.967C.007,78.49.016,70.613.016,62.53" fill="#484848"/>
    <path id="Path_6872" data-name="Path 6872" d="M93.408,58.044c-3.627,2.093-7.114,4.107-10.6,6.118Q67.264,73.123,51.735,82.1a2.025,2.025,0,0,1-2.351-.008Q28.962,70.285,8.5,58.533c-.245-.141-.477-.306-.84-.54.8-.468,1.508-.886,2.22-1.3Q29.768,45.214,49.646,33.719a1.355,1.355,0,0,1,1.575-.017Q71.955,45.657,92.713,57.573c.189.109.362.244.695.471" fill="#6ebe4b"/>
  </g>
</svg>
