<svg width="163" height="64" viewBox="0 0 163 64" fill="none" xmlns="http://www.w3.org/2000/svg">
<g clip-path="url(#clip0_326_1053)">
<path d="M103.173 15.2794C103.173 11.2723 106.171 8.53467 110.04 8.53467C112.883 8.53467 114.526 10.0993 115.436 11.7217L113.077 12.8947C112.535 11.8388 111.375 10.9979 110.04 10.9979C107.7 10.9979 105.998 12.8161 105.998 15.2794C105.998 17.7426 107.7 19.5608 110.04 19.5608C111.375 19.5608 112.534 18.7392 113.077 17.664L115.436 18.8178C114.507 20.4402 112.883 22.0241 110.04 22.0241C106.172 22.0241 103.173 19.2864 103.173 15.2794Z" fill="#282828"/>
<path d="M116.424 17.059C116.424 14.3807 118.281 12.1132 121.356 12.1132C124.432 12.1132 126.308 14.3807 126.308 17.059C126.308 19.7373 124.452 22.0241 121.356 22.0241C118.261 22.0241 116.424 19.7566 116.424 17.059ZM123.754 17.059C123.754 15.5923 122.884 14.3213 121.355 14.3213C119.826 14.3213 118.977 15.5923 118.977 17.059C118.977 18.5257 119.828 19.816 121.355 19.816C122.882 19.816 123.754 18.545 123.754 17.059Z" fill="#282828"/>
<path d="M134.547 21.7898V20.5782C133.811 21.517 132.786 22.0241 131.665 22.0241C129.306 22.0241 127.526 20.2252 127.526 17.0783C127.526 13.9314 129.287 12.1132 131.665 12.1132C132.767 12.1132 133.811 12.6027 134.547 13.5591V8.7497H137.022V21.7898H134.547ZM134.547 15.3981C134.14 14.7723 133.251 14.3229 132.419 14.3229C131.027 14.3229 130.06 15.4366 130.06 17.0799C130.06 18.7231 131.027 19.8176 132.419 19.8176C133.251 19.8176 134.14 19.3682 134.547 18.7424V15.3981Z" fill="#282828"/>
<path d="M138.86 17.059C138.86 14.3213 140.853 12.1132 143.696 12.1132C146.54 12.1132 148.376 14.2251 148.376 17.3126V17.8598H141.434C141.588 19.0521 142.536 20.0486 144.122 20.0486C144.914 20.0486 146.017 19.6972 146.616 19.1099L147.699 20.713C146.77 21.5731 145.3 22.0225 143.85 22.0225C141.007 22.0225 138.86 20.0872 138.86 17.0574V17.059ZM143.696 14.0871C142.169 14.0871 141.51 15.2409 141.394 16.178H145.997C145.939 15.2794 145.32 14.0871 143.695 14.0871H143.696Z" fill="#282828"/>
<path d="M76.2198 43.4714L79.4522 38.8882C81.4257 40.968 84.4898 42.7075 88.3525 42.7075C91.6278 42.7075 93.2218 41.1798 93.2218 39.567C93.2218 34.5603 77.1009 37.9976 77.1009 27.3454C77.1009 22.6355 81.1304 18.7312 87.7222 18.7312C92.1724 18.7312 95.8668 20.0888 98.6373 22.6772L95.3207 27.0902C93.0535 24.9688 90.0307 23.9931 87.1761 23.9931C84.6152 23.9931 83.1879 25.1389 83.1879 26.8367C83.1879 31.3347 99.2676 28.3211 99.2676 38.8882C99.2676 44.0651 95.6144 47.9694 88.0588 47.9694C82.6847 47.9694 78.8219 46.1448 76.2198 43.4714Z" fill="#282828"/>
<path d="M108.506 44.829V55.2678H103.175V26.9634H108.506V29.5519C110.059 27.5572 112.285 26.4547 114.761 26.4547C119.967 26.4547 123.746 30.3591 123.746 37.1904C123.746 44.0218 119.967 47.9694 114.761 47.9694C112.369 47.9694 110.143 46.9504 108.506 44.829ZM118.203 37.1904C118.203 33.668 116.146 31.2497 113.082 31.2497C111.361 31.2497 109.387 32.2687 108.506 33.583V40.8396C109.387 42.1121 111.361 43.1729 113.082 43.1729C116.146 43.1729 118.203 40.7545 118.203 37.1904Z" fill="#282828"/>
<path d="M126.35 37.1904C126.35 31.3765 130.381 26.4547 137.055 26.4547C143.729 26.4547 147.802 31.3765 147.802 37.1904C147.802 43.0044 143.772 47.9694 137.055 47.9694C130.338 47.9694 126.35 43.0477 126.35 37.1904Z" fill="#FF6C1A"/>
<path d="M152.798 42.3673V31.6733H149.44V26.9634H152.798V21.3613H158.172V26.9634H162.286V31.6733H158.172V40.9246C158.172 42.1972 158.844 43.1745 160.02 43.1745C160.817 43.1745 161.573 42.8776 161.868 42.5807L163.002 46.6551C162.205 47.3773 160.776 47.971 158.552 47.971C154.816 47.971 152.8 46.0197 152.8 42.3689L152.798 42.3673Z" fill="#282828"/>
<path d="M17.1881 24.4584C17.4262 24.643 17.6295 24.7649 17.7898 24.9302C21.5446 28.7639 25.2962 32.5993 29.0478 36.4378C30.3163 37.736 30.7751 39.2766 30.2814 41.0434C29.3955 44.2143 25.5375 45.3713 23.0528 43.2274C22.8607 43.0621 22.6829 42.8792 22.5035 42.6978C19.768 39.9377 17.0389 37.1711 14.2986 34.4158C12.1473 32.251 9.98496 30.0959 7.82736 27.9375C7.06053 27.1704 6.47945 26.3039 6.27941 25.2014C6.01745 23.7572 6.36514 22.4878 7.2701 21.3581C7.35742 21.2506 7.45426 21.1511 7.5527 21.0516C12.6125 15.9373 17.6691 10.8198 22.7337 5.71192C24.1817 4.25161 26.2377 3.91462 28.0095 4.81006C30.7593 6.19976 31.3927 9.91633 29.2351 12.1341C26.96 14.4722 24.6611 16.7846 22.3765 19.1115C20.773 20.7451 19.1774 22.3851 17.5787 24.0236C17.4834 24.1214 17.3977 24.2274 17.1913 24.46L17.1881 24.4584Z" fill="#FF6C1A"/>
<path d="M44.6495 39.5766C44.3669 39.275 44.124 39.0021 43.8668 38.7422C41.0583 35.8906 38.2466 33.0406 35.4396 30.1889C34.5632 29.2983 33.69 28.4045 32.8232 27.5058C31.5785 26.2172 31.1546 24.6847 31.6166 22.9484C32.4818 19.6988 36.6018 18.5626 38.9864 20.8991C39.6469 21.5458 40.2899 22.2134 40.9424 22.8697C43.3096 25.248 45.6767 27.6246 48.0423 30.0012C50.1317 32.1002 52.2242 34.1944 54.3087 36.2982C55.8726 37.8772 56.1679 40.0645 55.0708 41.9918C54.8787 42.3288 54.6215 42.6417 54.3484 42.9177C49.2934 48.0384 44.2367 53.1575 39.1674 58.2654C37.8608 59.5813 36.2795 59.9632 34.5299 59.3967C32.7994 58.8367 31.7642 57.5786 31.4467 55.7893C31.1832 54.3065 31.5912 52.9682 32.6358 51.8721C33.6726 50.7825 34.7363 49.7202 35.7905 48.6466C38.4339 45.9571 41.0789 43.2691 43.7223 40.578C44.0272 40.2667 44.3145 39.9377 44.6495 39.575V39.5766Z" fill="#FF6C1A"/>
<path d="M57.4618 24.9206C56.2203 24.8596 55.1486 24.4424 54.2818 23.5582C52.6465 21.8909 51.0303 20.2043 49.3982 18.5338C48.9139 18.0379 48.3789 17.5902 47.9105 17.0815C45.8085 14.7899 46.5245 11.0926 49.3077 9.79437C51.0096 9.00163 53.0275 9.3322 54.358 10.6609C56.4854 12.7856 58.6065 14.9151 60.7069 17.067C63.0551 19.4725 62.1025 23.5518 58.9431 24.643C58.4731 24.8051 57.9571 24.8307 57.4618 24.919V24.9206Z" fill="#192A44"/>
<path d="M4.35995 38.9476C5.80788 38.9797 6.85731 39.3809 7.71305 40.2474C9.41818 41.9757 11.117 43.7088 12.8205 45.4371C13.2428 45.8656 13.6905 46.2684 14.1017 46.7049C15.348 48.0256 15.683 50.0315 14.9527 51.6972C14.2002 53.4127 12.5125 54.5119 10.6756 54.4461C9.5055 54.4044 8.46718 53.9807 7.63525 53.1415C5.46971 50.959 3.28829 48.7878 1.17832 46.5524C-0.917371 44.3331 -0.169592 40.3742 3.04697 39.1915C3.53438 39.0118 4.07894 38.9957 4.36154 38.946L4.35995 38.9476Z" fill="#192A44"/>
<path d="M19.5584 54.0433C22.0876 54.0915 24.0753 56.176 24.0292 58.734C23.9832 61.2743 21.8827 63.3075 19.3727 63.2417C16.9087 63.1759 14.9019 61.0656 14.9273 58.5703C14.9543 56.0252 17.0309 53.9952 19.5584 54.0433Z" fill="#192A44"/>
<path d="M42.5554 0.559117C45.075 0.568745 47.104 2.64046 47.0866 5.18717C47.0691 7.72747 44.9972 9.79276 42.4951 9.76388C39.9993 9.73499 37.956 7.61032 37.9925 5.08447C38.0291 2.55701 40.0533 0.549488 42.5554 0.559117Z" fill="#192A44"/>
</g>
<defs>
<clipPath id="clip0_326_1053">
<rect width="163" height="62.6842" fill="white" transform="translate(0 0.559082)"/>
</clipPath>
</defs>
</svg>
