<svg width="208" height="64" viewBox="0 0 208 64" fill="none" xmlns="http://www.w3.org/2000/svg">
<path d="M49.9914 50.2098C52.7799 50.2098 52.9907 49.8209 51.5741 47.2939C50.2257 44.8886 48.8678 42.4892 47.5004 40.0957C46.4351 38.2338 45.3464 36.3844 44.1232 34.2815C43.3839 35.109 42.95 35.7089 42.4164 36.1889C37.0187 41.0339 31.8054 46.1188 26.1389 50.6111C21.2331 54.5908 15.4829 57.3566 9.34302 58.6896C7.98205 58.9643 6.57468 58.8836 5.25281 58.455C3.93093 58.0264 2.73782 57.264 1.7853 56.2392C1.24248 55.663 0.708824 55.1717 0 54.4807C0.101842 59.5595 2.86992 62.8095 7.27359 63.0805C8.7928 63.1735 10.3175 63.0891 11.8178 62.8292C17.5566 61.8258 22.5714 59.0909 27.1889 55.6486C28.0387 54.9196 29.0913 54.478 30.1999 54.3853C31.3085 54.2926 32.418 54.5534 33.3738 55.1314C37.7836 57.258 42.3023 59.1737 46.8516 60.9787C47.934 61.5093 49.1504 61.6907 50.3373 61.4984C51.5242 61.3061 52.6246 60.7493 53.4907 59.9029C53.5616 59.8342 53.6127 59.7471 53.6385 59.6511C53.6643 59.5551 53.6638 59.4537 53.637 59.358C53.6103 59.2622 53.5584 59.1757 53.4869 59.1076C53.4153 59.0396 53.3269 58.9927 53.231 58.972C47.0135 57.5963 41.3735 55.1127 36.6928 50.5698C41.2024 50.2109 45.5969 50.215 49.9914 50.2098Z" fill="#4E1FA3"/>
<path d="M17.244 6.75912C28.0922 11.4521 36.7743 18.9554 44.6569 28.6195L53.2473 15.1996C53.3098 15.1018 53.3452 14.9888 53.3497 14.8724C53.3542 14.7559 53.3277 14.6404 53.2729 14.5379C53.2182 14.4355 53.1372 14.35 53.0386 14.2904C52.94 14.2308 52.8274 14.1993 52.7126 14.1994H37.8436C43.3424 8.72737 50.3347 5.06204 57.9117 3.6798C56.9232 2.75638 55.7265 2.09372 54.4268 1.75013C53.1271 1.40655 51.7641 1.39252 50.4578 1.70929C44.9817 2.66257 39.8059 4.92024 35.3546 8.29723C33.2597 9.82603 31.5447 9.6512 29.4376 8.32513C25.9023 6.08873 22.2659 4.02157 18.5404 2.13032C15.0364 0.224401 10.9736 -0.335295 7.09637 0.553889C3.22636 1.4931 1.12637 4.48455 1.65697 8.32311C7.22674 4.2332 10.5162 3.84736 17.244 6.75912Z" fill="#4E1FA3"/>
<path d="M52.3128 27.9979C54.3496 24.7913 56.3193 21.5134 58.0516 18.1258C59.7096 14.6597 60.2617 10.7546 59.6312 6.95459C59.6215 6.8746 59.5852 6.80036 59.5283 6.74417C59.4714 6.68798 59.3973 6.65322 59.3183 6.64562C59.2393 6.63802 59.1601 6.65804 59.0939 6.70238C59.0276 6.74672 58.9782 6.81272 58.9539 6.88944C56.5658 14.3946 53.1079 21.5038 48.6903 27.9906C47.2186 30.1577 47.3602 32.0785 48.8084 34.2652C52.8576 40.3773 56.1634 46.8617 57.5475 54.1954C57.7766 55.4098 57.9874 56.6283 58.2044 57.8458C58.2208 57.9375 58.2721 58.019 58.3472 58.0726C58.4223 58.1262 58.5151 58.1476 58.6056 58.1323C58.6811 58.1191 58.75 58.0807 58.8015 58.0232C58.853 57.9656 58.884 57.8923 58.8898 57.8147C58.9111 57.523 58.9356 57.2324 58.9417 56.9407C59.1057 48.5995 55.9312 41.2306 52.2547 34.0738C51.108 31.8519 50.9654 30.1142 52.3128 27.9979Z" fill="#4E1FA3"/>
<path d="M12.8386 29.5711C14.1279 29.5629 15.4213 29.6218 16.7086 29.5236C16.9739 29.5078 17.2335 29.4383 17.4719 29.319C17.7104 29.1998 17.9229 29.0332 18.097 28.8293C18.2711 28.6253 18.4032 28.388 18.4855 28.1313C18.5678 27.8746 18.5987 27.6038 18.5764 27.3348C18.616 27.0795 18.6011 26.8185 18.5326 26.5696C18.464 26.3206 18.3436 26.0896 18.1793 25.8921C18.0151 25.6947 17.8109 25.5355 17.5807 25.4253C17.3504 25.3151 17.0996 25.2566 16.8451 25.2536C14.9579 25.1419 13.0596 25.2237 11.0971 25.2237V29.568C11.7183 29.5722 12.2785 29.5742 12.8386 29.5711Z" fill="#4E1FA3"/>
<path d="M17.134 34.3397C15.2815 34.2684 13.4238 34.3211 11.5693 34.3397C11.3907 34.3739 11.2188 34.4371 11.0601 34.527V39.1123C13.2314 39.1123 15.2672 39.1578 17.3 39.0896C17.7093 39.1014 18.1128 38.9898 18.4598 38.7689C18.8067 38.548 19.0814 38.2277 19.2492 37.8483C19.438 37.4811 19.5299 37.0704 19.5159 36.6564C19.502 36.2423 19.3827 35.839 19.1697 35.4857C18.9567 35.1324 18.6572 34.8412 18.3005 34.6404C17.9437 34.4395 17.5418 34.336 17.134 34.3397Z" fill="#4E1FA3"/>
<path d="M39.7959 29.1772C35.8363 25.4855 31.7443 21.9241 27.9761 18.0401C25.1897 15.1676 21.9796 14.3329 18.1992 14.3474C12.1314 14.3691 13.1203 14.3773 7.05358 14.3815V14.3887H2.62343C1.94142 14.3887 1.28734 14.6639 0.805091 15.1537C0.322837 15.6435 0.0519094 16.3078 0.0519094 17.0005V48.0927C0.0519094 48.3237 0.0966965 48.5523 0.183704 48.7657C0.270711 48.979 0.39824 49.1729 0.559008 49.3361C0.719777 49.4994 0.91063 49.629 1.12068 49.7173C1.33074 49.8057 1.55588 49.8512 1.78324 49.8512H7.05969V49.8625L11.7444 49.8522C12.2027 49.8522 12.661 49.845 13.1193 49.8408H13.5674L15.7886 49.7219C15.7886 49.7219 20.5752 48.9823 22.5927 47.8683C29.3489 44.1383 34.9421 38.8568 40.2889 33.3012C41.8695 31.641 41.1199 30.4153 39.7959 29.1772ZM24.486 40.6215C24.0366 41.6833 23.2887 42.5869 22.3359 43.2189C21.3832 43.851 20.268 44.1834 19.1301 44.1745C14.7855 44.3462 10.4297 44.2366 6.07895 44.2356C5.91511 44.2011 5.757 44.1429 5.60945 44.0628V20.0561C6.07691 20.0116 6.4466 19.9464 6.81629 19.9454C10.2117 19.9392 13.6071 19.9081 17.0005 19.9661C18.0017 19.9887 18.9952 20.1491 19.954 20.4429C24.8923 21.9459 24.9942 28.6703 22.0326 30.9718C21.8095 31.1445 21.6028 31.339 21.3003 31.5997C21.5488 31.7704 21.724 31.9151 21.9195 32.0207C25.2925 33.8432 25.6948 37.8783 24.486 40.6204V40.6215Z" fill="#4E1FA3"/>
<path d="M189.31 31.9191C188.516 31.8445 187.72 32.0534 187.061 32.5101C186.402 32.9668 185.92 33.6427 185.699 34.4212H192.989C192.75 33.6397 192.254 32.965 191.585 32.5097C190.916 32.0543 190.113 31.8459 189.31 31.9191Z" fill="#4E1FA3"/>
<path d="M204.952 14.67H108.391C93.3254 14.67 70.8457 14.6565 68.649 14.641C66.6905 14.6276 65.0254 15.4613 63.5803 18.3337C61.6259 22.2178 59.5066 25.7812 57.4504 29.4708C57.0359 30.0651 56.7928 30.765 56.7483 31.4919C56.7039 32.2187 56.8599 32.9438 57.1989 33.5856C59.972 39.1412 62.8725 44.4217 66.3759 48.1527C67.4181 49.0043 68.6181 49.6346 69.9047 50.0062L71.0566 50.1252C71.0694 50.1259 71.0824 50.1259 71.0952 50.1252H71.2887C71.526 50.1252 71.7643 50.1356 72.0016 50.1366H204.952C205.76 50.1366 206.535 49.8105 207.107 49.2301C207.678 48.6497 207.999 47.8625 207.999 47.0417V17.7535C207.996 16.9346 207.674 16.1504 207.103 15.5724C206.531 14.9945 205.758 14.67 204.952 14.67ZM89.2782 27.4238H78.7151V30.92H87.3208V35.7185H78.7151V44.6989H73.2482V22.2809H89.2792L89.2782 27.4238ZM97.5132 44.6979H92.4506V27.7641H97.5132V44.6979ZM94.9824 26.2219C94.5539 26.2334 94.1275 26.1562 93.7293 25.9949C93.3312 25.8336 92.9695 25.5917 92.6664 25.2838C92.3633 24.976 92.1251 24.6086 91.9663 24.2042C91.8075 23.7998 91.7314 23.3668 91.7428 22.9315C91.7314 22.4963 91.8075 22.0633 91.9663 21.6588C92.1251 21.2544 92.3633 20.8871 92.6664 20.5792C92.9695 20.2714 93.3312 20.0294 93.7293 19.8682C94.1275 19.7069 94.5539 19.6297 94.9824 19.6412C95.4109 19.6297 95.8372 19.7069 96.2354 19.8682C96.6336 20.0294 96.9953 20.2714 97.2984 20.5792C97.6015 20.8871 97.8397 21.2544 97.9985 21.6588C98.1573 22.0633 98.2333 22.4963 98.222 22.9315C98.2336 23.367 98.1578 23.8002 97.9991 24.2048C97.8405 24.6095 97.6023 24.9771 97.2992 25.2852C96.996 25.5933 96.6342 25.8354 96.2359 25.9968C95.8376 26.1582 95.4111 26.2355 94.9824 26.2239V26.2219ZM117.831 44.6979H112.768V35.9295C112.768 33.2556 111.486 32.125 109.596 32.125C107.706 32.125 106.423 33.2556 106.423 35.9295V44.7051H101.361V35.9295C101.361 30.2404 104.668 27.3255 109.596 27.3255C114.524 27.3255 117.831 30.2052 117.831 35.9295V44.6979ZM138.35 44.6979H133.693V41.8875C133.264 42.9022 132.539 43.7588 131.616 44.3412C130.692 44.9236 129.615 45.2038 128.529 45.1437C127.428 45.1395 126.339 44.9074 125.329 44.4617C124.319 44.0161 123.408 43.3661 122.654 42.5515C121.899 41.7368 121.316 40.7745 120.939 39.7233C120.562 38.6722 120.401 37.5541 120.463 36.4373C120.404 35.2211 120.597 34.0057 121.029 32.8698C121.461 31.7339 122.123 30.7029 122.973 29.8434C123.822 28.9839 124.84 28.3151 125.96 27.8803C127.08 27.4455 128.277 27.2544 129.474 27.3193C134.706 27.3193 138.35 30.8497 138.35 36.4032V44.6979ZM158.127 44.6979H153.064V35.9295C153.064 33.2556 151.782 32.125 149.892 32.125C148.002 32.125 146.719 33.2556 146.719 35.9295V44.7051H141.657V35.9295C141.657 30.2404 144.964 27.3255 149.892 27.3255C154.82 27.3255 158.127 30.2052 158.127 35.9295V44.6979ZM169.737 40.3442C170.493 40.3775 171.24 40.1754 171.88 39.765C172.519 39.3545 173.02 38.7554 173.315 38.0479H178.444C177.731 42.2298 174.36 45.1437 169.737 45.1437C168.56 45.2019 167.384 45.0127 166.282 44.5881C165.181 44.1636 164.177 43.5127 163.334 42.6761C162.492 41.8396 161.828 40.8355 161.385 39.7266C160.942 38.6177 160.729 37.4278 160.759 36.2315C160.729 35.0351 160.942 33.8452 161.385 32.7362C161.828 31.6272 162.491 30.6231 163.334 29.7865C164.177 28.95 165.18 28.299 166.282 27.8745C167.384 27.45 168.56 27.261 169.737 27.3193C174.36 27.3193 177.736 30.2332 178.444 34.4151H173.315C173.02 33.7076 172.519 33.1085 171.88 32.698C171.24 32.2876 170.493 32.0855 169.737 32.1188C169.21 32.1046 168.687 32.2029 168.2 32.4074C167.713 32.6119 167.274 32.918 166.911 33.3059C166.549 33.6937 166.27 34.1547 166.094 34.6589C165.918 35.1631 165.848 35.6992 165.889 36.2325C165.848 36.7659 165.918 37.302 166.094 37.8063C166.27 38.3105 166.548 38.7715 166.911 39.1595C167.273 39.5475 167.712 39.8537 168.199 40.0583C168.686 40.2629 169.209 40.3614 169.736 40.3473L169.737 40.3442ZM198.186 37.6703H185.598C185.751 38.5343 186.217 39.3088 186.904 39.8417C187.591 40.3745 188.449 40.6272 189.31 40.55C190.761 40.55 191.841 40.2397 192.482 39.316H197.714C196.634 42.8122 193.462 45.1437 189.31 45.1437C188.133 45.2019 186.957 45.0127 185.855 44.5881C184.754 44.1636 183.75 43.5127 182.907 42.6761C182.065 41.8396 181.401 40.8355 180.958 39.7266C180.515 38.6177 180.302 37.4278 180.332 36.2315C180.302 35.0351 180.515 33.8452 180.958 32.7362C181.401 31.6272 182.064 30.6231 182.907 29.7865C183.75 28.95 184.753 28.299 185.855 27.8745C186.957 27.45 188.133 27.261 189.31 27.3193C190.482 27.2629 191.652 27.454 192.748 27.8806C193.843 28.3071 194.839 28.9598 195.673 29.7974C196.508 30.635 197.162 31.6393 197.594 32.7468C198.027 33.8542 198.229 35.0408 198.186 36.2315V37.6703Z" fill="#4E1FA3"/>
<path d="M129.441 32.1198C128.914 32.1055 128.391 32.2038 127.904 32.4083C127.417 32.6128 126.978 32.9189 126.616 33.3068C126.253 33.6946 125.974 34.1556 125.798 34.6598C125.622 35.1639 125.552 35.7001 125.593 36.2335C125.552 36.7668 125.622 37.303 125.798 37.8071C125.974 38.3113 126.253 38.7723 126.616 39.1601C126.978 39.548 127.417 39.8541 127.904 40.0586C128.391 40.2631 128.914 40.3614 129.441 40.3471C129.968 40.3614 130.491 40.2631 130.978 40.0586C131.465 39.8541 131.904 39.548 132.266 39.1601C132.629 38.7723 132.908 38.3113 133.084 37.8071C133.26 37.303 133.33 36.7668 133.289 36.2335C133.33 35.7001 133.26 35.1639 133.084 34.6598C132.908 34.1556 132.629 33.6946 132.266 33.3068C131.904 32.9189 131.465 32.6128 130.978 32.4083C130.491 32.2038 129.968 32.1055 129.441 32.1198Z" fill="#4E1FA3"/>
</svg>
