<svg width="279" height="61" viewBox="0 0 279 61" fill="none" xmlns="http://www.w3.org/2000/svg">
<g clip-path="url(#clip0_326_1701)">
<path d="M144.039 60.0095C139.017 56.3542 134.193 52.823 129.351 49.3291C128.032 48.3796 126.577 47.61 125.295 46.6109C121.858 43.9361 119.598 40.5291 119.567 36.0236C119.511 26.8512 119.549 17.6851 119.561 8.5127C119.561 7.97899 119.685 7.44528 119.772 6.75642C120.899 6.40889 121.995 6.01792 123.122 5.72624C129.605 4.05064 136.088 2.38125 142.584 0.7615C143.426 0.550499 144.405 0.451204 145.228 0.656C152.603 2.49916 159.953 4.423 167.31 6.33442C167.657 6.42131 167.972 6.61989 168.554 6.87434C168.598 7.66249 168.685 8.54373 168.685 9.41877C168.697 17.7719 168.647 26.1251 168.709 34.4783C168.753 40.2312 166.3 44.4326 161.514 47.5852C156.603 50.8247 151.916 54.3993 147.129 57.825C146.176 58.5076 145.216 59.1717 144.039 59.9909V60.0095ZM144.07 52.5003C146.262 50.9426 148.238 49.5401 150.219 48.1313C152.944 46.1951 155.594 44.1471 158.412 42.366C161.155 40.6284 162.697 38.4191 162.666 35.0679C162.591 27.8131 162.653 20.5646 162.641 13.3099C162.641 12.7017 162.498 12.0935 162.406 11.3798C158.021 10.2442 153.712 9.25741 149.482 7.97899C146.008 6.93019 142.695 6.74401 139.178 7.85487C134.8 9.23259 130.305 10.238 125.871 11.3985C125.766 11.9322 125.629 12.2797 125.629 12.621C125.629 20.4157 125.648 28.2165 125.654 36.0112C125.654 38.4129 126.88 40.1319 128.719 41.46C133.754 45.1091 138.807 48.7209 144.076 52.5065L144.07 52.5003Z" fill="#192374"/>
<path d="M134.986 18.8891V34.5715C137.779 36.6442 140.732 38.8349 143.952 41.218C147.073 39.0273 150.151 36.8677 153.191 34.7328C153.328 33.7833 153.445 32.989 153.594 31.9712H159.068C160.046 36.4022 159.458 37.7489 156.046 40.0761C152.77 42.3103 149.612 44.7182 146.392 47.0392C145.668 47.5605 144.918 48.0445 144.064 48.6217C139.017 44.5816 133.153 41.7641 128.887 36.8863V13.9119C130.837 13.3782 132.8 13.0369 134.614 12.317C141.067 9.74776 147.445 9.94014 153.873 12.3853C155.39 12.9624 157.006 13.2603 158.566 13.7133C158.808 13.7816 159.018 13.9802 159.328 14.1726V25.455H153.575C153.476 23.2643 153.383 21.0488 153.284 18.9449C147.141 15.904 141.147 15.9475 134.992 18.8953L134.986 18.8891Z" fill="#6CC1FA"/>
<path d="M0 29.4889C0 24.9586 4.39034 21.9053 10.0873 21.9053C14.2237 21.9053 16.6325 23.6429 17.9639 25.4861L14.5086 26.8017C13.7159 25.6164 12.0131 24.6731 10.0873 24.6731C6.63195 24.6731 4.13646 26.7149 4.13646 29.4889C4.13646 32.263 6.63195 34.3047 10.0873 34.3047C12.0131 34.3047 13.7159 33.3614 14.5086 32.1699L17.9639 33.4669C16.6325 35.2915 14.2237 37.0726 10.0873 37.0726C4.39653 37.0726 0 33.9944 0 29.4889Z" fill="#6CC1FA"/>
<path d="M24.986 36.8056V30.8045L17.7348 22.1472H22.3233L26.9985 28.018L31.6737 22.1472H36.2312L29.0048 30.8045V36.8056H24.9798H24.986Z" fill="#6CC1FA"/>
<path d="M37.9836 36.8056V22.1472H46.82C50.9255 22.1472 53.1671 24.3007 53.1671 26.8699C53.1671 29.4392 50.9007 31.574 46.82 31.574H42.0024V36.8056H37.9774H37.9836ZM49.0616 26.8699C49.0616 25.6412 47.8417 24.8902 46.2565 24.8902H42.0086V28.8248H46.2565C47.8417 28.8248 49.0616 28.0801 49.0616 26.8699Z" fill="#6CC1FA"/>
<path d="M68.6356 36.8056V30.6307H59.7125V36.8056H55.6875V22.1472H59.7125V27.9063H68.6356V22.1472H72.6853V36.8056H68.6356Z" fill="#6CC1FA"/>
<path d="M76.3945 36.8056V22.1472H89.7636V24.8964H80.4133V27.9746H89.5655V30.7238H80.4133V34.0626H89.7636V36.8118H76.3945V36.8056Z" fill="#6CC1FA"/>
<path d="M103.585 36.8056L99.8755 31.5988H96.9279V36.8056H92.903V22.1472H101.739C105.678 22.1472 108.111 24.1455 108.111 26.8699C108.111 29.4392 105.987 30.8479 103.944 31.2203L108.223 36.8056H103.578H103.585ZM103.981 26.8513C103.981 25.6412 102.761 24.8964 101.176 24.8964H96.9279V28.8558H101.176C102.761 28.8558 103.981 28.1111 103.981 26.8575V26.8513Z" fill="#6CC1FA"/>
<path d="M181.75 34.7391L183.961 32.3001C185.292 33.38 187.36 34.2984 189.967 34.2984C192.203 34.2984 193.255 33.5289 193.255 32.6725C193.255 30.1219 182.375 31.903 182.375 26.3859C182.375 23.947 185.094 21.9238 189.54 21.9238C192.543 21.9238 195.039 22.6251 196.903 23.9656L194.667 26.2928C193.138 25.1944 191.1 24.6855 189.168 24.6855C187.466 24.6855 186.506 25.2564 186.506 26.1377C186.506 28.4463 197.355 26.8824 197.355 32.356C197.355 35.037 194.859 37.0601 189.794 37.0601C186.14 37.0601 183.533 36.1168 181.75 34.7329V34.7391Z" fill="#192374"/>
<path d="M213.987 36.8056V30.6307H205.064V36.8056H201.039V22.1472H205.064V27.9063H213.987V22.1472H218.037V36.8056H213.987Z" fill="#192374"/>
<path d="M221.746 36.8056V22.1472H225.771V36.8056H221.746Z" fill="#192374"/>
<path d="M229.511 36.8056V22.1472H242.88V24.8964H233.53V27.9746H242.682V30.7238H233.53V34.0626H242.88V36.8118H229.511V36.8056Z" fill="#192374"/>
<path d="M245.853 36.8056V22.1472H249.903V34.0626H257.891V36.8118H245.853V36.8056Z" fill="#192374"/>
<path d="M260.609 36.8056V22.1472H268.058C273.978 22.1472 278.084 25.0702 278.084 29.464C278.084 33.8578 273.978 36.8056 268.083 36.8056H260.603H260.609ZM273.978 29.464C273.978 26.8948 271.941 24.8902 268.083 24.8902H264.628V34.0564H268.058C271.798 34.0564 273.978 31.965 273.978 29.464Z" fill="#192374"/>
</g>
<defs>
<clipPath id="clip0_326_1701">
<rect width="278.09" height="59.4528" fill="white" transform="translate(0 0.556641)"/>
</clipPath>
</defs>
</svg>
