<svg width="211" height="68" viewBox="0 0 211 68" fill="none" xmlns="http://www.w3.org/2000/svg">
<g clip-path="url(#clip0_326_1056)">
<path d="M156.655 53.7722H157.032C157.057 53.7722 157.083 53.7722 157.108 53.7722C160.233 53.7393 163.357 53.657 166.481 53.646C168.79 53.6351 171.318 52.8562 173.356 51.6604C180.181 47.6673 185.833 42.0122 191.235 36.0664C192.841 34.3002 192.086 32.9893 190.746 31.6619C186.745 27.7072 182.612 23.8951 178.805 19.7374C175.991 16.6603 172.745 15.7717 168.932 15.7826C151.176 15.8485 133.419 15.8156 115.658 15.8156V15.8265C101.927 15.8265 88.197 15.8265 74.4667 15.8265H2.59928C1.16203 15.8265 0 17.0771 0 18.6239V51.9128C0 52.9494 0.779783 53.7886 1.74304 53.7886H59.4622C59.6865 53.7886 59.9209 53.7886 60.1758 53.7886C91.8716 53.7722 123.568 53.8874 155.263 53.7886C155.727 53.7886 156.191 53.7832 156.65 53.7777L156.655 53.7722Z" fill="#4E1FA3"/>
<path d="M201.046 54.1781C203.865 54.1781 204.079 53.7612 202.647 51.0571C201.286 48.4846 199.915 45.9121 198.529 43.3506C197.453 41.354 196.352 39.3794 195.119 37.125C194.375 38.0191 193.931 38.6554 193.396 39.1655C187.943 44.3543 182.673 49.7955 176.949 54.6059C171.985 58.7801 166.298 61.8627 159.978 63.2559C157.185 63.8702 154.31 62.85 152.343 60.634C151.793 60.0142 151.257 59.4931 150.539 58.7526C150.641 64.1883 153.439 67.6713 157.888 67.9566C159.412 68.0553 160.977 67.9675 162.48 67.6878C168.28 66.6127 173.346 63.6837 178.01 59.9977C180.13 58.3193 181.924 58.2535 184.258 59.4492C188.712 61.7255 193.279 63.777 197.876 65.7077C200.562 66.8376 202.825 66.3549 204.583 64.5558C204.894 64.2377 204.741 63.6618 204.318 63.563C198.034 62.0875 192.336 59.4328 187.607 54.5675C192.163 54.1726 196.602 54.1781 201.041 54.1726L201.046 54.1781Z" fill="#4E1FA3"/>
<path d="M167.959 7.65926C178.922 12.6836 187.693 20.7192 195.654 31.064C198.508 26.3414 201.418 21.52 204.334 16.6986C204.614 16.2379 204.303 15.6291 203.793 15.6291H188.769C194.767 9.44191 201.255 6.00277 209.043 4.36822C206.597 1.98222 204.109 1.81767 201.51 2.25647C195.873 3.21088 190.833 5.76692 186.251 9.31027C184.136 10.9448 182.403 10.7583 180.272 9.33769C176.7 6.95718 173.025 4.71927 169.264 2.70625C165.64 0.764538 161.756 -0.0253115 157.7 1.01685C153.79 2.02062 151.67 5.22938 152.205 9.33221C157.832 4.95513 161.155 4.54375 167.949 7.65926H167.959Z" fill="#4E1FA3"/>
<path d="M203.391 30.3949C205.455 26.9612 207.437 23.4508 209.191 19.8251C211.01 16.0569 211.275 12.0089 210.786 7.8677C210.74 7.46729 210.215 7.41244 210.103 7.79639C207.667 15.8923 204.206 23.4124 199.731 30.3949C198.243 32.715 198.386 34.7719 199.849 37.1141C203.941 43.6577 207.279 50.6018 208.676 58.451C208.905 59.7509 209.119 61.0564 209.338 62.3618C209.374 62.5648 209.553 62.7019 209.746 62.669C209.904 62.6415 210.021 62.4989 210.032 62.3289C210.052 62.0162 210.077 61.7036 210.083 61.3909C210.251 52.4613 207.04 44.5737 203.324 36.9111C202.168 34.5251 202.025 32.6657 203.386 30.4003L203.391 30.3949Z" fill="#4E1FA3"/>
<path d="M152.97 25.4581C152.96 26.9884 152.129 28.1129 150.723 28.4365C149.469 28.7217 148.123 27.9593 147.644 26.6922C147.109 25.2716 147.568 23.7083 148.765 22.913C148.765 22.913 148.776 22.9075 148.781 22.902C149.749 22.2658 151.008 22.3481 151.9 23.0995C152.552 23.648 152.98 24.3775 152.975 25.4581H152.97Z" fill="white"/>
<path d="M13.1342 46.4494V24.8986C13.5318 24.8602 13.8426 24.7999 14.1586 24.7999C17.0331 24.7944 19.9127 24.767 22.7872 24.8163C23.6231 24.8328 24.4844 24.9864 25.2897 25.2442C29.474 26.5935 29.5606 32.6325 27.048 34.6949C26.8594 34.8485 26.6861 35.024 26.4262 35.2599C26.6352 35.4135 26.783 35.5451 26.9511 35.6384C29.8104 37.2729 30.1518 40.8985 29.1274 43.3558C28.2508 45.4621 26.574 46.4604 24.5914 46.5482C20.9117 46.7017 17.2217 46.603 13.5368 46.603C13.4247 46.603 13.3177 46.5207 13.1393 46.4494H13.1342ZM17.7518 42.001C19.5916 42.001 21.3143 42.0394 23.0369 41.9791C23.7301 41.9572 24.357 41.6445 24.6882 40.8656C25.3253 39.3572 24.4742 37.783 22.8993 37.7172C21.3296 37.6514 19.7547 37.7007 18.185 37.7172C18.0423 37.7172 17.8996 37.8269 17.7518 37.8872V42.001ZM17.7823 29.5335V33.4389C18.3124 33.4389 18.7864 33.4389 19.2604 33.4389C20.351 33.4334 21.4468 33.4827 22.5375 33.395C23.5364 33.3127 24.1072 32.5228 24.1225 31.4313C24.1327 30.3617 23.6638 29.6267 22.6547 29.5609C21.0544 29.4622 19.4489 29.5335 17.7874 29.5335H17.7823Z" fill="white"/>
<path d="M115.158 46.5701H110.887V23.0611H115.118V31.4917C115.377 31.3984 115.525 31.3984 115.586 31.3216C117.758 28.623 122.895 29.3689 124.72 32.8629C125.285 33.938 125.805 35.1996 125.861 36.3953C126.014 39.7357 125.912 43.0926 125.912 46.5427H121.774C121.753 46.1423 121.713 45.7254 121.713 45.314C121.707 43.131 121.723 40.9534 121.702 38.7703C121.692 38.0792 121.631 37.3771 121.504 36.697C121.162 34.8924 120.046 34.0038 118.262 34.0587C116.672 34.108 115.485 35.205 115.26 36.8999C115.174 37.5472 115.169 38.2054 115.163 38.8581C115.153 40.9095 115.163 42.9609 115.163 45.0069C115.163 45.4786 115.163 45.9503 115.163 46.5756L115.158 46.5701Z" fill="white"/>
<path d="M91.4285 46.6304C89.8944 46.6304 88.3552 46.6085 86.8211 46.6414C86.235 46.6524 85.9598 46.23 85.654 45.8351C84.3034 44.0963 82.9579 42.3466 81.6073 40.6078C81.434 40.3884 81.2403 40.1855 80.8326 40.0374V46.5646H76.7145C76.4444 45.6212 76.3425 25.288 76.6024 23.0776H80.8275C80.8938 27.5643 80.8275 32.0676 80.8734 36.8944C81.8978 35.578 82.7234 34.5194 83.544 33.4553C84.2473 32.5503 84.9252 31.6288 85.654 30.7457C85.8833 30.4714 86.2146 30.1204 86.5051 30.1094C88.0647 30.0436 89.6294 30.082 91.1889 30.082C91.2348 30.1752 91.2807 30.274 91.3265 30.3672C89.1962 32.9562 87.0607 35.5451 84.864 38.2109C87.1167 40.9479 89.3287 43.6411 91.5406 46.3342L91.4234 46.6195L91.4285 46.6304Z" fill="white"/>
<path d="M144.637 46.5372C144.28 46.5756 144.046 46.6249 143.812 46.6249C142.843 46.6359 141.875 46.6249 140.794 46.6249V44.3486C140.616 44.3816 140.524 44.3651 140.504 44.4035C138.287 48.3034 132.568 47.7549 129.933 44.1402C127.783 41.1838 127.655 37.8488 129.011 34.5249C130.305 31.349 132.793 29.8461 135.968 29.7584C137.084 29.7255 138.261 29.8077 139.316 30.1643C142.563 31.2613 144.331 33.8447 144.591 37.3936C144.81 40.3775 144.637 43.3942 144.637 46.5372ZM140.3 38.4138C140.31 35.77 138.796 34.0477 136.462 34.0477C134.169 34.0477 132.533 35.8687 132.558 38.4028C132.579 40.9424 134.108 42.6428 136.391 42.6757C138.781 42.7086 140.29 41.0631 140.3 38.4138Z" fill="white"/>
<path d="M47.7403 29.72C51.843 29.7419 54.9418 32.2376 55.7267 36.4227C56.96 42.9719 52.4088 47.7 46.7005 47.0254C42.8118 46.5646 40.1463 43.8879 39.5449 40.169C38.5969 34.3384 42.2461 29.6871 47.7352 29.72H47.7403ZM51.5118 38.4028C51.5169 35.7645 49.9981 34.0422 47.6587 34.0477C45.3652 34.0532 43.7343 35.8852 43.7649 38.4193C43.7955 40.9589 45.3245 42.6538 47.6128 42.6812C49.9981 42.7086 51.5067 41.0576 51.5118 38.4028Z" fill="white"/>
<path d="M69.6048 40.2842H73.7279C73.6871 43.8385 70.1807 47.0254 66.19 47.0967C61.2412 47.1844 57.8672 43.6246 57.6532 38.7648C57.4544 34.2177 60.4971 30.2136 64.6355 29.7748C69.4468 29.2647 73.2081 31.9634 73.8095 36.4885C72.4996 36.7134 71.1847 36.6531 69.88 36.5269C69.6404 36.505 69.4111 36.0991 69.2225 35.8303C68.1522 34.3055 66.4958 33.6802 64.819 34.1903C62.9639 34.7553 61.8018 36.6805 62.0363 38.8142C62.2962 41.2057 63.6315 42.577 65.7415 42.6757C67.4998 42.758 68.7791 41.9572 69.6048 40.2842Z" fill="white"/>
<path d="M108.11 40.2842C107.559 44.5077 103.88 47.4203 99.6646 47.0967C95.098 46.7511 91.9738 43.2297 91.9381 38.4028C91.9075 33.8831 94.9859 30.1368 99.0275 29.7693C103.823 29.336 107.422 31.9305 108.125 36.505C107.539 36.5434 106.958 36.5873 106.382 36.6092C105.939 36.6257 105.49 36.5873 105.047 36.6202C104.348 36.6696 103.874 36.4556 103.436 35.7645C102.376 34.0861 100.327 33.5705 98.5586 34.3823C97.0348 35.0844 96.0919 37.0096 96.3416 38.9129C96.5913 40.8382 97.5699 42.1491 99.0479 42.5495C100.923 43.0597 102.524 42.4344 103.625 40.7504C103.716 40.6078 103.803 40.4652 103.92 40.2732H108.105L108.11 40.2842Z" fill="white"/>
<path d="M170.92 46.5756H166.782C166.757 46.1532 166.716 45.7364 166.711 45.325C166.706 43.1474 166.726 40.9644 166.695 38.7868C166.685 38.0518 166.624 37.3058 166.481 36.5873C166.14 34.8485 164.957 33.9764 163.163 34.0532C161.599 34.1245 160.483 35.1666 160.263 36.8286C160.177 37.4704 160.167 38.1341 160.161 38.7868C160.151 40.8766 160.161 42.9719 160.151 45.0617C160.151 45.5334 160.111 46.0051 160.085 46.5482H155.875C155.845 46.2245 155.799 45.9777 155.799 45.7254C155.799 42.9774 155.753 40.2348 155.814 37.4868C155.926 32.7313 158.709 29.8023 163.128 29.7309C163.851 29.72 164.596 29.7255 165.304 29.8681C168.5 30.5318 170.645 32.9068 170.875 36.5105C171.084 39.8015 170.92 43.12 170.92 46.5701V46.5756Z" fill="white"/>
<path d="M36.5226 23.0666V46.5262H32.3179V23.0666H36.5226Z" fill="white"/>
<path d="M152.165 46.5756H148.113V30.1752H152.099C152.45 31.1242 152.517 45.1988 152.165 46.5756Z" fill="white"/>
</g>
<defs>
<clipPath id="clip0_326_1056">
<rect width="211" height="67.4498" fill="white" transform="translate(0 0.550293)"/>
</clipPath>
</defs>
</svg>
