<svg xmlns="http://www.w3.org/2000/svg" xmlns:xlink="http://www.w3.org/1999/xlink" width="445" height="365" viewBox="0 0 445 365">
  <defs>
    <linearGradient id="linear-gradient" y1="0.5" x2="1" y2="0.5" gradientUnits="objectBoundingBox">
      <stop offset="0" stop-color="#dae3fe"/>
      <stop offset="1" stop-color="#e9effd"/>
    </linearGradient>
    <clipPath id="clip-Iot_graphic">
      <rect width="445" height="365"/>
    </clipPath>
  </defs>
  <g id="Iot_graphic" clip-path="url(#clip-Iot_graphic)">
    <g id="Group_2500" data-name="Group 2500" transform="translate(-353.826 -3396.421)">
      <path id="Path_12884" data-name="Path 12884" d="M111.886-4.131c61-102.708,141.881,64.347,126.041,126.041s-5.087,93.583-126.041,126.041S-204.47,224.222-92.593,129.8,50.883,98.576,111.886-4.131Z" transform="translate(533.201 3483.599)" fill="#f9f9f9"/>
      <rect id="Rectangle_292" data-name="Rectangle 292" width="228.117" height="236.24" rx="17" transform="translate(409.736 3504.56)" fill="#eff3f8"/>
      <g id="Group_2434" data-name="Group 2434" transform="translate(379.825 3416.421)">
        <g id="Group_2390" data-name="Group 2390" transform="translate(113.83 0)">
          <g id="Group_2383" data-name="Group 2383" transform="translate(0 16.808)">
            <g id="Group_2378" data-name="Group 2378" transform="translate(1.925 34.928)">
              <path id="Path_14651" data-name="Path 14651" d="M1300.353,656.046a.233.233,0,0,1-.366-.243q.11-.451.206-.9a.233.233,0,0,1,.457.1q-.1.46-.209.917A.232.232,0,0,1,1300.353,656.046Z" transform="translate(-1246.022 -654.716)" fill="#91b3fa"/>
              <path id="Path_14652" data-name="Path 14652" d="M1077.686,687.03a.233.233,0,0,1-.285-.37c.465-.372.925-.764,1.366-1.165a.233.233,0,1,1,.314.346c-.448.408-.916.806-1.388,1.184Zm-2.387,1.717-.013.009c-.51.328-1.036.645-1.565.94a.234.234,0,0,1-.318-.09.23.23,0,0,1,.09-.318c.52-.29,1.038-.6,1.539-.925a.233.233,0,0,1,.266.383Zm5.836-4.977a.233.233,0,0,1-.313-.343c.4-.442.786-.9,1.156-1.374a.233.233,0,1,1,.366.289c-.376.477-.772.947-1.175,1.4A.245.245,0,0,1,1081.135,683.769Zm-10.026,7.212a.223.223,0,0,1-.047.027c-.555.24-1.126.466-1.7.672a.234.234,0,1,1-.158-.439c.562-.2,1.123-.424,1.67-.661a.233.233,0,0,1,.232.4Zm12.9-10.994a.233.233,0,0,1-.337-.312l.09-.141c.288-.457.567-.929.829-1.4a.233.233,0,0,1,.408.227c-.266.48-.55.959-.843,1.424l-.091.143A.23.23,0,0,1,1084.006,679.987ZM1066.614,692.5a.236.236,0,0,1-.083.039c-.588.147-1.188.277-1.783.387a.234.234,0,0,1-.085-.459c.585-.108,1.175-.236,1.754-.381a.234.234,0,0,1,.2.414Zm19.614-16.712a.234.234,0,0,1-.354-.279c.235-.548.456-1.11.656-1.671a.233.233,0,0,1,.44.157c-.2.57-.427,1.141-.667,1.7A.23.23,0,0,1,1086.227,675.792Zm-24.3,17.483a.229.229,0,0,1-.12.045c-.605.05-1.218.081-1.822.092a.233.233,0,1,1-.009-.467c.594-.011,1.2-.042,1.792-.091a.233.233,0,0,1,.158.42Zm-4.744,0a.233.233,0,0,1-.159.045c-.6-.05-1.214-.119-1.812-.207a.233.233,0,1,1,.067-.462c.589.086,1.189.154,1.783.2a.234.234,0,0,1,.12.42Zm-4.679-.778a.232.232,0,0,1-.2.039c-.586-.148-1.176-.317-1.753-.5a.233.233,0,0,1,.142-.444c.568.182,1.148.348,1.724.493a.234.234,0,0,1,.169.284A.23.23,0,0,1,1052.507,692.5Zm-4.488-1.536a.234.234,0,0,1-.233.027c-.554-.243-1.109-.506-1.648-.783a.234.234,0,0,1,.214-.415c.53.272,1.076.531,1.621.77a.234.234,0,0,1,.12.308A.231.231,0,0,1,1048.019,690.959Zm-4.179-2.249a.234.234,0,0,1-.267.009c-.511-.331-1.015-.681-1.5-1.039a.233.233,0,1,1,.278-.375c.477.353.974.7,1.476,1.022a.233.233,0,0,1,.069.323A.228.228,0,0,1,1043.839,688.71Zm-3.762-2.9a.234.234,0,0,1-.3-.015c-.446-.406-.887-.833-1.311-1.269a.233.233,0,1,1,.335-.325c.417.43.851.85,1.29,1.249a.233.233,0,0,1,.016.33A.222.222,0,0,1,1040.077,685.814Zm-3.237-3.472a.234.234,0,0,1-.323-.043q-.243-.309-.477-.623c-.208-.279-.412-.563-.607-.845a.233.233,0,0,1,.052-.32l.007-.005a.234.234,0,0,1,.325.06c.191.277.392.557.6.831q.23.309.47.613a.234.234,0,0,1-.039.328Z" transform="translate(-1033.402 -669.96)" fill="#91b3fa"/>
              <path id="Path_14653" data-name="Path 14653" d="M1026.067,692.429l-.027.018a.234.234,0,0,1-.317-.092q-.227-.412-.439-.832a.233.233,0,1,1,.416-.211q.209.412.432.818A.233.233,0,0,1,1026.067,692.429Z" transform="translate(-1025.257 -684.021)" fill="#91b3fa"/>
            </g>
            <g id="Group_2379" data-name="Group 2379">
              <path id="Path_14654" data-name="Path 14654" d="M1015.831,578.544a.234.234,0,0,1-.363-.255q.136-.45.286-.9a.233.233,0,0,1,.442.149q-.148.44-.282.882A.234.234,0,0,1,1015.831,578.544Z" transform="translate(-1015.458 -557.524)" fill="#91b3fa"/>
              <path id="Path_14655" data-name="Path 14655" d="M1073.916,490.752l-.015.01a.233.233,0,0,1-.322-.073c-.336-.531-.695-1.059-1.066-1.568a.234.234,0,0,1,.049-.325l0,0a.234.234,0,0,1,.326.051c.377.518.742,1.054,1.083,1.594A.233.233,0,0,1,1073.916,490.752Zm-3.038-3.988a.233.233,0,0,1-.312-.03c-.423-.465-.868-.922-1.323-1.359a.233.233,0,0,1,.324-.336c.462.444.914.909,1.344,1.382a.233.233,0,0,1-.016.33Zm-3.684-3.4a.233.233,0,0,1-.282,0c-.5-.384-1.014-.758-1.537-1.111a.233.233,0,1,1,.261-.387c.532.359,1.058.738,1.562,1.129a.233.233,0,0,1,.042.328A.237.237,0,0,1,1067.193,483.365Zm-4.213-2.718a.233.233,0,0,1-.249.019c-.556-.295-1.13-.575-1.7-.833a.233.233,0,1,1,.191-.426c.583.261,1.166.546,1.731.846a.233.233,0,0,1,.031.393Zm-4.615-1.956a.233.233,0,0,1-.212.035c-.6-.194-1.212-.371-1.821-.525a.233.233,0,1,1,.114-.453c.619.156,1.242.336,1.851.533a.233.233,0,0,1,.068.409Zm-4.881-1.125a.232.232,0,0,1-.172.044c-.623-.087-1.257-.155-1.885-.2a.233.233,0,1,1,.034-.466c.639.047,1.283.115,1.916.2a.233.233,0,0,1,.107.418Zm-5-.263a.232.232,0,0,1-.131.046c-.63.022-1.266.064-1.892.127a.233.233,0,0,1-.047-.465c.636-.064,1.283-.107,1.923-.129a.234.234,0,0,1,.147.421Zm-25.348,16.825a.233.233,0,0,1-.352-.285c.268-.58.559-1.159.866-1.721a.233.233,0,1,1,.41.223c-.3.553-.588,1.123-.852,1.694A.232.232,0,0,1,1023.133,494.126ZM1043.5,477.9a.233.233,0,0,1-.091.041c-.616.129-1.236.28-1.843.45a.233.233,0,1,1-.125-.45c.616-.172,1.246-.326,1.872-.457a.233.233,0,0,1,.187.416Zm-17.884,11.871a.234.234,0,0,1-.332-.32c.364-.527.75-1.048,1.147-1.549a.233.233,0,1,1,.366.29c-.39.493-.77,1.006-1.128,1.525A.232.232,0,0,1,1025.62,489.774Zm13.085-10.425a.23.23,0,0,1-.053.03c-.585.233-1.17.488-1.738.759a.233.233,0,0,1-.2-.421c.578-.275,1.172-.535,1.766-.771a.233.233,0,0,1,.226.4Zm-9.891,6.56a.234.234,0,0,1-.306-.351c.449-.456.919-.9,1.4-1.328a.23.23,0,0,1,.329.019.233.233,0,0,1-.019.33c-.47.418-.933.858-1.375,1.307A.251.251,0,0,1,1028.814,485.909Zm5.41-4.31-.017.012c-.536.33-1.068.683-1.581,1.048a.233.233,0,0,1-.326-.055.236.236,0,0,1,.055-.325c.521-.371,1.062-.73,1.607-1.065a.233.233,0,0,1,.262.386Z" transform="translate(-1021.325 -476.88)" fill="#91b3fa"/>
              <path id="Path_14656" data-name="Path 14656" d="M1289.847,560.509a.24.24,0,0,1-.044.026.234.234,0,0,1-.309-.117q-.19-.422-.394-.838a.233.233,0,1,1,.419-.205q.207.423.4.851A.234.234,0,0,1,1289.847,560.509Z" transform="translate(-1235.336 -543.067)" fill="#91b3fa"/>
            </g>
            <g id="Group_2382" data-name="Group 2382" transform="translate(5.484 7.011)">
              <g id="Group_2380" data-name="Group 2380">
                <path id="Path_14657" data-name="Path 14657" d="M1087.14,528.214a.348.348,0,0,0-.292-.278l-4.189-.594a18.425,18.425,0,0,0-3.29-4.983l1.1-4.084a.347.347,0,0,0-.141-.378l-4.205-2.841a.348.348,0,0,0-.4.01l-3.38,2.541a18.431,18.431,0,0,0-5.851-1.193l-2.114-3.665a.348.348,0,0,0-.367-.167l-4.983.965a.348.348,0,0,0-.278.292l-.594,4.189a18.43,18.43,0,0,0-4.983,3.29l-4.084-1.1a.347.347,0,0,0-.378.141l-2.841,4.205a.347.347,0,0,0,.01.4l2.541,3.38a18.426,18.426,0,0,0-1.193,5.851l-3.665,2.114a.348.348,0,0,0-.168.367l.965,4.983a.347.347,0,0,0,.292.278l4.189.594a18.43,18.43,0,0,0,3.29,4.983l-1.1,4.084a.348.348,0,0,0,.141.378l4.205,2.841a.348.348,0,0,0,.4-.01l3.38-2.54a18.432,18.432,0,0,0,5.851,1.193l2.114,3.665a.348.348,0,0,0,.367.168l4.983-.965a.348.348,0,0,0,.278-.292l.594-4.189a18.433,18.433,0,0,0,4.983-3.29l4.084,1.1a.348.348,0,0,0,.378-.141l2.841-4.205a.348.348,0,0,0-.01-.4l-2.541-3.38a18.435,18.435,0,0,0,1.193-5.851l3.665-2.114a.348.348,0,0,0,.168-.367Z" transform="translate(-1043.379 -512.575)" fill="#cddcfb"/>
              </g>
              <g id="Group_2381" data-name="Group 2381" transform="translate(17.623 17.623)">
                <path id="Path_14658" data-name="Path 14658" d="M1140.687,610.84a4.738,4.738,0,1,1,1.62-2.183A4.74,4.74,0,0,1,1140.687,610.84Zm-5.4-7.217a4.285,4.285,0,1,0,.747-.447A4.327,4.327,0,0,0,1135.288,603.623Z" transform="translate(-1133.107 -602.302)" fill="#bdd0fb"/>
              </g>
              <path id="Path_14659" data-name="Path 14659" d="M1113.149,585.522a12.471,12.471,0,1,1,1.392-18.792q.08.081.159.163a.263.263,0,0,1,.019.022.233.233,0,0,1-.356.3,12.088,12.088,0,0,0-1.957-1.648,12.008,12.008,0,1,0,5.271,10.615.234.234,0,0,1,.466.025,12.495,12.495,0,0,1-4.995,9.313Z" transform="translate(-1083.419 -553.128)" fill="#bdd0fb"/>
            </g>
          </g>
          <g id="Group_2389" data-name="Group 2389" transform="translate(46.153)">
            <g id="Group_2384" data-name="Group 2384" transform="translate(5.724 19.701)">
              <path id="Path_14660" data-name="Path 14660" d="M1466.875,492.566a.171.171,0,0,1-.307-.1q-.014-.34-.039-.678a.171.171,0,0,1,.342-.025q.025.344.039.689A.17.17,0,0,1,1466.875,492.566Z" transform="translate(-1429.811 -491.608)" fill="#91b3fa"/>
              <path id="Path_14661" data-name="Path 14661" d="M1321.288,517.317a.171.171,0,0,1-.276-.2c.252-.356.5-.726.726-1.1a.171.171,0,1,1,.291.18c-.233.379-.481.754-.738,1.117Zm-1.333,1.7-.008.009c-.292.335-.6.665-.911.98a.171.171,0,0,1-.242,0,.169.169,0,0,1,0-.242c.307-.31.609-.635.9-.965a.171.171,0,0,1,.266.216Zm3.1-4.694a.171.171,0,0,1-.29-.178c.19-.392.37-.8.536-1.2a.171.171,0,0,1,.317.129c-.168.413-.352.824-.545,1.223A.154.154,0,0,1,1323.056,514.318Zm-5.6,7.12a.171.171,0,0,1-.028.029c-.342.282-.7.557-1.059.818a.171.171,0,1,1-.2-.278c.354-.257.705-.528,1.042-.8a.171.171,0,0,1,.245.236Zm6.854-10.369a.171.171,0,0,1-.3-.152l.034-.118c.11-.381.211-.77.3-1.156a.171.171,0,0,1,.334.077c-.09.392-.192.788-.3,1.175l-.035.119A.176.176,0,0,1,1324.31,511.07Zm-9.713,12.356a.173.173,0,0,1-.051.045c-.385.223-.781.437-1.178.635a.171.171,0,0,1-.153-.306c.39-.195.78-.4,1.159-.625a.171.171,0,0,1,.222.252Zm10.426-15.764a.171.171,0,0,1-.306-.125c.054-.434.1-.875.123-1.311a.171.171,0,0,1,.342.021c-.028.443-.069.891-.125,1.333A.171.171,0,0,1,1325.023,507.662Zm-13.57,17.259a.173.173,0,0,1-.076.056c-.416.158-.842.3-1.265.435a.171.171,0,1,1-.1-.327c.416-.129.835-.273,1.245-.428a.171.171,0,0,1,.2.264Zm-3.344.963a.171.171,0,0,1-.1.064c-.436.088-.879.163-1.319.223a.171.171,0,0,1-.046-.339c.432-.059.869-.133,1.3-.219a.171.171,0,0,1,.17.271Zm-3.455.4a.171.171,0,0,1-.131.068c-.443.015-.893.016-1.337,0a.171.171,0,1,1,.01-.342c.438.013.88.012,1.316,0a.171.171,0,0,1,.142.275Zm-3.476-.17a.172.172,0,0,1-.159.066c-.44-.058-.884-.131-1.32-.217a.171.171,0,1,1,.066-.336c.429.084.866.156,1.3.213a.172.172,0,0,1,.114.273Zm-3.4-.736a.171.171,0,0,1-.186.06c-.427-.129-.854-.273-1.268-.427a.171.171,0,1,1,.119-.321c.408.152.828.293,1.248.421a.171.171,0,0,1,.087.267Zm-3.24-1.276a.171.171,0,0,1-.212.05c-.4-.2-.794-.406-1.182-.628a.171.171,0,1,1,.17-.3c.381.218.773.426,1.163.618a.171.171,0,0,1,.078.229A.163.163,0,0,1,1294.536,524.1Zm-2.987-1.789a.171.171,0,0,1-.236.036q-.234-.168-.463-.342c-.2-.154-.4-.313-.6-.473a.171.171,0,0,1-.028-.236l0,0a.171.171,0,0,1,.241-.024c.191.156.389.313.59.464q.225.171.455.336a.171.171,0,0,1,.04.239Z" transform="translate(-1288.106 -503.226)" fill="#91b3fa"/>
              <path id="Path_14662" data-name="Path 14662" d="M1280.371,574.124l-.016.018a.171.171,0,0,1-.242,0q-.244-.245-.479-.5a.171.171,0,1,1,.25-.233q.231.248.471.489A.171.171,0,0,1,1280.371,574.124Z" transform="translate(-1279.588 -557.3)" fill="#91b3fa"/>
            </g>
            <g id="Group_2385" data-name="Group 2385">
              <path id="Path_14663" data-name="Path 14663" d="M1250.75,495.709a.171.171,0,0,1-.308-.106q0-.344.02-.69a.171.171,0,1,1,.342.015q-.015.34-.019.679A.173.173,0,0,1,1250.75,495.709Z" transform="translate(-1250.443 -474.432)" fill="#91b3fa"/>
              <path id="Path_14664" data-name="Path 14664" d="M1287.094,396.93l-.008.01a.171.171,0,0,1-.242.014c-.345-.306-.7-.605-1.07-.889a.171.171,0,0,1-.031-.239h0a.171.171,0,0,1,.24-.03c.371.288.737.592,1.088.9A.171.171,0,0,1,1287.094,396.93Zm-2.952-2.193a.171.171,0,0,1-.226.042c-.392-.242-.8-.474-1.208-.689a.171.171,0,1,1,.16-.3c.416.219.829.455,1.228.7a.171.171,0,0,1,.056.236Zm-3.287-1.647a.171.171,0,0,1-.2.055c-.428-.17-.869-.328-1.309-.47a.171.171,0,1,1,.105-.326c.448.145.9.305,1.33.478a.171.171,0,0,1,.1.222A.181.181,0,0,1,1280.854,393.09Zm-3.521-1.059a.171.171,0,0,1-.172.064c-.452-.095-.913-.176-1.37-.241a.171.171,0,1,1,.048-.339c.464.066.933.148,1.392.244a.171.171,0,0,1,.1.271Zm-3.65-.441a.171.171,0,0,1-.142.068c-.462-.015-.929-.015-1.39,0a.171.171,0,1,1-.011-.342c.468-.016.943-.016,1.412,0a.171.171,0,0,1,.165.177A.169.169,0,0,1,1273.683,391.59Zm-3.669.2a.17.17,0,0,1-.112.066c-.456.065-.917.146-1.369.241a.171.171,0,1,1-.071-.335c.46-.1.928-.18,1.391-.245a.171.171,0,0,1,.161.273Zm-3.58.831a.172.172,0,0,1-.083.059c-.439.143-.879.3-1.307.474a.171.171,0,1,1-.127-.318c.435-.174.882-.336,1.329-.482a.171.171,0,0,1,.189.267Zm-14.444,17.009a.171.171,0,0,1-.306-.129c.071-.463.159-.931.26-1.389a.171.171,0,1,1,.334.074c-.1.451-.186.911-.256,1.367A.167.167,0,0,1,1251.991,409.629Zm11.059-15.574a.172.172,0,0,1-.056.047c-.408.216-.814.449-1.207.691a.171.171,0,0,1-.18-.291c.4-.246.812-.483,1.227-.7a.171.171,0,0,1,.217.255Zm-10.191,12a.171.171,0,0,1-.3-.158c.149-.446.315-.891.493-1.325a.171.171,0,1,1,.317.13c-.175.427-.338.865-.485,1.3A.17.17,0,0,1,1252.859,406.056Zm7.1-10.006a.164.164,0,0,1-.032.032c-.365.283-.725.582-1.071.888a.171.171,0,0,1-.227-.256c.351-.311.717-.615,1.088-.9a.171.171,0,0,1,.241.239Zm-5.637,6.634a.171.171,0,0,1-.287-.185c.224-.413.464-.823.715-1.22a.169.169,0,0,1,.236-.053.171.171,0,0,1,.053.236c-.246.39-.483.794-.7,1.2A.158.158,0,0,1,1254.324,402.684Zm2.937-4.137-.01.012c-.311.342-.614.7-.9,1.06a.171.171,0,0,1-.24.028.174.174,0,0,1-.028-.241c.292-.367.6-.73.916-1.077a.171.171,0,0,1,.263.219Z" transform="translate(-1251.439 -391.304)" fill="#91b3fa"/>
              <path id="Path_14665" data-name="Path 14665" d="M1439.456,427.544a.179.179,0,0,1-.026.027.171.171,0,0,1-.241-.02q-.22-.259-.448-.51a.171.171,0,1,1,.254-.23q.232.256.455.518A.172.172,0,0,1,1439.456,427.544Z" transform="translate(-1401.722 -419.792)" fill="#91b3fa"/>
            </g>
            <g id="Group_2388" data-name="Group 2388" transform="translate(5.236 5.447)">
              <g id="Group_2386" data-name="Group 2386">
                <path id="Path_14666" data-name="Path 14666" d="M1306.945,426.084a.255.255,0,0,0-.263-.136l-3.073.433a13.522,13.522,0,0,0-3.332-2.843l-.058-3.1a.255.255,0,0,0-.176-.238l-3.541-1.148a.255.255,0,0,0-.282.089l-1.866,2.478a13.52,13.52,0,0,0-4.366.348l-2.235-2.153a.255.255,0,0,0-.293-.043l-3.315,1.692a.254.254,0,0,0-.136.263l.433,3.073a13.514,13.514,0,0,0-2.843,3.332l-3.1.058a.255.255,0,0,0-.238.176l-1.148,3.541a.255.255,0,0,0,.089.282l2.477,1.865a13.522,13.522,0,0,0,.348,4.366l-2.153,2.235a.255.255,0,0,0-.043.293l1.693,3.316a.255.255,0,0,0,.262.137l3.073-.433a13.524,13.524,0,0,0,3.332,2.843l.058,3.1a.255.255,0,0,0,.176.238l3.541,1.147a.255.255,0,0,0,.282-.089l1.866-2.477a13.514,13.514,0,0,0,4.366-.348l2.235,2.153a.255.255,0,0,0,.293.044l3.316-1.692a.255.255,0,0,0,.136-.263l-.433-3.073a13.523,13.523,0,0,0,2.843-3.332l3.1-.058a.255.255,0,0,0,.238-.176l1.147-3.541a.255.255,0,0,0-.089-.282l-2.477-1.866a13.515,13.515,0,0,0-.348-4.366l2.153-2.235a.255.255,0,0,0,.043-.293Z" transform="translate(-1277.1 -419.039)" fill="#cddcfb"/>
              </g>
              <g id="Group_2387" data-name="Group 2387" transform="translate(12.657 12.657)">
                <path id="Path_14667" data-name="Path 14667" d="M1347.792,489.057a3.475,3.475,0,1,1,.7-1.868A3.475,3.475,0,0,1,1347.792,489.057Zm-5.272-3.988a3.143,3.143,0,1,0,.436-.467A3.158,3.158,0,0,0,1342.521,485.068Z" transform="translate(-1341.544 -483.482)" fill="#bdd0fb"/>
              </g>
              <path id="Path_14668" data-name="Path 14668" d="M1328.745,469.457a9.147,9.147,0,1,1-2.839-13.526l.146.083.018.012a.171.171,0,0,1-.189.284,8.872,8.872,0,0,0-1.714-.763,8.808,8.808,0,1,0,5.872,6.409.171.171,0,0,1,.27-.175.169.169,0,0,1,.063.1,9.164,9.164,0,0,1-1.627,7.579Z" transform="translate(-1305.383 -447.752)" fill="#bdd0fb"/>
            </g>
          </g>
        </g>
        <g id="Group_2393" data-name="Group 2393" transform="translate(50.081 153.218)">
          <g id="Group_2392" data-name="Group 2392" transform="translate(12.706 0)">
            <path id="Path_14669" data-name="Path 14669" d="M850.26,785.385a4.484,4.484,0,0,1-4.473,4.469H603.9a4.484,4.484,0,0,1-4.473-4.469L597.41,646.377a7.79,7.79,0,0,1,8.2-6.9l236.4-6.117a11.272,11.272,0,0,1,11.567,11.529Z" transform="translate(-597.41 -633.361)" fill="#1d73f8"/>
            <path id="internet-things_71983-386" d="M871.161,802.785a4.244,4.244,0,0,1-4.232,4.232H635.047a4.244,4.244,0,0,1-4.232-4.232l-1.9-126.193c.224-7.594,6.882-10.323,10.917-10.162l226.577-6.079a7.912,7.912,0,0,1,8.121,8.107Z" transform="translate(-622.728 -655.048)" fill="#cddcfb"/>
            <text id="IOT" transform="translate(74.948 102.133)" fill="#1d73f8" font-size="59" font-family="SegoeUI-Bold, Segoe UI" font-weight="700"><tspan x="0" y="0">IOT</tspan></text>
          </g>
          <path id="Path_14674" data-name="Path 14674" d="M811.789,1435.9H538.823c-3.359,0-6.107-2.07-6.107-4.6s2.748-4.6,6.107-4.6H811.789c3.359,0,6.107,2.069,6.107,4.6S815.147,1435.9,811.789,1435.9Z" transform="translate(-532.716 -1270.88)" fill="#1d73f8"/>
        </g>
        <g id="Group_2398" data-name="Group 2398" transform="translate(171.18 65.731)">
          <g id="Group_2397" data-name="Group 2397" transform="translate(0 0)">
            <path id="Path_14677" data-name="Path 14677" d="M1439.1,416.178c-.072.137-4.617,3.482-4.617,3.482s1,7.181,5.08,10.016c4.481,3.117,10.81-2.568,10.81-2.568s5.037,1.2,7.716-9.287c.614-2.405-2.933-2.609-7.214-2.166C1445.348,416.226,1439.1,416.178,1439.1,416.178Z" transform="translate(-1408.565 -407.92)" fill="#1d73f8"/>
            <path id="Path_14678" data-name="Path 14678" d="M1409.037,482.374a19.177,19.177,0,0,1,5.828-2.712c.782-.213,5.01,1.016,7.623.956,3.586-.083,7.238-1.715,10.194-.978a21.325,21.325,0,0,1,6.728,2.675c4.154,2.955,6.593,8.464,8.08,13.922a19.02,19.02,0,0,1-6.357,4.173l-.655,26.527-15.685,8.025-17.9-8.988.641-25.923s-5.685-2.648-6.1-3.611S1404.021,485.823,1409.037,482.374Z" transform="translate(-1387.002 -449.618)" fill="#9bbdf2"/>
            <path id="Path_14679" data-name="Path 14679" d="M1399.149,527.9s-7.618,21.121,9.754,29.8c3.608-.479,2.22-6.47,2.22-6.47s-7.549-1.671-5.281-19.29A48.815,48.815,0,0,0,1399.149,527.9Z" transform="translate(-1384.458 -481.192)" fill="#cce0ff"/>
            <path id="Path_14680" data-name="Path 14680" d="M1509.8,527.9s5.243,22.048-9.754,29.8c-3.607-.479-2.22-6.47-2.22-6.47s6.084-3,5.281-19.29A48.806,48.806,0,0,1,1509.8,527.9Z" transform="translate(-1449.68 -481.192)" fill="#cce0ff"/>
            <rect id="Rectangle_343" data-name="Rectangle 343" width="34.397" height="23.23" rx="8.334" transform="translate(19.682 54.763)" fill="#1d73f8"/>
            <g id="Group_2395" data-name="Group 2395" transform="translate(53.022 84.181)">
              <path id="Path_14681" data-name="Path 14681" d="M1532.435,636.472c-3.937-.9-13.035-.418-13.035-.418l-.37,1-.612,4.981s8.664,1.562,12.935,1.558a4.027,4.027,0,0,0,1.2-.179c.13-.117.258-.238.378-.369A4.7,4.7,0,0,0,1532.435,636.472Z" transform="translate(-1516.292 -635.773)" fill="#d1e3ff"/>
              <path id="Path_14682" data-name="Path 14682" d="M1512.809,635.493l1.541.066a2.968,2.968,0,0,1,2.164,1.119,3.653,3.653,0,0,1,.794,2.5,2.875,2.875,0,0,1-.834,1.9,2.333,2.333,0,0,1-1.8.684l-2.357-.168Z" transform="translate(-1512.314 -635.493)" fill="#fef4e8"/>
            </g>
            <g id="Group_2396" data-name="Group 2396" transform="translate(0 84.047)">
              <path id="Path_14683" data-name="Path 14683" d="M1361.793,635.462c3.958-.783,13.04-.018,13.04-.018l.345,1.013.489,5s-8.7,1.3-12.969,1.16a4.033,4.033,0,0,1-1.193-.216c-.127-.121-.252-.246-.369-.381A4.689,4.689,0,0,1,1361.793,635.462Z" transform="translate(-1360.079 -635.11)" fill="#d1e3ff"/>
              <path id="Path_14684" data-name="Path 14684" d="M1401.373,635.5l-1.542.018a2.95,2.95,0,0,0-2.191,1.052,3.634,3.634,0,0,0-.856,2.472,2.894,2.894,0,0,0,.786,1.925,2.346,2.346,0,0,0,1.785.74l2.361-.1Z" transform="translate(-1383.999 -635.362)" fill="#fef4e8"/>
            </g>
            <path id="Path_14685" data-name="Path 14685" d="M1460.366,585.4c-1.785-4.109-6.151-4.776-9.868-2.855-.065.085-23.6,12.147-44.354,17.433a22.552,22.552,0,0,1,.966,5.924q.018.666-.021,1.313c15.916-.817,33.19-6.125,48.033-10.79A8.2,8.2,0,0,0,1460.366,585.4Z" transform="translate(-1390.1 -516.133)" fill="#d1e3ff"/>
            <path id="Path_14686" data-name="Path 14686" d="M1419.482,605.161a13.69,13.69,0,0,1,1.339-6.413c.028-.091.06-.178.089-.267-1.185-.367-2.716-.864-4.728-1.547a226.915,226.915,0,0,1-36.712-16c-4.169-2.278-8.909-.751-10.243,4.181-1.191,4.4,1.425,8.163,5.4,9.484,11.878,3.953,5.694,2.855,9.573,4.1a162.327,162.327,0,0,0,35.311,6.958C1419.5,605.494,1419.487,605.327,1419.482,605.161Z" transform="translate(-1365.852 -515.082)" fill="#b0c2de"/>
            <path id="Path_14687" data-name="Path 14687" d="M1440.077,467.294a9.09,9.09,0,0,0,9.28,6.726c7.838-.142,8.537-6.749,8.537-6.749l-5.12-1.1-.428-5.7-7.7.571-.143,5.42Z" transform="translate(-1412.214 -437.249)" fill="#d1e3ff"/>
            <path id="Path_14688" data-name="Path 14688" d="M1449.789,414.062s-8.826,17.1,1.644,21.244c7.385,2.926,12.015-11.353,10.634-15.221-2.135-5.979-3.542-5.27-3.542-5.27Z" transform="translate(-1416.277 -407.004)" fill="#cce0ff"/>
            <path id="Path_14689" data-name="Path 14689" d="M1456.343,399.3c4.36,1.2.634,10.655-5.931,8.419s-9.145-2.2-10.168-.4-1.242,8.2-3.462,5.04c-2.434-3.469-3.79-10.431-.807-12.676,2.666-2.006,3.289-5.116,6.487-5.008,4.245.143,7.528-1.739,9.444-.382C1454.108,395.849,1453.134,398.417,1456.343,399.3Z" transform="translate(-1408.43 -393.796)" fill="#191919"/>
            <path id="Path_14690" data-name="Path 14690" d="M1446.076,435.361s-1.882-2.025-2.184.416.666,5.585,1.8,3.862S1446.076,435.361,1446.076,435.361Z" transform="translate(-1414.664 -420.371)" fill="#1d73f8"/>
          </g>
          <path id="Path_14691" data-name="Path 14691" d="M1463.736,565.295a2.1,2.1,0,0,1-1.711,2.534,2.256,2.256,0,0,1-2.562-1.9,2.145,2.145,0,0,1,1.615-2.639A2.429,2.429,0,0,1,1463.736,565.295Z" transform="translate(-1424.827 -504.241)" fill="#fff"/>
        </g>
        <g id="Group_2433" data-name="Group 2433" transform="translate(0 88.344)">
          <g id="Group_2437" data-name="Group 2437" transform="translate(0 7.605)">
            <g id="Group_2436" data-name="Group 2436" transform="translate(21.791 30.42)">
              <path id="Path_14692" data-name="Path 14692" d="M536.419,604.086l-21.008.724a2.217,2.217,0,0,1-1.647-.633,2.24,2.24,0,0,1-.689-1.624v-8a7.238,7.238,0,0,0-7.208-7.242V563.434a7.257,7.257,0,0,0-7.248-7.248H475.093v4.99h23.525a2.261,2.261,0,0,1,2.258,2.258v23.938l-64.246.9a2.3,2.3,0,0,1-1.617-.65,2.242,2.242,0,0,1-.673-1.608V509.333h-4.99v76.686a7.248,7.248,0,0,0,7.35,7.248l69.094-.973a2.319,2.319,0,0,1,1.617.65,2.241,2.241,0,0,1,.673,1.608v8a7.248,7.248,0,0,0,7.24,7.248c.086,0,.172,0,.258,0l20.836-.718Z" transform="translate(-429.35 -506.844)" fill="#9bbdf2"/>
              <path id="Path_14693" data-name="Path 14693" d="M589.73,1041.78l-56.7.969A7.283,7.283,0,0,0,525.91,1050a2.261,2.261,0,0,1-2.258,2.258h-27.96v4.99h27.96A7.257,7.257,0,0,0,530.9,1050a2.269,2.269,0,0,1,2.219-2.258l56.611-.968Z" transform="translate(-482.661 -934.713)" fill="#9bbdf2"/>
              <path id="Path_14694" data-name="Path 14694" d="M670.264,1095.111H655.831a7.256,7.256,0,0,0-7.248,7.249v2.692a2.261,2.261,0,0,1-2.258,2.258H603.156a7.256,7.256,0,0,0-7.248,7.248v9.72a7.249,7.249,0,0,0,7.24,7.249c.092,0,.184,0,.277-.005l25.012-.927-.185-4.987-25.012.927a2.258,2.258,0,0,1-2.342-2.257v-9.72a2.261,2.261,0,0,1,2.258-2.258h43.168a7.257,7.257,0,0,0,7.248-7.249v-2.692a2.261,2.261,0,0,1,2.258-2.258h14.433Z" transform="translate(-563.195 -977.57)" fill="#9bbdf2"/>
              <path id="Path_14695" data-name="Path 14695" d="M712.843,583.7H701.737a2.261,2.261,0,0,1-2.258-2.258V530.462a7.271,7.271,0,0,0-7.166-7.248c-8.038-.087-24.615-.027-33.78.016h-.021a4.6,4.6,0,0,1-4.588-4.545c-.037-3.84-.065-9.2,0-12.915a2.248,2.248,0,0,1,2.1-2.215l27.82-1.919-.343-4.978-27.82,1.919a7.21,7.21,0,0,0-6.748,7.1c-.069,3.776-.04,9.183,0,13.054a9.6,9.6,0,0,0,9.578,9.487h.045c9.151-.043,25.7-.1,33.7-.017a2.264,2.264,0,0,1,2.23,2.258v50.984a7.257,7.257,0,0,0,7.248,7.248h11.106Z" transform="translate(-605.774 -496.659)" fill="#9bbdf2"/>
            </g>
            <g id="Group_2403" data-name="Group 2403" transform="translate(4.476)">
              <g id="Group_2400" data-name="Group 2400">
                <path id="Path_14699" data-name="Path 14699" d="M371.6,341.778l-22.785.755c-4.421.719-7.618,4-7.618,7.824V371.3c0,4.4,4.2,7.967,9.383,7.967H371.1c5.182,0,9.383-3.567,9.383-7.967V351.951C380.488,346.95,377.968,341.777,371.6,341.778Z" transform="translate(-341.194 -341.778)" fill="#1d73f8"/>
                <path id="Path_14700" data-name="Path 14700" d="M377.138,349.5l-21.3.687c-4.133.655-7.122,3.645-7.122,7.126v19.07c0,4.007,3.927,7.255,8.772,7.255h19.191c4.844,0,8.772-3.248,8.772-7.255V358.765C385.45,354.211,383.094,349.5,377.138,349.5Z" transform="translate(-347.238 -347.984)" fill="#fff" opacity="0.89"/>
              </g>
              <g id="Group_2402" data-name="Group 2402" transform="translate(4.302 3.176)">
                <circle id="Ellipse_159" data-name="Ellipse 159" cx="12.827" cy="12.827" r="12.827" transform="translate(0 25.072) rotate(-77.778)" fill="#1d73f8"/>
                <g id="Group_2401" data-name="Group 2401" transform="translate(13.705 6.831)">
                  <path id="Path_14701" data-name="Path 14701" d="M432.876,394.189a1.441,1.441,0,0,1,.393-1.067,1.483,1.483,0,0,1,1.1-.393,1.363,1.363,0,0,1,1.46,1.46,1.4,1.4,0,0,1-.408,1.077,1.475,1.475,0,0,1-1.052.383,1.518,1.518,0,0,1-1.082-.383A1.4,1.4,0,0,1,432.876,394.189Zm2.828,14.344h-2.716V397.16H435.7Z" transform="translate(-432.876 -392.729)" fill="url(#linear-gradient)"/>
                </g>
              </g>
            </g>
            <g id="Group_2413" data-name="Group 2413" transform="translate(29.298 63.144)">
              <g id="Group_2411" data-name="Group 2411">
                <path id="Path_14711" data-name="Path 14711" d="M497.974,663.273l-22.785.755c-4.421.719-7.618,4-7.618,7.824v20.94c0,4.4,4.2,7.967,9.383,7.967h20.528c5.182,0,9.383-3.567,9.383-7.967V673.446C506.865,668.445,504.345,663.272,497.974,663.273Z" transform="translate(-467.571 -663.273)" fill="#1d73f8"/>
                <path id="Path_14712" data-name="Path 14712" d="M503.515,671l-21.3.687c-4.133.655-7.122,3.645-7.122,7.126v19.07c0,4.007,3.927,7.255,8.772,7.255h19.191c4.844,0,8.772-3.248,8.772-7.255V680.26C511.827,675.706,509.471,670.995,503.515,671Z" transform="translate(-473.615 -669.479)" fill="#fff" opacity="0.89"/>
              </g>
              <g id="Group_2412" data-name="Group 2412" transform="translate(6.816 5.656)">
                <path id="Path_14713" data-name="Path 14713" d="M514.934,717.389a12.66,12.66,0,1,1,12.66-12.66A12.675,12.675,0,0,1,514.934,717.389Zm0-23.2a10.539,10.539,0,1,0,10.538,10.539A10.551,10.551,0,0,0,514.934,694.19Z" transform="translate(-502.274 -692.068)" fill="#1d73f8"/>
                <path id="Path_14714" data-name="Path 14714" d="M546.54,738.97v-9.1a1.255,1.255,0,0,1,1.895-1.079l7.67,4.551a1.255,1.255,0,0,1,0,2.158l-7.67,4.551A1.255,1.255,0,0,1,546.54,738.97Z" transform="translate(-537.846 -721.434)" fill="#1d73f8" fill-rule="evenodd"/>
              </g>
            </g>
            <g id="Group_2419" data-name="Group 2419" transform="translate(0 131.793)">
              <g id="Group_2416" data-name="Group 2416">
                <path id="Path_14718" data-name="Path 14718" d="M348.807,1012.789l-22.785.755c-4.421.719-7.618,4-7.618,7.824v20.94c0,4.4,4.2,7.966,9.383,7.966h20.528c5.182,0,9.383-3.567,9.383-7.966v-19.346C357.7,1017.961,355.178,1012.788,348.807,1012.789Z" transform="translate(-318.404 -1012.789)" fill="#1d73f8"/>
                <path id="Path_14719" data-name="Path 14719" d="M354.348,1020.513l-21.3.687c-4.133.654-7.122,3.645-7.122,7.125v19.07c0,4.007,3.927,7.255,8.772,7.255h19.191c4.844,0,8.772-3.249,8.772-7.255v-17.619C362.66,1025.223,360.3,1020.512,354.348,1020.513Z" transform="translate(-324.448 -1018.996)" fill="#fff" opacity="0.89"/>
              </g>
              <g id="Group_2418" data-name="Group 2418" transform="translate(3.685 2.965)">
                <circle id="Ellipse_162" data-name="Ellipse 162" cx="12.905" cy="12.905" r="12.905" transform="translate(0 24.809) rotate(-73.997)" fill="#1d73f8"/>
                <g id="Group_2417" data-name="Group 2417" transform="translate(8.07 5.479)">
                  <path id="Path_14720" data-name="Path 14720" d="M406.866,1059.782c0,2.341-1.9,4.868-4.238,4.868s-4.238-2.527-4.238-4.868a4.245,4.245,0,0,1,8.476,0Z" transform="translate(-394.435 -1055.781)" fill="url(#linear-gradient)"/>
                  <path id="Path_14721" data-name="Path 14721" d="M381.185,1115.477h10.346a2.5,2.5,0,0,0,2.385-1.741l.557-1.74a2.5,2.5,0,0,0-1.511-3.113,19.284,19.284,0,0,0-13.024.142,2.493,2.493,0,0,0-1.6,3.023l.429,1.58A2.5,2.5,0,0,0,381.185,1115.477Z" transform="translate(-378.252 -1097.597)" fill="url(#linear-gradient)"/>
                </g>
              </g>
            </g>
            <g id="Group_2425" data-name="Group 2425" transform="translate(93.11 13.525)">
              <g id="Group_2423" data-name="Group 2423">
                <path id="Path_14729" data-name="Path 14729" d="M822.866,410.638l-22.785.755c-4.421.719-7.618,4-7.618,7.824v20.94c0,4.4,4.2,7.967,9.383,7.967h20.528c5.182,0,9.383-3.567,9.383-7.967V420.811C831.757,415.81,829.237,410.637,822.866,410.638Z" transform="translate(-792.463 -410.638)" fill="#1d73f8"/>
                <path id="Path_14730" data-name="Path 14730" d="M828.406,418.361l-21.3.687c-4.133.655-7.122,3.645-7.122,7.126v19.07c0,4.007,3.927,7.255,8.772,7.255h19.191c4.844,0,8.772-3.248,8.772-7.255V427.625C836.718,423.072,834.362,418.36,828.406,418.361Z" transform="translate(-798.506 -416.844)" fill="#fff" opacity="0.89"/>
              </g>
              <circle id="Ellipse_164" data-name="Ellipse 164" cx="12.905" cy="12.905" r="12.905" transform="translate(4.136 27.997) rotate(-76.717)" fill="#1d73f8"/>
              <g id="Group_2424" data-name="Group 2424" transform="translate(11.243 11.674)">
                <path id="Path_14731" data-name="Path 14731" d="M867.3,470.073H850.454a.749.749,0,0,0,0,1.5H867.3a.749.749,0,0,0,0-1.5Z" transform="translate(-849.706 -470.073)" fill="url(#linear-gradient)"/>
                <path id="Path_14732" data-name="Path 14732" d="M866.192,488.151h-15.2a.749.749,0,1,0,0,1.5h15.2a.749.749,0,0,0,0-1.5Z" transform="translate(-850.138 -484.6)" fill="url(#linear-gradient)"/>
                <path id="Path_14733" data-name="Path 14733" d="M864,506.408H850.454a.749.749,0,0,0,0,1.5H864a.749.749,0,1,0,0-1.5Z" transform="translate(-849.706 -499.271)" fill="url(#linear-gradient)"/>
                <path id="Path_14734" data-name="Path 14734" d="M862.874,522.464h-12.15a.749.749,0,0,0,0,1.5h12.15a.749.749,0,1,0,0-1.5Z" transform="translate(-849.922 -512.174)" fill="url(#linear-gradient)"/>
                <path id="Path_14735" data-name="Path 14735" d="M861.615,540.542H851.263a.749.749,0,1,0,0,1.5h10.353a.749.749,0,0,0,0-1.5Z" transform="translate(-850.355 -526.701)" fill="url(#linear-gradient)"/>
              </g>
            </g>
            <g id="Group_2429" data-name="Group 2429" transform="translate(82.428 169)">
              <g id="Group_2426" data-name="Group 2426">
                <path id="Path_14736" data-name="Path 14736" d="M768.485,1202.229l-22.785.755c-4.421.719-7.618,4-7.618,7.824v20.94c0,4.4,4.2,7.966,9.383,7.966h20.528c5.182,0,9.383-3.567,9.383-7.966V1212.4C777.375,1207.4,774.856,1202.228,768.485,1202.229Z" transform="translate(-738.082 -1202.229)" fill="#1d73f8"/>
                <path id="Path_14737" data-name="Path 14737" d="M774.026,1209.953l-21.3.688c-4.133.655-7.122,3.645-7.122,7.125v19.07c0,4.007,3.927,7.255,8.772,7.255h19.191c4.844,0,8.771-3.248,8.771-7.255v-17.619C782.337,1214.663,779.982,1209.952,774.026,1209.953Z" transform="translate(-744.126 -1208.436)" fill="#fff" opacity="0.89"/>
              </g>
              <g id="Group_2428" data-name="Group 2428" transform="translate(4.435 3.303)">
                <circle id="Ellipse_165" data-name="Ellipse 165" cx="12.769" cy="12.769" r="12.769" transform="translate(0 24.855) rotate(-76.717)" fill="#1d73f8"/>
                <g id="Group_2427" data-name="Group 2427" transform="translate(8.91 6.61)">
                  <rect id="Rectangle_344" data-name="Rectangle 344" width="3.354" height="10.622" rx="1.677" transform="translate(0 3.913)" fill="url(#linear-gradient)"/>
                  <path id="Path_14738" data-name="Path 14738" d="M833.475,1256.609h-2.1v-2.543a1.247,1.247,0,0,0-1.313-1.37h-.053a1.444,1.444,0,0,0-1.5,1.433l-.739,2.55c-.329,0-.871.235-.871.564v9.775c0,.329.817.772,1.146.772h5.429a2.349,2.349,0,0,0,2.183-2.414v-6.49A2.225,2.225,0,0,0,833.475,1256.609Z" transform="translate(-822.8 -1252.696)" fill="url(#linear-gradient)"/>
                </g>
              </g>
            </g>
          </g>
          <g id="Group_2438" data-name="Group 2438" transform="translate(248.435)">
            <g id="Group_2435" data-name="Group 2435" transform="translate(0 27.761)">
              <path id="Path_14696" data-name="Path 14696" d="M1578.156,444.4v42.453a2.269,2.269,0,0,1-1.939,2.236l-11.244,1.606a7.284,7.284,0,0,0-6.223,7.176v39.3a2.255,2.255,0,0,1-2.014,2.245l-18.639,2.026v5.02l19.178-2.085a7.237,7.237,0,0,0,6.465-7.206v-39.3a2.269,2.269,0,0,1,1.939-2.236l11.244-1.607a7.283,7.283,0,0,0,6.223-7.175V444.4Z" transform="translate(-1538.097 -444.403)" fill="#9bbdf2"/>
              <path id="Path_14697" data-name="Path 14697" d="M1611.979,715.064V696.031a2.265,2.265,0,0,1,2.238-2.258l9.112-.082a7.233,7.233,0,0,0,7.18-7l1.984-59.047-4.988-.168-1.984,59.047a2.253,2.253,0,0,1-2.237,2.182l-9.112.081a7.271,7.271,0,0,0-7.183,7.248V715l-3.746-.049a7.248,7.248,0,0,0-7.344,7.247v36.945a2.243,2.243,0,0,1-.671,1.607,2.271,2.271,0,0,1-1.616.651l-33.742-.433a2.267,2.267,0,0,1-2.229-2.258V732.114a7.256,7.256,0,0,0-7.248-7.248h-12.3v4.99h12.3a2.261,2.261,0,0,1,2.258,2.258v26.594a7.276,7.276,0,0,0,7.156,7.248l33.742.433h.1a7.249,7.249,0,0,0,7.246-7.248V722.2a2.258,2.258,0,0,1,2.288-2.258l37.323.491.066-4.99Z" transform="translate(-1538.097 -591.516)" fill="#9bbdf2"/>
              <path id="Path_14698" data-name="Path 14698" d="M1580.514,990.147a3.148,3.148,0,0,1-3.148-3.105l-.809-59.11,13.613-.771a7.253,7.253,0,0,0,6.839-7.237V898.91h-4.99v21.014a2.26,2.26,0,0,1-2.131,2.255L1538.1,925.11v5l33.474-1.895q.108,7.916.217,15.833c.07,5.147.756,37.608.9,46.1a4.1,4.1,0,0,0,4.1,4.1h38.714v-4.105Z" transform="translate(-1538.097 -809.641)" fill="#9bbdf2"/>
            </g>
            <g id="Group_2407" data-name="Group 2407" transform="translate(81.368 36.851)">
              <g id="Group_2404" data-name="Group 2404">
                <path id="Path_14702" data-name="Path 14702" d="M1982.776,490.683l-22.785.755c-4.421.719-7.618,4-7.618,7.824V520.2c0,4.4,4.2,7.967,9.383,7.967h20.528c5.182,0,9.383-3.567,9.383-7.967V500.856C1991.667,495.855,1989.148,490.682,1982.776,490.683Z" transform="translate(-1952.373 -490.683)" fill="#1d73f8"/>
                <path id="Path_14703" data-name="Path 14703" d="M1988.316,498.406l-21.3.687c-4.133.655-7.122,3.645-7.122,7.125v19.07c0,4.007,3.927,7.255,8.772,7.255h19.191c4.845,0,8.772-3.248,8.772-7.255V507.67C1996.627,503.116,1994.273,498.4,1988.316,498.406Z" transform="translate(-1958.416 -496.889)" fill="#fff" opacity="0.89"/>
              </g>
              <g id="Group_2406" data-name="Group 2406" transform="translate(3.708 2.45)">
                <circle id="Ellipse_160" data-name="Ellipse 160" cx="12.905" cy="12.905" r="12.905" transform="matrix(0.275, -0.962, 0.962, 0.275, 0, 24.817)" fill="#1d73f8"/>
                <g id="Group_2405" data-name="Group 2405" transform="translate(8.992 6.314)">
                  <path id="Path_14704" data-name="Path 14704" d="M2018.292,555.092c1.005,7.293,4.728,10.71,9.769,12.251l2.91-2.339a16.9,16.9,0,0,1-10.6-12.028Z" transform="translate(-2018.045 -549.505)" fill="url(#linear-gradient)"/>
                  <path id="Path_14705" data-name="Path 14705" d="M2067.131,602.079c3.068.5,3.434.533,5.944-1.132a.51.51,0,0,0,.052-.812l-4.434-3.781a.342.342,0,0,0-.534.119l-.731,1.615Z" transform="translate(-2057.292 -584.297)" fill="url(#linear-gradient)"/>
                  <path id="Path_14706" data-name="Path 14706" d="M2017.177,541.068c-.3-2.8-.252-3.227,1.482-5.56a.51.51,0,0,1,.814-.008l3.539,4.63a.342.342,0,0,1-.148.527l-1.652.644-3.687.076A.346.346,0,0,1,2017.177,541.068Z" transform="translate(-2017.035 -535.301)" fill="url(#linear-gradient)"/>
                </g>
              </g>
            </g>
            <g id="Group_2410" data-name="Group 2410" transform="translate(16.245)">
              <g id="Group_2408" data-name="Group 2408" transform="translate(5.27)">
                <path id="Path_14707" data-name="Path 14707" d="M1678.042,303.058l-22.786.755c-4.421.719-7.618,4-7.618,7.824v20.94c0,4.4,4.2,7.967,9.383,7.967h20.528c5.182,0,9.383-3.567,9.383-7.967V313.231C1686.933,308.23,1684.413,303.057,1678.042,303.058Z" transform="translate(-1647.639 -303.058)" fill="#1d73f8"/>
                <path id="Path_14708" data-name="Path 14708" d="M1683.582,310.782l-21.3.687c-4.133.655-7.122,3.645-7.122,7.125v19.07c0,4.007,3.927,7.255,8.772,7.255h19.191c4.845,0,8.771-3.248,8.771-7.255V320.046C1691.894,315.492,1689.538,310.781,1683.582,310.782Z" transform="translate(-1653.682 -309.265)" fill="#fff" opacity="0.89"/>
              </g>
              <g id="Group_2409" data-name="Group 2409" transform="translate(0 3.981)">
                <path id="Path_14709" data-name="Path 14709" d="M1638.628,441.123l-17.289,16.565a1.723,1.723,0,0,0,.044,2.529l.123.11a1.6,1.6,0,0,0,2.268-.135l15.918-18.057Z" transform="translate(-1620.808 -417.987)" fill="#1d73f8"/>
                <ellipse id="Ellipse_161" data-name="Ellipse 161" cx="11.107" cy="10.907" rx="11.107" ry="10.907" transform="translate(10.737 8.956) rotate(-23.777)" fill="#bdd0fb"/>
                <path id="Path_14710" data-name="Path 14710" d="M1694.287,336.021a12.138,12.138,0,1,0,16.2,6.124A12.249,12.249,0,0,0,1694.287,336.021Zm9.067,20.581a10.355,10.355,0,1,1,5.475-13.725A10.449,10.449,0,0,1,1703.354,356.6Z" transform="translate(-1673.882 -332.668)" fill="#1d73f8"/>
              </g>
            </g>
            <g id="Group_2415" data-name="Group 2415" transform="translate(38.527 83.582)">
              <g id="Group_2414" data-name="Group 2414">
                <path id="Path_14715" data-name="Path 14715" d="M1764.656,728.611l-22.786.755c-4.421.719-7.618,4-7.618,7.824v20.94c0,4.4,4.2,7.966,9.383,7.966h20.528c5.182,0,9.383-3.567,9.383-7.966V738.784C1773.547,733.783,1771.027,728.61,1764.656,728.611Z" transform="translate(-1734.253 -728.611)" fill="#1d73f8"/>
                <path id="Path_14716" data-name="Path 14716" d="M1770.2,736.335l-21.3.687c-4.133.655-7.122,3.645-7.122,7.126v19.07c0,4.007,3.927,7.255,8.771,7.255h19.191c4.845,0,8.772-3.248,8.772-7.255V745.6C1778.509,741.045,1776.153,736.334,1770.2,736.335Z" transform="translate(-1740.297 -734.818)" fill="#fff" opacity="0.89"/>
              </g>
              <path id="Path_14717" data-name="Path 14717" d="M1770.727,780.51c-.844-4.947.945-7.7,2.6-9.132,3.1-2.7,8.64-3.326,14.105-1.592,5.355,1.7,9.131,6.623,8.416,10.973-.283,1.725-1.749,5.5-9.092,6.095a36.251,36.251,0,0,0,5.547,2.19.742.742,0,0,1-.181,1.457c-.216,0-.489.008-.811.008C1786.74,790.508,1772.3,789.767,1770.727,780.51Zm21.211,9.815h0Zm.151-1.158h0Zm-7.944-3.571c6.054.127,9.838-1.731,10.383-5.054.6-3.66-2.835-8-7.5-9.487-4.123-1.308-9.687-1.406-12.828,1.328-2.024,1.761-2.75,4.421-2.156,7.9,1.169,6.86,10.76,8.462,16.428,8.8a51.084,51.084,0,0,1-4.661-2.245l-2.326-1.3Z" transform="translate(-1763.389 -760.919)" fill="#1d73f8"/>
            </g>
            <g id="Group_2422" data-name="Group 2422" transform="translate(90.513 135.79)">
              <g id="Group_2420" data-name="Group 2420">
                <path id="Path_14722" data-name="Path 14722" d="M2029.339,994.421l-22.786.755c-4.421.719-7.618,4-7.618,7.824v20.94c0,4.4,4.2,7.966,9.383,7.966h20.528c5.182,0,9.383-3.567,9.383-7.966v-19.346C2038.229,999.593,2035.71,994.42,2029.339,994.421Z" transform="translate(-1998.935 -994.421)" fill="#1d73f8"/>
                <path id="Path_14723" data-name="Path 14723" d="M2034.879,1002.145l-21.3.687c-4.133.655-7.122,3.645-7.122,7.125v19.07c0,4.007,3.927,7.255,8.772,7.255h19.191c4.844,0,8.772-3.248,8.772-7.255v-17.619C2043.191,1006.855,2040.835,1002.144,2034.879,1002.145Z" transform="translate(-2004.979 -1000.628)" fill="#fff" opacity="0.89"/>
              </g>
              <circle id="Ellipse_163" data-name="Ellipse 163" cx="12.905" cy="12.905" r="12.905" transform="translate(4.114 27.962) rotate(-76.59)" fill="#1d73f8"/>
              <g id="Group_2421" data-name="Group 2421" transform="translate(11.243 11.674)">
                <path id="Path_14724" data-name="Path 14724" d="M2073.776,1053.856h-16.849a.749.749,0,0,0,0,1.5h16.849a.749.749,0,0,0,0-1.5Z" transform="translate(-2056.179 -1053.856)" fill="url(#linear-gradient)"/>
                <path id="Path_14725" data-name="Path 14725" d="M2072.665,1071.934h-15.2a.749.749,0,0,0,0,1.5h15.2a.749.749,0,0,0,0-1.5Z" transform="translate(-2056.611 -1068.383)" fill="url(#linear-gradient)"/>
                <path id="Path_14726" data-name="Path 14726" d="M2070.47,1090.191h-13.542a.749.749,0,0,0,0,1.5h13.542a.749.749,0,1,0,0-1.5Z" transform="translate(-2056.179 -1083.054)" fill="url(#linear-gradient)"/>
                <path id="Path_14727" data-name="Path 14727" d="M2069.347,1106.248H2057.2a.748.748,0,1,0,0,1.5h12.15a.748.748,0,1,0,0-1.5Z" transform="translate(-2056.395 -1095.958)" fill="url(#linear-gradient)"/>
                <path id="Path_14728" data-name="Path 14728" d="M2068.087,1124.326h-10.353a.748.748,0,1,0,0,1.5h10.353a.748.748,0,1,0,0-1.5Z" transform="translate(-2056.827 -1110.485)" fill="url(#linear-gradient)"/>
              </g>
            </g>
            <g id="Group_2432" data-name="Group 2432" transform="translate(75.441 189.35)">
              <g id="Group_2430" data-name="Group 2430">
                <path id="Path_14739" data-name="Path 14739" d="M1952.6,1267.117l-22.785.755c-4.421.719-7.618,4-7.618,7.824v20.94c0,4.4,4.2,7.966,9.383,7.966h20.528c5.182,0,9.383-3.567,9.383-7.966V1277.29C1961.495,1272.289,1958.975,1267.116,1952.6,1267.117Z" transform="translate(-1922.201 -1267.117)" fill="#1d73f8"/>
                <path id="Path_14740" data-name="Path 14740" d="M1958.145,1274.841l-21.3.687c-4.133.655-7.122,3.645-7.122,7.125v19.07c0,4.007,3.927,7.255,8.772,7.255h19.191c4.844,0,8.772-3.248,8.772-7.255v-17.619C1966.457,1279.551,1964.1,1274.84,1958.145,1274.841Z" transform="translate(-1928.245 -1273.324)" fill="#fff" opacity="0.89"/>
              </g>
              <g id="Group_2431" data-name="Group 2431" transform="translate(4.265 3.204)">
                <circle id="Ellipse_166" data-name="Ellipse 166" cx="12.769" cy="12.769" r="12.769" transform="matrix(0.232, -0.973, 0.973, 0.232, 0, 24.842)" fill="#1d73f8"/>
                <path id="Path_14741" data-name="Path 14741" d="M1997.36,1332.593a.079.079,0,0,0-.087.01l-7.818,6.511a1.828,1.828,0,0,1-2.363-.058l-5.815-5.39a.119.119,0,0,0-.171.01,1.04,1.04,0,0,0-.265.675v9.362a.993.993,0,0,0,.993.992h14.474a1.026,1.026,0,0,0,1.05-.964l.555-10.18A1.026,1.026,0,0,0,1997.36,1332.593Z" transform="translate(-1973.588 -1322.93)" fill="url(#linear-gradient)"/>
                <path id="Path_14742" data-name="Path 14742" d="M1991.161,1334.9l.206-.171,2.248-1.872,3.163-2.634,1.309-1.09c.118-.1.228-.209.342-.312.067-.06.509-.432.43-.519a.111.111,0,0,0-.071-.026,7.956,7.956,0,0,0-1.37.041l-1.434.08-3.679.2-4.015.224-3.268.182-1.016.057c-.234.013-1.294.017-.985.427a3.419,3.419,0,0,0,.443.391l.77.715,2.931,2.726,1.634,1.519A1.828,1.828,0,0,0,1991.161,1334.9Z" transform="translate(-1975.294 -1319.448)" fill="url(#linear-gradient)"/>
              </g>
            </g>
          </g>
        </g>
      </g>
    </g>
  </g>
</svg>
