<?xml version="1.0" encoding="UTF-8"?> <svg xmlns="http://www.w3.org/2000/svg" xmlns:xlink="http://www.w3.org/1999/xlink" id="Group_105" data-name="Group 105" width="1372" height="667" viewBox="0 0 1372 667"><defs><filter id="Path_4" x="953.512" y="249.8" width="374.432" height="333.351" filterUnits="userSpaceOnUse"><feOffset dy="3"></feOffset><feGaussianBlur stdDeviation="3" result="blur"></feGaussianBlur><feFlood flood-opacity="0.161"></feFlood><feComposite operator="in" in2="blur"></feComposite><feComposite in="SourceGraphic"></feComposite></filter><filter id="Path_6" x="44" y="85.396" width="374.432" height="333.351" filterUnits="userSpaceOnUse"><feOffset dy="3"></feOffset><feGaussianBlur stdDeviation="3" result="blur-2"></feGaussianBlur><feFlood flood-opacity="0.161"></feFlood><feComposite operator="in" in2="blur-2"></feComposite><feComposite in="SourceGraphic"></feComposite></filter><filter id="Path_9" x="346.407" y="248.708" width="374.432" height="333.351" filterUnits="userSpaceOnUse"><feOffset dy="3"></feOffset><feGaussianBlur stdDeviation="3" result="blur-3"></feGaussianBlur><feFlood flood-opacity="0.161"></feFlood><feComposite operator="in" in2="blur-3"></feComposite><feComposite in="SourceGraphic"></feComposite></filter><filter id="Path_11" x="648.817" y="85.396" width="374.432" height="333.351" filterUnits="userSpaceOnUse"><feOffset dy="3"></feOffset><feGaussianBlur stdDeviation="3" result="blur-4"></feGaussianBlur><feFlood flood-opacity="0.161"></feFlood><feComposite operator="in" in2="blur-4"></feComposite><feComposite in="SourceGraphic"></feComposite></filter><clipPath id="clip-path"><rect id="Rectangle_15" data-name="Rectangle 15" width="148" height="148" transform="translate(564 -268)" fill="#fff"></rect></clipPath><clipPath id="clip-path-2"><rect id="Rectangle_17" data-name="Rectangle 17" width="148" height="148" transform="translate(1014 -268)" fill="#fff"></rect></clipPath><clipPath id="clip-path-3"><rect id="Rectangle_14" data-name="Rectangle 14" width="148" height="148" transform="translate(336 -268)" fill="#fff"></rect></clipPath><clipPath id="clip-path-4"><rect id="Rectangle_16" data-name="Rectangle 16" width="148" height="148" transform="translate(848 -271)" fill="#fff"></rect></clipPath></defs><rect id="Rectangle_18" data-name="Rectangle 18" width="1372" height="667" fill="#fff" opacity="0"></rect><g id="Group_104" data-name="Group 104" transform="translate(-249.421 14)"><g id="Group_103" data-name="Group 103"><path id="Path_26" data-name="Path 26" d="M618,320.245h810.024" transform="translate(-93.377)" fill="none" stroke="#051c2c" stroke-width="5"></path><g transform="matrix(1, 0, 0, 1, 249.42, -14)" filter="url(#Path_4)"><path id="Path_4-2" data-name="Path 4" d="M565.679,404.284,489.024,271.515a24.908,24.908,0,0,1,0-24.908l76.655-132.769a24.9,24.9,0,0,1,21.569-12.453h153.31a24.9,24.9,0,0,1,21.569,12.453l76.655,132.769a24.908,24.908,0,0,1,0,24.908L762.127,404.284a24.9,24.9,0,0,1-21.569,12.453H587.248a24.9,24.9,0,0,1-21.569-12.453" transform="translate(476.83 154.41)" fill="#fff"></path></g><path id="Path_5" data-name="Path 5" d="M560.853,131.634l6.265-10.851a22.484,22.484,0,0,1,19.474-11.244H725a22.484,22.484,0,0,1,19.474,11.244L813.68,240.647a22.487,22.487,0,0,1,0,22.487L744.474,383A22.486,22.486,0,0,1,725,394.243H586.591A22.486,22.486,0,0,1,567.118,383l-69.2-119.867a22.486,22.486,0,0,1,0-22.487L505.16,228.1" transform="translate(734.351 147.585)" fill="none" stroke="#051c2c" stroke-linecap="round" stroke-linejoin="round" stroke-width="2"></path><g transform="matrix(1, 0, 0, 1, 249.42, -14)" filter="url(#Path_6)"><path id="Path_6-2" data-name="Path 6" d="M81.812,316.82,5.157,184.051a24.908,24.908,0,0,1,0-24.908L81.812,26.375a24.9,24.9,0,0,1,21.569-12.453h153.31A24.9,24.9,0,0,1,278.26,26.375l76.655,132.769a24.908,24.908,0,0,1,0,24.908L278.26,316.82a24.9,24.9,0,0,1-21.569,12.453H103.381A24.9,24.9,0,0,1,81.812,316.82" transform="translate(51.18 77.47)" fill="#fff"></path></g><path id="Path_7" data-name="Path 7" d="M84.757,273.3,23.335,166.913a19.952,19.952,0,0,1,0-19.956L84.757,40.571a19.96,19.96,0,0,1,17.284-9.979H224.884a19.954,19.954,0,0,1,17.282,9.979l61.422,106.386a19.952,19.952,0,0,1,0,19.956L242.166,273.3a19.954,19.954,0,0,1-17.282,9.979H102.04A19.96,19.96,0,0,1,84.757,273.3Z" transform="translate(316.84 77.908)" fill="none" stroke="#1b54f8" stroke-width="4"></path><path id="Path_8" data-name="Path 8" d="M77.871,44.17l6.265-10.851a22.487,22.487,0,0,1,19.475-11.244h138.41a22.481,22.481,0,0,1,19.472,11.244L330.7,153.183a22.477,22.477,0,0,1,0,22.487L261.493,295.536a22.483,22.483,0,0,1-19.472,11.242H103.611a22.489,22.489,0,0,1-19.475-11.242L14.932,175.67a22.5,22.5,0,0,1,0-22.487l7.246-12.551" transform="translate(309.487 70.645)" fill="none" stroke="#051c2c" stroke-linecap="round" stroke-linejoin="round" stroke-width="2"></path><g transform="matrix(1, 0, 0, 1, 249.42, -14)" filter="url(#Path_9)"><path id="Path_9-2" data-name="Path 9" d="M242.695,403.7,166.04,270.934a24.908,24.908,0,0,1,0-24.908l76.655-132.769a24.9,24.9,0,0,1,21.569-12.453h153.31a24.9,24.9,0,0,1,21.569,12.453L515.8,246.027a24.908,24.908,0,0,1,0,24.908L439.143,403.7a24.9,24.9,0,0,1-21.569,12.453H264.264A24.9,24.9,0,0,1,242.695,403.7" transform="translate(192.7 153.9)" fill="#fff"></path></g><path id="Path_10" data-name="Path 10" d="M238.023,131.634l6.265-10.851a22.484,22.484,0,0,1,19.473-11.244h138.41a22.484,22.484,0,0,1,19.473,11.244L490.85,240.647a22.486,22.486,0,0,1,0,22.487L421.644,383a22.486,22.486,0,0,1-19.473,11.242H263.761A22.486,22.486,0,0,1,244.288,383l-69.2-119.867a22.486,22.486,0,0,1,0-22.487L182.33,228.1" transform="translate(450.367 147.585)" fill="none" stroke="#051c2c" stroke-linecap="round" stroke-linejoin="round" stroke-width="2"></path><g transform="matrix(1, 0, 0, 1, 249.42, -14)" filter="url(#Path_11)"><path id="Path_11-2" data-name="Path 11" d="M403.579,316.82,326.924,184.051a24.908,24.908,0,0,1,0-24.908L403.579,26.375a24.9,24.9,0,0,1,21.569-12.453h153.31a24.9,24.9,0,0,1,21.569,12.453l76.655,132.769a24.908,24.908,0,0,1,0,24.908L600.027,316.82a24.9,24.9,0,0,1-21.569,12.453H425.148a24.9,24.9,0,0,1-21.569-12.453" transform="translate(334.23 77.47)" fill="#fff"></path></g><path id="Path_12" data-name="Path 12" d="M398.753,44.17l6.265-10.851a22.484,22.484,0,0,1,19.473-11.244H562.9a22.484,22.484,0,0,1,19.473,11.244L651.58,153.183a22.486,22.486,0,0,1,0,22.487L582.374,295.536A22.486,22.486,0,0,1,562.9,306.779H424.491a22.486,22.486,0,0,1-19.473-11.242l-69.2-119.867a22.486,22.486,0,0,1,0-22.487l7.246-12.551" transform="translate(591.756 70.645)" fill="none" stroke="#051c2c" stroke-linecap="round" stroke-linejoin="round" stroke-width="2"></path><path id="Path_13" data-name="Path 13" d="M118.873,1.5h47.866A28.6,28.6,0,0,1,191.5,15.8l28.366,49.131" transform="translate(403.569 52.547)" fill="none" stroke="#051c2c" stroke-linecap="round" stroke-linejoin="round" stroke-width="2"></path><path id="Path_14" data-name="Path 14" d="M127.373,5a5,5,0,1,1-5-5,5,5,0,0,1,5,5" transform="translate(402.25 48.948)" fill="#051c2c"></path><path id="Path_25" data-name="Path 25" d="M127.573,5.1a5.1,5.1,0,1,1-5.1-5.1,5.1,5.1,0,0,1,5.1,5.1" transform="translate(500.964 112.376)" fill="#051c2c"></path><path id="Path_16" data-name="Path 16" d="M441.826,1.5H489.69a28.6,28.6,0,0,1,24.765,14.3l28.366,49.131" transform="translate(687.663 52.547)" fill="none" stroke="#051c2c" stroke-linecap="round" stroke-linejoin="round" stroke-width="2"></path><path id="Path_17" data-name="Path 17" d="M450.326,5a5,5,0,1,1-5-5,5,5,0,0,1,5,5" transform="translate(686.343 49.047)" fill="#051c2c"></path><path id="Path_18" data-name="Path 18" d="M504.055,38.743a5,5,0,1,1-5-5,5,5,0,0,1,5,5" transform="translate(731.428 80.91)" fill="#051c2c"></path><path id="Path_19" data-name="Path 19" d="M283.059,313.63h47.864a28.6,28.6,0,0,0,24.765-14.3L384.054,250.2" transform="translate(547.999 271.323)" fill="none" stroke="#051c2c" stroke-linecap="round" stroke-linejoin="round" stroke-width="2"></path><path id="Path_20" data-name="Path 20" d="M291.558,287.445a5,5,0,1,0-5,5,5,5,0,0,0,5-5" transform="translate(546.679 297.508)" fill="#051c2c"></path><path id="Path_21" data-name="Path 21" d="M345.288,253.7a5,5,0,1,0-5,5,5,5,0,0,0,5-5" transform="translate(591.944 268.004)" fill="#051c2c"></path><path id="Path_22" data-name="Path 22" d="M245.793,360.762,184.371,254.376a19.962,19.962,0,0,1,0-19.956l61.422-106.386a19.96,19.96,0,0,1,17.284-9.979H385.921a19.954,19.954,0,0,1,17.282,9.979L464.625,234.42a19.952,19.952,0,0,1,0,19.956L403.2,360.762a19.954,19.954,0,0,1-17.282,9.979H263.077A19.959,19.959,0,0,1,245.793,360.762Z" transform="translate(459.223 155.445)" fill="none" stroke="#1b54f8" stroke-width="4"></path><path id="Path_23" data-name="Path 23" d="M404.989,273.3,343.567,166.913a19.952,19.952,0,0,1,0-19.956L404.989,40.571a19.96,19.96,0,0,1,17.284-9.979H545.116A19.954,19.954,0,0,1,562.4,40.571L623.82,146.957a19.952,19.952,0,0,1,0,19.956L562.4,273.3a19.954,19.954,0,0,1-17.282,9.979H422.272A19.96,19.96,0,0,1,404.989,273.3Z" transform="translate(598.608 77.908)" fill="none" stroke="#1b54f8" stroke-width="4"></path><path id="Path_24" data-name="Path 24" d="M568.624,360.762,507.2,254.376a19.952,19.952,0,0,1,0-19.956l61.422-106.386a19.959,19.959,0,0,1,17.284-9.979H708.752a19.954,19.954,0,0,1,17.282,9.979L787.455,234.42a19.953,19.953,0,0,1,0,19.956L726.033,360.762a19.954,19.954,0,0,1-17.282,9.979H585.907A19.959,19.959,0,0,1,568.624,360.762Z" transform="translate(742.973 155.445)" fill="none" stroke="#1b54f8" stroke-width="4"></path><text id="Define_the_Problem_and_Collect_Data" data-name="Define the Problem and Collect Data" transform="translate(471 434)" fill="#051c2c" font-size="24" font-family="OpenSans-Semibold, Open Sans" font-weight="600"><tspan x="-112" y="0">Define the Problem</tspan><tspan x="-94" y="33">and Collect Data</tspan></text><text id="Choose_and_Train_the_Model" data-name="Choose and Train the Model" transform="translate(783 185)" fill="#051c2c" font-size="24" font-family="OpenSans-Semibold, Open Sans" font-weight="600"><tspan x="-99" y="0">Choose and Train</tspan><tspan x="-58" y="33">the Model</tspan></text><text id="Deploy_and_Maintain_the_Model" data-name="Deploy and Maintain the Model" transform="translate(1390 185)" fill="#051c2c" font-size="24" font-family="OpenSans-Semibold, Open Sans" font-weight="600"><tspan x="-119" y="0">Deploy and Maintain</tspan><tspan x="-58" y="33">the Model</tspan></text><text id="Test_and_Validate_the_Model" data-name="Test and Validate the Model" transform="translate(1085 434)" fill="#051c2c" font-size="24" font-family="OpenSans-Semibold, Open Sans" font-weight="600"><tspan x="-98" y="0">Test and Validate</tspan><tspan x="-58" y="33">the Model</tspan></text><g id="Mask_Group_2" data-name="Mask Group 2" transform="translate(752 593)" clip-path="url(#clip-path)"><g id="Group_101" data-name="Group 101" transform="translate(578 -255)"><path id="Path_78" data-name="Path 78" d="M279.062,188.163a2.236,2.236,0,0,1-1.574-.648l-11.8-11.723a2.229,2.229,0,0,1-.562-2.231,188.926,188.926,0,0,1,11.008-27.933c4.444-9.148,9.98-20.539,17.45-28.484a.047.047,0,0,1,.008-.008c16.764-17.654,43.655-18.426,58.187-17.317a2.233,2.233,0,0,1,2.057,2.07c1.016,14.53.113,41.373-17.344,57.895-7.847,7.45-19.406,12.942-28.693,17.355a191.6,191.6,0,0,1-28.1,10.931,2.294,2.294,0,0,1-.639.092Zm-9.27-14.587,9.9,9.834a187.481,187.481,0,0,0,26.185-10.3c9.482-4.5,20.215-9.605,27.549-16.568,15.4-14.571,16.822-38.326,16.081-52.405-14.085-.824-37.88.494-52.671,16.068-7,7.452-12.371,18.5-16.685,27.376a184.779,184.779,0,0,0-10.357,25.992Z" transform="translate(-233.729 -99.49)" fill="#1b54f8" stroke="#fff" stroke-width="1"></path><path id="Path_79" data-name="Path 79" d="M388.826,204.8a11.224,11.224,0,0,1-7.934-3.259,11.125,11.125,0,0,1,0-15.8,11.283,11.283,0,0,1,15.864,0,11.126,11.126,0,0,1,0,15.8,11.208,11.208,0,0,1-7.931,3.259Zm0-17.862a6.77,6.77,0,0,0-4.787,1.968,6.665,6.665,0,0,0,0,9.471,6.805,6.805,0,0,0,9.573,0,6.665,6.665,0,0,0,0-9.472,6.763,6.763,0,0,0-4.785-1.966Z" transform="translate(-308.013 -154.254)" fill="#1b54f8" stroke="#fff" stroke-width="1"></path><path id="Path_80" data-name="Path 80" d="M241.591,211.344a1.645,1.645,0,0,1-.181-.008l-19.683-1.57a2.23,2.23,0,0,1-1.953-2.889c.659-2.112,7.329-20.993,37.883-33.3a2.234,2.234,0,1,1,1.544,4.191c-23.026,9.307-31.4,22.169-34.088,27.792l16.651,1.328a2.232,2.232,0,0,1-.173,4.457Z" transform="translate(-203.798 -148.273)" fill="#1b54f8" stroke="#fff" stroke-width="1"></path><path id="Path_81" data-name="Path 81" d="M344.926,326.416a2.231,2.231,0,0,1-2.224-2.053l-1.58-19.551a2.232,2.232,0,1,1,4.449-.359l1.336,16.539c5.642-2.658,18.594-10.959,27.972-33.8a2.206,2.206,0,0,1,1.133-1.35,2.238,2.238,0,0,1,3.083,2.831c-12.386,30.354-31.387,36.986-33.511,37.642a2.246,2.246,0,0,1-.659.1Z" transform="translate(-283.938 -222.309)" fill="#1b54f8" stroke="#fff" stroke-width="1"></path><path id="Path_82" data-name="Path 82" d="M446.84,144.465a2.226,2.226,0,0,1-1.574-.648l-30.457-30.259a2.232,2.232,0,0,1,3.147-3.167l30.457,30.259a2.232,2.232,0,0,1-1.573,3.815Z" transform="translate(-332.134 -106.255)" fill="#1b54f8" stroke="#fff" stroke-width="1"></path><path id="Path_83" data-name="Path 83" d="M178.7,394.316a2.233,2.233,0,0,1-1.6-3.784L204,362.675a2.232,2.232,0,1,1,3.211,3.1l-26.907,27.859a2.235,2.235,0,0,1-1.606.68Z" transform="translate(-175.287 -272.718)" fill="#1b54f8" stroke="#fff" stroke-width="1"></path><path id="Path_84" data-name="Path 84" d="M234.374,413.735a2.23,2.23,0,0,1-1.666-3.713l17.438-19.629a2.232,2.232,0,1,1,3.336,2.965l-17.438,19.627a2.224,2.224,0,0,1-1.67.749Z" transform="translate(-212.028 -290.963)" fill="#1b54f8" stroke="#fff" stroke-width="1"></path><path id="Path_85" data-name="Path 85" d="M175.224,358.424a2.231,2.231,0,0,1-1.666-3.713L191,335.082a2.231,2.231,0,1,1,3.336,2.964l-17.44,19.629a2.222,2.222,0,0,1-1.669.749Z" transform="translate(-172.994 -254.463)" fill="#1b54f8" stroke="#fff" stroke-width="1"></path></g></g><text id="_1" data-name="1" transform="translate(481 65)" fill="#051c2c" font-size="28" font-family="OpenSans-Bold, Open Sans" font-weight="700"><tspan x="-7" y="0">1</tspan></text><text id="_3" data-name="3" transform="translate(1085 65)" fill="#051c2c" font-size="28" font-family="OpenSans-Bold, Open Sans" font-weight="700"><tspan x="-7" y="0">3</tspan></text><text id="_2" data-name="2" transform="translate(783 596)" fill="#051c2c" font-size="28" font-family="OpenSans-Bold, Open Sans" font-weight="700"><tspan x="-7" y="0">2</tspan></text><text id="_4" data-name="4" transform="translate(1390 596)" fill="#051c2c" font-size="28" font-family="OpenSans-Bold, Open Sans" font-weight="700"><tspan x="-7" y="0">4</tspan></text><g id="Mask_Group_4" data-name="Mask Group 4" transform="translate(-607 429)" clip-path="url(#clip-path-2)"><g id="noun-problem-2104842" transform="translate(1029 -253)"><path id="Path_143" data-name="Path 143" d="M350.568,102.86a18.029,18.029,0,0,0-18.01,18.01,4.225,4.225,0,0,0,8.45,0,9.561,9.561,0,1,1,9.561,9.557,4.222,4.222,0,0,0-4.225,4.225c0,.085.042.152.046.232s-.046.152-.046.237v8.792a4.225,4.225,0,0,0,8.45,0v-5.586a17.982,17.982,0,0,0-4.225-35.467Z" transform="translate(-277.623 -86.477)" fill="#1b54f8" stroke="#fff" stroke-width="5"></path><path id="Path_144" data-name="Path 144" d="M393.885,297.01a4.222,4.222,0,0,0-4.225,4.225v2.615a4.225,4.225,0,1,0,8.45,0v-2.615A4.223,4.223,0,0,0,393.885,297.01Z" transform="translate(-320.939 -233.755)" fill="#1b54f8" stroke="#fff" stroke-width="5"></path><path id="Path_145" data-name="Path 145" d="M177.954,35a45.291,45.291,0,0,0-34.537,74.664l-10.884,10.845a13,13,0,0,0-14.352,2.4l-9.455,9.455a12.673,12.673,0,1,0,17.918,17.926l9.455-9.455a12.526,12.526,0,0,0,2.45-14.385l10.908-10.858A45.337,45.337,0,1,0,177.956,35Zm-47.83,99.859-9.455,9.455a4.32,4.32,0,0,1-5.974,0,4.216,4.216,0,0,1,0-5.969l9.455-9.455a4.216,4.216,0,0,1,5.973,0,4.217,4.217,0,0,1,0,5.969Zm47.83-17.6a36.9,36.9,0,1,1,36.9-36.9A36.94,36.94,0,0,1,177.954,117.253Z" transform="translate(-105.008 -34.999)" fill="#1b54f8" stroke="#fff" stroke-width="5"></path></g></g><g id="Mask_Group_1" data-name="Mask Group 1" transform="translate(373.421 594)" clip-path="url(#clip-path-3)"><g id="Group_100" data-name="Group 100" transform="translate(341 -245)"><path id="Path_27" data-name="Path 27" d="M288.009,158.317a6.371,6.371,0,0,0-4.615-1.957h-.005a6.368,6.368,0,0,0-4.617,1.964,6.448,6.448,0,0,0-.684,8.077l18.439,27.036a11.593,11.593,0,0,0,9.582,5.063h22.1a9.891,9.891,0,0,0,9.33-6.63,93.521,93.521,0,0,0,5.216-30.835v-7.223a7.275,7.275,0,0,0-7.268-7.268,7.2,7.2,0,0,0-4.673,1.749,6.99,6.99,0,0,0-11.175-2.563,7.054,7.054,0,0,0-10.318-2.755v-7.418h6.5a1.563,1.563,0,0,0,1.563-1.563v-36.9a1.563,1.563,0,0,0-1.563-1.563H278.9a1.563,1.563,0,0,0-1.563,1.563v36.9a1.563,1.563,0,0,0,1.563,1.563h15.436v29.3Zm21.319-9.468a3.97,3.97,0,1,1,7.94,0v9.983a1.563,1.563,0,1,0,3.127,0V150.96a3.914,3.914,0,0,1,7.828,0v8.367a1.563,1.563,0,1,0,3.127,0v-5.514a4.141,4.141,0,1,1,8.283,0v7.223a90.394,90.394,0,0,1-5.042,29.805,6.762,6.762,0,0,1-6.379,4.532h-22.1a8.469,8.469,0,0,1-7-3.7l-18.438-27.036a3.308,3.308,0,0,1,.351-4.145,3.27,3.27,0,0,1,2.37-1.008h0a3.273,3.273,0,0,1,2.369,1l9.014,9.315.007,0a1.544,1.544,0,0,0,.934.437c.055.007.106.032.16.033.008,0,.014,0,.022,0a1.526,1.526,0,0,0,.331-.067,1.037,1.037,0,0,0,.674-.324c.025-.022.058-.028.082-.052l0-.005a1.542,1.542,0,0,0,.379-.653,1.583,1.583,0,0,0,.092-.451s0-.008,0-.011v-34.7c0-.011.007-.02.007-.031a.311.311,0,0,0-.007-.031v-3.085a4.366,4.366,0,1,1,8.733,0v3.085c0,.011-.007.02-.007.031a.312.312,0,0,0,.007.031V148.1a1.564,1.564,0,0,0,.053.267c-.011.161-.049.315-.049.48v9.982a1.563,1.563,0,1,0,3.127,0Zm-28.862-16.417V98.655h33.791v33.777h-4.933V130.88a7.493,7.493,0,1,0-14.987,0v1.553Z" transform="translate(-228.032 -95.53)" fill="#1b54f8"></path><path id="Path_28" data-name="Path 28" d="M140.077,95.535H103.172a1.563,1.563,0,0,0-1.563,1.563V134a1.563,1.563,0,0,0,1.563,1.563h36.906A1.563,1.563,0,0,0,141.641,134V97.1A1.563,1.563,0,0,0,140.077,95.535Zm-1.562,36.906h-33.78V98.661h33.78Z" transform="translate(-101.608 -95.534)" fill="#1b54f8"></path><path id="Path_29" data-name="Path 29" d="M493.427,135.569a1.563,1.563,0,0,0,1.563-1.563V97.1a1.563,1.563,0,0,0-1.563-1.563H456.522a1.563,1.563,0,0,0-1.563,1.563v36.906a1.563,1.563,0,0,0,1.563,1.563ZM458.085,98.664h33.78v33.782h-33.78Z" transform="translate(-356.338 -95.535)" fill="#1b54f8"></path><path id="Path_30" data-name="Path 30" d="M330.246,133.577a1.562,1.562,0,0,0-2.21,0L313.211,148.4l-4.221-4.22a1.563,1.563,0,1,0-2.21,2.21l5.326,5.326a1.563,1.563,0,0,0,2.211,0l15.929-15.928a1.563,1.563,0,0,0,0-2.211Z" transform="translate(-249.186 -122.628)" fill="#1b54f8"></path></g></g><g id="Mask_Group_3" data-name="Mask Group 3" transform="translate(161 432)" clip-path="url(#clip-path-4)"><g id="Group_102" data-name="Group 102" transform="translate(874 -261)"><path id="Path_117" data-name="Path 117" d="M198.543,16.347a36.9,36.9,0,0,0-6.3,2.606,1.83,1.83,0,0,1-2.108-.361l-.042-.043a6.023,6.023,0,0,0-8.278.039l-5.728,5.728a5.885,5.885,0,0,0,0,8.316l.027.027a1.821,1.821,0,0,1,.337,2.087,37.365,37.365,0,0,0-2.581,6.216,1.81,1.81,0,0,1-1.739,1.22,5.885,5.885,0,0,0-5.881,5.88v8.1a5.885,5.885,0,0,0,5.881,5.88,1.81,1.81,0,0,1,1.739,1.221,37.352,37.352,0,0,0,2.581,6.216,1.817,1.817,0,0,1-.337,2.085l-.027.029a5.885,5.885,0,0,0,0,8.316l5.728,5.728a6.019,6.019,0,0,0,8.274.041l.045-.045a1.827,1.827,0,0,1,2.106-.361,37.239,37.239,0,0,0,6.218,2.581,1.811,1.811,0,0,1,1.222,1.74,5.885,5.885,0,0,0,5.88,5.881h8.1a5.885,5.885,0,0,0,5.88-5.881,1.81,1.81,0,0,1,1.22-1.739,37.282,37.282,0,0,0,6.218-2.583,1.827,1.827,0,0,1,2.108.361l.042.043a6.019,6.019,0,0,0,8.278-.039l5.728-5.728a5.885,5.885,0,0,0,0-8.316l-.027-.027a1.821,1.821,0,0,1-.337-2.087,37.167,37.167,0,0,0,2.606-6.3,1.725,1.725,0,0,1,1.714-1.138,5.885,5.885,0,0,0,5.881-5.88v-8.1a5.885,5.885,0,0,0-5.881-5.88,1.81,1.81,0,0,1-1.739-1.22,37.353,37.353,0,0,0-2.581-6.216,1.817,1.817,0,0,1,.337-2.085l.027-.029a5.885,5.885,0,0,0,0-8.316l-5.728-5.728a6.021,6.021,0,0,0-8.274-.041l-.045.045a1.828,1.828,0,0,1-2.106.361,37.282,37.282,0,0,0-6.221-2.581,1.811,1.811,0,0,1-1.222-1.74,5.887,5.887,0,0,0-5.877-5.881h-8.1a5.9,5.9,0,0,0-5.88,5.963,1.7,1.7,0,0,1-1.138,1.633Zm1.22,3.944a5.884,5.884,0,0,0,4.048-5.659,1.753,1.753,0,0,1,1.751-1.751h8.1a1.753,1.753,0,0,1,1.751,1.751,5.9,5.9,0,0,0,4.13,5.684,32.774,32.774,0,0,1,5.523,2.293,5.9,5.9,0,0,0,6.9-1.055l.048-.043a1.789,1.789,0,0,1,2.478,0l5.728,5.728a1.75,1.75,0,0,1,.022,2.453l-.029.027a5.909,5.909,0,0,0-1.094,6.95,33.087,33.087,0,0,1,2.29,5.522,5.9,5.9,0,0,0,5.682,4.13,1.75,1.75,0,0,1,1.751,1.751v8.1a1.771,1.771,0,0,1-1.832,1.751,5.782,5.782,0,0,0-5.575,4.048,33.114,33.114,0,0,1-2.318,5.6,5.909,5.909,0,0,0,1.094,6.951l.029.027A1.75,1.75,0,0,1,240.221,77l-5.728,5.728a1.787,1.787,0,0,1-2.478,0l-.043-.041a5.9,5.9,0,0,0-6.914-1.059,33.045,33.045,0,0,1-5.523,2.286,5.9,5.9,0,0,0-4.12,5.682,1.753,1.753,0,0,1-1.751,1.751h-8.1a1.753,1.753,0,0,1-1.751-1.751,5.9,5.9,0,0,0-4.13-5.684,32.776,32.776,0,0,1-5.523-2.293,5.835,5.835,0,0,0-2.722-.673,5.963,5.963,0,0,0-4.187,1.73l-.048.043a1.787,1.787,0,0,1-2.478,0l-5.728-5.728h0a1.751,1.751,0,0,1-.022-2.454L179,74.51a5.909,5.909,0,0,0,1.094-6.95,33.106,33.106,0,0,1-2.281-5.523,5.9,5.9,0,0,0-5.682-4.13,1.751,1.751,0,0,1-1.751-1.742v-8.1a1.75,1.75,0,0,1,1.751-1.751,5.9,5.9,0,0,0,5.682-4.13,33.043,33.043,0,0,1,2.294-5.523,5.911,5.911,0,0,0-1.1-6.95l-.029-.027a1.751,1.751,0,0,1,.023-2.453l5.728-5.728h0a1.787,1.787,0,0,1,2.478,0l.043.041h0A5.913,5.913,0,0,0,194.17,22.6a33.071,33.071,0,0,1,5.594-2.309Z" transform="translate(-162.122 -8.75)" fill="#1b54f8" stroke="#fff" stroke-width="1"></path><path id="Path_118" data-name="Path 118" d="M227.5,98.908a28.939,28.939,0,1,0,8.476-20.432A28.909,28.909,0,0,0,227.5,98.908ZM256.408,74.13a24.8,24.8,0,1,1-17.514,7.265A24.777,24.777,0,0,1,256.408,74.13Z" transform="translate(-208.917 -55.546)" fill="#1b54f8" stroke="#fff" stroke-width="1"></path><path id="Path_119" data-name="Path 119" d="M237.751,418.867l-21.1,7.033h-8.679l-2.566-.855,6.761-1.846a6.294,6.294,0,0,0-2.544-12.3l-17.867,2.552a2.114,2.114,0,0,0-.465.122l-7.473,2.934a19.876,19.876,0,0,1-7.316,1.387h-7.1v-2.833a2.065,2.065,0,0,0-2.065-2.065H150.819a2.065,2.065,0,0,0-2.065,2.065V441.9a2.065,2.065,0,0,0,2.065,2.065h16.519A2.065,2.065,0,0,0,169.4,441.9v-2.234h13.009a20.077,20.077,0,0,1,4.774.579L202.466,444h0a2.023,2.023,0,0,0,.9.018l15.6-3.118a2.1,2.1,0,0,0,.56-.207L242,428.795a5.418,5.418,0,0,0-4.253-9.928Zm-72.476,20.969H152.885V417.122h12.389ZM240.745,424.2a1.263,1.263,0,0,1-.671.949l-22.226,11.77L203,439.885,188.18,436.24h0a24.026,24.026,0,0,0-5.76-.7H169.4V422.026h7.1a23.933,23.933,0,0,0,8.827-1.675l7.25-2.849,17.628-2.517h0a2.164,2.164,0,0,1,.874,4.23l-13.341,3.638a2.065,2.065,0,0,0-.11,3.95l9.358,3.12a2.055,2.055,0,0,0,.654.107h9.354a2.051,2.051,0,0,0,.654-.107l21.419-7.139a1.286,1.286,0,0,1,1.319.312,1.265,1.265,0,0,1,.359,1.1Z" transform="translate(-148.754 -315.944)" fill="#1b54f8" stroke="#fff" stroke-width="1"></path><path id="Path_120" data-name="Path 120" d="M183.75,498.75h4.13v4.13h-4.13Z" transform="translate(-175.491 -383.117)" fill="#1b54f8" stroke="#fff" stroke-width="1"></path><path id="Path_121" data-name="Path 121" d="M299.685,154.68l5.162,3.436a2.064,2.064,0,0,0,2.862-.572l6.874-10.308.227,4.13,4.13-.23-.572-10.31a2.064,2.064,0,0,0-2.749-1.832l-9.752,3.43,1.375,3.9,3.895-1.375-5.726,8.589-5.162-3.436a2.064,2.064,0,0,0-2.864.572l-6.872,10.308,3.436,2.292Z" transform="translate(-257.06 -108.169)" fill="#1b54f8" stroke="#fff" stroke-width="1"></path></g></g></g></g></svg> 