<svg width="75" height="75" viewBox="0 0 75 75" fill="none" xmlns="http://www.w3.org/2000/svg">
<g id="Frame 14682" clip-path="url(#clip0_1348_1133)">
<g id="Group">
<path id="Vector" d="M47.0722 74.8997C46.8723 74.8997 46.6424 74.8697 46.3724 74.8097L31.4165 71.3507C31.4165 71.3507 28.5873 70.7108 27.9974 70.5709C27.0577 70.3509 26.7977 70.031 26.7877 69.0513C26.7877 68.5714 26.7877 68.0915 26.7877 67.6017V66.7219L26.3379 66.6819C26.1679 66.6619 26.0179 66.6519 25.878 66.6519H21.6291C19.9096 66.6519 18.1901 66.6519 16.4705 66.6519C15.9707 66.6519 15.6208 66.7719 15.3708 67.3418C14.651 69.0513 13.0115 70.161 11.182 70.161C10.8821 70.161 10.5821 70.131 10.2822 70.071C8.15279 69.6211 6.6432 67.8216 6.60321 65.6922C6.56322 63.5228 8.03282 61.6533 10.1722 61.1434C10.5022 61.0635 10.8521 61.0235 11.192 61.0235C12.9615 61.0235 14.581 62.0932 15.3208 63.7427C15.5808 64.3326 15.8907 64.5325 16.5005 64.5325C18.0301 64.5225 19.5397 64.5125 21.0493 64.5125H25.758C25.918 64.5125 26.0779 64.5125 26.2579 64.4925L26.7278 64.4625V59.6138H26.5278C26.1779 59.6138 25.828 59.6138 25.4781 59.6038C25.1282 59.6038 24.7783 59.5939 24.4384 59.5939C23.9885 59.5939 23.5386 59.5938 23.0987 59.6338C22.9988 59.6338 22.8988 59.6438 22.7988 59.6438C21.8891 59.6438 21.1793 59.3039 20.4695 58.5341C19.7097 57.7044 18.8899 56.8946 18.1001 56.1148C17.5203 55.5449 16.9504 54.9751 16.3906 54.3953C16.0107 54.0054 15.5308 53.6055 14.811 53.6055C14.711 53.6055 14.611 53.6055 14.5111 53.6255C14.3711 53.6455 14.2311 53.6555 14.0812 53.6555C13.9112 53.6555 13.7413 53.6455 13.5813 53.6255C13.5113 53.6255 13.4414 53.6255 13.3814 53.6255C12.8815 53.6255 12.5716 53.8554 12.3517 54.4053C11.6618 56.0848 10.0323 57.1645 8.20277 57.1645C7.91285 57.1645 7.61294 57.1345 7.32301 57.0745C5.1636 56.6446 3.674 54.9051 3.62401 52.7357C3.57403 50.5663 4.98364 48.6868 7.05308 48.1669C7.42298 48.077 7.79288 48.027 8.16278 48.027C9.92231 48.027 11.5219 49.0567 12.2517 50.6563C12.4616 51.1062 12.7615 51.576 13.4314 51.576C13.5313 51.576 13.6313 51.576 13.7513 51.546C14.0812 51.486 14.4111 51.4561 14.721 51.4561C16.2206 51.4561 17.4503 52.1159 18.57 53.5455C19.3698 54.5652 20.3395 55.475 21.2692 56.3547L21.9091 56.9546C22.199 57.2345 22.6789 57.4444 23.0887 57.4644C23.5886 57.4844 24.0985 57.4944 24.6083 57.4944H26.7877V56.3247C26.7877 55.475 26.7877 54.6552 26.7677 53.8454C26.7677 53.5655 26.5878 53.3156 26.4478 53.0956L19.6997 42.6984C15.0209 35.4904 10.3522 28.2823 5.68346 21.0743C5.34355 20.5544 4.97365 20.3345 4.4238 20.3345H4.31383C4.13388 20.3445 3.94393 20.3545 3.75398 20.3545C3.3041 20.3545 2.87422 20.3245 2.47433 20.2645C1.0947 20.0646 0.0749797 18.9649 0.0449878 17.6352C-0.0149959 15.0159 -0.0149959 12.6566 0.0449878 10.4572C0.0949743 8.89759 1.42461 7.70791 3.14415 7.70791C4.70372 7.70791 6.2733 7.70791 7.84287 7.70791H17.5202C18.6499 7.70791 19.7696 7.70791 20.8993 7.68791C21.3292 7.68791 21.8291 7.46797 22.159 7.15806C23.0188 6.34828 23.8485 5.50851 24.6783 4.67873C25.0982 4.25885 25.5181 3.83896 25.938 3.41907C26.3279 3.02918 26.6578 2.84923 26.9477 2.84923C27.2376 2.84923 27.4975 3.02918 27.7775 3.38908C28.4173 4.21886 29.0571 4.60875 29.7969 4.60875C30.2568 4.60875 30.7767 4.44879 31.3765 4.12888L31.7664 3.92894C32.8861 3.3391 32.9961 3.24912 32.9961 1.66955C32.9961 0.269925 33.266 0 34.6756 0H37.8947C38.7545 0 39.6143 0 40.474 0C41.5837 0 41.8736 0.299915 41.8836 1.40961C41.8836 1.59956 41.8736 1.79951 41.8537 1.99946C41.8137 2.51932 41.7637 3.05917 42.0236 3.43906C42.2735 3.80896 42.7834 3.95893 43.2733 4.09889C43.4732 4.15887 43.6732 4.20885 43.8531 4.28883C44.5629 4.57875 44.9428 4.72871 45.3027 4.72871C45.8226 4.72871 46.1525 4.39881 46.8823 3.669C47.4021 3.15914 47.7221 2.9492 48.012 2.9492C48.3019 2.9492 48.6118 3.14914 49.1117 3.64901L50.1214 4.66873C50.9412 5.49851 51.791 6.35827 52.6607 7.15806C53.0206 7.49796 53.6005 7.7379 54.0604 7.7379C57.4594 7.7579 60.8485 7.75789 64.2476 7.75789H71.6456C72.8952 7.75789 73.695 8.06781 74.1749 8.74763C74.6248 9.37746 74.9047 10.1472 74.9347 10.7871C75.0247 12.6466 75.0047 14.5461 74.9747 16.3756V17.1453C74.9447 19.0048 73.805 20.2145 72.0655 20.2145C71.9855 20.2145 71.9055 20.2145 71.8155 20.2145C71.7056 20.2145 71.5956 20.2045 71.4956 20.2045C70.066 20.2045 69.3362 20.8943 68.6764 21.9241C61.9582 32.4112 55.0101 43.1083 49.0217 52.3158C48.5418 53.0556 48.062 53.9754 48.1819 55.1751C48.2219 55.6149 48.2119 56.0748 48.2019 56.5647C48.2019 56.7946 48.1919 57.0345 48.1919 57.2845V57.4844H50.4213C51.0512 57.4844 51.681 57.4844 52.3008 57.4644C52.5908 57.4644 52.8607 57.2145 53.0906 56.9846C54.6802 55.415 56.2698 53.8354 57.8293 52.2358C58.2992 51.756 58.7691 51.546 59.3689 51.546H59.4889C59.8488 51.566 60.1987 51.566 60.5586 51.566H62.3581L62.668 50.8462C63.4078 49.1167 65.0274 48.047 66.8969 48.047C67.1868 48.047 67.4767 48.077 67.7666 48.127C69.7761 48.4869 71.3557 50.3364 71.4456 52.4258C71.5356 54.5252 70.136 56.4547 68.1165 57.0046C67.7167 57.1145 67.2968 57.1745 66.8769 57.1745C65.1473 57.1745 63.6178 56.2348 62.898 54.7352C62.4581 53.8254 61.9082 53.6455 60.9885 53.6155H60.8285C59.8088 53.6155 59.039 53.9554 58.3392 54.7152C57.5594 55.5749 56.7096 56.4047 55.8998 57.2045C55.33 57.7644 54.7702 58.3242 54.2103 58.894C53.7104 59.4039 53.1806 59.6338 52.4808 59.6338C51.8709 59.6238 51.3311 59.6138 50.7912 59.6138H48.2319V64.4525L48.6418 64.4825C48.8118 64.5025 48.9717 64.5125 49.1417 64.5125H53.5805C55.21 64.5125 56.8396 64.5125 58.4692 64.5325C59.069 64.5325 59.3689 64.3226 59.6089 63.7727C60.3087 62.1232 61.9882 61.0135 63.7877 61.0135C64.0776 61.0135 64.3775 61.0435 64.6575 61.1034C66.7869 61.5433 68.3065 63.3328 68.3565 65.4723C68.4065 67.6117 66.9769 69.4812 64.8874 70.011C64.5175 70.101 64.1376 70.151 63.7577 70.151C62.0282 70.151 60.4486 69.1413 59.7388 67.5917C59.3789 66.8019 58.899 66.642 58.1892 66.642C56.7296 66.6519 55.33 66.6619 53.9204 66.6619H48.1719V70.4809C48.1719 71.4606 48.1719 72.4504 48.1719 73.4301C48.1719 74.7298 47.6121 74.9097 47.0822 74.9097L47.0722 74.8997ZM28.9472 54.7052C28.9272 54.8152 28.9172 54.9151 28.9172 55.0151V58.5641C28.9172 61.6633 28.9172 64.7524 28.9072 67.8516C28.9072 68.4814 29.2071 68.6714 29.7069 68.7814C32.5762 69.4212 35.4354 70.081 38.3046 70.7408L46.0125 72.5104V54.3653H28.9971L28.9472 54.7052ZM11.182 63.1029C10.5221 63.1029 9.91231 63.3628 9.44244 63.8427C8.97256 64.3226 8.72263 64.9524 8.73263 65.6022C8.75262 66.9419 9.85233 68.0316 11.182 68.0316C11.8418 68.0316 12.4616 67.7716 12.9315 67.3018C13.4014 66.8219 13.6613 66.1921 13.6513 65.5322C13.6313 64.1926 12.5416 63.1029 11.202 63.0929H11.192L11.182 63.1029ZM63.7877 63.0429C62.4781 63.0429 61.3784 64.1026 61.3184 65.3923C61.2884 66.0421 61.5183 66.6719 61.9582 67.1418C62.3981 67.6217 62.9979 67.8916 63.6577 67.9216H63.7577C65.1273 67.9216 66.1971 66.9019 66.2271 65.5422C66.267 64.2026 65.1973 63.0829 63.8477 63.0429H63.7777H63.7877ZM8.13279 50.1364C6.80315 50.1564 5.71345 51.2461 5.71345 52.5758C5.71345 53.2356 5.96338 53.8554 6.42326 54.3153C6.88313 54.7752 7.50296 55.0351 8.17278 55.0351C9.56241 55.0151 10.6321 53.9454 10.6321 52.5958C10.6321 51.9459 10.3822 51.3261 9.92231 50.8662C9.45244 50.3963 8.8326 50.1364 8.16278 50.1364H8.13279ZM66.7969 50.1364C65.4473 50.1364 64.3376 51.2261 64.3276 52.5558C64.3176 53.8854 65.3873 54.9951 66.7269 55.0251C68.1565 55.0251 69.2362 53.9654 69.2462 52.6057C69.2562 51.2761 68.1865 50.1664 66.8569 50.1364H66.7969ZM37.4848 52.1959C40.2541 52.1959 43.0133 52.1959 45.7826 52.2059C46.3424 52.2059 46.6923 52.0159 46.9923 51.536C51.9709 43.8181 56.9496 36.1102 61.9282 28.4023L66.487 21.3442C66.577 21.2143 66.6469 21.0743 66.7369 20.9143L67.0368 20.3645H56.7096V22.194C56.7096 23.5336 56.4197 23.8235 55.0701 23.8235C53.4705 23.8235 53.3705 23.9335 52.7707 25.0732L52.5608 25.4731C51.741 26.9727 51.9609 28.0124 53.3006 29.0521C53.6505 29.3221 53.8304 29.582 53.8504 29.8419C53.8704 30.1418 53.6804 30.4817 53.2706 30.8916C52.0109 32.1613 50.7413 33.4309 49.4716 34.6906L49.0517 35.1105C48.5818 35.5804 48.2419 35.7903 47.942 35.7903C47.6421 35.7903 47.3522 35.5803 46.9723 35.1205C46.3424 34.3607 45.7726 34.0208 45.0928 34.0208C44.6729 34.0208 44.203 34.1607 43.6532 34.4507L43.2733 34.6506C41.9636 35.3304 41.8637 35.4204 41.8437 37.1999C41.8437 38.3196 41.4938 38.6695 40.3741 38.6695C39.4443 38.6695 38.5146 38.6695 37.5848 38.6695H34.5756C33.296 38.6695 32.9661 38.3396 32.9661 37.07C32.9561 35.4204 32.8461 35.3204 31.6764 34.7006L31.2865 34.4907C30.7167 34.1807 30.2268 34.0308 29.7769 34.0308C29.0571 34.0308 28.4373 34.4007 27.7775 35.2405C27.4776 35.6203 27.1976 35.8003 26.9177 35.8003C26.6378 35.8003 26.3179 35.6203 25.938 35.2405C24.9682 34.2807 23.9985 33.311 23.0288 32.3412L21.949 31.2615C20.7994 30.1118 20.7894 29.7019 21.9291 28.5723C22.9688 27.5225 22.9688 27.3826 22.6189 26.2229L22.4989 25.803C22.069 24.3234 21.3392 23.6836 20.0496 23.6836C19.8496 23.6836 19.6297 23.7036 19.3997 23.7336C19.2998 23.7436 19.2098 23.7536 19.1298 23.7536C18.6899 23.7536 18.1001 23.6136 18.0801 22.4139C18.0801 21.974 18.0801 21.5342 18.0801 21.0943V20.2945H7.72291L8.03282 20.8344C8.1128 20.9843 8.18278 21.1043 8.26276 21.2342L12.7415 28.1324C17.8202 35.9503 22.8988 43.7581 27.9674 51.576C28.2673 52.0459 28.6172 52.2358 29.1871 52.2358C31.9563 52.2358 34.7256 52.2258 37.4948 52.2258L37.4848 52.1959ZM29.2771 31.3415C29.487 31.3415 29.7269 31.4015 30.0069 31.5315C31.4765 32.2113 32.8461 32.7911 34.2057 33.321C34.9155 33.5909 35.1955 33.9708 35.1755 34.6306C35.1655 35.0405 35.1755 35.4504 35.1755 35.8703V36.6501H39.8542C39.8542 36.6501 39.8542 35.0505 39.8542 34.6806C39.8542 33.9808 40.1441 33.5809 40.8739 33.311C42.2735 32.7911 43.6432 32.2113 44.9328 31.5814C45.2427 31.4315 45.5127 31.3615 45.7426 31.3615C46.0825 31.3615 46.3724 31.5115 46.6724 31.8314L47.952 33.221L51.3811 29.7819L50.8412 29.2921C50.5413 29.0221 50.2114 28.7322 49.9015 28.4323C49.4316 27.9824 49.3816 27.5325 49.7215 26.8327C50.2714 25.693 50.8212 24.4034 51.4411 22.7838C51.731 22.034 52.0809 21.7441 52.7007 21.7441C53.0106 21.7541 53.2506 21.7541 53.4905 21.7541H54.8301V17.0554H53.0506C51.9609 17.0554 51.781 16.8354 51.4011 15.8457C50.8412 14.3761 50.2914 13.0964 49.7215 11.9368C49.3716 11.217 49.4416 10.7371 49.9515 10.2772C50.2814 9.98729 50.6213 9.70737 50.9112 9.47743L51.4111 9.06754L47.912 5.57848L47.4422 6.08835C47.1722 6.38827 46.8723 6.71818 46.5624 7.02809C46.3025 7.28802 46.0525 7.41799 45.7526 7.41799C45.5427 7.41799 45.3027 7.358 45.0228 7.21804C43.7631 6.6182 42.4135 6.04836 40.8939 5.46851C40.1441 5.17859 39.8442 4.7887 39.8442 4.10889C39.8442 3.699 39.8442 3.2991 39.8442 2.87922V2.09943H35.1655V2.88922C35.1655 3.3191 35.1655 3.72899 35.1655 4.13888C35.1655 4.71872 34.9055 5.07862 34.2557 5.33855C32.7361 5.94838 31.3365 6.54822 29.9769 7.14806C29.7169 7.26802 29.487 7.31802 29.2871 7.31802C28.9971 7.31802 28.7372 7.19805 28.4873 6.94811C28.1774 6.6282 27.8774 6.29829 27.5575 5.93839L26.9377 5.25857L26.2679 5.96838C25.908 6.34827 25.5881 6.70818 25.2382 7.03809C24.8983 7.368 24.5383 7.68791 24.1684 8.01782L23.4686 8.64765L24.1285 9.25749C24.4284 9.52741 24.6783 9.75736 24.9182 9.99729C25.668 10.7471 25.708 11.067 25.1882 12.1467C24.6483 13.2564 24.1285 14.4861 23.5986 15.9057C23.2887 16.7555 23.0588 17.0054 22.139 17.0154H20.2595V21.7041H21.8391C23.1687 21.7041 23.2587 21.8341 23.6986 23.0438C24.0985 24.1235 24.5983 25.2931 25.2782 26.7228C25.658 27.5125 25.678 27.8524 25.0682 28.4623C24.7583 28.7722 24.4384 29.0621 24.1585 29.3121L23.6786 29.7519L27.0977 33.191L27.6075 32.6312C27.8974 32.3112 28.1974 31.9813 28.5173 31.6514C28.7572 31.4115 28.9971 31.3015 29.2771 31.3015V31.3415ZM55.8399 14.886C56.6197 14.886 56.7596 15.6558 56.7696 16.1056C56.7696 16.4855 56.7696 16.8654 56.7696 17.2753V18.0851L57.2895 18.1151C57.4894 18.1251 57.6494 18.1351 57.8193 18.1351H71.3957C72.5853 18.1351 72.9452 17.7652 72.9452 16.5755C72.9452 14.776 72.9452 12.9765 72.9452 11.177C72.9452 10.0073 72.6853 9.74736 71.4956 9.74736H62.5281C59.8988 9.75736 57.2795 9.74736 54.6602 9.70737C53.2106 9.70737 52.5208 10.4472 51.9309 11.217L51.861 11.3169L51.9109 11.4269C51.9809 11.5769 52.0609 11.7268 52.1309 11.8668C52.2808 12.1467 52.4208 12.4166 52.4708 12.6866C52.7507 14.2161 53.5305 14.9559 54.8801 14.9559C55.1101 14.9559 55.35 14.9359 55.6199 14.896C55.6999 14.886 55.7699 14.876 55.8399 14.876V14.886ZM3.37408 9.75735C2.37435 9.75735 2.10443 10.0473 2.09443 11.087C2.09443 12.4866 2.09443 16.5655 2.09443 16.5655C2.09443 17.9151 2.31437 18.1451 3.64401 18.1451H18.2401V17.2953C18.2401 16.8754 18.2401 16.4855 18.2401 16.1056C18.27 15.2759 18.63 14.906 19.4597 14.876C19.7696 14.876 20.0196 14.856 20.2795 14.856C20.4894 14.856 20.6994 14.856 20.9093 14.876C20.9693 14.876 21.0193 14.876 21.0693 14.876C21.6091 14.876 21.9091 14.626 22.049 14.0662C22.169 13.5963 22.3689 13.1164 22.5689 12.6666L22.7388 12.2667C22.7688 12.1867 22.8188 12.1067 22.8588 12.0267C23.0588 11.6368 23.3287 11.107 22.6189 10.6171C22.4889 10.5271 22.3789 10.4172 22.269 10.3072C21.999 10.0373 21.6891 9.71736 21.1193 9.71736C17.8901 9.73736 14.671 9.73736 11.4519 9.73736H5.8934H3.38408L3.37408 9.75735Z" fill="#FF6C1A"/>
<path id="Vector_2" d="M29.3669 25.943C29.2269 25.943 29.087 25.913 28.947 25.853C28.2472 25.5431 28.3472 24.8933 28.5571 24.4034C28.5571 24.4034 33.4058 13.0765 33.4458 13.0165C33.7457 12.3966 34.0756 12.1367 34.5455 12.1367C35.0853 12.1567 35.3953 12.4166 35.6552 13.0365C36.6149 15.2959 37.5847 17.5652 38.5644 19.8246L39.7941 22.6739C40.004 23.1637 40.2139 23.6436 40.4139 24.1335C40.4939 24.3334 40.5539 24.5334 40.5939 24.6933L40.6338 24.8433C40.5938 25.6431 40.174 25.833 39.854 25.903C39.7341 25.933 39.6241 25.943 39.5141 25.943C39.1143 25.943 38.8143 25.753 38.6344 25.3831C38.5144 25.1332 38.3945 24.8733 38.2845 24.6133C38.1045 24.2034 37.9246 23.7736 37.6946 23.3737C37.5347 23.0838 37.1148 22.7738 36.7549 22.7638C35.9951 22.7438 35.2253 22.7238 34.4655 22.7238C33.7057 22.7238 32.9359 22.7338 32.1661 22.7638C31.8162 22.7738 31.3963 23.0937 31.2364 23.3737C31.0264 23.7336 30.8665 24.1135 30.7065 24.4734C30.5966 24.7233 30.4866 24.9832 30.3666 25.2232C30.1367 25.683 29.7768 25.943 29.3669 25.943ZM32.4161 20.6044H36.505L34.4555 15.9057L32.4161 20.6044Z" fill="#FF6C1A"/>
<path id="Vector_3" d="M45.0932 25.9928C44.1934 25.9928 44.0635 25.123 44.0635 24.6132C44.0635 23.2635 44.0635 19.0547 44.0635 19.0547C44.0635 19.0547 44.0635 14.8858 44.0635 13.5762C44.0635 12.7264 44.4634 12.1965 45.1032 12.1965C45.763 12.1965 46.1429 12.7164 46.1429 13.5962C46.1429 17.2752 46.1429 20.9542 46.1429 24.6332C46.1429 25.143 46.0029 25.9928 45.1032 25.9928H45.0932Z" fill="#FF6C1A"/>
</g>
</g>
<defs>
<clipPath id="clip0_1348_1133">
<rect width="75" height="75" fill="white"/>
</clipPath>
</defs>
</svg>
