<svg width="75" height="75" viewBox="0 0 75 75" fill="none" xmlns="http://www.w3.org/2000/svg">
<g id="Frame 14680" clip-path="url(#clip0_1348_1120)">
<g id="Group">
<path id="Vector" d="M30.6418 74.98C29.4821 74.98 29.2122 74.7201 29.2122 73.5804V65.2426H1.5596C0.199959 65.2426 0 65.0327 0 63.663V1.58958C0 0.219941 0.199959 0.00999733 1.5596 0.00999733H13.0465C19.3848 0.00999733 25.7231 0.00999733 32.0615 0C32.7313 0 33.2212 0.199947 33.691 0.679819C35.6305 2.6393 37.58 4.57878 39.5195 6.52826C41.209 8.21781 42.9086 9.91736 44.5881 11.6169C44.998 12.0268 45.4279 12.2067 46.0177 12.2067C48.4371 12.2067 50.8365 12.2067 53.2458 12.1967C55.9351 12.1967 58.6344 12.1967 61.3237 12.1868C61.9635 12.1868 62.4234 12.3867 62.8832 12.8466C66.6922 16.6756 70.5112 20.4945 74.3402 24.3035C74.7801 24.7434 74.97 25.1833 74.97 25.8031C74.96 39.3395 74.96 52.8759 74.96 66.4123V73.5804C74.96 74.7401 74.7001 75 73.5504 75H52.0961H30.6418V74.98ZM31.1717 73.0105H72.9905V26.283H62.3434C61.1037 26.283 60.8638 26.0431 60.8638 24.7734V14.1462H45.7678V34.1009H60.2339C63.933 34.1009 66.4323 36.5802 66.4323 40.2693C66.4323 43.2885 66.4323 46.3077 66.4323 49.3169C66.4323 53.0059 63.933 55.4952 60.2439 55.4952H45.7378V63.823C45.7378 64.9727 45.4679 65.2326 44.3182 65.2326H31.1717V73.0105ZM1.96948 63.2831H43.7783V55.5052H14.7261C10.9571 55.5052 8.51773 53.0559 8.51773 49.2669C8.51773 46.3276 8.51773 43.3984 8.51773 40.4592C8.51773 36.5303 10.9471 34.1009 14.856 34.1009H43.7683V14.1062H33.0412C31.9215 14.1062 31.6516 13.8363 31.6516 12.7366V1.96947H1.96948V63.2831ZM60.4039 53.5757C62.8632 53.5757 64.5128 51.9162 64.5228 49.4568C64.5228 46.3576 64.5228 43.2685 64.5228 40.1793C64.5228 37.66 62.8832 36.0304 60.3539 36.0304H14.6361C12.0568 36.0304 10.4472 37.64 10.4472 40.2293C10.4472 42.6186 10.4472 45.018 10.4472 47.4074V49.2069C10.4472 52.0361 12.0068 53.5857 14.846 53.5857H60.4139L60.4039 53.5757ZM62.8432 24.3235H71.431L62.8432 15.7258V24.3235ZM33.621 12.1468H42.0688L33.621 3.69901V12.1468Z" fill="#FF6C1A"/>
<path id="Vector_2" d="M40.8089 17.0955H4.89844V18.925H40.8089V17.0955Z" fill="#FF6C1A"/>
<path id="Vector_3" d="M40.8289 21.9741H4.91846V23.8036H40.8289V21.9741Z" fill="#FF6C1A"/>
<path id="Vector_4" d="M28.6521 12.2368H4.91846V14.0663H28.6521V12.2368Z" fill="#FF6C1A"/>
<path id="Vector_5" d="M21.3543 7.35815H9.77734V9.18767H21.3543V7.35815Z" fill="#FF6C1A"/>
<path id="Vector_6" d="M28.6324 7.31812H24.3735V9.18762H28.6324V7.31812Z" fill="#FF6C1A"/>
<path id="Vector_7" d="M37.3304 49.4367C36.5307 49.4367 35.7409 49.4267 34.9411 49.3967C32.9516 49.3168 31.552 48.337 30.7822 46.4675C30.6322 46.1076 30.4123 45.7477 29.8924 45.7477C29.8324 45.7477 29.7625 45.7477 29.6925 45.7677C29.6525 45.7677 29.6225 45.7677 29.5825 45.7677C29.5425 45.7677 29.4925 45.7677 29.4525 45.7677C29.2426 45.7477 29.0426 45.7277 28.8627 45.7277C27.833 45.7277 27.1631 46.1976 26.6933 47.2473C26.0934 48.587 24.7838 49.3568 22.9942 49.4067C22.1545 49.4267 21.3047 49.4467 20.4649 49.4467C19.6251 49.4467 18.7154 49.4367 17.8356 49.4167C15.3663 49.3568 13.3668 47.2673 13.3968 44.768C13.4168 42.3086 15.4263 40.2692 17.8756 40.2192C18.7554 40.1992 19.6351 40.1892 20.5149 40.1892C21.3047 40.1892 22.0945 40.1892 22.8843 40.2192C24.9137 40.2792 26.3434 41.2589 27.1331 43.1284C27.2831 43.4983 27.523 43.8782 28.0629 43.8782C28.1329 43.8782 28.2129 43.8782 28.2928 43.8582C28.6028 43.8782 28.8027 43.8882 29.0027 43.8882C29.7924 43.8882 30.6822 43.6983 31.272 42.3286C32.0418 40.5391 33.9313 40.2392 34.9811 40.2092C35.7808 40.1892 36.5906 40.1792 37.3904 40.1792C38.1902 40.1792 39.02 40.1792 39.8398 40.1992C41.9292 40.2392 43.3988 41.2389 44.1986 43.1684C44.3686 43.5783 44.5885 43.8582 45.1283 43.8582C45.4982 43.8382 45.7882 43.8382 46.0781 43.8382H47.5477L47.6077 43.6783C48.4575 41.3189 50.077 40.1792 52.5464 40.1792C52.6664 40.1792 52.7863 40.1792 52.9063 40.1792C53.3661 40.1992 53.816 40.1992 54.2759 40.1992C54.6358 40.1992 56.0754 40.1892 56.4353 40.1892H56.9452C59.5445 40.2192 61.584 42.2586 61.574 44.818C61.574 47.3673 59.5245 49.3867 56.9152 49.4167C56.1754 49.4167 55.4356 49.4267 54.6858 49.4267C53.856 49.4267 53.0262 49.4267 52.1965 49.4267C50.147 49.4167 48.5574 48.337 47.8276 46.4775C47.6977 46.1476 47.4777 45.7577 46.9279 45.7577C46.8679 45.7577 46.7979 45.7577 46.7279 45.7677H46.568C46.338 45.7377 46.1281 45.7177 45.9281 45.7177C44.8884 45.7177 44.2086 46.1876 43.7287 47.2473C43.1289 48.587 41.8092 49.3468 40.0197 49.3967C39.1199 49.4267 38.2302 49.4367 37.3304 49.4367ZM49.8171 46.1576C50.337 47.0074 51.0568 47.4473 51.9565 47.4673C52.8563 47.4873 53.756 47.4972 54.6558 47.4972C55.4556 47.4972 56.2654 47.4972 57.0652 47.4673C58.4948 47.4373 59.6545 46.2276 59.6445 44.778C59.6445 43.3384 58.4748 42.1387 57.0452 42.1087C56.2654 42.0887 55.4856 42.0887 54.7058 42.0887C53.806 42.0887 52.9163 42.0887 52.0165 42.1087C51.0568 42.1287 50.337 42.5686 49.7971 43.4583L49.5672 43.8482H52.9963V45.7577H49.5772L49.8171 46.1476V46.1576ZM20.265 42.0887C19.4752 42.0887 18.6754 42.0887 17.8756 42.1187C16.426 42.1487 15.2963 43.3384 15.3063 44.808C15.3063 46.2676 16.456 47.4473 17.9056 47.4773C18.7054 47.4973 19.4952 47.5072 20.295 47.5072C21.1747 47.5072 22.0545 47.4973 22.9343 47.4773C23.904 47.4573 24.6238 47.0174 25.1237 46.1376L25.3436 45.7577H21.9545V43.8582H25.3836L25.1437 43.4683C24.6038 42.5886 23.904 42.1487 22.9843 42.1287C22.0745 42.1087 21.1747 42.0987 20.265 42.0987V42.0887ZM32.7816 46.1976C33.3115 47.0274 34.0413 47.4573 34.9411 47.4773C35.7908 47.4873 36.6406 47.4972 37.5004 47.4972C38.3602 47.4972 39.15 47.4973 39.9697 47.4773C40.9295 47.4573 41.6493 47.0274 42.1691 46.1476L42.3991 45.7577H38.99V43.8182H42.4091L42.1691 43.4283C41.6593 42.5886 40.9695 42.1487 40.1097 42.1287C39.2199 42.1087 38.3302 42.0987 37.4404 42.0987C36.5506 42.0987 35.7109 42.1087 34.8511 42.1287C33.9413 42.1487 33.2315 42.6086 32.7617 43.4883L32.5617 43.8682H35.9408V45.8077H32.5317L32.7816 46.2076V46.1976Z" fill="#FF6C1A"/>
</g>
</g>
<defs>
<clipPath id="clip0_1348_1120">
<rect width="75" height="75" fill="white"/>
</clipPath>
</defs>
</svg>
