<svg width="75" height="75" viewBox="0 0 75 75" fill="none" xmlns="http://www.w3.org/2000/svg">
<g id="Frame 14681" clip-path="url(#clip0_1348_1129)">
<g id="Group">
<path id="Vector" d="M34.0401 67.37C33.3301 67.37 32.93 67.1 32.7001 66.45C32.34 65.46 31.93 64.34 31.4501 63.26C31.3001 62.92 30.9601 62.59 30.6 62.43C28.99 61.73 27.32 61.04 25.49 60.32C25.31 60.25 25.09 60.21 24.88 60.21C24.69 60.21 24.5201 60.24 24.3701 60.3C23.2801 60.73 22.1901 61.24 21.17 61.71C20.9401 61.82 20.74 61.87 20.55 61.87C20.25 61.87 19.9601 61.73 19.68 61.45C18.0201 59.77 16.3601 58.11 14.68 56.45C14.22 55.99 14.13 55.55 14.4 54.97L14.5601 54.62C14.9801 53.69 15.42 52.73 15.8 51.76C15.95 51.38 15.89 50.89 15.76 50.57C15.13 48.96 14.44 47.29 13.65 45.45C13.53 45.17 13.26 44.83 12.93 44.69C11.85 44.23 10.7401 43.81 9.60005 43.39C9.02005 43.17 8.76005 42.81 8.77005 42.21C8.77005 41.69 8.77005 41.17 8.77005 40.65C8.77005 40.03 8.77005 39.41 8.77005 38.79C8.78005 37.94 9.11005 37.62 9.99005 37.61C10.41 37.61 10.82 37.61 11.24 37.61H13.42V23.65H8.85005L8.79005 23.77C7.76005 25.94 6.33005 27.05 4.52005 27.05C4.18005 27.05 3.83005 27.01 3.47005 26.93C1.48005 26.49 -0.00994996 24.61 5.00371e-05 22.55C0.01005 20.52 1.50005 18.67 3.45005 18.25C3.77005 18.18 4.10005 18.15 4.43005 18.15C5.37005 18.15 7.66005 18.47 8.78005 21.45L8.83005 21.58H13.88C15.24 21.58 15.48 21.81 15.48 23.15V37.55H20.15V18.28L19.8701 18.17C19.7401 18.12 19.6 18.06 19.46 18C17.48 17.13 16.43 15.04 16.89 12.92C17.32 10.97 19.17 9.47996 21.21 9.46996C23.27 9.46996 25.14 10.97 25.57 12.96C26.01 15.03 24.9401 17.14 23.01 17.98C22.6101 18.15 22.23 18.32 22.23 19C22.25 23.6 22.25 28.21 22.25 32.81V36.93C22.25 37.02 22.25 37.11 22.26 37.2V37.3L22.3601 37.46C22.4501 37.53 22.51 37.58 22.6 37.59C24.17 37.73 24.18 37.75 24.3 39.29C24.86 46.57 30.44 51.85 37.57 51.85H37.68C44.4001 51.8 50.11 46.5 50.67 39.79C50.7834 38.4566 51.4134 37.71 52.5601 37.55L52.7401 37.52V18.32L52.62 18.26C50.07 17.08 48.9501 15.19 49.4501 12.93C49.89 10.95 51.75 9.45996 53.7701 9.45996C55.9001 9.48996 57.7001 10.95 58.12 12.93C58.6101 15.26 57.5201 17.09 54.96 18.25L54.84 18.3V37.56H59.53V23.2C59.53 21.81 59.7601 21.58 61.1501 21.58H66.1501L66.2001 21.44C66.9201 19.38 68.5301 18.15 70.4901 18.15C70.87 18.15 71.2601 18.2 71.6501 18.29C73.6501 18.75 75.0601 20.62 75.0101 22.74C74.9601 24.77 73.4301 26.59 71.4501 26.95C71.16 27 70.8701 27.03 70.5801 27.03C69.6401 27.03 67.34 26.71 66.2501 23.78L66.2001 23.65H61.6V37.62H64.7601C66.0001 37.62 66.2501 37.88 66.2601 39.13V40.45C66.2601 41.05 66.2601 41.65 66.2601 42.25C66.2601 42.82 66.0101 43.18 65.4701 43.39L64.7401 43.66C63.91 43.97 63.0401 44.29 62.21 44.66C61.82 44.83 61.5 45.24 61.35 45.57C60.63 47.21 59.93 48.88 59.28 50.54C59.15 50.88 59.08 51.4 59.23 51.79C59.6 52.75 60.0401 53.7 60.46 54.62L60.6 54.93C60.88 55.54 60.8001 56.01 60.3101 56.48C58.6501 58.12 57 59.77 55.3601 61.42C55.0601 61.73 54.7701 61.87 54.4501 61.87C54.25 61.87 54.0501 61.82 53.8101 61.7C52.9001 61.27 51.82 60.76 50.67 60.32C50.51 60.26 50.3301 60.23 50.1301 60.23C49.91 60.23 49.68 60.27 49.4901 60.34C48.6201 60.68 47.75 61.04 46.89 61.4C46.08 61.74 45.2601 62.08 44.4501 62.4C44 62.58 43.68 62.79 43.51 63.29C43.28 63.95 43.03 64.61 42.7701 65.26C42.6101 65.66 42.4501 66.07 42.3 66.47C42.07 67.09 41.67 67.36 41 67.36C39.8 67.36 38.6101 67.35 37.43 67.35C36.3101 67.35 35.1901 67.35 34.0601 67.36H34.0401V67.37ZM38.12 65.34C38.71 65.34 39.2901 65.34 39.8801 65.35C40.4901 65.35 40.7001 65.01 40.8301 64.65C41 64.18 41.18 63.72 41.3601 63.26C41.5601 62.73 41.7701 62.21 41.96 61.67C42.16 61.12 42.4901 60.82 43.0401 60.69C45.1501 60.19 47.2301 59.33 49.2401 58.13C49.4901 57.98 49.74 57.9 49.98 57.9C50.19 57.9 50.4001 57.95 50.6301 58.06L51.1101 58.28C51.93 58.66 52.7801 59.04 53.6301 59.38C53.73 59.42 53.85 59.44 53.98 59.44C54.2001 59.44 54.5 59.38 54.68 59.21C55.7901 58.15 56.9201 57.03 58.1301 55.77C58.34 55.55 58.43 55.08 58.3101 54.79C57.93 53.83 57.5 52.85 56.9901 51.79C56.7301 51.24 56.75 50.79 57.07 50.27C58.2201 48.39 59.07 46.33 59.6101 44.14C59.7401 43.6 60.03 43.28 60.53 43.1C61.57 42.73 62.6001 42.33 63.5801 41.92C63.8501 41.81 64.1501 41.52 64.2101 41.24C64.2701 40.93 64.2601 40.62 64.2501 40.29C64.2501 40.16 64.2501 40.02 64.2501 39.88V39.67H52.8101L52.7901 39.86C52.09 47.71 45.38 53.86 37.53 53.86C37.35 53.86 37.17 53.86 36.98 53.85C29.2701 53.57 23.09 47.69 22.3 39.86L22.2801 39.68H10.96L10.93 39.84C10.59 41.43 10.68 41.63 12.09 42.17L12.89 42.48C13.42 42.69 13.96 42.9 14.5 43.09C15.0201 43.27 15.3101 43.59 15.43 44.11C15.96 46.31 16.83 48.39 18 50.31C18.2901 50.79 18.31 51.24 18.06 51.76C17.82 52.26 17.6 52.77 17.38 53.28C17.18 53.74 16.98 54.21 16.76 54.67C16.57 55.08 16.5301 55.43 16.9401 55.83C17.4701 56.34 18 56.87 18.5201 57.39C19.1201 58 19.73 58.6 20.35 59.19C20.5401 59.37 20.8601 59.43 21.07 59.43C21.1901 59.43 21.29 59.41 21.38 59.38C22.38 58.99 23.33 58.55 24.38 58.06C24.62 57.95 24.84 57.89 25.05 57.89C25.31 57.89 25.57 57.97 25.84 58.13C27.8 59.31 29.86 60.16 31.97 60.67C32.53 60.8 32.8701 61.1 33.0601 61.64C33.4001 62.57 33.8 63.66 34.25 64.69C34.3801 64.99 34.8 65.29 35.12 65.3C35.82 65.32 36.5201 65.32 37.23 65.32H38.1501L38.12 65.34ZM70.5501 20.16C69.2401 20.16 68.1601 21.23 68.1501 22.55C68.1501 23.2 68.4001 23.82 68.8501 24.28C69.3 24.74 69.9101 24.99 70.5501 24.99C71.1901 24.99 71.8001 24.73 72.2601 24.27C72.7201 23.8 72.9701 23.2 72.9701 22.56C72.9601 21.27 71.8901 20.19 70.6001 20.16H70.5501ZM4.42005 20.16C3.12005 20.17 2.05005 21.24 2.02005 22.53C2.01005 23.17 2.25005 23.78 2.71005 24.25C3.17005 24.72 3.77005 24.98 4.41005 24.99C5.76005 24.99 6.84005 23.91 6.84005 22.58C6.84005 21.94 6.59005 21.33 6.13005 20.87C5.67005 20.41 5.07005 20.16 4.43005 20.16H4.41005H4.42005ZM21.1901 11.48C19.9001 11.5 18.8201 12.57 18.7901 13.86C18.7801 14.5 19.02 15.1 19.47 15.57C19.93 16.04 20.5401 16.31 21.1901 16.31C21.8601 16.31 22.4601 16.06 22.92 15.6C23.3701 15.15 23.6201 14.54 23.6201 13.89C23.6201 12.56 22.54 11.47 21.22 11.47H21.1901V11.48ZM53.7701 11.48C53.1301 11.48 52.5301 11.73 52.0801 12.19C51.6301 12.65 51.3801 13.26 51.3801 13.9C51.3801 15.22 52.41 16.28 53.73 16.31C55.1 16.31 56.19 15.25 56.21 13.94C56.22 13.32 55.9701 12.7 55.5201 12.24C55.0601 11.77 54.44 11.49 53.8 11.49H53.7701V11.48Z" fill="#FF6C1A"/>
<path id="Vector_2" d="M33.6899 42.75C32.5699 42.75 32.2599 42.44 32.2599 41.31V19.79H30.5499C30.2399 19.79 29.6099 19.79 29.6099 19.79C28.7399 19.79 28.2199 19.5 27.9299 18.88C27.6199 18.22 27.7399 17.6 28.3099 16.94C29.7599 15.25 31.1999 13.55 32.6399 11.85C33.7599 10.54 34.8699 9.22 35.9899 7.91C36.5099 7.3 37.0099 7 37.4999 7C37.9899 7 38.4999 7.31 39.0199 7.92C40.2199 9.33 41.4099 10.73 42.6099 12.14C43.9699 13.74 45.3299 15.35 46.6999 16.95C47.2499 17.59 47.3699 18.19 47.0899 18.84C46.7999 19.5 46.2799 19.8 45.4399 19.8C45.0699 19.8 44.7699 19.8 44.4699 19.8H42.7399V41.11C42.7399 42.53 42.5099 42.76 41.0599 42.76H37.3699H33.6899V42.75ZM30.2699 17.77H32.3499C34.1899 17.77 34.2799 17.86 34.2799 19.67V40.7H40.7199V19.41C40.7199 17.96 40.9099 17.78 42.3899 17.78H44.7399L37.4999 9.26L30.2699 17.78V17.77Z" fill="#FF6C1A"/>
</g>
</g>
<defs>
<clipPath id="clip0_1348_1129">
<rect width="75" height="75" fill="white"/>
</clipPath>
</defs>
</svg>
