<svg width="75" height="75" viewBox="0 0 75 75" fill="none" xmlns="http://www.w3.org/2000/svg">
<g id="Frame 14683">
<g id="Group">
<path id="Vector" d="M15.2012 74.99C14.5712 74.93 14.1912 74.56 13.9112 73.75C13.5812 72.8 13.2412 71.85 12.8812 70.9L12.3812 69.53L10.8812 69.79C9.85123 69.97 8.86123 70.14 7.88123 70.33C7.70123 70.37 7.53122 70.39 7.37122 70.39C6.88122 70.39 6.53123 70.21 6.25123 69.82C5.89123 69.32 5.92124 68.81 6.32124 68.11C7.36124 66.32 8.39122 64.53 9.43122 62.74L10.5712 60.76L11.1312 59.77L10.7712 59.56C10.6512 59.48 10.5312 59.42 10.4112 59.36C9.11123 58.77 8.12123 57.66 7.70123 56.33C7.28123 55 7.44122 53.59 8.15122 52.37C8.52122 51.74 8.51123 51.18 8.13123 50.52C7.44123 49.33 7.28124 47.88 7.71124 46.56C8.14124 45.24 9.11123 44.15 10.3812 43.59C11.0612 43.29 11.3812 42.85 11.4812 42.11C11.8112 39.52 13.8312 37.7 16.3912 37.7C16.7512 37.7 17.1312 37.74 17.5012 37.81C17.7012 37.85 17.8812 37.87 18.0312 37.87C18.8312 37.87 18.9412 37.27 18.9412 36.62V29.47C18.9512 23.09 18.9612 16.49 18.9112 10C18.9012 7.99 19.6512 6.48 21.2812 5.23C23.8212 3.28 26.8512 2.36 29.2012 1.78C33.9412 0.599999 38.9812 0 44.1712 0C46.1512 0 48.2012 0.0900021 50.2612 0.260002C55.5412 0.700002 59.7112 1.56 63.4012 2.96C65.3112 3.69 66.7612 4.5 67.9512 5.52C69.3212 6.69 69.9812 8.11 69.9812 9.88C69.9512 22.72 69.9512 35.83 69.9812 48.84C69.9812 50.57 69.3512 51.96 68.0512 53.1C66.0712 54.82 63.6712 55.72 61.5912 56.38C57.8112 57.57 53.6312 58.27 48.4212 58.59C47.0812 58.67 45.7212 58.71 44.3812 58.71C42.0412 58.71 39.6612 58.59 37.3112 58.34C37.2712 58.34 37.2212 58.34 37.1812 58.34C37.0612 58.34 36.8312 58.36 36.6312 58.47C36.1712 58.75 35.7112 59.05 35.2412 59.37L34.5612 59.82L34.7412 60.15C34.8212 60.31 34.9112 60.47 35.0112 60.64L36.0112 62.38C37.1012 64.28 38.2012 66.17 39.3012 68.06C39.7312 68.8 39.7612 69.33 39.4012 69.84C39.1212 70.22 38.7712 70.4 38.2812 70.4C38.1112 70.4 37.9112 70.38 37.6912 70.33C36.7312 70.13 35.7612 69.97 34.7612 69.8L33.2812 69.55L32.1512 72.66L31.6412 74.04C31.4312 74.62 31.0312 74.94 30.4512 74.99C30.4012 74.99 30.3512 74.99 30.3012 74.99C29.8112 74.99 29.4112 74.74 29.1212 74.24L28.1212 72.51C27.2212 70.96 26.3112 69.41 25.4512 67.84C25.1612 67.31 24.8612 67.11 24.3812 67.11C24.2512 67.11 24.1012 67.13 23.9312 67.16C23.6112 67.22 23.2612 67.25 22.9012 67.25C22.4612 67.25 22.0012 67.21 21.5312 67.12C21.4112 67.1 21.3012 67.09 21.2012 67.09C20.7712 67.09 20.5612 67.31 20.3512 67.67C19.7012 68.81 19.0512 69.95 18.3912 71.09C17.8312 72.06 17.2612 73.04 16.7112 74.01C16.3112 74.7 15.9212 75 15.3712 75C15.3212 75 15.2712 75 15.2212 75L15.2012 74.99ZM13.0912 67.47C13.5812 67.47 13.7912 67.62 14.1412 68.58L15.4612 72.21L16.3712 70.64C17.2712 69.08 18.1212 67.61 18.9512 66.11C19.0112 66.01 19.0012 65.87 18.9412 65.69C18.9312 65.65 18.7812 65.28 18.5412 65.19C18.3612 65.12 18.1512 65.09 17.9212 65.09C17.7512 65.09 17.5812 65.11 17.4312 65.14C17.0612 65.21 16.7012 65.25 16.3512 65.25C14.9112 65.25 13.6712 64.63 12.5412 63.37C12.4312 63.24 12.3212 63.11 12.2112 62.97L11.8412 62.51L8.54122 68.22L12.3912 67.55C12.6712 67.5 12.9012 67.47 13.0912 67.47ZM27.5912 65.06C27.0512 65.09 26.8212 65.3 26.7312 65.47C26.6412 65.64 26.5812 65.94 26.8512 66.4C27.7812 68.02 28.7212 69.64 29.6612 71.26C29.7212 71.37 29.8012 71.47 29.8912 71.59L30.2612 72.08C30.2612 72.08 31.3312 69.11 31.5812 68.43C31.8812 67.61 32.1512 67.47 32.6112 67.47C32.7712 67.47 32.9412 67.49 33.1512 67.53C33.9412 67.67 37.1212 68.22 37.1212 68.22L33.7912 62.45L33.4212 62.99C32.2812 64.51 30.9512 65.25 29.3412 65.25C28.9412 65.25 28.5212 65.2 28.0812 65.11C27.9412 65.08 27.8012 65.06 27.6612 65.06H27.5812H27.5912ZM18.0312 63.1C19.0512 63.1 19.8912 63.51 20.5912 64.37C21.1312 65.03 21.8612 65.35 22.8312 65.37C23.8012 65.36 24.5312 65.03 25.0812 64.36C25.7812 63.51 26.6112 63.1 27.6212 63.1C27.9212 63.1 28.2512 63.14 28.5812 63.21C28.8112 63.26 29.0412 63.29 29.2612 63.29C30.8012 63.29 32.0712 62.13 32.2112 60.6C32.3512 59.12 33.0512 58.15 34.4212 57.56C35.2112 57.22 35.8112 56.56 36.0712 55.75C36.3312 54.96 36.2312 54.08 35.8012 53.37C35.0312 52.07 35.0312 50.85 35.8012 49.54C36.2212 48.83 36.3212 47.96 36.0612 47.16C35.8012 46.36 35.2212 45.72 34.4712 45.39C33.0712 44.78 32.3512 43.8 32.2112 42.31C32.0712 40.79 30.8112 39.64 29.2812 39.64C29.0612 39.64 28.8412 39.66 28.6312 39.71C28.2912 39.79 27.9712 39.82 27.6712 39.82C26.6512 39.82 25.7812 39.39 25.0012 38.51C24.4512 37.89 23.6612 37.54 22.8312 37.54C22.0012 37.54 21.1912 37.9 20.6412 38.53C19.8712 39.4 19.0012 39.83 17.9812 39.83C17.6712 39.83 17.3412 39.79 17.0012 39.72C16.7912 39.67 16.5812 39.65 16.3612 39.65C14.8612 39.65 13.5812 40.8 13.4512 42.27C13.3112 43.8 12.5812 44.8 11.1612 45.42C10.4112 45.74 9.83124 46.39 9.57124 47.19C9.32124 47.98 9.40123 48.83 9.81123 49.51C10.6112 50.85 10.6112 52.11 9.80123 53.47C9.40123 54.14 9.31124 54.99 9.57124 55.78C9.83124 56.57 10.3912 57.21 11.1112 57.52C12.5612 58.14 13.3012 59.16 13.4512 60.71C13.5912 62.17 14.8712 63.31 16.3812 63.31C16.6012 63.31 16.8112 63.29 17.0212 63.24C17.3712 63.16 17.7112 63.12 18.0312 63.12V63.1ZM37.4012 45.37C38.4512 47.34 38.4312 49.14 37.3312 50.89C37.1512 51.18 37.1512 51.72 37.3312 52.01C38.1312 53.27 38.3512 54.64 37.9912 56.19L37.9412 56.42L38.6712 56.49C40.5512 56.66 42.4912 56.75 44.4312 56.75C46.5312 56.75 48.7012 56.65 50.8812 56.45C55.0012 56.07 58.3212 55.42 61.3412 54.41C63.1312 53.81 65.0112 53.07 66.5912 51.78C67.2812 51.21 67.9912 50.49 68.0012 49.42C68.0212 47.27 68.0212 45.12 68.0112 42.91V39.84L67.6912 40.07C65.9812 41.3 64.1112 42.2 61.8112 42.93C56.7312 44.52 51.1212 45.3 44.6712 45.3H44.1612C42.6712 45.29 41.1612 45.23 39.6912 45.16C38.9912 45.13 37.2312 45.07 37.2312 45.07L37.3912 45.38L37.4012 45.37ZM29.2812 37.66C31.6112 37.66 33.7712 39.48 34.0912 41.71C34.2012 42.46 34.5612 42.65 35.1912 42.74C38.1112 43.15 41.1712 43.35 44.2912 43.35C45.1312 43.35 45.9612 43.34 46.8012 43.31C50.7912 43.17 56.0312 42.8 61.1112 41.06C62.9112 40.45 64.6112 39.55 66.1912 38.67C67.4712 37.95 68.1212 36.74 68.0512 35.15C67.9812 33.57 68.0012 31.95 68.0112 30.39C68.0112 29.71 68.0212 29.04 68.0212 28.36V26.63L67.7212 26.79C67.3412 26.99 66.9812 27.19 66.6212 27.39C65.8512 27.82 65.1212 28.23 64.3612 28.56C61.1812 29.95 57.6112 30.84 52.7812 31.42C49.9412 31.76 47.1012 31.94 44.3312 31.94C40.1812 31.94 36.0412 31.55 32.0312 30.78C28.6612 30.13 24.7712 29.16 21.4012 26.82L21.3512 26.78H21.2312L21.1412 26.79L20.9712 26.82L20.9412 27V35.85L21.4212 35.76C21.5712 35.73 21.7112 35.7 21.8512 35.68C22.2012 35.63 22.5412 35.61 22.8612 35.61C24.3412 35.61 25.5112 36.12 26.4312 37.18C26.8212 37.63 27.2512 37.84 27.7612 37.84C27.9312 37.84 28.1112 37.82 28.3212 37.77C28.6312 37.7 28.9512 37.67 29.2712 37.67L29.2812 37.66ZM20.9112 13.61C20.9112 14.42 20.9112 15.24 20.9112 16.05C20.9212 17.97 20.9312 19.96 20.8812 21.9C20.8412 23.32 21.3712 24.4 22.4612 25.09C23.5712 25.79 24.8912 26.59 26.3112 27.16C31.0312 29.04 35.8812 29.56 40.0112 29.83C41.5712 29.93 43.1312 29.98 44.6412 29.98C48.5412 29.98 52.3712 29.64 56.0212 28.97C59.8712 28.26 62.6912 27.34 65.1612 25.98C66.6012 25.19 68.4612 23.82 68.0112 21.04C68.0012 20.96 68.0112 20.87 68.0112 20.78V20.63V13.34L67.7212 13.48C67.2112 13.72 66.7212 13.97 66.2312 14.22C65.1612 14.76 64.1612 15.27 63.0912 15.67C58.6612 17.34 53.7512 18.21 47.1612 18.48C46.1612 18.52 45.1612 18.54 44.1612 18.54C39.7712 18.54 35.5312 18.12 31.5612 17.3C28.1412 16.59 24.5512 15.63 21.4412 13.44L21.3912 13.4H21.2512H21.1712H20.9712L20.9012 13.61H20.9112ZM44.3012 1.94C40.6212 1.94 36.9712 2.25 33.4512 2.85C30.5712 3.35 27.2112 4.07 24.2012 5.72C23.2712 6.23 22.3612 6.93 21.5012 7.82C20.6812 8.66 20.6712 9.74 21.4812 10.7C21.8712 11.17 22.4712 11.83 23.1912 12.2C24.5212 12.89 26.1612 13.74 27.8412 14.3C33.7412 16.25 39.8512 16.54 44.5112 16.58H44.7112V16.4C45.1712 16.4 45.6412 16.4 46.1012 16.42C46.6312 16.42 47.1612 16.44 47.7012 16.44C48.3412 16.44 48.9812 16.43 49.6212 16.38C54.5312 16.06 58.2112 15.37 61.5412 14.15C63.3712 13.48 64.9812 12.68 66.3212 11.78C67.4412 11.03 68.0112 10.2 68.0312 9.33C68.0512 8.43 67.4812 7.56 66.3512 6.73C65.4612 6.08 64.4812 5.53 63.4312 5.08C58.5412 2.99 53.4512 2.4 49.1212 2.1C47.5112 1.99 45.8912 1.93 44.3112 1.93L44.3012 1.94Z" fill="#FF6C1A"/>
<path id="Vector_2" d="M44.471 25.23H43.291C43.051 25.23 42.801 25.23 42.561 25.23C41.971 25.2 41.581 24.81 41.591 24.27C41.591 23.73 41.971 23.34 42.501 23.32C43.171 23.3 43.841 23.29 44.511 23.29C45.141 23.29 45.761 23.29 46.391 23.32C46.671 23.32 46.911 23.43 47.081 23.61C47.251 23.79 47.331 24.04 47.321 24.31C47.301 24.86 46.921 25.21 46.301 25.24C46.071 25.24 45.831 25.25 45.601 25.25H44.471V25.23Z" fill="#FF6C1A"/>
<path id="Vector_3" d="M43.2813 38.6399C43.0513 38.6399 42.8113 38.6399 42.5813 38.6299C41.9913 38.5999 41.6013 38.2199 41.5913 37.6699C41.5913 37.1099 41.9813 36.7099 42.5513 36.6899C43.1913 36.6799 43.8313 36.6699 44.4713 36.6699C45.1113 36.6699 45.7413 36.6699 46.3713 36.6899C46.6413 36.6899 46.8913 36.7999 47.0613 36.9899C47.2313 37.1699 47.3213 37.4199 47.3113 37.6799C47.3013 38.2199 46.9013 38.5899 46.3013 38.6399H44.4013H43.2713H43.2813Z" fill="#FF6C1A"/>
<path id="Vector_4" d="M44.4514 52.0201C43.8114 52.0201 43.1614 52.0101 42.5214 51.9901C42.2414 51.9901 42.0114 51.8801 41.8414 51.7001C41.6714 51.5201 41.5814 51.2701 41.6014 50.9901C41.6214 50.4501 42.0214 50.1001 42.6314 50.0701C42.8614 50.0701 43.1014 50.0601 43.3314 50.0601H44.4614H45.6314C45.8714 50.0601 46.1214 50.0601 46.3614 50.0801C46.9314 50.1101 47.3014 50.4601 47.3314 50.9901C47.3414 51.2601 47.2614 51.5101 47.0914 51.7001C46.9214 51.8801 46.6914 51.9901 46.4114 52.0001C45.7614 52.0201 45.1114 52.0301 44.4514 52.0301V52.0201Z" fill="#FF6C1A"/>
<path id="Vector_5" d="M22.801 61.3001C20.161 61.3001 17.681 60.2601 15.831 58.3901C13.981 56.5301 12.971 54.0501 12.991 51.4201C13.021 46.0201 17.431 41.6201 22.821 41.6101C25.461 41.6101 27.941 42.6401 29.801 44.5001C31.661 46.3601 32.681 48.8401 32.681 51.4601C32.681 56.8801 28.261 61.2901 22.841 61.2901H22.811L22.801 61.3001ZM22.791 43.5801C18.471 43.5801 14.951 47.1101 14.951 51.4601C14.951 55.7701 18.461 59.3101 22.781 59.3401C27.171 59.3401 30.701 55.8101 30.701 51.4701C30.701 47.1601 27.191 43.6201 22.871 43.5801H22.791Z" fill="#FF6C1A"/>
<path id="Vector_6" d="M21.6812 55.0399C21.4412 55.0399 21.1912 54.9099 20.9112 54.6599C20.0012 53.7999 19.1012 52.9199 18.2212 52.0299C17.7712 51.5699 17.7312 51.0099 18.1212 50.5999C18.3212 50.3899 18.5512 50.2799 18.8012 50.2799C19.0712 50.2799 19.3412 50.4099 19.5912 50.6599C20.0112 51.0799 20.4012 51.5299 20.8012 51.9799L21.4812 52.7399L25.4812 48.8399L25.7312 48.5899C25.8612 48.4599 25.9812 48.3299 26.1212 48.2099C26.3412 48.0199 26.5912 47.9099 26.8412 47.9099C27.0912 47.9099 27.3112 48.0099 27.5012 48.1999C27.8812 48.5899 27.8812 49.1599 27.4812 49.5799C26.7612 50.3299 26.0312 51.0699 25.3012 51.7999L23.9812 53.1299C23.4912 53.6299 23.0112 54.1199 22.5112 54.6099C22.2112 54.8999 21.9412 55.0399 21.6812 55.0399Z" fill="#FF6C1A"/>
</g>
</g>
</svg>
