<svg width="75" height="75" viewBox="0 0 75 75" fill="none" xmlns="http://www.w3.org/2000/svg">
<g id="Frame 14679">
<g id="Group">
<path id="Vector" d="M74.98 53.5151C74.98 53.5151 74.94 53.5451 74.93 53.5651C73.7801 57.3247 71.9403 58.6845 67.9807 58.6845C61.6813 58.6845 55.392 58.6845 49.0926 58.6845H48.2027V71.1033C48.4727 71.1033 48.7326 71.1033 48.9926 71.1033C50.5824 71.1033 52.1623 71.1033 53.7521 71.1033C54.4621 71.1033 54.922 71.5433 54.912 72.1432C54.902 72.7131 54.4521 73.1231 53.7921 73.1531C53.6021 73.1631 53.4022 73.1531 53.2022 73.1531C43.0232 73.1531 32.8442 73.1531 22.6752 73.1531C22.5553 73.1531 22.4353 73.1531 22.3053 73.1531C21.4654 73.1431 20.9854 72.7531 20.9754 72.1132C20.9754 71.4733 21.4554 71.0933 22.3053 71.0933C23.7651 71.0933 25.225 71.0933 26.7548 71.0933V58.6745C26.4849 58.6745 26.2049 58.6745 25.9149 58.6745C19.4256 58.6745 12.9362 58.6745 6.43686 58.6745C3.32717 58.6745 0.977406 56.9847 0.23748 54.205C0.0774956 53.595 0.00749925 52.9551 0.00749925 52.3252C-0.00249975 37.6766 -0.00249975 23.0281 0.00749925 8.37957C0.00749925 4.66994 2.60724 2.0502 6.31687 2.04021C11.9763 2.02021 17.6357 2.04021 23.3052 2.04021C38.0737 2.04021 52.8322 2.0902 67.6007 2.00021C71.2804 1.98021 74.1101 3.39007 75 7.26968V53.4951L74.98 53.5151ZM72.9202 46.9257C72.9202 46.5857 72.9202 46.3458 72.9202 46.1058C72.9202 33.587 72.9202 21.0683 72.9202 8.53956C72.9202 5.79983 71.3004 4.13 68.5606 4.13C47.8427 4.13 27.1148 4.13 6.39687 4.13C3.66714 4.13 2.0473 5.79983 2.0473 8.53956C2.0473 21.0583 2.0473 33.577 2.0473 46.1058C2.0473 46.3658 2.0473 46.6257 2.0473 46.9257H72.9202ZM72.9102 49.1155H2.0673C2.0673 50.4254 2.0273 51.6752 2.0773 52.9151C2.1173 53.895 2.53725 54.7549 3.24718 55.4549C4.15709 56.3548 5.26698 56.6247 6.51685 56.6247C27.0648 56.6147 47.6127 56.6247 68.1607 56.6247C68.4307 56.6247 68.7006 56.6247 68.9706 56.6247C71.0704 56.5648 72.7602 55.0249 72.9002 52.9251C72.9802 51.6852 72.9102 50.4354 72.9102 49.1255V49.1155ZM28.9146 58.7245V71.0633H46.0429V58.7245H28.9146Z" fill="#FF6C1A"/>
<path id="Vector_2" d="M52.4323 30.4072C53.0222 30.4972 53.6121 30.5172 54.1721 30.6772C55.9619 31.1771 57.1518 32.737 57.2918 34.6768C57.3918 36.1466 58.1717 37.0465 59.4616 37.1965C59.9615 37.2565 60.2815 37.1965 60.5014 36.6066C61.1614 34.8368 63.0012 33.7369 64.781 33.9069C66.7308 34.1068 68.2907 35.4267 68.6806 37.2365C69.1706 39.4663 67.9207 41.6661 65.7909 42.346C63.6111 43.0459 61.3314 41.9561 60.4514 39.7963C60.3915 39.6363 60.3315 39.4863 60.2515 39.3063C59.8615 39.2863 59.4715 39.2863 59.0916 39.2263C56.8918 38.9064 55.402 37.2565 55.232 34.9967C55.092 33.1269 53.4422 31.997 51.6323 32.567C51.4424 32.627 51.2924 32.887 51.1824 33.0869C48.5826 37.6165 44.723 40.4162 39.5435 41.0361C32.8742 41.8361 27.7047 39.2263 24.0451 33.5969C23.8051 33.2269 23.5451 32.637 23.2252 32.587C22.3553 32.457 21.3554 32.337 20.6554 33.0569C20.2555 33.4669 19.7955 34.0668 19.7955 34.5868C19.7955 37.2365 17.7457 39.4263 14.886 39.2663C14.836 39.2663 14.796 39.2863 14.716 39.3163C14.646 39.4963 14.566 39.6963 14.4861 39.8963C13.6761 41.8061 11.6563 42.876 9.64654 42.466C7.65674 42.066 6.17688 40.2462 6.17688 38.2164C6.17688 36.1966 7.64673 34.3868 9.58654 33.9968C11.6663 33.5769 13.7061 34.6068 14.4661 36.5666C14.696 37.1565 15.016 37.2665 15.5459 37.1965C16.6558 37.0465 17.4558 36.2766 17.6357 35.1567C18.1957 31.7471 19.1556 30.8072 22.5352 30.4272C22.3853 29.7873 22.2153 29.1673 22.0953 28.5274C21.9753 27.9075 21.8953 27.2875 21.7953 26.5976C20.1455 26.5976 18.5356 26.5976 16.9258 26.5976C16.1159 26.5976 15.316 26.6176 14.506 26.5976C14.0961 26.5876 13.9161 26.7276 13.7661 27.1075C12.9962 28.9973 11.2064 30.0872 9.31657 29.8673C7.32677 29.6373 5.81692 28.1874 5.49695 26.1876C5.15699 24.0978 6.46685 22.018 8.50665 21.4081C10.6164 20.7782 12.8662 21.8081 13.7061 23.8479C13.9161 24.3578 14.1561 24.5278 14.706 24.5278C17.0458 24.4978 19.3856 24.5178 21.7453 24.5178C22.0053 23.2179 22.2453 21.958 22.4953 20.6882C22.0853 20.6382 21.6753 20.6182 21.2754 20.5482C19.2356 20.1782 17.8157 18.5784 17.6757 16.4986C17.5757 14.9687 16.7758 14.0488 15.486 13.9189C14.976 13.8689 14.676 13.9588 14.4561 14.5288C13.7861 16.2786 12.0363 17.3385 10.2365 17.1985C8.32667 17.0485 6.77682 15.7787 6.31687 13.9788C5.75693 11.7991 6.9768 9.52929 9.08659 8.79936C11.2164 8.06944 13.5561 9.09933 14.4561 11.1691C14.546 11.3691 14.616 11.5791 14.706 11.8191C15.126 11.8491 15.5659 11.8391 15.9959 11.9091C18.0857 12.249 19.5355 13.8589 19.7255 16.0286C19.8955 17.9784 21.3654 19.0583 23.2452 18.5584C23.4552 18.5084 23.6251 18.2184 23.7551 18.0084C26.4648 13.3289 30.4844 10.5092 35.8439 10.0192C42.2933 9.4193 47.3228 12.019 50.8624 17.4885C51.1024 17.8685 51.3624 18.5084 51.6523 18.5284C52.4523 18.5784 53.3122 18.4884 54.0721 18.2284C54.762 17.9984 55.132 17.3085 55.222 16.5586C55.6219 13.2389 56.8318 12.099 60.2615 11.8291C60.7114 10.3992 61.6013 9.32931 63.0612 8.81936C65.261 8.04944 67.6907 9.19932 68.5206 11.3791C69.3506 13.5689 68.2907 16.0086 66.1209 16.9086C63.9611 17.7985 61.4413 16.8386 60.5614 14.6688C60.2415 13.8689 59.7915 13.8689 59.1716 13.9988C58.1917 14.2088 57.5217 14.9487 57.3418 15.9586C56.7518 19.4383 55.8619 20.3082 52.4623 20.7182C52.6622 21.8881 52.8422 23.0579 53.0722 24.2178C53.1022 24.3478 53.3722 24.5278 53.5321 24.5278C55.9019 24.5478 58.2717 24.5578 60.6314 24.5178C60.8314 24.5178 61.1014 24.1778 61.2014 23.9379C61.9413 22.248 63.5312 21.2081 65.371 21.2681C67.1008 21.3181 68.6706 22.458 69.2606 24.1178C70.0505 26.3176 68.9506 28.7574 66.7908 29.6173C64.621 30.4772 62.1413 29.4573 61.2514 27.2875C61.0314 26.7676 60.7914 26.6076 60.2515 26.6176C58.0817 26.6476 55.9019 26.6376 53.7321 26.6176C53.2522 26.6176 53.0622 26.7376 53.0022 27.2475C52.8722 28.3074 52.6322 29.3573 52.4323 30.4372V30.4072ZM51.0524 25.5077C51.0324 17.9684 44.933 11.9291 37.3438 11.939C29.8645 11.949 23.8751 18.0084 23.8751 25.5677C23.8751 33.0669 29.9745 39.1463 37.4938 39.1463C44.993 39.1463 51.0724 33.0269 51.0624 25.5077H51.0524ZM12.0063 25.5177C12.0063 24.2778 11.0064 23.2879 9.77652 23.2879C8.52665 23.2879 7.47675 24.3278 7.49675 25.5677C7.51675 26.7776 8.53665 27.7975 9.74653 27.8075C10.9964 27.8175 12.0163 26.7876 12.0063 25.5277V25.5177ZM65.221 23.2879C64.0011 23.2779 62.9812 24.2678 62.9612 25.4877C62.9312 26.7476 63.9411 27.7875 65.191 27.8075C66.4309 27.8175 67.4708 26.7776 67.4608 25.5277C67.4508 24.2978 66.4509 23.2979 65.231 23.2879H65.221ZM64.4811 40.4662C65.7309 40.4662 66.7108 39.4763 66.7108 38.2264C66.7108 36.9865 65.7209 35.9866 64.4811 35.9766C63.2012 35.9666 62.2113 36.9765 62.2213 38.2564C62.2413 39.5063 63.2112 40.4662 64.471 40.4562L64.4811 40.4662ZM64.501 15.1087C65.7409 15.0887 66.7208 14.0988 66.7108 12.849C66.7008 11.5991 65.7209 10.6292 64.4611 10.6292C63.1712 10.6292 62.2013 11.6291 62.2313 12.919C62.2513 14.1688 63.2412 15.1187 64.501 15.0987V15.1087ZM10.5164 40.4662C11.7763 40.4662 12.7362 39.4963 12.7462 38.2364C12.7462 36.9565 11.7363 35.9566 10.4665 35.9766C9.22658 35.9966 8.24667 37.0065 8.26667 38.2464C8.28667 39.4963 9.26657 40.4662 10.5164 40.4562V40.4662ZM10.5064 15.1087C11.7663 15.1087 12.7362 14.1588 12.7462 12.899C12.7562 11.6091 11.7763 10.6292 10.4865 10.6392C9.23658 10.6492 8.26667 11.6391 8.27667 12.889C8.27667 14.1388 9.25657 15.1087 10.5164 15.1187L10.5064 15.1087Z" fill="#FF6C1A"/>
<path id="Vector_3" d="M35.4343 28.0575C34.8243 28.0875 34.0644 27.9075 33.6644 28.2075C33.2745 28.5075 33.2445 29.2974 33.0745 29.8773C32.8445 30.6073 32.4946 30.7972 31.7546 30.5773C31.0447 30.3673 30.8347 29.9873 31.0647 29.2574C32.0446 26.0577 33.0345 22.868 33.9944 19.6684C34.2144 18.9284 34.7143 18.6785 35.4143 18.6685C36.1342 18.6685 36.6741 18.8784 36.9141 19.6584C37.884 22.878 38.8739 26.0977 39.8538 29.3174C40.0538 29.9773 39.8238 30.3573 39.1339 30.5673C38.424 30.7772 38.044 30.5973 37.844 29.9373C37.844 29.9173 37.834 29.8873 37.824 29.8673C37.4707 28.6741 36.6808 28.0675 35.4543 28.0475L35.4343 28.0575ZM36.8341 26.3677C36.3742 24.7478 35.9342 23.228 35.5043 21.7082C35.4543 21.7082 35.3943 21.7282 35.3443 21.7282C34.9143 23.258 34.4844 24.7778 34.0444 26.3677H36.8341Z" fill="#FF6C1A"/>
<path id="Vector_4" d="M43.1933 24.698C43.1933 26.3378 43.1933 27.9676 43.1933 29.6075C43.1933 30.3774 42.9133 30.6474 42.1334 30.6474C41.3535 30.6474 41.0835 30.3874 41.0835 29.5975C41.0835 26.3278 41.0835 23.0481 41.0835 19.7785C41.0835 19.0385 41.3635 18.7786 42.1034 18.7686C42.8733 18.7586 43.1933 19.0485 43.1933 19.7885C43.1933 21.4283 43.1933 23.0581 43.1933 24.698Z" fill="#FF6C1A"/>
</g>
</g>
</svg>
