<svg width="75" height="75" viewBox="0 0 75 75" fill="none" xmlns="http://www.w3.org/2000/svg">
<g id="Frame 14678">
<g id="Group">
<path id="Vector" d="M47.8898 74.78C47.2998 74.78 46.9098 74.34 46.8798 73.67C46.8698 73.32 46.8698 72.97 46.8798 72.62V72.2C46.8798 70.59 46.8898 68.98 46.9098 67.37C46.9398 63.7 46.9698 59.9 46.8398 56.17C46.6898 51.7 49.4498 48.63 53.8498 48.35C55.2798 48.26 56.7198 48.08 58.1198 47.9C58.9798 47.79 59.8498 47.68 60.7198 47.6C61.3498 47.54 61.5798 47.26 61.5298 46.66C61.4998 46.27 61.5098 45.88 61.5098 45.53V44.93C61.5098 44.93 52.6498 46.19 50.0398 46.56C48.4898 46.78 46.9398 46.99 45.3798 47.19C45.1498 47.22 44.9198 47.23 44.6898 47.23C43.8298 47.23 43.0498 47.02 42.3598 46.61C41.8198 46.29 41.2398 46.14 40.5398 46.14H40.3298C40.0498 46.15 39.7698 46.16 39.4798 46.16H37.9198V73.13C37.9198 73.48 37.9198 73.78 37.8498 74.03C37.7098 74.51 37.3798 74.78 36.9198 74.78C36.8798 74.78 36.8398 74.78 36.7998 74.78C36.2498 74.73 35.9398 74.42 35.8798 73.88C35.8598 73.66 35.8598 73.44 35.8598 73.23V46.17H25.9298C25.8198 46.17 25.7198 46.17 25.6098 46.16C25.0398 46.11 24.6398 45.7 24.6198 45.16C24.6098 44.63 25.0198 44.17 25.5598 44.12C25.7798 44.1 26.0098 44.09 26.2298 44.09H27.0098H39.6298V43.93C39.5898 43.64 39.5598 43.34 39.5198 43.05C39.4398 42.43 39.3698 41.84 39.4098 41.25C39.5798 38.7 41.4998 36.66 44.0598 36.29C47.5698 35.78 51.0898 35.28 54.5998 34.82C55.3698 34.72 55.8398 34.4 56.2398 33.74C58.0098 30.77 59.9198 27.6 61.8998 24.47C63.1498 22.5 64.9798 21.46 67.1998 21.46C67.4698 21.46 67.7398 21.47 68.0198 21.5C70.7698 21.79 72.6398 23.3 73.4498 25.86C73.7998 26.97 73.8498 28.21 73.8998 29.41L73.9198 29.96C74.1498 34.7 74.3598 39.44 74.5698 44.19L74.8698 50.97C74.8798 51.19 74.9198 51.41 74.9498 51.62L74.9898 51.91V54.39L74.9498 54.47C74.9198 54.57 74.8798 54.66 74.8598 54.76C74.1198 57.96 71.8598 59.92 68.4998 60.27C66.6998 60.46 64.8998 60.67 63.0698 60.89L60.4698 61.2C60.4698 61.2 60.4698 62.04 60.4698 62.23L60.3198 73.39C60.3198 73.54 60.3198 73.69 60.2998 73.83C60.2398 74.4 59.8298 74.8 59.2898 74.81C58.7598 74.81 58.3198 74.4 58.2498 73.85C58.2298 73.67 58.2298 73.48 58.2398 73.3L58.4098 60.79C58.4298 59.56 58.6298 59.33 59.8198 59.19L60.2298 59.14C62.8198 58.82 65.4998 58.5 68.1398 58.24C71.3198 57.92 73.0498 55.91 72.8898 52.71C72.6698 48.37 72.4698 44.03 72.2698 39.68L71.7398 27.89C71.6498 25.87 70.3998 24.23 68.5598 23.71C68.1498 23.59 67.7298 23.54 67.3198 23.54C65.7898 23.54 64.4198 24.33 63.5698 25.7C61.5298 28.99 59.5198 32.29 57.5198 35.61C57.1198 36.27 56.5398 36.64 55.7298 36.76L50.9498 37.44C48.7898 37.75 46.6198 38.05 44.4598 38.37C42.4498 38.66 41.2398 40.2 41.4398 42.21C41.6098 43.91 43.0398 45.19 44.7698 45.19C44.9098 45.19 45.0498 45.19 45.1898 45.17C47.3898 44.92 49.6098 44.6 51.7698 44.28C52.6098 44.16 55.4398 43.75 56.0198 43.67C57.0198 43.52 58.0098 43.38 59.0098 43.25C60.4298 43.07 61.4698 42.4 62.1898 41.18C63.0598 39.71 63.9498 38.26 64.8398 36.81L65.5798 35.6C65.8898 35.09 66.2598 34.82 66.6498 34.82C66.8298 34.82 67.0098 34.88 67.1898 34.99C67.9298 35.47 67.6098 36.24 67.3598 36.66C66.9998 37.25 66.6398 37.85 66.2698 38.44C65.5198 39.66 64.7698 40.89 64.0398 42.13C63.7798 42.57 63.6298 43.12 63.6098 43.64C63.5798 44.62 63.5798 45.59 63.5898 46.57C63.5898 47.09 63.5898 47.61 63.5898 48.13C63.5898 49.13 63.2998 49.45 62.3098 49.56L53.1098 50.61C50.6598 50.89 48.9398 52.82 48.9398 55.31C48.9298 59.52 48.9398 63.73 48.9398 67.95V73.3C48.9398 73.45 48.9398 73.61 48.9398 73.76C48.8898 74.41 48.4598 74.86 47.8998 74.86L47.8898 74.78Z" fill="#FF6C1A"/>
<path id="Vector_2" d="M27.1 74.78C26.46 74.78 26.05 74.27 26.05 73.46C26.05 69.52 26.05 55.74 26.05 55.74C26.05 52.55 24.58 50.89 21.42 50.5C19.01 50.2 16.6 49.93 14.19 49.66L12.74 49.5C11.69 49.38 11.4 49.07 11.4 48.05C11.4 47.54 11.4 47.03 11.4 46.52C11.4 45.53 11.41 44.5499 11.38 43.5599C11.36 43.0499 11.2 42.5 10.94 42.0599C10.24 40.8499 9.51 39.66 8.77 38.47C8.37 37.82 7.98 37.18 7.58 36.53C7.17 35.86 7.25 35.28 7.8 34.93C7.98 34.82 8.16 34.76 8.34 34.76C8.71 34.76 9.06 34.99 9.32 35.42C10.08 36.65 10.83 37.89 11.59 39.12L12.7 40.93C13.62 42.44 14.6 43.12 15.86 43.12C16.43 43.12 17.05 42.98 17.77 42.7C21.93 41.07 26.47 39.25 31.67 37.14C32.56 36.78 33.25 36.12 33.61 35.28C33.97 34.45 33.97 33.5099 33.62 32.65C33.09 31.34 31.88 30.52 30.47 30.52C30.01 30.52 29.54 30.61 29.09 30.79C26.57 31.78 24.07 32.78 21.56 33.79L18.86 34.87C18.33 35.08 17.98 35.2 17.71 35.2C17.31 35.2 17.07 34.92 16.56 34.09L14.76 31.15C13.42 28.95 12.08 26.76 10.73 24.57C10.03 23.44 8.86 22.76 7.61 22.76C6.9 22.76 6.21 22.98 5.62 23.4C4.71 24.04 4.23 24.95 4.13 26.21L2.64 46.12C2.47 48.42 2.3 50.73 2.09 53.03C1.87 55.55 3.52 57.71 5.93 58.07C8.01 58.38 10.1 58.65 12.19 58.92C13.33 59.07 14.48 59.2099 15.62 59.3699C16.45 59.4799 16.74 59.81 16.74 60.63C16.74 64.94 16.74 69.26 16.74 73.57C16.74 74.31 16.32 74.81 15.7 74.81C15.07 74.81 14.68 74.33 14.68 73.56C14.68 71.09 14.68 62.09 14.68 62.09C14.68 61.9599 14.67 61.83 14.66 61.68L14.64 61.32C14.64 61.32 9.42 60.64 7.73 60.42C7.49 60.39 7.26 60.36 7.02 60.34C6.42 60.27 5.79 60.2 5.21 60.0499C2.6 59.3899 0.91 57.7 0.18 55.04C0.14 54.91 0.1 54.7799 0.06 54.66L0 54.49V52.48L0.14 51.1C0.24 50.08 0.34 49.06 0.42 48.04C0.68 44.6 0.94 41.16 1.2 37.72C1.49 33.81 1.79 29.89 2.09 25.98C2.29 23.44 3.93 21.43 6.28 20.87C6.74 20.76 7.21 20.7 7.67 20.7C9.65 20.7 11.41 21.71 12.51 23.48C13.71 25.41 14.89 27.35 16.07 29.29L17.69 31.94L18.29 32.89L25.35 30.07C26.31 29.68 27.28 29.3 28.24 28.92C28.98 28.63 29.74 28.49 30.49 28.49C32.76 28.49 34.7 29.79 35.56 31.9C36.74 34.8 35.38 37.91 32.39 39.13C28.57 40.7 24.36 42.37 19.17 44.41C18.35 44.73 17.28 45.11 16.2 45.24C16.09 45.25 15.97 45.26 15.85 45.26C15.42 45.26 14.97 45.18 14.5 45.09C14.22 45.04 13.94 44.99 13.66 44.95L13.49 44.93V45.58C13.48 46.0499 13.47 46.53 13.52 47.01C13.55 47.28 13.98 47.56 14.23 47.59C16.65 47.89 19.07 48.17 21.5 48.44L22.04 48.5C25.58 48.9 28.08 51.62 28.11 55.11C28.15 59.75 28.14 64.48 28.13 69.05V73.57C28.13 74.34 27.73 74.81 27.1 74.81V74.78Z" fill="#FF6C1A"/>
<path id="Vector_3" d="M27.0099 21.37C26.7499 21.37 26.4799 21.31 26.2099 21.18C25.4999 20.84 25.1499 20.24 25.1499 19.34V14.07C25.1499 10.88 25.1499 7.68 25.1499 4.49C25.1499 2.49 26.6199 1.02 28.6299 1.01C29.7199 1.01 30.8099 1 31.9099 1H44.8799C47.1399 1.01 48.5499 2.41 48.5599 4.65C48.5699 7.69 48.5699 10.73 48.5599 13.76C48.5499 16 47.1399 17.4 44.8799 17.41C43.0199 17.41 41.1599 17.41 39.2899 17.41C37.2799 17.41 35.2699 17.41 33.2599 17.39C32.4899 17.39 31.9099 17.61 31.3799 18.11C30.7499 18.69 30.0999 19.25 29.4499 19.81C29.0799 20.13 28.7099 20.45 28.3399 20.77C27.8899 21.16 27.4599 21.35 26.9999 21.35L27.0099 21.37ZM29.0499 3.08C27.6699 3.08 27.2299 3.52 27.2299 4.9V19.01C27.2299 19.01 28.0799 18.27 28.3599 18.03C28.9699 17.51 29.5299 17.03 30.0699 16.52C30.9299 15.7 31.9199 15.33 33.1699 15.33C34.9199 15.35 36.6199 15.35 38.3099 15.35H44.6299C46.0999 15.35 46.4999 14.95 46.4999 13.52C46.4999 10.63 46.4999 7.74 46.4999 4.84C46.4999 3.51 46.0699 3.08 44.7099 3.08H36.5199H29.0499Z" fill="#FF6C1A"/>
<path id="Vector_4" d="M64.7598 17.47C60.2398 17.47 56.5598 13.77 56.5498 9.25001C56.5498 4.72001 60.2298 1.02001 64.7598 1.01001C69.2898 1.01001 72.9798 4.69001 72.9998 9.21001C73.0098 11.41 72.1598 13.48 70.6098 15.04C69.0498 16.6 66.9798 17.47 64.7698 17.47H64.7598ZM64.7698 3.08001C63.1398 3.08001 61.5998 3.72001 60.4398 4.89001C59.2698 6.07001 58.6298 7.63001 58.6398 9.28001C58.6598 12.71 61.3698 15.4 64.7998 15.4C68.2098 15.37 70.9298 12.6 70.9198 9.21001C70.8998 5.83001 68.1498 3.08001 64.7798 3.08001H64.7698Z" fill="#FF6C1A"/>
<path id="Vector_5" d="M10.2402 17.47C5.65018 17.47 2.03018 13.87 2.00018 9.27C1.97018 4.74 5.64018 1.03 10.1802 1C14.7202 1 18.4102 4.67 18.4502 9.18C18.4702 11.36 17.6402 13.43 16.0902 15C14.5402 16.57 12.4902 17.45 10.3002 17.47H10.2402ZM10.2002 3.08C6.83018 3.1 4.09018 5.86 4.08018 9.23C4.08018 12.61 6.80018 15.38 10.1702 15.4C13.5902 15.4 16.3502 12.65 16.3602 9.26C16.3602 7.61 15.7202 6.05 14.5502 4.88C13.3902 3.72 11.8602 3.08 10.2302 3.08H10.1902H10.2002Z" fill="#FF6C1A"/>
<path id="Vector_6" d="M31.8701 8.05998C31.0101 8.05998 30.5701 7.70998 30.5601 7.03998C30.5601 6.73998 30.6401 6.49998 30.8201 6.31998C31.0401 6.09998 31.3901 5.98998 31.8401 5.97998H36.9501H42.0601C42.8901 5.97998 43.3701 6.35998 43.3801 7.00998C43.3801 7.29998 43.3001 7.52998 43.1301 7.70998C42.9101 7.92998 42.5501 8.04998 42.0901 8.04998H39.9201H31.8701V8.05998Z" fill="#FF6C1A"/>
<path id="Vector_7" d="M34.2301 12.4301C33.4001 12.4301 32.5701 12.4301 31.7301 12.4201C31.0101 12.4201 30.5701 12.0301 30.5601 11.3901C30.5601 10.7501 30.9601 10.3701 31.7001 10.3501C32.0301 10.3401 32.3701 10.3401 32.7001 10.3401H34.4101H35.7301C36.0501 10.3401 36.3601 10.3401 36.6801 10.3401C37.4501 10.3601 37.9201 10.7601 37.9101 11.3901C37.9001 12.0001 37.4201 12.4101 36.7201 12.4201C35.8901 12.4201 35.0601 12.4301 34.2201 12.4301H34.2301Z" fill="#FF6C1A"/>
</g>
</g>
</svg>
