<svg id="Group_3536" data-name="Group 3536" xmlns="http://www.w3.org/2000/svg" xmlns:xlink="http://www.w3.org/1999/xlink" width="101.13" height="112.368" viewBox="0 0 101.13 112.368">
  <defs>
    <clipPath id="clip-path">
      <rect id="Rectangle_649" data-name="Rectangle 649" width="101.13" height="112.368" fill="#ff6c1a"/>
    </clipPath>
  </defs>
  <g id="Group_3536-2" data-name="Group 3536" clip-path="url(#clip-path)">
    <path id="Path_6445" data-name="Path 6445" d="M1.873,105.459l11.261,6.435a3.78,3.78,0,0,0,1.849.474,3.871,3.871,0,0,0,1.873-.483l11.237-6.431a3.773,3.773,0,0,0,1.873-3.251V88.823a3.777,3.777,0,0,0-1.873-3.257L16.855,79.149V73.04a1.873,1.873,0,0,1,1.873-1.873H48.692v7.982L37.455,85.572a3.774,3.774,0,0,0-1.873,3.251V102.2a3.778,3.778,0,0,0,1.873,3.257l11.261,6.435a3.778,3.778,0,0,0,1.848.474,3.871,3.871,0,0,0,1.873-.483l11.237-6.431a3.774,3.774,0,0,0,1.873-3.251V88.823a3.778,3.778,0,0,0-1.873-3.257L52.438,79.149V71.167H82.4a1.873,1.873,0,0,1,1.873,1.873v6.109L73.038,85.572a3.773,3.773,0,0,0-1.873,3.251V102.2a3.777,3.777,0,0,0,1.873,3.257L84.3,111.894a3.779,3.779,0,0,0,1.848.474,3.872,3.872,0,0,0,1.873-.483l11.237-6.431a3.774,3.774,0,0,0,1.873-3.251V88.823a3.777,3.777,0,0,0-1.873-3.257L88.02,79.149V73.04A5.618,5.618,0,0,0,82.4,67.421H52.438V61.314l11.237-6.427a3.776,3.776,0,0,0,1.873-3.247V50.566H76.784a16.855,16.855,0,0,0,1.732-33.622,11.257,11.257,0,0,0-11.1-9.452,11.121,11.121,0,0,0-4.813,1.09A22.458,22.458,0,0,0,23.19,16.9a16.855,16.855,0,0,0,1.155,33.671H35.583v1.073A3.785,3.785,0,0,0,37.455,54.9l11.237,6.418v6.107H18.728a5.618,5.618,0,0,0-5.618,5.618v6.109L1.873,85.572A3.774,3.774,0,0,0,0,88.823V102.2a3.778,3.778,0,0,0,1.873,3.257M50.565,93.078l-9.353-5.336L50.565,82.4l9.345,5.343Zm-11.237-2.1,9.364,5.347v11.237l-9.364-5.36ZM52.438,107.56V96.324L61.8,90.979v11.237Zm33.71-14.482-9.353-5.336L86.147,82.4l9.345,5.343Zm-11.237-2.1,9.364,5.347v11.237l-9.364-5.36ZM88.02,107.56V96.324l9.364-5.345v11.237ZM50.565,42.513,41.2,37.178l9.364-5.339,9.364,5.335ZM52.438,57V45.759L61.8,40.414V51.651ZM24.346,46.821a13.109,13.109,0,0,1,.06-26.219,1.721,1.721,0,0,1,.238.013.6.6,0,0,0,.062-.013A13.133,13.133,0,0,1,30.7,22.231a1.845,1.845,0,0,0,.907.236,1.873,1.873,0,0,0,.91-3.509,16.8,16.8,0,0,0-5.476-1.873A18.673,18.673,0,0,1,59.52,10.766a11.237,11.237,0,0,0-2.4,3.468,1.873,1.873,0,0,0,.966,2.465,1.82,1.82,0,0,0,.749.157,1.873,1.873,0,0,0,1.717-1.124,7.529,7.529,0,0,1,2.56-3.133.05.05,0,0,0,.036-.015A7.457,7.457,0,0,1,74.684,17a16.885,16.885,0,0,0-8.442,3.558,1.873,1.873,0,1,0,2.345,2.922,12.964,12.964,0,0,1,8.2-2.88,13.109,13.109,0,0,1,0,26.219H65.547V38.258A3.785,3.785,0,0,0,63.674,35L52.409,28.563a3.861,3.861,0,0,0-3.717.017L37.455,35.011a3.776,3.776,0,0,0-1.873,3.247v8.562Zm14.982-6.412,9.364,5.347V56.992l-9.364-5.36ZM14.982,93.078,5.63,87.739,14.982,82.4l9.345,5.343ZM3.746,90.971l9.364,5.347v11.237L3.746,102.2Zm13.109,16.585V96.32l9.364-5.345v11.237Z" transform="translate(0 0)" fill="#ff6c1a"/>
  </g>
</svg>
