<svg id="Group_3539" data-name="Group 3539" xmlns="http://www.w3.org/2000/svg" xmlns:xlink="http://www.w3.org/1999/xlink" width="112.039" height="112.039" viewBox="0 0 112.039 112.039">
  <defs>
    <clipPath id="clip-path">
      <rect id="Rectangle_651" data-name="Rectangle 651" width="112.039" height="112.038" fill="#ff6c1a"/>
    </clipPath>
  </defs>
  <g id="Group_3539-2" data-name="Group 3539" clip-path="url(#clip-path)">
    <path id="Path_6447" data-name="Path 6447" d="M196.017,93.358a16.805,16.805,0,1,0-16.805-16.805,16.805,16.805,0,0,0,16.805,16.805m0-29.876a13.071,13.071,0,1,1-13.071,13.071,13.071,13.071,0,0,1,13.071-13.071" transform="translate(-139.997 -46.673)" fill="#ff6c1a"/>
    <path id="Path_6448" data-name="Path 6448" d="M222.681,112.553a9.336,9.336,0,1,0-9.336-9.336,9.336,9.336,0,0,0,9.336,9.336m0-14.938a5.6,5.6,0,1,1-5.6,5.6,5.6,5.6,0,0,1,5.6-5.6" transform="translate(-166.661 -73.337)" fill="#ff6c1a"/>
    <path id="Path_6449" data-name="Path 6449" d="M112.038,70.959a3.722,3.722,0,0,0-2.528-3.514L90.618,60.689l18.893-6.758a3.7,3.7,0,0,0,0-7.025L80.2,36.413c.05-.187.114-.374.159-.56L83.8,34.8A2.812,2.812,0,0,0,85.8,32.356c.075-.816.11-1.643.11-2.476s-.035-1.66-.11-2.476a2.816,2.816,0,0,0-2-2.444L80.343,23.9a24.686,24.686,0,0,0-2.9-7l1.694-3.174a2.814,2.814,0,0,0-.314-3.144q-.788-.943-1.681-1.826T75.311,7.082a2.818,2.818,0,0,0-3.139-.314l-3.189,1.7A24.758,24.758,0,0,0,62,5.555L60.942,2.106A2.829,2.829,0,0,0,58.5.112a27.6,27.6,0,0,0-4.952,0,2.821,2.821,0,0,0-2.444,2L50.045,5.555A24.752,24.752,0,0,0,43.05,8.46L39.865,6.767a2.824,2.824,0,0,0-3.146.316q-.941.784-1.824,1.681c-.588.6-1.15,1.2-1.681,1.824A2.814,2.814,0,0,0,32.9,13.73l1.7,3.187A24.773,24.773,0,0,0,31.7,23.9l-3.449,1.055A2.812,2.812,0,0,0,26.254,27.4c-.075.816-.11,1.643-.11,2.476s.035,1.66.11,2.472a2.818,2.818,0,0,0,2,2.448L31.7,35.851c.045.187.108.374.159.56L2.529,46.907a3.7,3.7,0,0,0,0,7.025l18.893,6.758L2.529,67.445a3.706,3.706,0,0,0,0,7.028L18.809,80.3,2.529,86.12a3.707,3.707,0,0,0,0,7.028L54.678,111.8a3.931,3.931,0,0,0,2.679,0l52.152-18.656a3.707,3.707,0,0,0,0-7.028L93.233,80.3l16.279-5.822a3.722,3.722,0,0,0,2.526-3.514M29.925,31.405c-.032-.5-.047-1.014-.047-1.525s.015-1.019.047-1.526l3.9-1.193a1.867,1.867,0,0,0,1.288-1.423,21.1,21.1,0,0,1,3.2-7.7,1.867,1.867,0,0,0,.1-1.918l-1.921-3.6c.336-.374.684-.747,1.048-1.111s.732-.713,1.12-1.047l3.613,1.921a1.867,1.867,0,0,0,1.918-.1,21.135,21.135,0,0,1,7.69-3.212A1.867,1.867,0,0,0,53.3,7.682l1.195-3.9a24.476,24.476,0,0,1,3.051,0l1.195,3.9a1.867,1.867,0,0,0,1.423,1.285,21.087,21.087,0,0,1,7.7,3.2,1.867,1.867,0,0,0,1.918.1l3.606-1.914c.374.334.747.685,1.111,1.047s.711.732,1.047,1.111L73.63,16.118a1.868,1.868,0,0,0,.1,1.919,21.064,21.064,0,0,1,3.206,7.7,1.867,1.867,0,0,0,1.288,1.423l3.9,1.193c.032.5.047,1.014.047,1.526s-.015,1.019-.047,1.525l-3.9,1.193a1.868,1.868,0,0,0-1.288,1.423,21.1,21.1,0,0,1-3.2,7.7,1.867,1.867,0,0,0-.1,1.918l1.912,3.6c-.336.373-.684.747-1.048,1.12s-.732.713-1.111,1.047L69.78,47.492a1.867,1.867,0,0,0-1.918.1,21.08,21.08,0,0,1-7.7,3.2,1.867,1.867,0,0,0-1.423,1.285l-1.195,3.9a24.476,24.476,0,0,1-3.051,0l-1.195-3.9a1.867,1.867,0,0,0-1.423-1.285,21.074,21.074,0,0,1-7.7-3.2,1.867,1.867,0,0,0-1.918-.1l-3.6,1.912c-.374-.332-.747-.683-1.12-1.046s-.711-.732-1.047-1.12l1.921-3.611a1.868,1.868,0,0,0-.1-1.92,21.06,21.06,0,0,1-3.2-7.7,1.867,1.867,0,0,0-1.288-1.423ZM3.787,50.419,33.1,39.935A25.044,25.044,0,0,0,34.6,42.85l-1.694,3.174a2.814,2.814,0,0,0,.314,3.144q.788.943,1.681,1.826t1.828,1.681a2.824,2.824,0,0,0,3.139.314l3.187-1.7A24.789,24.789,0,0,0,50.045,54.2L51.1,57.653a2.822,2.822,0,0,0,2.444,1.992c.816.075,1.643.11,2.476.11s1.66-.035,2.476-.11a2.82,2.82,0,0,0,2.444-2L61.992,54.2A24.75,24.75,0,0,0,68.986,51.3l3.186,1.693a2.82,2.82,0,0,0,3.146-.316q.941-.784,1.824-1.681c.588-.6,1.15-1.2,1.681-1.824a2.814,2.814,0,0,0,.318-3.142l-1.7-3.188a25.015,25.015,0,0,0,1.5-2.915l29.3,10.492L55.94,69.07ZM108.253,89.632,55.94,108.288,3.787,89.632l20.564-7.357L54.679,93.122a3.931,3.931,0,0,0,2.679,0l30.33-10.843ZM55.94,89.609,3.787,70.959l23.178-8.287,27.714,9.913a3.934,3.934,0,0,0,2.679,0l27.716-9.913,23.178,8.287Z" transform="translate(0 0)" fill="#ff6c1a"/>
  </g>
</svg>
