<svg xmlns="http://www.w3.org/2000/svg" width="112.877" height="119.171" viewBox="0 0 112.877 119.171">
  <g id="Group_1373" data-name="Group 1373" transform="translate(-1191.148 -278.999)">
    <g id="Group_1366" data-name="Group 1366">
      <g id="Group_1353" data-name="Group 1353">
        <path id="Path_4297" data-name="Path 4297" d="M1217.974,285.667" fill="#fff" stroke="#ff6c1a" stroke-width="0.5"/>
        <path id="Path_4298" data-name="Path 4298" d="M1217.975,286.993a1.182,1.182,0,0,1-.5-.108,1.254,1.254,0,0,1-.433-.277,1.313,1.313,0,0,1-.384-.936,1.344,1.344,0,0,1,.384-.936,1.372,1.372,0,0,1,1.874,0,1.353,1.353,0,0,1,.383.936,1.309,1.309,0,0,1-1.3,1.32h-.024Z" fill="#ff6c1a" stroke="#ff6c1a" stroke-width="0.5"/>
      </g>
      <g id="Group_1354" data-name="Group 1354">
        <path id="Path_4299" data-name="Path 4299" d="M1208.233,328.549a4.134,4.134,0,1,1-4.134-4.189A4.135,4.135,0,0,1,1208.233,328.549Z" fill="none" stroke="#ff6c1a" stroke-width="0.5"/>
        <path id="Path_4300" data-name="Path 4300" d="M1204.1,334.058a5.509,5.509,0,1,1,5.454-5.564v.055A5.488,5.488,0,0,1,1204.1,334.058Zm0-8.377a2.869,2.869,0,1,0,2.814,2.924v-.056A2.845,2.845,0,0,0,1204.1,325.681Z" fill="#ff6c1a" stroke="#ff6c1a" stroke-width="0.5"/>
      </g>
      <g id="Group_1355" data-name="Group 1355">
        <path id="Path_4301" data-name="Path 4301" d="M1293.648,328.549a4.134,4.134,0,1,1-4.133-4.189,4.134,4.134,0,0,1,4.133,4.189Z" fill="none" stroke="#ff6c1a" stroke-width="0.5"/>
        <path id="Path_4302" data-name="Path 4302" d="M1289.513,334.058a5.509,5.509,0,1,1,5.455-5.563v.054A5.488,5.488,0,0,1,1289.513,334.058Zm0-8.377a2.869,2.869,0,1,0,2.814,2.924v-.056A2.846,2.846,0,0,0,1289.513,325.681Z" fill="#ff6c1a" stroke="#ff6c1a" stroke-width="0.5"/>
      </g>
      <g id="Group_1356" data-name="Group 1356">
        <path id="Path_4303" data-name="Path 4303" d="M1285.379,328.549" fill="#fff" stroke="#ff6c1a" stroke-width="0.5"/>
        <path id="Path_4304" data-name="Path 4304" d="M1285.379,329.869h-77.146a1.32,1.32,0,1,1,0-2.64h77.146a1.32,1.32,0,0,1,0,2.64Z" fill="#ff6c1a" stroke="#ff6c1a" stroke-width="0.5"/>
      </g>
      <g id="Group_1357" data-name="Group 1357">
        <path id="Path_4305" data-name="Path 4305" d="M1292.727,355.484a4.864,4.864,0,1,0,4.864-4.928A4.864,4.864,0,0,0,1292.727,355.484Z" fill="none" stroke="#ff6c1a" stroke-width="0.5"/>
        <path id="Path_4306" data-name="Path 4306" d="M1297.591,361.732a6.249,6.249,0,1,1,6.183-6.315v.067A6.223,6.223,0,0,1,1297.591,361.732Zm0-9.856a3.609,3.609,0,1,0,3.543,3.674v-.066a3.58,3.58,0,0,0-3.543-3.613Z" fill="#ff6c1a" stroke="#ff6c1a" stroke-width="0.5"/>
      </g>
      <g id="Group_1358" data-name="Group 1358">
        <path id="Path_4307" data-name="Path 4307" d="M1202.579,355.486" fill="#fff" stroke="#ff6c1a" stroke-width="0.5"/>
        <path id="Path_4308" data-name="Path 4308" d="M1292.728,356.8h-90.149a1.32,1.32,0,0,1,0-2.64h90.149a1.32,1.32,0,0,1,0,2.64Z" fill="#ff6c1a" stroke="#ff6c1a" stroke-width="0.5"/>
      </g>
      <g id="Group_1359" data-name="Group 1359">
        <path id="Path_4309" data-name="Path 4309" d="M1202.579,355.484a4.863,4.863,0,1,1-4.863-4.928A4.863,4.863,0,0,1,1202.579,355.484Z" fill="none" stroke="#ff6c1a" stroke-width="0.5"/>
        <path id="Path_4310" data-name="Path 4310" d="M1197.713,361.732a6.249,6.249,0,1,1,6.183-6.315v.067A6.223,6.223,0,0,1,1197.713,361.732Zm0-9.856a3.609,3.609,0,1,0,3.542,3.674v-.066a3.58,3.58,0,0,0-3.543-3.613Z" fill="#ff6c1a" stroke="#ff6c1a" stroke-width="0.5"/>
      </g>
      <g id="Group_1360" data-name="Group 1360">
        <path id="Path_4311" data-name="Path 4311" d="M1207.442,397.92a6.39,6.39,0,0,1-6.35-6.417,1.32,1.32,0,0,1,2.64,0,3.712,3.712,0,1,0,3.71-3.777,1.32,1.32,0,1,1,0-2.64,6.417,6.417,0,0,1,0,12.834Z" fill="#ff6c1a" stroke="#ff6c1a" stroke-width="0.5"/>
      </g>
      <g id="Group_1361" data-name="Group 1361">
        <path id="Path_4312" data-name="Path 4312" d="M1282.39,391.5a5.031,5.031,0,1,1,5.031,5.1,5.03,5.03,0,0,1-5.031-5.1Z" fill="none" stroke="#ff6c1a" stroke-width="0.5"/>
        <path id="Path_4313" data-name="Path 4313" d="M1287.422,397.92a6.417,6.417,0,1,1,6.351-6.483v.066A6.391,6.391,0,0,1,1287.422,397.92Zm0-10.194a3.778,3.778,0,1,0,3.709,3.846V391.5A3.749,3.749,0,0,0,1287.422,387.726Z" fill="#ff6c1a" stroke="#ff6c1a" stroke-width="0.5"/>
      </g>
      <g id="Group_1362" data-name="Group 1362">
        <path id="Path_4314" data-name="Path 4314" d="M1212.475,392.532a1.32,1.32,0,0,1,0-2.64l21.029-.031V287.3l-7.224-.028a1.32,1.32,0,1,1,0-2.64h0l8.541.033a1.32,1.32,0,0,1,1.315,1.32V391.179a1.32,1.32,0,0,1-1.318,1.32l-22.346.032Z" fill="#ff6c1a" stroke="#ff6c1a" stroke-width="0.5"/>
      </g>
      <g id="Group_1363" data-name="Group 1363">
        <ellipse id="Ellipse_1093" data-name="Ellipse 1093" cx="5.031" cy="5.098" rx="5.031" ry="5.098" transform="translate(1216.22 280.568)" fill="none" stroke="#ff6c1a" stroke-width="0.5"/>
        <path id="Path_4315" data-name="Path 4315" d="M1221.252,292.083a6.417,6.417,0,1,1,6.35-6.483v.066A6.39,6.39,0,0,1,1221.252,292.083Zm0-10.194a3.778,3.778,0,1,0,3.709,3.846v-.069A3.749,3.749,0,0,0,1221.252,281.889Z" fill="#ff6c1a" stroke="#ff6c1a" stroke-width="0.5"/>
      </g>
      <g id="Group_1364" data-name="Group 1364">
        <path id="Path_4316" data-name="Path 4316" d="M1282.39,392.532h0l-23.756-.032a1.32,1.32,0,0,1-1.318-1.32V285.99a1.319,1.319,0,0,1,1.315-1.32l9.951-.033h0a1.32,1.32,0,0,1,0,2.64h0l-8.636.029V389.86l22.439.031a1.32,1.32,0,0,1,0,2.64Z" fill="#ff6c1a" stroke="#ff6c1a" stroke-width="0.5"/>
      </g>
      <g id="Group_1365" data-name="Group 1365">
        <path id="Path_4317" data-name="Path 4317" d="M1273.611,292.083a6.417,6.417,0,0,1,0-12.834,1.32,1.32,0,1,1,0,2.64,3.778,3.778,0,1,0,3.71,3.845v-.068a1.32,1.32,0,0,1,2.64-.024v.024A6.391,6.391,0,0,1,1273.611,292.083Z" fill="#ff6c1a" stroke="#ff6c1a" stroke-width="0.5"/>
      </g>
    </g>
    <g id="Group_1372" data-name="Group 1372">
      <g id="Group_1367" data-name="Group 1367">
        <path id="Path_4318" data-name="Path 4318" d="M1278.862,320.816v60.311h-60.554V297.684h40.336Z" fill="#fff" stroke="#ff6c1a" stroke-width="0.5"/>
        <path id="Path_4319" data-name="Path 4319" d="M1278.862,382.446h-60.554a1.32,1.32,0,0,1-1.32-1.32h0V297.684a1.32,1.32,0,0,1,1.32-1.32h40.337a1.321,1.321,0,0,1,.994.452l20.217,23.131a1.31,1.31,0,0,1,.326.869v60.31a1.32,1.32,0,0,1-1.318,1.32Zm-59.234-2.64h57.914V321.311L1258.042,299h-38.416Z" fill="#ff6c1a" stroke="#ff6c1a" stroke-width="0.5"/>
      </g>
      <g id="Group_1368" data-name="Group 1368">
        <path id="Path_4320" data-name="Path 4320" d="M1258.645,297.684V320.7h20.217Z" fill="none" stroke="#ff6c1a" stroke-width="0.5"/>
        <path id="Path_4321" data-name="Path 4321" d="M1278.862,322.017h-20.217a1.318,1.318,0,0,1-1.32-1.318V297.683a1.32,1.32,0,0,1,2.312-.871l20.217,23.014a1.32,1.32,0,0,1-.992,2.191Zm-18.9-2.64h15.98l-15.98-18.189Z" fill="#ff6c1a" stroke="#ff6c1a" stroke-width="0.5"/>
      </g>
      <g id="Group_1369" data-name="Group 1369">
        <path id="Path_4322" data-name="Path 4322" d="M1232.869,337.7" fill="#fff" stroke="#ff6c1a" stroke-width="0.5"/>
        <path id="Path_4323" data-name="Path 4323" d="M1265.9,339.024H1232.87a1.32,1.32,0,0,1,0-2.64H1265.9a1.32,1.32,0,0,1,0,2.64Z" fill="#ff6c1a" stroke="#ff6c1a" stroke-width="0.5"/>
      </g>
      <g id="Group_1370" data-name="Group 1370">
        <path id="Path_4324" data-name="Path 4324" d="M1232.869,348.817" fill="#fff" stroke="#ff6c1a" stroke-width="0.5"/>
        <path id="Path_4325" data-name="Path 4325" d="M1265.9,350.136H1232.87a1.32,1.32,0,0,1,0-2.64H1265.9a1.32,1.32,0,0,1,0,2.64Z" fill="#ff6c1a" stroke="#ff6c1a" stroke-width="0.5"/>
      </g>
      <g id="Group_1371" data-name="Group 1371">
        <path id="Path_4326" data-name="Path 4326" d="M1232.869,359.929" fill="#fff" stroke="#ff6c1a" stroke-width="0.5"/>
        <path id="Path_4327" data-name="Path 4327" d="M1265.9,361.25H1232.87a1.32,1.32,0,0,1,0-2.64H1265.9a1.32,1.32,0,0,1,0,2.64Z" fill="#ff6c1a" stroke="#ff6c1a" stroke-width="0.5"/>
      </g>
    </g>
  </g>
</svg>
