<svg id="Group_3532" data-name="Group 3532" xmlns="http://www.w3.org/2000/svg" xmlns:xlink="http://www.w3.org/1999/xlink" width="123.367" height="123.307" viewBox="0 0 123.367 123.307">
  <defs>
    <clipPath id="clip-path">
      <rect id="Rectangle_647" data-name="Rectangle 647" width="123.367" height="123.307" fill="#ff6c1a"/>
    </clipPath>
  </defs>
  <g id="Group_3531" data-name="Group 3531" clip-path="url(#clip-path)">
    <path id="Path_6430" data-name="Path 6430" d="M194.026,198.815h20.551a6.165,6.165,0,0,0,6.165-6.165v-18.5a6.165,6.165,0,0,0-6.165-6.165v-4.11a10.276,10.276,0,0,0-20.551,0v4.11a6.165,6.165,0,0,0-6.165,6.165v18.5a6.165,6.165,0,0,0,6.165,6.165m4.11-34.937a6.165,6.165,0,1,1,12.331,0v4.11H198.137Zm-6.165,10.276a2.055,2.055,0,0,1,2.055-2.055h20.551a2.055,2.055,0,0,1,2.055,2.055v18.5a2.055,2.055,0,0,1-2.055,2.055H194.026a2.055,2.055,0,0,1-2.055-2.055Z" transform="translate(-142.618 -116.611)" fill="#ff6c1a"/>
    <path id="Path_6431" data-name="Path 6431" d="M234.637,259.341v.378a2.055,2.055,0,1,0,4.11,0v-.378a6.165,6.165,0,1,0-4.11,0m2.055-7.842a2.055,2.055,0,1,1-2.055,2.055A2.055,2.055,0,0,1,236.692,251.5Z" transform="translate(-175.008 -187.79)" fill="#ff6c1a"/>
    <path id="Path_6432" data-name="Path 6432" d="M111.061,145.872A34.937,34.937,0,1,0,146,110.935a34.937,34.937,0,0,0-34.937,34.937M146,115.045a30.826,30.826,0,1,1-30.826,30.826A30.826,30.826,0,0,1,146,115.045" transform="translate(-84.314 -84.218)" fill="#ff6c1a"/>
    <path id="Path_6433" data-name="Path 6433" d="M342.578,385.365a8.22,8.22,0,0,0-7.929,6.165H319.972V379.108a42.956,42.956,0,0,0,12.331-8.744,2.055,2.055,0,1,0-2.935-2.877,38.962,38.962,0,0,1-12.2,8.436,2.016,2.016,0,0,0-.727.5c-.023.025-.035.058-.058.086a2.036,2.036,0,0,0-.36.565,1.971,1.971,0,0,0-.08.4,1.913,1.913,0,0,0-.08.358v13.707a4.11,4.11,0,0,0,4.11,4.11h14.677a8.206,8.206,0,1,0,7.929-10.276Zm0,12.331a4.11,4.11,0,1,1,4.11-4.11,4.11,4.11,0,0,1-4.11,4.11" transform="translate(-239.793 -278.5)" fill="#ff6c1a"/>
    <path id="Path_6434" data-name="Path 6434" d="M16.18,298.034h9.93c.016,0,.031-.01.049-.01a1.976,1.976,0,0,0,.6-.121,2.073,2.073,0,0,0,.279-.115c.023-.013.049-.017.072-.031s.058-.058.09-.08a1.925,1.925,0,0,0,.489-.432,1.2,1.2,0,0,0,.068-.1,2.019,2.019,0,0,0,.3-.616.5.5,0,0,1,.018-.092,1.946,1.946,0,0,0,.095-.458,1.778,1.778,0,0,0-.047-.23.162.162,0,0,0-.014-.08,2,2,0,0,0-.232-.686l-.01-.033a38.71,38.71,0,0,1-4.443-11.714,2.055,2.055,0,1,0-4.028.822,42.845,42.845,0,0,0,3.288,9.864h-6.5a8.22,8.22,0,1,0,0,4.11Zm-7.929,2.055a4.11,4.11,0,1,1,4.11-4.11,4.11,4.11,0,0,1-4.11,4.11" transform="translate(0 -213.775)" fill="#ff6c1a"/>
    <path id="Path_6435" data-name="Path 6435" d="M.128,125.321a8.2,8.2,0,0,0,16.149,2.055h9.986a2.107,2.107,0,0,0,.594-.121,1.857,1.857,0,0,0,.263-.107,1.8,1.8,0,0,0,.308-.205,1.93,1.93,0,0,0,.444-.471c.027-.039.062-.068.086-.109a38.979,38.979,0,0,1,10.395-11.728,2.055,2.055,0,0,0-2.466-3.288,43.094,43.094,0,0,0-10.824,11.92H16.277A8.2,8.2,0,0,0,.128,125.321Zm12.331,0a4.11,4.11,0,1,1-1.2-2.906,4.11,4.11,0,0,1,1.2,2.906" transform="translate(-0.097 -84.219)" fill="#ff6c1a"/>
    <path id="Path_6436" data-name="Path 6436" d="M415.22,287.761a8.221,8.221,0,0,0-7.929,6.165h-6.5a42.688,42.688,0,0,0,3.289-9.864,2.057,2.057,0,1,0-4.03-.822,38.7,38.7,0,0,1-4.439,11.714v.027a2,2,0,0,0-.238.7.111.111,0,0,1-.014.066,2.239,2.239,0,0,0-.052.232,2.045,2.045,0,0,0,.094.475.14.14,0,0,0,.017.08,1.97,1.97,0,0,0,.3.617c.021.031.037.062.06.091a2,2,0,0,0,.493.436c.033.023.053.058.088.078a.732.732,0,0,0,.072.031,1.916,1.916,0,0,0,.284.117,2.058,2.058,0,0,0,.594.119c.019,0,.033.01.052.01h9.93a8.206,8.206,0,1,0,7.929-10.273Zm0,12.331a4.11,4.11,0,1,1,4.11-4.11,4.11,4.11,0,0,1-4.11,4.11" transform="translate(-300.104 -213.778)" fill="#ff6c1a"/>
    <path id="Path_6437" data-name="Path 6437" d="M86.167,371.326v-.035a2.082,2.082,0,0,0-.068-.341,2.156,2.156,0,0,0-.084-.411,2.016,2.016,0,0,0-.354-.557c-.027-.031-.039-.068-.066-.1a2.027,2.027,0,0,0-.729-.5A39.371,39.371,0,0,1,70.879,359a2.055,2.055,0,1,0-3.122,2.672,43.48,43.48,0,0,0,14.3,10.929V385H67.38a8.22,8.22,0,1,0,0,4.11H82.057a4.11,4.11,0,0,0,4.11-4.11ZM59.451,391.164a4.11,4.11,0,1,1,4.11-4.11,4.11,4.11,0,0,1-4.11,4.11" transform="translate(-38.869 -271.968)" fill="#ff6c1a"/>
    <path id="Path_6438" data-name="Path 6438" d="M231.393,414.729a39.666,39.666,0,0,1-15.619,0,2.055,2.055,0,1,0-.822,4.026,43.311,43.311,0,0,0,6.576.763v16.543a2.055,2.055,0,0,0,4.11,0V419.517a43.284,43.284,0,0,0,6.576-.763,2.055,2.055,0,0,0-.822-4.026Z" transform="translate(-161.9 -314.81)" fill="#ff6c1a"/>
    <path id="Path_6439" data-name="Path 6439" d="M82.057,6.165H67.38a8.22,8.22,0,1,0,0,4.11H82.057V23.987a2.105,2.105,0,0,0,.049.245,2.044,2.044,0,0,0,.163.617,1.915,1.915,0,0,0,.337.5,1.849,1.849,0,0,0,.224.206,2.183,2.183,0,0,0,.619.353A2.1,2.1,0,0,0,83.9,26a1.82,1.82,0,0,0,.205.043,2.035,2.035,0,0,0,.849-.205,38.979,38.979,0,0,1,7.789-2.446,2.057,2.057,0,0,0-.822-4.03,42.763,42.763,0,0,0-5.754,1.6V10.276A4.11,4.11,0,0,0,82.057,6.165ZM59.451,12.331a4.11,4.11,0,1,1,2.906-1.2,4.11,4.11,0,0,1-2.906,1.2" transform="translate(-38.869 0)" fill="#ff6c1a"/>
    <path id="Path_6440" data-name="Path 6440" d="M334.649,10.276a8.22,8.22,0,1,0,0-4.11H319.972a4.11,4.11,0,0,0-4.11,4.11V23.981a1.889,1.889,0,0,0,.072.358,1.974,1.974,0,0,0,.08.4,2.035,2.035,0,0,0,.36.565c.023.027.035.062.058.086a2.021,2.021,0,0,0,.728.5,38.967,38.967,0,0,1,12.2,8.426,2.055,2.055,0,1,0,2.943-2.865A42.955,42.955,0,0,0,319.972,22.7V10.276Zm7.929-6.165a4.11,4.11,0,1,1-4.11,4.11,4.11,4.11,0,0,1,4.11-4.11" transform="translate(-239.793 0)" fill="#ff6c1a"/>
    <path id="Path_6441" data-name="Path 6441" d="M249.65,0a2.055,2.055,0,0,0-2.055,2.055v18.5a2.055,2.055,0,0,0,2.055,2.055,39.355,39.355,0,0,1,7.809.781,1.994,1.994,0,0,0,.411.041,2.055,2.055,0,0,0,.411-4.067,43.26,43.26,0,0,0-6.576-.762V2.057A2.055,2.055,0,0,0,249.65,0" transform="translate(-187.966 -0.002)" fill="#ff6c1a"/>
    <path id="Path_6442" data-name="Path 6442" d="M407.291,146.809a8.22,8.22,0,1,0,0-4.11h-9.93c-.039,0-.07.021-.107.021a1.9,1.9,0,0,0-.352.072,1.977,1.977,0,0,0-.487.164.065.065,0,0,0-.055.02.507.507,0,0,1-.088.078,1.992,1.992,0,0,0-.493.436c-.023.029-.039.059-.06.09a1.972,1.972,0,0,0-.3.617.142.142,0,0,1-.016.08,2.036,2.036,0,0,0-.095.477,2.194,2.194,0,0,0,.046.234.383.383,0,0,0,.014.066,2,2,0,0,0,.238.7v.027a39.022,39.022,0,0,1,5.231,19.521,2.055,2.055,0,0,0,2.055,2.055h18.5a2.055,2.055,0,1,0,0-4.11H404.877a43.135,43.135,0,0,0-4.11-16.441Zm7.929-6.165a4.11,4.11,0,1,1-4.111,4.11,4.11,4.11,0,0,1,4.111-4.11" transform="translate(-300.104 -103.651)" fill="#ff6c1a"/>
    <path id="Path_6443" data-name="Path 6443" d="M2.183,211.022h18.5a2.055,2.055,0,0,0,2.055-2.055,39.031,39.031,0,0,1,1.95-12.224,2.055,2.055,0,0,0-3.9-1.284A43.048,43.048,0,0,0,18.7,206.912H2.183a2.055,2.055,0,0,0,0,4.11" transform="translate(-0.097 -147.313)" fill="#ff6c1a"/>
  </g>
</svg>
