<svg xmlns="http://www.w3.org/2000/svg" width="128.871" height="123.307" viewBox="0 0 128.871 123.307">
  <g id="Group_1447" data-name="Group 1447" transform="translate(-750.158 -340.576)">
    <path id="Path_4438" data-name="Path 4438" d="M848.021,463.7c.684,0,1.368-.01,2.052,0,2.05.035,2.412-.2,2.885-2.189a1.519,1.519,0,0,0-.414-1.134c-1.289-1.416-2.647-2.769-3.956-4.167a4.882,4.882,0,0,1,.083-7.2q2.36-2.381,4.809-4.672a5.017,5.017,0,0,1,7.24.076c1.364,1.344,2.743,2.684,3.988,4.135.915,1.067,1.629.159,2.431-.017a1.248,1.248,0,0,0,1.111-1.435c-.039-1.823.008-3.65.057-5.473a4.986,4.986,0,0,1,5.3-5.189q3.353.009,6.7.11a4.89,4.89,0,0,1,4.928,4.981c.028,1.961.014,3.926-.093,5.883-.053.969.472,1.263,1.2,1.522.777.275,1.463.918,2.322,0,1.276-1.363,2.669-2.618,4.027-3.9a5.057,5.057,0,0,1,7.245.057q2.424,2.412,4.761,4.912a4.928,4.928,0,0,1-.155,7.118c-1.35,1.359-2.7,2.728-4.136,3.988-.761.666-.524,1.251-.194,1.921.353.714.284,1.737,1.574,1.7,1.953-.056,3.91.073,5.865.065a4.9,4.9,0,0,1,4.855,4.567c.053,2.409.069,4.821.031,7.231a4.95,4.95,0,0,1-5.335,5.134c-1.916-.006-3.835.02-5.746-.094-1.185-.071-1.258.8-1.6,1.5-.333.673-.6,1.249.132,1.935,1.361,1.279,2.623,2.665,3.914,4.018a4.951,4.951,0,0,1-.083,7.312q-2.272,2.275-4.617,4.476a5.077,5.077,0,0,1-7.637-.166c-1.218-1.233-2.477-2.435-3.591-3.758-.712-.847-1.364-.648-2.152-.3-.766.342-1.619.444-1.546,1.7.1,1.771-.024,3.556-.077,5.334-.1,3.272-2.13,5.279-5.371,5.262q-3.352-.018-6.7-.144a4.883,4.883,0,0,1-4.856-4.911c-.037-1.96.007-3.925.112-5.882a1.375,1.375,0,0,0-1.157-1.56c-.822-.266-1.542-.974-2.441.027-1.186,1.32-2.518,2.51-3.808,3.734a5.089,5.089,0,0,1-7.547-.088q-2.324-2.319-4.565-4.722a4.9,4.9,0,0,1,.078-7.112c1.34-1.368,2.686-2.74,4.127-4,1.207-1.053.071-1.886-.083-2.814-.138-.836-.7-.846-1.416-.85a42.924,42.924,0,0,1-6.8-.265c-2.7-.449-4.126-2.768-3.946-5.551.135-2.09.228-4.185.244-6.279a4.785,4.785,0,0,1,4.524-4.88c1.137-.062,2.28-.01,3.421-.01ZM844.7,475.931c2.418,0,4.65-.03,6.88.008a4.842,4.842,0,0,1,4.694,3.34c.2.508.388,1.024.595,1.53,1.217,2.979.866,4.577-1.452,6.876-1.383,1.372-2.724,2.788-4.464,4.574l5.123,4.839a3.963,3.963,0,0,0,.484-.278c1.52-1.446,3.031-2.9,4.556-4.342a4.9,4.9,0,0,1,5.683-1c.463.194.914.415,1.376.611,3.179,1.343,3.973,2.58,3.939,6.074-.019,1.9,0,3.806,0,5.99,2.125,0,4.166-.043,6.2.019.933.028,1.168-.337,1.157-1.195-.022-1.87-.008-3.743.075-5.61a4.963,4.963,0,0,1,3.474-4.761c.512-.191,1.027-.379,1.534-.583,2.831-1.137,4.517-.751,6.652,1.423,1.4,1.423,2.864,2.777,4.423,4.28l5.249-5.736c-1.558-1.354-3.316-2.749-4.913-4.309a4.507,4.507,0,0,1-1.155-4.8c.215-.694.536-1.355.821-2.026,1.353-3.194,2.757-4.087,6.186-4.023,1.939.036,3.88.007,5.953.007v-7.4c-2,0-4,.029-5.985-.006a6.688,6.688,0,0,1-4.947-11.45c1.4-1.59,2.936-3.062,4.5-4.671l-5.243-4.933c-1.48,1.426-3.017,2.914-4.561,4.394a5.06,5.06,0,0,1-6.045,1c-.582-.262-1.171-.509-1.756-.765a5.08,5.08,0,0,1-3.358-5.26c.032-1.779.109-3.557.093-5.336,0-.367-.317-1.044-.5-1.05-2.255-.074-4.513-.048-6.737-.048a2.278,2.278,0,0,0-.1.378c-.051,2.052-.09,4.1-.148,6.157a4.914,4.914,0,0,1-3.473,4.884c-.6.217-1.183.481-1.775.718a5.105,5.105,0,0,1-6.212-1.348c-1.233-1.282-2.44-2.591-3.723-3.821-.261-.25-1.023-.419-1.19-.255-1.55,1.528-3.021,3.137-4.616,4.83,1.421,1.482,2.968,3.077,4.494,4.691a5,5,0,0,1,.972,5.7c-.219.55-.523,1.068-.719,1.626-.9,2.559-2.8,3.569-5.389,3.56-2.17-.008-4.34,0-6.655,0Z" transform="translate(-65.115 -69.615)" fill="#ff6c1a"/>
    <path id="Path_4439" data-name="Path 4439" d="M1063.2,424.423c1.39-1.327,2.6-2.476,3.8-3.632,1.325-1.273,2.674-1.415,3.727-.385s.924,2.513-.425,3.825q-5.394,5.243-10.816,10.458a2.557,2.557,0,0,1-2.7.89,2.616,2.616,0,0,1-1.772-2.371c-.745-4.912-1.5-9.821-2.241-14.734a2.45,2.45,0,0,1,1.842-3.038c1.33-.265,2.352.395,2.73,1.983a48.292,48.292,0,0,0,1.233,5.094c.294-1.957.668-3.906.869-5.872a56.266,56.266,0,0,0-31.742-56.334,103.1,103.1,0,0,0-11.669-4.2c-.874-.291-1.048-.607-.914-1.428.536-3.3.533-3.358,3.245-2.706a54.829,54.829,0,0,1,15.9,6.381c16.494,10.071,26.415,24.642,29.541,43.721a50.718,50.718,0,0,1,.227,15.5C1063.726,419.752,1063.5,421.946,1063.2,424.423Z" transform="translate(-192.407 -8.039)" fill="#ff6c1a"/>
    <path id="Path_4440" data-name="Path 4440" d="M885.76,695.562c1.081.958,2.036,1.8,2.981,2.649a6.808,6.808,0,0,1,.536.643c-11.376,12.3-25.305,19.3-42.006,20.268-16.636.966-31.3-4.285-44.186-14.954.469,1.454.943,2.907,1.405,4.363.587,1.847.09,3.116-1.39,3.575-1.422.441-2.525-.271-3.119-2.055-1.583-4.758-3.14-9.525-4.739-14.278a2.583,2.583,0,0,1,.463-2.917,2.556,2.556,0,0,1,2.792-.482c4.7,1.466,9.422,2.864,14.113,4.358a2.952,2.952,0,0,1,1.793,1.275,3.542,3.542,0,0,1-.157,2.534,2.016,2.016,0,0,1-2.515.857c-1.833-.523-3.655-1.083-5.543-1.646,1.543,2.793,11.37,8.825,18.772,11.513a53.536,53.536,0,0,0,21.717,3.249,54.665,54.665,0,0,0,21.4-5.546A58.3,58.3,0,0,0,885.76,695.562Z" transform="translate(-32.569 -255.352)" fill="#ff6c1a"/>
    <path id="Path_4441" data-name="Path 4441" d="M757.936,421.252l-4.553,1.56c-4.87-15.684-4.4-30.937,2.613-45.752,7-14.792,18.335-25.074,33.446-31.452-1.6-.1-3.2-.2-4.8-.287-1.826-.1-2.86-1-2.829-2.457.032-1.5,1.189-2.37,3.087-2.282q7.441.342,14.881.711c2.693.137,3.658,1.847,2.1,4.017-2.3,3.212-4.789,6.29-7.2,9.424-.694.9-1.373,1.816-2.1,2.688a2.391,2.391,0,0,1-3.5.486,2.362,2.362,0,0,1-.243-3.42c1-1.347,2.048-2.659,2.964-4.118a53.513,53.513,0,0,0-23.433,16.206A56.473,56.473,0,0,0,755.9,392.546C753.963,402.254,754.9,411.734,757.936,421.252Z" transform="translate(0)" fill="#ff6c1a"/>
    <path id="Path_4442" data-name="Path 4442" d="M930.067,542.189a16.158,16.158,0,1,1,16.234-16.12A16.143,16.143,0,0,1,930.067,542.189Zm-.005-27.52a11.393,11.393,0,1,0,11.45,11.313A11.325,11.325,0,0,0,930.062,514.669Z" transform="translate(-118.953 -122.954)" fill="#ff6c1a"/>
  </g>
</svg>
