<svg id="Group_3534" data-name="Group 3534" xmlns="http://www.w3.org/2000/svg" xmlns:xlink="http://www.w3.org/1999/xlink" width="123.284" height="123.307" viewBox="0 0 123.284 123.307">
  <defs>
    <clipPath id="clip-path">
      <rect id="Rectangle_648" data-name="Rectangle 648" width="123.284" height="123.306" fill="#ff6c1a" stroke="#ff6c1a" stroke-width="1.5"/>
    </clipPath>
  </defs>
  <g id="Group_3533" data-name="Group 3533" clip-path="url(#clip-path)">
    <path id="Path_6444" data-name="Path 6444" d="M113.705,0H29.869A9.59,9.59,0,0,0,20.29,9.579V71.244H9.579A9.59,9.59,0,0,0,0,80.823v32.906a9.589,9.589,0,0,0,9.579,9.578H42.467a9.589,9.589,0,0,0,9.579-9.578v-10.7h61.659a9.589,9.589,0,0,0,9.579-9.578V9.579A9.59,9.59,0,0,0,113.705,0ZM48.193,113.729a5.731,5.731,0,0,1-5.725,5.724H9.579a5.731,5.731,0,0,1-5.725-5.724V80.823A5.732,5.732,0,0,1,9.579,75.1H42.467a5.732,5.732,0,0,1,5.725,5.725v32.906Zm71.238-20.28a5.731,5.731,0,0,1-5.725,5.724H52.046V80.823a9.513,9.513,0,0,0-1.59-5.263L105.41,20.606v9.877a1.927,1.927,0,1,0,3.853,0V15.955a1.936,1.936,0,0,0-1.927-1.927H92.807a1.927,1.927,0,0,0,0,3.853h9.878L47.732,72.835a9.513,9.513,0,0,0-5.265-1.591H24.143V9.579a5.732,5.732,0,0,1,5.725-5.725h83.836a5.732,5.732,0,0,1,5.725,5.725v83.87Z" fill="#ff6c1a" stroke="#ff6c1a" stroke-width="1.5"/>
  </g>
</svg>
