<svg xmlns="http://www.w3.org/2000/svg" width="83.028" height="83.001" viewBox="0 0 83.028 83.001">
    <g data-name="Advanced Search-01" transform="translate(-1.798 -1.83)">
        <circle data-name="Ellipse 1135" cx="22.809" cy="22.809" r="22.809" transform="translate(31.306 9.733)" style="fill:none;stroke:#ff6c1a;stroke-linecap:round;stroke-linejoin:round;stroke-miterlimit:10;stroke-width:3px"/>
        <circle data-name="Ellipse 1136" cx="29.211" cy="29.211" r="29.211" transform="translate(24.903 3.33)" style="fill:none;stroke:#ff6c1a;stroke-linecap:round;stroke-linejoin:round;stroke-miterlimit:10;stroke-width:3px"/>
        <path data-name="Line 420" transform="translate(24.782 51.614)" style="fill:none;stroke:#ff6c1a;stroke-linecap:round;stroke-linejoin:round;stroke-miterlimit:10;stroke-width:3px" d="M5.58 0 0 5.43"/>
        <path data-name="Line 421" transform="translate(29.453 56.284)" style="fill:none;stroke:#ff6c1a;stroke-linecap:round;stroke-linejoin:round;stroke-miterlimit:10;stroke-width:3px" d="M5.581 0 0 5.43"/>
        <path data-name="Path 3463" d="M5.211 90.4h0a6.532 6.532 0 0 1 0-9.238L19.574 66.8a3.073 3.073 0 0 1 4.345 0l4.893 4.893a3.073 3.073 0 0 1 0 4.345L14.449 90.4a6.533 6.533 0 0 1-9.238 0z" transform="translate(0 -8.985)" style="fill:none;stroke:#ff6c1a;stroke-linecap:round;stroke-linejoin:round;stroke-miterlimit:10;stroke-width:3px"/>
    </g>
</svg>
