<svg xmlns="http://www.w3.org/2000/svg" width="79.998" height="83.001" viewBox="0 0 79.998 83.001">
    <g data-name="Claim Spot-01">
        <path data-name="Path 3458" d="M55.286 3.876v7.11a3.957 3.957 0 0 0 4.014 4.342l7.436.162v-1.954L55.829 3.17H4.7v80h64.046V46.807" style="fill:none;stroke:#ff6c1a;stroke-linecap:round;stroke-linejoin:round;stroke-miterlimit:10;stroke-width:3px" transform="translate(-3.202 -1.67)"/>
        <path data-name="Rectangle 2795" transform="translate(18.434 16.661)" style="fill:none;stroke:#ff6c1a;stroke-linecap:round;stroke-linejoin:round;stroke-miterlimit:10;stroke-width:3px" d="M0 0h28.404v6.73H0z"/>
        <path data-name="Line 416" transform="translate(16.985 32.654)" style="fill:none;stroke:#ff6c1a;stroke-linecap:round;stroke-linejoin:round;stroke-miterlimit:10;stroke-width:3px" d="M0 0h32.948"/>
        <path data-name="Line 417" transform="translate(16.985 42.098)" style="fill:none;stroke:#ff6c1a;stroke-linecap:round;stroke-linejoin:round;stroke-miterlimit:10;stroke-width:3px" d="M0 0h32.948"/>
        <path data-name="Line 418" transform="translate(16.985 51.541)" style="fill:none;stroke:#ff6c1a;stroke-linecap:round;stroke-linejoin:round;stroke-miterlimit:10;stroke-width:3px" d="M0 0h28.584"/>
        <path data-name="Line 419" transform="translate(16.985 60.986)" style="fill:none;stroke:#ff6c1a;stroke-linecap:round;stroke-linejoin:round;stroke-miterlimit:10;stroke-width:3px" d="M0 0h19.514"/>
        <path data-name="Path 3459" d="m42.9 84.487 2.633 1.819 3.175-1.819 3.365 1.819 4.007-3.826 4.36 3.383" transform="translate(-8.921 -13.542)" style="fill:none;stroke:#ff6c1a;stroke-linecap:round;stroke-linejoin:round;stroke-miterlimit:10;stroke-width:3px"/>
        <path data-name="Rectangle 2796" transform="rotate(16.73 -.764 228.456)" style="fill:none;stroke:#ff6c1a;stroke-linecap:round;stroke-linejoin:round;stroke-miterlimit:10;stroke-width:3px" d="M0 0h9.489v52.617H0z"/>
        <path data-name="Path 3460" d="M62.691 72.649 63.75 84.39l7.625-8.59" transform="translate(-11.883 -12.071)" style="fill:none;stroke:#ff6c1a;stroke-linecap:round;stroke-linejoin:round;stroke-miterlimit:10;stroke-width:3px"/>
        <path data-name="Path 3461" d="m88.1 14.132-6.3-1.892 1.621-5.391a3.286 3.286 0 0 1 4.093-2.2h0a3.286 3.286 0 0 1 2.2 4.093z" transform="translate(-14.744 -1.87)" style="fill:none;stroke:#ff6c1a;stroke-linecap:round;stroke-linejoin:round;stroke-miterlimit:10;stroke-width:3px"/>
        <path data-name="Path 3462" d="m90.258 22.277 4.088 1.592-5.163 17.575" transform="translate(-15.848 -4.53)" style="fill:none;stroke:#ff6c1a;stroke-linecap:round;stroke-linejoin:round;stroke-miterlimit:10;stroke-width:3px"/>
    </g>
</svg>
