<svg xmlns="http://www.w3.org/2000/svg" width="56.147" height="56.999" viewBox="0 0 56.147 56.999">
    <g transform="translate(-5.872 -5.234)">
        <path data-name="Line 271" transform="translate(17.681 9.637)" style="fill:none;stroke:#ff6c1a;stroke-linecap:round;stroke-linejoin:round;stroke-miterlimit:10;stroke-width:2px" d="M0 0h12.411"/>
        <path data-name="Line 272" transform="translate(37.819 9.637)" style="fill:none;stroke:#ff6c1a;stroke-linecap:round;stroke-linejoin:round;stroke-miterlimit:10;stroke-width:2px" d="M0 0h12.411"/>
        <path data-name="Line 273" transform="translate(33.976 17.524)" style="fill:none;stroke:#ff6c1a;stroke-linecap:round;stroke-linejoin:round;stroke-miterlimit:10;stroke-width:2px" d="M0 0v13.599"/>
        <circle data-name="Ellipse 1059" cx="3.443" cy="3.443" r="3.443" transform="translate(30.453 6.234)" style="fill:none;stroke:#ff6c1a;stroke-linecap:round;stroke-linejoin:round;stroke-miterlimit:10;stroke-width:2px"/>
        <circle data-name="Ellipse 1060" cx="3.443" cy="3.443" r="3.443" transform="translate(30.453 31.536)" style="fill:none;stroke:#ff6c1a;stroke-linecap:round;stroke-linejoin:round;stroke-miterlimit:10;stroke-width:2px"/>
        <circle data-name="Ellipse 1061" cx="1.722" cy="1.722" r="1.722" transform="translate(50.87 7.955)" style="fill:none;stroke:#ff6c1a;stroke-linecap:round;stroke-linejoin:round;stroke-miterlimit:10;stroke-width:2px"/>
        <circle data-name="Ellipse 1062" cx="1.722" cy="1.722" r="1.722" transform="translate(13.518 7.955)" style="fill:none;stroke:#ff6c1a;stroke-linecap:round;stroke-linejoin:round;stroke-miterlimit:10;stroke-width:2px"/>
        <path data-name="Rectangle 2470" transform="translate(6.872 31.456)" style="fill:none;stroke:#ff6c1a;stroke-linecap:round;stroke-linejoin:round;stroke-miterlimit:10;stroke-width:2px" d="M0 0h5.304v5.285H0z"/>
        <path data-name="Rectangle 2471" transform="translate(55.715 31.456)" style="fill:none;stroke:#ff6c1a;stroke-linecap:round;stroke-linejoin:round;stroke-miterlimit:10;stroke-width:2px" d="M0 0h5.304v5.285H0z"/>
        <path data-name="Rectangle 2472" transform="translate(31.234 55.948)" style="fill:none;stroke:#ff6c1a;stroke-linecap:round;stroke-linejoin:round;stroke-miterlimit:10;stroke-width:2px" d="M0 0h5.304v5.285H0z"/>
        <path data-name="Path 3253" d="M31.763 12.216a24.473 24.473 0 0 0-20.5 21.47" transform="translate(-1.638 -2.23)" style="fill:none;stroke:#ff6c1a;stroke-linecap:round;stroke-linejoin:round;stroke-miterlimit:10;stroke-width:2px"/>
        <path data-name="Path 3254" d="M76.4 33.575a24.8 24.8 0 0 0-20.517-21.392" transform="translate(-18.271 -2.218)" style="fill:none;stroke:#ff6c1a;stroke-linecap:round;stroke-linejoin:round;stroke-miterlimit:10;stroke-width:2px"/>
        <path data-name="Path 3255" d="M54.278 76.558A24.371 24.371 0 0 0 75.8 55.031" transform="translate(-17.672 -18.191)" style="fill:none;stroke:#ff6c1a;stroke-linecap:round;stroke-linejoin:round;stroke-miterlimit:10;stroke-width:2px"/>
        <path data-name="Path 3256" d="M11.383 54.936a23.331 23.331 0 0 0 14.61 19.785 25.921 25.921 0 0 0 6.9 1.764" transform="translate(-1.682 -18.155)" style="fill:none;stroke:#ff6c1a;stroke-linecap:round;stroke-linejoin:round;stroke-miterlimit:10;stroke-width:2px"/>
        <path data-name="Path 3257" d="m38.041 49.628-3.4-7.767 7.727-18.776h3.684l7.967 18.536-3.576 8.1 1.841 5.392H36.213z" transform="translate(-10.351 -6.282)" style="fill:none;stroke:#ff6c1a;stroke-linecap:round;stroke-linejoin:round;stroke-miterlimit:10;stroke-width:2px"/>
        <path data-name="Line 274" transform="translate(28.237 43.413)" style="fill:none;stroke:#ff6c1a;stroke-linecap:round;stroke-linejoin:round;stroke-miterlimit:10;stroke-width:2px" d="M0 0h11.077"/>
    </g>
</svg>
