<svg xmlns="http://www.w3.org/2000/svg" width="57.414" height="57.415" viewBox="0 0 57.414 57.415">
    <g transform="translate(-6.592 -6.778)">
        <ellipse data-name="Ellipse 1053" cx="17.277" cy="17.248" rx="17.277" ry="17.248" transform="translate(23.532 12.691)" style="fill:none;stroke:#ff6c1a;stroke-miterlimit:10;stroke-width:2px"/>
        <ellipse data-name="Ellipse 1054" cx="22.197" cy="22.161" rx="22.197" ry="22.161" transform="translate(18.612 7.778)" style="fill:none;stroke:#ff6c1a;stroke-miterlimit:10;stroke-width:2px"/>
        <path data-name="Line 222" transform="translate(21.519 43.114)" style="fill:none;stroke:#ff6c1a;stroke-miterlimit:10;stroke-width:2px" d="M1.965 0 0 1.965"/>
        <path data-name="Line 223" transform="translate(25.454 47.319)" style="fill:none;stroke:#ff6c1a;stroke-miterlimit:10;stroke-width:2px" d="M1.98 0 0 1.98"/>
        <path data-name="Line 224" transform="translate(29.434 28.81)" style="stroke-linecap:round;stroke-linejoin:round;fill:none;stroke:#ff6c1a;stroke-miterlimit:10;stroke-width:2px" d="M0 0h1.64"/>
        <path data-name="Line 225" transform="translate(32.845 20.543)" style="stroke-linecap:round;stroke-linejoin:round;fill:none;stroke:#ff6c1a;stroke-miterlimit:10;stroke-width:2px" d="m0 0 1.16 1.16"/>
        <path data-name="Line 226" transform="translate(41.133 17.142)" style="stroke-linecap:round;stroke-linejoin:round;fill:none;stroke:#ff6c1a;stroke-miterlimit:10;stroke-width:2px" d="M0 0v1.64"/>
        <path data-name="Line 227" transform="translate(48.312 20.404)" style="stroke-linecap:round;stroke-linejoin:round;fill:none;stroke:#ff6c1a;stroke-miterlimit:10;stroke-width:2px" d="M1.16 0 0 1.16"/>
        <path data-name="Line 228" transform="translate(51.186 28.837)" style="stroke-linecap:round;stroke-linejoin:round;fill:none;stroke:#ff6c1a;stroke-miterlimit:10;stroke-width:2px" d="M1.64 0H0"/>
        <path data-name="Line 229" transform="translate(37.275 36.333)" style="stroke-linecap:round;stroke-linejoin:round;fill:none;stroke:#ff6c1a;stroke-miterlimit:10;stroke-width:2px" d="M0 0h7.465"/>
        <path data-name="Line 230" transform="translate(37.87 39.12)" style="stroke-linecap:round;stroke-linejoin:round;fill:none;stroke:#ff6c1a;stroke-miterlimit:10;stroke-width:2px" d="M0 0h6.362"/>
        <path data-name="Path 3241" d="M54.707 49.426c-.121 0-.241 0-.357.008a5.036 5.036 0 0 1-1.251-.1 2.346 2.346 0 0 1-2.039-2.36c-.007-.837.025-1.678-.012-2.513a2.675 2.675 0 0 0-.975-1.764 13.467 13.467 0 0 1-1.41-1.878 9.9 9.9 0 0 1-1.512-4.453 7.069 7.069 0 0 1 1.223-4.576 8.406 8.406 0 0 1 7.079-3.4 7.66 7.66 0 0 1 5.978 3.793 8.025 8.025 0 0 1 1 3.936 9.121 9.121 0 0 1-.41 2.794 3.79 3.79 0 0 1-1.127 1.8 9.3 9.3 0 0 0-2.146 2.346 3.246 3.246 0 0 0-.219 1.586c0 1.316.235 2.516-.651 3.617a3.2 3.2 0 0 1-1.183.926 5.078 5.078 0 0 1-1.988.238z" transform="translate(-13.693 -7.234)" style="stroke-linecap:round;stroke-linejoin:round;fill:none;stroke:#ff6c1a;stroke-miterlimit:10;stroke-width:2px"/>
        <path data-name="Path 3242" d="M56.667 46.092c-.009-.514 0-1.029 0-1.542 0-.365-.6-.669-.853-.88l-1.181-.97a25.211 25.211 0 0 0-1.09-.838 1.47 1.47 0 0 1-.74-1.429 2.07 2.07 0 0 1 .231-1.208 1.609 1.609 0 0 1 2.167-.542 11.248 11.248 0 0 1 1.506 1.139c.012.009.688-.53.744-.567a5.579 5.579 0 0 1 1.08-.588 1.875 1.875 0 0 1 1.243-.106 1.026 1.026 0 0 1 .721 1.064c0 .256 0 .512.005.768 0 .481-.429.873-.7 1.242l-.615.824" transform="translate(-15.576 -10.642)" style="stroke-linecap:round;stroke-linejoin:round;fill:none;stroke:#ff6c1a;stroke-miterlimit:10;stroke-width:2px"/>
        <path data-name="Rectangle 2468" transform="rotate(45 -43.224 46.126)" style="stroke-linecap:round;stroke-linejoin:round;fill:none;stroke:#ff6c1a;stroke-miterlimit:10;stroke-width:2px" d="M0 0h9.552v16.9H0z"/>
    </g>
</svg>
