<svg xmlns="http://www.w3.org/2000/svg" width="57.737" height="56.999" viewBox="0 0 57.737 56.999">
    <path data-name="Path 3248" d="M32.279 52.236v-2.21a2.491 2.491 0 0 0-1.532-2.285 14.37 14.37 0 0 1-3.377-2.122s-6.239-4.808-6.465-11.713 2.486-10.52 2.486-10.52 3.465-7.883 14.688-8.311S53.972 25.6 53.972 25.6s3.428 8.21-1.092 15.14c0 0-2.649 4.72-6.516 6.528 0 0-2.511.628-2.586 2.787v2.335" transform="translate(-9.183 -7.109)" style="fill:none;stroke:#ff6c1a;stroke-linecap:round;stroke-linejoin:round;stroke-miterlimit:10;stroke-width:2px"/>
    <path data-name="Path 3249" d="M50.879 82.482H37.145a1.72 1.72 0 0 1-1.72-1.72h0a1.72 1.72 0 0 1 1.72-1.72h13.734a1.72 1.72 0 0 1 1.72 1.72h0a1.72 1.72 0 0 1-1.72 1.72z" transform="translate(-15.141 -33.338)" style="fill:none;stroke:#ff6c1a;stroke-linecap:round;stroke-linejoin:round;stroke-miterlimit:10;stroke-width:2px"/>
    <path data-name="Path 3250" d="M40.149 86.071v4.419s.753 1.557 1.958 1.708h7.784a2.184 2.184 0 0 0 1.682-1.858v-4.319" transform="translate(-17.077 -36.199)" style="fill:none;stroke:#ff6c1a;stroke-linecap:round;stroke-linejoin:round;stroke-miterlimit:10;stroke-width:2px"/>
    <path data-name="Line 261" transform="translate(23.925 52.534)" style="fill:none;stroke:#ff6c1a;stroke-linecap:round;stroke-linejoin:round;stroke-miterlimit:10;stroke-width:2px" d="M0 0h9.792"/>
    <path data-name="Path 3251" d="M48.093 52.751v-8.134s2.8-.879 2.8-2.8a2.884 2.884 0 0 0-2.85-3.151V27.192a2.569 2.569 0 0 1-2.724-2.724 2.692 2.692 0 0 1 2.7-2.85v-4.746" transform="translate(-19.197 -7.85)" style="fill:none;stroke:#ff6c1a;stroke-linecap:round;stroke-linejoin:round;stroke-miterlimit:10;stroke-width:2px"/>
    <path data-name="Path 3252" d="M22.277 42.391h4.77s.879 2.8 2.8 2.8A2.883 2.883 0 0 0 33 42.341h11.472a2.569 2.569 0 0 1 2.728-2.724 2.692 2.692 0 0 1 2.85 2.7h4.746" transform="translate(-9.75 -17.175)" style="fill:none;stroke:#ff6c1a;stroke-linecap:round;stroke-linejoin:round;stroke-miterlimit:10;stroke-width:2px"/>
    <path data-name="Line 262" transform="translate(28.872 1)" style="fill:none;stroke:#ff6c1a;stroke-linecap:round;stroke-linejoin:round;stroke-miterlimit:10;stroke-width:2px" d="M0 4.067V0"/>
    <path data-name="Line 263" transform="translate(40.614 4.579)" style="fill:none;stroke:#ff6c1a;stroke-linecap:round;stroke-linejoin:round;stroke-miterlimit:10;stroke-width:2px" d="M0 3.437 2.175 0"/>
    <path data-name="Line 264" transform="translate(49.416 14.613)" style="fill:none;stroke:#ff6c1a;stroke-linecap:round;stroke-linejoin:round;stroke-miterlimit:10;stroke-width:2px" d="M0 2.025 3.528 0"/>
    <path data-name="Line 265" transform="translate(52.668 28.52)" style="fill:none;stroke:#ff6c1a;stroke-linecap:round;stroke-linejoin:round;stroke-miterlimit:10;stroke-width:2px" d="M0 .008 4.067 0"/>
    <path data-name="Line 266" transform="translate(49.611 40.481)" style="fill:none;stroke:#ff6c1a;stroke-linecap:round;stroke-linejoin:round;stroke-miterlimit:10;stroke-width:2px" d="m0 0 3.477 2.111"/>
    <path data-name="Line 267" transform="translate(14.947 4.579)" style="fill:none;stroke:#ff6c1a;stroke-linecap:round;stroke-linejoin:round;stroke-miterlimit:10;stroke-width:2px" d="M2.175 3.437 0 0"/>
    <path data-name="Line 268" transform="translate(4.793 14.613)" style="fill:none;stroke:#ff6c1a;stroke-linecap:round;stroke-linejoin:round;stroke-miterlimit:10;stroke-width:2px" d="M3.528 2.025 0 0"/>
    <path data-name="Line 269" transform="translate(1.002 28.52)" style="fill:none;stroke:#ff6c1a;stroke-linecap:round;stroke-linejoin:round;stroke-miterlimit:10;stroke-width:2px" d="M4.067.008 0 0"/>
    <path data-name="Line 270" transform="translate(4.649 40.481)" style="fill:none;stroke:#ff6c1a;stroke-linecap:round;stroke-linejoin:round;stroke-miterlimit:10;stroke-width:2px" d="M3.476 0 0 2.111"/>
</svg>
