<svg xmlns="http://www.w3.org/2000/svg" width="83.071" height="75.874" viewBox="0 0 83.071 75.874">
    <g data-name="Intelligent Alerts-01" transform="translate(-1.33 -6.586)">
        <path data-name="Path 3443" d="m4.72 67.459 3.519-6.17 8.274-14.508 9.619-16.866 7.552-13.243c1.687-2.958 3.1-6 6.182-7.689 3.561-1.953 6.943-.043 9.32 2.877 1.655 2.034 2.766 4.616 4.055 6.9q4.062 7.2 8.122 14.407L71.024 50.3l8.028 14.24c2.215 3.93 5.838 8.9 2.494 13.315-1.584 2.092-4.324 2.9-6.906 3.035-3.335.18-6.743-.022-10.085-.022H12.293a13.661 13.661 0 0 1-4.8-.4 7.225 7.225 0 0 1-2.308-1.4C1.664 75.9 2.792 71.191 4.72 67.459z" style="fill:none;stroke:#ff6c1a;stroke-linecap:round;stroke-linejoin:round;stroke-miterlimit:10;stroke-width:3px"/>
        <path data-name="Line 414" transform="translate(42.902 31.725)" style="fill:none;stroke:#ff6c1a;stroke-linecap:round;stroke-linejoin:round;stroke-miterlimit:10;stroke-width:3px" d="M0 0v24.002"/>
        <ellipse data-name="Ellipse 1134" cx="1.553" cy="1.413" rx="1.553" ry="1.413" transform="translate(41.352 63.457)" style="fill:none;stroke:#ff6c1a;stroke-linecap:round;stroke-linejoin:round;stroke-miterlimit:10;stroke-width:3px"/>
    </g>
</svg>
