<svg xmlns="http://www.w3.org/2000/svg" width="82.909" height="82.999" viewBox="0 0 82.909 82.999">
    <g data-name="Nearby Spot Alerts-01" transform="translate(-1.685 -1.69)">
        <path data-name="Path 3465" d="M48.861 59.78h0a5.645 5.645 0 0 1-5.584-5.218L39.395 8.523a4.926 4.926 0 0 1 4.916-5.333h8.432a4.926 4.926 0 0 1 4.921 5.262L54.45 54.478a5.645 5.645 0 0 1-5.589 5.302z" transform="translate(-5.331)" style="fill:none;stroke:#ff6c1a;stroke-linecap:round;stroke-linejoin:round;stroke-miterlimit:10;stroke-width:3px"/>
        <circle data-name="Ellipse 1139" cx="6.859" cy="6.859" r="6.859" transform="translate(36.299 69.472)" style="fill:none;stroke:#ff6c1a;stroke-linecap:round;stroke-linejoin:round;stroke-miterlimit:10;stroke-width:3px"/>
        <path data-name="Path 3466" d="M69.724 50.587s7.065 8.462-.093 21.883" transform="translate(-9.791 -6.987)" style="fill:none;stroke:#ff6c1a;stroke-linecap:round;stroke-linejoin:round;stroke-miterlimit:10;stroke-width:3px"/>
        <path data-name="Path 3467" d="M80.125 45.559s9.395 10.96 0 30.587" transform="translate(-11.338 -6.246)" style="fill:none;stroke:#ff6c1a;stroke-linecap:round;stroke-linejoin:round;stroke-miterlimit:10;stroke-width:3px"/>
        <path data-name="Path 3468" d="M90.116 38.607s12.9 22.871.093 41.6" transform="translate(-12.811 -5.221)" style="fill:none;stroke:#ff6c1a;stroke-linecap:round;stroke-linejoin:round;stroke-miterlimit:10;stroke-width:3px"/>
        <path data-name="Path 3469" d="M29.808 50.587s-7.065 8.462.093 21.883" transform="translate(-3.462 -6.987)" style="fill:none;stroke:#ff6c1a;stroke-linecap:round;stroke-linejoin:round;stroke-miterlimit:10;stroke-width:3px"/>
        <path data-name="Path 3470" d="M19.239 45.559s-9.395 10.96 0 30.587" transform="translate(-1.747 -6.246)" style="fill:none;stroke:#ff6c1a;stroke-linecap:round;stroke-linejoin:round;stroke-miterlimit:10;stroke-width:3px"/>
        <path data-name="Path 3471" d="M8.974 38.607s-12.9 22.871-.093 41.6" transform="translate(0 -5.221)" style="fill:none;stroke:#ff6c1a;stroke-linecap:round;stroke-linejoin:round;stroke-miterlimit:10;stroke-width:3px"/>
    </g>
</svg>
