<svg width="75" height="75" viewBox="0 0 75 75" fill="none" xmlns="http://www.w3.org/2000/svg">
<g id="Deep Learning " clip-path="url(#clip0_1344_148)">
<path id="Vector" d="M55.0969 21.7801C55.7767 23.3934 56.5402 24.902 57.0527 26.484C57.5547 28.0554 57.7848 29.7107 58.1613 31.4078C58.2659 31.4078 58.4751 31.4497 58.6947 31.4497C61.5709 31.4497 64.4366 31.4497 67.3127 31.4602C67.7729 31.4602 68.0135 31.345 68.2331 30.9154C69.028 29.4278 70.67 28.7364 72.2702 29.1554C73.8704 29.5745 74.9895 30.9888 75 32.6336C75 34.3098 73.8809 35.745 72.2493 36.1641C70.6596 36.5727 69.0594 35.8603 68.2017 34.3831C68.0762 34.1631 67.8043 33.8907 67.5951 33.8802C64.447 33.8488 61.2989 33.8593 58.0567 33.8593C57.8162 36.8031 57.105 39.6108 55.7767 42.3242C58.4855 42.3242 61.0793 42.3242 63.6731 42.3242C66.2982 42.3242 67.7415 43.7699 67.7415 46.389C67.7415 50.0138 67.7415 53.6491 67.7415 57.2739C67.7415 57.5463 67.7415 57.8186 67.7415 58.1329C70.3458 58.6044 72.3748 59.8929 73.7449 62.1139C74.8849 63.9682 75.23 65.9902 74.8431 68.1378C74.111 72.1817 70.3353 75.1465 66.11 74.9684C61.9474 74.8008 58.4437 71.4274 58.0985 67.2159C57.7639 63.1301 60.4309 59.0234 65.3256 58.1224V57.4101C65.3256 53.7329 65.3256 50.0557 65.3256 46.3785C65.3256 45.1423 64.9386 44.7547 63.7045 44.7547C60.8283 44.7547 57.9626 44.7547 55.0864 44.7442C54.6158 44.7442 54.3438 44.9013 54.0301 45.268C52.6913 46.7975 51.3317 48.3166 49.8779 49.7414C48.8739 50.7262 48.0163 51.7633 47.5352 53.23C49.2086 53.1252 50.6205 53.5338 51.4886 54.99C52.3671 56.4567 52.1684 57.871 51.133 59.2644C52.1475 60.6368 52.409 62.1244 51.4467 63.6539C50.4741 65.194 48.9471 65.4664 47.2319 65.3197C47.1064 68.3997 45.9454 70.9455 43.5817 72.8626C41.6887 74.4027 39.4923 75.1046 37.0555 74.9998C32.7883 74.8217 28.1132 71.5007 27.789 65.3302C26.1574 65.4454 24.6199 65.2149 23.6159 63.6959C22.7269 62.3654 22.821 60.8777 23.8774 59.3377C22.0785 55.7129 23.2917 53.5967 27.4752 53.1776C27.0882 51.8995 26.3561 50.8938 25.4148 49.9928C24.1702 48.788 22.9675 47.5309 21.7333 46.3156C21.5555 46.148 21.2731 45.9909 21.043 45.9909C17.7171 45.9699 14.3912 45.9699 11.0654 45.9909C10.3019 45.9909 9.758 46.3785 9.73709 47.049C9.68479 48.3271 9.72663 49.6052 9.72663 50.8728C15.3848 52.0567 17.3511 56.7291 16.9223 60.1863C16.368 64.6073 12.7701 67.7921 8.4402 67.7502C4.14163 67.7188 0.564725 64.4711 0.0836207 60.1234C-0.313813 56.4672 1.85116 51.9938 7.30019 50.8833C7.30019 49.7728 7.30019 48.6414 7.30019 47.5204C7.30019 45.0585 8.7958 43.5813 11.2641 43.5708C13.8579 43.5708 16.4516 43.5708 19.0454 43.5708C19.286 43.5708 19.537 43.5708 19.7462 43.5708C19.1186 41.968 18.397 40.4384 17.9159 38.8355C17.4452 37.2536 17.2151 35.5984 16.8595 33.8907C15.6463 33.8907 14.3494 33.8907 13.0421 33.8907C11.3268 33.8907 9.61158 33.9117 7.9068 33.8907C7.36294 33.8907 7.02826 33.9955 6.73541 34.5402C5.87779 36.1012 4.01613 36.7088 2.36364 36.0698C0.742525 35.4412 -0.219684 33.7231 0.104538 32.0678C0.449678 30.2869 1.97666 29.0192 3.75466 29.0821C5.14568 29.1345 6.17064 29.8154 6.88184 31.0202C6.99688 31.2193 7.25835 31.4707 7.44661 31.4707C10.6156 31.5021 13.7951 31.4916 17.0373 31.4916C17.2779 28.0449 18.2715 24.8601 20.1017 21.8534C19.7566 21.8325 19.5161 21.822 19.2755 21.822C16.5771 21.822 13.8788 21.822 11.1909 21.822C8.82717 21.822 7.31065 20.3134 7.30019 17.9562C7.30019 16.8038 7.30019 15.641 7.30019 14.5095C3.7442 13.1581 2.00804 10.6437 2.53098 7.63704C3.05392 4.63034 5.49082 2.50364 8.4402 2.48269C11.3268 2.46174 13.8578 4.49415 14.4122 7.29132C15.0606 10.539 13.4813 12.9904 9.71617 14.5305C9.71617 15.7457 9.69525 16.9819 9.71617 18.2077C9.73709 18.92 10.1973 19.402 10.9189 19.402C14.4749 19.4229 18.0204 19.4124 21.5764 19.402C21.7647 19.402 22.0053 19.2553 22.1308 19.1086C25.8436 15.0333 30.4246 12.7285 35.9154 12.2571C36.0096 12.2571 36.1142 12.2152 36.3024 12.1733C36.3024 10.5495 36.3129 8.92563 36.2815 7.3018C36.2815 7.14466 35.9677 6.96656 35.769 6.85132C34.1897 5.95036 33.4995 4.10652 34.127 2.43031C34.7441 0.785527 36.5011 -0.2202 38.1745 0.125519C39.9839 0.49219 41.2494 2.06364 41.1344 3.86557C41.0507 5.22749 40.3604 6.22274 39.1786 6.9037C38.9903 7.00846 38.7498 7.22847 38.7498 7.40656C38.7184 8.98849 38.7289 10.5704 38.7289 12.079C40.3291 12.4142 41.877 12.6447 43.3621 13.0638C47.0645 14.1114 50.1708 16.1333 52.775 18.962C52.9946 19.2029 53.3921 19.3915 53.7163 19.402C55.5257 19.4439 57.3455 19.4648 59.1549 19.402C59.6255 19.381 60.1903 19.1505 60.5459 18.8362C61.5604 17.9353 62.4808 16.9191 63.4639 15.9762C63.809 15.641 63.8613 15.4 63.6208 14.9495C62.418 12.6447 62.7841 9.94183 64.5202 8.07705C66.2669 6.19131 68.9443 5.60464 71.308 6.58941C73.6299 7.56371 75.115 9.92088 75 12.4771C74.8117 16.8038 70.1262 19.5277 66.2355 17.5267C65.723 17.2648 65.4615 17.3381 65.0955 17.7153C64.1333 18.721 63.1397 19.6848 62.167 20.6591C61.3826 21.4448 60.4413 21.8429 59.3222 21.8325C57.9103 21.822 56.4983 21.8325 55.1073 21.8325L55.0969 21.7801ZM45.0146 53.1986C45.5794 50.8309 47.0122 49.0709 48.8111 47.468C54.1451 42.6803 56.4983 36.6879 55.3374 29.5745C53.2666 16.8562 38.6034 10.3818 27.789 17.3695C16.7968 24.4725 16.9537 39.1917 25.8959 47.2166C27.7785 48.9033 29.3996 50.6738 29.9749 53.1776H33.876C33.876 51.2081 33.876 49.3014 33.876 47.3842C33.876 46.2737 33.6354 46.0328 32.5163 45.9594C28.5943 45.729 25.8855 42.1775 26.8163 38.4374C26.9523 37.9136 26.8581 37.6517 26.4398 37.3165C23.4486 34.9174 23.459 30.3811 26.4607 27.9925C26.879 27.6573 26.9627 27.3849 26.8268 26.8716C26.1678 24.3992 27.1719 21.822 29.295 20.3972C31.4286 18.9515 34.2211 19.0248 36.292 20.5963C36.7208 20.921 37.1077 21.3191 37.5261 21.6963C37.6202 21.602 37.6934 21.5391 37.7666 21.4658C39.827 19.2762 42.6927 18.7419 45.1819 20.0724C47.713 21.4239 48.8739 24.1477 48.1418 27.0706C48.0267 27.5106 48.1941 27.6992 48.4974 27.9402C51.6141 30.4335 51.6036 34.9383 48.466 37.4108C48.1104 37.6936 48.0267 37.9136 48.1522 38.3431C48.7484 40.4279 48.2777 42.2822 46.8449 43.8851C45.663 45.2051 44.1465 45.8756 42.379 45.949C41.7514 45.9804 41.1971 46.1585 41.1762 46.829C41.1239 48.9347 41.1553 51.0405 41.1553 53.1881H45.025L45.0146 53.1986ZM28.3119 29.6164C27.0882 30.4859 26.5025 31.6069 26.649 33.0212C26.7954 34.4355 27.5798 35.4412 28.8976 36.0069C29.4101 36.2269 29.9539 36.405 30.5187 36.625C30.1945 37.1069 29.8703 37.4736 29.682 37.9031C29.4205 38.4898 29.1172 39.1079 29.0754 39.7365C28.9081 41.8318 30.571 43.4556 32.8615 43.5604C34.9219 43.6546 36.2815 45.048 36.3024 47.0909C36.3129 48.5052 36.3024 49.909 36.3024 51.3233C36.3024 51.9414 36.3024 52.57 36.3024 53.1776H38.6766C38.6975 53.0729 38.7184 53.0205 38.7184 52.9786C38.7184 51.1452 38.7184 49.3014 38.7184 47.468C38.7184 44.9642 39.8793 43.7489 42.3894 43.5499C43.8432 43.4346 44.9832 42.7432 45.6317 41.4127C46.2174 40.2079 46.0709 39.0032 45.3284 37.9031C44.6381 36.8765 43.6131 36.3946 42.379 36.2898V33.9117C44.0942 33.9117 45.4643 34.6031 46.688 35.7345C47.8594 34.9279 48.466 33.8383 48.3614 32.4555C48.2568 30.9992 47.4724 29.9621 46.1546 29.3754C45.6317 29.1449 45.0878 28.9773 44.4498 28.7364C45.8304 27.0287 46.6671 25.2582 45.2342 23.2782C44.3766 22.0944 43.1425 21.602 41.7201 21.8744C39.827 22.241 38.8857 23.5401 38.6766 25.3839H36.3338C36.0096 23.1315 34.5767 21.7801 32.6105 21.8115C30.822 21.8325 29.1904 23.2258 29.1068 25.0173C29.0649 25.8239 29.3159 26.7249 29.7029 27.4373C30.2886 28.5478 31.4182 28.9878 32.6209 29.0926V31.4707C30.9266 31.4393 29.546 30.7897 28.3224 29.6373L28.3119 29.6164ZM30.2991 65.3616C30.0481 69.1435 33.5727 72.6217 37.5888 72.5798C41.5214 72.5379 45.0355 68.9969 44.6904 65.3616H30.2991ZM8.45065 65.3197C11.787 65.3302 14.5168 62.6063 14.5168 59.2748C14.5168 55.9748 11.8288 53.251 8.53432 53.23C5.18751 53.2091 2.44731 55.9015 2.42639 59.2329C2.40547 62.5749 5.1143 65.3092 8.45065 65.3197ZM66.5179 72.5798C69.8542 72.5798 72.584 69.8664 72.584 66.5349C72.584 63.2349 69.8961 60.5111 66.5911 60.4901C63.2443 60.4691 60.5041 63.172 60.4936 66.493C60.4831 69.835 63.192 72.5693 66.5179 72.5798ZM37.4738 58.0701C40.852 58.0701 44.2302 58.0701 47.6084 58.0701C47.8803 58.0701 48.1627 58.0805 48.4346 58.0701C49.104 58.0072 49.5746 57.5253 49.5955 56.8967C49.6165 56.2367 49.1249 55.7234 48.4242 55.6605C48.2464 55.65 48.0686 55.6605 47.8908 55.6605C40.9566 55.6605 34.0329 55.6605 27.0987 55.6605C26.8686 55.6605 26.6385 55.6396 26.4189 55.6815C25.8123 55.8177 25.4253 56.2053 25.4148 56.8339C25.4044 57.5043 25.7809 57.9129 26.4293 58.0491C26.649 58.091 26.879 58.0701 27.1091 58.0701C30.5605 58.0701 34.0119 58.0701 37.4633 58.0701H37.4738ZM37.547 60.4901C34.3675 60.4901 31.1985 60.4901 28.0191 60.4901C27.538 60.4901 27.0568 60.4691 26.5862 60.5006C25.9064 60.5425 25.4357 61.0349 25.4148 61.6634C25.3939 62.3235 25.875 62.8368 26.5757 62.8997C26.7535 62.9206 26.9313 62.8997 27.1091 62.8997C34.0433 62.8997 40.967 62.8997 47.9012 62.8997C48.1313 62.8997 48.3614 62.9206 48.581 62.8787C49.2295 62.732 49.606 62.3235 49.5851 61.653C49.5642 61.0244 49.1877 60.6368 48.581 60.5006C48.3614 60.4587 48.1313 60.4796 47.9012 60.4796C44.4498 60.4796 40.9984 60.4796 37.547 60.4796V60.4901ZM12.1008 8.4542C12.1008 6.47417 10.4692 4.85034 8.50295 4.83986C6.49486 4.82939 4.84237 6.47417 4.85283 8.47515C4.85283 10.4447 6.4844 12.079 8.45065 12.0895C10.4587 12.1 12.1112 10.4552 12.1008 8.44372V8.4542ZM72.584 12.1104C72.584 10.1304 70.9838 8.4961 69.0071 8.47515C66.999 8.4542 65.336 10.078 65.3256 12.0895C65.3256 14.1009 66.9676 15.7457 68.9757 15.7352C70.9524 15.7248 72.5735 14.0905 72.5735 12.1209L72.584 12.1104ZM38.7079 3.60366C38.6975 2.95413 38.1327 2.40936 37.4843 2.43031C36.8254 2.44079 36.292 3.00651 36.3024 3.65604C36.3129 4.30557 36.8777 4.85034 37.5261 4.83986C38.185 4.82939 38.7184 4.26367 38.7079 3.61413V3.60366ZM4.84237 32.7174C4.87375 32.0678 4.35081 31.4916 3.70236 31.4497C3.05392 31.4183 2.47868 31.9421 2.43685 32.5916C2.40547 33.2412 2.92841 33.8174 3.57686 33.8593C4.2253 33.8907 4.81099 33.3669 4.84237 32.7174ZM71.4021 31.4497C70.7537 31.4288 70.1889 31.9631 70.168 32.6231C70.1471 33.2726 70.6909 33.8383 71.3394 33.8593C71.9878 33.8802 72.5526 33.3355 72.5735 32.6859C72.5944 32.0364 72.0506 31.4707 71.4021 31.4497Z" fill="#FF6C1A"/>
<path id="Vector_2" d="M12.1008 59.254C12.1008 61.255 10.4588 62.9103 8.45069 62.8998C6.47398 62.8998 4.85287 61.2655 4.84241 59.2855C4.84241 57.274 6.48444 55.6292 8.49253 55.6397C10.4692 55.6397 12.0903 57.274 12.1008 59.2436V59.254ZM9.67437 59.254C9.66391 58.594 9.10959 58.0597 8.45069 58.0702C7.79179 58.0807 7.25839 58.6359 7.26885 59.2959C7.27931 59.9559 7.84408 60.4902 8.49253 60.4798C9.15143 60.4693 9.68483 59.9036 9.67437 59.254Z" fill="#FF6C1A"/>
<path id="Vector_3" d="M66.5388 62.8999C68.5469 62.8999 70.1785 64.5552 70.1576 66.5666C70.1366 68.5362 68.5051 70.1495 66.5284 70.1495C64.5203 70.1495 62.8887 68.4838 62.9096 66.4828C62.9305 64.5133 64.5621 62.8999 66.5388 62.8999ZM67.7416 66.5142C67.7416 65.8542 67.1768 65.3199 66.5284 65.3199C65.8695 65.3199 65.3256 65.8752 65.3361 66.5352C65.3361 67.1952 65.9008 67.74 66.5493 67.7295C67.2082 67.7295 67.752 67.1638 67.7416 66.5142Z" fill="#FF6C1A"/>
</g>
<defs>
<clipPath id="clip0_1344_148">
<rect width="75" height="75" fill="white"/>
</clipPath>
</defs>
</svg>
