<svg width="75" height="75" viewBox="0 0 75 75" fill="none" xmlns="http://www.w3.org/2000/svg">
<g id="Data Capture / OCR " clip-path="url(#clip0_1344_163)">
<path id="Vector" d="M0 51.7185C0.0810743 51.5464 0.172283 51.3843 0.243223 51.2122C0.841146 49.7033 2.1282 48.7918 3.73955 48.7817C6.28326 48.7716 8.81683 48.7615 11.3605 48.7817C12.7388 48.7918 14.0056 48.488 15.2116 47.7994C16.7824 46.9082 18.4039 46.1082 19.9544 45.1867C21.8901 44.0322 23.9169 43.4549 26.2579 43.941V42.9486C26.2579 31.7482 26.2681 20.5478 26.2478 9.34747C26.2478 7.5145 26.9369 6.09673 28.3152 4.95239C30.5143 3.13967 33.1391 2.18774 35.845 1.53961C44.7632 -0.576914 53.6813 -0.566787 62.5691 1.77253C64.677 2.32951 66.6938 3.12954 68.4977 4.37515C70.3522 5.65114 71.315 7.28158 71.3049 9.65128C71.2339 21.115 71.2745 32.5888 71.2643 44.0524C71.2643 44.6904 71.3555 45.0044 72.0751 45.1968C73.6155 45.6019 74.5681 46.6854 74.8924 48.2551C75.2471 49.9463 74.7201 51.3641 73.3824 52.4173C70.8286 54.4123 68.224 56.3566 65.6398 58.3213C59.0525 63.324 52.4551 68.3165 45.8779 73.3294C44.8544 74.1193 43.7396 74.656 42.5032 74.9801H40.598C40.1825 74.8484 39.7771 74.7066 39.3616 74.575C31.9635 72.1952 24.5554 69.8457 17.1776 67.4051C14.8771 66.6456 12.5969 66.1595 10.1647 66.2608C8.0973 66.3519 6.01977 66.2608 3.94224 66.2304C2.01672 66.2101 0.78034 65.3088 0.152014 63.4961C0.121611 63.4151 0.0608057 63.3341 0.0101343 63.2531C0.0101343 59.3947 0.0101343 55.5364 0.0101343 51.6881L0 51.7185ZM41.0945 54.9996C45.0976 54.9996 49.1006 55.0098 53.1138 54.9996C54.411 54.9996 55.2927 54.2199 55.394 53.0857C55.4954 51.9514 54.7556 51.0299 53.4888 50.8071C51.7862 50.5033 50.0735 50.2501 48.3608 49.9767C40.7702 48.7716 33.1797 47.5766 25.5891 46.3715C24.3223 46.169 23.1163 46.3209 21.9813 46.9487C20.1267 47.9817 18.2417 48.964 16.3973 49.9969C14.8467 50.8679 13.205 51.2831 11.4315 51.2729C8.98911 51.2527 6.54675 51.2729 4.10439 51.2729C2.93894 51.2729 2.50317 51.6983 2.50317 52.8527C2.50317 55.9516 2.50317 59.0504 2.50317 62.1492C2.50317 63.3544 2.91868 63.7594 4.13479 63.7696C6.59742 63.7898 9.07019 63.8101 11.5328 63.8101C13.0023 63.8101 14.4414 63.9417 15.8602 64.4076C23.8764 67.0203 31.9129 69.5723 39.9392 72.185C41.4796 72.6914 42.8275 72.5293 44.1348 71.5369C53.2658 64.5898 62.4069 57.663 71.5379 50.7261C71.7305 50.5742 71.9332 50.4324 72.0953 50.2501C72.6527 49.6425 72.6831 48.8222 72.1865 48.1741C71.7204 47.5564 70.9299 47.3538 70.2205 47.6779C69.957 47.7994 69.7138 47.9716 69.4706 48.1336C61.6368 53.0857 53.8029 58.0478 45.9691 62.9999C44.2564 64.0835 43.1822 64.0329 41.5506 62.7974C40.0507 61.6632 38.4698 60.6201 37.0814 59.3643C35.4599 57.8858 33.6864 57.2377 31.5075 57.5111C30.5752 57.6326 29.6023 57.5516 28.6598 57.4909C27.9605 57.4504 27.545 56.9339 27.5349 56.2756C27.5349 55.6174 27.9504 55.1414 28.6395 55.0503C28.903 55.0199 29.1766 55.0199 29.4401 55.0199C33.3215 55.0199 37.203 55.0199 41.0844 55.0199L41.0945 54.9996ZM68.7612 13.0134C68.5686 13.1046 68.4774 13.1349 68.4065 13.1856C66.3492 14.5628 64.069 15.3932 61.6874 15.9806C54.1374 17.8541 46.5265 17.9655 38.8853 16.649C35.3889 16.0414 31.9838 15.1097 28.9739 13.0944C28.9334 13.0641 28.8422 13.1046 28.7408 13.1147C28.7408 16.1021 28.7611 19.0693 28.7408 22.0466C28.7408 22.8973 28.9942 23.5961 29.6327 24.1125C30.2914 24.6493 30.9603 25.2366 31.7305 25.5404C33.5749 26.2898 35.4497 27.0291 37.3651 27.5152C41.9661 28.6798 46.6684 28.8823 51.391 28.6899C55.4244 28.5279 59.4275 28.0418 63.238 26.6341C64.748 26.0771 66.1769 25.2366 67.5653 24.4062C68.4369 23.8796 68.8017 22.9986 68.7814 21.9049C68.7206 19.2212 68.7612 16.5376 68.7612 13.854C68.7612 13.6008 68.7612 13.3476 68.7612 13.0033V13.0134ZM28.751 26.6848C28.751 29.3887 28.7814 31.9204 28.7408 34.4521C28.7206 35.4142 29.0145 36.2345 29.7847 36.7408C30.9299 37.5003 32.1054 38.2801 33.3823 38.7966C37.4969 40.4574 41.8546 41.0245 46.2529 41.1966C51.5734 41.4093 56.8331 41.0751 61.9813 39.5763C63.9271 39.0092 65.8222 38.3003 67.4538 37.0446C68.3355 36.3762 68.8422 35.5559 68.7916 34.3711C68.7105 32.447 68.7713 30.5229 68.7713 28.5886C68.7713 28.0114 68.7713 27.4342 68.7713 26.7557C68.5382 26.8772 68.4166 26.9379 68.295 26.9987C67.1397 27.5759 66.0249 28.2544 64.8392 28.7203C60.6537 30.3406 56.2656 30.9583 51.8166 31.1811C46.6785 31.4343 41.5709 31.1102 36.5544 29.9051C33.8485 29.257 31.2237 28.3658 28.7611 26.6848H28.751ZM47.9656 2.50167C46.8001 2.57256 44.824 2.64345 42.8579 2.82573C39.5237 3.14979 36.2301 3.72703 33.1391 5.07391C31.8419 5.64102 30.5954 6.42079 29.5009 7.32209C28.4267 8.20313 28.4571 9.28671 29.5009 10.2184C30.2813 10.9273 31.2035 11.5248 32.146 12.0109C34.1931 13.0742 36.4226 13.6413 38.6724 14.0869C43.7599 15.0894 48.8979 15.211 54.0462 14.7755C57.6033 14.4717 61.1199 13.8843 64.4135 12.4463C65.6905 11.8893 66.9167 11.1298 67.9909 10.2386C69.0956 9.33734 69.0044 8.29427 68.0112 7.26132C67.7376 6.97777 67.464 6.67396 67.1194 6.50181C65.8019 5.83343 64.5047 5.07391 63.1164 4.58782C58.485 2.95738 53.6509 2.57256 47.9656 2.49154V2.50167ZM68.7612 39.2523C68.0619 39.6574 67.4944 40.0118 66.8863 40.3156C62.9137 42.3106 58.6269 43.0701 54.2691 43.4955C49.1918 43.9917 44.1348 43.8296 39.1082 42.9283C35.5612 42.2904 32.1054 41.3992 29.055 39.3738C28.9841 39.3333 28.8827 39.3333 28.8017 39.313V44.2955C28.9131 44.336 28.9739 44.3664 29.0449 44.3765C37.132 45.6525 45.2192 46.9589 53.3165 48.2045C55.7893 48.5792 57.4006 49.7843 57.8972 52.3059C57.8972 52.3363 57.958 52.3565 58.0188 52.4071C61.4949 50.2096 64.9811 48.0121 68.447 45.7943C68.6091 45.693 68.751 45.4094 68.7612 45.217C68.7814 43.2727 68.7713 41.3182 68.7713 39.2523H68.7612ZM49.8303 57.5921H38.8447C40.4662 58.8276 41.9256 59.9618 43.4254 61.0454C43.618 61.1872 44.0639 61.2074 44.2767 61.0758C46.0806 59.9821 47.8642 58.8377 49.8303 57.5921Z" fill="#FF6C1A"/>
<path id="Vector_2" d="M33.5676 22.2691C33.0507 22.0362 32.321 21.8033 31.7027 21.4083C31.2061 21.0944 31.1453 20.507 31.4088 19.9703C31.652 19.4639 32.1183 19.1703 32.6554 19.3019C33.2838 19.4538 33.9122 19.6867 34.4797 20.0007C34.9561 20.264 35.1284 20.7804 34.9561 21.3273C34.7838 21.9045 34.3581 22.178 33.5676 22.259V22.2691Z" fill="#FF6C1A"/>
<path id="Vector_3" d="M39.7702 23.7477C39.3952 23.6768 38.8581 23.6161 38.3513 23.454C37.7027 23.2515 37.4391 22.7553 37.5202 22.0869C37.5912 21.4894 38.1081 21.0438 38.7466 21.0742C39.2736 21.1046 39.8108 21.1856 40.3277 21.3173C40.9864 21.4894 41.3209 22.0667 41.2195 22.7148C41.1182 23.3528 40.6013 23.7579 39.7601 23.7477H39.7702Z" fill="#FF6C1A"/>
</g>
<defs>
<clipPath id="clip0_1344_163">
<rect width="75" height="75" fill="white"/>
</clipPath>
</defs>
</svg>
