<svg width="75" height="75" viewBox="0 0 75 75" fill="none" xmlns="http://www.w3.org/2000/svg">
<g id="Computer Vision" clip-path="url(#clip0_1344_153)">
<path id="Vector" d="M0.000125369 4.71176C0.142017 4.29633 0.243369 3.87077 0.425801 3.47561C1.36837 1.33767 3.0204 0.152181 5.36161 0.0407246C6.92242 -0.0302022 19.0136 0.0204598 20.5744 0.0204598C21.3751 0.0204598 21.8413 0.44602 21.8413 1.12489C21.8413 1.79363 21.365 2.20906 20.5643 2.21919C19.0947 2.21919 7.10486 2.21919 5.6454 2.21919C3.64877 2.23945 2.20958 3.64786 2.20958 5.62368C2.20958 19.2416 2.20958 32.8596 2.20958 46.4775C2.20958 46.6396 2.22985 46.8017 2.23999 47.0044H72.8211C72.8211 46.7409 72.8211 46.4775 72.8211 46.2242C72.8211 32.7988 72.8211 19.3733 72.8211 5.94791C72.8211 3.5364 71.4832 2.20906 69.0508 2.20906C51.3954 2.20906 33.7501 2.20906 16.0947 2.20906C15.8515 2.20906 15.6082 2.21919 15.365 2.20906C14.7366 2.1584 14.2907 1.71257 14.2805 1.13502C14.2805 0.557477 14.7163 0.0913866 15.3346 0.0305922C15.5272 0.0103274 15.7299 0.0305922 15.9224 0.0305922C33.6488 0.0305922 51.3751 0.0305922 69.0913 0.0305922C72.6792 0.0305922 75.0103 2.35091 75.0103 5.92765C75.0103 21.3492 75.0103 36.7808 75.0103 52.2023C75.0103 55.8196 72.6792 58.1399 69.0508 58.15C66.0711 58.15 52.5609 58.15 49.5913 58.15C49.3481 58.15 49.0947 58.1601 48.8616 58.1095C48.3042 57.9676 47.9596 57.5826 48.0001 56.9949C48.0407 56.387 48.3954 55.9918 49.0339 55.9716C49.7636 55.9412 61.0238 55.9614 61.7636 55.9614C64.2265 55.9614 66.6994 55.9614 69.1623 55.9614C71.4427 55.9614 72.8211 54.5834 72.8211 52.3239C72.8211 51.3309 72.8211 50.3379 72.8211 49.3044H2.33121C2.33121 50.7128 2.17918 52.1314 2.37175 53.4992C2.57445 54.9178 3.90215 55.85 5.37175 55.9513C5.68594 55.9716 6.01026 55.9614 6.32445 55.9614C22.0744 55.9614 37.8143 55.9614 53.5643 55.9614C53.7569 55.9614 53.9596 55.9614 54.1521 55.9614C55.0846 55.9614 55.5609 56.3464 55.5508 57.0658C55.5407 57.7751 55.044 58.15 54.1116 58.15C51.7704 58.15 49.4292 58.15 47.0778 58.15C46.8143 58.15 46.5508 58.15 46.2265 58.15C46.267 58.3932 46.2873 58.5857 46.338 58.758C47.1994 61.6558 48.0711 64.5436 48.9021 67.4516C49.044 67.9278 49.2366 68.1102 49.7535 68.1C51.6082 68.0696 53.463 68.0798 55.3177 68.0899C56.8988 68.0899 57.8109 69.0119 57.8312 70.5825C57.8312 71.0688 57.8008 71.5653 57.8312 72.0415C57.9427 73.4499 57.4055 74.453 56.088 75.0002H18.892C17.5744 74.4429 17.0272 73.4499 17.1488 72.0415C17.1893 71.5552 17.1488 71.0688 17.1488 70.5825C17.169 69.0119 18.0812 68.1 19.6623 68.0899C21.517 68.0798 23.3717 68.0696 25.2265 68.1C25.7434 68.1 25.9359 67.9379 26.0778 67.4617C26.9089 64.5841 27.7704 61.7166 28.6217 58.839C28.6826 58.6364 28.7231 58.4236 28.7839 58.1601C28.4494 58.1601 28.1859 58.1601 27.9224 58.1601C25.2569 58.1601 22.6015 58.1601 19.9359 58.1601C15.2028 58.1601 10.4697 58.1703 5.72648 58.1601C2.8785 58.15 0.810936 56.4984 0.111612 53.7424C0.0913416 53.6512 0.0305308 53.5702 -0.0100098 53.4891V4.71176H0.000125369ZM46.8042 68.0595C45.8109 64.6955 44.838 61.443 43.8853 58.2007H31.115C30.142 61.4937 29.1792 64.7462 28.1961 68.0595H46.8042ZM19.3886 72.7508H55.6015V70.3596H19.3988V72.7508H19.3886Z" fill="#FF6C1A"/>
<path id="Vector_2" d="M51.0304 32.9912C52.1858 32.9912 53.1993 33.0216 54.2229 32.9608C54.4155 32.9506 54.6283 32.6061 54.7601 32.3832C55.5709 31.0154 57.1317 30.3669 58.652 30.762C60.1317 31.1471 61.1959 32.5048 61.2263 34.0348C61.2567 35.5749 60.2736 36.9327 58.7837 37.3988C57.2229 37.8953 55.5101 37.2265 54.7398 35.7371C54.5067 35.2912 54.2533 35.1696 53.7871 35.1798C52.5202 35.2102 51.2432 35.1595 49.9763 35.2102C49.6317 35.2203 49.2162 35.3925 48.9831 35.6357C42.4966 42.1813 32.4932 42.1711 25.9864 35.6053C25.7635 35.3824 25.3682 35.2203 25.0439 35.2102C23.777 35.1696 22.5101 35.2102 21.2331 35.1798C20.7364 35.1696 20.4729 35.3216 20.2297 35.7776C19.4999 37.1556 17.9493 37.8243 16.4391 37.4798C14.9999 37.1556 13.875 35.8384 13.7736 34.3489C13.6621 32.8189 14.5844 31.3903 16.0337 30.8532C17.6655 30.2453 19.429 30.9039 20.2702 32.4846C20.4729 32.8696 20.6858 33.0013 21.1114 32.9912C22.0135 32.9608 22.9155 32.9912 23.9594 32.9912C22.6317 30.7114 21.8412 28.3607 21.6385 25.7972C21.4155 25.7769 21.2229 25.7364 21.0405 25.7364C18.9425 25.7364 16.8445 25.7364 14.7466 25.7262C14.331 25.7262 14.1081 25.8377 13.9054 26.2329C13.125 27.7122 11.5236 28.3911 9.94252 27.9655C8.44252 27.5703 7.38846 26.1721 7.40873 24.5914C7.41887 23.0209 8.50333 21.6328 10.0033 21.268C11.5641 20.883 13.1047 21.5821 13.9358 23.0006C14.0777 23.2438 14.4121 23.5072 14.6655 23.5174C16.8344 23.5579 19.0135 23.5376 21.1824 23.5376C21.3243 23.5376 21.4662 23.4971 21.6486 23.4769C21.8614 20.9336 22.6216 18.5626 23.9898 16.2626C22.8445 16.2626 21.831 16.2322 20.8175 16.293C20.625 16.3031 20.402 16.6273 20.2702 16.8503C19.4594 18.2283 17.8986 18.9071 16.3885 18.512C14.8175 18.0965 13.7635 16.7185 13.7736 15.1278C13.7837 13.5674 14.8479 12.2198 16.3783 11.8145C17.8986 11.4092 19.5202 12.0982 20.2702 13.5572C20.4831 13.9727 20.7263 14.0943 21.1621 14.0841C22.4594 14.0537 23.7466 14.1044 25.0439 14.0537C25.3682 14.0436 25.7635 13.8916 25.9763 13.6687C32.4121 7.11303 42.5574 7.1029 48.9729 13.6484C49.1959 13.8713 49.581 14.0436 49.9054 14.0537C51.2229 14.0943 52.5405 14.0537 53.8581 14.0841C54.2635 14.0841 54.4864 13.9828 54.6891 13.5876C55.5101 12.007 57.2939 11.3281 58.9256 11.9158C60.5168 12.4933 61.4898 14.2057 61.1452 15.837C60.7702 17.6001 59.2702 18.7653 57.4662 18.6133C55.9763 18.4917 55.0236 17.6203 54.4459 16.3031H51.0304C52.3581 18.5626 53.1385 20.9134 53.3513 23.5478C53.8479 23.5478 54.3344 23.5478 54.8108 23.5478C56.6148 23.5478 58.4189 23.5376 60.2331 23.5478C60.6486 23.5478 60.8716 23.4363 61.0743 23.0412C61.8547 21.5517 63.4662 20.8627 65.027 21.2781C66.527 21.6733 67.581 23.0716 67.5709 24.6421C67.5709 26.2227 66.4966 27.5906 64.9864 27.9756C63.3952 28.3809 61.8851 27.6919 61.0236 26.2025C60.902 25.9998 60.6182 25.7566 60.4054 25.7566C58.1351 25.7262 55.8648 25.7364 53.5945 25.7566C53.5236 25.7566 53.4628 25.7972 53.331 25.8377C53.1182 28.3505 52.3581 30.7114 50.9999 33.0013L51.0304 32.9912ZM37.4898 38.3411C45.0304 38.3411 51.1824 32.2008 51.1925 24.6522C51.2027 17.1036 45.0709 10.9633 37.4999 10.9633C29.9391 10.9633 23.8074 17.0732 23.7972 24.6421C23.7972 32.1806 29.9391 38.3411 37.4898 38.3512V38.3411ZM59.027 34.1057C59.027 33.437 58.4493 32.8493 57.7804 32.8392C57.0709 32.8291 56.5033 33.4167 56.5135 34.1463C56.5337 34.8555 57.0709 35.3723 57.7804 35.3622C58.4695 35.352 59.027 34.7947 59.027 34.1057ZM18.4864 15.1987C18.4966 14.4894 17.9898 13.9423 17.2804 13.922C16.5608 13.9017 15.9628 14.4691 15.9729 15.1784C15.9729 15.8573 16.5506 16.4247 17.2297 16.4247C17.929 16.4247 18.4763 15.8978 18.4864 15.1987ZM59.027 15.1987C59.0371 14.5198 58.4898 13.9423 57.8006 13.922C57.0912 13.9017 56.5439 14.4084 56.5135 15.1075C56.4831 15.8472 57.0202 16.4247 57.7499 16.4247C58.429 16.4247 59.0067 15.8674 59.0168 15.1987H59.027ZM12.1317 24.6319C12.1317 23.9531 11.554 23.3958 10.875 23.3857C10.1858 23.3857 9.62833 23.9227 9.61819 24.6218C9.60806 25.3412 10.1959 25.939 10.8952 25.9188C11.5641 25.8985 12.1418 25.3007 12.1317 24.6421V24.6319ZM64.1452 25.9086C64.8243 25.9086 65.3817 25.3311 65.3817 24.6421C65.3817 23.9429 64.8445 23.3958 64.1554 23.3857C63.4459 23.3755 62.8479 23.9733 62.8682 24.6725C62.8885 25.3412 63.4864 25.9188 64.1452 25.9086ZM17.2601 35.352C17.9695 35.352 18.4864 34.8049 18.4864 34.0956C18.4864 33.4066 17.9391 32.8392 17.25 32.8392C16.5506 32.8392 15.9527 33.4471 15.9729 34.1463C15.9932 34.8353 16.5608 35.3622 17.2601 35.352Z" fill="#FF6C1A"/>
<path id="Vector_3" d="M31.3783 23.4972C30.7499 25.4629 31.7635 28.1581 33.6486 29.6171C35.8783 31.3498 39.0101 31.37 41.2702 29.6779C43.5405 27.9757 44.3918 24.9866 43.3581 22.3522C42.9222 21.2478 43.054 20.6297 43.7736 20.3764C44.5033 20.1231 45.0202 20.4777 45.4155 21.6024C46.5912 24.9157 46.0236 27.9352 43.6216 30.4784C41.2702 32.9507 38.3108 33.7512 35.0574 32.748C31.7229 31.7247 29.6756 29.3841 29.1283 25.9087C28.6317 22.7271 29.706 20.0623 32.179 18.0561C34.7128 16.0093 37.5912 15.6142 40.6418 16.7693C40.9966 16.901 41.3817 17.2252 41.5135 17.5596C41.6249 17.8433 41.5135 18.431 41.2804 18.5931C40.9662 18.8261 40.4391 18.9072 40.0236 18.8565C39.1114 18.7552 38.2195 18.5019 37.3175 18.36C37.0236 18.3094 36.6993 18.4208 36.2432 18.4715C37.1858 19.4239 37.6114 20.498 37.3175 21.6733C37.1351 22.3927 36.7297 23.1425 36.2026 23.6593C34.9358 24.9157 33.1418 24.8144 31.3783 23.5073V23.4972ZM33.902 19.809C33.2331 19.8292 32.6655 20.4169 32.6756 21.0958C32.6756 21.8152 33.2837 22.3623 34.0033 22.3319C34.7026 22.3015 35.2094 21.7443 35.179 21.035C35.1587 20.346 34.5709 19.7988 33.902 19.8191V19.809Z" fill="#FF6C1A"/>
</g>
<defs>
<clipPath id="clip0_1344_153">
<rect width="75" height="75" fill="white"/>
</clipPath>
</defs>
</svg>
