<svg width="75" height="75" viewBox="0 0 75 75" fill="none" xmlns="http://www.w3.org/2000/svg">
<g id="Metaverse Development ">
<path id="Vector" d="M36.0314 0H39.1058C39.6566 0.0999867 40.1974 0.199973 40.7482 0.289961C48.6594 1.57979 54.9685 8.46887 55.5092 16.4378C55.6094 17.9576 55.5192 19.4874 55.5192 21.0672C55.5293 21.0672 55.6695 21.0872 55.8197 21.0872C57.0614 21.1172 57.4019 21.4671 57.4019 22.727C57.4019 25.9465 57.3919 29.1761 57.4119 32.3957C57.4119 33.1756 57.1716 33.7155 56.4406 34.0055C56.1902 34.1055 55.9699 34.2754 55.7195 34.3654C55.0085 34.6054 54.6981 35.0753 54.5078 35.8252C53.2961 40.6246 50.4921 44.2641 46.266 46.8238C46.0257 46.9637 45.7253 47.2437 45.7152 47.4737C45.6552 48.5135 45.6852 49.5634 45.6852 50.6432C48.5393 51.3532 51.3433 52.0731 54.1573 52.753C55.5393 53.0829 56.9613 53.6428 58.3333 53.5629C59.7453 53.4829 61.1072 52.723 62.5092 52.303C63.1001 52.1231 63.2703 51.8331 63.2703 51.2132C63.2403 45.5539 63.2503 39.8847 63.2603 34.2254C63.2603 33.0756 64.0114 32.4857 65.0028 32.9156C67.4362 33.9555 69.7395 35.2253 71.7123 37.0251C73.8754 38.9948 75.0671 41.3345 74.997 44.3641C74.8869 49.1734 74.8869 53.9828 74.997 58.7922C75.0671 61.7718 73.8855 64.0715 71.7724 66.0112C69.6194 67.9909 67.0958 69.3508 64.4219 70.4506C58.153 73.0203 51.5736 74.1701 44.854 74.71C43.6122 74.81 42.3805 74.9 41.1387 75H33.8183C33.5579 74.96 33.2975 74.91 33.0271 74.88C29.9227 74.5701 26.8083 74.3801 23.7339 73.9401C18.5164 73.2002 13.4091 71.9204 8.65235 69.5707C4.7668 67.651 1.20172 65.3613 0 60.7819V42.4743C0.380543 40.6646 1.21173 39.0948 2.49356 37.765C4.6266 35.5453 7.26036 34.0755 10.0544 32.8756C10.8855 32.5157 11.6366 33.0556 11.7067 33.9555C11.7267 34.1754 11.7067 34.3954 11.7067 34.6154C11.7067 40.1246 11.7167 45.6439 11.6867 51.1532C11.6867 51.7831 11.8169 52.1231 12.4578 52.303C13.3691 52.553 14.2704 52.8729 15.1516 53.2229C16.2732 53.6728 17.3848 53.7928 18.5465 53.3429C19.1373 53.1129 19.7682 53.0329 20.3891 52.873C23.3433 52.133 26.2875 51.3931 29.2818 50.6432C29.2818 49.6534 29.2518 48.7035 29.2918 47.7636C29.3118 47.2737 29.1116 47.0437 28.711 46.8038C24.6552 44.3941 21.8712 40.9545 20.6294 36.3951C20.309 35.2153 19.8183 34.4554 18.6767 34.0755C17.8555 33.8055 17.545 33.2256 17.5551 32.3357C17.5951 29.1361 17.5751 25.9465 17.5651 22.747C17.5651 22.167 17.5951 21.6371 18.1259 21.2472C18.236 21.1672 18.246 20.8572 18.206 20.6772C17.6452 17.9076 17.9656 15.238 19.1974 12.6983C19.4578 12.1584 19.4077 11.8684 19.0071 11.4085C18.1459 10.4286 17.3047 9.38875 16.6638 8.2589C15.8526 6.83909 15.6924 5.2593 16.2432 3.65951C16.6438 2.47967 17.0343 2.29969 18.2661 2.38968C19.8483 2.49967 21.4306 2.54966 23.0128 2.53966C27.5093 2.49967 31.6552 0.649913 36.0314 0ZM2.36337 48.8535C2.36337 52.293 2.42346 55.6126 2.34334 58.9321C2.29327 60.9719 3.05436 62.5717 4.44635 63.9615C6.32903 65.8312 8.61229 67.0911 11.0257 68.1109C17.6953 70.9305 24.7253 72.0504 31.8855 72.4903C38.3347 72.8903 44.7639 72.6403 51.143 71.6304C55.9298 70.8705 60.5965 69.7207 65.0028 67.651C67.1959 66.6211 69.2689 65.3913 70.9312 63.5715C72.0729 62.3117 72.6837 60.8719 72.6537 59.1321C72.5936 55.9625 72.6337 52.783 72.6337 49.6134C72.6337 49.3934 72.6337 49.1734 72.6337 48.8735C71.9327 49.4934 71.3618 50.0333 70.751 50.5133C67.9069 52.743 64.6423 54.1328 61.2374 55.2326C54.8082 57.3024 48.1888 58.2022 41.4592 58.5022C34.1588 58.8222 26.9184 58.3622 19.7782 56.8124C13.4492 55.4426 7.31043 53.5929 2.34334 48.8635L2.36337 48.8535ZM18.3762 4.84935C18.1759 5.79923 18.3562 6.70911 18.887 7.43901C19.6681 8.51886 20.5393 9.53873 21.4807 10.4786C22.3819 11.3785 22.4921 11.6484 21.8412 12.7183C20.4392 15.058 20.0086 17.5677 20.5293 20.2473C20.6495 20.8572 20.8698 21.2172 21.5708 21.0872C22.1917 20.9772 22.8426 20.9872 23.4535 20.8572C26.4377 20.2273 28.7711 18.6275 30.4535 16.0879C31.1645 15.018 31.8154 14.948 32.7668 15.8479C32.8369 15.9179 32.907 15.9879 32.9771 16.0479C36.0114 18.8475 39.5765 20.6073 43.6924 20.9172C46.6967 21.1472 49.741 21.0372 52.7553 21.0672C52.8154 21.0672 52.8855 21.0172 52.9956 20.9672C53.8969 15.4979 52.535 10.6786 48.5193 6.80909C44.133 2.57966 38.8555 1.39981 33.0271 3.0196C28.3204 4.32942 23.5937 5.29929 18.6767 4.80936C18.5865 4.80936 18.4964 4.82936 18.3662 4.83935L18.3762 4.84935ZM55.0686 23.4869H19.9284C19.9284 25.6866 20.0586 27.8363 19.8884 29.976C19.7582 31.6058 20.2389 32.5657 21.8111 33.0456C22.7324 33.3256 23.5837 33.9355 24.515 34.0755C27.1187 34.4654 29.7425 34.6654 32.3562 34.9953C33.2775 35.1153 34.0586 35.0353 34.7897 34.4154C35.3905 33.9155 36.0815 33.5455 36.7224 33.0956C37.2532 32.7256 37.7539 32.7356 38.2846 33.0956C39.1258 33.6755 39.9771 34.2554 40.8483 34.7854C41.1287 34.9553 41.5193 35.0653 41.8497 35.0353C43.8626 34.8554 45.8755 34.6354 47.8883 34.3954C49.07 34.2554 50.2918 34.2154 51.4134 33.8655C52.565 33.5055 53.6065 32.8256 54.6881 32.2557C54.8583 32.1657 55.0486 31.9057 55.0586 31.7258C55.0786 28.9961 55.0786 26.2665 55.0786 23.4869H55.0686ZM51.8841 36.3352C51.7138 36.3352 51.5436 36.3152 51.3833 36.3352C48.1187 36.7051 44.844 37.0951 41.5793 37.415C41.0987 37.465 40.5278 37.295 40.0872 37.0651C39.3762 36.6951 38.7052 36.2352 38.0743 35.7452C37.6337 35.4053 37.3233 35.4753 36.9227 35.7652C36.2317 36.2652 35.5307 36.7551 34.7897 37.175C34.4692 37.355 34.0486 37.485 33.6981 37.455C31.8054 37.285 29.9227 37.0451 28.03 36.8351C26.3877 36.6551 24.7553 36.4751 23.0829 36.2952C24.535 41.4345 30.143 47.1637 38.1845 46.8637C44.3333 46.6438 51.1029 41.4645 51.8841 36.3352ZM9.35335 50.9332V35.8552C7.30042 36.5551 4.39627 38.8048 3.27467 40.5346C2.01287 42.4943 2.04292 44.4641 3.4349 46.3938C4.92703 48.4735 7.05006 49.7434 9.35335 50.9332ZM65.6537 50.9432C68.1372 49.6334 70.4506 48.2736 71.9126 45.8539C72.9041 44.2141 72.894 42.5343 71.9327 40.8645C71.7624 40.5746 71.5721 40.2846 71.3618 40.0147C69.8497 38.1049 67.8368 36.8751 65.6537 35.7552V50.9332V50.9432ZM52.8554 54.9027C52.555 54.7927 52.4649 54.7527 52.3748 54.7327C49.9012 54.1128 47.4177 53.4729 44.9341 52.873C44.6537 52.803 44.3032 52.873 44.0228 52.9629C42.1001 53.5829 40.1974 54.2628 38.2646 54.8527C37.7939 54.9927 37.2031 54.9927 36.7224 54.8527C35.1402 54.3827 33.5579 53.8828 32.0157 53.2829C30.9442 52.863 29.9528 52.833 28.8412 53.1429C26.6981 53.7628 24.515 54.2528 22.3519 54.8027C32.4563 56.6724 42.5407 56.6724 52.8454 54.9027H52.8554ZM31.6452 48.1736C31.6452 48.8735 31.6752 49.4834 31.6352 50.0833C31.6051 50.5533 31.7754 50.7632 32.226 50.9032C33.8283 51.4031 35.4105 51.9631 37.0028 52.473C37.2632 52.553 37.5937 52.603 37.844 52.523C39.5565 51.9731 41.2589 51.4031 42.9613 50.8132C43.1215 50.7532 43.3318 50.5433 43.3419 50.3933C43.3819 49.6734 43.3619 48.9535 43.3619 48.1636C39.4363 49.5134 35.6008 49.5234 31.6552 48.1636L31.6452 48.1736ZM29.0014 21.0272H35.8211C34.4692 20.1073 33.1473 19.1874 31.8555 18.3076C30.9041 19.2074 29.9628 20.1073 29.0014 21.0272Z" fill="#FF6C1A"/>
<path id="Vector_2" d="M51.5539 26.9765C51.5339 27.6065 50.993 28.1265 50.3621 28.1165C49.7311 28.0965 49.2103 27.5565 49.2303 26.9165C49.2503 26.2765 49.7912 25.7665 50.4222 25.7765C51.0531 25.7965 51.574 26.3365 51.5539 26.9765Z" fill="#FF6C1A"/>
</g>
</svg>
