<svg width="75" height="75" viewBox="0 0 75 75" fill="none" xmlns="http://www.w3.org/2000/svg">
<g id="Data Science" clip-path="url(#clip0_1344_140)">
<path id="Vector" d="M24.9628 8.19118C23.5438 5.97843 23.4729 3.89763 24.7702 2.09089C26.3918 -0.172607 29.4932 -0.669968 31.7533 0.984518C32.0472 1.19767 32.2601 1.34993 32.6655 1.15707C37.0033 -0.842522 41.0675 -0.192907 44.8378 2.54765C48.0405 4.87205 50.2499 8.03892 51.9729 11.5509C52.358 12.3325 52.7432 12.5761 53.6351 12.5558C58.1553 12.4137 62.5844 12.9415 66.7398 14.9715C68.108 13.8855 69.6384 13.4794 71.331 13.9464C74.9087 14.9309 76.1756 19.2752 73.733 22.0564C73.5506 22.2695 73.3479 22.6349 73.3986 22.8684C74.179 26.2789 73.581 29.5269 72.1824 32.6532C71.5236 34.1148 70.6925 35.5054 69.8918 36.896C69.6384 37.3223 69.6182 37.5862 69.8918 38.0125C71.6351 40.6617 72.9628 43.4835 73.5405 46.6402C74.8884 54.1006 70.0033 59.0539 65.1891 60.7592C61.3074 62.1396 57.3141 62.6877 53.2094 62.4543C52.6824 62.4238 52.429 62.5659 52.1959 63.043C50.483 66.5245 48.3547 69.7015 45.2634 72.1274C40.3175 76.0048 34.5506 75.9541 29.6553 71.9752C26.7668 69.6305 24.7094 66.6565 23.0878 63.3475C22.7533 62.6674 22.4188 62.3934 21.5979 62.4543C17.179 62.7486 12.9121 62.0483 8.8479 60.2314C8.4729 60.0588 8.23979 60.1299 7.9256 60.3532C5.78709 61.9163 2.92898 61.6016 1.21614 59.6325C-0.486558 57.6735 -0.385207 54.7909 1.42898 52.8623C1.59114 52.6898 1.77358 52.3954 1.73304 52.2025C0.83101 48.3556 1.73304 44.7726 3.38506 41.3215C3.92223 40.205 4.57087 39.1494 5.22966 38.1039C5.49317 37.6776 5.49317 37.4035 5.22966 36.9975C3.53709 34.46 2.23979 31.7498 1.64182 28.7352C0.374928 22.3203 3.68912 16.4535 9.85128 14.2712C13.7736 12.8806 17.8175 12.2919 21.9729 12.5355C22.4391 12.5659 22.6621 12.4441 22.8851 12.0178C23.5337 10.7389 24.2432 9.4904 24.9628 8.19118ZM19.8952 37.4949C20.2297 40.9662 20.5641 44.4478 20.8986 47.9191C20.9493 48.3861 21.0607 48.7819 21.527 49.0864C26.4222 52.233 31.6013 54.7908 37.0945 56.7092C37.3479 56.8006 37.6824 56.8107 37.9357 56.7194C43.5101 54.8112 48.7601 52.233 53.6756 48.9646C53.9087 48.8124 54.1114 48.4876 54.1621 48.2034C55.3276 41.0678 55.3378 33.9321 54.1621 26.8067C54.1114 26.5123 53.8783 26.1672 53.6351 26.0048C48.7601 22.7872 43.5506 20.2395 38.027 18.3211C37.7533 18.2297 37.3884 18.2196 37.1148 18.3211C31.6621 20.209 26.5236 22.7263 21.679 25.8729C21.1925 26.1875 20.9493 26.5529 20.8986 27.1112C20.5743 30.5623 20.2297 34.0133 19.8952 37.505V37.4949ZM21.5067 15.073C21.3547 15.0527 21.2634 15.0223 21.1621 15.0223C17.4526 14.8497 13.8445 15.408 10.3884 16.758C7.56074 17.8643 5.48304 19.8233 4.39858 22.6958C3.52696 25.0101 3.73979 27.3751 4.42898 29.7096C5.02696 31.7295 5.94925 33.5972 7.1452 35.3836C7.3175 35.1908 7.43912 35.0791 7.5506 34.9472C10.652 31.2322 14.179 27.9943 18.1722 25.2638C18.6283 24.9492 18.8006 24.5736 18.9222 24.0763C19.3884 22.1579 19.8749 20.2293 20.402 18.3211C20.706 17.235 21.1216 16.1794 21.4966 15.073H21.5067ZM53.7161 59.9878C57.2026 60.1806 60.6283 59.6528 63.9729 58.5464C69.4256 56.7397 72.152 52.0706 70.9864 46.4677C70.4695 43.991 69.3851 41.7681 67.9763 39.6264C67.7432 39.8903 67.5709 40.0933 67.3884 40.2963C64.6824 43.514 61.6722 46.4372 58.2161 48.8225C56.8479 49.7665 56.179 50.8424 55.8344 52.4461C55.2972 54.9736 54.4459 57.4401 53.7161 59.9878ZM49.8344 62.2513C49.581 62.2005 49.4391 62.1599 49.2972 62.1396C45.4357 61.6626 41.6553 60.8099 37.9459 59.6224C37.6722 59.531 37.3074 59.5919 37.0236 59.6833C33.7601 60.6983 30.4459 61.5001 27.0607 61.9569C26.4932 62.0381 25.9256 62.1295 25.2972 62.231C26.7567 65.1238 28.4695 67.6816 30.8513 69.7421C34.733 73.112 39.2533 73.4064 43.2972 70.5135C46.2364 68.4125 48.1621 65.4993 49.8445 62.2513H49.8344ZM53.5945 15.0527C53.6756 15.2963 53.7364 15.4587 53.777 15.6211C54.5979 18.4734 55.4087 21.3256 56.2499 24.1676C56.3614 24.533 56.6047 24.9289 56.8986 25.142C59.6756 27.101 62.3006 29.2529 64.6722 31.6991C65.7871 32.8562 66.8614 34.0539 67.9459 35.2314C70.5101 31.6382 71.9695 26.3804 70.8547 23.7007C66.8817 24.0966 64.6722 21.4981 65.2398 17.0523C61.5506 15.4689 57.6891 14.8091 53.5844 15.0527H53.5945ZM7.12493 39.7279C4.94587 43.3312 3.32425 46.9853 4.10466 51.289C7.74317 50.7714 10.9661 53.7758 9.87155 57.9679C13.5607 59.5513 17.4121 60.2111 21.4763 59.9675C21.4357 59.7848 21.4053 59.6427 21.3648 59.5006C20.5337 56.5773 19.7128 53.654 18.8513 50.7308C18.7499 50.3958 18.4763 50.0405 18.1925 49.8375C15.3648 47.8582 12.7195 45.6658 10.3175 43.179C9.25331 42.0828 8.23979 40.9256 7.13506 39.7279H7.12493ZM25.2466 12.7385C25.4999 12.7892 25.6216 12.8197 25.7432 12.84C29.6553 13.3475 33.4864 14.1798 37.2364 15.3978C37.4898 15.479 37.8243 15.4181 38.0878 15.3369C41.3513 14.3118 44.6655 13.52 48.0607 13.0633C48.6283 12.9821 49.1959 12.8907 49.8344 12.7892C48.1824 9.59191 46.2972 6.72954 43.4493 4.6386C40.6317 2.56795 37.5709 1.88789 34.2161 3.18712C33.7601 3.35967 33.5776 3.56268 33.6891 4.10064C34.2161 6.69909 32.6553 9.23665 30.0709 9.81521C29.1182 10.0284 28.0844 9.84566 26.9391 9.84566C26.4425 10.6983 25.8749 11.6727 25.2567 12.7486L25.2466 12.7385ZM18.1925 46.7113C17.402 40.5196 17.4121 34.5006 18.1925 28.3394C14.5033 31.0393 11.3918 34.0742 8.6756 37.5659C11.4222 41.017 14.5134 44.0215 18.1925 46.7113ZM56.9391 28.3089C57.7094 34.4904 57.6993 40.4993 56.9391 46.6707C60.6384 43.9403 63.7398 40.9256 66.4459 37.4441C63.6891 34.0032 60.608 30.9886 56.929 28.3089H56.9391ZM50.9797 59.9878C51.8411 57.3487 52.6418 54.8518 53.4628 52.3243C49.4594 54.3239 45.6283 56.2423 41.5945 58.2521C44.7871 58.8408 47.8175 59.399 50.9695 59.9878H50.9797ZM33.2837 16.8696C33.304 16.8087 33.3243 16.7478 33.3445 16.6869C30.4459 16.1997 27.5574 15.7226 24.6587 15.2151C24.2128 15.1339 24.1013 15.3775 23.9898 15.7023C23.4121 17.3873 22.8243 19.0621 22.2668 20.7572C22.054 21.3966 21.9324 22.0665 21.8006 22.6248C25.6317 20.7064 29.4526 18.788 33.2837 16.8798V16.8696ZM33.4357 58.2115C29.4526 56.222 25.6114 54.3036 21.6182 52.304C22.4391 54.7299 23.2499 57.1051 24.081 59.4701C24.1317 59.6122 24.456 59.7442 24.6486 59.7239C25.6114 59.6427 26.5743 59.5513 27.5168 59.3788C29.4729 59.0235 31.4188 58.6073 33.4357 58.2115ZM41.7668 16.6666L41.8276 16.8595C45.6587 18.7677 49.4898 20.6861 53.3006 22.5842C53.2803 22.6552 53.3209 22.6045 53.3006 22.5639C52.5607 20.209 51.8107 17.8542 51.0405 15.5095C50.9999 15.3775 50.6452 15.2456 50.4628 15.276C47.5641 15.7226 44.6655 16.1997 41.7668 16.6666ZM72.4966 18.7677C72.4966 17.3771 71.3918 16.2505 70.0134 16.2505C68.6655 16.2505 67.5607 17.3467 67.5405 18.7068C67.5202 20.1075 68.5945 21.2444 69.983 21.2647C71.3614 21.285 72.4966 20.1684 72.4966 18.7779V18.7677ZM5.07763 53.7454C3.70939 53.7657 2.57425 54.933 2.60466 56.2931C2.63506 57.6329 3.76006 58.7494 5.0979 58.7494C6.45601 58.7494 7.62155 57.5923 7.61142 56.2322C7.61142 54.8619 6.44587 53.7251 5.07763 53.7352V53.7454ZM28.8547 2.5172C27.4661 2.4969 26.3513 3.60328 26.3411 4.99386C26.3411 6.39459 27.4357 7.51111 28.8243 7.50096C30.1824 7.50096 31.277 6.41489 31.2972 5.05476C31.3175 3.64388 30.233 2.52735 28.8445 2.50705L28.8547 2.5172Z" fill="#FF6C1A"/>
<path id="Vector_2" d="M24.8007 37.5049C23.9595 36.5508 23.7973 35.4546 23.8277 34.2771C23.8683 32.8663 23.8277 31.4452 23.8379 30.0343C23.8581 27.984 25.2669 26.3194 27.3142 26.2991C34.1554 26.228 40.9865 26.2382 47.8277 26.2991C49.723 26.3194 51.1419 27.8013 51.2433 29.6892C51.3345 31.5467 51.3345 33.4144 51.2433 35.2617C51.2027 36.0128 50.8075 36.7436 50.5034 37.6876C51.446 38.6417 51.3041 40.1034 51.3041 41.5447C51.3041 42.6409 51.3243 43.727 51.3041 44.8232C51.2635 47.1984 49.7534 48.7412 47.3717 48.7514C40.8345 48.7717 34.2872 48.7717 27.75 48.7514C25.3784 48.7514 23.8683 47.1679 23.8581 44.8029C23.8581 43.3413 23.8784 41.8797 23.8581 40.4079C23.8379 39.3523 24.071 38.3981 24.8311 37.5049H24.8007ZM37.5203 36.2666C40.7433 36.2666 43.9561 36.2666 47.1791 36.2666C48.3649 36.2666 48.8007 35.82 48.8108 34.6527C48.8108 33.1911 48.821 31.7294 48.8108 30.2678C48.8108 29.2325 48.3345 28.7554 47.3108 28.7554C40.8244 28.7554 34.3379 28.7554 27.8514 28.7554C26.7973 28.7554 26.3615 29.202 26.3615 30.2577C26.3514 31.6685 26.3615 33.0794 26.3615 34.5004C26.3615 35.9113 26.7264 36.2767 28.1048 36.2767C31.2466 36.2767 34.3987 36.2767 37.5406 36.2767L37.5203 36.2666ZM37.5 46.2646C40.723 46.2646 43.9358 46.2646 47.1588 46.2646C48.3446 46.2646 48.8007 45.8281 48.8007 44.671C48.8007 43.2296 48.8007 41.7985 48.8007 40.3571C48.8007 39.2203 48.3548 38.7534 47.2399 38.7534C40.7737 38.7534 34.3176 38.7534 27.8514 38.7534C26.7568 38.7534 26.3514 39.1899 26.3412 40.3165C26.3412 41.7579 26.3412 43.189 26.3412 44.6304C26.3412 45.8687 26.7467 46.2646 27.9933 46.2747C31.1656 46.2747 34.3277 46.2747 37.5 46.2747V46.2646Z" fill="#FF6C1A"/>
<path id="Vector_3" d="M42.5169 31.2527C43.3277 31.2527 44.1487 31.2324 44.9595 31.2527C45.7399 31.273 46.2669 31.7703 46.2973 32.4605C46.3277 33.1711 45.7703 33.7395 44.9696 33.7496C43.3683 33.7699 41.7568 33.7699 40.1554 33.7496C39.3244 33.7395 38.8176 33.2117 38.8379 32.4707C38.8581 31.7602 39.3446 31.2831 40.1453 31.2527C40.9358 31.2324 41.7264 31.2527 42.5169 31.2527Z" fill="#FF6C1A"/>
<path id="Vector_4" d="M30.6791 31.2524C31.9561 31.2524 32.5642 31.6584 32.5642 32.5111C32.5642 33.3637 31.946 33.7697 30.6791 33.7697C30.5575 33.7697 30.4359 33.7697 30.3041 33.7697C29.3717 33.7494 28.8142 33.252 28.8345 32.4705C28.8548 31.7295 29.4021 31.2727 30.3041 31.2524C30.4257 31.2524 30.5474 31.2524 30.6791 31.2524Z" fill="#FF6C1A"/>
<path id="Vector_5" d="M42.5474 43.7578C41.7568 43.7578 40.9663 43.7781 40.1757 43.7578C39.3446 43.7375 38.8278 43.2401 38.8278 42.4992C38.8278 41.7582 39.3446 41.271 40.196 41.2608C41.7771 41.2405 43.3582 41.2405 44.9392 41.2608C45.7501 41.2608 46.3075 41.8191 46.2974 42.5195C46.2974 43.23 45.7399 43.7375 44.919 43.7578C44.1284 43.7781 43.3379 43.7578 42.5474 43.7578Z" fill="#FF6C1A"/>
<path id="Vector_6" d="M30.7297 43.7472C30.4865 43.7472 30.2331 43.7675 29.9899 43.7472C29.3108 43.6762 28.8446 43.1687 28.8345 42.5191C28.8345 41.8695 29.2804 41.3416 29.9595 41.2706C30.3446 41.23 30.75 41.2401 31.1453 41.2503C32.0169 41.2706 32.5743 41.7883 32.5642 42.5292C32.5541 43.2397 32.0068 43.7269 31.1757 43.7574C31.0237 43.7574 30.8818 43.7574 30.7297 43.7574V43.7472Z" fill="#FF6C1A"/>
</g>
<defs>
<clipPath id="clip0_1344_140">
<rect width="75" height="75" fill="white"/>
</clipPath>
</defs>
</svg>
