<svg width="75" height="75" viewBox="0 0 75 75" fill="none" xmlns="http://www.w3.org/2000/svg">
<g id="Predictive Analytics" clip-path="url(#clip0_1344_129)">
<path id="Vector" d="M0 26.3692C0 25.3974 0 24.4156 0 23.4438C0.0500801 23.2133 0.120192 22.9729 0.160256 22.7425C1.35216 14.467 8.43349 8.52592 16.7768 8.81646C17.0272 8.81646 17.2877 8.81646 17.5881 8.81646C17.5881 7.3938 17.5881 6.0513 17.5881 4.70879C17.5982 1.8735 19.4311 0.0100187 22.2456 0C34.3249 0 46.4042 0 58.4836 0C59.1647 0 59.7055 0.220411 60.1863 0.69129C64.8938 5.4101 69.6014 10.1189 74.3189 14.8277C74.7797 15.2885 75 15.7995 75 16.4607C75 34.4443 75 52.4379 75 70.4215C75 72.0144 74.399 73.3369 73.0569 74.2286C72.5461 74.5692 71.9151 74.7495 71.3442 75.01H21.234C18.2292 73.7777 17.5681 72.7859 17.5681 69.4797C17.5681 60.2825 17.5681 51.0854 17.5681 41.8882V41.0166C17.1575 41.0166 16.847 41.0166 16.5365 41.0166C9.69551 41.2169 3.33534 36.9289 1.03165 30.4669C0.560897 29.1444 0.340545 27.7418 0 26.3792L0 26.3692ZM57.4219 2.97555C57.2416 2.95552 57.1514 2.93548 57.0513 2.93548C45.4327 2.93548 33.8141 2.93548 22.1955 2.93548C21.0938 2.93548 20.5329 3.51656 20.5128 4.61862C20.4928 5.98116 20.5329 7.35373 20.4928 8.71627C20.4728 9.25728 20.6631 9.46767 21.1639 9.62797C27.3938 11.7018 31.7208 17.2722 32.1915 23.7744C32.7123 31.0379 28.1551 37.8607 21.2139 40.1449C20.653 40.3353 20.4928 40.5858 20.4928 41.1769C20.5128 50.7948 20.5028 60.4128 20.5028 70.0307C20.5028 71.5836 20.9736 72.0645 22.496 72.0645C38.3413 72.0645 54.1867 72.0645 70.022 72.0645C71.5745 72.0645 72.0553 71.5936 72.0553 70.0608C72.0553 52.8286 72.0553 35.5864 72.0553 18.3543C72.0553 18.1038 72.0553 17.8433 72.0553 17.5728C71.6647 17.5728 71.3942 17.5728 71.1338 17.5728C67.2075 17.5728 63.2712 17.5728 59.345 17.5728C57.9127 17.5728 57.4219 17.0618 57.4119 15.6192C57.4119 15.008 57.4119 14.3969 57.4119 13.7857V2.97555H57.4219ZM14.6434 11.9022C9.50521 12.1527 3.21514 16.8715 2.94471 24.4557C2.6843 31.8094 8.50361 37.9508 15.8754 38.0811C23.3874 38.2113 28.6659 32.2602 29.1366 26.3792C28.8662 26.3792 28.6058 26.3792 28.3454 26.3792C24.4391 26.3792 20.5429 26.3792 16.6366 26.3792C15.1342 26.3792 14.6434 25.8983 14.6434 24.4156C14.6434 20.5083 14.6434 16.611 14.6434 12.7037C14.6434 12.4432 14.6434 12.1727 14.6434 11.9122V11.9022ZM17.6182 11.8922V23.4037H29.1266C28.6559 17.3424 23.2372 12.2429 17.6182 11.8922ZM69.6114 14.6273C66.5465 11.5616 63.4215 8.43575 60.3966 5.4101V14.6273H69.6114Z" fill="#FF6C1A"/>
<path id="Vector_2" d="M52.8846 58.4592C54.0564 60.8336 53.6858 62.9876 51.923 64.3802C50.3906 65.5825 48.2471 65.6426 46.6746 64.5005C45.0821 63.3483 44.4411 61.3446 45.1121 59.5011C45.2624 59.0904 45.2323 58.7998 44.9418 58.4492C43.6398 56.8662 42.3677 55.2532 41.0556 53.6803C40.9054 53.4899 40.5148 53.3396 40.2844 53.3997C39.3529 53.6502 38.4615 53.6402 37.55 53.3697C37.3297 53.2996 36.929 53.4298 36.7588 53.6001C35.1963 55.2432 33.6738 56.9363 32.1213 58.5894C31.8509 58.88 31.8008 59.1204 31.931 59.4911C32.6923 61.7654 31.6205 64.1298 29.4771 64.9914C27.3337 65.853 24.8998 64.9513 23.8982 62.8474C23.0769 61.1442 23.2972 59.4911 24.5292 58.0685C25.7211 56.6959 27.2736 56.235 29.0264 56.746C29.5272 56.8862 29.8076 56.8261 30.1482 56.4454C31.6005 54.8324 33.0729 53.2294 34.5652 51.6465C34.8858 51.3058 34.9859 51.0353 34.8257 50.5644C34.1846 48.741 34.8457 46.7674 36.4182 45.6352C37.9407 44.5432 40.044 44.5632 41.5564 45.6853C43.1189 46.8475 43.7299 48.8112 43.0689 50.6346C42.9186 51.0453 42.9286 51.3359 43.2291 51.6865C44.5412 53.2695 45.8132 54.8625 47.0853 56.4755C47.3357 56.7861 47.546 56.8362 47.9467 56.766C48.6277 56.6458 49.3389 56.6859 50.04 56.6258C50.2804 56.6057 50.5909 56.5757 50.7411 56.4154C54.0164 52.9289 57.2716 49.4223 60.5368 45.9158C60.5669 45.8857 60.5769 45.8356 60.6169 45.7655C59.5853 43.9321 59.6454 42.1387 61.0076 40.4756C62.3197 38.8726 64.6734 38.5019 66.5264 39.5639C68.3293 40.5958 69.1205 42.8 68.4194 44.8237C67.7483 46.7473 65.665 47.9896 63.6618 47.6891C63.3713 47.649 62.9406 47.6891 62.7704 47.8594C59.4651 51.3559 56.1999 54.8725 52.8846 58.4191V58.4592ZM65.7552 43.341C65.7451 42.5695 65.044 41.8983 64.2828 41.9083C63.5116 41.9183 62.8405 42.6196 62.8505 43.381C62.8605 44.1525 63.5616 44.8237 64.3229 44.8137C65.0941 44.8037 65.7652 44.1024 65.7552 43.341ZM38.9523 50.6747C39.7135 50.6747 40.4046 49.9934 40.4146 49.232C40.4146 48.4705 39.7335 47.7792 38.9723 47.7692C38.2111 47.7692 37.52 48.4505 37.51 49.2119C37.51 49.9733 38.191 50.6646 38.9523 50.6747ZM27.8445 59.4911C27.0833 59.4911 26.3822 60.1624 26.3721 60.9238C26.3621 61.6852 27.0432 62.3865 27.8044 62.3965C28.5657 62.4066 29.2668 61.7253 29.2768 60.9639C29.2868 60.2024 28.6057 59.5011 27.8445 59.4911ZM47.7564 60.9238C47.7564 61.6852 48.4274 62.3865 49.1886 62.3965C49.9499 62.4066 50.651 61.7253 50.661 60.9639C50.671 60.2024 49.9899 59.5011 49.2187 59.4911C48.4575 59.4811 47.7564 60.1624 47.7463 60.9238H47.7564Z" fill="#FF6C1A"/>
<path id="Vector_3" d="M53.5557 26.3683C50.0401 26.3683 46.5245 26.3683 43.0088 26.3683C42.7184 26.3683 42.4179 26.3683 42.1375 26.2982C41.4864 26.1479 41.0257 25.567 41.0157 24.936C41.0056 24.2749 41.4764 23.6639 42.1575 23.5137C42.4179 23.4536 42.6883 23.4536 42.9588 23.4536C50.0601 23.4536 57.1615 23.4536 64.2629 23.4536C64.4532 23.4536 64.6535 23.4536 64.8438 23.4736C65.615 23.5838 66.1659 24.1748 66.1759 24.8959C66.1959 25.6371 65.625 26.2681 64.8137 26.3683C64.5734 26.3983 64.323 26.3883 64.0826 26.3883C60.5669 26.3883 57.0513 26.3883 53.5357 26.3883L53.5557 26.3683Z" fill="#FF6C1A"/>
<path id="Vector_4" d="M53.5657 32.2294C50.0501 32.2294 46.5344 32.2294 43.0188 32.2294C42.7083 32.2294 42.3778 32.2294 42.0773 32.1392C41.4162 31.9589 41.0757 31.4681 41.0256 30.7971C40.9856 30.1661 41.4463 29.5551 42.0873 29.3948C42.3878 29.3147 42.7183 29.3047 43.0288 29.3047C50.0801 29.3047 57.1414 29.3047 64.1927 29.3047C64.413 29.3047 64.6334 29.3047 64.8537 29.3247C65.625 29.4249 66.1759 30.0258 66.1959 30.737C66.2159 31.4782 65.645 32.1292 64.8437 32.2093C64.3129 32.2594 63.772 32.2294 63.2311 32.2294C60.006 32.2294 56.7908 32.2294 53.5657 32.2294Z" fill="#FF6C1A"/>
<path id="Vector_5" d="M45.2624 11.7209C42.7985 11.7209 40.3345 11.7309 37.8706 11.7109C37.4499 11.7109 36.9191 11.6308 36.6587 11.3703C36.3381 11.0498 36.0677 10.4689 36.1278 10.0582C36.1879 9.64759 36.6386 9.22692 37.0192 8.94647C37.2596 8.7762 37.6703 8.80624 38.0108 8.80624C42.8385 8.80624 47.6763 8.80624 52.504 8.80624C52.6542 8.80624 52.7945 8.80624 52.9447 8.80624C53.8462 8.86634 54.4772 9.4673 54.4772 10.2686C54.4772 11.0699 53.8462 11.7009 52.9447 11.7209C51.8029 11.751 50.651 11.7209 49.4992 11.7309C48.0869 11.7309 46.6647 11.7309 45.2524 11.7309L45.2624 11.7209Z" fill="#FF6C1A"/>
<path id="Vector_6" d="M45.2524 17.5819C42.8386 17.5819 40.4247 17.5819 38.0008 17.5819C37.6903 17.5819 37.3598 17.5719 37.0593 17.4817C36.3982 17.2814 36.0477 16.7806 36.0577 16.1096C36.0577 15.4385 36.4183 14.9477 37.0793 14.7574C37.3498 14.6773 37.6603 14.6672 37.9407 14.6572C42.8185 14.6572 47.7063 14.6572 52.5841 14.6572C52.8245 14.6572 53.0749 14.6572 53.3153 14.7173C54.0064 14.8676 54.4772 15.4685 54.4772 16.1296C54.4772 16.8007 53.9964 17.3816 53.3053 17.5318C53.0449 17.5819 52.7744 17.5819 52.504 17.5819C50.0902 17.5819 47.6763 17.5819 45.2524 17.5819Z" fill="#FF6C1A"/>
<path id="Vector_7" d="M36.6391 26.359C35.8676 26.369 35.1763 25.6977 35.1663 24.9263C35.1463 24.1649 35.8276 23.4636 36.599 23.4536C37.3604 23.4335 38.0617 24.1148 38.0717 24.8862C38.0918 25.6477 37.4105 26.349 36.6391 26.359Z" fill="#FF6C1A"/>
<path id="Vector_8" d="M36.649 29.3149C37.4204 29.3349 38.0917 30.0362 38.0716 30.7977C38.0516 31.5691 37.3503 32.2404 36.5889 32.2203C35.8174 32.2003 35.1462 31.499 35.1662 30.7375C35.1862 29.9661 35.8876 29.2949 36.649 29.3149Z" fill="#FF6C1A"/>
<path id="Vector_9" d="M15.665 35.1557C10.3765 34.9653 5.92943 30.4469 5.86933 25.1971C5.85932 24.2954 6.23993 23.7143 6.9711 23.5139C7.92262 23.2535 8.73392 23.9347 8.79401 25.0568C8.88416 26.77 9.43504 28.2929 10.5468 29.6053C11.889 31.1983 13.6318 32.0198 15.685 32.2102C15.8353 32.2202 15.9755 32.2102 16.1257 32.2302C16.9871 32.3204 17.5781 32.9215 17.5781 33.6929C17.5781 34.4944 16.927 35.1056 16.0456 35.1457C15.9254 35.1457 15.8052 35.1457 15.675 35.1457L15.665 35.1557Z" fill="#FF6C1A"/>
</g>
<defs>
<clipPath id="clip0_1344_129">
<rect width="75" height="75" fill="white"/>
</clipPath>
</defs>
</svg>
