<?xml version="1.0" encoding="UTF-8"?>
<svg xmlns="http://www.w3.org/2000/svg" xmlns:xlink="http://www.w3.org/1999/xlink" width="78pt" height="16pt" viewBox="0 0 78 16" version="1.1">
<g id="surface1">
<path style=" stroke:none;fill-rule:evenodd;fill:rgb(100%,100%,100%);fill-opacity:1;" d="M 78 0 L 78 16 L 0 16 L 0 0 Z M 24 2.398438 C 23.828125 2.398438 23.671875 2.441406 23.53125 2.523438 C 23.390625 2.605469 23.285156 2.71875 23.214844 2.863281 L 21.855469 5.582031 L 18.730469 6.023438 L 18.652344 6.039062 C 18.527344 6.070312 18.414062 6.125 18.308594 6.210938 C 18.183594 6.3125 18.09375 6.433594 18.039062 6.578125 C 17.992188 6.71875 17.988281 6.867188 18.023438 7.011719 C 18.058594 7.160156 18.132812 7.289062 18.25 7.402344 L 20.535156 9.601562 L 20.007812 12.664062 L 19.996094 12.726562 C 19.980469 12.855469 20.003906 12.980469 20.058594 13.101562 C 20.125 13.246094 20.226562 13.363281 20.359375 13.453125 C 20.4375 13.507812 20.515625 13.542969 20.597656 13.566406 C 20.679688 13.589844 20.769531 13.601562 20.863281 13.601562 C 20.933594 13.601562 21.003906 13.59375 21.074219 13.578125 C 21.144531 13.5625 21.210938 13.535156 21.273438 13.5 L 24 12.085938 L 26.714844 13.5 L 26.785156 13.53125 C 26.832031 13.550781 26.878906 13.566406 26.925781 13.578125 C 26.996094 13.59375 27.066406 13.601562 27.136719 13.601562 C 27.222656 13.601562 27.308594 13.589844 27.394531 13.566406 C 27.480469 13.542969 27.5625 13.507812 27.640625 13.453125 C 27.773438 13.363281 27.875 13.246094 27.941406 13.101562 C 28.007812 12.960938 28.023438 12.8125 27.992188 12.664062 L 27.464844 9.601562 L 29.75 7.402344 L 29.804688 7.34375 C 29.890625 7.246094 29.949219 7.132812 29.976562 7.011719 C 30.011719 6.867188 30.007812 6.71875 29.960938 6.578125 C 29.90625 6.425781 29.816406 6.300781 29.691406 6.203125 C 29.566406 6.105469 29.425781 6.046875 29.269531 6.023438 L 26.144531 5.582031 L 24.785156 2.863281 L 24.753906 2.804688 C 24.683594 2.6875 24.589844 2.59375 24.46875 2.523438 C 24.328125 2.441406 24.171875 2.398438 24 2.398438 Z M 39.199219 2.398438 C 39.027344 2.398438 38.871094 2.441406 38.730469 2.523438 C 38.589844 2.605469 38.484375 2.71875 38.414062 2.863281 L 37.058594 5.582031 L 33.929688 6.023438 L 33.855469 6.039062 C 33.726562 6.070312 33.613281 6.125 33.507812 6.210938 C 33.382812 6.3125 33.292969 6.433594 33.238281 6.578125 C 33.191406 6.71875 33.1875 6.867188 33.222656 7.011719 C 33.257812 7.160156 33.332031 7.289062 33.449219 7.402344 L 35.734375 9.601562 L 35.207031 12.664062 L 35.195312 12.726562 C 35.183594 12.855469 35.203125 12.980469 35.261719 13.101562 C 35.328125 13.246094 35.425781 13.363281 35.558594 13.453125 C 35.636719 13.507812 35.714844 13.542969 35.796875 13.566406 C 35.878906 13.589844 35.96875 13.601562 36.0625 13.601562 C 36.132812 13.601562 36.203125 13.59375 36.273438 13.578125 C 36.34375 13.5625 36.410156 13.535156 36.472656 13.5 L 39.199219 12.085938 L 41.917969 13.5 L 41.988281 13.53125 C 42.035156 13.550781 42.082031 13.566406 42.128906 13.578125 C 42.199219 13.59375 42.269531 13.601562 42.339844 13.601562 C 42.425781 13.601562 42.507812 13.589844 42.59375 13.566406 C 42.679688 13.542969 42.761719 13.507812 42.839844 13.453125 C 42.972656 13.363281 43.074219 13.246094 43.140625 13.101562 C 43.207031 12.960938 43.222656 12.8125 43.191406 12.664062 L 42.664062 9.601562 L 44.949219 7.402344 L 45.003906 7.34375 C 45.089844 7.246094 45.148438 7.132812 45.175781 7.011719 C 45.210938 6.867188 45.207031 6.71875 45.160156 6.578125 C 45.105469 6.425781 45.015625 6.300781 44.890625 6.203125 C 44.765625 6.105469 44.625 6.046875 44.46875 6.023438 L 41.34375 5.582031 L 39.984375 2.863281 L 39.953125 2.804688 C 39.882812 2.6875 39.789062 2.59375 39.667969 2.523438 C 39.527344 2.441406 39.371094 2.398438 39.199219 2.398438 Z M 54.398438 2.398438 C 54.226562 2.398438 54.070312 2.441406 53.933594 2.523438 C 53.792969 2.605469 53.6875 2.71875 53.617188 2.863281 L 52.257812 5.582031 L 49.132812 6.023438 L 49.054688 6.039062 C 48.929688 6.070312 48.8125 6.125 48.710938 6.210938 C 48.585938 6.3125 48.496094 6.433594 48.441406 6.578125 C 48.394531 6.71875 48.386719 6.867188 48.421875 7.011719 C 48.457031 7.160156 48.535156 7.289062 48.652344 7.402344 L 50.933594 9.601562 L 50.40625 12.664062 L 50.398438 12.726562 C 50.382812 12.855469 50.402344 12.980469 50.460938 13.101562 C 50.527344 13.246094 50.625 13.363281 50.757812 13.453125 C 50.835938 13.507812 50.917969 13.542969 51 13.566406 C 51.082031 13.589844 51.167969 13.601562 51.261719 13.601562 C 51.332031 13.601562 51.402344 13.59375 51.472656 13.578125 C 51.542969 13.5625 51.609375 13.535156 51.671875 13.5 L 54.398438 12.085938 L 57.117188 13.5 L 57.1875 13.53125 C 57.234375 13.550781 57.28125 13.566406 57.328125 13.578125 C 57.398438 13.59375 57.46875 13.601562 57.539062 13.601562 C 57.625 13.601562 57.710938 13.589844 57.796875 13.566406 C 57.882812 13.542969 57.964844 13.507812 58.042969 13.453125 C 58.175781 13.363281 58.273438 13.246094 58.339844 13.101562 C 58.40625 12.960938 58.425781 12.8125 58.394531 12.664062 L 57.867188 9.601562 L 60.148438 7.402344 L 60.203125 7.34375 C 60.289062 7.246094 60.347656 7.132812 60.378906 7.011719 C 60.414062 6.867188 60.40625 6.71875 60.359375 6.578125 C 60.304688 6.425781 60.214844 6.300781 60.089844 6.203125 C 59.964844 6.105469 59.824219 6.046875 59.667969 6.023438 L 56.542969 5.582031 L 55.183594 2.863281 L 55.152344 2.804688 C 55.082031 2.6875 54.988281 2.59375 54.867188 2.523438 C 54.726562 2.441406 54.570312 2.398438 54.398438 2.398438 Z M 69.601562 2.398438 C 69.429688 2.398438 69.273438 2.441406 69.132812 2.523438 C 68.992188 2.605469 68.886719 2.71875 68.816406 2.863281 L 67.457031 5.582031 L 64.332031 6.023438 L 64.253906 6.039062 C 64.128906 6.070312 64.011719 6.125 63.910156 6.210938 C 63.785156 6.3125 63.695312 6.433594 63.640625 6.578125 C 63.59375 6.71875 63.585938 6.867188 63.621094 7.011719 C 63.65625 7.160156 63.734375 7.289062 63.851562 7.402344 L 66.132812 9.601562 L 65.605469 12.664062 L 65.597656 12.726562 C 65.582031 12.855469 65.601562 12.980469 65.660156 13.101562 C 65.726562 13.246094 65.824219 13.363281 65.957031 13.453125 C 66.035156 13.507812 66.117188 13.542969 66.199219 13.566406 C 66.28125 13.589844 66.367188 13.601562 66.460938 13.601562 C 66.53125 13.601562 66.601562 13.59375 66.671875 13.578125 C 66.742188 13.5625 66.808594 13.535156 66.871094 13.5 L 69.601562 12.085938 L 72.316406 13.5 L 72.386719 13.53125 C 72.433594 13.550781 72.480469 13.566406 72.527344 13.578125 C 72.597656 13.59375 72.667969 13.601562 72.738281 13.601562 C 72.824219 13.601562 72.910156 13.589844 72.996094 13.566406 C 73.082031 13.542969 73.164062 13.507812 73.242188 13.453125 C 73.375 13.363281 73.472656 13.246094 73.539062 13.101562 C 73.605469 12.960938 73.625 12.8125 73.59375 12.664062 L 73.066406 9.601562 L 75.347656 7.402344 L 75.402344 7.34375 C 75.492188 7.246094 75.546875 7.132812 75.578125 7.011719 C 75.613281 6.867188 75.605469 6.71875 75.558594 6.578125 C 75.503906 6.425781 75.414062 6.300781 75.289062 6.203125 C 75.164062 6.105469 75.023438 6.046875 74.867188 6.023438 L 71.742188 5.582031 L 70.382812 2.863281 L 70.351562 2.804688 C 70.285156 2.6875 70.1875 2.59375 70.066406 2.523438 C 69.929688 2.441406 69.773438 2.398438 69.601562 2.398438 Z M 8.800781 2.398438 C 8.628906 2.398438 8.472656 2.441406 8.332031 2.523438 C 8.191406 2.605469 8.085938 2.71875 8.015625 2.863281 L 6.65625 5.582031 L 3.53125 6.023438 L 3.453125 6.039062 C 3.328125 6.070312 3.214844 6.125 3.109375 6.210938 C 2.984375 6.3125 2.894531 6.433594 2.839844 6.578125 C 2.792969 6.71875 2.789062 6.867188 2.824219 7.011719 C 2.859375 7.160156 2.933594 7.289062 3.050781 7.402344 L 5.335938 9.601562 L 4.808594 12.664062 L 4.796875 12.726562 C 4.78125 12.855469 4.804688 12.980469 4.859375 13.101562 C 4.925781 13.246094 5.027344 13.363281 5.160156 13.453125 C 5.238281 13.507812 5.316406 13.542969 5.398438 13.566406 C 5.480469 13.589844 5.566406 13.601562 5.660156 13.601562 C 5.730469 13.601562 5.800781 13.59375 5.871094 13.578125 C 5.941406 13.5625 6.007812 13.535156 6.070312 13.5 L 8.800781 12.085938 L 11.515625 13.5 L 11.585938 13.53125 C 11.632812 13.550781 11.679688 13.566406 11.726562 13.578125 C 11.796875 13.59375 11.867188 13.601562 11.9375 13.601562 C 12.023438 13.601562 12.109375 13.589844 12.195312 13.566406 C 12.28125 13.542969 12.363281 13.507812 12.441406 13.453125 C 12.574219 13.363281 12.671875 13.246094 12.738281 13.101562 C 12.804688 12.960938 12.824219 12.8125 12.792969 12.664062 L 12.265625 9.601562 L 14.550781 7.402344 L 14.605469 7.34375 C 14.691406 7.246094 14.75 7.132812 14.777344 7.011719 C 14.8125 6.867188 14.808594 6.71875 14.761719 6.578125 C 14.707031 6.425781 14.617188 6.300781 14.492188 6.203125 C 14.367188 6.105469 14.226562 6.046875 14.070312 6.023438 L 10.941406 5.582031 L 9.585938 2.863281 L 9.550781 2.804688 C 9.484375 2.6875 9.390625 2.59375 9.269531 2.523438 C 9.128906 2.441406 8.972656 2.398438 8.800781 2.398438 Z M 8.800781 2.398438 "/>
</g>
</svg>
