<svg xmlns="http://www.w3.org/2000/svg" width="86.099" height="100.939" viewBox="0 0 86.099 100.939">
    <defs>
        <style>
            .cls-1{fill:#a4c639}
        </style>
    </defs>
    <g id="android.36c44339" transform="translate(-.001)">
        <g id="Group_284" data-name="Group 284" transform="translate(.001)">
            <g id="Group_283" data-name="Group 283">
                <path id="Path_1074" data-name="Path 1074" class="cls-1" d="M43.41 164.715h-.259a6.034 6.034 0 0 0-6.017 6.017v26.2a6.029 6.029 0 0 0 6.017 6.021h.263a6.035 6.035 0 0 0 6.017-6.021v-26.2a6.043 6.043 0 0 0-6.021-6.017z" transform="translate(-37.134 -131.801)"/>
                <path id="Path_1075" data-name="Path 1075" class="cls-1" d="M113.085 210.891a5.537 5.537 0 0 0 5.53 5.521h5.91v14.151a6.036 6.036 0 0 0 6.017 6.026h.259a6.037 6.037 0 0 0 6.026-6.026v-14.15h8.259v14.151a6.043 6.043 0 0 0 6.026 6.026h.254a6.034 6.034 0 0 0 6.021-6.026v-14.151h5.913a5.536 5.536 0 0 0 5.526-5.521v-41.367h-55.741z" transform="translate(-97.908 -135.65)"/>
                <path id="Path_1076" data-name="Path 1076" class="cls-1" d="m154.1 8.789 4.694-7.246A1 1 0 0 0 158.5.164a.989.989 0 0 0-1.379.293l-4.866 7.5a32.177 32.177 0 0 0-24.073 0l-4.858-7.5a1 1 0 0 0-1.681 1.086l4.7 7.246c-8.47 4.151-14.181 11.974-14.181 20.948 0 .552.035 1.095.082 1.634H168.2c.047-.539.078-1.082.078-1.634 0-8.974-5.716-16.797-14.178-20.948zm-26.857 12.974a2.688 2.688 0 1 1 2.694-2.69 2.689 2.689 0 0 1-2.694 2.69zm25.944 0a2.688 2.688 0 1 1 2.69-2.69 2.689 2.689 0 0 1-2.69 2.69z" transform="translate(-97.166)"/>
                <path id="Path_1077" data-name="Path 1077" class="cls-1" d="M412.745 164.715h-.25a6.041 6.041 0 0 0-6.026 6.017v26.2a6.039 6.039 0 0 0 6.026 6.021h.254a6.032 6.032 0 0 0 6.017-6.021v-26.2a6.038 6.038 0 0 0-6.021-6.017z" transform="translate(-332.667 -131.801)"/>
            </g>
        </g>
    </g>
</svg>
