<svg xmlns="http://www.w3.org/2000/svg" width="93.354" height="90.695" viewBox="0 0 93.354 90.695">
    <path data-name="Path 3310" d="m68.759 38.738.484-1.613a168.967 168.967 0 0 1 5.484-17.231 6.126 6.126 0 0 1 5.324-4.247c1.747-.19 3.6-.35 4.784 1.317a4.446 4.446 0 0 0 2.917 1.9 8.236 8.236 0 0 1 1.747.457c.779.3 1.075-.026 1.291-.753l2.071-7.042c.779-2.661.779-2.634-1.8-3.549a4.051 4.051 0 0 0-3.172-.054 4.208 4.208 0 0 1-4.96-1.023 14.473 14.473 0 0 0-5.455-3.521 38.259 38.259 0 0 0-18.79-2.042 19.957 19.957 0 0 0-8.708 3.172 10.661 10.661 0 0 0-1.021.915 47.652 47.652 0 0 1 10.377.108 8.357 8.357 0 0 1 5.913 3.037c1.613 2.071 1.99 4.516 2.188 6.99a27.441 27.441 0 0 1-1.317 10.108L63.132 36.2c-.134.457-.242.875.376 1.021l5.242 1.532zM52.225 91.587a4.009 4.009 0 0 0 3.938-2.15 11.114 11.114 0 0 0 1.155-2.876l7.687-32.041 3.119-13.305c.214-.875 0-1.211-.831-1.4l-3.387-.941c-2.071-.618-1.667-.54-2.284 1.167L46.34 83.509a6.462 6.462 0 0 0-.43 1.855c-.146 3.655 2.421 6.209 6.316 6.237zM.077 27.1.4 29.464l2.336 15.484L5.02 60.555l2.366 15.7L8.865 86.2c.108.7.35 1.021 1.167.887l14.677-2.337 20.94-3.25c.268-.054.484-.376.726-.591-.3-.146-.645-.457-.915-.43L34.037 82.2l-23.119 3.627c-.807.134-1.075-.054-1.167-.831L8.314 74.954 4.953 52.725 1.313 28.47c-.134-.887.146-1.291 1.05-1.4l4.65-.726 19.032-3.092 32.1-5.269 7.23-1.237c.3-.054.511-.484.753-.726l-.967-.376c-.08-.026-.19.026-.3.054L55.855 17.2l-55 9.033c-.671.108-1.021.3-.779.875zm76.611-8.924a3.1 3.1 0 0 1-.484-.026 8.957 8.957 0 0 0-.242 2.042l1.075 6.532 2.917 17.527 4.813 28.708c.108.564 0 .967-.7 1.075l-15.512 2.42-7.337 1.211c-.214.026-.4.376-.591.591.268.134.511.376.753.376.779-.054 1.532-.19 2.284-.3l22.419-3.6-9.408-56.559zm-20.4 33.869a1 1 0 0 0 .08-1.586l-5.026-6.049L37.2 27.341a3.843 3.843 0 0 1-.807-1.667 2.538 2.538 0 0 1 1.721-2.661 2.715 2.715 0 0 1 3.279 1.075l13.9 16.628 3.387 4.005a1.016 1.016 0 0 0 .08-1.586l-5.567-6.655-11.21-13.331a3.714 3.714 0 0 0-5.455-.4c-1.639 1.425-1.721 3.442-.19 5.269l17.419 21.018 2.526 3.011zM37.737 40.71a4.03 4.03 0 0 0-.645-.43l-5.565-2.042c-.591-.214-.875 0-1.075.511L20.292 63.72c-.268.618-.08.915.484 1.129L25.991 67c.941.43 1.317.214 1.667-.726l10.064-25.565zm17.715 11.548-3.6-4.595c-.915-1.41-1.936-2.14-3.628-1.41a7.294 7.294 0 0 1-1.291.214l-10.796 1.856a1.408 1.408 0 0 0-1.291.915l-2.178 5.941a4.865 4.865 0 0 0-.134.875l22.9-3.763zm-30.215-2.392-12.929 2.1.831 5.861c.108.831.457.941 1.211.831l6.666-.915a1.525 1.525 0 0 0 1.371-.967l2.5-5.805c.134-.321.19-.591.35-1.1z" transform="translate(0 -.921)" style="fill:#235ee1"/>
    <path data-name="Path 3311" d="m72.493 66.636-8.093-4.92c.108.511.054 1.1.321 1.4a6.447 6.447 0 0 0 1.8 1.4c.915.511 1.9.875 2.822 1.317a3.569 3.569 0 0 1 2.366 3.307 2.587 2.587 0 0 0 .242.831l.268-.134a1.079 1.079 0 0 0 .19-.242 9.121 9.121 0 0 0 1.021-7.731c-.779-3.011-2.178-5.619-5.108-7.124-.807-.4-1.317-.054-1.908.35a1.671 1.671 0 0 0-.807 1.855 6.09 6.09 0 0 0 1.075-.726c.671-.7 1.291-.54 2.042-.054 2.957 2.071 4.813 7.284 3.763 10.458zM18.437 77.9a1.616 1.616 0 0 0 .321.134l8.066-10.064-.915-.484-5.134-2.071c-.807-.35-1.05-.108-1.1.726l-.71 6.8-.514 4.959zm17.337-46.344a3.457 3.457 0 0 0-3.174 2.178l-1.236 2.956c-.268.564-.19.915.457 1.129l5.376 1.99c.645.242.915.026 1.155-.54l1.291-3.063a2.465 2.465 0 0 0-.915-3.333 21 21 0 0 0-2.957-1.317zM67.306 50.1l6.71-.941c.19-.026.43-.511.4-.726l-.967-5.324a1.057 1.057 0 0 0-.779-.645c-1.129.08-2.258.242-3.387.43-.564.08-.967.35-.645 1.155l3.119-.376c.242-.026.7.19.726.35l.779 4.167-5 .671c-.591.08-1.129.214-.941 1.237zm1.453-11.37-5.215-1.505c-.618-.19-.511-.564-.376-1.021l2.984-10.534a27.509 27.509 0 0 0 1.317-10.108c-.214-2.472-.564-4.892-2.188-6.99a8.354 8.354 0 0 0-5.913-3.037 47.815 47.815 0 0 0-10.377-.108c.35-.3.645-.645 1.021-.915A19.977 19.977 0 0 1 58.72 1.34a38.549 38.549 0 0 1 18.79 2.043A14.148 14.148 0 0 1 82.966 6.9a4.214 4.214 0 0 0 4.959 1.021 4.064 4.064 0 0 1 3.172.054c2.582.915 2.582.887 1.8 3.549l-2.069 7.046c-.214.726-.511 1.021-1.291.753a7.971 7.971 0 0 0-1.747-.457 4.075 4.075 0 0 1-2.917-1.9c-1.211-1.639-3.037-1.505-4.784-1.317a6.11 6.11 0 0 0-5.325 4.251 168.735 168.735 0 0 0-5.484 17.231l-.511 1.586zM52.225 91.582c-3.9-.026-6.451-2.553-6.316-6.237a6.378 6.378 0 0 1 .43-1.855l15.294-43.411c.591-1.721.214-1.774 2.284-1.167l3.387.941c.831.19 1.05.54.831 1.4l-3.118 13.302L57.331 86.6a11.115 11.115 0 0 1-1.155 2.876 4.051 4.051 0 0 1-3.939 2.124zM.077 27.094c-.242-.564.108-.753.807-.875l55-9.005 9.005-1.505c.108-.026.214-.08.3-.054l.967.376c-.242.242-.457.671-.753.726l-7.23 1.237L42.708 20.5l-16.64 2.742-19.032 3.095-4.65.726c-.887.108-1.167.511-1.05 1.4l6.978 46.479 1.451 10.027c.108.779.35.967 1.167.831l23.119-3.629 11.424-1.721c.268-.026.618.268.915.43-.242.214-.457.54-.726.591l-20.912 3.256-14.676 2.338c-.831.134-1.075-.19-1.167-.887L7.43 76.23l-2.366-15.7L2.78 44.924.076 27.109zm76.611-8.924 9.462 56.612-5.269.875-17.15 2.743-2.284.3c-.242.026-.511-.242-.753-.376.19-.214.376-.54.591-.591l7.337-1.211L84.1 74.1c.7-.108.779-.511.7-1.075l-1.9-11.183-5.826-35.057L76 20.253a8.378 8.378 0 0 1 .242-2.042 2.221 2.221 0 0 1 .43-.026z" transform="translate(0 -.916)" style="fill:#235ee1"/>
    <path data-name="Path 3312" d="m52.415 45.505-2.526-3.011L32.47 21.473c-1.532-1.828-1.451-3.817.19-5.269a3.671 3.671 0 0 1 5.455.4L54.889 36.58a1 1 0 0 1-.08 1.586l-3.387-4.006-13.9-16.628c-1.021-1.211-2.071-1.561-3.279-1.075a2.5 2.5 0 0 0-1.721 2.661 3.333 3.333 0 0 0 .807 1.667L52.5 43.9a.984.984 0 0 1-.08 1.586zM33.867 34.172l-.321.915-9.773 24.7c-.376.941-.726 1.155-1.667.726l-5.215-2.15c-.591-.242-.753-.511-.484-1.129l10.162-24.969c.214-.54.484-.753 1.075-.511l5.564 2.046a2.246 2.246 0 0 1 .645.376zm-6.344-1.342-1.291 3.2L17.9 56.432c-.321.807-.146 1.129.591 1.4l3.172 1.291c.807.4 1.129.242 1.451-.591l9.437-23.87-5.026-1.828zm24.06 12.89-22.876 3.763a5.881 5.881 0 0 1 .134-.875l2.178-5.941a1.376 1.376 0 0 1 1.291-.915L43.1 39.9a6.856 6.856 0 0 0 1.291-.214c1.692-.671 2.688.054 3.629 1.425.995 1.532 2.232 2.917 3.574 4.595zm-21.4 2.446 19.435-3.209-3.2-4.005a1.258 1.258 0 0 0-.941-.3l-2.768.43-9.569 1.667c-.4.08-.995.321-1.129.645-.671 1.505-1.211 3.063-1.828 4.784zm-8.817-4.838-.35 1.05-2.5 5.805a1.454 1.454 0 0 1-1.371.967l-6.666.915c-.753.108-1.1 0-1.211-.831l-.831-5.861 12.93-2.043zM19.7 44.7l-9.138 1.478c-.3.054-.779.54-.779.779a25.454 25.454 0 0 0 .54 3.467.934.934 0 0 0 .726.484l5.455-.753c.35-.054.875-.242.995-.511l2.188-4.959zm48.922 15.4c1.05-3.172-.807-8.387-3.763-10.4a1.377 1.377 0 0 0-2.042.054 8.241 8.241 0 0 1-1.075.726 1.676 1.676 0 0 1 .807-1.855 1.622 1.622 0 0 1 1.908-.35c2.917 1.505 4.328 4.113 5.108 7.124a9.14 9.14 0 0 1-1.021 7.731 2.629 2.629 0 0 1-.19.242c-.054.054-.108.054-.268.134a3.636 3.636 0 0 1-.242-.831 3.571 3.571 0 0 0-2.366-3.307l-2.822-1.317a6.6 6.6 0 0 1-1.8-1.4c-.268-.3-.214-.887-.321-1.4l8.091 4.851zM14.567 71.366l.484-4.959.726-6.8c.08-.831.3-1.075 1.1-.726l5.134 2.071c.268.108.511.268.915.484L14.863 71.5a2.432 2.432 0 0 1-.3-.134zm1.371-3.119c.08.026.146.026.214.054l5.109-6.501-4.434-1.747-.887 8.2zM31.9 25.022a18.531 18.531 0 0 1 2.957 1.342 2.464 2.464 0 0 1 .915 3.333l-1.288 3.063c-.214.564-.511.779-1.155.54l-5.376-1.99c-.645-.214-.7-.564-.457-1.129l1.237-2.957a3.4 3.4 0 0 1 3.172-2.188zm-3.279 5.349 4.49 1.639c.146.054.54-.19.645-.4l1.05-2.392a1.347 1.347 0 0 0-.457-1.855 8.867 8.867 0 0 0-2.446-.995 1.733 1.733 0 0 0-2.1 1.129l-1.167 2.876zm34.811 13.2c-.214-1.021.35-1.155.941-1.237l5-.671L68.6 37.5c-.026-.146-.484-.376-.726-.35l-3.119.376c-.3-.831.108-1.075.645-1.155l3.387-.43a1 1 0 0 1 .779.645l.967 5.324c.026.214-.242.7-.4.726l-6.71.941z" transform="translate(3.87 5.618)" style="fill:#235ee1"/>
    <path data-name="Path 3313" d="m27.1 29.35 5.026 1.828-9.437 23.87c-.321.831-.671.995-1.451.591a26.96 26.96 0 0 0-3.172-1.291c-.753-.268-.915-.591-.591-1.4l8.333-20.4 1.291-3.2zm2.662 15.308 1.8-4.758c.134-.321.726-.564 1.129-.645l9.569-1.667 2.768-.43a1.28 1.28 0 0 1 .941.3l3.2 4.005-19.408 3.2zM19.274 41.19l-2.188 4.92a1.489 1.489 0 0 1-.995.511l-5.455.753c-.242.026-.7-.268-.726-.484a24.843 24.843 0 0 1-.54-3.467c-.026-.242.457-.726.779-.779l9.14-1.451zm-3.763 23.546.915-8.2 4.434 1.747-5.108 6.505a.773.773 0 0 1-.242-.054zM28.2 26.862l1.167-2.849a1.748 1.748 0 0 1 2.1-1.129 8.081 8.081 0 0 1 2.446.995 1.355 1.355 0 0 1 .457 1.855l-1.05 2.392c-.108.19-.484.457-.645.4l-4.49-1.667z" transform="translate(4.297 9.127)" style="fill:#235ee1"/>
</svg>
