<svg xmlns="http://www.w3.org/2000/svg" width="94.142" height="90.694" viewBox="0 0 94.142 90.694">
    <g data-name="Group 3208">
        <path data-name="Path 3304" d="M5.978 30.509c-8.335 11.98-7.3 27.566-.93 40.3.151.305.31.605.466.906.1.19.194.386.3.574.059.112.124.222.186.33.109.2.22.4.332.593q.3.524.608 1.043c.115.19.228.381.347.571.229.371.465.737.706 1.1.1.156.2.313.3.464.332.5.671.989 1.022 1.475a.382.382 0 0 0 .029.039c.055.078.116.154.172.232.3.417.615.83.931 1.238l.35.447q.423.531.861 1.057a55.186 55.186 0 0 0 1.528 1.763l.024.024c.017.02.032.032.046.051.4.435.806.859 1.218 1.284.128.132.259.264.391.393q.48.483.973.955c.133.127.265.256.4.378q.657.619 1.333 1.213a.136.136 0 0 0 .021.017c.077.068.156.132.232.2.4.344.8.686 1.211 1.023l.5.4q.5.4 1.01.789l.54.41q.562.414 1.133.813c.139.1.273.2.413.293l.114.081c.361.249.731.488 1.1.728.159.105.316.215.476.317.566.359 1.141.713 1.722 1.055.157.09.317.178.476.269.427.247.857.488 1.293.725.236.127.477.247.715.369.308.161.613.325.925.481l.214.1c.126.061.253.12.378.183q.727.348 1.466.679l.31.139q.848.37 1.71.71c.138.056.277.11.416.164.532.205 1.072.408 1.614.6l.2.071c.594.208 1.2.4 1.8.588.144.041.289.088.435.129a17.5 17.5 0 0 0 1.858.525c40.31 7.351 52.019-24.224 52.019-24.224C82.035 87.38 64.579 90.759 48.04 87c-.626-.142-1.234-.337-1.846-.518l-.46-.139q-.9-.275-1.777-.579l-.244-.088a57.277 57.277 0 0 1-1.567-.581l-.439-.173q-.853-.337-1.692-.7c-.115-.049-.225-.1-.338-.149-.48-.217-.955-.437-1.427-.664-.137-.066-.273-.129-.413-.2-.371-.181-.738-.374-1.1-.562-.245-.129-.494-.251-.737-.386a42.673 42.673 0 0 1-1.323-.742c-.148-.083-.3-.163-.447-.249-.581-.342-1.155-.7-1.723-1.055-.157-.1-.31-.207-.465-.31a50.095 50.095 0 0 1-1.226-.815c-.134-.091-.263-.188-.4-.278q-.585-.414-1.159-.838a57.796 57.796 0 0 1-3.326-2.68l-.143-.12a64.82 64.82 0 0 1-1.37-1.245 45.96 45.96 0 0 1-.386-.371 42.622 42.622 0 0 1-.984-.964c-.129-.129-.259-.256-.386-.386q-.615-.63-1.207-1.277l-.06-.063a50.399 50.399 0 0 1-1.224-1.394l-.321-.381a47.63 47.63 0 0 1-.881-1.089c-.108-.132-.216-.267-.323-.4-.347-.45-.686-.9-1.018-1.355-9.182-12.525-12.481-29.8-5.142-43.987" transform="translate(0 -9.208)" style="fill:#0868ac"/>
        <path data-name="Path 3305" d="M31.852 20.416c-6.028 8.674-5.7 20.286-1 29.46a38.378 38.378 0 0 0 2.666 4.451 21.172 21.172 0 0 0 3.1 3.875c.435.479.889.945 1.353 1.4.117.12.237.234.356.352.45.437.908.867 1.382 1.284.02.015.037.034.056.049s.01.007.013.013c.524.459 1.064.9 1.614 1.335.122.093.243.19.366.286.551.422 1.112.837 1.688 1.233l.049.037c.254.176.513.339.77.508.123.081.24.166.365.242q.617.4 1.251.767c.06.037.118.068.177.1.365.21.735.417 1.106.618.129.073.261.137.393.205.256.134.513.271.774.4.039.02.079.037.117.054.531.261 1.067.513 1.614.752.117.051.238.1.356.146.437.186.879.366 1.323.537.188.071.378.139.566.208.4.149.807.286 1.215.422.184.059.365.12.549.176a13.255 13.255 0 0 0 1.757.508c31.123 5.156 38.308-18.806 38.308-18.806-6.477 9.329-19.02 13.779-32.4 10.305a38.73 38.73 0 0 1-2.293-.681q-.621-.2-1.233-.425a27.992 27.992 0 0 1-.557-.208q-.67-.256-1.327-.535c-.12-.051-.24-.1-.358-.151q-.824-.359-1.624-.754c-.275-.134-.544-.276-.814-.415l-.47-.242a36.88 36.88 0 0 1-1.03-.581c-.081-.046-.165-.09-.247-.139q-.632-.37-1.248-.762c-.127-.081-.249-.168-.376-.251a45.176 45.176 0 0 1-.808-.535c-.574-.4-1.132-.811-1.682-1.23-.127-.1-.254-.2-.378-.3a37.528 37.528 0 0 1-12.709-18.11c-2.314-7.434-1.815-15.779 2.194-22.551" transform="translate(0 -9.208)" style="fill:#0868ac"/>
        <path data-name="Path 3306" d="M53.613 12.875a18.137 18.137 0 0 0-1.437 17.5A24.642 24.642 0 0 0 66.323 43.6c.256.1.513.181.773.269.114.034.226.073.341.107a9.735 9.735 0 0 0 1.108.32c17.185 3.32 21.846-8.818 23.087-10.6-4.083 5.879-10.945 7.29-19.364 5.247-.665-.162-1.4-.4-2.037-.629a24.644 24.644 0 0 1-6.66-3.593c-7.534-5.716-12.214-16.621-7.3-25.5" transform="translate(0 -9.208)" style="fill:#0868ac"/>
    </g>
</svg>
