<svg xmlns="http://www.w3.org/2000/svg" width="100.781" height="100.759" viewBox="0 0 100.781 100.759">
    <defs>
        <radialGradient id="radial-gradient" cx=".5" cy=".5" r=".5" gradientTransform="matrix(1 0 0 -1 0 .886)" gradientUnits="objectBoundingBox">
            <stop offset="0" stop-color="#fff" stop-opacity=".102"/>
            <stop offset="1" stop-color="#fff" stop-opacity="0"/>
        </radialGradient>
        <style>
            .cls-1{fill:#01579b}.cls-2{fill:#40c4ff}.cls-4{fill:#fff;opacity:.2}
        </style>
    </defs>
    <g id="Group_327" data-name="Group 327" transform="translate(-1.88 -.59)">
        <path id="Path_1184" data-name="Path 1184" class="cls-1" d="M22.428 86.84 5.2 69.608a11.719 11.719 0 0 1-3.32-7.957A13.391 13.391 0 0 1 3.2 57.01l15.912-33.14z" transform="translate(0 -6.048)"/>
        <path id="Path_1185" data-name="Path 1185" class="cls-2" d="M87.474 21.138 70.242 3.906C68.739 2.4 65.6.59 62.951.59a12.268 12.268 0 0 0-5.966 1.325L25.17 17.822z" transform="translate(-6.05)"/>
        <path id="Path_1186" data-name="Path 1186" class="cls-2" d="M51.121 126.93h41.763v-17.9l-31.156-9.94-28.5 9.941z" transform="translate(-8.144 -25.588)"/>
        <path id="Path_1187" data-name="Path 1187" d="M25.17 77.568c0 5.315.666 6.625 3.316 9.282l2.65 2.65H90.79L61.626 56.361 25.17 23.88z" transform="translate(-6.05 -6.05)" style="fill:#29b6f6"/>
        <path id="Path_1188" data-name="Path 1188" class="cls-1" d="M78.189 23.87H25.16l65.62 65.62h17.9v-41.1L87.472 27.186C84.5 24.2 81.846 23.87 78.189 23.87z" transform="translate(-6.048 -6.048)"/>
        <path id="Path_1189" data-name="Path 1189" class="cls-4" d="M29.142 87.507c-2.65-2.665-3.316-5.285-3.316-9.941v-53.03l-.666-.666v53.688c.007 4.663.007 5.951 3.982 9.949l1.992 1.993z" transform="translate(-6.048 -6.048)"/>
        <path id="Path_1190" data-name="Path 1190" d="M130.819 56.11v41.1h-17.9l.666.659h17.9V56.776z" transform="translate(-28.846 -14.423)" style="fill:#263238;opacity:.2"/>
        <path id="Path_1191" data-name="Path 1191" class="cls-4" d="M87.474 27.186c-3.287-3.287-5.981-3.316-9.941-3.316H25.17l.666.666h51.7c1.969 0 6.965-.333 9.934 2.65z" transform="translate(-6.05 -6.048)"/>
        <path id="Path_1192" data-name="Path 1192" d="M101.975 41.687 81.427 21.138 64.194 3.906C62.692 2.4 59.553.59 56.9.59a12.268 12.268 0 0 0-5.966 1.325L19.122 17.822 3.215 50.962A13.391 13.391 0 0 0 1.89 55.6a11.72 11.72 0 0 0 3.316 7.96l15.885 15.767a17.909 17.909 0 0 0 1.355 1.466l.666.666L25.1 83.45l17.232 17.232.666.666h41.767V83.45h17.9v-41.1z" transform="translate(-.003)" style="fill:url(#radial-gradient);opacity:.2"/>
    </g>
</svg>
