<svg xmlns="http://www.w3.org/2000/svg" width="81.514" height="100.697" viewBox="0 0 81.514 100.697">
    <g data-name="Group 307">
        <path data-name="Path 1080" d="M54.9 4.034 86.1 4 33.756 56.321 20.113 69.888 4.59 54.346zm-.29 46.717c.4-.535 1.15-.271 1.715-.34l29.75.008-27.112 27.087L43.36 62z" transform="translate(-4.59 -4)" style="fill:#44d1fd"/>
        <path data-name="Path 1082" d="m65.36 171.344 15.553-15.534 15.6 15.507.065.069L80.917 186.9z" transform="translate(-42.143 -97.812)" style="fill:#1fbcfd"/>
        <path data-name="Path 1083" d="m106.08 212.1 15.664-15.519 27.06 27.087c-10.193.023-20.382-.008-30.571.015-.581.13-.94-.4-1.31-.73L106.08 212.1z" transform="translate(-67.306 -123.005)" style="fill:#08589c"/>
    </g>
</svg>
