<svg id="Group_308" data-name="Group 308" xmlns="http://www.w3.org/2000/svg" width="100.94" height="100.939" viewBox="0 0 100.94 100.939">
    <defs>
        <style>
            .cls-1{fill:#478aff}
        </style>
    </defs>
    <path id="Path_1171" data-name="Path 1171" class="cls-1" d="M63 40a23 23 0 1 0 23 23 23.028 23.028 0 0 0-23-23z" transform="translate(-12.531 -12.51)"/>
    <circle id="Ellipse_473" data-name="Ellipse 473" class="cls-1" cx="10.477" cy="10.477" transform="translate(73.016 8.575)" r="10.477"/>
    <path id="Path_1172" data-name="Path 1172" class="cls-1" d="m96.385 29.544-.439-.961-.687.8a15.792 15.792 0 0 1-6.323 4.353l-.687.247.275.687a41.257 41.257 0 1 1-20.4-21.428l.645.309.282-.687a15.789 15.789 0 0 1 4.655-6.1l.824-.687-.941-.487A49.906 49.906 0 0 0 50.453-.04a50.471 50.471 0 1 0 45.925 29.522z" transform="translate(.009 .04)"/>
</svg>
