<svg xmlns="http://www.w3.org/2000/svg" width="83.264" height="100.939" viewBox="0 0 83.264 100.939">
    <defs>
        <style>
            .cls-1{fill:#070707}
        </style>
    </defs>
    <g id="ios.592a3ddd_1_" data-name="ios.592a3ddd (1)" transform="translate(.001)">
        <path id="Path_1072" data-name="Path 1072" class="cls-1" d="M52.691 0h.727a21.732 21.732 0 0 1-5.507 16.417c-3.278 3.855-7.768 7.594-15.028 7.027-.484-7.072 2.269-12.035 5.606-15.908A24.242 24.242 0 0 1 52.691 0z" transform="translate(8.591)"/>
        <path id="Path_1073" data-name="Path 1073" class="cls-1" d="M83.264 68.957v.2a59.1 59.1 0 0 1-8.5 16.328c-3.242 4.445-7.216 10.427-14.311 10.427-6.131 0-10.2-3.927-16.486-4.034-6.646-.107-10.3 3.283-16.378 4.137h-2.075c-4.462-.643-8.064-4.163-10.687-7.335A64.131 64.131 0 0 1 0 51.709v-4.552c.471-11.088 5.88-20.1 13.069-24.472a22.138 22.138 0 0 1 14.818-3.418 37.384 37.384 0 0 1 7.261 2.073c2.112.809 4.754 2.242 7.256 2.167 1.7-.049 3.381-.929 5.09-1.55 5-1.8 9.911-3.864 16.378-2.895 7.772 1.17 13.288 4.61 16.7 9.917-6.578 4.168-11.772 10.449-10.888 21.175.789 9.746 6.476 15.446 13.58 18.803z" transform="translate(-.001 4.924)"/>
    </g>
</svg>
