<svg xmlns="http://www.w3.org/2000/svg" width="90.695" height="90.695" viewBox="0 0 90.695 90.695">
    <g transform="translate(.892)">
        <circle data-name="Ellipse 475" cx="44.725" cy="44.725" r="44.725" transform="translate(.355)" style="fill:#5c2d91"/>
        <path data-name="Path 1219" d="M14.079 9a44.725 44.725 0 1 0 63.146 63.145z" transform="translate(0 3.579)" style="opacity:.1;fill:#fff"/>
        <path data-name="Path 1220" d="M7.961 38.383a1.887 1.887 0 0 1-1.4-.587 1.929 1.929 0 0 1-.573-1.4A1.957 1.957 0 0 1 6.563 35a1.873 1.873 0 0 1 1.4-.6 1.915 1.915 0 0 1 1.4.6 1.943 1.943 0 0 1 .587 1.4 2 2 0 0 1-1.985 1.985z" transform="translate(2.736 13.679)" style="fill:#fff"/>
        <path data-name="Path 1221" d="M33.107 44.249h-3.661L16.35 23.927a8.386 8.386 0 0 1-.811-1.593h-.112a26.164 26.164 0 0 1 .14 3.494v18.421H12.59V18.77h3.871l12.747 19.958q.8 1.244 1.034 1.705h.07a26.947 26.947 0 0 1-.182-3.746V18.77h2.977z" transform="translate(5.361 7.464)" style="fill:#fff"/>
        <path data-name="Path 1222" d="M45.543 44.249H32V18.77h12.914v2.7h-9.867v8.47h9.2v2.683h-9.2v8.833h10.51z" transform="translate(13.079 7.464)" style="fill:#fff"/>
        <path data-name="Path 1223" d="M61.038 21.467h-7.407v22.782h-2.977V21.467H43.33v-2.7h17.708z" transform="translate(17.584 7.464)" style="fill:#fff"/>
        <path data-name="Path 1224" d="M28.615 52.646a6.89 6.89 0 0 1-3.243.685 5.227 5.227 0 0 1-4.011-1.607 5.954 5.954 0 0 1-1.509-4.193 6.233 6.233 0 0 1 1.691-4.556 5.758 5.758 0 0 1 4.3-1.733 6.891 6.891 0 0 1 2.8.489v1.4a5.591 5.591 0 0 0-2.8-.7 4.277 4.277 0 0 0-3.284 1.4 5.087 5.087 0 0 0-1.258 3.606 4.85 4.85 0 0 0 1.174 3.424 4 4 0 0 0 3.089 1.272 5.786 5.786 0 0 0 3.061-.783z" transform="translate(8.246 16.398)" style="fill:#f2f2f2"/>
        <path data-name="Path 1225" d="M31.373 52.409a3.885 3.885 0 0 1-2.973-1.244 4.347 4.347 0 0 1-1.1-3.117 4.528 4.528 0 0 1 1.16-3.3 4.193 4.193 0 0 1 3.117-1.188 3.76 3.76 0 0 1 2.921 1.16 4.584 4.584 0 0 1 1.048 3.2 4.5 4.5 0 0 1-1.132 3.215 3.969 3.969 0 0 1-3.033 1.272zm.1-7.645a2.558 2.558 0 0 0-2.041.881 3.62 3.62 0 0 0-.755 2.432 3.424 3.424 0 0 0 .755 2.348 2.586 2.586 0 0 0 2.041.867 2.46 2.46 0 0 0 2-.839 3.662 3.662 0 0 0 .7-2.4 3.718 3.718 0 0 0-.7-2.418 2.446 2.446 0 0 0-2-.867z" transform="translate(11.204 17.32)" style="fill:#f2f2f2"/>
        <path data-name="Path 1226" d="M39.109 45.146a1.649 1.649 0 0 0-1.02-.266 1.719 1.719 0 0 0-1.4.811 3.746 3.746 0 0 0-.573 2.208v4.277h-1.4V43.79h1.4v1.747A2.935 2.935 0 0 1 37 44.14a2 2 0 0 1 1.314-.489 2.194 2.194 0 0 1 .8.112z" transform="translate(14.161 17.356)" style="fill:#f2f2f2"/>
        <path data-name="Path 1227" d="M45.814 48.353H39.9a3.131 3.131 0 0 0 .713 2.152 2.6 2.6 0 0 0 1.985.755 4.193 4.193 0 0 0 2.6-.936v1.258a4.864 4.864 0 0 1-2.921.8 3.55 3.55 0 0 1-2.8-1.146 4.682 4.682 0 0 1-1.02-3.215 4.584 4.584 0 0 1 1.1-3.187 3.564 3.564 0 0 1 2.8-1.23 3.159 3.159 0 0 1 2.544 1.062 4.445 4.445 0 0 1 .894 2.963zm-1.4-1.132a2.8 2.8 0 0 0-.559-1.8 1.915 1.915 0 0 0-1.537-.643 2.166 2.166 0 0 0-1.607.685 3.089 3.089 0 0 0-.825 1.775z" transform="translate(15.645 17.336)" style="fill:#f2f2f2"/>
    </g>
</svg>
