<svg xmlns="http://www.w3.org/2000/svg" width="100.941" height="100.939" viewBox="0 0 100.941 100.939">
    <defs>
        <style>
            .cls-1{fill:#f1592a}
        </style>
    </defs>
    <g id="Layer_2" data-name="Layer 2" transform="translate(.001)">
        <g id="Layer_1" data-name="Layer 1" transform="translate(-.001)">
            <path id="path8" class="cls-1" d="M50.332 100.939C23.211 100.939.212 78.033 0 50.741a49.75 49.75 0 0 1 14.531-35.5A50.582 50.582 0 0 1 50.464 0a49.869 49.869 0 0 1 35.4 14.7A49.922 49.922 0 0 1 100.94 50a50.714 50.714 0 0 1-50.2 50.939zm.159-98.3a47.953 47.953 0 0 0-34.044 14.468 47.121 47.121 0 0 0-13.8 33.607c.2 25.866 22 47.557 47.676 47.557h.343A48.072 48.072 0 0 0 98.3 50.014 47.306 47.306 0 0 0 84 16.579 47.081 47.081 0 0 0 50.49 2.642z" transform="translate(.001)"/>
            <path id="path10" class="cls-1" d="M5.636 47.281V17.8h7.173v2.642H9v24.25h3.8v2.642z" transform="translate(5.687 17.951)"/>
            <path id="path12" class="cls-1" d="M25.319 29.07c0 5.377-3.263 8.441-7.688 8.441s-7.371-3.448-7.371-8.164c0-4.927 3.091-8.4 7.609-8.4s7.45 3.618 7.45 8.123zm-11.968.238c0 3.263 1.638 5.852 4.452 5.852s4.425-2.642 4.425-5.971c0-3.025-1.493-5.879-4.425-5.879s-4.478 2.761-4.478 6.063z" transform="translate(10.35 21.129)"/>
            <path id="path14" class="cls-1" d="M18.992 21.419a24.466 24.466 0 0 1 4.254-.357 7.6 7.6 0 0 1 4.6 1.017 3.382 3.382 0 0 1 1.664 3 3.725 3.725 0 0 1-2.642 3.474 4.042 4.042 0 0 1 3.232 3.963 4.161 4.161 0 0 1-1.546 3.3c-1.136 1-3.025 1.493-5.945 1.493a28.283 28.283 0 0 1-3.593-.211zm2.908 6.328h1.493c2.021 0 3.157-.951 3.157-2.312s-1.136-2.193-3-2.193a7.926 7.926 0 0 0-1.664.119zm0 7.371a12.88 12.88 0 0 0 1.546.066c1.876 0 3.54-.713 3.54-2.642S25.373 29.9 23.352 29.9H21.9z" transform="translate(19.16 21.211)"/>
            <path id="path16" class="cls-1" d="M29.825 21.116h2.919v10.423c0 4.425-2.14 5.9-5.284 5.9a7.807 7.807 0 0 1-2.47-.423l.357-2.351a6.407 6.407 0 0 0 1.81.291c1.664 0 2.642-.766 2.642-3.54z" transform="translate(25.21 21.302)"/>
            <path id="path18" class="cls-1" d="M36.038 25.437v2.021h-6.076v-2.021z" transform="translate(30.226 25.66)"/>
            <path id="path20" class="cls-1" d="M46.238 36.806a10.132 10.132 0 0 1-4.135.713c-5.086 0-8.177-3.184-8.177-8.058a8.058 8.058 0 0 1 8.56-8.468 9.247 9.247 0 0 1 3.963.713l-.649 2.326a7.781 7.781 0 0 0-3.144-.621c-3.263 0-5.614 2.048-5.614 5.9 0 3.514 2.074 5.786 5.588 5.786a8.19 8.19 0 0 0 3.184-.594z" transform="translate(34.213 21.161)"/>
            <path id="path22" class="cls-1" d="M48.216 17.756v29.565h-7.173v-2.643h3.8V20.4h-3.8v-2.644z" transform="translate(41.404 17.912)"/>
        </g>
    </g>
</svg>
