<svg xmlns="http://www.w3.org/2000/svg" width="90.695" height="90.602" viewBox="0 0 90.695 90.602">
    <path data-name="Path 3307" d="M37.2 4.88a45.343 45.343 0 0 1 56.807 42.847A45.327 45.327 0 1 1 3.68 43.461C5.476 25.3 19.507 9.275 37.2 4.88z" transform="translate(-3.333 -3.449)" style="fill:#010101"/>
    <path data-name="Path 3308" d="M46.969 23.522c22.171-8.877 49.364 7.513 51.659 31.286C102.2 76.2 84.447 97.936 62.774 98.564c-20.612 2.057-40.53-15.416-41.115-36.114-1.537-16.757 9.505-33.385 25.31-38.928z" transform="translate(-14.904 -14.665)" style="fill:#fff"/>
    <path data-name="Path 3309" d="M84.112 78.994c9.938-8.119 19.659-16.52 29.814-24.4-5.326 8.184-10.8 16.26-16.13 24.444-4.568.022-9.136.022-13.683-.043zm8.4 4.525c4.59 0 9.158 0 13.727.065-10 8.076-19.681 16.541-29.857 24.4C81.709 99.8 87.187 91.7 92.513 83.519z" transform="translate(-49.817 -35.993)" style="fill:#010101"/>
</svg>
