<svg data-name="Group 310" xmlns="http://www.w3.org/2000/svg" width="100.939" height="100.939" viewBox="0 0 100.939 100.939">
    <g data-name="Group 309">
        <path data-name="Path 1173" d="M100.932 27.958c-.006-1.015-.017-2.03-.045-3.046a44.179 44.179 0 0 0-.583-6.629 22.356 22.356 0 0 0-2.078-6.3 21.2 21.2 0 0 0-9.266-9.271 22.373 22.373 0 0 0-6.3-2.076 44.146 44.146 0 0 0-6.633-.584 147.014 147.014 0 0 0-3.046-.045C71.776 0 70.57 0 69.365 0h-37.79c-1.206 0-2.411 0-3.616.007-1.016.006-2.032.018-3.046.045a77.36 77.36 0 0 0-1.662.061 38.48 38.48 0 0 0-4.97.523A23.068 23.068 0 0 0 13.5 2.011q-.768.317-1.523.7a21.168 21.168 0 0 0-4.142 2.77q-.635.541-1.223 1.131a21.176 21.176 0 0 0-3.9 5.367 22.366 22.366 0 0 0-2.077 6.3 44.268 44.268 0 0 0-.583 6.629c-.028 1.016-.04 2.031-.046 3.046C0 29.164 0 30.37 0 31.575v37.789c0 1.207 0 2.411.007 3.618.007 1.015.018 2.03.046 3.044a44.229 44.229 0 0 0 .583 6.63 22.372 22.372 0 0 0 2.077 6.3 21.212 21.212 0 0 0 9.267 9.267 22.366 22.366 0 0 0 6.3 2.076 44.111 44.111 0 0 0 6.632.584c1.014.027 2.03.039 3.046.045 1.2.009 2.41.007 3.616.007h37.791c1.205 0 2.411 0 3.616-.007 1.015-.006 2.03-.018 3.046-.045a44.147 44.147 0 0 0 6.632-.584 22.372 22.372 0 0 0 6.3-2.076 21.21 21.21 0 0 0 9.267-9.267 22.361 22.361 0 0 0 2.078-6.3 44.162 44.162 0 0 0 .583-6.63c.028-1.015.039-2.029.045-3.044.008-1.207.007-2.411.007-3.618V31.575c0-1.205.001-2.411-.007-3.617z" style="fill:#f05138"/>
        <path data-name="Path 1174" d="m75.813 56.406-.007-.008c.112-.38.227-.758.325-1.147C80.32 38.56 70.095 18.826 52.792 8.436c7.582 10.279 10.935 22.729 7.956 33.617a28.258 28.258 0 0 1-.938 2.809 23.312 23.312 0 0 0-1.514-.895 218.191 218.191 0 0 1-35.865-29.424 223.378 223.378 0 0 0 21.791 27.431c-5.58-3.132-21.132-14.447-30.978-23.458a44.7 44.7 0 0 0 4.23 5.83c8.226 10.426 18.944 23.291 31.79 33.17-9.025 5.523-21.779 5.953-34.476.006a52.086 52.086 0 0 1-8.826-5.265A52.864 52.864 0 0 0 29.69 72.6c12.015 5.163 23.963 4.813 32.862.085l-.007.01c.041-.026.092-.054.134-.08.365-.2.728-.4 1.083-.608 4.276-2.219 12.721-4.471 17.254 4.349 1.11 2.161 3.469-9.278-5.203-19.95z" transform="translate(4.171 5.901)" style="fill:#fff"/>
    </g>
</svg>
