<svg xmlns="http://www.w3.org/2000/svg" width="100.45" height="100.697" viewBox="0 0 100.45 100.697">
    <g data-name="Group 312">
        <path data-name="Path 1177" d="m-1564.351-447.068-6.161-6.824c-.51.732-1.024 1.409-1.472 2.126-1.156 1.85-2.318 3.7-3.415 5.584a48.052 48.052 0 0 0-3.546 7.612 41.017 41.017 0 0 0-1.7 5.7 13.027 13.027 0 0 0 .558 7.679.264.264 0 0 1-.009.232c-.25-.214-.516-.414-.749-.646q-2.98-2.968-5.95-5.946-3.167-3.159-6.341-6.312c-.552-.55-1.14-1.072-1.636-1.669a8.78 8.78 0 0 1-1.986-4.9 17.642 17.642 0 0 1 .579-5.418 40.123 40.123 0 0 1 4.325-11.058 574.31 574.31 0 0 1 4.426-7.768c.577-1 1.22-1.957 1.832-2.934.093-.148.181-.3.27-.445-.425-.644-.844-1.257-1.241-1.885a96.208 96.208 0 0 1-5.019-8.773 43.907 43.907 0 0 1-3.69-10.233 15.352 15.352 0 0 1-.317-4.807c.061-.6.105-1.2.123-1.8a4.791 4.791 0 0 1 2.041-3.8 6.329 6.329 0 0 1 4.052-1.376 31.108 31.108 0 0 1 3.61.16 24.658 24.658 0 0 1 3.725.85c1.219.368 2.4.874 3.589 1.331a2.274 2.274 0 0 1 1.191 1.091q.75 1.379 1.51 2.753 2.1 3.8 4.2 7.59c.281.508.554 1.02.853 1.571l6.525-6.614a3.478 3.478 0 0 0-.314-.225c-2.724-1.562-5.435-3.147-8.178-4.676a44.8 44.8 0 0 0-8.092-3.637 25.236 25.236 0 0 0-5.766-1.192 22.591 22.591 0 0 0-4.462.053c-.418.051-.838.085-1.292.13.015-.236.187-.32.3-.434q2.713-2.747 5.433-5.487c1.761-1.778 3.507-3.572 5.285-5.333 1.235-1.223 2.5-2.418 3.778-3.6a6.115 6.115 0 0 1 3.36-1.471 12.163 12.163 0 0 1 5.093.5 67.637 67.637 0 0 1 13.693 5.516 62.593 62.593 0 0 1 6.056 3.762 13.51 13.51 0 0 0 1.736 1.024 2.232 2.232 0 0 0 2.053-.053 10.262 10.262 0 0 0 1.211-.766 80.9 80.9 0 0 1 6.963-4.419 53.476 53.476 0 0 1 9.616-4.263 29.4 29.4 0 0 1 5.971-1.259 9.149 9.149 0 0 1 4.944.709 8.333 8.333 0 0 1 2.437 1.688c1.545 1.568 3.06 3.164 4.611 4.726 2.425 2.444 4.874 4.865 7.3 7.306a19.514 19.514 0 0 1 1.72 1.987c-.46-.089-.922-.17-1.38-.267a16.142 16.142 0 0 0-4.548-.221 24.992 24.992 0 0 0-8.3 2.326c-1.2.531-2.4 1.07-3.558 1.685-2.522 1.339-5.019 2.727-7.524 4.1-1 .544-1.986 1.1-3.019 1.665l6.474 6.646c.269-.488.511-.914.741-1.346l3.8-7.14q.726-1.362 1.462-2.719a4.373 4.373 0 0 1 2.463-2.141 35.726 35.726 0 0 1 6.733-1.741 12.67 12.67 0 0 1 4.291-.035 6.007 6.007 0 0 1 4.25 3 8.494 8.494 0 0 1 1.066 3.806 19.879 19.879 0 0 1-.592 5.321 41.048 41.048 0 0 1-2.826 8.346 93.3 93.3 0 0 1-5.633 10.255c-.287.469-.558.95-.872 1.4a.667.667 0 0 0 .014.861 327.973 327.973 0 0 1 3.517 5.522 73.791 73.791 0 0 1 4.333 8 45.745 45.745 0 0 1 3.072 9.05 14.545 14.545 0 0 1 .348 4.545 9.469 9.469 0 0 1-2.073 5.1A20.534 20.534 0 0 1-1500.9-437c-1.487 1.346-2.951 2.716-4.305 4.2-.2.223-.42.434-.63.65q-2.372 2.446-4.746 4.891c-.52.533-1.055 1.05-1.591 1.567a1.116 1.116 0 0 1-.538.288c.026-.168.043-.339.079-.5a18.209 18.209 0 0 0 .333-5.239 22.413 22.413 0 0 0-1.437-6.358 73.088 73.088 0 0 0-8.445-15.951c-.06-.086-.128-.166-.237-.307-2.09 2.221-4.17 4.41-6.239 6.7.494.3.939.571 1.394.83 3.144 1.793 6.293 3.576 9.432 5.378a11.134 11.134 0 0 1 1.255.889 5.226 5.226 0 0 1 1.42 2.4 24.57 24.57 0 0 1 1.565 5.458c.135.873.193 1.759.282 2.64q.045.449.067.9a6.78 6.78 0 0 1-3.8 6.754 5.189 5.189 0 0 1-2.049.522 31.96 31.96 0 0 1-3.512-.024 22.462 22.462 0 0 1-4.179-.755 41.538 41.538 0 0 1-8.349-3.435c-3.771-1.993-7.33-4.332-10.934-6.6-.531-.334-.461-.331-.972.016-2.936 1.995-5.893 3.956-9 5.682a45.845 45.845 0 0 1-11.83 4.695 12.842 12.842 0 0 1-4.226.253 9.462 9.462 0 0 1-3.079-.747 7.335 7.335 0 0 1-3.9-4.094 11.159 11.159 0 0 1-.553-5.34 19.992 19.992 0 0 1 1.529-5.895 9.924 9.924 0 0 1 .893-1.743 6.082 6.082 0 0 1 2.132-1.73q5.235-2.96 10.481-5.9c.066-.044.122-.087.238-.163zm6.055-22.381c-3.851 4.56-7.546 9.14-11.059 13.928 2.8 3.129 5.615 6.213 8.365 9.432-.2.123-.343.218-.494.3q-2.578 1.44-5.159 2.876c-2.576 1.427-5.15 2.856-7.735 4.266a3.141 3.141 0 0 0-1.565 1.617 18.156 18.156 0 0 0-1.6 8.585 4.828 4.828 0 0 0 .729 2.256 5.267 5.267 0 0 0 4.274 2.416 13.75 13.75 0 0 0 4.263-.475 42.1 42.1 0 0 0 10.552-4.181 105.523 105.523 0 0 0 9.9-6.34c.286-.2.578-.395.864-.589 1.842 1.118 3.662 2.188 5.446 3.314a118.435 118.435 0 0 0 7.675 4.477 35.347 35.347 0 0 0 4.927 2.26 25.55 25.55 0 0 0 9.017 1.546 4.024 4.024 0 0 0 1.84-.458 4.006 4.006 0 0 0 2.149-3.507 17.99 17.99 0 0 0-.344-4.5 26.808 26.808 0 0 0-1.713-5.415 1.615 1.615 0 0 0-.711-.823c-.648-.368-1.284-.756-1.935-1.119q-5.156-2.882-10.316-5.758c-.569-.318-1.127-.654-1.717-1a2.655 2.655 0 0 1 .2-.3c1-1.079 2-2.161 3.013-3.232 1.633-1.728 3.277-3.446 4.911-5.173.228-.241.43-.505.633-.746-1.682-2.506-10.493-13.5-11.276-14.073-.062.049-.135.1-.2.156-1.18 1.1-2.375 2.188-3.535 3.31-2.091 2.024-4.158 4.074-6.241 6.106-.61.595-1.238 1.17-1.862 1.75a3.812 3.812 0 0 1-.356.266zm-25.455-4.858a100.355 100.355 0 0 1 11.428-13.432c-.212-.309-.413-.559-.566-.835-.845-1.518-1.672-3.047-2.518-4.565-1.259-2.262-2.534-4.516-3.787-6.781a1.222 1.222 0 0 0-.75-.614c-1.166-.369-2.313-.8-3.494-1.114a27.746 27.746 0 0 0-3.179-.6c-.945-.132-1.9-.172-2.855-.25a1.414 1.414 0 0 0-.263.016 4.392 4.392 0 0 0-2.361 1.014 2.077 2.077 0 0 0-.8 1.5c-.05.723-.143 1.444-.234 2.164a11.488 11.488 0 0 0 .1 3.443 35.892 35.892 0 0 0 2.915 8.809 80.4 80.4 0 0 0 4.6 8.4c.562.922 1.136 1.837 1.764 2.845zm63.1-13.393c4.186 4.105 7.635 8.76 11.192 13.339a1.1 1.1 0 0 0 .136-.146c1.707-2.885 3.453-5.747 4.973-8.739a38.528 38.528 0 0 0 3.741-10.258 14.313 14.313 0 0 0 .4-4.425 6.065 6.065 0 0 0-1.5-3.4 2.819 2.819 0 0 0-1.239-.8 9.052 9.052 0 0 0-2.354-.329 7.933 7.933 0 0 0-1.587.124 29.81 29.81 0 0 0-6.364 1.665 1.225 1.225 0 0 0-.656.51c-.13.212-.275.415-.391.633-.807 1.519-1.6 3.046-2.414 4.562-.8 1.5-1.621 2.995-2.434 4.491-.497.93-.998 1.848-1.502 2.773zm-35.709 16.012 9.49 9.73c3.4-3.3 6.714-6.6 10.014-9.881-1.08-1.747-8.626-9.279-9.877-9.855-3.215 3.294-6.595 6.451-9.626 10.006z" transform="translate(1596.799 521.96)" style="fill:#d22630"/>
    </g>
</svg>
