<svg xmlns="http://www.w3.org/2000/svg" width="113.073" height="100.879" viewBox="0 0 113.073 100.879">
    <path d="M74.626 56a8.967 8.967 0 0 0-7.581 4.4l-23.91 41.643a9.082 9.082 0 0 0 0 8.793l23.911 41.646a8.965 8.965 0 0 0 7.581 4.4h47.821a8.967 8.967 0 0 0 7.58-4.4l23.911-41.646a9.083 9.083 0 0 0 0-8.793L130.027 60.4a8.966 8.966 0 0 0-7.58-4.4zm.434 24.364a1.045 1.045 0 0 1 .2 0h8.248a1.087 1.087 0 0 1 .9.537l13.992 25a1.07 1.07 0 0 1 .133.4 1.074 1.074 0 0 1 .133-.4l13.958-25a1.092 1.092 0 0 1 .936-.537h8.248a1.131 1.131 0 0 1 .936 1.577l-13.659 24.5 13.661 24.459a1.132 1.132 0 0 1-.936 1.611h-8.248a1.092 1.092 0 0 1-.936-.571l-13.958-25a1.08 1.08 0 0 1-.133-.4 1.076 1.076 0 0 1-.133.4l-13.992 25a1.091 1.091 0 0 1-.9.571h-8.249a1.132 1.132 0 0 1-.935-1.611l13.658-24.465-13.658-24.5a1.128 1.128 0 0 1 .735-1.577z" transform="translate(-42 -56)" style="fill:#3498db;fill-rule:evenodd"/>
</svg>
