<svg xmlns="http://www.w3.org/2000/svg" width="92.021" height="98.149" viewBox="0 0 92.021 98.149">
    <path data-name="Path 3372" d="M5.468 24.106v51.915l44.255 21.532 44.766-21.7-.089-51.662L50.4 2.4z" style="fill:none;stroke:#ff6c1a;stroke-linecap:round;stroke-linejoin:round;stroke-miterlimit:10;stroke-width:3px" transform="translate(-3.968 -.904)"/>
    <path data-name="Line 372" transform="translate(7.766 60.202)" style="fill:none;stroke:#ff6c1a;stroke-linecap:round;stroke-linejoin:round;stroke-miterlimit:10;stroke-width:3px" d="m0 0 12.255 5.788"/>
    <path data-name="Line 373" transform="translate(7.713 66.851)" style="fill:none;stroke:#ff6c1a;stroke-linecap:round;stroke-linejoin:round;stroke-miterlimit:10;stroke-width:3px" d="m0 0 6.489 3.16"/>
    <path data-name="Line 374" transform="translate(2.777 23.649)" style="fill:none;stroke:#ff6c1a;stroke-linecap:round;stroke-linejoin:round;stroke-miterlimit:10;stroke-width:3px" d="M43.149 20.681 0 0"/>
    <path data-name="Line 375" transform="translate(45.862 44.585)" style="fill:none;stroke:#ff6c1a;stroke-linecap:round;stroke-linejoin:round;stroke-miterlimit:10;stroke-width:3px" d="M0 0v50.873"/>
    <path data-name="Line 376" transform="translate(46.979 23.649)" style="fill:none;stroke:#ff6c1a;stroke-linecap:round;stroke-linejoin:round;stroke-miterlimit:10;stroke-width:3px" d="M0 20.362 42.032 0"/>
    <path data-name="Line 377" transform="translate(31.755 9.224)" style="fill:none;stroke:#ff6c1a;stroke-linecap:round;stroke-linejoin:round;stroke-miterlimit:10;stroke-width:3px" d="m0 0 42.086 20.361"/>
    <path data-name="Line 378" transform="translate(20.394 15.096)" style="fill:none;stroke:#ff6c1a;stroke-linecap:round;stroke-linejoin:round;stroke-miterlimit:10;stroke-width:3px" d="m0 0 42.957 20.809"/>
    <path data-name="Path 3373" d="M67.766 37.638v17.234l10.723-5.361V32.787" style="fill:none;stroke:#ff6c1a;stroke-linecap:round;stroke-linejoin:round;stroke-miterlimit:10;stroke-width:3px" transform="translate(-3.968 -.904)"/>
</svg>
