<svg xmlns="http://www.w3.org/2000/svg" width="105.817" height="82.885" viewBox="0 0 105.817 82.885">
    <path data-name="Line 382" transform="translate(1.5 30.154)" style="fill:none;stroke:#ff6c1a;stroke-linecap:round;stroke-linejoin:round;stroke-miterlimit:10;stroke-width:3px" d="M0 0h102.816"/>
    <path data-name="Path 3384" d="M79.375 90.652H25.64a12.524 12.524 0 0 1-12.318-11.066L8.205 39.522H97.05l-5.365 40.14a12.523 12.523 0 0 1-12.31 10.99z" transform="translate(.079 -9.267)" style="fill:none;stroke:#ff6c1a;stroke-linecap:round;stroke-linejoin:round;stroke-miterlimit:10;stroke-width:3px"/>
    <path data-name="Path 3385" d="m30.442 40.636 20.35-28.046 21.945 28.02" transform="translate(1.584 -11.09)" style="fill:none;stroke:#ff6c1a;stroke-linecap:round;stroke-linejoin:round;stroke-miterlimit:10;stroke-width:3px"/>
    <path data-name="Path 3386" d="M32.514 71.929h-.685a3 3 0 0 1-3-3V57.361a3 3 0 0 1 3-3h.685a3 3 0 0 1 3 3v11.57a3 3 0 0 1-3 2.998z" transform="translate(1.475 -8.262)" style="fill:none;stroke:#ff6c1a;stroke-linecap:round;stroke-linejoin:round;stroke-miterlimit:10;stroke-width:3px"/>
    <path data-name="Path 3387" d="M50.531 71.929h-.685a3 3 0 0 1-3-3V57.361a3 3 0 0 1 3-3h.685a3 3 0 0 1 3 3v11.57a3 3 0 0 1-3 2.998z" transform="translate(2.695 -8.262)" style="fill:none;stroke:#ff6c1a;stroke-linecap:round;stroke-linejoin:round;stroke-miterlimit:10;stroke-width:3px"/>
    <path data-name="Path 3388" d="M68.074 71.929h-.685a3 3 0 0 1-3-3V57.361a3 3 0 0 1 3-3h.685a3 3 0 0 1 3 3v11.57a3 3 0 0 1-3 2.998z" transform="translate(3.882 -8.262)" style="fill:none;stroke:#ff6c1a;stroke-linecap:round;stroke-linejoin:round;stroke-miterlimit:10;stroke-width:3px"/>
</svg>
