<svg xmlns="http://www.w3.org/2000/svg" width="105.806" height="98.148" viewBox="0 0 105.806 98.148">
    <g transform="translate(-2.282 -5.691)">
        <path data-name="Path 3374" d="M97.713 26h-86.5V15.2a8.009 8.009 0 0 1 8.009-8.009H89.7a8.009 8.009 0 0 1 8.013 8.009V26z" transform="translate(.828)" style="fill:none;stroke:#ff6c1a;stroke-linecap:round;stroke-linejoin:round;stroke-miterlimit:10;stroke-width:3px"/>
        <circle data-name="Ellipse 1091" cx="3.265" cy="3.265" r="3.265" transform="translate(18.145 13.273)" style="fill:none;stroke:#ff6c1a;stroke-linecap:round;stroke-linejoin:round;stroke-miterlimit:10;stroke-width:3px"/>
        <circle data-name="Ellipse 1092" cx="3.265" cy="3.265" r="3.265" transform="translate(30.401 13.273)" style="fill:none;stroke:#ff6c1a;stroke-linecap:round;stroke-linejoin:round;stroke-miterlimit:10;stroke-width:3px"/>
        <circle data-name="Ellipse 1093" cx="3.265" cy="3.265" r="3.265" transform="translate(42.609 13.273)" style="fill:none;stroke:#ff6c1a;stroke-linecap:round;stroke-linejoin:round;stroke-miterlimit:10;stroke-width:3px"/>
        <path data-name="Path 3375" d="M83.71 19.076H56.124A3.123 3.123 0 0 1 53 15.953h0a3.123 3.123 0 0 1 3.124-3.124h27.587a3.123 3.123 0 0 1 3.124 3.124h0a3.126 3.126 0 0 1-3.125 3.123z" transform="translate(5.509 .631)" style="fill:none;stroke:#ff6c1a;stroke-linecap:round;stroke-linejoin:round;stroke-miterlimit:10;stroke-width:3px"/>
        <path data-name="Path 3376" d="m12.041 24.106-4.828 8.412-1.935 3.372c-.22.385-.481.763-.689 1.15-1.006 1.869-.875 4.781-.456 6.838a8.455 8.455 0 0 0 3.045 5.111 10.1 10.1 0 0 0 4.343 1.811 11.762 11.762 0 0 0 8.244-1.2c2.31-1.391 4.608-4.018 4.914-6.782.173-1.565.39-3.126.586-4.687l1.481-11.851.2-1.606" transform="translate(0 1.895)" style="fill:none;stroke:#ff6c1a;stroke-linecap:round;stroke-linejoin:round;stroke-miterlimit:10;stroke-width:3px"/>
        <path data-name="Path 3377" d="m90.31 24.234 4.828 8.412 1.935 3.372c.22.385.481.763.689 1.15 1.006 1.869.875 4.781.456 6.838a8.455 8.455 0 0 1-3.045 5.111 10.1 10.1 0 0 1-4.343 1.807 11.762 11.762 0 0 1-8.244-1.194c-2.31-1.391-4.608-4.018-4.914-6.782-.173-1.565-.39-3.126-.586-4.687l-1.481-11.853-.2-1.606" transform="translate(8.018 1.909)" style="fill:none;stroke:#ff6c1a;stroke-linecap:round;stroke-linejoin:round;stroke-miterlimit:10;stroke-width:3px"/>
        <path data-name="Path 3378" d="M40.961 25.518c0 5.323-.056 10.654-.03 15.974a10.07 10.07 0 0 0 6.06 8.727c3.779 1.665 8.475.251 11.5-2.325a8.373 8.373 0 0 0 2.271-2.86 7.463 7.463 0 0 0 .519-3.739V25.447" transform="translate(4.156 2.045)" style="fill:none;stroke:#ff6c1a;stroke-linecap:round;stroke-linejoin:round;stroke-miterlimit:10;stroke-width:3px"/>
        <path data-name="Path 3379" d="M59.245 39.927c.018 3.749 1.568 7.215 4.93 8.7 3.779 1.665 8.475.251 11.5-2.325a8.373 8.373 0 0 0 2.271-2.86c.579-1.282 1.308-2.406 1.24-3.739" transform="translate(6.208 3.641)" style="fill:none;stroke:#ff6c1a;stroke-linecap:round;stroke-linejoin:round;stroke-miterlimit:10;stroke-width:3px"/>
        <path data-name="Path 3380" d="M22.866 39.9a10.07 10.07 0 0 0 6.06 8.727c3.779 1.665 8.475.251 11.5-2.325a8.373 8.373 0 0 0 2.271-2.86c.579-1.282.3-2.451.235-3.782" transform="translate(2.133 3.637)" style="fill:none;stroke:#ff6c1a;stroke-linecap:round;stroke-linejoin:round;stroke-miterlimit:10;stroke-width:3px"/>
        <path data-name="Path 3381" d="M10.957 49.638v38.974a8.973 8.973 0 0 0 8.973 8.973h68.791a8.973 8.973 0 0 0 8.973-8.973V49.638" transform="translate(.8 4.754)" style="fill:none;stroke:#ff6c1a;stroke-linecap:round;stroke-linejoin:round;stroke-miterlimit:10;stroke-width:3px"/>
        <path data-name="Path 3382" d="M26.489 55.17h4.968s3.418.414 3.81 5.772l4.14 19.4s1.42 3.124 3.454 3h23.707" transform="translate(2.539 5.374)" style="fill:none;stroke:#ff6c1a;stroke-linecap:round;stroke-linejoin:round;stroke-miterlimit:10;stroke-width:3px"/>
        <path data-name="Path 3383" d="M35.3 59.213h35.3l-3.74 16.514H38.8" transform="translate(3.526 5.827)" style="fill:none;stroke:#ff6c1a;stroke-linecap:round;stroke-linejoin:round;stroke-miterlimit:10;stroke-width:3px"/>
        <path data-name="Line 379" transform="translate(48.855 65.986)" style="fill:none;stroke:#ff6c1a;stroke-linecap:round;stroke-linejoin:round;stroke-miterlimit:10;stroke-width:3px" d="m0 0 1.704 14.574"/>
        <path data-name="Line 380" transform="translate(60.922 66.175)" style="fill:none;stroke:#ff6c1a;stroke-linecap:round;stroke-linejoin:round;stroke-miterlimit:10;stroke-width:3px" d="M1.846 0 0 14.244"/>
        <path data-name="Line 381" transform="translate(40.338 73.368)" style="fill:none;stroke:#ff6c1a;stroke-linecap:round;stroke-linejoin:round;stroke-miterlimit:10;stroke-width:3px" d="M0 0h30.71"/>
        <circle data-name="Ellipse 1094" cx="2.946" cy="2.946" r="2.946" transform="translate(45.685 89.03)" style="fill:none;stroke:#ff6c1a;stroke-linecap:round;stroke-linejoin:round;stroke-miterlimit:10;stroke-width:3px"/>
        <circle data-name="Ellipse 1095" cx="2.946" cy="2.946" r="2.946" transform="translate(61.478 89.03)" style="fill:none;stroke:#ff6c1a;stroke-linecap:round;stroke-linejoin:round;stroke-miterlimit:10;stroke-width:3px"/>
    </g>
</svg>
