<svg xmlns="http://www.w3.org/2000/svg" width="108.208" height="103.255" viewBox="0 0 108.208 103.255">
    <g transform="translate(-2.149 -4.03)">
        <circle data-name="Ellipse 1101" cx="7.876" cy="7.876" r="7.876" transform="translate(3.649 90.032)" style="fill:none;stroke:#ff6c1a;stroke-linecap:round;stroke-linejoin:round;stroke-miterlimit:10;stroke-width:3px"/>
        <circle data-name="Ellipse 1102" cx="7.876" cy="7.876" r="7.876" transform="translate(23.955 58.129)" style="fill:none;stroke:#ff6c1a;stroke-linecap:round;stroke-linejoin:round;stroke-miterlimit:10;stroke-width:3px"/>
        <circle data-name="Ellipse 1103" cx="7.876" cy="7.876" r="7.876" transform="translate(58.015 72.967)" style="fill:none;stroke:#ff6c1a;stroke-linecap:round;stroke-linejoin:round;stroke-miterlimit:10;stroke-width:3px"/>
        <circle data-name="Ellipse 1104" cx="14.121" cy="14.121" r="14.121" transform="translate(73.454 12.857)" style="fill:none;stroke:#ff6c1a;stroke-linecap:round;stroke-linejoin:round;stroke-miterlimit:10;stroke-width:3px"/>
        <path data-name="Line 389" transform="translate(15.536 73.159)" style="fill:none;stroke:#ff6c1a;stroke-linecap:round;stroke-linejoin:round;stroke-miterlimit:10;stroke-width:3px" d="M0 16.331 10.911 0"/>
        <path data-name="Line 390" transform="translate(40.827 67.523)" style="fill:none;stroke:#ff6c1a;stroke-linecap:round;stroke-linejoin:round;stroke-miterlimit:10;stroke-width:3px" d="m0 0 16.548 10.044"/>
        <path data-name="Line 391" transform="translate(73.489 63.018)" style="fill:none;stroke:#ff6c1a;stroke-linecap:round;stroke-linejoin:round;stroke-miterlimit:10;stroke-width:3px" d="M0 12.453 12.959 0"/>
        <path data-name="Path 3397" d="M80.125 62.439q3.631-5.621 7.1-11.346a37.084 37.084 0 0 1 2.851-4.248 29.419 29.419 0 0 1 3.464-3.058c3.911-3.514 7.106-8.229 7.848-13.521a16.685 16.685 0 0 0 .156-2.8c-.289-10.018-5.682-15.029-5.684-15.031-.832-.773-1.552-1.632-2.449-2.354a20.614 20.614 0 0 0-7.074-3.738 22.086 22.086 0 0 0-15.364 1.588 21.818 21.818 0 0 0-7.345 5.747 20.748 20.748 0 0 0-4.088 9.206 24.333 24.333 0 0 0-.568 5.246 15.819 15.819 0 0 0 .678 4.776 22.858 22.858 0 0 0 6.645 10.3 38.731 38.731 0 0 1 3.645 3.256 30.314 30.314 0 0 1 2.988 4.479c2.329 3.878 4.754 7.695 7.197 11.498z" transform="translate(7.308)" style="fill:none;stroke:#ff6c1a;stroke-linecap:round;stroke-linejoin:round;stroke-miterlimit:10;stroke-width:3px"/>
    </g>
</svg>
