<svg xmlns="http://www.w3.org/2000/svg" width="94.011" height="93.797" viewBox="0 0 94.011 93.797">
    <g data-name="Real time-01" transform="translate(-2.989 -3.203)">
        <circle data-name="Ellipse 1096" cx="4.34" cy="4.34" r="4.34" transform="translate(7.703 22.926)" style="fill:none;stroke:#ff6c1a;stroke-linecap:round;stroke-linejoin:round;stroke-miterlimit:10;stroke-width:3px"/>
        <circle data-name="Ellipse 1097" cx="4.34" cy="4.34" r="4.34" transform="translate(32.064 4.734)" style="fill:none;stroke:#ff6c1a;stroke-linecap:round;stroke-linejoin:round;stroke-miterlimit:10;stroke-width:3px"/>
        <circle data-name="Ellipse 1098" cx="4.34" cy="4.34" r="4.34" transform="translate(57.766 19.83)" style="fill:none;stroke:#ff6c1a;stroke-linecap:round;stroke-linejoin:round;stroke-miterlimit:10;stroke-width:3px"/>
        <circle data-name="Ellipse 1099" cx="4.34" cy="4.34" r="4.34" transform="translate(82.086 4.703)" style="fill:none;stroke:#ff6c1a;stroke-linecap:round;stroke-linejoin:round;stroke-miterlimit:10;stroke-width:3px"/>
        <path data-name="Line 383" transform="translate(16.574 12.234)" style="fill:none;stroke:#ff6c1a;stroke-linecap:round;stroke-linejoin:round;stroke-miterlimit:10;stroke-width:3px" d="M0 11.617 15.447 0"/>
        <path data-name="Line 384" transform="translate(41.298 11.936)" style="fill:none;stroke:#ff6c1a;stroke-linecap:round;stroke-linejoin:round;stroke-miterlimit:10;stroke-width:3px" d="m0 0 15.872 9.362"/>
        <path data-name="Line 385" transform="translate(66.872 12.149)" style="fill:none;stroke:#ff6c1a;stroke-linecap:round;stroke-linejoin:round;stroke-miterlimit:10;stroke-width:3px" d="M0 9.021 14.724 0"/>
        <path data-name="Path 3389" d="M19.681 72.767V40.872H7.511v31.889" style="fill:none;stroke:#ff6c1a;stroke-linecap:round;stroke-linejoin:round;stroke-miterlimit:10;stroke-width:3px"/>
        <path data-name="Path 3390" d="M43.936 56.082V25.729h-12.17V63.66" style="fill:none;stroke:#ff6c1a;stroke-linecap:round;stroke-linejoin:round;stroke-miterlimit:10;stroke-width:3px"/>
        <path data-name="Path 3391" d="M68.239 63.665V40.878h-12.17v15.207" style="fill:none;stroke:#ff6c1a;stroke-linecap:round;stroke-linejoin:round;stroke-miterlimit:10;stroke-width:3px"/>
        <path data-name="Path 3392" d="M92.431 72.761V25.723h-12.17v47.054" style="fill:none;stroke:#ff6c1a;stroke-linecap:round;stroke-linejoin:round;stroke-miterlimit:10;stroke-width:3px"/>
        <path data-name="Line 386" transform="translate(4.489 78.83)" style="fill:none;stroke:#ff6c1a;stroke-linecap:round;stroke-linejoin:round;stroke-miterlimit:10;stroke-width:3px" d="M0 0h22.766"/>
        <path data-name="Line 387" transform="translate(77.253 78.83)" style="fill:none;stroke:#ff6c1a;stroke-linecap:round;stroke-linejoin:round;stroke-miterlimit:10;stroke-width:3px" d="M0 0h18.247"/>
        <path data-name="Path 3393" d="M61.457 90.851A15.4 15.4 0 0 1 49.973 95.5 16.686 16.686 0 1 1 66.66 78.814V82.7" style="fill:none;stroke:#ff6c1a;stroke-linecap:round;stroke-linejoin:round;stroke-miterlimit:10;stroke-width:3px"/>
        <path data-name="Path 3394" d="M49.989 69.5v10.66l-4.835 2.617" style="fill:none;stroke:#ff6c1a;stroke-linecap:round;stroke-linejoin:round;stroke-miterlimit:10;stroke-width:3px"/>
        <path data-name="Path 3395" d="m62.819 79.638 3.814 5.25 3.941-5.25" style="fill:none;stroke:#ff6c1a;stroke-linecap:round;stroke-linejoin:round;stroke-miterlimit:10;stroke-width:3px"/>
    </g>
</svg>
