<svg xmlns="http://www.w3.org/2000/svg" width="62.965" height="93.976" viewBox="0 0 62.965 93.976">
    <g data-name="Order status-01" transform="translate(-18.434 -2.95)">
        <path data-name="Line 388" transform="translate(27.477 95.426)" style="fill:none;stroke:#ff6c1a;stroke-linecap:round;stroke-linejoin:round;stroke-miterlimit:10;stroke-width:3px" d="M0 0h45.044"/>
        <circle data-name="Ellipse 1100" cx="12.936" cy="12.936" r="12.936" transform="translate(37.107 21.362)" style="fill:none;stroke:#ff6c1a;stroke-linecap:round;stroke-linejoin:round;stroke-miterlimit:10;stroke-width:3px"/>
        <path data-name="Path 3396" d="M28.968 56.908c-3.961-5.862-7.54-11.974-8.667-19.1q-.193-1.224-.29-2.46c-.881-11.372 6.375-22.284 16.21-27.58 9.373-5.046 21.637-4.2 30.448 1.677A30.187 30.187 0 0 1 79 27.363a31.066 31.066 0 0 1 .668 11.137 28.617 28.617 0 0 1-4.318 11.6c-7.673 12.883-16.578 25.14-24.875 37.641l-.071.107q-8.912-12.9-17.86-25.765c-1.189-1.714-2.4-3.434-3.576-5.175z" style="fill:none;stroke:#ff6c1a;stroke-linecap:round;stroke-linejoin:round;stroke-miterlimit:10;stroke-width:3px"/>
    </g>
</svg>
