<svg id="fad21105-1326-4108-ab40-e761e748842d" data-name="Layer 1" xmlns="http://www.w3.org/2000/svg" viewBox="0 0 85 93"><defs><style>.e26d265d-70ee-4efa-b494-c588bbe670b7{fill:#fff;}.e9b9875e-fbe5-4a9b-94a7-67505724f2c6{fill:#ff6c1a;}</style></defs><polygon class="e26d265d-70ee-4efa-b494-c588bbe670b7" points="17.928 8.335 18.062 83.309 20.615 87.206 63.745 86.802 65.223 82.637 65.76 8.335 61.461 4.842 21.152 5.648 17.928 8.335"/><path class="e9b9875e-fbe5-4a9b-94a7-67505724f2c6" d="M62.46456,4.08041c.47421.19984.96882.36208,1.419.60629a5.00932,5.00932,0,0,1,2.7461,4.05952,9.941,9.941,0,0,1,.04811,1.07192q.00321,36.55551.00065,73.111c-.00026,2.77633-1.24105,4.7105-3.54358,5.452a6.19176,6.19176,0,0,1-1.86165.287q-19.45831.024-38.91668.00962a5.11294,5.11294,0,0,1-5.40252-5.23666c-.04731-8.48115-.0211-16.96273-.01422-25.44414.00074-.91461.48137-1.46133,1.21174-1.4752.75727-.01439,1.25582.55228,1.25751,1.51431q.01422,8.09588.00566,16.1918c0,.35174,0,.70347,0,1.10809H64.2v-.922q0-28.04655.0114-56.09308c.0005-.66054-.082-.96927-.8753-.96789q-21.52394.03762-43.04795.01982c-.24411,0-.48821.02327-.82391.04034-.01743.37349-.0475.71822-.04758,1.063-.00248,10.9047-.00155,31.18485-.00424,42.08955a5.6769,5.6769,0,0,1-.05867,1.0688,1.20829,1.20829,0,0,1-2.35732.01568,5.42072,5.42072,0,0,1-.06059-1.0684c-.00265-13.52072.04725-36.41721-.03809-49.93739-.02057-3.25949,1.0285-5.54285,4.25109-6.564ZM19.41471,77.91617c0,1.72591-.00205,3.34816.00048,4.9704.00366,2.33428.98274,3.31494,3.30886,3.315q19.08131.00068,38.16263-.00023c.27527,0,.55214.01116.82553-.01331a2.50123,2.50123,0,0,0,2.36951-2.0683c.11548-2.04609.033-4.10335.033-6.20358Zm44.784-63.07234c0-1.72517.00223-3.34746-.00053-4.96974-.004-2.33306-.98449-3.31492-3.30828-3.315Q41.808,6.55856,22.72617,6.55935c-.27528,0-.55209-.0112-.82558.01263A2.50053,2.50053,0,0,0,19.5303,8.63834c-.1148,2.04656-.03279,4.10416-.03279,6.20549Z"/><path class="e9b9875e-fbe5-4a9b-94a7-67505724f2c6" d="M33.35425,44.426c-1.432.00057-2.86421.01524-4.296-.00349a2.20742,2.20742,0,0,1-2.39721-2.36108q-.05067-4.336.00164-8.6729a2.22359,2.22359,0,0,1,2.41527-2.3562q4.29585-.02771,8.592.00057a2.18337,2.18337,0,0,1,2.37686,2.2933q.05829,4.41828-.00139,8.83778a2.14219,2.14219,0,0,1-2.31263,2.25633C36.27362,44.44328,34.81379,44.42543,33.35425,44.426ZM29.18562,33.53144v8.35533h8.32174V33.53144Z"/><path class="e9b9875e-fbe5-4a9b-94a7-67505724f2c6" d="M33.37454,48.33349c1.40449.00017,2.80907-.01033,4.21343.003a2.19047,2.19047,0,0,1,2.46613,2.36113q.04841,4.336-.002,8.673A2.20514,2.20514,0,0,1,37.65,61.72823q-4.2959.02844-8.59207-.0007a2.227,2.227,0,0,1-2.39609-2.37721q-.05145-4.336,0-8.673a2.21318,2.21318,0,0,1,2.41664-2.34316c.05506-.00125.11016-.00082.16523-.00082Q31.30912,48.33328,33.37454,48.33349ZM29.18418,50.858v8.33787h8.32811V50.858Z"/><path class="e9b9875e-fbe5-4a9b-94a7-67505724f2c6" d="M46.0764,41.90933h8.41148c0-.57981-.01861-1.12293.00441-1.66429a1.21965,1.21965,0,0,1,1.2082-1.29454,1.20507,1.20507,0,0,1,1.23723,1.18791,13.77024,13.77024,0,0,1-.04434,2.388,2.04611,2.04611,0,0,1-2.06419,1.87842q-4.5829.0466-9.16654-.00042A2.00757,2.00757,0,0,1,43.60156,42.441q-.08251-4.70377-.00025-9.40977a2.05232,2.05232,0,0,1,2.14187-1.98666q4.50028-.05442,9.00163-.00054a2.13164,2.13164,0,0,1,2.16791,1.97874,6.75759,6.75759,0,0,1,.01568,1.56276,1.16447,1.16447,0,0,1-1.2966,1.10482,1.14781,1.14781,0,0,1-1.13715-1.18191c-.02093-.29728-.02926-.59545-.04587-.9472H46.0764Z"/><path class="e9b9875e-fbe5-4a9b-94a7-67505724f2c6" d="M51.49758,56.27362c0,1.15185.00133,2.217-.00079,3.28209a8.46406,8.46406,0,0,1-.02214.99,1.25607,1.25607,0,0,1-1.25755,1.17792,1.2151,1.2151,0,0,1-1.18223-1.24048c-.03476-1.07284-.01438-2.14747-.01709-3.22133-.00076-.29672-.00012-.59343-.00012-.98835-1.37221,0-2.65809-.00646-3.94384.00277a1.35227,1.35227,0,0,1-1.41826-.78218,1.20782,1.20782,0,0,1,1.19727-1.6892c1.34572-.02718,2.6924-.00682,4.16486-.00682,0-.84784-.00059-1.63747.0002-2.42709.00057-.57825-.0169-1.1574.00929-1.73453a1.22659,1.22659,0,1,1,2.45123-.04439c.04445,1.07215.01639,2.14731.0191,3.22118.00074.2953.00011.59059.00011.98218,1.354,0,2.61339-.00439,3.87271.00139.9973.00457,1.54564.423,1.57389,1.18369.02907.78252-.57043,1.284-1.57239,1.291C54.11215,56.2803,52.85237,56.27362,51.49758,56.27362Z"/><path class="e9b9875e-fbe5-4a9b-94a7-67505724f2c6" d="M41.78379,83.2523c-.65818,0-1.31732.02231-1.97428-.00594a1.21986,1.21986,0,0,1-.07784-2.4378c1.36912-.05112,2.74259-.051,4.112-.00436a1.22554,1.22554,0,0,1-.08526,2.44959c-.05483.00151-.10968.003-.16452.003q-.905.00031-1.81.00013Z"/><path class="e9b9875e-fbe5-4a9b-94a7-67505724f2c6" d="M45.24757,9.50435c1.10043.00007,2.20107-.01319,3.30122.00438a1.23229,1.23229,0,1,1,.07462,2.45742q-3.38318.04374-6.76722-.00032a1.20448,1.20448,0,0,1-1.26726-1.2412c.00128-.73814.49951-1.20289,1.35742-1.21621C43.04651,9.49135,44.14714,9.50427,45.24757,9.50435Z"/><path class="e9b9875e-fbe5-4a9b-94a7-67505724f2c6" d="M38.1989,10.71236a1.59352,1.59352,0,0,1-1.58417,1.64029A1.62305,1.62305,0,0,1,34.949,10.69828a1.65589,1.65589,0,0,1,1.6381-1.61683A1.62558,1.62558,0,0,1,38.1989,10.71236Z"/></svg>