<svg id="bad48e71-4843-42f0-bed9-1fcf6eb5affb" data-name="Layer 1" xmlns="http://www.w3.org/2000/svg" viewBox="0 0 85 93"><defs><style>.bdd0534e-a70b-4053-ad26-7d72c8fcf749{fill:none;}.a77f3498-4e40-461b-997a-39d7eae00281{fill:#fff;}.ea600de1-d1b5-43e7-a41a-acbcbdf1e4da{fill:#ff6c1a;stroke:#ff6c1a;stroke-miterlimit:10;stroke-width:0.5px;}</style></defs><path class="bdd0534e-a70b-4053-ad26-7d72c8fcf749" d="M25.02548,19.16561h24v24h-24Z"/><polygon class="a77f3498-4e40-461b-997a-39d7eae00281" points="4.348 80.458 18.37 80.219 18.69 75.904 24.043 76.224 41.222 82.935 48.572 82.296 79.014 69.832 80.053 65.837 78.375 62.96 74.46 62.241 54.964 68.953 55.124 64.958 52.887 61.442 40.503 60.883 28.518 56.089 19.089 56.648 18.69 51.535 5.107 51.535 4.348 80.458"/><circle class="a77f3498-4e40-461b-997a-39d7eae00281" cx="49.11834" cy="29.40253" r="19.53542"/><path class="ea600de1-d1b5-43e7-a41a-acbcbdf1e4da" d="M43.11047,83.73248A15.1085,15.1085,0,0,1,37.25078,82.385c-4.46316-1.83345-8.84057-3.51581-13.00972-5.00217a7.92717,7.92717,0,0,0-2.62971-.30829c-.41243-.00409-.833-.00613-1.25769-.03675l-.44509-.03267-.00409,3.31164c-.00816,1.12089-.26134,1.37815-1.35977,1.38019H5.20831c-1.04127-.002-1.31077-.27767-1.31077-1.34344V51.935c0-1.07394.25725-1.33528,1.31077-1.33732l13.4099.002c1.0086,0,1.274.26543,1.28627,1.29649l.00409,3.20955,5.484-.00612c1.25769,0,2.51129.00408,3.7649.0245a3.52206,3.52206,0,0,1,1.48227.35729c1.59661.80648,3.18506,1.63132,4.7735,2.45617l3.87924,2.00291a3.22865,3.22865,0,0,0,1.40469.34709l9.75933.002a5.29592,5.29592,0,0,1,5.5371,6.6927l.03675.5533.53493.19192L68.08457,63.6115c1.64561-.59822,3.29531-1.19848,4.95317-1.75382a7.76811,7.76811,0,0,1,2.45412-.4063,7.39606,7.39606,0,0,1,1.75179.21234A4.78326,4.78326,0,0,1,80.935,65.16115l.16742,2.18871c-.45734,2.01924-1.82936,3.475-4.43866,4.62854l-.57576.25317c-4.07115,1.79465-8.13822,3.59135-12.27879,5.22471-3.94866,1.55578-7.93,3.01764-11.91538,4.4795l-4.24674,1.5619a2.79637,2.79637,0,0,1-.90243.16334l-1.70686-.01225c-.30218,0-.60843.00816-.90652.03675C43.78423,83.71818,43.44531,83.73248,43.11047,83.73248ZM22.61586,75.23083a8.15366,8.15366,0,0,1,3.06256.67172c3.84656,1.5129,7.7013,2.99313,11.56011,4.47337l2.985,1.14539a2.83757,2.83757,0,0,0,1.02085.26951l2.8543.04287a11.69977,11.69977,0,0,0,6.04344-1.29444L56.161,78.25663c5.29617-2.01924,10.59235-4.03849,15.864-6.11694A40.68369,40.68369,0,0,0,76.868,69.7019l.75543-.42263a3.21538,3.21538,0,0,0,1.5517-3.51377,3.02817,3.02817,0,0,0-2.72772-2.36225,6.2584,6.2584,0,0,0-.9596-.08984,2.72511,2.72511,0,0,0-.71459.08371c-1.35161.36343-2.691.78606-4.00991,1.25361-3.7649,1.3271-15.766,5.60447-15.766,5.60447a9.23841,9.23841,0,0,1-3.17689.68193c-2.27037-.0245-4.46724-.03267-6.6682-.03267l-8.69765.01634c-.25725,0-.51043-.00409-.7636-.01838a.88491.88491,0,0,1-.85751-.88.86584.86584,0,0,1,.82076-.90856,5.19982,5.19982,0,0,1,.56351-.02246l4.62242-.01633c3.43822-.00817,6.87645-.01838,10.31876-.07146a3.15836,3.15836,0,0,0,2.47046-1.26994,3.51129,3.51129,0,0,0-3.05847-5.60856l-10.2861.01429a3.29777,3.29777,0,0,1-1.40469-.343c-1.53127-.77381-3.05438-1.56395-4.57341-2.35613l-4.08749-2.107a3.669,3.669,0,0,0-1.55169-.37976l-7.47263-.03062a1.103,1.103,0,0,0-1.30261,1.31281c.02042,4.04461.01634,8.08922.01634,12.13384v3.64035l.04083.9596.41242.28788,1.11069.01225C21.70935,75.26962,22.61586,75.23083,22.61586,75.23083ZM5.79632,79.79h12.2298V52.48423H5.79632Z"/><path class="ea600de1-d1b5-43e7-a41a-acbcbdf1e4da" d="M49.61533,49.97293a20.34352,20.34352,0,1,1,.04084,0Zm.049-38.8393a18.4286,18.4286,0,1,0,.08167,0Z"/><path class="ea600de1-d1b5-43e7-a41a-acbcbdf1e4da" d="M39.79883,40.11559a1.51018,1.51018,0,0,1-.50226-.38588,2.15309,2.15309,0,0,1,.0245-1.09639L58.22315,19.73941a3.136,3.136,0,0,1,.54717-.492,1.03147,1.03147,0,0,1,.52676-.16742.84229.84229,0,0,1,.57985.25929.8293.8293,0,0,1,.15108,1.1454l-.27359.32259L40.8401,39.71134a2.99674,2.99674,0,0,1-.62068.41038l-.21234.1225C39.93766,40.1993,39.86825,40.15847,39.79883,40.11559Z"/><path class="ea600de1-d1b5-43e7-a41a-acbcbdf1e4da" d="M43.47389,27.75309a4.28145,4.28145,0,1,1,4.28349-4.25695,4.23117,4.23117,0,0,1-4.26307,4.257Zm.02859-6.70291a2.43229,2.43229,0,0,0-1.73137.7248,2.39273,2.39273,0,0,0-.70643,1.70482,2.43346,2.43346,0,0,0,2.397,2.40717h0a2.45447,2.45447,0,0,0,1.7722-.71868,2.37156,2.37156,0,0,0,.69826-1.70074,2.44021,2.44021,0,0,0-2.39287-2.41737Z"/><path class="ea600de1-d1b5-43e7-a41a-acbcbdf1e4da" d="M55.769,40.04413A4.291,4.291,0,0,1,51.506,35.79535a4.294,4.294,0,0,1,4.25082-4.30186,4.27543,4.27543,0,1,1,.06125,8.55064Zm.02042-6.69065a2.41688,2.41688,0,0,0-1.72728.71255,2.38343,2.38343,0,0,0-.69826,1.7089,2.44283,2.44283,0,0,0,2.38062,2.42146h.00409a2.42179,2.42179,0,0,0,.07758-4.84291Z"/></svg>