<svg xmlns="http://www.w3.org/2000/svg" width="94.281" height="92.135" viewBox="0 0 94.281 92.135">
    <g data-name="Group 857">
        <path data-name="Path 2720" d="M8119.329-2273.784v-78.655a3.94 3.94 0 0 0-3.346-3.9l-42.853-6.531a3.94 3.94 0 0 0-4.534 3.9v85.186h50.732" style="fill:none;stroke:#ff6c1a;stroke-linecap:round;stroke-linejoin:round;stroke-width:3px" transform="translate(-8067.096 2364.419)"/>
        <path data-name="Path 2721" d="M8274.638-2168.948v-54.882l37.409 7.769a3.94 3.94 0 0 1 3.14 3.858v43.255z" transform="translate(-8222.405 2259.583)" style="fill:none;stroke:#ff6c1a;stroke-linecap:round;stroke-linejoin:round;stroke-width:3px"/>
        <path data-name="Rectangle 453" d="M9.849 0h0A9.849 9.849 0 0 1 19.7 9.849V23.3h0H0h0V9.849A9.849 9.849 0 0 1 9.849 0z" transform="translate(17.017 67.333)" style="fill:none;stroke:#ff6c1a;stroke-linecap:round;stroke-linejoin:round;stroke-width:3px"/>
        <g data-name="Group 855">
            <path data-name="Line 77" transform="translate(11.276 19.727)" style="fill:none;stroke:#ff6c1a;stroke-linecap:round;stroke-linejoin:round;stroke-width:3px" d="M0 0h11.442"/>
            <path data-name="Line 78" transform="translate(31.016 19.727)" style="fill:none;stroke:#ff6c1a;stroke-linecap:round;stroke-linejoin:round;stroke-width:3px" d="M0 0h11.442"/>
            <path data-name="Line 79" transform="translate(11.276 32.174)" style="fill:none;stroke:#ff6c1a;stroke-linecap:round;stroke-linejoin:round;stroke-width:3px" d="M0 0h11.442"/>
            <path data-name="Line 80" transform="translate(31.016 32.174)" style="fill:none;stroke:#ff6c1a;stroke-linecap:round;stroke-linejoin:round;stroke-width:3px" d="M0 0h11.442"/>
            <path data-name="Line 81" transform="translate(11.276 42.987)" style="fill:none;stroke:#ff6c1a;stroke-linecap:round;stroke-linejoin:round;stroke-width:3px" d="M0 0h11.442"/>
            <path data-name="Line 82" transform="translate(31.016 42.987)" style="fill:none;stroke:#ff6c1a;stroke-linecap:round;stroke-linejoin:round;stroke-width:3px" d="M0 0h11.442"/>
            <path data-name="Line 83" transform="translate(11.276 53.8)" style="fill:none;stroke:#ff6c1a;stroke-linecap:round;stroke-linejoin:round;stroke-width:3px" d="M0 0h11.442"/>
            <path data-name="Line 84" transform="translate(31.016 53.8)" style="fill:none;stroke:#ff6c1a;stroke-linecap:round;stroke-linejoin:round;stroke-width:3px" d="M0 0h11.442"/>
        </g>
        <g data-name="Group 856">
            <path data-name="Line 85" transform="translate(66.786 52.381)" style="fill:none;stroke:#ff6c1a;stroke-linecap:round;stroke-linejoin:round;stroke-width:3px" d="M0 0h11.442"/>
            <path data-name="Line 86" transform="translate(66.786 63.194)" style="fill:none;stroke:#ff6c1a;stroke-linecap:round;stroke-linejoin:round;stroke-width:3px" d="M0 0h11.442"/>
            <path data-name="Line 87" transform="translate(66.786 74.007)" style="fill:none;stroke:#ff6c1a;stroke-linecap:round;stroke-linejoin:round;stroke-width:3px" d="M0 0h11.442"/>
        </g>
    </g>
</svg>
