<svg xmlns="http://www.w3.org/2000/svg" width="104.151" height="104.151" viewBox="0 0 104.151 104.151">
    <g data-name="Group 834" transform="translate(-3029.808 226.059)">
        <circle data-name="Ellipse 961" cx="50.076" cy="50.076" r="50.076" transform="translate(3031.808 -224.059)" style="fill:none;stroke:#ff6c1a;stroke-linecap:round;stroke-linejoin:round;stroke-width:4px"/>
        <path data-name="Path 2698" d="M3306.057-211.66v24.223a8.331 8.331 0 0 0 8.331 8.331h4.2" transform="translate(-207.416 -8.07)" style="fill:none;stroke:#ff6c1a;stroke-linecap:round;stroke-linejoin:round;stroke-width:4px"/>
        <circle data-name="Ellipse 962" cx="5.223" cy="5.223" r="5.223" transform="translate(3111.168 -193.616)" style="fill:none;stroke:#ff6c1a;stroke-linecap:round;stroke-linejoin:round;stroke-width:4px"/>
        <path data-name="Path 2699" d="M3135.629 80.481V60.023a8.331 8.331 0 0 0-8.331-8.331h-4.2" transform="translate(-68.38 -206.542)" style="fill:none;stroke:#ff6c1a;stroke-linecap:round;stroke-linejoin:round;stroke-width:4px"/>
        <path data-name="Path 2700" d="M3077.46 5.089v-48.066a8.331 8.331 0 0 0-8.331-8.331h-36.073" transform="translate(-.936 -129.393)" style="fill:none;stroke:#ff6c1a;stroke-linecap:round;stroke-linejoin:round;stroke-width:4px"/>
        <circle data-name="Ellipse 963" cx="5.223" cy="5.223" r="5.223" transform="translate(3044.276 -160.072)" style="fill:none;stroke:#ff6c1a;stroke-linecap:round;stroke-linejoin:round;stroke-width:4px"/>
        <g data-name="Group 832" transform="translate(3063.996 -203.453)">
            <path data-name="Path 2701" d="M3214.2-69.27v-43.549a8.331 8.331 0 0 0-8.331-8.331h-4.2" transform="translate(-3191.229 126.372)" style="fill:none;stroke:#ff6c1a;stroke-linecap:round;stroke-linejoin:round;stroke-width:4px"/>
            <circle data-name="Ellipse 964" cx="5.223" cy="5.223" r="5.223" style="fill:none;stroke:#ff6c1a;stroke-linecap:round;stroke-linejoin:round;stroke-width:4px"/>
        </g>
        <g data-name="Group 833" transform="translate(3099.892 -172.019)">
            <path data-name="Path 2702" d="M3307.057 46.652V16.406a8.331 8.331 0 0 1 8.331-8.331h4.2" transform="translate(-3307.057 -2.852)" style="fill:none;stroke:#ff6c1a;stroke-linecap:round;stroke-linejoin:round;stroke-width:4px"/>
            <circle data-name="Ellipse 965" cx="5.223" cy="5.223" r="5.223" transform="translate(12.528)" style="fill:none;stroke:#ff6c1a;stroke-linecap:round;stroke-linejoin:round;stroke-width:4px"/>
        </g>
        <path data-name="Line 59" transform="translate(3087.034 -139.742)" style="fill:none;stroke:#ff6c1a;stroke-linecap:round;stroke-linejoin:round;stroke-width:4px" d="M0 0v2.948"/>
        <path data-name="Line 61" transform="translate(3087.034 -128.942)" style="fill:none;stroke:#ff6c1a;stroke-linecap:round;stroke-linejoin:round;stroke-width:4px" d="M0 0v4.203"/>
    </g>
</svg>
