<svg xmlns="http://www.w3.org/2000/svg" width="33.333" height="50" viewBox="0 0 33.333 50">
    <path d="M8.333 216.667a8.336 8.336 0 0 0 8.333-8.333V200H8.333a8.333 8.333 0 0 0 0 16.667z" transform="translate(0 -166.667)" style="fill:#0acf83"/>
    <path d="M0 108.333A8.336 8.336 0 0 1 8.333 100h8.333v16.667H8.333A8.336 8.336 0 0 1 0 108.333z" transform="translate(0 -83.333)" style="fill:#a259ff"/>
    <path d="M0 8.333A8.336 8.336 0 0 1 8.333 0h8.333v16.667H8.333A8.336 8.336 0 0 1 0 8.333z" style="fill:#f24e1e"/>
    <path d="M100 0h8.333a8.333 8.333 0 1 1 0 16.667H100z" transform="translate(-83.333)" style="fill:#ff7262"/>
    <path d="M116.667 108.333a8.333 8.333 0 1 1-8.334-8.333 8.336 8.336 0 0 1 8.334 8.333z" transform="translate(-83.333 -83.333)" style="fill:#1abcfe"/>
</svg>
