<svg xmlns="http://www.w3.org/2000/svg" width="36.466" height="50.432" viewBox="0 0 36.466 50.432">
    <defs>
        <radialGradient id="juuz67gs4b" cx=".032" cy=".027" r="1.612" gradientTransform="matrix(1 0 0 .723 0 .008)" gradientUnits="objectBoundingBox">
            <stop offset="0" stop-color="#fff" stop-opacity=".102"/>
            <stop offset="1" stop-color="#fff" stop-opacity="0"/>
        </radialGradient>
        <linearGradient id="orij00ckca" x1=".5" y1=".086" x2=".5" y2="1" gradientUnits="objectBoundingBox">
            <stop offset="0" stop-color="#1a237e" stop-opacity=".2"/>
            <stop offset="1" stop-color="#1a237e" stop-opacity=".02"/>
        </linearGradient>
    </defs>
    <path d="M22.791 0H3.419A3.439 3.439 0 0 0 0 3.439v43.554a3.439 3.439 0 0 0 3.419 3.439h29.628a3.439 3.439 0 0 0 3.419-3.439V13.754l-7.977-5.731z" style="fill:#4285f4"/>
    <g data-name="Clipped">
        <path data-name="Path" d="m30.664 16.431 12.675 12.745V17.437z" transform="translate(-6.873 -3.683)" style="fill:url(#orij00ckca)"/>
    </g>
    <path d="M11.75 43.962h18.233v-2.293H11.75zm0 4.585h13.675v-2.293H11.75zm0-16.046v2.292h18.233V32.5zm0 6.877h18.233v-2.293H11.75z" transform="translate(-2.634 -7.284)" style="fill:#f1f1f1" data-name="Clipped"/>
    <g data-name="Clipped">
        <g data-name="Group">
            <g data-name="Group 990">
                <path data-name="Path" d="M2.938 2.955V13.27a3.428 3.428 0 0 0 3.419 3.439h10.255z" transform="translate(19.853 -2.955)" style="fill:#a1c2fa"/>
            </g>
        </g>
    </g>
    <g data-name="Clipped">
        <path data-name="Path" d="M3.419 0A3.439 3.439 0 0 0 0 3.439v.287A3.439 3.439 0 0 1 3.419.287h19.372V0z" style="fill:rgba(255,255,255,.2)"/>
    </g>
    <g data-name="Clipped">
        <path data-name="Path" d="M33.047 63.637H3.419A3.439 3.439 0 0 1 0 60.2v.287a3.439 3.439 0 0 0 3.419 3.439h29.628a3.439 3.439 0 0 0 3.419-3.439V60.2a3.439 3.439 0 0 1-3.419 3.437z" transform="translate(0 -13.492)" style="fill:rgba(26,35,126,.2)"/>
    </g>
    <g data-name="Clipped">
        <path data-name="Path" d="M32.794 16.734a3.428 3.428 0 0 1-3.419-3.434v.287a3.428 3.428 0 0 0 3.419 3.439H43.05v-.287z" transform="translate(-6.584 -2.979)" style="fill:rgba(26,35,126,.1)"/>
    </g>
    <path data-name="Path" d="M22.791 0H3.419A3.439 3.439 0 0 0 0 3.439v43.554a3.439 3.439 0 0 0 3.419 3.439h29.628a3.439 3.439 0 0 0 3.419-3.439V13.754z" style="fill:url(#juuz67gs4b)"/>
</svg>
