<svg xmlns="http://www.w3.org/2000/svg" width="1582" height="717" viewBox="0 0 1582 717">
    <g data-name="Group 1012" transform="translate(-169 -474)">
        <rect data-name="Rectangle 462" width="1582" height="717" rx="25" transform="translate(169 474)" style="fill:#192a44"/>
        <g data-name="Group 907" transform="translate(0 3)">
            <g data-name="Group 869">
                <path data-name="Line 95" transform="translate(561.36 526)" style="stroke-miterlimit:10;stroke:#45566f;fill:none" d="M0 0v607.016"/>
                <path data-name="Line 96" transform="translate(1032.903 526)" style="stroke-miterlimit:10;stroke:#45566f;fill:none" d="M0 0v607.016"/>
                <path data-name="Line 97" transform="translate(1411.604 526)" style="stroke-miterlimit:10;stroke:#45566f;fill:none" d="M0 0v607.016"/>
            </g>
            <circle data-name="Ellipse 982" cx="140.863" cy="140.863" transform="translate(1032.289 651.756)" style="stroke-width:3px;stroke:#ffa877;stroke-miterlimit:10;fill:none" r="140.863"/>
            <path data-name="Path 2725" d="M1114.37 313.427c5.783-43.056 27.456-85.841 56.759-117.374 50.459-54.3 123.432-83.34 196.687-86.939l86.062-1.157" transform="translate(199.365 474.139)" style="stroke-width:3px;stroke:#ffa877;stroke-miterlimit:10;fill:none"/>
            <path data-name="Path 2726" d="m923.78 200.875-21.078 5.31 6.249-20.765 3.368 10.526z" transform="translate(172.167 485.588)" style="fill:#ffa877"/>
            <path data-name="Path 2727" d="m1039.31 399.278 21.573-2.634-8.8 19.822-2.018-10.865z" transform="translate(192.614 511.631)" style="fill:#ffa877"/>
            <path data-name="Path 2728" d="m1150.27 187.955 20.95-5.832-5.736 20.915-3.628-10.44z" transform="translate(205.257 481.865)" style="fill:#ffa877"/>
            <path data-name="Path 2729" d="m1309.73 102.344 19.964 8.591-17.583 12.695 3.718-10.407z" transform="translate(225.477 473.389)" style="fill:#ffa877"/>
            <g data-name="Group 870" transform="translate(1111.631 914.211)">
                <circle data-name="Ellipse 983" cx="9.142" cy="9.142" style="stroke-width:3px;stroke:#ffa877;stroke-miterlimit:10;fill:#192a44" r="9.142"/>
                <circle data-name="Ellipse 984" cx="2.87" cy="2.87" transform="translate(6.175 6.15)" style="fill:#ffa877" r="2.87"/>
            </g>
            <g data-name="Group 871" transform="translate(1304.536 780.078)">
                <circle data-name="Ellipse 985" cx="9.142" cy="9.142" style="stroke-width:3px;stroke:#ffa877;stroke-miterlimit:10;fill:#192a44" r="9.142"/>
                <circle data-name="Ellipse 986" cx="2.87" cy="2.87" transform="translate(6.169 6.15)" style="fill:#ffa877" r="2.87"/>
            </g>
            <g data-name="Group 872" transform="translate(1651.913 573.293)">
                <circle data-name="Ellipse 987" cx="9.142" cy="9.142" style="stroke-width:3px;stroke:#ffa877;stroke-miterlimit:10;fill:#192a44" r="9.142"/>
                <circle data-name="Ellipse 988" cx="2.87" cy="2.87" transform="translate(6.181 6.151)" style="fill:#ffa877" r="2.87"/>
            </g>
            <g data-name="Group 881" transform="translate(249 572.738)">
                <circle data-name="Ellipse 994" cx="107.963" cy="107.963" transform="translate(567.868 127.453)" style="stroke:#ff6c1a;stroke-width:3px;stroke-miterlimit:10;fill:none" r="107.963"/>
                <path data-name="Path 2730" d="M182.808 455c35.741 3.387 73.177-14.142 103.6-31.358 54.137-30.632 95.353-78.526 131.261-128.415 27.333-37.974 53.045-77.455 85.629-111.032 77.875-80.252 205.534-101 305.538-52.372C874.9 163.944 932.59 223.455 950.611 296" transform="translate(-174.149 -98.885)" style="stroke:#ff6c1a;stroke-width:3px;stroke-miterlimit:10;fill:none"/>
                <path data-name="Path 2731" d="m685.67 99.7 14.376 16.305-21.323 3.955 7.815-7.814z" transform="translate(-107.864 -99.702)" style="fill:#ff6c1a"/>
                <path data-name="Path 2732" d="m846.272 381.622-20.529 7.147 4.4-21.236 4.282 10.189z" transform="translate(-89.308 -63.903)" style="fill:#ff6c1a"/>
                <path data-name="Path 2733" d="m257.819 385 21.737.049-11.176 18.581-.669-11.032z" transform="translate(-164.123 -61.569)" style="fill:#ff6c1a"/>
                <path data-name="Path 2780" d="M9.142 0A9.142 9.142 0 1 1 0 9.142 9.142 9.142 0 0 1 9.142 0z" transform="translate(0 347.551)" style="stroke:#ff6c1a;stroke-width:3px;fill:#192a44"/>
                <circle data-name="Ellipse 996" cx="2.87" cy="2.87" transform="translate(6.175 353.702)" style="fill:#ff6c1a" r="2.87"/>
                <g data-name="Group 875" transform="translate(236.587 184.287)">
                    <circle data-name="Ellipse 997" cx="9.142" cy="9.142" style="stroke:#ff6c1a;stroke-width:3px;stroke-miterlimit:10;fill:#192a44" r="9.142"/>
                    <circle data-name="Ellipse 998" cx="2.87" cy="2.87" transform="translate(6.175 6.151)" style="fill:#ff6c1a" r="2.87"/>
                </g>
                <g data-name="Group 876" transform="translate(604.917 137.704)">
                    <circle data-name="Ellipse 999" cx="9.142" cy="9.142" style="stroke:#ff6c1a;stroke-width:3px;stroke-miterlimit:10;fill:#192a44" r="9.142"/>
                    <circle data-name="Ellipse 1000" cx="2.87" cy="2.87" transform="translate(6.175 6.151)" style="fill:#ff6c1a" r="2.87"/>
                </g>
                <g data-name="Group 877" transform="translate(559.184 215.854)">
                    <circle data-name="Ellipse 1001" cx="9.142" cy="9.142" style="stroke:#ff6c1a;stroke-width:3px;stroke-miterlimit:10;fill:#192a44" r="9.142"/>
                    <circle data-name="Ellipse 1002" cx="2.87" cy="2.87" transform="translate(6.175 6.151)" style="fill:#ff6c1a" r="2.87"/>
                </g>
                <g data-name="Group 878" transform="translate(591.096 303.556)">
                    <path data-name="Path 2781" d="M9.142 0A9.142 9.142 0 1 1 0 9.142 9.142 9.142 0 0 1 9.142 0z" style="stroke:#ff6c1a;stroke-width:3px;fill:#192a44"/>
                    <circle data-name="Ellipse 1004" cx="2.87" cy="2.87" transform="translate(6.271 6.271)" style="fill:#ff6c1a" r="2.87"/>
                </g>
                <g data-name="Group 879" transform="translate(678.725 333.549)">
                    <circle data-name="Ellipse 1005" cx="9.142" cy="9.142" style="stroke:#ff6c1a;stroke-width:3px;stroke-miterlimit:10;fill:#192a44" r="9.142"/>
                    <circle data-name="Ellipse 1006" cx="2.87" cy="2.87" transform="translate(6.175 6.151)" style="fill:#ff6c1a" r="2.87"/>
                </g>
            </g>
            <text data-name="CLIENT BRIEF" transform="translate(249 974.693)" style="font-family:ProximaNova-Bold,Proxima Nova;font-weight:700;font-size:15px;fill:#fff"><tspan x="0" y="0">CLIENT BRIEF</tspan></text>
            <text data-name="Research Debrief" transform="translate(249 996.764)" style="font-family:ProximaNova-Semibold,Proxima Nova;font-weight:600;fill:#b2b2b2;font-size:13px"><tspan x="0" y="0">Research Debrief</tspan></text>
            <text transform="translate(368 1117.744)" style="fill:#969696;font-family:ProximaNova-Bold,Proxima Nova;font-weight:700;font-size:15px" data-name="Group 883"><tspan x="0" y="0">STRATEGY</tspan></text>
            <text transform="translate(762 1117.744)" style="fill:#969696;font-family:ProximaNova-Bold,Proxima Nova;font-weight:700;font-size:15px" data-name="Group 884"><tspan x="0" y="0">CONCEPT</tspan></text>
            <text transform="translate(1173 1117.744)" style="fill:#969696;font-family:ProximaNova-Bold,Proxima Nova;font-weight:700;font-size:15px" data-name="Group 885"><tspan x="0" y="0">PRODUCTION</tspan></text>
            <text transform="translate(1507 1117.744)" style="fill:#969696;font-family:ProximaNova-Bold,Proxima Nova;font-weight:700;font-size:15px" data-name="Group 886"><tspan x="0" y="0">CLOSURE</tspan></text>
            <text data-name="STRATEGY" transform="translate(370.963 718.035)" style="font-family:ProximaNova-Bold,Proxima Nova;font-weight:700;font-size:15px;fill:#fff"><tspan x="0" y="0">STRATEGY</tspan></text>
            <text data-name="Strategy Planning Creative Brief" transform="translate(370.963 740.227)" style="fill:#b2b2b2;font-size:13px;font-family:ProximaNova-Bold,Proxima Nova;font-weight:700"><tspan x="0" y="0">Strategy Planning</tspan><tspan x="0" y="16">Creative Brief</tspan></text>
            <text data-name="CONCEPT FINALIZATION" transform="translate(728.635 660.066)" style="font-family:ProximaNova-Bold,Proxima Nova;font-weight:700;font-size:15px;fill:#fff"><tspan x="0" y="0">CONCEPT FINALIZATION</tspan></text>
            <text data-name="Final concept &amp; proposal Client approval" transform="translate(729.729 682.137)" style="fill:#b2b2b2;font-size:13px;font-family:ProximaNova-Bold,Proxima Nova;font-weight:700"><tspan x="0" y="0">Final concept &amp; proposal</tspan><tspan x="0" y="16">Client approval</tspan></text>
            <text data-name="PRESENTATION #2" transform="translate(652.793 781.701)" style="font-family:ProximaNova-Bold,Proxima Nova;font-weight:700;font-size:15px;fill:#fff"><tspan x="0" y="0">PRESENTATION #2</tspan></text>
            <text data-name="Second client feedback Modifications" transform="translate(783.229 803.771)" style="fill:#b2b2b2;font-size:13px;font-family:ProximaNova-Bold,Proxima Nova;font-weight:700"><tspan x="-137.28" y="0">Second client feedback</tspan><tspan x="-79.443" y="16">Modifications</tspan></text>
            <text data-name="PRESENTATION #1" transform="translate(680.494 890.467)" style="font-family:ProximaNova-Bold,Proxima Nova;font-weight:700;font-size:15px;fill:#fff"><tspan x="0" y="0">PRESENTATION #1</tspan></text>
            <text data-name="First client feedback Modifications" transform="translate(808.161 912.537)" style="fill:#b2b2b2;font-size:13px;font-family:ProximaNova-Bold,Proxima Nova;font-weight:700"><tspan x="-119.184" y="0">First client feedback</tspan><tspan x="-79.443" y="16">Modifications</tspan></text>
            <text data-name="CREATIVE CONCEPT" transform="translate(862.026 964.469)" style="font-family:ProximaNova-Bold,Proxima Nova;font-weight:700;font-size:15px;fill:#fff"><tspan x="0" y="0">CREATIVE CONCEPT</tspan></text>
            <text data-name="Concept Development Creative Brief" transform="translate(1006.061 986.539)" style="fill:#b2b2b2;font-size:13px;font-family:ProximaNova-Bold,Proxima Nova;font-weight:700"><tspan x="-131.794" y="0">Concept Development</tspan><tspan x="-80.756" y="16">Creative Brief</tspan></text>
            <text transform="translate(1111.631 974.504)" style="font-family:ProximaNova-Bold,Proxima Nova;font-weight:700;font-size:15px;fill:#fff"><tspan x="0" y="0">IMPLEMENTATION</tspan></text>
            <text data-name="Pre-preparation | Production Post-production" transform="translate(1111.631 996.574)" style="fill:#b2b2b2;font-size:13px;font-family:ProximaNova-Bold,Proxima Nova;font-weight:700"><tspan x="0" y="0">Pre-preparation | Production</tspan><tspan x="0" y="16">Post-production</tspan></text>
            <text transform="translate(1341.057 795.172)" style="font-family:ProximaNova-Bold,Proxima Nova;font-weight:700;font-size:15px;fill:#fff"><tspan x="0" y="0">APPROVAL</tspan></text>
            <text data-name="Client approval Product delivery" transform="translate(1340.979 817.244)" style="fill:#b2b2b2;font-size:13px;font-family:ProximaNova-Bold,Proxima Nova;font-weight:700"><tspan x="0" y="0">Client approval</tspan><tspan x="0" y="16">Product delivery</tspan></text>
            <text transform="translate(1543.278 624.037)" style="font-family:ProximaNova-Bold,Proxima Nova;font-weight:700;font-size:15px;fill:#fff"><tspan x="0" y="0">ADMINISTRATION</tspan></text>
            <text data-name="Billing Evaluation" transform="translate(1543.202 646.107)" style="fill:#b2b2b2;font-size:13px;font-family:ProximaNova-Bold,Proxima Nova;font-weight:700"><tspan x="0" y="0">Billing Evaluation</tspan></text>
        </g>
    </g>
</svg>
