<svg xmlns="http://www.w3.org/2000/svg" width="50" height="49.999" viewBox="0 0 50 49.999">
    <g data-name="Group 989">
        <path data-name="Path 2932" d="M11.5 72.15a5.35 5.35 0 1 1-5.35-5.35h5.35zm2.675 0a5.35 5.35 0 0 1 10.7 0v13.376a5.35 5.35 0 0 1-10.7 0z" transform="translate(-.759 -40.877)" style="fill:#e01e5a"/>
        <path data-name="Path 2933" d="M19.467 11.3a5.35 5.35 0 1 1 5.35-5.35v5.35zm0 2.716a5.35 5.35 0 0 1 0 10.7H6.05a5.35 5.35 0 0 1 0-10.7z" transform="translate(-.7 -.6)" style="fill:#36c5f0"/>
        <path data-name="Path 2934" d="M80.276 19.367a5.35 5.35 0 1 1 5.35 5.35h-5.35zm-2.675 0a5.35 5.35 0 1 1-10.7 0V5.95a5.35 5.35 0 1 1 10.7 0v13.417z" transform="translate(-41.017 -.6)" style="fill:#2eb67d"/>
        <path data-name="Path 2935" d="M72.25 80.176a5.35 5.35 0 1 1-5.35 5.35v-5.35zm0-2.675a5.35 5.35 0 0 1 0-10.7h13.417a5.35 5.35 0 0 1 0 10.7z" transform="translate(-41.017 -40.877)" style="fill:#ecb22e"/>
    </g>
</svg>
