<svg xmlns="http://www.w3.org/2000/svg" width="193.917" height="190.09" viewBox="0 0 193.917 190.09">
    <defs>
        <clipPath id="asxok9h5ia"/>
    </defs>
    <g data-name="Group 3261" style="opacity:.5">
        <g data-name="Group 973" style="clip-path:url(#asxok9h5ia)">
            <g data-name="Group 975">
                <path data-name="Path 2867" d="M5.789 41.808A2.895 2.895 0 1 1 2.9 38.915a2.893 2.893 0 0 1 2.893 2.893" transform="translate(0 83.453)" style="fill:#d9e0e9"/>
                <path data-name="Path 2868" d="M11.679 41.808a2.895 2.895 0 1 1-2.893-2.893 2.893 2.893 0 0 1 2.893 2.893" transform="translate(12.631 83.453)" style="fill:#d9e0e9"/>
                <path data-name="Path 2869" d="M17.569 41.808a2.895 2.895 0 1 1-2.893-2.893 2.893 2.893 0 0 1 2.893 2.893" transform="translate(25.262 83.453)" style="fill:#d9e0e9"/>
                <path data-name="Path 2870" d="M23.459 41.808a2.895 2.895 0 1 1-2.893-2.893 2.893 2.893 0 0 1 2.893 2.893" transform="translate(37.893 83.453)" style="fill:#d9e0e9"/>
                <path data-name="Path 2871" d="M29.352 41.808a2.9 2.9 0 1 1-2.893-2.893 2.893 2.893 0 0 1 2.893 2.893" transform="translate(50.524 83.453)" style="fill:#d9e0e9"/>
                <path data-name="Path 2872" d="M35.24 41.808a2.895 2.895 0 1 1-2.893-2.893 2.893 2.893 0 0 1 2.893 2.893" transform="translate(63.157 83.453)" style="fill:#d9e0e9"/>
                <path data-name="Path 2873" d="M41.13 41.808a2.895 2.895 0 1 1-2.893-2.893 2.893 2.893 0 0 1 2.893 2.893" transform="translate(75.789 83.453)" style="fill:#d9e0e9"/>
                <path data-name="Path 2874" d="M47.02 41.808a2.895 2.895 0 1 1-2.893-2.893 2.893 2.893 0 0 1 2.893 2.893" transform="translate(88.419 83.453)" style="fill:#d9e0e9"/>
                <path data-name="Path 2875" d="M5.789 36.249A2.895 2.895 0 1 1 2.9 33.356a2.893 2.893 0 0 1 2.893 2.893" transform="translate(0 71.531)" style="fill:#d9e0e9"/>
                <path data-name="Path 2876" d="M11.679 36.249a2.895 2.895 0 1 1-2.893-2.893 2.893 2.893 0 0 1 2.893 2.893" transform="translate(12.631 71.531)" style="fill:#d9e0e9"/>
                <path data-name="Path 2877" d="M17.569 36.249a2.895 2.895 0 1 1-2.893-2.893 2.893 2.893 0 0 1 2.893 2.893" transform="translate(25.262 71.531)" style="fill:#d9e0e9"/>
                <path data-name="Path 2878" d="M23.459 36.249a2.895 2.895 0 1 1-2.893-2.893 2.893 2.893 0 0 1 2.893 2.893" transform="translate(37.893 71.531)" style="fill:#d9e0e9"/>
                <path data-name="Path 2879" d="M29.352 36.249a2.9 2.9 0 1 1-2.893-2.893 2.893 2.893 0 0 1 2.893 2.893" transform="translate(50.524 71.531)" style="fill:#d9e0e9"/>
                <path data-name="Path 2880" d="M35.24 36.249a2.895 2.895 0 1 1-2.893-2.893 2.893 2.893 0 0 1 2.893 2.893" transform="translate(63.157 71.531)" style="fill:#d9e0e9"/>
                <path data-name="Path 2881" d="M41.13 36.249a2.895 2.895 0 1 1-2.893-2.893 2.893 2.893 0 0 1 2.893 2.893" transform="translate(75.789 71.531)" style="fill:#d9e0e9"/>
                <path data-name="Path 2882" d="M47.02 36.249a2.895 2.895 0 1 1-2.893-2.893 2.893 2.893 0 0 1 2.893 2.893" transform="translate(88.419 71.531)" style="fill:#d9e0e9"/>
                <path data-name="Path 2883" d="M5.789 30.69A2.895 2.895 0 1 1 2.9 27.8a2.893 2.893 0 0 1 2.889 2.89" transform="translate(0 59.609)" style="fill:#d9e0e9"/>
                <path data-name="Path 2884" d="M11.679 30.69a2.895 2.895 0 1 1-2.893-2.89 2.893 2.893 0 0 1 2.893 2.893" transform="translate(12.631 59.609)" style="fill:#d9e0e9"/>
                <path data-name="Path 2885" d="M17.569 30.69a2.895 2.895 0 1 1-2.893-2.89 2.893 2.893 0 0 1 2.893 2.893" transform="translate(25.262 59.609)" style="fill:#d9e0e9"/>
                <path data-name="Path 2886" d="M23.459 30.69a2.895 2.895 0 1 1-2.893-2.89 2.893 2.893 0 0 1 2.893 2.893" transform="translate(37.893 59.609)" style="fill:#d9e0e9"/>
                <path data-name="Path 2887" d="M29.352 30.69a2.9 2.9 0 1 1-2.893-2.89 2.893 2.893 0 0 1 2.893 2.893" transform="translate(50.524 59.609)" style="fill:#d9e0e9"/>
                <path data-name="Path 2888" d="M35.24 30.69a2.895 2.895 0 1 1-2.893-2.89 2.893 2.893 0 0 1 2.893 2.89" transform="translate(63.157 59.609)" style="fill:#d9e0e9"/>
                <path data-name="Path 2889" d="M41.13 30.69a2.895 2.895 0 1 1-2.893-2.89 2.893 2.893 0 0 1 2.893 2.89" transform="translate(75.789 59.609)" style="fill:#d9e0e9"/>
                <path data-name="Path 2890" d="M47.02 30.69a2.895 2.895 0 1 1-2.893-2.89 2.893 2.893 0 0 1 2.893 2.89" transform="translate(88.419 59.609)" style="fill:#d9e0e9"/>
                <path data-name="Path 2891" d="M5.789 25.13A2.895 2.895 0 1 1 2.9 22.237a2.893 2.893 0 0 1 2.889 2.893" transform="translate(0 47.688)" style="fill:#d9e0e9"/>
                <path data-name="Path 2892" d="M11.679 25.13a2.895 2.895 0 1 1-2.893-2.893 2.893 2.893 0 0 1 2.893 2.893" transform="translate(12.631 47.688)" style="fill:#d9e0e9"/>
                <path data-name="Path 2893" d="M17.569 25.13a2.895 2.895 0 1 1-2.893-2.893 2.893 2.893 0 0 1 2.893 2.893" transform="translate(25.262 47.688)" style="fill:#d9e0e9"/>
                <path data-name="Path 2894" d="M23.459 25.13a2.895 2.895 0 1 1-2.893-2.893 2.893 2.893 0 0 1 2.893 2.893" transform="translate(37.893 47.688)" style="fill:#d9e0e9"/>
                <path data-name="Path 2895" d="M29.352 25.13a2.9 2.9 0 1 1-2.893-2.893 2.893 2.893 0 0 1 2.893 2.893" transform="translate(50.524 47.688)" style="fill:#d9e0e9"/>
                <path data-name="Path 2896" d="M35.24 25.13a2.895 2.895 0 1 1-2.893-2.893 2.893 2.893 0 0 1 2.893 2.893" transform="translate(63.157 47.688)" style="fill:#d9e0e9"/>
                <path data-name="Path 2897" d="M41.13 25.13a2.895 2.895 0 1 1-2.893-2.893 2.893 2.893 0 0 1 2.893 2.893" transform="translate(75.789 47.688)" style="fill:#d9e0e9"/>
                <path data-name="Path 2898" d="M47.02 25.13a2.895 2.895 0 1 1-2.893-2.893 2.893 2.893 0 0 1 2.893 2.893" transform="translate(88.419 47.688)" style="fill:#d9e0e9"/>
                <path data-name="Path 2899" d="M5.789 19.571A2.895 2.895 0 1 1 2.9 16.678a2.893 2.893 0 0 1 2.893 2.893" transform="translate(0 35.766)" style="fill:#d9e0e9"/>
                <path data-name="Path 2900" d="M11.679 19.571a2.895 2.895 0 1 1-2.893-2.893 2.893 2.893 0 0 1 2.893 2.893" transform="translate(12.631 35.766)" style="fill:#d9e0e9"/>
                <path data-name="Path 2901" d="M17.569 19.571a2.895 2.895 0 1 1-2.893-2.893 2.893 2.893 0 0 1 2.893 2.893" transform="translate(25.262 35.766)" style="fill:#d9e0e9"/>
                <path data-name="Path 2902" d="M23.459 19.571a2.895 2.895 0 1 1-2.893-2.893 2.893 2.893 0 0 1 2.893 2.893" transform="translate(37.893 35.766)" style="fill:#d9e0e9"/>
                <path data-name="Path 2903" d="M29.352 19.571a2.9 2.9 0 1 1-2.893-2.893 2.893 2.893 0 0 1 2.893 2.893" transform="translate(50.524 35.766)" style="fill:#d9e0e9"/>
                <path data-name="Path 2904" d="M35.24 19.571a2.895 2.895 0 1 1-2.893-2.893 2.893 2.893 0 0 1 2.893 2.893" transform="translate(63.157 35.766)" style="fill:#d9e0e9"/>
                <path data-name="Path 2905" d="M41.13 19.571a2.895 2.895 0 1 1-2.893-2.893 2.893 2.893 0 0 1 2.893 2.893" transform="translate(75.789 35.766)" style="fill:#d9e0e9"/>
                <path data-name="Path 2906" d="M47.02 19.571a2.895 2.895 0 1 1-2.893-2.893 2.893 2.893 0 0 1 2.893 2.893" transform="translate(88.419 35.766)" style="fill:#d9e0e9"/>
                <path data-name="Path 2907" d="M5.789 14.012A2.895 2.895 0 1 1 2.9 11.119a2.893 2.893 0 0 1 2.893 2.893" transform="translate(0 23.844)" style="fill:#d9e0e9"/>
                <path data-name="Path 2908" d="M11.679 14.012a2.895 2.895 0 1 1-2.893-2.893 2.893 2.893 0 0 1 2.893 2.893" transform="translate(12.631 23.844)" style="fill:#d9e0e9"/>
                <path data-name="Path 2909" d="M17.569 14.012a2.895 2.895 0 1 1-2.893-2.893 2.893 2.893 0 0 1 2.893 2.893" transform="translate(25.262 23.844)" style="fill:#d9e0e9"/>
                <path data-name="Path 2910" d="M23.459 14.012a2.895 2.895 0 1 1-2.893-2.893 2.893 2.893 0 0 1 2.893 2.893" transform="translate(37.893 23.844)" style="fill:#d9e0e9"/>
                <path data-name="Path 2911" d="M29.352 14.012a2.9 2.9 0 1 1-2.893-2.893 2.893 2.893 0 0 1 2.893 2.893" transform="translate(50.524 23.844)" style="fill:#d9e0e9"/>
                <path data-name="Path 2912" d="M35.24 14.012a2.895 2.895 0 1 1-2.893-2.893 2.893 2.893 0 0 1 2.893 2.893" transform="translate(63.157 23.844)" style="fill:#d9e0e9"/>
                <path data-name="Path 2913" d="M41.13 14.012a2.895 2.895 0 1 1-2.893-2.893 2.893 2.893 0 0 1 2.893 2.893" transform="translate(75.789 23.844)" style="fill:#d9e0e9"/>
                <path data-name="Path 2914" d="M47.02 14.012a2.895 2.895 0 1 1-2.893-2.893 2.893 2.893 0 0 1 2.893 2.893" transform="translate(88.419 23.844)" style="fill:#d9e0e9"/>
                <path data-name="Path 2915" d="M5.789 8.453A2.895 2.895 0 1 1 2.9 5.56a2.893 2.893 0 0 1 2.889 2.893" transform="translate(0 11.924)" style="fill:#d9e0e9"/>
                <path data-name="Path 2916" d="M11.679 8.453A2.895 2.895 0 1 1 8.786 5.56a2.893 2.893 0 0 1 2.893 2.893" transform="translate(12.631 11.924)" style="fill:#d9e0e9"/>
                <path data-name="Path 2917" d="M17.569 8.453a2.895 2.895 0 1 1-2.893-2.893 2.893 2.893 0 0 1 2.893 2.893" transform="translate(25.262 11.924)" style="fill:#d9e0e9"/>
                <path data-name="Path 2918" d="M23.459 8.453a2.895 2.895 0 1 1-2.893-2.893 2.893 2.893 0 0 1 2.893 2.893" transform="translate(37.893 11.924)" style="fill:#d9e0e9"/>
                <path data-name="Path 2919" d="M29.352 8.453a2.9 2.9 0 1 1-2.893-2.893 2.893 2.893 0 0 1 2.893 2.893" transform="translate(50.524 11.924)" style="fill:#d9e0e9"/>
                <path data-name="Path 2920" d="M35.24 8.453a2.895 2.895 0 1 1-2.893-2.893 2.893 2.893 0 0 1 2.893 2.893" transform="translate(63.157 11.924)" style="fill:#d9e0e9"/>
                <path data-name="Path 2921" d="M41.13 8.453a2.895 2.895 0 1 1-2.893-2.893 2.893 2.893 0 0 1 2.893 2.893" transform="translate(75.789 11.924)" style="fill:#d9e0e9"/>
                <path data-name="Path 2922" d="M47.02 8.453a2.895 2.895 0 1 1-2.893-2.893 2.893 2.893 0 0 1 2.893 2.893" transform="translate(88.419 11.924)" style="fill:#d9e0e9"/>
                <path data-name="Path 2923" d="M5.789 2.893A2.895 2.895 0 1 1 2.9 0a2.893 2.893 0 0 1 2.889 2.893" style="fill:#d9e0e9"/>
                <path data-name="Path 2924" d="M11.679 2.893A2.895 2.895 0 1 1 8.786 0a2.893 2.893 0 0 1 2.893 2.893" transform="translate(12.631)" style="fill:#d9e0e9"/>
                <path data-name="Path 2925" d="M17.569 2.893A2.895 2.895 0 1 1 14.676 0a2.893 2.893 0 0 1 2.893 2.893" transform="translate(25.262)" style="fill:#d9e0e9"/>
                <path data-name="Path 2926" d="M23.459 2.893A2.895 2.895 0 1 1 20.566 0a2.893 2.893 0 0 1 2.893 2.893" transform="translate(37.893)" style="fill:#d9e0e9"/>
                <path data-name="Path 2927" d="M29.352 2.893A2.9 2.9 0 1 1 26.459 0a2.893 2.893 0 0 1 2.893 2.893" transform="translate(50.524)" style="fill:#d9e0e9"/>
                <path data-name="Path 2928" d="M35.24 2.893A2.895 2.895 0 1 1 32.347 0a2.893 2.893 0 0 1 2.893 2.893" transform="translate(63.157)" style="fill:#d9e0e9"/>
                <path data-name="Path 2929" d="M41.13 2.893A2.895 2.895 0 1 1 38.237 0a2.893 2.893 0 0 1 2.893 2.893" transform="translate(75.789)" style="fill:#d9e0e9"/>
                <path data-name="Path 2930" d="M47.02 2.893A2.895 2.895 0 1 1 44.127 0a2.893 2.893 0 0 1 2.893 2.893" transform="translate(88.419)" style="fill:#d9e0e9"/>
            </g>
            <path data-name="Rectangle 487" d="M1.633 0h125.331a1.633 1.633 0 0 1 1.636 1.633v125.329a1.632 1.632 0 0 1-1.632 1.632H1.633A1.633 1.633 0 0 1 0 126.961V1.633A1.633 1.633 0 0 1 1.633 0z" transform="translate(64.875 61.052)" style="fill:none;stroke:#ff6c1a;stroke-miterlimit:10;stroke-width:.889px"/>
        </g>
    </g>
</svg>
