<svg xmlns="http://www.w3.org/2000/svg" width="86.557" height="103.179" viewBox="0 0 86.557 103.179">
    <g data-name="Mobile Development-01">
        <path data-name="Path 3336" d="M76.781 24.958v-8.7A13.372 13.372 0 0 0 63.409 2.889H24.09a13.372 13.372 0 0 0-13.372 13.372V89.7a13.372 13.372 0 0 0 13.372 13.368h39.32A13.372 13.372 0 0 0 76.782 89.7V79.6" style="fill:none;stroke:#ff6c1a;stroke-linecap:round;stroke-linejoin:round;stroke-miterlimit:10;stroke-width:3px" transform="translate(-9.218 -1.389)"/>
        <path data-name="Path 3337" d="M44.958 19.236h-5.512a1.593 1.593 0 0 1-1.593-1.593v-.212a1.593 1.593 0 0 1 1.593-1.593h5.513a1.593 1.593 0 0 1 1.593 1.593v.212a1.592 1.592 0 0 1-1.594 1.593z" transform="translate(-7.503 -.57)" style="fill:#ff6c1a"/>
        <path data-name="Path 3338" d="m53.8 68 9.524-33.861a1.593 1.593 0 0 1 1.965-1.1l.2.057a1.593 1.593 0 0 1 1.1 1.965l-9.522 33.856a1.593 1.593 0 0 1-1.965 1.1l-.2-.057A1.593 1.593 0 0 1 53.8 68z" transform="translate(-6.499 .513)" style="fill:#ff6c1a"/>
        <path data-name="Path 3339" d="M42.218 85.247h-.278a2.135 2.135 0 0 1-2.135-2.135v-.284a2.135 2.135 0 0 1 2.135-2.135h.278a2.135 2.135 0 0 1 2.135 2.135v.284a2.135 2.135 0 0 1-2.135 2.135z" transform="translate(-7.379 3.529)" style="fill:#ff6c1a"/>
        <path data-name="Path 3340" d="M44.582 36.449 31.5 47.363s-4.361 2.771 0 7.131l12.961 11.517" transform="translate(-8.027 .733)" style="fill:none;stroke:#ff6c1a;stroke-linecap:round;stroke-linejoin:round;stroke-miterlimit:10;stroke-width:3px"/>
        <path data-name="Path 3341" d="m75.154 36.449 13.083 10.914s4.361 2.771 0 7.131L75.275 66.011" transform="translate(-5.145 .733)" style="fill:none;stroke:#ff6c1a;stroke-linecap:round;stroke-linejoin:round;stroke-miterlimit:10;stroke-width:3px"/>
    </g>
</svg>
