<svg xmlns="http://www.w3.org/2000/svg" width="103.323" height="103.18" viewBox="0 0 103.323 103.18">
    <g data-name="Property Management-01" transform="translate(-4.181 -3.84)">
        <path data-name="Path 3349" d="M5.681 48.678 55.723 5.34 106 48.678l-8.185 9.482-41.948-36.514-42.189 36.275z" style="fill:none;stroke:#ff6c1a;stroke-linecap:round;stroke-linejoin:round;stroke-miterlimit:10;stroke-width:3px"/>
        <path data-name="Line 367" transform="translate(73.321 11.302)" style="fill:none;stroke:#ff6c1a;stroke-linecap:round;stroke-linejoin:round;stroke-miterlimit:10;stroke-width:3px" d="M0 0h27.93"/>
        <path data-name="Line 368" transform="translate(93.409 11.518)" style="fill:none;stroke:#ff6c1a;stroke-linecap:round;stroke-linejoin:round;stroke-miterlimit:10;stroke-width:3px" d="M0 0v26.098"/>
        <path data-name="Line 369" transform="translate(81.234 11.518)" style="fill:none;stroke:#ff6c1a;stroke-linecap:round;stroke-linejoin:round;stroke-miterlimit:10;stroke-width:3px" d="M0 0v15.443"/>
        <path data-name="Path 3350" d="M92.044 51.011V100h-75.47V49.383" transform="translate(1.365 5.521)" style="fill:none;stroke:#ff6c1a;stroke-linecap:round;stroke-linejoin:round;stroke-miterlimit:10;stroke-width:3px"/>
        <circle data-name="Ellipse 1088" cx="6.465" cy="6.465" r="6.465" transform="translate(49.366 64.349)" style="fill:none;stroke:#ff6c1a;stroke-linecap:round;stroke-linejoin:round;stroke-miterlimit:10;stroke-width:3px"/>
        <path data-name="Path 3351" d="M46.617 41.532h12.57v6.68l5.962 3.663 6.106-3.088 6.608 10.631-5.463 3.376v7.47l5.387 3.017L71.4 83.552l-5.58-2.442-6.082 3.017-.338 7.519H46.953v-6.7l-6.081-3.878-6.656 2.92-6.322-10.779 6.417-3.783-.288-7.279-5.986-3.208L34.5 48.356l5.89 3.256 5.986-3.926z" transform="translate(2.784 4.536)" style="fill:none;stroke:#ff6c1a;stroke-linecap:round;stroke-linejoin:round;stroke-miterlimit:10;stroke-width:3px"/>
    </g>
</svg>
