<svg xmlns="http://www.w3.org/2000/svg" width="103.181" height="103.179" viewBox="0 0 103.181 103.179">
    <g data-name="Website Development-01" transform="translate(-3.194 -3.186)">
        <path data-name="Path 3342" d="M11.677 14.064H8.291a3.6 3.6 0 0 0-3.6 3.6v61.9a3.6 3.6 0 0 0 3.6 3.6h92.987a3.6 3.6 0 0 0 3.6-3.6v-61.9a3.6 3.6 0 0 0-3.6-3.6H97.9" transform="translate(0 .989)" style="fill:none;stroke:#ff6c1a;stroke-linecap:round;stroke-linejoin:round;stroke-miterlimit:10;stroke-width:3px"/>
        <path data-name="Path 3343" d="M89.74 63.469V8.167a3.481 3.481 0 0 0-3.481-3.481H20.667a3.481 3.481 0 0 0-3.481 3.481v55.316" transform="translate(1.317)" style="fill:none;stroke:#ff6c1a;stroke-linecap:round;stroke-linejoin:round;stroke-miterlimit:10;stroke-width:3px"/>
        <path data-name="Line 362" transform="translate(19.944 18.392)" style="fill:none;stroke:#ff6c1a;stroke-linecap:round;stroke-linejoin:round;stroke-miterlimit:10;stroke-width:3px" d="M0 0h69.785"/>
        <path data-name="Line 363" transform="translate(6.467 70.325)" style="fill:none;stroke:#ff6c1a;stroke-linecap:round;stroke-linejoin:round;stroke-miterlimit:10;stroke-width:3px" d="M0 0h96.833"/>
        <path data-name="Line 364" transform="translate(51.247 77.229)" style="fill:none;stroke:#ff6c1a;stroke-linecap:round;stroke-linejoin:round;stroke-miterlimit:10;stroke-width:3px" d="M0 0h7.285"/>
        <path data-name="Line 365" transform="translate(63.269 11.601)" style="fill:none;stroke:#ff6c1a;stroke-linecap:round;stroke-linejoin:round;stroke-miterlimit:10;stroke-width:3px" d="M0 0h21.062"/>
        <path data-name="Line 366" transform="translate(49.587 28.812)" style="fill:none;stroke:#ff6c1a;stroke-linecap:round;stroke-linejoin:round;stroke-miterlimit:10;stroke-width:3px" d="M0 31.238 10.411 0"/>
        <circle data-name="Ellipse 1085" cx=".168" cy=".168" r=".168" transform="translate(32.177 11.433)" style="fill:none;stroke:#ff6c1a;stroke-linecap:round;stroke-linejoin:round;stroke-miterlimit:10;stroke-width:3px"/>
        <circle data-name="Ellipse 1086" cx=".168" cy=".168" r=".168" transform="translate(39.08 11.433)" style="fill:none;stroke:#ff6c1a;stroke-linecap:round;stroke-linejoin:round;stroke-miterlimit:10;stroke-width:3px"/>
        <circle data-name="Ellipse 1087" cx=".168" cy=".168" r=".168" transform="translate(25.253 11.433)" style="fill:none;stroke:#ff6c1a;stroke-linecap:round;stroke-linejoin:round;stroke-miterlimit:10;stroke-width:3px"/>
        <path data-name="Path 3344" d="M74.269 95.952H30.016a.335.335 0 0 1-.335-.335v-3.37a3.034 3.034 0 0 1 3.034-3.034h38.856a3.034 3.034 0 0 1 3.034 3.034v3.369a.337.337 0 0 1-.336.336z" transform="translate(2.635 8.913)" style="fill:none;stroke:#ff6c1a;stroke-linecap:round;stroke-linejoin:round;stroke-miterlimit:10;stroke-width:3px"/>
        <path data-name="Path 3345" d="M41.807 82.543A26.985 26.985 0 0 1 35.915 90" transform="translate(3.292 8.21)" style="fill:none;stroke:#ff6c1a;stroke-linecap:round;stroke-linejoin:round;stroke-miterlimit:10;stroke-width:3px"/>
        <path data-name="Path 3346" d="M58.713 82.543A26.985 26.985 0 0 0 64.605 90" transform="translate(5.696 8.21)" style="fill:none;stroke:#ff6c1a;stroke-linecap:round;stroke-linejoin:round;stroke-miterlimit:10;stroke-width:3px"/>
        <path data-name="Path 3347" d="m38.578 32.766-10.525 8.679 10.573 8.82" transform="translate(2.463 2.961)" style="fill:none;stroke:#ff6c1a;stroke-linecap:round;stroke-linejoin:round;stroke-miterlimit:10;stroke-width:3px"/>
        <path data-name="Path 3348" d="m62.431 32.766 10.525 8.679-10.573 8.82" transform="translate(6.083 2.961)" style="fill:none;stroke:#ff6c1a;stroke-linecap:round;stroke-linejoin:round;stroke-miterlimit:10;stroke-width:3px"/>
    </g>
</svg>
