<svg xmlns="http://www.w3.org/2000/svg" width="190" height="116.708" viewBox="0 0 190 116.708">
  <g id="Group_4" data-name="Group 4" transform="translate(1480.101 -859.017)">
    <g id="Group_1" data-name="Group 1" transform="translate(-1414.575 859.017)">
      <path id="Path_1" data-name="Path 1" d="M-1083.9,929.656a16.588,16.588,0,0,1,2.853-8.717,18.925,18.925,0,0,1,9.2-7.025,22.256,22.256,0,0,1,5.288-1.311c.4-.043.789-.133,1.206-.206.273-.883.042-2.159,1.485-2.126,1.366.031,1.283,1.2,1.458,2.091,1.482.28,2.922.484,4.326.833a20.544,20.544,0,0,1,7.9,3.874,16.258,16.258,0,0,1,6,9.691,20.092,20.092,0,0,1,.163,2.894h-18.47a9.7,9.7,0,0,0-.179,2.985c-.038.971-.01,1.944-.01,2.917s0,1.929,0,2.993h-2.658c-.038-1.425-.011-2.867-.016-4.309s0-2.9,0-4.489Z" transform="translate(1089.843 -901.024)" fill="#282828"/>
      <path id="Path_2" data-name="Path 2" d="M-920.472,1059.981h12.183c.118-.879.208-1.667.332-2.45.343-2.159.648-4.326,1.07-6.469.351-1.784.83-3.544,1.289-5.306.217-.833.547-1.045,1.166-.9.557.133.833.6.68,1.331-.347,1.663-.763,3.311-1.109,4.974a77.258,77.258,0,0,0-1.667,14.2c-.048,2.348-.107,4.695-.161,7.042a3.733,3.733,0,0,1-.009.485.97.97,0,0,1-.956.918.946.946,0,0,1-.986-.874,4.373,4.373,0,0,1-.022-.727q.012-3.706.027-7.412c0-.318,0-.636,0-1.064h-9.888c-.033.381-.1.8-.1,1.223-.009,2.391,0,4.781,0,7.172a3.543,3.543,0,0,1-.04.845.865.865,0,0,1-.943.768.963.963,0,0,1-.926-.817,2.8,2.8,0,0,1-.023-.484q0-5.9.008-11.79C-920.551,1060.488-920.515,1060.33-920.472,1059.981Z" transform="translate(955.973 -1011.298)" fill="#282828"/>
      <path id="Path_3" data-name="Path 3" d="M-1112.305,1060.175h12.173a9.288,9.288,0,0,1,.1.931q.009,5.654,0,11.308c0,.2,0,.406-.012.608-.036.552-.416.759-.89.828a.831.831,0,0,1-.969-.713,4.844,4.844,0,0,1-.051-.968c0-2.391,0-4.783,0-7.174,0-.391-.041-.782-.065-1.207h-9.89c0,.992,0,1.911,0,2.83q0,2.917-.009,5.835a2.4,2.4,0,0,1-.052.723.9.9,0,0,1-.982.728.91.91,0,0,1-.943-.78,3.027,3.027,0,0,1-.021-.6,85.914,85.914,0,0,0-.815-15.378,86.734,86.734,0,0,0-1.918-10,8.645,8.645,0,0,1-.21-.948.971.971,0,0,1,.656-1.141.852.852,0,0,1,1.073.556,4.365,4.365,0,0,1,.244.682,78.329,78.329,0,0,1,2.266,12.034C-1112.562,1058.883-1112.433,1059.431-1112.305,1060.175Z" transform="translate(1116.869 -1011.464)" fill="#282828"/>
      <path id="Path_4" data-name="Path 4" d="M-1053.983,1075.034v-2.812c1.092-.335,27.68-.4,29.5-.076v2.889C-1034.329,1075.374-1044.1,1075.343-1053.983,1075.034Z" transform="translate(1065.327 -1033.524)" fill="#282828"/>
      <path id="Path_5" data-name="Path 5" d="M-1007.184,1096.49h2.14l2,3.544,1.807-3.522h2.4l-2.909,5.944c.593,1.13,1.16,2.24,1.754,3.335,1.136,2.1,2.3,4.178,3.424,6.278a15.145,15.145,0,0,1,.781,1.777c.239.628.107,1.068-.317,1.269a1.026,1.026,0,0,1-1.345-.478c-.759-1.337-1.48-2.695-2.208-4.049-.975-1.814-1.942-3.633-2.976-5.569a5.3,5.3,0,0,0-.483.665q-2.226,4.449-4.438,8.906a4.967,4.967,0,0,1-.545.942,1,1,0,0,1-1.213.29c-.507-.213-.52-.684-.424-1.142a3.25,3.25,0,0,1,.27-.674q1.532-3.3,3.068-6.6c.645-1.393,1.221-2.821,1.941-4.173a1.67,1.67,0,0,0-.158-1.8c-.836-1.523-1.659-3.054-2.483-4.584A1.948,1.948,0,0,1-1007.184,1096.49Z" transform="translate(1029.104 -1053.651)" fill="#282828"/>
      <path id="Path_6" data-name="Path 6" d="M-856.187,891.4a4.151,4.151,0,0,1-3.989,4.2c-2.287.07-4.042-2.335-4.01-4.181a4.215,4.215,0,0,1,3.934-4.126A4.025,4.025,0,0,1-856.187,891.4Z" transform="translate(909.769 -882.195)" fill="#282828"/>
      <path id="Path_7" data-name="Path 7" d="M-818.94,872.077c-.071.282-.063.477-.156.586a21.428,21.428,0,0,1-1.928,2.136.88.88,0,0,1-1.3-.133,1.052,1.052,0,0,1-.055-1.352,20.782,20.782,0,0,1,1.714-1.88.82.82,0,0,1,1.115-.108A4.013,4.013,0,0,1-818.94,872.077Z" transform="translate(875.689 -868.965)" fill="#282828"/>
      <path id="Path_8" data-name="Path 8" d="M-880.445,931.725c-.734-.02-1.324-.96-.9-1.531a12.392,12.392,0,0,1,2-2.087,1.342,1.342,0,0,1,1.123.025.788.788,0,0,1,.322,1.064,5.484,5.484,0,0,1-2.126,2.409A1.319,1.319,0,0,1-880.445,931.725Z" transform="translate(923.951 -915.55)" fill="#282828"/>
      <path id="Path_9" data-name="Path 9" d="M-877.693,870.924a1.477,1.477,0,0,1,.567.215,16.381,16.381,0,0,1,1.706,1.707,1.083,1.083,0,0,1-.1,1.534,1.135,1.135,0,0,1-1.529-.14,12.274,12.274,0,0,1-1.509-1.722A.994.994,0,0,1-877.693,870.924Z" transform="translate(921.719 -868.776)" fill="#282828"/>
      <path id="Path_10" data-name="Path 10" d="M-818.235,931.186c-.087-.023-.344-.013-.455-.136-.62-.679-1.236-1.368-1.788-2.1a.786.786,0,0,1,.091-1.1.993.993,0,0,1,1.319-.168,11.626,11.626,0,0,1,1.826,2.061C-816.817,930.4-817.349,931.15-818.235,931.186Z" transform="translate(874.095 -915.141)" fill="#282828"/>
      <path id="Path_11" data-name="Path 11" d="M-891.27,907.138c-.461-.029-.823-.045-1.183-.077a.86.86,0,0,1-.89-.813.984.984,0,0,1,.569-1.1,4.379,4.379,0,0,1,3.06,0,.821.821,0,0,1,.59.94.973.973,0,0,1-.806.929C-890.4,907.1-890.887,907.108-891.27,907.138Z" transform="translate(933.671 -896.604)" fill="#282828"/>
      <path id="Path_12" data-name="Path 12" d="M-811.45,907.661a10.543,10.543,0,0,1-1.152-.089,1.054,1.054,0,0,1-.983-1.043.871.871,0,0,1,.889-.939,11.557,11.557,0,0,1,2.5-.023.93.93,0,0,1,.831,1.12.969.969,0,0,1-.958.908C-810.681,907.623-811.042,907.638-811.45,907.661Z" transform="translate(868.299 -897.123)" fill="#282828"/>
      <path id="Path_13" data-name="Path 13" d="M-845.19,861.247a11.947,11.947,0,0,1,.01-1.324.916.916,0,0,1,.934-.906.959.959,0,0,1,.91.941,23.546,23.546,0,0,1-.016,2.529c-.046.676-.45,1.065-.945,1.059-.467-.006-.859-.449-.915-1.093-.034-.4-.006-.8-.006-1.2Z" transform="translate(894.232 -859.017)" fill="#282828"/>
      <path id="Path_14" data-name="Path 14" d="M-843.316,939.437c0,.4.03.812-.007,1.212a1.1,1.1,0,0,1-.976,1.054,1.081,1.081,0,0,1-.882-1.012c-.043-.847-.046-1.7-.008-2.547a.931.931,0,0,1,.914-.944.907.907,0,0,1,.942.9,12.176,12.176,0,0,1,.01,1.333Z" transform="translate(894.22 -923.094)" fill="#282828"/>
    </g>
    <g id="Group_2" data-name="Group 2" transform="translate(-1480.101 936.018)">
      <path id="Path_15" data-name="Path 15" d="M-1467.839,1287.091v2.194h-9.553v6.957h8.165v2.194h-8.165v8.554h-2.708v-19.9Z" transform="translate(1480.101 -1286.869)" fill="#282828"/>
      <path id="Path_16" data-name="Path 16" d="M-1372.469,1306.99h-2.083a.894.894,0,0,1-.583-.181,1.106,1.106,0,0,1-.333-.458l-1.861-4.8h-8.929l-1.861,4.8a1.089,1.089,0,0,1-.333.444.888.888,0,0,1-.583.194h-2.083l7.957-19.9h2.736Zm-13.039-7.387h7.429l-3.124-8.1a15.091,15.091,0,0,1-.6-1.875q-.153.57-.3,1.049t-.284.84Z" transform="translate(1407.17 -1286.869)" fill="#282828"/>
      <path id="Path_17" data-name="Path 17" d="M-1249.178,1306.99v-19.9h6.346a12.143,12.143,0,0,1,3.159.361,6.123,6.123,0,0,1,2.18,1.028,4.057,4.057,0,0,1,1.264,1.631,5.516,5.516,0,0,1,.41,2.173,4.411,4.411,0,0,1-.229,1.416,4.137,4.137,0,0,1-.694,1.264,4.929,4.929,0,0,1-1.167,1.041,6.509,6.509,0,0,1-1.646.75,6.137,6.137,0,0,1,3.291,1.569,4.112,4.112,0,0,1,1.111,3,5.588,5.588,0,0,1-.465,2.305,4.944,4.944,0,0,1-1.361,1.791,6.352,6.352,0,0,1-2.194,1.159,9.85,9.85,0,0,1-2.965.41Zm2.694-10.984h3.555a6.89,6.89,0,0,0,1.972-.25,3.992,3.992,0,0,0,1.382-.694,2.713,2.713,0,0,0,.812-1.076,3.55,3.55,0,0,0,.264-1.382,3.049,3.049,0,0,0-1.055-2.569,5.334,5.334,0,0,0-3.277-.819h-3.652Zm0,1.916v6.929h4.3a6.549,6.549,0,0,0,1.979-.264,3.7,3.7,0,0,0,1.361-.743,2.882,2.882,0,0,0,.785-1.139,4.06,4.06,0,0,0,.25-1.451,2.987,2.987,0,0,0-1.09-2.437,5.116,5.116,0,0,0-3.3-.9Z" transform="translate(1290.836 -1286.869)" fill="#282828"/>
      <path id="Path_18" data-name="Path 18" d="M-1137.721,1287.091h2.152a.9.9,0,0,1,.583.181,1.115,1.115,0,0,1,.333.458l5.624,14.039a9.874,9.874,0,0,1,.354,1.027q.16.556.313,1.152.125-.6.271-1.152a8.076,8.076,0,0,1,.34-1.027l5.6-14.039a1.163,1.163,0,0,1,.333-.438.867.867,0,0,1,.583-.2h2.166l-8.109,19.9h-2.43Z" transform="translate(1199.485 -1286.869)" fill="#282828"/>
      <path id="Path_19" data-name="Path 19" d="M-983.367,1287.091v2.194h-9.553v6.61h7.734v2.111h-7.734v6.79h9.553v2.194h-12.261v-19.9Z" transform="translate(1083.025 -1286.869)" fill="#282828"/>
      <path id="Path_20" data-name="Path 20" d="M-879.63,1287.181a1.39,1.39,0,0,1,.4.368l11.525,15q-.042-.361-.056-.7t-.014-.66v-14.094h2.361v19.9h-1.361a1.154,1.154,0,0,1-.534-.111,1.347,1.347,0,0,1-.424-.375l-11.511-14.983q.027.347.042.681t.014.611v14.178h-2.36v-19.9h1.389A1.208,1.208,0,0,1-879.63,1287.181Z" transform="translate(989.529 -1286.869)" fill="#282828"/>
      <path id="Path_21" data-name="Path 21" d="M-733.685,1304.851a5.554,5.554,0,0,0,2.208-.417,4.632,4.632,0,0,0,1.646-1.166,5.1,5.1,0,0,0,1.027-1.792,7.075,7.075,0,0,0,.354-2.291v-12.095h2.68v12.095a9.075,9.075,0,0,1-.549,3.194,7.42,7.42,0,0,1-1.569,2.548,7.174,7.174,0,0,1-2.493,1.687,8.543,8.543,0,0,1-3.3.611,8.544,8.544,0,0,1-3.3-.611,7.245,7.245,0,0,1-2.5-1.687,7.356,7.356,0,0,1-1.576-2.548,9.068,9.068,0,0,1-.549-3.194v-12.095h2.68v12.081a7.088,7.088,0,0,0,.354,2.291,5.1,5.1,0,0,0,1.028,1.791,4.688,4.688,0,0,0,1.653,1.173A5.52,5.52,0,0,0-733.685,1304.851Z" transform="translate(874.835 -1286.869)" fill="#282828"/>
      <path id="Path_22" data-name="Path 22" d="M-591.262,1287.091v2.194h-9.554v6.61h7.734v2.111h-7.734v6.79h9.554v2.194h-12.261v-19.9Z" transform="translate(761.655 -1286.869)" fill="#282828"/>
      <path id="Path_23" data-name="Path 23" d="M-486.573,1289.192a1.08,1.08,0,0,1-.264.313.586.586,0,0,1-.361.1.959.959,0,0,1-.548-.236,8.936,8.936,0,0,0-.791-.521,6.444,6.444,0,0,0-1.153-.521,4.968,4.968,0,0,0-1.632-.236,4.824,4.824,0,0,0-1.6.243,3.393,3.393,0,0,0-1.16.66,2.7,2.7,0,0,0-.7.979,3.1,3.1,0,0,0-.236,1.215,2.247,2.247,0,0,0,.409,1.382,3.526,3.526,0,0,0,1.083.937,8.3,8.3,0,0,0,1.527.673q.854.285,1.75.59t1.75.687a6.161,6.161,0,0,1,1.527.965,4.4,4.4,0,0,1,1.083,1.43,4.762,4.762,0,0,1,.41,2.083,6.723,6.723,0,0,1-.444,2.451,5.655,5.655,0,0,1-1.3,1.993,6.073,6.073,0,0,1-2.1,1.333,7.713,7.713,0,0,1-2.826.486,8.628,8.628,0,0,1-3.52-.7,8.25,8.25,0,0,1-2.715-1.9l.778-1.278a1.022,1.022,0,0,1,.271-.257.635.635,0,0,1,.354-.1,1.105,1.105,0,0,1,.667.312,11.064,11.064,0,0,0,.937.688,7.161,7.161,0,0,0,1.361.687,5.372,5.372,0,0,0,1.951.312,5.123,5.123,0,0,0,1.708-.264,3.621,3.621,0,0,0,1.271-.743,3.223,3.223,0,0,0,.8-1.146,3.83,3.83,0,0,0,.277-1.486,2.493,2.493,0,0,0-.41-1.479,3.4,3.4,0,0,0-1.076-.965,7.527,7.527,0,0,0-1.52-.66l-1.75-.555a17.717,17.717,0,0,1-1.75-.66,5.685,5.685,0,0,1-1.52-.972,4.463,4.463,0,0,1-1.076-1.493,5.315,5.315,0,0,1-.41-2.215,5.27,5.27,0,0,1,.41-2.042,5.258,5.258,0,0,1,1.187-1.749,5.754,5.754,0,0,1,1.923-1.222,7.041,7.041,0,0,1,2.631-.458,8.422,8.422,0,0,1,3.041.528,7.009,7.009,0,0,1,2.4,1.527Z" transform="translate(675.476 -1285.86)" fill="#282828"/>
    </g>
    <g id="Group_3" data-name="Group 3" transform="translate(-1462.672 966.816)">
      <path id="Path_24" data-name="Path 24" d="M-1378.947,1461.329a2.64,2.64,0,0,0,.438-.228,2.208,2.208,0,0,0,.522-.466,1.873,1.873,0,0,0,.313-.57,1.989,1.989,0,0,0,.1-.637,2.466,2.466,0,0,0-.183-.968,1.834,1.834,0,0,0-.57-.736,2.734,2.734,0,0,0-.967-.457,5.308,5.308,0,0,0-1.379-.158h-2.813v8.719h3.111a4.327,4.327,0,0,0,1.3-.18,2.81,2.81,0,0,0,.972-.515,2.214,2.214,0,0,0,.609-.8,2.5,2.5,0,0,0,.207-1.026,1.856,1.856,0,0,0-.5-1.35A2.51,2.51,0,0,0-1378.947,1461.329Zm-.062-1.205a1.083,1.083,0,0,1-.322.427,1.64,1.64,0,0,1-.562.282,2.9,2.9,0,0,1-.82.1h-1.435V1458.2h1.477a2.218,2.218,0,0,1,1.351.333,1.214,1.214,0,0,1,.418,1.031A1.438,1.438,0,0,1-1379.008,1460.124Zm-3.139,1.814h1.751a2.123,2.123,0,0,1,1.358.364,1.185,1.185,0,0,1,.435.976,1.66,1.66,0,0,1-.1.591,1.15,1.15,0,0,1-.312.453,1.494,1.494,0,0,1-.551.3,2.722,2.722,0,0,1-.822.109h-1.757Z" transform="translate(1383.484 -1457.015)" fill="#282828"/>
      <path id="Path_25" data-name="Path 25" d="M-1299.046,1457.836a3.96,3.96,0,0,0-1.362-.924,4.566,4.566,0,0,0-1.754-.328,4.545,4.545,0,0,0-1.751.328,3.964,3.964,0,0,0-1.359.924,4.169,4.169,0,0,0-.877,1.412,5.041,5.041,0,0,0-.31,1.793,5.038,5.038,0,0,0,.31,1.793,4.132,4.132,0,0,0,.877,1.41,3.954,3.954,0,0,0,1.359.918,4.573,4.573,0,0,0,1.751.326,4.6,4.6,0,0,0,1.753-.326,3.936,3.936,0,0,0,1.362-.918,4.138,4.138,0,0,0,.878-1.41,5.034,5.034,0,0,0,.31-1.793,5.037,5.037,0,0,0-.31-1.793A4.18,4.18,0,0,0-1299.046,1457.836Zm-.179,3.205a4.235,4.235,0,0,1-.21,1.38,2.915,2.915,0,0,1-.589,1.023,2.519,2.519,0,0,1-.921.638,3.194,3.194,0,0,1-1.217.223,3.18,3.18,0,0,1-1.211-.223,2.547,2.547,0,0,1-.924-.639,2.894,2.894,0,0,1-.592-1.023,4.252,4.252,0,0,1-.21-1.38,4.277,4.277,0,0,1,.21-1.383,2.889,2.889,0,0,1,.592-1.026,2.589,2.589,0,0,1,.924-.642,3.144,3.144,0,0,1,1.211-.226,3.158,3.158,0,0,1,1.216.226,2.559,2.559,0,0,1,.921.642,2.907,2.907,0,0,1,.589,1.026A4.259,4.259,0,0,1-1299.225,1461.042Z" transform="translate(1320.354 -1456.584)" fill="#282828"/>
      <path id="Path_26" data-name="Path 26" d="M-1209.338,1457.836a3.958,3.958,0,0,0-1.362-.924,4.566,4.566,0,0,0-1.754-.328,4.544,4.544,0,0,0-1.751.328,3.965,3.965,0,0,0-1.359.924,4.175,4.175,0,0,0-.877,1.413,5.045,5.045,0,0,0-.31,1.793,5.047,5.047,0,0,0,.31,1.793,4.139,4.139,0,0,0,.877,1.409,3.943,3.943,0,0,0,1.36.918,4.572,4.572,0,0,0,1.75.326,4.6,4.6,0,0,0,1.753-.326,3.939,3.939,0,0,0,1.362-.918,4.126,4.126,0,0,0,.878-1.409,5.038,5.038,0,0,0,.31-1.793,5.038,5.038,0,0,0-.31-1.793A4.172,4.172,0,0,0-1209.338,1457.836Zm-.179,3.205a4.246,4.246,0,0,1-.21,1.38,2.92,2.92,0,0,1-.589,1.023,2.519,2.519,0,0,1-.921.638,3.2,3.2,0,0,1-1.217.223,3.18,3.18,0,0,1-1.211-.223,2.549,2.549,0,0,1-.924-.639,2.893,2.893,0,0,1-.592-1.023,4.245,4.245,0,0,1-.209-1.38,4.27,4.27,0,0,1,.209-1.383,2.887,2.887,0,0,1,.592-1.026,2.589,2.589,0,0,1,.924-.642,3.143,3.143,0,0,1,1.211-.226,3.158,3.158,0,0,1,1.217.226,2.558,2.558,0,0,1,.921.642,2.912,2.912,0,0,1,.589,1.026A4.27,4.27,0,0,1-1209.517,1461.042Z" transform="translate(1246.829 -1456.584)" fill="#282828"/>
      <path id="Path_27" data-name="Path 27" d="M-1120.368,1461.356a.886.886,0,0,0-.151-.1c.033-.023.064-.048.1-.074a2.925,2.925,0,0,0,.244-.241l3.386-3.827h-1.183a.775.775,0,0,0-.354.073.986.986,0,0,0-.28.232l-2.842,3.218a.618.618,0,0,1-.221.17.863.863,0,0,1-.325.049h-.345v-3.742h-1.331v8.719h1.331v-3.909h.434a1.593,1.593,0,0,1,.228.014.528.528,0,0,1,.147.043.469.469,0,0,1,.11.073,1.518,1.518,0,0,1,.114.114l2.95,3.391c.033.037.066.072.1.105a.52.52,0,0,0,.126.093.633.633,0,0,0,.156.056.966.966,0,0,0,.211.02h1.194l-3.521-4.194A2.469,2.469,0,0,0-1120.368,1461.356Z" transform="translate(1170.544 -1457.015)" fill="#282828"/>
      <path id="Path_28" data-name="Path 28" d="M-986.88,1457.853a2.813,2.813,0,0,0-1.025-.552,4.843,4.843,0,0,0-1.436-.192h-2.611v8.719h1.331v-3.194h1.28a4.407,4.407,0,0,0,1.393-.2,2.952,2.952,0,0,0,1.029-.575,2.447,2.447,0,0,0,.634-.884,2.887,2.887,0,0,0,.216-1.125,3.046,3.046,0,0,0-.2-1.124A2.25,2.25,0,0,0-986.88,1457.853Zm-2.461,3.684h-1.28V1458.2h1.28a2.123,2.123,0,0,1,1.462.435,1.559,1.559,0,0,1,.474,1.209,1.852,1.852,0,0,1-.124.688,1.446,1.446,0,0,1-.365.53,1.708,1.708,0,0,1-.6.348A2.583,2.583,0,0,1-989.341,1461.537Z" transform="translate(1062.583 -1457.015)" fill="#282828"/>
      <path id="Path_29" data-name="Path 29" d="M-913.921,1457.11h-1.337v8.719h5.031v-1.152h-3.694Z" transform="translate(999.724 -1457.015)" fill="#282828"/>
      <path id="Path_30" data-name="Path 30" d="M-845.184,1457.11h-1.3l-3.486,8.719h1.027a.472.472,0,0,0,.308-.1.553.553,0,0,0,.17-.228l.776-2h3.708l.776,2.005a.569.569,0,0,0,.17.233.472.472,0,0,0,.307.1h1.027l-3.464-8.662Zm-.693,1.657.042-.14c.056.19.114.358.172.5l1.294,3.351h-2.924l1.293-3.345C-845.961,1459.029-845.919,1458.906-845.877,1458.767Z" transform="translate(946.212 -1457.015)" fill="#282828"/>
      <path id="Path_31" data-name="Path 31" d="M-760.206,1463.566a3.725,3.725,0,0,1-.439.34,2.3,2.3,0,0,1-.464.232,2.711,2.711,0,0,1-.545.135,4.658,4.658,0,0,1-.672.044,2.93,2.93,0,0,1-1.133-.219,2.572,2.572,0,0,1-.907-.636,3.058,3.058,0,0,1-.607-1.028,4.05,4.05,0,0,1-.224-1.393,3.977,3.977,0,0,1,.224-1.369,2.97,2.97,0,0,1,.621-1.03,2.726,2.726,0,0,1,.949-.649,3.17,3.17,0,0,1,1.219-.229,3.5,3.5,0,0,1,.656.055,3.1,3.1,0,0,1,.5.136,2.4,2.4,0,0,1,.367.172c.1.06.194.118.275.175s.15.1.207.141a.371.371,0,0,0,.421.016.486.486,0,0,0,.117-.12l.421-.594-.057-.054a4.2,4.2,0,0,0-1.239-.81,4.213,4.213,0,0,0-1.66-.3,4.73,4.73,0,0,0-1.776.325,4.047,4.047,0,0,0-1.386.917,4.144,4.144,0,0,0-.9,1.413,4.959,4.959,0,0,0-.319,1.8,5.271,5.271,0,0,0,.3,1.8,4.141,4.141,0,0,0,.841,1.41,3.778,3.778,0,0,0,1.312.916,4.362,4.362,0,0,0,1.71.326,4.453,4.453,0,0,0,1.84-.347,3.765,3.765,0,0,0,1.3-.97l.052-.061-.51-.557A.337.337,0,0,0-760.206,1463.566Z" transform="translate(877.849 -1456.584)" fill="#282828"/>
      <path id="Path_32" data-name="Path 32" d="M-681.541,1465.829h5.442v-1.122h-4.1v-2.733h3.319v-1.086H-680.2v-2.656h4.1v-1.122h-5.442Z" transform="translate(808.169 -1457.015)" fill="#282828"/>
      <path id="Path_33" data-name="Path 33" d="M-605.057,1461.14a2.742,2.742,0,0,0-.678-.428c-.244-.109-.5-.209-.759-.3l-.751-.253a3.494,3.494,0,0,1-.639-.281,1.431,1.431,0,0,1-.437-.378.877.877,0,0,1-.158-.539,1.244,1.244,0,0,1,.094-.486,1.076,1.076,0,0,1,.278-.388,1.372,1.372,0,0,1,.467-.265,1.987,1.987,0,0,1,.655-.1,2.051,2.051,0,0,1,.67.1,2.7,2.7,0,0,1,.479.216,3.726,3.726,0,0,1,.332.219.4.4,0,0,0,.5.057.554.554,0,0,0,.136-.159l.313-.614-.048-.046a3.11,3.11,0,0,0-1.061-.675,3.716,3.716,0,0,0-1.337-.232,3.125,3.125,0,0,0-1.163.2,2.566,2.566,0,0,0-.855.544,2.355,2.355,0,0,0-.53.781,2.36,2.36,0,0,0-.183.91,2.375,2.375,0,0,0,.184.988,2.014,2.014,0,0,0,.484.671,2.547,2.547,0,0,0,.676.432,7.565,7.565,0,0,0,.76.286l.751.239a3.144,3.144,0,0,1,.634.275,1.368,1.368,0,0,1,.434.389.986.986,0,0,1,.159.582,1.563,1.563,0,0,1-.112.6,1.305,1.305,0,0,1-.32.459,1.479,1.479,0,0,1-.514.3,2.134,2.134,0,0,1-.7.108,2.228,2.228,0,0,1-.8-.128,3,3,0,0,1-.567-.286,4.676,4.676,0,0,1-.394-.289.438.438,0,0,0-.546-.1.538.538,0,0,0-.143.139l-.37.607.047.05a3.648,3.648,0,0,0,1.194.834,3.811,3.811,0,0,0,1.547.308,3.419,3.419,0,0,0,1.245-.214,2.709,2.709,0,0,0,.93-.592,2.528,2.528,0,0,0,.578-.886,2.982,2.982,0,0,0,.2-1.084,2.142,2.142,0,0,0-.185-.933A1.98,1.98,0,0,0-605.057,1461.14Z" transform="translate(749.636 -1456.584)" fill="#282828"/>
      <path id="Path_34" data-name="Path 34" d="M-531.108,1497.164a.823.823,0,0,0-.178-.268.852.852,0,0,0-.266-.18.837.837,0,0,0-.655,0,.808.808,0,0,0-.264.181.831.831,0,0,0-.174.267.849.849,0,0,0-.063.326.845.845,0,0,0,.064.33.848.848,0,0,0,.173.263.776.776,0,0,0,.266.178.841.841,0,0,0,.326.064.842.842,0,0,0,.326-.064.808.808,0,0,0,.268-.177.828.828,0,0,0,.178-.264.848.848,0,0,0,.064-.33A.854.854,0,0,0-531.108,1497.164Z" transform="translate(686.186 -1489.422)" fill="#282828"/>
      <path id="Path_35" data-name="Path 35" d="M-531.253,1461.655c.012.174.027.351.045.533s.039.375.063.582l.009.08h.882l.009-.08q.035-.311.063-.582t.045-.533q.018-.261.027-.519t.009-.527v-3.5h-1.188v3.5q0,.27.009.527C-531.274,1461.308-531.265,1461.481-531.253,1461.655Z" transform="translate(685.022 -1457.015)" fill="#282828"/>
    </g>
  </g>
</svg>
