<svg xmlns="http://www.w3.org/2000/svg" width="71.568" height="101" viewBox="0 0 71.568 101">
    <path data-name="Path 1193" d="M6.668 0h4.537v4.5h4.182V0h4.537v13.611h-4.537V9.074h-4.143v4.537H6.668m19.253-9.074h-4V0h12.566v4.537h-4.029v9.074h-4.537M36.475 0h4.754l2.92 4.794L47.068 0h4.754v13.611h-4.537V6.865l-3.176 4.892-3.176-4.892v6.746h-4.458M54.068 0h4.537v9.114h6.431v4.5H54.068"/>
    <path data-name="Path 1194" d="M81.11 173.667 74.6 100.6h71.568l-6.51 73.028-29.333 8.127" transform="translate(-74.6 -80.755)" style="fill:#e44d26"/>
    <path data-name="Path 1195" d="M256 199.944V131h29.254l-5.583 62.336" transform="translate(-220.216 -105.158)" style="fill:#f16529"/>
    <path data-name="Path 1196" d="M142 176.3h22.488v8.956h-12.664l.829 9.173h11.836v8.936h-20.043m.395 4.5h9l.631 7.161 10.021 2.683v9.35l-18.393-5.131" transform="translate(-128.704 -141.522)" style="fill:#ebebeb"/>
    <path data-name="Path 1197" d="M278.249 176.3H255.8v8.956h21.62m-.809 9.173H255.8v8.956h11.047l-1.047 11.638-10 2.683v9.311l18.346-5.089" transform="translate(-220.055 -141.522)" style="fill:#fff"/>
</svg>
