<svg xmlns="http://www.w3.org/2000/svg" width="101" height="100.985" viewBox="0 0 101 100.985">
    <path data-name="Path 1203" d="M-2211.187 424.484v6.561a2.557 2.557 0 0 0-.094.426 41.92 41.92 0 0 1-.691 5.5 50.864 50.864 0 0 1-5.15 14.7 1.2 1.2 0 0 1-1.229.732c-7.4-.02-14.8-.011-22.2-.018a6.812 6.812 0 0 1-1.314-.121 4.377 4.377 0 0 1-3.592-2.9c-.062-.178-.147-.349-.212-.526-.591-1.618-1.175-3.238-1.769-4.854-.906-2.465-1.829-4.924-2.728-7.393-.884-2.429-1.737-4.868-2.62-7.3q-.7-1.924-1.459-3.826a.594.594 0 0 1 .193-.718q2.328-2.44 4.648-4.889 2.412-2.535 4.828-5.066l8.1-8.48q1.262-1.323 2.507-2.662a13.579 13.579 0 0 0 2.411-3.366 5.363 5.363 0 0 0 .553-2.348 4.485 4.485 0 0 0-2.271-4.089 2.959 2.959 0 0 0-.949-.475 7.566 7.566 0 0 0-3 .049 7.214 7.214 0 0 0-3.545 2.077c-2.292 2.285-4.516 4.638-6.756 6.975-1.352 1.411-2.677 2.848-4.023 4.264q-3.108 3.266-6.229 6.519-1.5 1.573-3 3.153c-.981 1.039-1.954 2.085-2.932 3.126-.024.026-.076.027-.114.039-.012-.016-.038-.038-.034-.049.049-.137.1-.276.156-.408a43 43 0 0 0 2.174-5.707 21.423 21.423 0 0 0 .893-8.338 11.11 11.11 0 0 0-1.8-5.18 14.952 14.952 0 0 0-6.2-5.489 16.169 16.169 0 0 0-5.852-1.619 31.092 31.092 0 0 0-6.285.226 18.469 18.469 0 0 0-5.491 1.8 21.651 21.651 0 0 0-4.066 2.515 32.22 32.22 0 0 0-4.2 4.082 23.018 23.018 0 0 0-3.041 4.627 17.044 17.044 0 0 0-1.614 4.7 31.673 31.673 0 0 0-.545 3.291 20.527 20.527 0 0 0 .234 4.9 14.685 14.685 0 0 0 2.455 6.217c.341.479.7.945 1.064 1.409a12.062 12.062 0 0 0 4.174 3.39 10.523 10.523 0 0 0 1.946.714 12.547 12.547 0 0 0 4.2.235 5.039 5.039 0 0 0 2.764-.944 5.567 5.567 0 0 0 2.525-4.873 3.138 3.138 0 0 0-.879-2.107 6.378 6.378 0 0 0-2.473-1.585 7.956 7.956 0 0 1-3.627-2.309 5.543 5.543 0 0 1-1.308-2.345 9.673 9.673 0 0 1-.077-3.814 11.806 11.806 0 0 1 4.232-7.108 9.653 9.653 0 0 1 6.91-2.567 6.013 6.013 0 0 1 3.5 1.226 4.589 4.589 0 0 1 1.9 4.695 23.908 23.908 0 0 1-1.4 4.966c-1.451 3.742-2.95 7.466-4.446 11.191-1.1 2.73-2.226 5.447-3.33 8.175-1.459 3.6-2.893 7.219-4.369 10.816a11.66 11.66 0 0 0-.858 3.791 3.067 3.067 0 0 0 .289 1.656 4.8 4.8 0 0 0 4.3 2.72 5.956 5.956 0 0 0 4.512-1.757 12.606 12.606 0 0 0 2.81-4.294c2.17-5.4 4.365-10.794 6.521-16.2a55.762 55.762 0 0 0 2.02-5.22c0-.011.035-.014.129-.049.1.21.207.424.291.649a651.815 651.815 0 0 1 1.681 4.554c.416 1.145.8 2.3 1.225 3.443.885 2.405 1.792 4.8 2.675 7.209.739 2.011 1.448 4.033 2.185 6.044.586 1.6 1.2 3.186 1.792 4.781.331.886.669 1.77.973 2.665a19.435 19.435 0 0 0 2.774 5.486 6.569 6.569 0 0 0 2.817 2.15 10.54 10.54 0 0 0 3.23.766c.627.052 1.254.129 1.882.13q9.084.015 18.168.007c.262 0 .524.021.786.032l.057.13a8.746 8.746 0 0 1-.617.673c-1.316 1.175-2.605 2.386-3.972 3.5a48.9 48.9 0 0 1-12.5 7.383 48.892 48.892 0 0 1-14.08 3.482c-.582.054-1.161.14-1.741.211h-6.562a2.461 2.461 0 0 0-.361-.091c-.877-.088-1.756-.154-2.632-.255a47.35 47.35 0 0 1-8.012-1.653 50.636 50.636 0 0 1-10.374-4.378 51.022 51.022 0 0 1-10.632-7.934 47.885 47.885 0 0 1-4.38-4.873 50.675 50.675 0 0 1-8.85-17.154 48.8 48.8 0 0 1-1.937-11.4 50.629 50.629 0 0 1 .315-9 51.547 51.547 0 0 1 1.994-9.1 49.95 49.95 0 0 1 6.686-13.512 50.477 50.477 0 0 1 7.01-8.08 51.082 51.082 0 0 1 7.526-5.808 50.751 50.751 0 0 1 10.434-5.015 46.663 46.663 0 0 1 8.861-2.171 50.12 50.12 0 0 1 5.009-.514 53.387 53.387 0 0 1 9.807.444 50.737 50.737 0 0 1 10.011 2.487 50.473 50.473 0 0 1 11.509 5.946 50.415 50.415 0 0 1 9.915 9 50.311 50.311 0 0 1 7.724 12.437 49.267 49.267 0 0 1 3.914 15.064c.066.593.151 1.193.223 1.795z" transform="translate(2312.187 -377.252)" style="fill:#e42e16"/>
</svg>
