<svg id="react.13d14b3b" xmlns="http://www.w3.org/2000/svg" width="113.346" height="100.939" viewBox="0 0 113.346 100.939">
    <defs>
        <style>
            .cls-1{fill:#61dbfb}
        </style>
    </defs>
    <path id="Path_1078" data-name="Path 1078" class="cls-1" d="M114.064 50.481c0-7.509-9.4-14.625-23.82-19.037C93.571 16.75 92.092 5.06 85.577 1.317A10.13 10.13 0 0 0 80.4.023v5.152a5.35 5.35 0 0 1 2.634.6c3.142 1.8 4.505 8.664 3.442 17.489-.254 2.172-.67 4.459-1.178 6.792a111.978 111.978 0 0 0-14.671-2.518 112.712 112.712 0 0 0-9.611-11.552c7.532-7 14.6-10.836 19.407-10.836V0c-6.351 0-14.669 4.528-23.078 12.383C48.935 4.574 40.618.092 34.264.092v5.153c4.783 0 11.875 3.812 19.407 10.766a109.118 109.118 0 0 0-9.542 11.529 107.9 107.9 0 0 0-14.694 2.541 69.377 69.377 0 0 1-1.2-6.7c-1.086-8.826.254-15.687 3.373-17.513a5.142 5.142 0 0 1 2.657-.6V.116a10.3 10.3 0 0 0-5.221 1.294c-6.492 3.743-7.948 15.41-4.6 30.058C10.075 35.9.718 43 .718 50.481c0 7.509 9.4 14.624 23.82 19.037C21.21 84.212 22.689 95.9 29.2 99.646a10.156 10.156 0 0 0 5.2 1.294c6.354 0 14.671-4.528 23.081-12.383 8.41 7.809 16.727 12.291 23.081 12.291a10.3 10.3 0 0 0 5.221-1.294c6.492-3.743 7.948-15.41 4.6-30.058 14.324-4.413 23.681-11.529 23.681-19.015zm-30.081-15.41c-.855 2.98-1.918 6.053-3.119 9.126-.947-1.848-1.941-3.7-3.027-5.545-1.062-1.852-2.194-3.652-3.326-5.406 3.28.485 6.446 1.086 9.472 1.825zM73.4 59.677c-1.8 3.119-3.65 6.076-5.568 8.826-3.442.3-6.931.462-10.443.462-3.489 0-6.977-.162-10.4-.439q-2.871-4.126-5.589-8.78a119.88 119.88 0 0 1-4.806-9.2c1.432-3.1 3.05-6.192 4.783-9.218 1.8-3.119 3.65-6.076 5.568-8.826 3.442-.3 6.931-.462 10.443-.462 3.489 0 6.977.162 10.4.439q2.876 4.124 5.591 8.779 2.634 4.54 4.805 9.2a128.739 128.739 0 0 1-4.784 9.219zm7.462-3a98.948 98.948 0 0 1 3.188 9.2 103.761 103.761 0 0 1-9.519 1.848c1.132-1.779 2.264-3.6 3.327-5.475a134.342 134.342 0 0 0 3.006-5.577zM57.437 81.324a95.236 95.236 0 0 1-6.423-7.393c2.079.092 4.2.162 6.354.162 2.172 0 4.32-.046 6.423-.162a90.171 90.171 0 0 1-6.354 7.393zM40.248 67.716c-3.281-.485-6.446-1.086-9.472-1.825.855-2.98 1.918-6.053 3.119-9.126.947 1.848 1.941 3.7 3.027 5.545s2.194 3.651 3.326 5.406zm17.074-48.078a95.234 95.234 0 0 1 6.423 7.393c-2.079-.092-4.2-.162-6.354-.162-2.172 0-4.32.046-6.423.162a90.146 90.146 0 0 1 6.354-7.393zm-17.1 13.608c-1.132 1.779-2.264 3.6-3.327 5.475a128.35 128.35 0 0 0-3 5.545 98.948 98.948 0 0 1-3.188-9.2 114.175 114.175 0 0 1 9.518-1.82zM19.316 62.172c-8.179-3.489-13.469-8.063-13.469-11.69s5.291-8.225 13.469-11.69c1.987-.855 4.159-1.617 6.4-2.333a110.985 110.985 0 0 0 5.2 14.07 109.392 109.392 0 0 0-5.129 14 70.732 70.732 0 0 1-6.471-2.357zm12.43 33.015C28.6 93.385 27.241 86.523 28.3 77.7c.254-2.172.67-4.459 1.178-6.792a111.976 111.976 0 0 0 14.671 2.518 112.7 112.7 0 0 0 9.611 11.552c-7.532 7-14.6 10.836-19.407 10.836a5.513 5.513 0 0 1-2.607-.627zm54.8-17.6c1.086 8.826-.254 15.687-3.373 17.512a5.142 5.142 0 0 1-2.657.6c-4.782 0-11.875-3.812-19.407-10.766A109.119 109.119 0 0 0 70.652 73.4a107.9 107.9 0 0 0 14.694-2.541 64.684 64.684 0 0 1 1.202 6.723zm8.895-15.41c-1.987.855-4.159 1.617-6.4 2.333a110.964 110.964 0 0 0-5.2-14.07 109.392 109.392 0 0 0 5.129-14c2.287.716 4.459 1.5 6.492 2.357 8.179 3.489 13.469 8.063 13.469 11.69-.019 3.622-5.31 8.219-13.488 11.685z" transform="translate(-.718)"/>
    <path id="Path_1079" data-name="Path 1079" class="cls-1" d="M47.806 52.757A10.558 10.558 0 1 0 37.247 42.2a10.558 10.558 0 0 0 10.559 10.557z" transform="translate(8.844 8.282)"/>
</svg>
