<svg xmlns="http://www.w3.org/2000/svg" width="134.274" height="100.697" viewBox="0 0 134.274 100.697">
    <path d="M115.594 57.861a27.8 27.8 0 0 0-12.165 2.82c-1.251-2.477-2.5-4.684-2.722-6.3a16.926 16.926 0 0 1-.245-5.3 47.051 47.051 0 0 1 1.594-5.714c-.025-.245-.294-1.4-2.992-1.422s-5.028.515-5.3 1.226a29.6 29.6 0 0 0-1.128 4c-.466 2.453-5.4 11.208-8.216 15.794a17.036 17.036 0 0 1-1.864-4.611 16.926 16.926 0 0 1-.245-5.3 47.051 47.051 0 0 1 1.594-5.714c-.025-.245-.294-1.4-2.992-1.422s-5.028.515-5.3 1.226-.564 2.379-1.128 4-7.108 16.232-8.825 20.009a111.639 111.639 0 0 1-2.183 4.537 1.119 1.119 0 0 1-.1.2c-.466.907-.736 1.4-.736 1.4v.025c-.368.662-.76 1.275-.956 1.275-.147 0-.417-1.766.049-4.169.981-5.077 3.311-12.974 3.286-13.244 0-.147.441-1.521-1.521-2.232a2.435 2.435 0 0 0-2.771.466c-.172 0-.294.417-.294.417s2.134-8.878-4.071-8.878c-3.875 0-9.222 4.243-11.87 8.069-1.668.907-5.224 2.845-9.025 4.93-1.447.809-2.943 1.619-4.341 2.379-.1-.1-.2-.221-.294-.319-7.5-8.02-21.386-13.685-20.8-24.452.221-3.924 1.57-14.225 26.659-26.733C57.346 4.64 73.778 7.46 76.623 13.714c4.071 8.927-8.8 25.507-30.142 27.91-8.143.907-12.41-2.232-13.489-3.409-1.128-1.226-1.3-1.3-1.717-1.055-.687.368-.245 1.472 0 2.109.638 1.668 3.262 4.611 7.7 6.058C42.9 46.6 52.44 47.315 63.992 42.851c12.925-5 23.03-18.909 20.062-30.559C81.086.471 61.466-3.429 42.9 3.168c-11.036 3.925-23 10.105-31.613 18.149C1.059 30.882-.559 39.2.1 42.679 2.482 55.04 19.527 63.085 26.345 69.044c-.343.2-.662.368-.932.515C22 71.252 9.006 78.045 5.768 85.231c-3.679 8.143.589 13.98 3.409 14.769 8.756 2.428 17.757-1.938 22.588-9.148s4.243-16.579 2.011-20.871a.513.513 0 0 0-.1-.147c.883-.515 1.79-1.055 2.673-1.57a128.73 128.73 0 0 1 4.93-2.771 32.324 32.324 0 0 0-1.741 8.927c-.368 4.611 1.521 10.6 4 12.95a4.417 4.417 0 0 0 3.237 1.055c2.894 0 4.194-2.4 5.641-5.248 1.766-3.483 3.36-7.529 3.36-7.529S53.789 86.58 59.185 86.58c1.962 0 3.949-2.551 4.832-3.851v.025s.049-.074.147-.245c.2-.319.319-.515.319-.515v-.049c.785-1.373 2.551-4.488 5.175-9.663 3.385-6.671 6.646-15.01 6.646-15.01a42.624 42.624 0 0 0 1.3 5.42 51.036 51.036 0 0 0 2.8 6.279c-.785 1.1-1.275 1.717-1.275 1.717l.025.025c-.638.834-1.324 1.741-2.085 2.624-2.673 3.188-5.862 6.843-6.3 7.9-.515 1.251-.392 2.158.589 2.894a5.351 5.351 0 0 0 3.286.54 15.091 15.091 0 0 0 4.93-1.128 16.545 16.545 0 0 0 4.243-2.232 9.495 9.495 0 0 0 4.071-8.363 16.886 16.886 0 0 0-1.545-5.911c.245-.343.466-.687.711-1.03A112.349 112.349 0 0 0 94.4 53.3a42.624 42.624 0 0 0 1.3 5.42 36.3 36.3 0 0 0 2.379 5.4 23.311 23.311 0 0 0-7.161 9.246c-1.545 4.464-.343 6.475 1.938 6.941a6.835 6.835 0 0 0 3.581-.736 16.31 16.31 0 0 0 4.537-2.33c2.624-1.938 5.15-4.635 5-8.29a15.671 15.671 0 0 0-1.128-4.905 25.686 25.686 0 0 1 13.023-1.5c11.674 1.373 13.98 8.658 13.538 11.723a7.758 7.758 0 0 1-3.7 5.248c-.809.515-1.079.687-1.006 1.055.1.54.491.515 1.177.417.957-.172 6.131-2.477 6.352-8.118.37-7.211-6.496-15.084-18.636-15.01zM25.536 88.223c-3.875 4.218-9.271 5.813-11.6 4.464-2.5-1.447-1.521-7.677 3.237-12.14a61.785 61.785 0 0 1 9.1-6.794c.564-.343 1.4-.834 2.4-1.447.172-.1.27-.147.27-.147l.589-.368a16.751 16.751 0 0 1-3.996 16.432zm28.2-19.179c-1.349 3.286-4.169 11.7-5.886 11.233-1.472-.392-2.379-6.769-.294-13.072a29.7 29.7 0 0 1 4.586-8.412c2.109-2.354 4.439-3.139 5-2.183.719 1.251-2.568 10.374-3.402 12.434zm23.279 11.135c-.564.294-1.1.491-1.349.343-.172-.1.245-.491.245-.491s2.919-3.139 4.071-4.562c.662-.834 1.447-1.815 2.281-2.919v.319c.001 3.754-3.629 6.28-5.248 7.31zm17.953-4.1c-.417-.294-.343-1.275 1.055-4.341a16.341 16.341 0 0 1 4-5.15 6.943 6.943 0 0 1 .392 2.256c-.027 4.737-3.415 6.503-5.447 7.239z" transform="translate(.026 .026)" style="fill:#cd6799"/>
</svg>
