<svg xmlns="http://www.w3.org/2000/svg" width="101" height="101" viewBox="0 0 101 101">
    <rect data-name="Rectangle 174" width="101" height="101" rx="15" style="fill:#3178c6"/>
    <path data-name="Path 1178" d="M157.138 270.788v9.834a21.12 21.12 0 0 0 5.7 1.849 37.2 37.2 0 0 0 6.884.61 32.133 32.133 0 0 0 6.687-.669 16.965 16.965 0 0 0 5.507-2.163 9.724 9.724 0 0 0 3.737-4.13 14.868 14.868 0 0 0 1.4-6.294 12.97 12.97 0 0 0-.806-4.72 9.266 9.266 0 0 0-2.36-3.54 15.619 15.619 0 0 0-3.54-2.753 43.916 43.916 0 0 0-4.72-2.36c-1.3-.531-2.36-1.042-3.54-1.554a15.351 15.351 0 0 1-2.557-1.534 7.02 7.02 0 0 1-1.672-1.652 3.454 3.454 0 0 1-.59-1.967 3.3 3.3 0 0 1 .531-1.829 4.6 4.6 0 0 1 1.475-1.4 7.679 7.679 0 0 1 2.36-.9 13.735 13.735 0 0 1 3.147-.315 18.16 18.16 0 0 1 2.557.185 21.1 21.1 0 0 1 2.753.57 21.853 21.853 0 0 1 2.753.964 13 13 0 0 1 2.36 1.357v-9.244a24.3 24.3 0 0 0-4.917-1.278 39.433 39.433 0 0 0-6.1-.413 29.651 29.651 0 0 0-6.687.747 15.567 15.567 0 0 0-5.507 2.36 11.324 11.324 0 0 0-3.737 4.13 11.691 11.691 0 0 0-1.377 5.9 11.086 11.086 0 0 0 2.557 7.474c1.691 2.163 4.327 3.737 7.67 5.31 1.357.551 2.557 1.1 3.737 1.632a16.78 16.78 0 0 1 2.95 1.652 7.207 7.207 0 0 1 1.967 1.868 3.882 3.882 0 0 1 .747 2.36 3.657 3.657 0 0 1-.452 1.77 3.871 3.871 0 0 1-1.4 1.416 7.976 7.976 0 0 1-2.36.944 14.377 14.377 0 0 1-3.343.334 17.828 17.828 0 0 1-6.294-1.121 18.692 18.692 0 0 1-5.9-3.343zm-16.52-24.188H153.2v-8.064H118v8.064h12.587v35.991h10.03z" transform="translate(-94.792 -190.742)" style="fill:#fff;fill-rule:evenodd"/>
</svg>
