<svg id="Wordpress-Logo" xmlns="http://www.w3.org/2000/svg" width="101.003" height="101" viewBox="0 0 101.003 101">
    <defs>
        <style>
            .cls-1{fill:#464342}
        </style>
    </defs>
    <path id="Path_1198" data-name="Path 1198" class="cls-1" d="M8.708 57.5a43.33 43.33 0 0 0 24.416 38.992l-20.665-56.62A43.157 43.157 0 0 0 8.708 57.5z" transform="translate(-1.53 -7.004)"/>
    <path id="Path_1199" data-name="Path 1199" class="cls-1" d="M82.794 49.842a22.809 22.809 0 0 0-3.573-11.948c-2.2-3.569-4.254-6.591-4.254-10.159a7.5 7.5 0 0 1 7.275-7.689c.192 0 .374.024.561.035a43.313 43.313 0 0 0-65.451 8.154c1.016.031 1.974.052 2.788.052 4.531 0 11.546-.55 11.546-.55a1.79 1.79 0 0 1 .278 3.569s-2.347.276-4.958.413l15.775 46.925 9.481-28.434-6.75-18.493c-2.333-.137-4.543-.413-4.543-.413-2.335-.137-2.061-3.706.274-3.569 0 0 7.154.55 11.411.55 4.531 0 11.546-.55 11.546-.55a1.79 1.79 0 0 1 .278 3.569s-2.352.276-4.958.413l15.656 46.57 4.324-14.44c1.873-5.992 3.3-10.3 3.3-14z" transform="translate(-3.048 -1.53)"/>
    <path id="Path_1200" data-name="Path 1200" class="cls-1" d="m59.414 65.857-13 37.77a43.343 43.343 0 0 0 26.624-.691 3.8 3.8 0 0 1-.308-.6z" transform="translate(-8.154 -11.569)"/>
    <path id="Path_1201" data-name="Path 1201" class="cls-1" d="M103.916 36.046a33.239 33.239 0 0 1 .292 4.455 40.866 40.866 0 0 1-3.294 15.517l-13.233 38.26a43.329 43.329 0 0 0 16.235-58.232z" transform="translate(-15.402 -6.332)"/>
    <path id="Path_1202" data-name="Path 1202" class="cls-1" d="M50.5 0A50.5 50.5 0 1 0 101 50.5 50.557 50.557 0 0 0 50.5 0zm0 98.685A48.185 48.185 0 1 1 98.683 50.5 48.241 48.241 0 0 1 50.5 98.685z"/>
</svg>
