<svg id="Layer_2_1_" xmlns="http://www.w3.org/2000/svg" width="103.279" height="100.697" viewBox="0 0 103.279 100.697">
    <defs>
        <style>
            .cls-2{fill:#ff61f6}
        </style>
    </defs>
    <g id="Surfaces">
        <g id="UI_UX_Surface">
            <g id="Outline_no_shadow">
                <path id="Path_1094" data-name="Path 1094" d="M18.289 0h66.7a18.274 18.274 0 0 1 18.289 18.289v64.119A18.274 18.274 0 0 1 84.99 100.7h-66.7A18.274 18.274 0 0 1 0 82.408V18.289A18.274 18.274 0 0 1 18.289 0z" style="fill:#470137"/>
            </g>
        </g>
    </g>
    <g id="Outlined_Mnemonics_Logos" transform="translate(15.045 22.069)">
        <g id="Xd">
            <path id="Path_1095" data-name="Path 1095" class="cls-2" d="m74.224 60.646-12.91 21.3 13.771 22.592a.741.741 0 0 1 .086.516c-.043.172-.215.043-.473.086h-9.855c-.689 0-1.162-.043-1.463-.473-.9-1.807-1.85-3.572-2.754-5.379-.9-1.764-1.893-3.572-2.926-5.422s-2.066-3.7-3.1-5.594h-.086c-.9 1.85-1.893 3.7-2.883 5.551s-1.98 3.7-2.926 5.508c-.99 1.807-1.98 3.658-2.969 5.422-.172.43-.516.473-.99.473h-9.467c-.172 0-.3.086-.3-.129a.6.6 0 0 1 .086-.473l13.382-21.946L35.408 60.6c-.129-.172-.172-.344-.086-.43a.5.5 0 0 1 .43-.172h9.768a2.54 2.54 0 0 1 .6.086 1.221 1.221 0 0 1 .43.387c.818 1.85 1.764 3.7 2.754 5.551 1.033 1.85 2.023 3.658 3.1 5.465a94.26 94.26 0 0 1 2.883 5.465h.086c.9-1.893 1.85-3.744 2.8-5.551s1.936-3.615 2.926-5.422 1.936-3.658 2.883-5.422a.732.732 0 0 1 .258-.43.821.821 0 0 1 .559-.086h9.08a.4.4 0 0 1 .473.3c.043.043-.043.215-.129.3z" transform="translate(-34.961 -56.249)"/>
            <path id="Path_1096" data-name="Path 1096" class="cls-2" d="M148.415 101.08a21.394 21.394 0 0 1-9.252-1.936 15 15 0 0 1-6.5-5.852 18.62 18.62 0 0 1-2.363-9.812 17.674 17.674 0 0 1 2.367-9.08 17.871 17.871 0 0 1 6.842-6.67 22.012 22.012 0 0 1 10.887-2.5 7.685 7.685 0 0 1 .9.043c.387.043.818.043 1.334.086v-13.6c0-.3.129-.473.43-.473h8.74a.386.386 0 0 1 .43.3v41.06c0 .775.043 1.635.086 2.582.086.9.129 1.764.172 2.5a.7.7 0 0 1-.43.689 32.865 32.865 0 0 1-7.014 2.066 37.958 37.958 0 0 1-6.629.597zm4.217-8.607V73.539a11 11 0 0 0-1.162-.215 15.725 15.725 0 0 0-1.42-.086 10.608 10.608 0 0 0-4.863 1.119 9.647 9.647 0 0 0-3.658 3.184 9.539 9.539 0 0 0-1.42 5.465 11.992 11.992 0 0 0 .732 4.432 8.41 8.41 0 0 0 1.936 3.055 7.434 7.434 0 0 0 2.926 1.721 11.264 11.264 0 0 0 3.572.559c.645 0 1.248-.043 1.807-.086a3.764 3.764 0 0 0 1.55-.213z" transform="translate(-89.271 -51.284)"/>
        </g>
    </g>
</svg>
