<svg id="vlpa" xmlns="http://www.w3.org/2000/svg" width="103" height="100.425" viewBox="0 0 103 100.425">
    <defs>
        <style>
            .cls-2{fill:#99f}
        </style>
    </defs>
    <g id="vlpb">
        <g id="vlpc">
            <g id="vlpd">
                <path id="Path_1100" data-name="Path 1100" d="M18.24 0h66.52A18.224 18.224 0 0 1 103 18.24v63.945a18.224 18.224 0 0 1-18.24 18.24H18.24A18.224 18.224 0 0 1 0 82.185V18.24A18.224 18.224 0 0 1 18.24 0z" style="fill:#00005b"/>
            </g>
        </g>
    </g>
    <g id="vlpe" transform="translate(12.742 25.836)">
        <g id="vlpf">
            <path id="Path_1101" data-name="Path 1101" class="cls-2" d="M58.32 94.448H42.355l-3.262 10.128a.751.751 0 0 1-.815.6H30.21c-.472 0-.6-.257-.472-.772l13.819-39.612c.129-.429.257-.815.429-1.33a14.991 14.991 0 0 0 .257-2.79.425.425 0 0 1 .343-.472H55.7c.3 0 .515.129.558.343l15.665 43.775c.129.472 0 .687-.429.687h-8.97a.648.648 0 0 1-.687-.472l-3.519-10.3zm-13.476-8.54h10.9c-.258-.9-.6-1.974-.987-3.09-.386-1.159-.772-2.4-1.159-3.691-.429-1.33-.815-2.618-1.245-3.948s-.815-2.575-1.159-3.82c-.343-1.2-.644-2.317-.944-3.348h-.086a52.694 52.694 0 0 1-1.459 5.536c-.644 2.06-1.287 4.206-1.974 6.352-.556 2.188-1.243 4.201-1.887 6.008z" transform="translate(-29.69 -60.2)"/>
            <path id="Path_1102" data-name="Path 1102" class="cls-2" d="M156 104.338h-13.6a9.457 9.457 0 0 0 1.33 3.82 6.8 6.8 0 0 0 3.133 2.575 13.349 13.349 0 0 0 5.493 1.073 25.817 25.817 0 0 0 4.463-.472 16.117 16.117 0 0 0 3.82-.987c.215-.172.343-.086.343.343v6.566a2.154 2.154 0 0 1-.086.515 1 1 0 0 1-.3.3 18.361 18.361 0 0 1-4.292 1.287 28.992 28.992 0 0 1-6.094.515 20.338 20.338 0 0 1-8.24-1.5 14.45 14.45 0 0 1-5.407-4.077 15.749 15.749 0 0 1-2.961-5.622 22.234 22.234 0 0 1 .172-13.09 17.514 17.514 0 0 1 3.219-5.88 15.554 15.554 0 0 1 5.193-4.077 16.208 16.208 0 0 1 7.167-1.33 15.5 15.5 0 0 1 6.647 1.33 11.82 11.82 0 0 1 4.506 3.433 15.71 15.71 0 0 1 2.575 4.892 16.881 16.881 0 0 1 .815 5.236c0 1.03-.043 1.931-.086 2.747-.086.815-.129 1.416-.172 1.8a.641.641 0 0 1-.6.558c-.258 0-.73.043-1.416.086a20.314 20.314 0 0 1-2.489.129c-.987 0-2.017-.172-3.133-.172zm-13.6-6.266h9.055c1.116 0 1.931 0 2.446-.043a2.1 2.1 0 0 0 .987-.343v-.429a4.925 4.925 0 0 0-.258-1.588 5.68 5.68 0 0 0-5.579-3.948 6.043 6.043 0 0 0-5.708 3.262 8.9 8.9 0 0 0-.943 3.089z" transform="translate(-88.492 -73.953)"/>
        </g>
    </g>
</svg>
