<svg id="vlpa" xmlns="http://www.w3.org/2000/svg" width="103.528" height="100.939" viewBox="0 0 103.528 100.939">
    <defs>
        <style>
            .cls-2{fill:#ff9a00}
        </style>
    </defs>
    <g id="vlpb">
        <g id="vlpc">
            <g id="vlpd">
                <path id="Path_1097" data-name="Path 1097" d="M18.333 0h66.862a18.318 18.318 0 0 1 18.333 18.333v64.273a18.318 18.318 0 0 1-18.333 18.333H18.333A18.318 18.318 0 0 1 0 82.606V18.333A18.318 18.318 0 0 1 18.333 0z" style="fill:#300"/>
            </g>
        </g>
    </g>
    <g id="vlpe" transform="translate(21.262 22.388)">
        <g id="vlpf">
            <path id="Path_1098" data-name="Path 1098" class="cls-2" d="M78.067 94.225H62.02l-3.278 10.137a.755.755 0 0 1-.82.6h-8.11c-.475 0-.6-.259-.475-.776L63.228 64.2c.129-.431.259-.906.431-1.424a15.067 15.067 0 0 0 .259-2.8.427.427 0 0 1 .345-.475h11.172c.345 0 .518.129.561.345l15.745 44.431c.129.475 0 .69-.431.69h-9.016a.651.651 0 0 1-.69-.475l-3.537-10.267zm-13.545-8.757h10.956a57.94 57.94 0 0 0-.992-3.106 133.654 133.654 0 0 1-1.165-3.71c-.431-1.337-.82-2.631-1.251-3.969s-.82-2.588-1.165-3.839c-.345-1.208-.647-2.329-.949-3.365h-.086a52.962 52.962 0 0 1-1.47 5.566c-.647 2.071-1.294 4.227-1.984 6.384-.6 2.2-1.251 4.227-1.9 6.039z" transform="translate(-49.29 -56.222)"/>
            <path id="Path_1099" data-name="Path 1099" class="cls-2" d="M163 62.727a5.339 5.339 0 0 1-3.839-1.51 5.6 5.6 0 0 1-1.467-3.969 5.075 5.075 0 0 1 1.553-3.839 5.524 5.524 0 0 1 3.839-1.51 5.165 5.165 0 0 1 3.925 1.51 5.93 5.93 0 0 1-.086 7.808 5.072 5.072 0 0 1-3.925 1.51zm-4.831 37.443V66.955c0-.431.173-.6.561-.6h8.541c.388 0 .561.216.561.6v33.215c0 .474-.173.69-.561.69h-8.455a.6.6 0 0 1-.645-.69z" transform="translate(-110.933 -51.9)"/>
        </g>
    </g>
</svg>
