<svg xmlns="http://www.w3.org/2000/svg" width="100.425" height="100.425" viewBox="0 0 100.425 100.425">
    <path data-name="Path 1347" d="M91.321 0H9.1A9.1 9.1 0 0 0 0 9.1v82.221a9.1 9.1 0 0 0 9.1 9.1h82.221a9.1 9.1 0 0 0 9.1-9.1V9.1a9.1 9.1 0 0 0-9.1-9.1" style="fill:#dc395f"/>
    <path data-name="Path 1348" d="M61.936 61.817a6.045 6.045 0 1 0-6.136-6.046 6.065 6.065 0 0 0 6.134 6.046M49.216 94.188a20.763 20.763 0 0 0-.541 4.541c0 5.324 2.887 8.858 9.022 8.858 5.088 0 9.213-3.021 12.183-7.9l-1.814 7.278h10.1L83.943 83.8c1.444-5.864 4.24-8.908 8.481-8.908 3.338 0 5.413 2.076 5.413 5.5a10.807 10.807 0 0 1-.451 3.248l-2.978 10.653a16 16 0 0 0-.631 4.511c0 5.054 2.976 8.75 9.2 8.75 5.323 0 9.563-3.427 11.909-11.637l-3.969-1.532c-1.985 5.5-3.7 6.495-5.053 6.495s-2.075-.9-2.075-2.7a11.969 11.969 0 0 1 .451-2.8l2.888-10.371a22.873 22.873 0 0 0 .992-6.579c0-7.759-4.692-11.808-10.375-11.808-5.323 0-10.736 4.8-13.442 9.854l1.984-9.07H70.863L68.7 75.392h7.218L71.47 93.186c-3.49 7.759-9.9 7.885-10.706 7.7-1.321-.3-2.166-.8-2.166-2.516a17.013 17.013 0 0 1 .632-4.129L66 67.4H48.855l-2.165 7.992h7.127l-4.6 18.8" transform="translate(-28.374 -30.22)" style="fill:#fff"/>
</svg>
