<svg id="Layer_2_1_" xmlns="http://www.w3.org/2000/svg" width="103.28" height="100.698" viewBox="0 0 103.28 100.698">
    <defs>
        <style>
            .cls-2{fill:#31a8ff}
        </style>
    </defs>
    <g id="Surfaces">
        <g id="Photo_Surface">
            <g id="Outline_no_shadow">
                <path id="Path_1339" data-name="Path 1339" d="M18.289 0h66.7a18.274 18.274 0 0 1 18.291 18.289v64.12A18.274 18.274 0 0 1 84.991 100.7h-66.7A18.274 18.274 0 0 1 0 82.409v-64.12A18.274 18.274 0 0 1 18.289 0z" style="fill:#001e36"/>
            </g>
        </g>
    </g>
    <g id="Outlined_Mnemonics_Logos" transform="translate(23.238 25.605)">
        <g id="Ps">
            <path id="Path_1340" data-name="Path 1340" class="cls-2" d="M54 104.513V60.232c0-.3.129-.473.43-.473.732 0 1.42 0 2.41-.043 1.033-.043 2.109-.043 3.271-.086s2.41-.043 3.744-.086 2.625-.043 3.916-.043a25.3 25.3 0 0 1 8.865 1.334 15.367 15.367 0 0 1 5.764 3.528 13.7 13.7 0 0 1 3.141 4.906 16.471 16.471 0 0 1 .99 5.594 15.385 15.385 0 0 1-2.582 9.166 14.743 14.743 0 0 1-6.928 5.25 27.89 27.89 0 0 1-9.682 1.463c-1.033 0-1.721 0-2.152-.043s-1.033-.043-1.85-.043v13.814a.535.535 0 0 1-.473.6h-8.348c-.344.002-.516-.17-.516-.557zm9.381-36.449v14.459c.6.043 1.162.086 1.678.086h2.281a16.075 16.075 0 0 0 4.949-.775 7.4 7.4 0 0 0 3.529-2.281 6.65 6.65 0 0 0 1.334-4.432 7.083 7.083 0 0 0-.99-3.83 6.24 6.24 0 0 0-3.012-2.453 12.627 12.627 0 0 0-5.078-.861c-1.119 0-2.109 0-2.926.043a9.853 9.853 0 0 0-1.764.043z" transform="translate(-54 -59.5)"/>
            <path id="Path_1341" data-name="Path 1341" class="cls-2" d="M162.541 94.026a15.231 15.231 0 0 0-4.131-1.463 22.685 22.685 0 0 0-4.82-.563 8.664 8.664 0 0 0-2.582.3 2.21 2.21 0 0 0-1.334.861 2.281 2.281 0 0 0-.344 1.162 1.914 1.914 0 0 0 .43 1.119 4.856 4.856 0 0 0 1.463 1.162c.99.516 2.023.99 3.055 1.42a31.169 31.169 0 0 1 6.627 3.141 10.013 10.013 0 0 1 3.4 3.572 9.29 9.29 0 0 1 .99 4.432 10.012 10.012 0 0 1-1.678 5.723 10.784 10.784 0 0 1-4.82 3.83 19.717 19.717 0 0 1-7.789 1.377 29.643 29.643 0 0 1-5.853-.559 17.359 17.359 0 0 1-4.389-1.377.846.846 0 0 1-.473-.818v-7.488a.467.467 0 0 1 .172-.387.328.328 0 0 1 .387.043 18.421 18.421 0 0 0 5.336 2.109 20.034 20.034 0 0 0 5.078.645 8.214 8.214 0 0 0 3.572-.6 2 2 0 0 0 1.162-1.805 2.28 2.28 0 0 0-1.033-1.721 18.25 18.25 0 0 0-4.217-2.023 26.329 26.329 0 0 1-6.111-3.1 11.143 11.143 0 0 1-3.271-3.658 9.234 9.234 0 0 1-.99-4.389 10.121 10.121 0 0 1 1.463-5.207 10.608 10.608 0 0 1 4.519-3.959 16.687 16.687 0 0 1 7.617-1.506 37.1 37.1 0 0 1 5.336.387 15.142 15.142 0 0 1 3.7.99.756.756 0 0 1 .43.387 2.16 2.16 0 0 1 .086.516V93.6a.53.53 0 0 1-.215.43 1.147 1.147 0 0 1-.773-.004z" transform="translate(-103.155 -73.628)"/>
        </g>
    </g>
</svg>
