<svg xmlns="http://www.w3.org/2000/svg" width="103" height="82.332" viewBox="0 0 103 82.332">
    <defs>
        <style>
            .cls-1{fill:#fdbd39}.cls-1,.cls-2,.cls-4{fill-rule:evenodd}.cls-2{fill:#f69833}.cls-4{fill:#ee6723}
        </style>
    </defs>
    <g id="icZeplin" transform="translate(.023 -.016)">
        <path id="Path_1103" data-name="Path 1103" class="cls-1" d="m11.6 33.084-5.393 1.968-.289 16.03 18.652-6.814c-6.4-2.149-11.069-5.93-12.975-11.184" transform="translate(4.257 23.698)"/>
        <path id="Path_1104" data-name="Path 1104" class="cls-2" d="m18.672 23.208-18.7 6.83L10.464 42.13l5.388-1.968c-1.9-5.239-.728-11.161 2.82-16.954" transform="translate(0 16.62)"/>
        <path id="Path_1105" data-name="Path 1105" d="M43.883 11.677C20.076 20.374 4.728 38.32 9.6 51.761l86.215-31.495C90.94 6.825 67.69 2.98 43.883 11.677" transform="translate(6.251 5.021)" style="fill:#fecf33;fill-rule:evenodd"/>
        <path id="Path_1106" data-name="Path 1106" class="cls-4" d="M61.157 54.822c23.807-8.7 39.184-26.564 34.281-40.084L9.225 46.232c4.9 13.52 28.125 17.286 51.932 8.589" transform="translate(6.628 10.55)"/>
        <path id="Path_1107" data-name="Path 1107" class="cls-2" d="M95.438 14.738 9.225 46.232c1.688 4.655 8.126 6.949 17.159 6.949 8.806 0 20.079-2.178 31.831-6.472 23.807-8.7 40.557-22.778 37.223-31.972" transform="translate(6.628 10.55)"/>
        <path id="Path_1108" data-name="Path 1108" class="cls-1" d="M78.456 10.69c-8.806 0-20.079 2.178-31.831 6.472C22.817 25.858 6.068 39.939 9.4 49.133l86.214-31.494c-1.688-4.655-8.126-6.949-17.159-6.949" transform="translate(6.451 7.649)"/>
        <path id="Path_1109" data-name="Path 1109" class="cls-4" d="M66.227 72.781c-2.537 0-6.279-2.291-11.123-6.81a143.672 143.672 0 0 1-18.485-22.047A143.938 143.938 0 0 1 22.3 18.949c-3.318-7.883-3.791-12.73-1.406-14.406a3.191 3.191 0 0 1 1.873-.553c1.94 0 5.72 1.444 12.71 8.326l.153.15-.021.214a85.78 85.78 0 0 0-.131 1.483l-.078.972-.686-.691c-7.532-7.588-10.847-8.407-11.923-8.407a1.251 1.251 0 0 0-.726.186c-1.034.727-1.1 4.287 2.116 11.929a141.852 141.852 0 0 0 14.112 24.6 141.6 141.6 0 0 0 18.2 21.722c6.069 5.662 8.8 6.273 9.7 6.273a1.277 1.277 0 0 0 .746-.2c1.091-.767 1.093-4.581-2.495-12.805l-.165-.378.36-.2c.361-.2.709-.392 1.036-.578l.432-.245.2.456c2.544 5.828 4.921 13.235 1.8 15.427a3.206 3.206 0 0 1-1.883.556zm0-.9z" transform="translate(13.919 2.848)"/>
        <path id="Path_1110" data-name="Path 1110" class="cls-4" d="m48.256 65.126-.036.448c-.6 7.447-2.187 16.4-6.319 16.763a3.055 3.055 0 0 1-.256.011c-2.807 0-5.463-4.022-7.893-11.954a144.259 144.259 0 0 1-5.024-28.37 144.315 144.315 0 0 1 .04-28.815C29.821 4.718 31.826.283 34.727.028c.086-.008.175-.012.262-.012 2.036 0 5.105 2.306 8.247 13.045l-2.051.4a41.97 41.97 0 0 0-3.327-8.514c-1.05-1.855-2.071-2.877-2.874-2.877h-.079c-1.257.11-3.088 3.16-4.109 11.392a142.256 142.256 0 0 0-.032 28.383A142.208 142.208 0 0 0 35.7 69.792a38.418 38.418 0 0 0 3.208 7.867c1 1.7 1.973 2.64 2.732 2.64h.078c1.2-.105 3.47-3.279 4.424-14.446l2.109-.724" transform="translate(20.106)"/>
    </g>
</svg>
