<svg id="Group_3772" data-name="Group 3772" xmlns="http://www.w3.org/2000/svg" width="108.187" height="116" viewBox="0 0 108.187 116">
  <path id="Path_6847" data-name="Path 6847" d="M30.91,53.539v53.537L46.364,116V80.308l15.457,8.923V71.384L46.364,62.461V44.616ZM0,53.539l15.455,8.922V44.616L0,35.692ZM61.821,35.692l30.91,17.847V35.692L61.821,17.845Z" fill="#e55b2d"/>
  <path id="Path_6848" data-name="Path 6848" d="M46.365,116l15.456-8.923V89.232L46.365,80.308ZM61.821,71.385V89.232l15.455-8.924V62.461Zm30.91-35.693V53.539l15.456-8.923V26.769ZM15.455,44.616V62.461l30.91-17.845V62.461l15.456-8.922V17.845Z" fill="#ed8e24"/>
  <path id="Path_6849" data-name="Path 6849" d="M46.364,62.461l15.457,8.923,15.455-8.923L61.821,53.539ZM61.821,0,0,35.692l15.455,8.924L61.821,17.845l30.91,17.847,15.456-8.923Z" fill="#f8bf3c"/>
</svg>
