<svg id="Group_3774" data-name="Group 3774" xmlns="http://www.w3.org/2000/svg" xmlns:xlink="http://www.w3.org/1999/xlink" width="116" height="113.117" viewBox="0 0 116 113.117">
  <defs>
    <clipPath id="clip-path">
      <rect id="Rectangle_749" data-name="Rectangle 749" width="116" height="113.117" transform="translate(0 0)" fill="none"/>
    </clipPath>
  </defs>
  <g id="Group_3773" data-name="Group 3773" clip-path="url(#clip-path)">
    <path id="Path_6850" data-name="Path 6850" d="M111.574,53.14h-.663L91.287,17.419a3.619,3.619,0,0,0,.442-2.205,4.658,4.658,0,0,0-4.632-4.63,4.308,4.308,0,0,0-3.307,1.543L44.982,4.189A4.58,4.58,0,0,0,40.351,0a4.657,4.657,0,0,0-4.63,4.63,6.509,6.509,0,0,0,.441,2.2L5.953,50.274c-.441,0-.882-.221-1.323-.221a4.631,4.631,0,1,0,0,9.262h.22L21.168,99.666a6.427,6.427,0,0,0-.441,1.985,4.657,4.657,0,0,0,4.631,4.63,4.311,4.311,0,0,0,3.307-1.543l48.952,4.851a4.759,4.759,0,0,0,4.629,3.528,4.658,4.658,0,0,0,4.632-4.631,5.261,5.261,0,0,0-1.1-3.087l24.7-43h.883a4.658,4.658,0,0,0,4.63-4.631,4.337,4.337,0,0,0-4.409-4.631M83.349,18.081a5.042,5.042,0,0,0,2.205,1.543l-7.5,56.008a3.132,3.132,0,0,0-1.323.441L35.941,40.792c0-.441.221-.882.221-1.323v-.882Zm23.593,41.234-25.137,17.2c-.22-.221-.44-.221-.66-.441l7.716-56.449L108.046,54.9a5.259,5.259,0,0,0-1.1,3.087c-.22.441,0,.882,0,1.323M30.87,34.839a4.736,4.736,0,0,0-3.969,4.63v.221L10.142,49.612l26.02-37.264ZM32.634,44.1a15.219,15.219,0,0,0,1.764-.662L74.749,78.5a4.309,4.309,0,0,0-.22,1.764v.221L29.326,99A5.248,5.248,0,0,0,26.46,97.02Zm43,39.249a5.243,5.243,0,0,0,2.425,1.323L80.262,104.3a5.32,5.32,0,0,0-2.205,2.205l-47.408-4.631Zm5.733,1.1a4.675,4.675,0,0,0,2.645-4.19,1.653,1.653,0,0,0-.22-1.1L106.722,63.5,83.569,103.635Zm1.1-69.458L34.618,35.941c-.22-.22-.441-.22-.441-.441L40.351,9.481h.221a4.633,4.633,0,0,0,3.97-2.2ZM9.481,54.684V53.8L28.444,42.556a4.6,4.6,0,0,0,1.323.882L23.594,96.359,8.158,58.212a5.681,5.681,0,0,0,1.323-3.528" fill="#343433"/>
    <path id="Path_6851" data-name="Path 6851" d="M88.862,19.625,108.046,54.9a5.267,5.267,0,0,0-1.1,3.087,2.791,2.791,0,0,0,.221,1.323l-25.138,17.2c-.22-.22-.441-.22-.661-.441Z" fill="#dfe0e0"/>
    <path id="Path_6852" data-name="Path 6852" d="M81.365,84.452a4.675,4.675,0,0,0,2.646-4.19,1.653,1.653,0,0,0-.22-1.1L106.723,63.5,83.57,103.636Z" fill="#b3b3b3"/>
    <path id="Path_6853" data-name="Path 6853" d="M75.632,83.349a5.257,5.257,0,0,0,2.425,1.323L80.263,104.3a5.317,5.317,0,0,0-2.206,2.205L30.65,101.871Z" fill="#d2d2d2"/>
    <path id="Path_6854" data-name="Path 6854" d="M32.634,44.1a15.234,15.234,0,0,0,1.764-.661L74.75,78.5a4.291,4.291,0,0,0-.221,1.764v.221L29.326,99A5.248,5.248,0,0,0,26.46,97.02Z" fill="#f5f6f7"/>
    <path id="Path_6855" data-name="Path 6855" d="M9.481,54.684V53.8L28.444,42.556a4.6,4.6,0,0,0,1.323.882L23.594,96.359,8.158,58.212a5.681,5.681,0,0,0,1.323-3.528" fill="#d9d9d9"/>
    <path id="Path_6856" data-name="Path 6856" d="M30.87,34.839A4.737,4.737,0,0,0,26.9,39.47v.22L10.143,49.613,36.162,12.348Z" fill="#b3b3b3"/>
    <path id="Path_6857" data-name="Path 6857" d="M82.467,14.994,34.618,35.942c-.22-.221-.441-.221-.441-.441l6.174-26.02h.221a4.631,4.631,0,0,0,3.969-2.2Z" fill="#d2d2d2"/>
    <path id="Path_6858" data-name="Path 6858" d="M83.349,18.081a5.047,5.047,0,0,0,2.205,1.544l-7.5,56.007a3.127,3.127,0,0,0-1.323.441L35.941,40.793c0-.441.221-.882.221-1.323v-.882Z" fill="#fff"/>
  </g>
</svg>
