<svg xmlns="http://www.w3.org/2000/svg" xmlns:xlink="http://www.w3.org/1999/xlink" width="116" height="103.785" viewBox="0 0 116 103.785">
  <defs>
    <clipPath id="clip-path">
      <rect id="Rectangle_751" data-name="Rectangle 751" width="116" height="103.785" fill="none"/>
    </clipPath>
  </defs>
  <g id="Group_3778" data-name="Group 3778" transform="translate(-7)">
    <g id="Group_3777" data-name="Group 3777" transform="translate(7)" clip-path="url(#clip-path)">
      <path id="Path_6861" data-name="Path 6861" d="M80.793,0H35.207A12.415,12.415,0,0,0,24.456,6.207L1.663,45.686a12.412,12.412,0,0,0,0,12.414L24.456,97.578a12.415,12.415,0,0,0,10.751,6.207H80.793a12.413,12.413,0,0,0,10.75-6.207L114.337,58.1a12.412,12.412,0,0,0,0-12.414L91.543,6.207A12.413,12.413,0,0,0,80.793,0" fill="#116ced"/>
      <path id="Path_6862" data-name="Path 6862" d="M44.47,68.885l13.9-24.232H64.53L68.105,38.3,64.53,31.743H51.62l-14.9,25.622Z" transform="translate(-6.332 -5.473)" fill="#fff"/>
      <path id="Path_6863" data-name="Path 6863" d="M78.723,31.743,81.9,37.9l-3.178,6.554h8.143L90.442,38.1,86.47,31.743Z" transform="translate(-13.573 -5.473)" fill="#fff"/>
      <path id="Path_6864" data-name="Path 6864" d="M93.719,49.5l-13.9,24.232H73.659l-3.575,6.356,3.575,6.554h12.91l14.9-25.622Z" transform="translate(-12.083 -8.535)" fill="#fff"/>
      <path id="Path_6865" data-name="Path 6865" d="M63.562,91.735l-3.178-6.157,3.178-6.554H55.419l-3.575,6.356,3.972,6.356Z" transform="translate(-8.939 -13.625)" fill="#fff"/>
    </g>
  </g>
</svg>
