<svg id="Group_3840" data-name="Group 3840" xmlns="http://www.w3.org/2000/svg" xmlns:xlink="http://www.w3.org/1999/xlink" width="116" height="116" viewBox="0 0 116 116">
  <defs>
    <clipPath id="clip-path">
      <rect id="Rectangle_790" data-name="Rectangle 790" width="116" height="116" fill="none"/>
    </clipPath>
  </defs>
  <g id="Group_3839" data-name="Group 3839" clip-path="url(#clip-path)">
    <path id="Path_6929" data-name="Path 6929" d="M93.5,116h-71A22.534,22.534,0,0,1,0,93.5v-71A22.534,22.534,0,0,1,22.5,0h71A22.534,22.534,0,0,1,116,22.5v71A22.47,22.47,0,0,1,93.56,116H93.5" fill="#fff"/>
    <path id="Path_6930" data-name="Path 6930" d="M23.123,84.829h2.683V82.146H23.123a2.683,2.683,0,0,1-2.683-2.683V25.806a2.683,2.683,0,0,1,2.683-2.683H82.146a2.683,2.683,0,0,1,2.683,2.683v2.683h2.683V25.806a5.367,5.367,0,0,0-5.366-5.366H23.123a5.367,5.367,0,0,0-5.366,5.366V79.463a5.367,5.367,0,0,0,5.366,5.366" fill="#ff6c1a"/>
    <rect id="Rectangle_780" data-name="Rectangle 780" width="2.683" height="2.683" transform="translate(23.123 25.806)" fill="#ff6c1a"/>
    <rect id="Rectangle_781" data-name="Rectangle 781" width="2.683" height="2.683" transform="translate(28.489 25.806)" fill="#ff6c1a"/>
    <rect id="Rectangle_782" data-name="Rectangle 782" width="2.683" height="2.683" transform="translate(33.854 25.806)" fill="#ff6c1a"/>
    <path id="Path_6931" data-name="Path 6931" d="M28.488,90.194a5.367,5.367,0,0,0,5.366,5.366H92.877a5.366,5.366,0,0,0,5.365-5.366V36.537a5.366,5.366,0,0,0-5.365-5.366H33.854a5.367,5.367,0,0,0-5.366,5.366Zm2.683-53.657a2.683,2.683,0,0,1,2.683-2.683H92.877a2.683,2.683,0,0,1,2.683,2.683V90.194a2.683,2.683,0,0,1-2.683,2.683H33.854a2.683,2.683,0,0,1-2.683-2.683Z" fill="#ff6c1a"/>
    <rect id="Rectangle_783" data-name="Rectangle 783" width="2.683" height="2.683" transform="translate(33.854 36.537)" fill="#ff6c1a"/>
    <rect id="Rectangle_784" data-name="Rectangle 784" width="2.683" height="2.683" transform="translate(39.22 36.537)" fill="#ff6c1a"/>
    <rect id="Rectangle_785" data-name="Rectangle 785" width="2.683" height="2.683" transform="translate(44.586 36.537)" fill="#ff6c1a"/>
    <rect id="Rectangle_786" data-name="Rectangle 786" width="59.023" height="2.683" transform="translate(33.854 41.903)" fill="#ff6c1a"/>
    <rect id="Rectangle_787" data-name="Rectangle 787" width="10.731" height="2.683" transform="translate(33.854 48.61)" fill="#ff6c1a"/>
    <rect id="Rectangle_788" data-name="Rectangle 788" width="8.049" height="2.683" transform="translate(33.854 53.976)" fill="#ff6c1a"/>
    <path id="Path_6932" data-name="Path 6932" d="M63.366,59.342a9.39,9.39,0,1,0,9.39,9.39,9.39,9.39,0,0,0-9.39-9.39m0,16.1a6.707,6.707,0,1,1,6.707-6.707,6.707,6.707,0,0,1-6.707,6.707" fill="#ff6c1a"/>
    <path id="Path_6933" data-name="Path 6933" d="M84.829,64.707a1.342,1.342,0,0,0-1.342-1.342H79.942A17.09,17.09,0,0,0,78.881,60.8L81.388,58.3a1.343,1.343,0,0,0,0-1.9L75.7,50.709a1.343,1.343,0,0,0-1.9,0l-2.505,2.506a17.386,17.386,0,0,0-2.562-1.06V48.61a1.342,1.342,0,0,0-1.342-1.342H59.342A1.342,1.342,0,0,0,58,48.61v3.545a17.386,17.386,0,0,0-2.562,1.06l-2.505-2.506a1.343,1.343,0,0,0-1.9,0L45.344,56.4a1.343,1.343,0,0,0,0,1.9L47.85,60.8c-.112.22-.22.44-.322.663a17.423,17.423,0,0,0-.738,1.9H43.245A1.342,1.342,0,0,0,41.9,64.707v8.048A1.341,1.341,0,0,0,43.245,74.1H46.79a17.046,17.046,0,0,0,1.061,2.562l-2.507,2.505a1.344,1.344,0,0,0,0,1.9l5.692,5.691a1.343,1.343,0,0,0,1.9,0l2.505-2.506A17.278,17.278,0,0,0,58,85.307v3.546a1.341,1.341,0,0,0,1.342,1.341H67.39a1.341,1.341,0,0,0,1.342-1.341V85.307a17.278,17.278,0,0,0,2.562-1.06L73.8,86.753a1.343,1.343,0,0,0,1.9,0l5.692-5.691a1.344,1.344,0,0,0,0-1.9l-2.507-2.505A17.046,17.046,0,0,0,79.942,74.1h3.545a1.341,1.341,0,0,0,1.342-1.342Zm-2.683,6.707H78.935a1.342,1.342,0,0,0-1.3,1.006,14.71,14.71,0,0,1-1.569,3.794,1.34,1.34,0,0,0,.206,1.629l2.268,2.27-3.793,3.795-2.27-2.27a1.342,1.342,0,0,0-1.63-.206A14.668,14.668,0,0,1,67.055,83a1.342,1.342,0,0,0-1.006,1.3v3.211H60.683V84.3A1.342,1.342,0,0,0,59.677,83a14.668,14.668,0,0,1-3.793-1.569,1.342,1.342,0,0,0-1.63.206l-2.27,2.27-3.793-3.795,2.268-2.27a1.34,1.34,0,0,0,.206-1.629A14.71,14.71,0,0,1,49.1,72.42a1.342,1.342,0,0,0-1.3-1.006H44.586V66.048H47.8a1.342,1.342,0,0,0,1.3-1.006,14.627,14.627,0,0,1,.872-2.458,14.957,14.957,0,0,1,.7-1.342,1.343,1.343,0,0,0-.206-1.629l-2.268-2.269,3.793-3.8,2.27,2.27a1.34,1.34,0,0,0,1.63.206,14.706,14.706,0,0,1,3.793-1.57,1.34,1.34,0,0,0,1.006-1.3V49.951h5.366v3.212a1.341,1.341,0,0,0,1.006,1.3,14.636,14.636,0,0,1,3.793,1.57,1.341,1.341,0,0,0,1.63-.207l2.27-2.27,3.793,3.795-2.268,2.27a1.342,1.342,0,0,0-.206,1.63,14.689,14.689,0,0,1,1.569,3.793,1.342,1.342,0,0,0,1.3,1.006h3.211Z" fill="#ff6c1a"/>
    <rect id="Rectangle_789" data-name="Rectangle 789" width="8.049" height="2.683" transform="translate(84.829 87.511)" fill="#ff6c1a"/>
  </g>
</svg>
