<svg id="Group_3832" data-name="Group 3832" xmlns="http://www.w3.org/2000/svg" xmlns:xlink="http://www.w3.org/1999/xlink" width="116" height="116" viewBox="0 0 116 116">
  <defs>
    <clipPath id="clip-path">
      <rect id="Rectangle_776" data-name="Rectangle 776" width="116" height="116" fill="none"/>
    </clipPath>
  </defs>
  <g id="Group_3831" data-name="Group 3831" clip-path="url(#clip-path)">
    <path id="Path_6919" data-name="Path 6919" d="M93.5,116h-71A22.534,22.534,0,0,1,0,93.5v-71A22.534,22.534,0,0,1,22.5,0h71A22.534,22.534,0,0,1,116,22.5v71A22.47,22.47,0,0,1,93.56,116H93.5" fill="#fff"/>
    <path id="Path_6920" data-name="Path 6920" d="M100.234,68.822V81.493a7.047,7.047,0,0,1-7.039,7.039H22.805a7.047,7.047,0,0,1-7.039-7.039V68.822a7.047,7.047,0,0,1,7.039-7.039h2.816V25.444a5.191,5.191,0,1,1,10.382,0V57.912a1.407,1.407,0,1,1-2.815,0V25.444a2.376,2.376,0,0,0-4.752,0V61.783H81.765a1.408,1.408,0,0,1,0,2.816H22.805a4.227,4.227,0,0,0-4.223,4.223V81.493a4.228,4.228,0,0,0,4.223,4.223h70.39a4.229,4.229,0,0,0,4.224-4.223V68.822A4.228,4.228,0,0,0,93.195,64.6H81.4A1.408,1.408,0,0,1,80,63.191V25.444a5.191,5.191,0,0,1,10.383,0V57.912a1.408,1.408,0,1,1-2.816,0V25.444a2.375,2.375,0,0,0-4.751,0V61.783H93.195a7.047,7.047,0,0,1,7.039,7.039M28.788,73.75a1.408,1.408,0,1,0,0,2.815h3.754a1.408,1.408,0,1,0,0-2.815Zm9.913,0a1.408,1.408,0,0,0,0,2.815h9.973a1.408,1.408,0,0,0,0-2.815Zm-2.17,19.181H26.677a1.408,1.408,0,1,0,0,2.816h9.854a1.408,1.408,0,1,0,0-2.816m52.793,0H79.469a1.408,1.408,0,1,0,0,2.816h9.855a1.408,1.408,0,1,0,0-2.816m-29.4-46.269a2.64,2.64,0,1,1-1.866-.773,2.642,2.642,0,0,1,1.866.773m4.6-2.613a1.407,1.407,0,0,0,0-1.991,9.146,9.146,0,0,0-12.941,0,1.408,1.408,0,0,0,1.991,1.991,6.331,6.331,0,0,1,8.959,0,1.407,1.407,0,0,0,1.991,0M48.355,38.823a13.719,13.719,0,0,1,19.412,0,1.408,1.408,0,0,0,1.991-1.991,16.533,16.533,0,0,0-23.394,0,1.408,1.408,0,0,0,1.991,1.991Z" fill="#ff6c1a"/>
  </g>
</svg>
