<svg id="Group_3838" data-name="Group 3838" xmlns="http://www.w3.org/2000/svg" xmlns:xlink="http://www.w3.org/1999/xlink" width="116" height="116" viewBox="0 0 116 116">
  <defs>
    <clipPath id="clip-path">
      <rect id="Rectangle_779" data-name="Rectangle 779" width="116" height="116" fill="none"/>
    </clipPath>
  </defs>
  <g id="Group_3837" data-name="Group 3837" clip-path="url(#clip-path)">
    <path id="Path_6926" data-name="Path 6926" d="M93.5,116h-71A22.534,22.534,0,0,1,0,93.5v-71A22.534,22.534,0,0,1,22.5,0h71A22.534,22.534,0,0,1,116,22.5v71A22.47,22.47,0,0,1,93.56,116H93.5" fill="#fff"/>
    <path id="Path_6927" data-name="Path 6927" d="M29.491,65.557A4.87,4.87,0,0,0,34.3,59.925l5.954-2.983a4.869,4.869,0,0,0,7.811-5.64l7.7-7.708a4.965,4.965,0,0,0,5.724-.931l5.954,2.982a4.872,4.872,0,1,0,9.684.762,4.854,4.854,0,0,0-1.074-3.048l9.111-13.688a4.879,4.879,0,1,0-2.453-1.635L73.6,41.725a4.93,4.93,0,0,0-4.834,1.286l-5.955-2.982a4.872,4.872,0,1,0-9.134,1.482l-7.7,7.708a4.866,4.866,0,0,0-7.046,5.088L32.979,57.29a4.87,4.87,0,1,0-3.488,8.267m-1.924-4.872a1.924,1.924,0,1,1,1.924,1.924,1.927,1.927,0,0,1-1.924-1.924M56.075,39.268A1.924,1.924,0,1,1,58,41.192a1.927,1.927,0,0,1-1.925-1.924M41.821,53.546a1.924,1.924,0,1,1,1.924,1.924,1.927,1.927,0,0,1-1.924-1.924m30.433-5.215a1.924,1.924,0,1,1,1.924-1.924,1.926,1.926,0,0,1-1.924,1.924m12.33-23.342a1.924,1.924,0,1,1,1.924,1.924,1.926,1.926,0,0,1-1.924-1.924" fill="#ff6c1a"/>
    <path id="Path_6928" data-name="Path 6928" d="M93.561,92.935h-.984V38.385a2.4,2.4,0,0,0-2.394-2.393h-7.35a2.4,2.4,0,0,0-2.392,2.393v54.55H78.322V59.9a2.4,2.4,0,0,0-2.393-2.393h-7.35A2.4,2.4,0,0,0,66.187,59.9V92.935H64.068V52.7a2.4,2.4,0,0,0-2.393-2.392H54.326A2.4,2.4,0,0,0,51.932,52.7V92.935H49.814V67.041a2.4,2.4,0,0,0-2.394-2.392H40.071a2.4,2.4,0,0,0-2.393,2.392V92.935H35.559V74.181a2.4,2.4,0,0,0-2.393-2.392H25.817a2.4,2.4,0,0,0-2.393,2.392V92.935h-.985a1.474,1.474,0,0,0,0,2.948H93.561a1.474,1.474,0,1,0,0-2.948m-3.933,0h-6.24v-54h6.24Zm-14.254,0h-6.24V60.457h6.24Zm-14.255,0H54.88V53.256h6.239Zm-14.253,0h-6.24V67.6h6.24Zm-14.254,0h-6.24v-18.2h6.24Z" fill="#ff6c1a"/>
  </g>
</svg>
