<svg id="Group_3836" data-name="Group 3836" xmlns="http://www.w3.org/2000/svg" xmlns:xlink="http://www.w3.org/1999/xlink" width="116" height="116" viewBox="0 0 116 116">
  <defs>
    <clipPath id="clip-path">
      <rect id="Rectangle_778" data-name="Rectangle 778" width="116" height="116" fill="none"/>
    </clipPath>
  </defs>
  <g id="Group_3835" data-name="Group 3835" clip-path="url(#clip-path)">
    <path id="Path_6923" data-name="Path 6923" d="M93.5,116h-71A22.534,22.534,0,0,1,0,93.5v-71A22.534,22.534,0,0,1,22.5,0h71A22.534,22.534,0,0,1,116,22.5v71A22.47,22.47,0,0,1,93.56,116H93.5" fill="#fff"/>
    <path id="Path_6924" data-name="Path 6924" d="M51.472,23.975A27.484,27.484,0,1,0,78.955,51.459,27.484,27.484,0,0,0,51.472,23.975M63.553,73.2a24.861,24.861,0,0,1-36.807-24.36h5.28a5.236,5.236,0,0,0,5.049,3.926,5.163,5.163,0,0,0,2.643-.742l5.952,5.952a5.163,5.163,0,0,0-.742,2.643,5.235,5.235,0,1,0,10.47,0,5.173,5.173,0,0,0-.742-2.643l8.569-8.569a5.173,5.173,0,0,0,2.643.742A5.235,5.235,0,0,0,71.1,44.915a5.164,5.164,0,0,0-.743-2.643l2.854-2.851A24.844,24.844,0,0,1,63.553,73.2m-29.1-25.669a2.618,2.618,0,1,1,2.617,2.618,2.617,2.617,0,0,1-2.617-2.618M47.545,60.62a2.618,2.618,0,1,1,2.618,2.617,2.618,2.618,0,0,1-2.618-2.617m15.705-15.7a2.618,2.618,0,1,1,2.618,2.617,2.618,2.618,0,0,1-2.618-2.617m5.256-4.489a5.159,5.159,0,0,0-2.638-.746,5.235,5.235,0,0,0-5.235,5.235,5.157,5.157,0,0,0,.742,2.642l-8.57,8.57a5.073,5.073,0,0,0-5.285,0l-5.952-5.952a5.163,5.163,0,0,0,.742-2.643,5.224,5.224,0,0,0-10.284-1.308H27.171a24.835,24.835,0,0,1,44.607-9.07Z" fill="#ff6c1a"/>
    <path id="Path_6925" data-name="Path 6925" d="M84.19,31.828A5.236,5.236,0,0,0,89.239,27.9h8.038V25.284H89.239a5.224,5.224,0,0,0-10.284,1.309,5.157,5.157,0,0,0,.742,2.642l-2.3,2.3a32.718,32.718,0,1,0-8.169,47.384l3.95,3.949,1.85,1.851L85.564,95.254a6.861,6.861,0,0,0,9.7-9.7L84.731,75.016l-1.85-1.85-3.95-3.95a32.612,32.612,0,0,0,0-35.514l2.618-2.618a5.155,5.155,0,0,0,2.641.744m0-7.853a2.617,2.617,0,1,1-2.618,2.618,2.618,2.618,0,0,1,2.618-2.618M93.416,87.4a4.244,4.244,0,1,1-5.934,6.07l-.068-.068L76.879,82.868l6-6ZM81.03,75.016l-6,6-3.622-3.623c.184-.141.357-.3.539-.442s.393-.319.588-.483c.286-.241.569-.484.846-.734.143-.131.279-.262.419-.393q.806-.753,1.559-1.558c.131-.14.262-.277.393-.419q.374-.417.734-.847.246-.291.483-.588c.144-.18.3-.353.441-.538Zm-5.075-6.079c-.412.576-.838,1.14-1.286,1.683-.131.158-.271.312-.406.467q-.6.7-1.241,1.356-.279.288-.567.567-.654.639-1.355,1.24c-.156.131-.309.274-.468.406-.543.449-1.107.874-1.683,1.287a30.149,30.149,0,1,1,7.006-7.006" fill="#ff6c1a"/>
  </g>
</svg>
