<svg id="Group_3834" data-name="Group 3834" xmlns="http://www.w3.org/2000/svg" xmlns:xlink="http://www.w3.org/1999/xlink" width="116" height="116" viewBox="0 0 116 116">
  <defs>
    <clipPath id="clip-path">
      <rect id="Rectangle_777" data-name="Rectangle 777" width="116" height="116" fill="none"/>
    </clipPath>
  </defs>
  <g id="Group_3833" data-name="Group 3833" clip-path="url(#clip-path)">
    <path id="Path_6921" data-name="Path 6921" d="M93.5,116h-71A22.534,22.534,0,0,1,0,93.5v-71A22.534,22.534,0,0,1,22.5,0h71A22.534,22.534,0,0,1,116,22.5v71A22.47,22.47,0,0,1,93.56,116H93.5" fill="#fff"/>
    <path id="Path_6922" data-name="Path 6922" d="M22.44,94.326l8.306,4.746a2.792,2.792,0,0,0,1.364.35,2.853,2.853,0,0,0,1.381-.357l8.288-4.743a2.786,2.786,0,0,0,1.382-2.4V82.055a2.789,2.789,0,0,0-1.382-2.4l-8.288-4.734V70.413a1.381,1.381,0,0,1,1.381-1.381h22.1v5.887l-8.288,4.738a2.783,2.783,0,0,0-1.381,2.4v9.869a2.786,2.786,0,0,0,1.381,2.4l8.306,4.746a2.792,2.792,0,0,0,1.364.35,2.853,2.853,0,0,0,1.381-.357l8.288-4.743a2.786,2.786,0,0,0,1.382-2.4V82.055a2.787,2.787,0,0,0-1.382-2.4l-8.288-4.734V69.032h22.1a1.381,1.381,0,0,1,1.381,1.381v4.506l-8.288,4.738a2.783,2.783,0,0,0-1.381,2.4v9.869a2.786,2.786,0,0,0,1.381,2.4l8.306,4.746a2.792,2.792,0,0,0,1.364.35,2.853,2.853,0,0,0,1.381-.357l8.288-4.743a2.786,2.786,0,0,0,1.382-2.4V82.055a2.787,2.787,0,0,0-1.382-2.4l-8.288-4.734V70.413a4.144,4.144,0,0,0-4.144-4.144h-22.1v-4.5l8.288-4.741a2.784,2.784,0,0,0,1.382-2.4v-.792h8.288a12.432,12.432,0,0,0,1.278-24.8,8.3,8.3,0,0,0-8.185-6.972,8.2,8.2,0,0,0-3.55.8A16.565,16.565,0,0,0,38.164,29a12.432,12.432,0,0,0,.852,24.835h8.289v.792a2.79,2.79,0,0,0,1.381,2.4l8.288,4.734v4.5h-22.1a4.144,4.144,0,0,0-4.144,4.144v4.506L22.44,79.657a2.783,2.783,0,0,0-1.381,2.4v9.869a2.786,2.786,0,0,0,1.381,2.4m35.916-9.132-6.9-3.936,6.9-3.938,6.893,3.941Zm-8.289-1.552,6.907,3.944v8.288l-6.907-3.953Zm9.67,12.234V87.588l6.907-3.943v8.288ZM84.6,85.194l-6.9-3.936,6.9-3.938L91.5,81.261Zm-8.288-1.552,6.906,3.944v8.288l-6.906-3.953Zm9.669,12.234V87.588l6.907-3.943v8.288ZM58.356,47.9l-6.907-3.936,6.907-3.938,6.907,3.935Zm1.381,10.682V50.29l6.907-3.942v8.288Zm-20.721-7.5a9.67,9.67,0,0,1,.045-19.34,1.467,1.467,0,0,1,.175.01.378.378,0,0,0,.046-.01,9.7,9.7,0,0,1,4.42,1.2,1.352,1.352,0,0,0,.669.174,1.381,1.381,0,0,0,.671-2.588A12.4,12.4,0,0,0,41,29.14a13.774,13.774,0,0,1,23.958-4.661,8.3,8.3,0,0,0-1.77,2.559,1.382,1.382,0,0,0,.712,1.818,1.352,1.352,0,0,0,.553.116,1.383,1.383,0,0,0,1.267-.829,5.54,5.54,0,0,1,1.888-2.311.036.036,0,0,0,.026-.011,5.5,5.5,0,0,1,8.509,3.258A12.461,12.461,0,0,0,69.919,31.7a1.382,1.382,0,1,0,1.73,2.155,9.561,9.561,0,0,1,6.046-2.125,9.67,9.67,0,0,1,0,19.34H69.407V44.758a2.791,2.791,0,0,0-1.382-2.4l-8.309-4.749a2.848,2.848,0,0,0-2.742.012l-8.288,4.744a2.783,2.783,0,0,0-1.381,2.4v6.316Zm11.051-4.73,6.907,3.944v8.288l-6.907-3.954ZM32.11,85.194l-6.9-3.939,6.9-3.935L39,81.261ZM23.821,83.64l6.907,3.943v8.289l-6.907-3.948Zm9.67,12.233V87.585L40.4,83.642v8.289Z" fill="#ff6c1a"/>
  </g>
</svg>
