<svg id="Group_3621" data-name="Group 3621" xmlns="http://www.w3.org/2000/svg" xmlns:xlink="http://www.w3.org/1999/xlink" width="140.81" height="117.191" viewBox="0 0 140.81 117.191">
  <defs>
    <clipPath id="clip-path">
      <rect id="Rectangle_667" data-name="Rectangle 667" width="140.81" height="117.191" fill="none"/>
    </clipPath>
  </defs>
  <g id="Group_3621-2" data-name="Group 3621" transform="translate(0 0)" clip-path="url(#clip-path)">
    <path id="Path_6510" data-name="Path 6510" d="M27.36,49.14A1.856,1.856,0,0,1,25.5,51H11.32a1.86,1.86,0,0,1,0-3.72H25.5a1.856,1.856,0,0,1,1.86,1.86" transform="translate(0 0)" fill="#ff6c1a"/>
    <path id="Path_6511" data-name="Path 6511" d="M41.55,39.68a1.874,1.874,0,0,1-1.87,1.87H11.32a1.865,1.865,0,0,1,0-3.73H39.68a1.871,1.871,0,0,1,1.87,1.86" transform="translate(0 0)" fill="#ff6c1a"/>
    <path id="Path_6512" data-name="Path 6512" d="M32.09,11.32a1.865,1.865,0,1,1-1.86-1.86,1.865,1.865,0,0,1,1.86,1.86" transform="translate(0 0)" fill="#ff6c1a"/>
    <path id="Path_6513" data-name="Path 6513" d="M22.64,11.32a1.865,1.865,0,1,1-1.87-1.86,1.874,1.874,0,0,1,1.87,1.86" transform="translate(0 0)" fill="#ff6c1a"/>
    <path id="Path_6514" data-name="Path 6514" d="M13.18,11.32a1.86,1.86,0,1,1-1.86-1.86,1.865,1.865,0,0,1,1.86,1.86" transform="translate(0 0)" fill="#ff6c1a"/>
    <path id="Path_6515" data-name="Path 6515" d="M135.59.15A6.185,6.185,0,0,0,134.22,0H6.59A6.624,6.624,0,0,0,0,6.6V110.59a6.623,6.623,0,0,0,6.59,6.59h52a1.874,1.874,0,0,0,1.87-1.87v-.02a1.874,1.874,0,0,0-1.87-1.84h-52a2.872,2.872,0,0,1-2.86-2.86V22.64H137.09v87.95a2.863,2.863,0,0,1-1.5,2.5,2.772,2.772,0,0,1-1.37.36H120.04a1.865,1.865,0,0,0-1.86,1.84v.03a1.863,1.863,0,0,0,1.86,1.86h14.18a6.609,6.609,0,0,0,6.59-6.59V6.59A6.612,6.612,0,0,0,135.59.15m1.49,18.76H3.73V6.59A2.879,2.879,0,0,1,6.59,3.73H134.22a2.89,2.89,0,0,1,1.37.37,2.819,2.819,0,0,1,1.49,2.49Z" transform="translate(0 0)" fill="#ff6c1a"/>
    <path id="Path_6516" data-name="Path 6516" d="M93.54,94.04a23.17,23.17,0,0,1-13.99,21.25,22.9,22.9,0,0,1-9.15,1.89,1.869,1.869,0,0,1-1.86-1.86v-.03a1.872,1.872,0,0,1,1.86-1.84,19.409,19.409,0,1,0-16.05-8.49,1.214,1.214,0,0,1,.1.14,1.857,1.857,0,0,1-.61,2.56,1.859,1.859,0,0,1-2.57-.62,23.133,23.133,0,1,1,42.27-13" transform="translate(0 0)" fill="#ff6c1a"/>
    <path id="Path_6517" data-name="Path 6517" d="M117.18,89.32l-.01,9.45a1.862,1.862,0,0,1-1.5,1.82l-8.9,1.79-.08.31a37.6,37.6,0,0,1-1.86,5.67l-.12.3,4.99,5.4a1.921,1.921,0,0,1,.49,1.23v.11a1.878,1.878,0,0,1-1.88,1.79,1.847,1.847,0,0,1-1.36-.6l-1.2-1.3-4.62-5.01a1.866,1.866,0,0,1-.32-2.05,33.375,33.375,0,0,0,2.55-7.79,1.87,1.87,0,0,1,1.47-1.47l8.61-1.73v-6.4l-8.61-1.72a1.882,1.882,0,0,1-1.47-1.48,32.914,32.914,0,0,0-2.55-7.79,1.85,1.85,0,0,1,.33-2.05l5.96-6.48-3.75-5.17-8.01,3.68a1.85,1.85,0,0,1-2.05-.33,34.19,34.19,0,0,0-6.62-4.84,1.874,1.874,0,0,1-.95-1.84l1.03-8.72-6.09-1.98-4.3,7.67a1.922,1.922,0,0,1-1.86.94,33.5,33.5,0,0,0-8.19,0,1.88,1.88,0,0,1-1.86-.94l-4.3-7.67L54.06,54.1l1.03,8.72a1.842,1.842,0,0,1-.95,1.84,34.19,34.19,0,0,0-6.62,4.84,1.847,1.847,0,0,1-2.05.33l-8-3.68-3.76,5.18,5.97,6.47A1.866,1.866,0,0,1,40,79.85a33.849,33.849,0,0,0-2.55,7.79,1.856,1.856,0,0,1-1.47,1.48l-8.62,1.72v6.4l8.62,1.73a1.883,1.883,0,0,1,1.47,1.47A32.282,32.282,0,0,0,38.68,105a1.886,1.886,0,0,1-.08,1.42,1.854,1.854,0,0,1-1.07.95,1.824,1.824,0,0,1-1.43-.08,1.889,1.889,0,0,1-.95-1.07c-.39-1.14-.74-2.33-1.03-3.53l-.08-.31-8.9-1.78a1.881,1.881,0,0,1-1.5-1.83V89.32a1.864,1.864,0,0,1,1.5-1.83l8.9-1.78.07-.31a39.276,39.276,0,0,1,1.86-5.68l.12-.29-6.17-6.7a1.857,1.857,0,0,1-.14-2.35l5.56-7.66a1.864,1.864,0,0,1,2.29-.59l8.27,3.8.25-.21a37.778,37.778,0,0,1,4.81-3.52l.27-.17-1.06-9.02a1.89,1.89,0,0,1,1.28-1.99l8.99-2.92a1.873,1.873,0,0,1,2.2.86l4.45,7.93.32-.03a35.005,35.005,0,0,1,5.97,0l.32.03,4.45-7.93a1.873,1.873,0,0,1,2.2-.86l8.99,2.92a1.875,1.875,0,0,1,1.28,1.99l-1.07,9.02.28.17a36.908,36.908,0,0,1,4.81,3.53l.24.21,8.28-3.81a1.852,1.852,0,0,1,2.29.59l5.56,7.65a1.871,1.871,0,0,1-.14,2.36l-6.18,6.69.13.3a36.463,36.463,0,0,1,1.85,5.67l.08.31,8.91,1.79a1.882,1.882,0,0,1,1.52,1.83" transform="translate(0 0)" fill="#ff6c1a"/>
  </g>
</svg>
