<svg id="Group_3541" data-name="Group 3541" xmlns="http://www.w3.org/2000/svg" xmlns:xlink="http://www.w3.org/1999/xlink" width="85.045" height="106.287" viewBox="0 0 85.045 106.287">
  <defs>
    <clipPath id="clip-path">
      <rect id="Rectangle_652" data-name="Rectangle 652" width="85.045" height="106.287" fill="#ff6c1a"/>
    </clipPath>
  </defs>
  <g id="Group_3540" data-name="Group 3540" clip-path="url(#clip-path)">
    <path id="Path_6450" data-name="Path 6450" d="M79.731,10.628H74.416V5.315A5.314,5.314,0,0,0,69.1,0H19.5c-.034,0-.066.018-.1.019a1.681,1.681,0,0,0-.476.1,1.535,1.535,0,0,0-.155.062,1.774,1.774,0,0,0-.531.354L.526,18.246a1.75,1.75,0,0,0-.354.519,1.642,1.642,0,0,0-.058.166,1.671,1.671,0,0,0-.091.456c0,.039-.023.072-.023.111V90.343a5.314,5.314,0,0,0,5.33,5.315h5.315v5.314a5.314,5.314,0,0,0,5.314,5.315H79.731a5.314,5.314,0,0,0,5.314-5.315V15.943a5.314,5.314,0,0,0-5.314-5.315m-62-4.581v9.9a1.772,1.772,0,0,1-1.772,1.771H6.064ZM5.33,92.115a1.771,1.771,0,0,1-1.771-1.772V21.257h12.4a5.314,5.314,0,0,0,5.315-5.314V3.543H69.1a1.772,1.772,0,0,1,1.772,1.772V90.343A1.772,1.772,0,0,1,69.1,92.115ZM81.5,100.972a1.771,1.771,0,0,1-1.771,1.772H15.959a1.771,1.771,0,0,1-1.771-1.772V95.658H69.1a5.314,5.314,0,0,0,5.315-5.315V14.171h5.315A1.771,1.771,0,0,1,81.5,15.943Z" fill="#ff6c1a" fill-rule="evenodd"/>
    <path id="Path_6451" data-name="Path 6451" d="M250.278,116a1.77,1.77,0,0,0,2.8,0l8.267-10.628a1.771,1.771,0,0,0-2.8-2.175l-6.869,8.831-.964-1.241a1.772,1.772,0,1,0-2.8,2.177Z" transform="translate(-196.155 -81.26)" fill="#ff6c1a" fill-rule="evenodd"/>
    <path id="Path_6452" data-name="Path 6452" d="M83.163,136.535H53.048a1.771,1.771,0,0,0,0,3.543H83.163a1.771,1.771,0,1,0,0-3.543" transform="translate(-40.632 -108.192)" fill="#ff6c1a" fill-rule="evenodd"/>
    <path id="Path_6453" data-name="Path 6453" d="M260.2,179.068a1.773,1.773,0,0,0-1.652.7l-6.869,8.831-.964-1.24a1.772,1.772,0,1,0-2.8,2.177l2.361,3.036a1.771,1.771,0,0,0,2.8,0l8.267-10.628a1.771,1.771,0,0,0-1.143-2.875" transform="translate(-196.155 -141.883)" fill="#ff6c1a" fill-rule="evenodd"/>
    <path id="Path_6454" data-name="Path 6454" d="M83.163,213.332H53.048a1.771,1.771,0,0,0,0,3.543H83.163a1.771,1.771,0,1,0,0-3.543" transform="translate(-40.632 -169.046)" fill="#ff6c1a" fill-rule="evenodd"/>
    <path id="Path_6455" data-name="Path 6455" d="M260.2,255.869a1.773,1.773,0,0,0-1.652.7l-6.869,8.831-.964-1.24a1.772,1.772,0,1,0-2.8,2.177l2.361,3.036a1.772,1.772,0,0,0,2.8,0l8.267-10.628a1.771,1.771,0,0,0-1.143-2.875" transform="translate(-196.155 -202.741)" fill="#ff6c1a" fill-rule="evenodd"/>
    <path id="Path_6456" data-name="Path 6456" d="M83.163,290.133H53.048a1.771,1.771,0,0,0,0,3.543H83.163a1.771,1.771,0,1,0,0-3.543" transform="translate(-40.632 -229.904)" fill="#ff6c1a" fill-rule="evenodd"/>
    <path id="Path_6457" data-name="Path 6457" d="M260.2,332.666a1.773,1.773,0,0,0-1.652.7l-6.869,8.831-.964-1.24a1.772,1.772,0,1,0-2.8,2.177l2.361,3.036a1.772,1.772,0,0,0,2.8,0l8.267-10.628a1.772,1.772,0,0,0-1.143-2.876" transform="translate(-196.155 -263.595)" fill="#ff6c1a" fill-rule="evenodd"/>
    <path id="Path_6458" data-name="Path 6458" d="M83.163,366.934H53.048a1.771,1.771,0,0,0,0,3.543H83.163a1.771,1.771,0,1,0,0-3.543" transform="translate(-40.632 -290.762)" fill="#ff6c1a" fill-rule="evenodd"/>
  </g>
</svg>
