<svg id="Group_3830" data-name="Group 3830" xmlns="http://www.w3.org/2000/svg" xmlns:xlink="http://www.w3.org/1999/xlink" width="116" height="116" viewBox="0 0 116 116">
  <defs>
    <clipPath id="clip-path">
      <rect id="Rectangle_775" data-name="Rectangle 775" width="116" height="116" fill="none"/>
    </clipPath>
  </defs>
  <g id="Mask_Group_3829" data-name="Mask Group 3829" clip-path="url(#clip-path)">
    <path id="Path_6914" data-name="Path 6914" d="M93.5,116h-71A22.534,22.534,0,0,1,0,93.5v-71A22.534,22.534,0,0,1,22.5,0h71A22.534,22.534,0,0,1,116,22.5v71A22.47,22.47,0,0,1,93.56,116H93.5" fill="#fff"/>
    <path id="Path_6915" data-name="Path 6915" d="M91.367,31.049H88.4l.666-1.332a1.284,1.284,0,0,0-.24-1.481L85.2,24.6a1.286,1.286,0,0,0-1.481-.24l-2.208,1.1A16.531,16.531,0,0,0,77.965,24l-.782-2.338a1.283,1.283,0,0,0-1.216-.878H70.833a1.283,1.283,0,0,0-1.216.878L68.835,24a16.531,16.531,0,0,0-3.543,1.47l-2.208-1.1a1.285,1.285,0,0,0-1.481.24l-3.63,3.631a1.282,1.282,0,0,0-.24,1.481l.666,1.332H51.583V22.066a3.85,3.85,0,0,0-3.85-3.85H27.2a3.85,3.85,0,0,0-3.85,3.85v9.112a6.428,6.428,0,0,0-5.134,6.288v38.5a6.426,6.426,0,0,0,6.417,6.417H49.016v5.133H46.449a5.133,5.133,0,0,0-5.133,5.133V96.5A1.283,1.283,0,0,0,42.6,97.784H73.4A1.283,1.283,0,0,0,74.683,96.5V92.65a5.133,5.133,0,0,0-5.133-5.133H66.983V82.384H91.367a6.426,6.426,0,0,0,6.417-6.417v-38.5a6.425,6.425,0,0,0-6.417-6.417M58.836,37.684a1.279,1.279,0,0,0,.843-.92,13.962,13.962,0,0,1,1.709-4.117,1.283,1.283,0,0,0,.056-1.249l-1.006-2,2.325-2.325,2,1a1.284,1.284,0,0,0,1.248-.055A13.957,13.957,0,0,1,70.13,26.31a1.283,1.283,0,0,0,.92-.843l.708-2.118h3.283l.709,2.121a1.283,1.283,0,0,0,.92.844,13.981,13.981,0,0,1,4.117,1.706,1.29,1.29,0,0,0,1.247.056l2-1L86.362,29.4l-1,2a1.283,1.283,0,0,0,.056,1.249,13.959,13.959,0,0,1,1.708,4.117,1.283,1.283,0,0,0,.843.92l2.117.707v3.283l-2.121.707a1.285,1.285,0,0,0-.843.92,13.948,13.948,0,0,1-1.708,4.117,1.283,1.283,0,0,0-.056,1.249l1,2-2.322,2.326-2-1a1.282,1.282,0,0,0-1.247.055,14.011,14.011,0,0,1-4.117,1.707,1.283,1.283,0,0,0-.92.843l-.709,2.117H71.758L71.05,54.6a1.283,1.283,0,0,0-.92-.843,13.984,13.984,0,0,1-4.117-1.707,1.284,1.284,0,0,0-1.248-.055l-2,1-2.325-2.322,1-2a1.283,1.283,0,0,0-.056-1.249A13.922,13.922,0,0,1,59.676,43.3a1.284,1.284,0,0,0-.844-.92l-2.116-.707V38.391ZM25.916,22.066A1.283,1.283,0,0,1,27.2,20.782H47.733a1.284,1.284,0,0,1,1.283,1.284V51.583h-23.1Zm0,32.084h23.1v6.416a1.284,1.284,0,0,1-1.283,1.284H27.2a1.283,1.283,0,0,1-1.283-1.284ZM69.55,90.084a2.566,2.566,0,0,1,2.566,2.566v2.567H43.883V92.65a2.566,2.566,0,0,1,2.566-2.566Zm-17.967-7.7H64.417v5.133H51.583Zm43.634-6.417a3.85,3.85,0,0,1-3.85,3.85H24.632a3.85,3.85,0,0,1-3.85-3.85v-3.85H95.217Zm0-6.417H20.782V37.466a3.85,3.85,0,0,1,2.567-3.614V60.566a3.851,3.851,0,0,0,3.85,3.851H47.733a3.851,3.851,0,0,0,3.85-3.851V33.616h6.433a16.4,16.4,0,0,0-.65,1.853l-2.339.779a1.282,1.282,0,0,0-.877,1.218V42.6a1.281,1.281,0,0,0,.877,1.218l2.339.779a16.475,16.475,0,0,0,1.47,3.545l-1.1,2.207a1.282,1.282,0,0,0,.24,1.481L61.6,55.46a1.284,1.284,0,0,0,1.481.24l2.208-1.1a16.579,16.579,0,0,0,3.543,1.469l.782,2.338a1.282,1.282,0,0,0,1.216.878h5.134a1.282,1.282,0,0,0,1.216-.878l.782-2.338A16.579,16.579,0,0,0,81.508,54.6l2.208,1.1a1.284,1.284,0,0,0,1.481-.24l3.63-3.631a1.284,1.284,0,0,0,.24-1.481l-1.1-2.207A16.428,16.428,0,0,0,89.434,44.6l2.338-.779A1.282,1.282,0,0,0,92.65,42.6V37.466a1.283,1.283,0,0,0-.878-1.218l-2.338-.779a16.6,16.6,0,0,0-.65-1.853h2.583a3.85,3.85,0,0,1,3.85,3.85Z" fill="#ff6c1a"/>
    <path id="Path_6916" data-name="Path 6916" d="M52.867,77.25H63.134a1.284,1.284,0,0,0,0-2.567H52.867a1.284,1.284,0,0,0,0,2.567" fill="#ff6c1a"/>
    <path id="Path_6917" data-name="Path 6917" d="M34.9,59.283h5.133a1.284,1.284,0,1,0,0-2.567H34.9a1.284,1.284,0,0,0,0,2.567" fill="#ff6c1a"/>
    <path id="Path_6918" data-name="Path 6918" d="M73.4,49.016a8.983,8.983,0,1,0-8.984-8.983A8.983,8.983,0,0,0,73.4,49.016m0-15.4a6.417,6.417,0,1,1-6.417,6.417A6.417,6.417,0,0,1,73.4,33.616" fill="#ff6c1a"/>
  </g>
</svg>
