<svg width="254" height="100" viewBox="0 0 254 100" fill="none" xmlns="http://www.w3.org/2000/svg">
<path d="M28.1669 38.1683C28.5057 38.3975 28.8294 38.6484 29.1359 38.9193C35.1819 45.0253 41.2239 51.1339 47.2619 57.2453C48.2527 58.155 48.9652 59.327 49.3167 60.6253C49.6683 61.9236 49.6444 63.295 49.2479 64.5803C48.9135 65.7421 48.2925 66.8014 47.4419 67.6606C46.5913 68.5199 45.5385 69.1517 44.38 69.4979C43.2216 69.8442 41.9948 69.8938 40.8122 69.6423C39.6296 69.3907 38.5291 68.846 37.6119 68.0583C37.3029 67.7953 37.0119 67.5043 36.7279 67.2153C32.3246 62.8193 27.9219 58.4226 23.5199 54.0253C20.0559 50.5786 16.5829 47.1399 13.1009 43.7093C11.832 42.5553 10.9599 41.0301 10.6089 39.3513C10.3932 38.2768 10.4247 37.1674 10.701 36.1069C10.9773 35.0465 11.4913 34.0628 12.2039 33.2303C12.3449 33.0593 12.5039 32.9003 12.6589 32.7423C20.8043 24.5976 28.9506 16.4543 37.0979 8.31227C38.1733 7.1951 39.5788 6.45262 41.1077 6.19412C42.6366 5.93561 44.2081 6.17472 45.5909 6.87627C46.6231 7.39116 47.5191 8.14249 48.206 9.0691C48.8929 9.99572 49.3513 11.0714 49.5439 12.2087C49.7364 13.346 49.6578 14.5126 49.3142 15.6137C48.9707 16.7148 48.372 17.7193 47.5669 18.5453C43.9049 22.2693 40.2039 25.9523 36.5259 29.6583C33.9446 32.2583 31.3703 34.8659 28.8029 37.4813C28.6499 37.6373 28.5119 37.8063 28.1789 38.1813L28.1669 38.1683Z" fill="#FF6C1A"/>
<path d="M72.377 62.245C71.922 61.765 71.531 61.33 71.117 60.916C66.5956 56.3746 62.0736 51.834 57.551 47.294C56.1403 45.8753 54.7363 44.451 53.339 43.021C51.9437 41.7052 51.1282 39.8891 51.0719 37.9721C51.0157 36.0551 51.7232 34.1943 53.039 32.799C54.3547 31.4037 56.1708 30.5882 58.0878 30.5319C60.0048 30.4757 61.8657 31.1832 63.261 32.499C64.324 33.529 65.361 34.592 66.41 35.638L77.839 46.995C81.2056 50.3376 84.5683 53.6806 87.927 57.024C88.638 57.7036 89.205 58.5193 89.5943 59.4226C89.9837 60.3259 90.1873 61.2982 90.193 62.2818C90.1988 63.2654 90.0067 64.2401 89.628 65.1479C89.2494 66.0557 88.692 66.878 87.989 67.566C79.8556 75.722 71.71 83.8696 63.552 92.009C62.6217 93.008 61.4182 93.7113 60.0912 94.0314C58.7642 94.3514 57.3723 94.2741 56.089 93.809C54.7946 93.4341 53.6368 92.6918 52.7559 91.6721C51.875 90.6524 51.3088 89.399 51.126 88.064C50.9038 86.9469 50.9624 85.7921 51.2964 84.7032C51.6305 83.6143 52.2296 82.6253 53.04 81.825C54.709 80.09 56.421 78.398 58.118 76.688C62.372 72.406 66.629 68.1233 70.889 63.84C71.38 63.34 71.842 62.82 72.381 62.24L72.377 62.245Z" fill="#FF6C1A"/>
<path d="M93.0029 38.9044C91.0797 38.8725 89.2442 38.0944 87.8839 36.7344C85.2519 34.0794 82.6499 31.3924 80.0219 28.7344C79.2429 27.9444 78.3809 27.2344 77.6269 26.4214C76.3102 25.0373 75.5896 23.1914 75.6205 21.2813C75.6513 19.3711 76.431 17.5494 77.7917 16.2085C79.1524 14.8676 80.9853 14.1146 82.8957 14.1118C84.8062 14.109 86.6413 14.8565 88.0059 16.1934C91.4326 19.5774 94.8396 22.9784 98.227 26.3964C99.0941 27.2793 99.7236 28.3673 100.057 29.5591C100.39 30.7509 100.416 32.0076 100.133 33.2122C99.8491 34.4168 99.2652 35.5299 98.4354 36.448C97.6056 37.366 96.5568 38.059 95.3869 38.4624C94.6046 38.6693 93.8076 38.8164 93.0029 38.9024V38.9044Z" fill="#192A44"/>
<path d="M7.51997 61.2441C8.51347 61.2043 9.50465 61.3674 10.4331 61.7233C11.3615 62.0792 12.2077 62.6205 12.92 63.3141C15.6646 66.0668 18.4053 68.8218 21.142 71.5791C21.822 72.2611 22.542 72.9031 23.205 73.5981C24.1949 74.6502 24.8513 75.9717 25.0916 77.3961C25.3319 78.8206 25.1453 80.2843 24.5552 81.6029C23.9652 82.9214 22.9982 84.0359 21.776 84.806C20.5538 85.576 19.1311 85.9672 17.687 85.9301C15.847 85.8995 14.0912 85.1535 12.792 83.8501C9.30198 80.3741 5.79497 76.9161 2.40197 73.3561C1.59392 72.4688 1.01903 71.3945 0.728984 70.2299C0.438937 69.0654 0.442822 67.847 0.740291 66.6843C1.03776 65.5216 1.61949 64.451 2.43319 63.5688C3.24688 62.6866 4.26705 62.0204 5.40197 61.6301C6.09224 61.4285 6.80122 61.2975 7.51797 61.2391L7.51997 61.2441Z" fill="#192A44"/>
<path d="M31.9859 85.2873C33.9287 85.3271 35.776 86.137 37.1216 87.5388C38.4671 88.9407 39.2007 90.8196 39.1609 92.7623C39.1212 94.705 38.3113 96.5524 36.9094 97.8979C35.5076 99.2435 33.6287 99.9771 31.6859 99.9373C29.7608 99.8685 27.9378 99.0538 26.6024 97.6654C25.267 96.277 24.5238 94.4237 24.5299 92.4973C24.5416 91.533 24.7442 90.5806 25.1261 89.695C25.508 88.8094 26.0616 88.0083 26.7548 87.3379C27.4481 86.6675 28.2673 86.1411 29.1652 85.7892C30.0631 85.4372 31.0218 85.2666 31.9859 85.2873Z" fill="#192A44"/>
<path d="M69.0069 0.105184C70.951 0.118445 72.8101 0.903429 74.1754 2.28745C75.5407 3.67147 76.3002 5.54115 76.2869 7.48518C76.2737 9.42922 75.4887 11.2884 74.1047 12.6536C72.7207 14.0189 70.851 14.7784 68.9069 14.7652C66.9611 14.7268 65.1088 13.9228 63.752 12.5276C62.3951 11.1323 61.643 9.25835 61.6589 7.31218C61.6819 5.38342 62.4679 3.54228 63.845 2.19162C65.2221 0.840965 67.0781 0.0907676 69.0069 0.105184Z" fill="#192A44"/>
<path d="M156.728 20.7219C156.728 14.2919 161.589 9.90095 167.864 9.90095C169.655 9.84935 171.424 10.301 172.971 11.2047C174.518 12.1083 175.78 13.4277 176.615 15.0129L172.789 16.8939C172.317 15.9914 171.61 15.2328 170.744 14.6977C169.877 14.1625 168.882 13.8708 167.864 13.8529C166.974 13.846 166.093 14.0214 165.273 14.3683C164.454 14.7152 163.714 15.2262 163.1 15.8699C162.486 16.5136 162.01 17.2763 161.702 18.1109C161.394 18.9456 161.26 19.8345 161.308 20.7229C161.26 21.6114 161.394 22.5003 161.702 23.335C162.01 24.1696 162.486 24.9323 163.1 25.576C163.714 26.2197 164.454 26.7307 165.273 27.0776C166.093 27.4245 166.974 27.5999 167.864 27.5929C168.884 27.5815 169.882 27.2921 170.75 26.7557C171.618 26.2193 172.323 25.4563 172.789 24.5489L176.615 26.3989C175.78 27.9862 174.518 29.3089 172.972 30.2179C171.426 31.1269 169.657 31.5861 167.864 31.5439C161.59 31.5429 156.728 27.1529 156.728 20.7219Z" fill="#282828"/>
<path d="M178.215 23.5773C178.239 21.4673 179.093 19.4516 180.594 17.9678C182.094 16.484 184.119 15.6519 186.229 15.6519C188.34 15.6519 190.365 16.484 191.865 17.9678C193.366 19.4516 194.22 21.4673 194.244 23.5773C194.22 25.6874 193.366 27.703 191.865 29.1868C190.365 30.6706 188.34 31.5028 186.229 31.5028C184.119 31.5028 182.094 30.6706 180.594 29.1868C179.093 27.703 178.239 25.6874 178.215 23.5773ZM190.101 23.5773C190.101 21.2263 188.691 19.1863 186.211 19.1863C183.731 19.1863 182.353 21.2253 182.353 23.5773C182.353 25.9293 183.732 27.9983 186.211 27.9983C188.69 27.9983 190.101 25.9593 190.101 23.5773Z" fill="#282828"/>
<path d="M207.605 31.1671V29.2221C207.057 29.9427 206.351 30.527 205.54 30.9296C204.73 31.3322 203.837 31.5422 202.932 31.5431C199.106 31.5431 196.221 28.6571 196.221 23.6071C196.221 18.5571 199.074 15.6411 202.932 15.6411C203.838 15.6389 204.731 15.8475 205.542 16.2503C206.353 16.6531 207.06 17.2392 207.605 17.9621V10.2451H211.622V31.1671H207.605ZM207.605 26.2731V20.9081C207.202 20.3736 206.682 19.9397 206.083 19.6404C205.485 19.3411 204.825 19.1845 204.156 19.1831C201.897 19.1831 200.33 20.9721 200.33 23.6041C200.33 26.2361 201.898 27.9951 204.156 27.9951C204.825 27.9937 205.485 27.8372 206.083 27.5379C206.682 27.2386 207.202 26.8046 207.605 26.2701V26.2731Z" fill="#282828"/>
<path d="M214.602 23.5774C214.571 22.5347 214.752 21.4966 215.134 20.5259C215.515 19.5552 216.09 18.6721 216.823 17.93C217.556 17.1879 218.432 16.6023 219.398 16.2085C220.364 15.8148 221.4 15.6212 222.443 15.6394C227.054 15.6394 230.034 19.0254 230.034 23.9844V24.8634H218.772C218.914 25.8946 219.444 26.8328 220.255 27.4859C221.066 28.1391 222.095 28.458 223.133 28.3774C224.614 28.3549 226.042 27.8235 227.178 26.8724L228.934 29.4434C227.173 30.8697 224.957 31.615 222.692 31.5434C218.081 31.5434 214.602 28.4384 214.602 23.5774ZM222.443 18.8104C221.509 18.7834 220.601 19.117 219.906 19.7418C219.211 20.3666 218.784 21.2348 218.712 22.1664H226.178C226.158 21.6991 226.046 21.2405 225.846 20.8175C225.647 20.3944 225.365 20.0155 225.018 19.7028C224.67 19.3902 224.263 19.1502 223.821 18.9969C223.38 18.8437 222.912 18.7802 222.445 18.8104H222.443Z" fill="#282828"/>
<path d="M113.015 65.9571L118.257 58.6041C120.123 60.5494 122.365 62.0957 124.846 63.1492C127.327 64.2027 129.996 64.7416 132.692 64.7331C138.003 64.7331 140.592 62.2821 140.592 59.6961C140.592 51.6611 114.446 57.1761 114.446 40.0881C114.446 32.5311 120.981 26.2661 131.672 26.2661C138.89 26.2661 144.88 28.4441 149.372 32.5991L143.991 39.6811C140.363 36.4341 135.652 34.661 130.783 34.7101C126.63 34.7101 124.314 36.5481 124.314 39.2721C124.314 46.4891 150.391 41.6541 150.391 58.6091C150.391 66.9151 144.467 73.1801 132.212 73.1801C123.497 73.1801 117.232 70.2511 113.012 65.9621L113.015 65.9571Z" fill="#282828"/>
<path d="M165.375 68.1371V90.1421H156.728V39.4711H165.374V43.6211C166.567 42.0665 168.104 40.8089 169.863 39.9465C171.623 39.0842 173.558 38.6405 175.518 38.6501C183.96 38.6501 190.088 44.9141 190.088 55.8761C190.088 66.8381 183.959 73.1681 175.518 73.1681C173.551 73.1815 171.608 72.7327 169.846 71.8578C168.084 70.9829 166.552 69.7064 165.374 68.1311L165.375 68.1371ZM181.103 55.8821C181.103 50.2311 177.769 46.3491 172.803 46.3491C171.365 46.383 169.953 46.7366 168.669 47.3842C167.386 48.0318 166.262 48.9572 165.38 50.0931V61.7351C166.272 62.86 167.398 63.7775 168.679 64.424C169.961 65.0705 171.368 65.4305 172.803 65.4791C177.773 65.4791 181.103 61.5991 181.103 55.8791V55.8821Z" fill="#282828"/>
<path d="M194.312 55.8793C194.312 46.5503 200.849 38.6533 211.673 38.6533C222.497 38.6533 229.103 46.5533 229.103 55.8793C229.103 65.2053 222.567 73.1713 211.673 73.1713C200.779 73.1713 194.312 65.2753 194.312 55.8793Z" fill="#FF6C1A"/>
<path d="M237.208 64.1864V47.0294H231.761V39.4714H237.208V30.4854H245.923V39.4714H252.597V47.0284H245.923V61.8704C245.923 63.9124 247.012 65.4794 248.923 65.4794C250.003 65.5144 251.062 65.178 251.923 64.5264L253.76 71.0614C252.467 72.2194 250.152 73.1724 246.542 73.1724C240.483 73.1724 237.214 70.0414 237.214 64.1864H237.208Z" fill="#282828"/>
<path d="M170.599 89.7971V78.8071H178.375V80.8671H172.939V83.1921H178.261V85.2521H172.939V89.7991H170.599V89.7971Z" fill="#282828"/>
<path d="M179.448 85.8092C179.443 84.9753 179.686 84.1587 180.146 83.4631C180.606 82.7674 181.262 82.2241 182.031 81.9019C182.8 81.5798 183.648 81.4934 184.466 81.6537C185.284 81.814 186.037 82.2138 186.627 82.8023C187.218 83.3908 187.621 84.1416 187.784 84.9593C187.948 85.7771 187.865 86.6249 187.545 87.3953C187.226 88.1657 186.685 88.8239 185.991 89.2865C185.298 89.749 184.482 89.995 183.648 89.9932C183.091 90.017 182.536 89.9251 182.017 89.7235C181.498 89.5219 181.026 89.2148 180.631 88.8216C180.236 88.4285 179.928 87.9578 179.724 87.4394C179.52 86.9209 179.426 86.3658 179.448 85.8092ZM185.691 85.8092C185.639 85.4187 185.476 85.0515 185.221 84.7514C184.966 84.4512 184.629 84.2308 184.252 84.1165C183.876 84.0022 183.474 83.9988 183.095 84.1067C182.716 84.2146 182.376 84.4293 182.116 84.7251C181.856 85.0208 181.686 85.3852 181.628 85.7748C181.569 86.1643 181.624 86.5624 181.785 86.9217C181.947 87.2809 182.208 87.5861 182.539 87.8008C182.869 88.0154 183.254 88.1305 183.648 88.1322C183.939 88.1259 184.225 88.0594 184.489 87.9367C184.752 87.814 184.988 87.6379 185.18 87.4195C185.372 87.2011 185.517 86.9452 185.605 86.668C185.692 86.3908 185.722 86.0984 185.691 85.8092Z" fill="#282828"/>
<path d="M194.784 89.7963V88.7963C194.428 89.1823 193.995 89.4888 193.512 89.6956C193.03 89.9024 192.509 90.0049 191.984 89.9963C191.642 90.0423 191.293 90.01 190.965 89.9017C190.637 89.7934 190.338 89.612 190.091 89.3713C189.843 89.1305 189.654 88.8366 189.536 88.5118C189.419 88.187 189.377 87.8398 189.413 87.4963V81.8403H191.507V86.6683C191.475 86.8683 191.491 87.073 191.553 87.2657C191.615 87.4583 191.722 87.6335 191.866 87.7767C192.009 87.9199 192.184 88.027 192.377 88.0894C192.569 88.1517 192.774 88.1675 192.974 88.1353C193.325 88.1297 193.67 88.0452 193.983 87.8882C194.297 87.7312 194.571 87.5057 194.786 87.2283V81.8403H196.88V89.7993H194.786L194.784 89.7963Z" fill="#282828"/>
<path d="M204.325 89.7971V84.9871C204.357 84.7865 204.342 84.581 204.28 84.3875C204.218 84.194 204.111 84.0179 203.968 83.8734C203.825 83.729 203.65 83.6204 203.457 83.5564C203.264 83.4924 203.059 83.4748 202.858 83.5051C202.503 83.5085 202.155 83.5951 201.84 83.7581C201.525 83.921 201.253 84.1557 201.046 84.4431V89.7971H198.952V81.8381H201.046V82.8761C201.393 82.4814 201.821 82.1667 202.301 81.9535C202.782 81.7403 203.302 81.6337 203.828 81.6411C204.174 81.5983 204.525 81.634 204.855 81.7457C205.184 81.8574 205.485 82.0421 205.734 82.286C205.982 82.53 206.173 82.8269 206.291 83.1547C206.409 83.4825 206.451 83.8326 206.415 84.1791V89.7971H204.325Z" fill="#282828"/>
<path d="M213.962 89.7971V88.7751C213.674 89.1536 213.302 89.4604 212.876 89.6719C212.45 89.8833 211.981 89.9936 211.505 89.9941C209.498 89.9941 207.978 88.4781 207.978 85.8261C207.978 83.1741 209.478 81.6421 211.505 81.6421C211.981 81.6408 212.451 81.7502 212.877 81.9618C213.304 82.1733 213.675 82.4812 213.962 82.8611V78.8071H216.071V89.7971H213.962ZM213.962 87.2261V84.4101C213.751 84.1293 213.477 83.9013 213.162 83.744C212.848 83.5866 212.502 83.5042 212.15 83.5031C211.593 83.5827 211.083 83.8607 210.714 84.2861C210.345 84.7114 210.142 85.2556 210.142 85.8186C210.142 86.3817 210.345 86.9258 210.714 87.3512C211.083 87.7765 211.593 88.0545 212.15 88.1341C212.502 88.1335 212.849 88.0512 213.163 87.8936C213.477 87.736 213.751 87.5075 213.962 87.2261Z" fill="#282828"/>
<path d="M222.928 89.7973V88.9743C222.605 89.3137 222.213 89.5805 221.779 89.7567C221.344 89.9329 220.877 90.0146 220.409 89.9963C220.052 90.012 219.696 89.9556 219.362 89.8305C219.028 89.7053 218.722 89.514 218.464 89.268C218.205 89.022 217.999 88.7263 217.857 88.3986C217.716 88.071 217.642 87.7182 217.64 87.3613C217.643 87.0076 217.719 86.6583 217.861 86.3347C218.004 86.0111 218.212 85.7201 218.471 85.4794C218.73 85.2387 219.036 85.0535 219.369 84.935C219.702 84.8165 220.056 84.7673 220.409 84.7903C220.874 84.7633 221.339 84.8359 221.773 85.0034C222.208 85.1709 222.602 85.4293 222.928 85.7613V84.6903C222.928 83.8823 222.236 83.3563 221.182 83.3563C220.315 83.3565 219.483 83.6927 218.859 84.2943L218.069 82.8943C219.036 82.0674 220.273 81.6222 221.545 81.6423C223.357 81.6423 225.021 82.3683 225.021 84.6583V89.7983L222.928 89.7973ZM222.928 87.8853V86.8963C222.718 86.662 222.457 86.4781 222.166 86.3582C221.875 86.2382 221.56 86.1853 221.246 86.2033C220.424 86.2033 219.746 86.6323 219.746 87.4033C219.746 88.1743 220.421 88.5743 221.246 88.5743C221.56 88.5932 221.874 88.5411 222.166 88.4218C222.457 88.3025 222.717 88.1191 222.928 87.8853Z" fill="#282828"/>
<path d="M227.506 87.8221V83.6681H226.187V81.8411H227.506V79.6641H229.613V81.8411H231.227V83.6711H229.613V87.2621C229.613 87.7551 229.876 88.1361 230.339 88.1361C230.599 88.1438 230.855 88.0627 231.063 87.9061L231.513 89.4851C231.012 89.8619 230.392 90.0436 229.767 89.9961C229.468 90.0384 229.163 90.012 228.876 89.9189C228.588 89.8259 228.326 89.6685 228.108 89.4589C227.891 89.2492 227.724 88.9928 227.62 88.709C227.516 88.4252 227.479 88.1216 227.51 87.8211L227.506 87.8221Z" fill="#282828"/>
<path d="M232.448 79.732C232.448 79.4842 232.521 79.2418 232.659 79.0356C232.796 78.8294 232.992 78.6687 233.221 78.5737C233.45 78.4787 233.702 78.4537 233.945 78.502C234.188 78.5502 234.411 78.6695 234.587 78.8447C234.762 79.0199 234.881 79.2431 234.93 79.4862C234.978 79.7293 234.954 79.9813 234.859 80.2103C234.764 80.4393 234.603 80.6351 234.397 80.7728C234.191 80.9105 233.949 80.984 233.701 80.984C233.536 80.9844 233.373 80.9523 233.221 80.8896C233.069 80.8268 232.931 80.7346 232.814 80.6183C232.698 80.5019 232.606 80.3638 232.543 80.2117C232.48 80.0596 232.448 79.8966 232.448 79.732ZM232.664 89.799V81.84H234.756V89.799H232.664Z" fill="#282828"/>
<path d="M236.321 85.8092C236.316 84.9753 236.559 84.1587 237.019 83.4631C237.479 82.7674 238.135 82.2241 238.904 81.9019C239.673 81.5798 240.521 81.4934 241.339 81.6537C242.157 81.814 242.91 82.2138 243.5 82.8023C244.091 83.3908 244.494 84.1416 244.657 84.9593C244.821 85.7771 244.737 86.6249 244.418 87.3953C244.099 88.1657 243.558 88.8239 242.864 89.2865C242.17 89.749 241.355 89.995 240.521 89.9932C239.964 90.017 239.409 89.9251 238.89 89.7235C238.37 89.5219 237.899 89.2148 237.504 88.8216C237.109 88.4285 236.8 87.9578 236.597 87.4394C236.393 86.9209 236.299 86.3658 236.321 85.8092ZM242.564 85.8092C242.512 85.4187 242.349 85.0514 242.093 84.7512C241.838 84.451 241.502 84.2306 241.125 84.1164C240.748 84.0021 240.346 83.9988 239.967 84.1069C239.588 84.215 239.248 84.4298 238.988 84.7258C238.728 85.0218 238.559 85.3864 238.501 85.776C238.442 86.1656 238.497 86.5638 238.659 86.923C238.821 87.2823 239.083 87.5873 239.413 87.8017C239.744 88.0161 240.129 88.1308 240.523 88.1322C240.814 88.1257 241.1 88.0589 241.363 87.9361C241.626 87.8133 241.862 87.6372 242.053 87.4188C242.245 87.2004 242.39 86.9446 242.478 86.6676C242.565 86.3905 242.595 86.0982 242.564 85.8092Z" fill="#282828"/>
<path d="M251.661 89.7971V84.9871C251.693 84.7865 251.677 84.5812 251.615 84.3878C251.553 84.1943 251.446 84.0183 251.303 83.8739C251.16 83.7296 250.986 83.6209 250.793 83.5568C250.6 83.4927 250.395 83.475 250.194 83.5051C249.839 83.5088 249.491 83.5956 249.176 83.7585C248.861 83.9214 248.589 84.1559 248.381 84.4431V89.7971H246.289V81.8381H248.381V82.8761C248.728 82.4814 249.157 82.1666 249.638 81.9534C250.118 81.7402 250.639 81.6337 251.165 81.6411C251.511 81.5983 251.862 81.634 252.192 81.7457C252.522 81.8574 252.822 82.0421 253.071 82.286C253.319 82.53 253.51 82.8269 253.628 83.1547C253.746 83.4825 253.788 83.8326 253.752 84.1791V89.7971H251.662H251.661Z" fill="#282828"/>
</svg>
