<svg id="b33c4dac-884e-45c9-9349-eb513eaafa84" data-name="Layer 1" xmlns="http://www.w3.org/2000/svg" viewBox="0 0 100 100"><defs><style>.b0ee6b30-9bc8-4519-8281-6745c2ca67a0{fill:#ff6c1a;}</style></defs><path id="b0f67654-1243-4755-94d3-fb8d8b43573f" data-name="Vector 1106" class="b0ee6b30-9bc8-4519-8281-6745c2ca67a0" d="M35.75319,6.16367a3.28773,3.28773,0,1,0-6.57545,0Zm-6.57545,13.1509a3.28773,3.28773,0,0,0,6.57545,0Zm0-13.1509v13.1509h6.57545V6.16367Z"/><path id="b7e2eac4-cbeb-4621-9b40-f5c682ca85cd" data-name="Vector 1107" class="b0ee6b30-9bc8-4519-8281-6745c2ca67a0" d="M70.82226,6.16367a3.28773,3.28773,0,1,0-6.57545,0Zm-6.57545,13.1509a3.28773,3.28773,0,0,0,6.57545,0Zm0-13.1509v13.1509h6.57545V6.16367Z"/><path id="b6a363ed-2937-46be-83c1-8b817e01474d" data-name="Rectangle 421" class="b0ee6b30-9bc8-4519-8281-6745c2ca67a0" d="M28.08183,16.02684H71.91817V9.45139H28.08183ZM86.165,30.27365V76.3018h6.57545V30.27365Zm-14.2468,60.275H28.08183v6.57545H71.91817ZM13.835,76.3018V30.27365H7.25958V76.3018Zm14.2468,14.24681A14.24681,14.24681,0,0,1,13.835,76.3018H7.25958A20.82226,20.82226,0,0,0,28.08183,97.12406ZM86.165,76.3018a14.24681,14.24681,0,0,1-14.2468,14.24681v6.57545A20.82226,20.82226,0,0,0,92.74042,76.3018H86.165Zm-14.2468-60.275A14.24681,14.24681,0,0,1,86.165,30.27365h6.57545A20.82226,20.82226,0,0,0,71.91817,9.45139ZM28.08183,9.45139A20.82226,20.82226,0,0,0,7.25958,30.27365H13.835a14.24681,14.24681,0,0,1,14.2468-14.24681Z"/><path id="b401e523-e6a1-49a0-88d7-eaeae9bd7f55" data-name="Vector 1089" class="b0ee6b30-9bc8-4519-8281-6745c2ca67a0" d="M38.905,60.58209a3.28886,3.28886,0,0,0-4.10746,5.13762h0Zm26.74017-4.03294a3.2949,3.2949,0,0,0-4.96666-4.331ZM44.52046,69.29675l-2.05593,2.56881Zm-9.7229-3.577,7.68451,6.13708,4.10746-5.13323L38.905,60.58647Zm18.24907,5.20775,12.581-14.37831-4.94912-4.331L48.0975,66.59643Zm-10.56456.9381a7.67135,7.67135,0,0,0,10.56456-.9381l-4.94913-4.331a1.09591,1.09591,0,0,1-1.508.1359Z"/><path id="a4dbb7f1-3c0e-4afa-ba9f-f748112aaf71" data-name="Vector 2526" class="b0ee6b30-9bc8-4519-8281-6745c2ca67a0" d="M10.5473,33.56138a3.28773,3.28773,0,0,0,0,6.57545Zm78.9054,6.57545a3.28773,3.28773,0,0,0,0-6.57545Zm-78.9054,0H89.4527V33.56138H10.5473Z"/></svg>