<svg id="fe7d661e-5def-4d70-add8-2970b25cad12" data-name="Layer 1" xmlns="http://www.w3.org/2000/svg" viewBox="0 0 100 100"><defs><style>.bd89e566-2c01-44d9-acf5-a1509487907c{fill:#ff6c1a;}</style></defs><path id="b43a1fa6-9e68-4d23-8732-2e4440b72e44" data-name="Vector" class="bd89e566-2c01-44d9-acf5-a1509487907c" d="M27.34823,31.2422a3.04246,3.04246,0,0,0-3.43069,5.0256l.05559.03706ZM40.99875,44.00026l1.68755-2.53133h0Zm18.00326,0-1.68755-2.53133h0ZM76.0398,36.29269A3.04246,3.04246,0,0,0,72.66469,31.23ZM25.66068,16.53291h48.6794V10.448H25.66068Zm61.86341,13.184V70.28308H93.609V29.71692Zm-13.184,53.75017H25.66068V89.552h48.6794Zm-61.8634-13.184V29.71692H6.39175V70.28308Zm13.184,13.184a13.184,13.184,0,0,1-13.184-13.184H6.39175A19.26893,19.26893,0,0,0,25.66068,89.552Zm61.86341-13.184a13.184,13.184,0,0,1-13.184,13.184V89.552A19.26893,19.26893,0,0,0,93.609,70.28308Zm-13.184-53.75017a13.184,13.184,0,0,1,13.184,13.184H93.609A19.26893,19.26893,0,0,0,74.34008,10.448ZM25.66068,10.448A19.26893,19.26893,0,0,0,6.39175,29.71692h6.08493a13.184,13.184,0,0,1,13.184-13.184ZM23.97313,36.30486,39.3112,46.53159l3.3751-5.06265L27.34823,31.2422ZM60.68957,46.53159,76.02763,36.30486l-3.3751-5.06265L57.31446,41.46893Zm-21.37837,0a19.26891,19.26891,0,0,0,21.37837,0l-3.37511-5.06265a13.184,13.184,0,0,1-14.62816,0Z"/></svg>