<svg id="a176ca24-03ab-4cb2-8a83-7fd648c2a627" data-name="Layer 1" xmlns="http://www.w3.org/2000/svg" viewBox="0 0 100 100"><defs><style>.a4f77e14-deec-4751-ab03-54419a2cb794{fill:#ff6c1a;}</style></defs><g id="b07fce53-eb80-45c2-b59a-8a5454f47c55" data-name="Ellipse 9"><path class="a4f77e14-deec-4751-ab03-54419a2cb794" d="M86.77664,26.14488A12.92152,12.92152,0,0,1,73.85512,39.0664v5.96378a18.8853,18.8853,0,0,0,18.8853-18.8853ZM73.85512,39.0664A12.92152,12.92152,0,0,1,60.9336,26.14488H54.96982a18.88529,18.88529,0,0,0,18.8853,18.8853ZM60.9336,26.14488A12.92152,12.92152,0,0,1,73.85512,13.22336V7.25958a18.8853,18.8853,0,0,0-18.8853,18.8853ZM73.85512,13.22336A12.92152,12.92152,0,0,1,86.77664,26.14488h5.96378a18.8853,18.8853,0,0,0-18.8853-18.8853Z"/><path class="a4f77e14-deec-4751-ab03-54419a2cb794" d="M73.85512,7.25958a18.88532,18.88532,0,0,1,18.8853,18.8853H86.77664A12.92149,12.92149,0,0,0,73.85512,13.22336Zm0,0v5.96378A12.92149,12.92149,0,0,0,60.9336,26.14488H54.96982A18.88531,18.88531,0,0,1,73.85512,7.25958Zm-18.8853,18.8853H60.9336A12.92149,12.92149,0,0,0,73.85512,39.0664v5.96378A18.8853,18.8853,0,0,1,54.96982,26.14488Zm31.80682,0h5.96378a18.88531,18.88531,0,0,1-18.8853,18.8853V39.0664A12.92149,12.92149,0,0,0,86.77664,26.14488Z"/></g><path id="f2d209dd-e437-4cde-80ae-2ab814756633" data-name="Vector 26" class="a4f77e14-deec-4751-ab03-54419a2cb794" d="M59.82036,16.3285,83.67548,40.18362l4.21838-4.21838L64.03874,12.11012Z"/><path id="f8ed4722-37e7-415e-a202-958458d96cb4" data-name="Vector 105" class="a4f77e14-deec-4751-ab03-54419a2cb794" d="M26.94005,51.59034a2.98189,2.98189,0,0,0-3.57827,4.771ZM33.89779,60.536l-1.78913,2.38551Zm14.31308,0L50,62.92152h0Zm10.536-4.17464a2.98189,2.98189,0,0,0-3.57827-4.771Zm-35.3851,0,8.74688,6.56015,3.57827-4.771-8.74688-6.56016ZM50,62.92152l8.74688-6.56015-3.57827-4.771L46.42173,58.1505Zm-17.89134,0a14.90943,14.90943,0,0,0,17.89134,0l-3.57827-4.771a8.94567,8.94567,0,0,1-10.7348,0Z"/><path id="b47c62c7-b1ba-4ed3-9907-e761b50e2743" data-name="Subtract" class="a4f77e14-deec-4751-ab03-54419a2cb794" d="M76.837,49.80121V77.831A14.90945,14.90945,0,0,1,61.92756,92.74042H22.169A14.90945,14.90945,0,0,1,7.25958,77.831V46.02415A14.90945,14.90945,0,0,1,22.169,31.1147H50.51686a23.68438,23.68438,0,0,0,2.13106,5.96378H22.169a8.94567,8.94567,0,0,0-8.94567,8.94567V77.831A8.94567,8.94567,0,0,0,22.169,86.77664H61.92756A8.94567,8.94567,0,0,0,70.87323,77.831V49.80121a24.40023,24.40023,0,0,0,5.96378,0Z"/></svg>