<svg id="a87209d9-e0a6-484d-be37-1fb54326f7d3" data-name="Layer 1" xmlns="http://www.w3.org/2000/svg" viewBox="0 0 100 100"><defs><style>.b1cc65e3-0433-42f5-83f6-3f2331f59d06{fill:#ff6c1a;}</style></defs><path id="a3bffb22-45ed-478c-99d9-2f7060cedf15" data-name="Vector 2132" class="b1cc65e3-0433-42f5-83f6-3f2331f59d06" d="M69.58137,82.50026a3.28886,3.28886,0,1,0-4.10747,5.13761h0Zm26.74016-4.03295a3.2949,3.2949,0,0,0-4.96666-4.331ZM75.1968,91.21492l-2.05593,2.56881Zm-9.7229-3.577L73.15841,93.775l4.10746-5.13323-7.6845-6.13709ZM83.723,92.84563,96.304,78.46731l-4.94912-4.331L78.77384,88.5146Zm-10.56456.9381a7.67136,7.67136,0,0,0,10.56456-.9381l-4.94913-4.331a1.0959,1.0959,0,0,1-1.508.13589Z"/><path id="bfac7107-8119-4808-a225-ec5b5b6ef858" data-name="Rectangle 830" class="b1cc65e3-0433-42f5-83f6-3f2331f59d06" d="M93.82724,23.6982V20.41048A3.28772,3.28772,0,0,1,97.115,23.6982ZM97.115,58.76727a3.28773,3.28773,0,0,1-6.57545,0ZM54.37454,90.54861a3.28773,3.28773,0,1,1,0,6.57545Zm39.4527-63.56268H23.68911V20.41048H93.82724ZM9.4423,41.23273V76.3018H2.86685V41.23273ZM90.53951,58.76727V23.6982H97.115V58.76727ZM23.68911,90.54861H54.37454v6.57545H23.68911ZM9.4423,76.3018A14.24682,14.24682,0,0,0,23.68911,90.54861v6.57545A20.82226,20.82226,0,0,1,2.86685,76.3018ZM23.68911,26.98593A14.24681,14.24681,0,0,0,9.4423,41.23273H2.86685A20.82226,20.82226,0,0,1,23.68911,20.41048Z"/><path id="ad902ccd-2f64-44d2-88f4-fad7202870ac" data-name="Rectangle 831" class="b1cc65e3-0433-42f5-83f6-3f2331f59d06" d="M93.82724,20.41048a3.28773,3.28773,0,0,1,0,6.57545ZM76.29271,9.45139H49.99091V2.87594h26.3018ZM32.45638,20.41048H93.82724v6.57545H32.45638ZM49.99091,9.45139A14.24681,14.24681,0,0,0,35.7441,23.6982H29.16865A20.82226,20.82226,0,0,1,49.99091,2.87594Zm26.3018-6.57545A20.82226,20.82226,0,0,1,97.115,23.6982H90.53951A14.24681,14.24681,0,0,0,76.29271,9.45139Z"/><path id="bdda13b0-4284-4978-b27a-67ebdae95855" data-name="Rectangle 828" class="b1cc65e3-0433-42f5-83f6-3f2331f59d06" d="M6.15458,50H2.86685a3.28773,3.28773,0,0,1,3.28773-3.28772Zm0,17.53453v3.28773a3.28773,3.28773,0,0,1-3.28773-3.28773ZM9.4423,50V67.53453H2.86685V50ZM6.15458,64.24681H23.68911v6.57545H6.15458ZM23.68911,53.28772H6.15458V46.71228H23.68911Zm5.47954,5.47955a5.47954,5.47954,0,0,0-5.47954-5.47955V46.71228a12.055,12.055,0,0,1,12.055,12.055Zm-5.47954,5.47954a5.47954,5.47954,0,0,0,5.47954-5.47954H35.7441a12.055,12.055,0,0,1-12.055,12.055Z"/></svg>