<svg id="fa7760c0-6109-421b-8eb8-3adc3bda9e66" data-name="Layer 1" xmlns="http://www.w3.org/2000/svg" viewBox="0 0 100 100"><defs><style>.b549a708-5ef4-498d-976b-de35ba30693b{fill:#ff6c1a;}</style></defs><path id="b6ec8946-a2be-4c8d-84a2-4e3b6af8791c" data-name="Vector" class="b549a708-5ef4-498d-976b-de35ba30693b" d="M77.034,88.42227l2.161-2.16105h0ZM88.41819,77.038,90.57924,74.877h0Zm-5.67173-10.002a3.05906,3.05906,0,1,0-4.32617,4.32617ZM71.36222,78.42436a3.05907,3.05907,0,1,0-4.32617,4.32618Zm-59.07407-34.536A31.60022,31.60022,0,0,1,43.88837,12.28815V6.172A37.7164,37.7164,0,0,0,6.172,43.88837ZM43.88837,12.28815A31.60022,31.60022,0,0,1,75.4886,43.88837h6.11617A37.7164,37.7164,0,0,0,43.88837,6.172ZM75.4886,43.88837A31.60022,31.60022,0,0,1,43.88837,75.4886h0v6.11617a37.71639,37.71639,0,0,0,37.7164-37.7164ZM43.88837,75.4886A31.60022,31.60022,0,0,1,12.28815,43.88837H6.172a37.7164,37.7164,0,0,0,37.7164,37.7164ZM86.25714,86.25715a4.99081,4.99081,0,0,1-7.05805.00409l-.0041-.00409-4.32208,4.318a11.111,11.111,0,0,0,15.71041,0Zm0-7.06215a4.9908,4.9908,0,0,1,.00409,7.05805l-.00409.0041,4.318,4.318a11.111,11.111,0,0,0,0-15.71041Zm-7.83278-7.83278,7.83686,7.83686,4.31394-4.32617-7.8287-7.83686Zm.77472,14.89493-7.83686-7.83279-4.32617,4.3221,7.83686,7.8287Z"/></svg>