<svg id="bb7f841a-c949-4577-85b3-17ef1c14cc37" data-name="Layer 1" xmlns="http://www.w3.org/2000/svg" viewBox="0 0 100 100"><defs><style>.a582b87c-fe6e-4357-90b5-274b24736cbc{fill:#ff6c1a;}</style></defs><path id="e3af00bb-68b9-49c6-ac13-ded7145bfe0b" data-name="Vector" class="a582b87c-fe6e-4357-90b5-274b24736cbc" d="M55.14107,53.08375a3.07747,3.07747,0,0,0,6.15493,0ZM44.88285,67.44525a3.07746,3.07746,0,1,0-6.15492,0ZM61.296,53.08375A10.80807,10.80807,0,0,0,50.012,42.82553v6.15493a4.69827,4.69827,0,0,1,5.12911,4.10329ZM50.012,42.82553a10.80805,10.80805,0,0,0-11.284,10.25822h6.15492A4.69827,4.69827,0,0,1,50.012,48.98046Zm-11.284,10.25822A10.808,10.808,0,0,0,50.012,63.342V57.187a4.69827,4.69827,0,0,1-5.12911-4.10328ZM61.296,67.44525A10.80807,10.80807,0,0,0,50.012,57.187V63.342a4.69827,4.69827,0,0,1,5.12911,4.10329Zm-22.56807,0A10.808,10.808,0,0,0,50.012,77.70346V71.54853a4.69827,4.69827,0,0,1-5.12911-4.10328ZM50.012,77.70346A10.80805,10.80805,0,0,0,61.296,67.44525H55.14107A4.69826,4.69826,0,0,1,50.012,71.54853Z"/><path id="f9b74547-f0ab-4473-9b78-6d97386ba30e" data-name="Vector 2109" class="a582b87c-fe6e-4357-90b5-274b24736cbc" d="M53.08942,39.74807a3.07746,3.07746,0,1,0-6.15492,0ZM46.9345,45.903a3.07746,3.07746,0,1,0,6.15492,0Zm0-6.15493V45.903h6.15492V39.74807Z"/><path id="b5d0cab2-d7cd-4b82-b4e9-4f6d4768ec34" data-name="Vector 2110" class="a582b87c-fe6e-4357-90b5-274b24736cbc" d="M53.08942,74.626a3.07746,3.07746,0,1,0-6.15492,0ZM46.9345,80.78093a3.07746,3.07746,0,0,0,6.15492,0Zm0-6.15493v6.15493h6.15492V74.626Z"/><path id="ece7f6ce-86db-4a2a-bb75-c173456c5767" data-name="Rectangle 837" class="a582b87c-fe6e-4357-90b5-274b24736cbc" d="M80.24907,58.63549l-2.92154.97248ZM76.14579,46.32564l-2.92154.97248ZM47.23814,32.56732h5.54354V26.41239H47.23814ZM73.216,47.29812,77.31933,59.608l5.839-1.94495L79.055,45.35316ZM56.885,87.96168H43.13485V94.1166H56.885ZM22.70049,59.608l4.10329-12.30985-5.839-1.94907L16.86152,57.65891ZM43.13485,87.96168A21.54225,21.54225,0,0,1,22.70049,59.608l-5.839-1.94906a27.69718,27.69718,0,0,0,26.261,36.45769ZM77.31933,59.608A21.54226,21.54226,0,0,1,56.885,87.96168V94.1166A27.69715,27.69715,0,0,0,83.146,57.65891ZM52.78168,32.56732a21.54224,21.54224,0,0,1,20.43846,14.7308l5.839-1.945A27.69718,27.69718,0,0,0,52.78168,26.41239Zm-5.54354-6.15493a27.69719,27.69719,0,0,0-26.261,18.93666l5.839,1.945A21.54224,21.54224,0,0,1,47.23814,32.56732Z"/><path id="eb7b44f8-5e31-47cc-8a23-ac5b5c487930" data-name="Rectangle 838" class="a582b87c-fe6e-4357-90b5-274b24736cbc" d="M58.57141,29.48986v3.07746a3.07749,3.07749,0,0,0,2.31836-1.05454Zm-17.1189,0-2.31836,2.02292a3.07751,3.07751,0,0,0,2.31836,1.05454Zm7.22588-18.83819.94376-2.92974Zm2.66714,0-.94376-2.92974h0ZM64.32012,22.89588,62.00176,20.873h0ZM55.15338,9.42069,54.20962,6.495ZM35.7038,22.89588,33.38545,24.9188ZM44.87054,9.42069l-.94375,2.92974Zm13.70087,16.9917H41.45251v6.15493h17.1189ZM43.775,27.46694l-5.74871-6.594-4.64081,4.04173,5.7446,6.594Zm18.22679-6.594-5.7446,6.594L60.898,31.51278l5.7446-6.594ZM43.9473,12.35454l3.80785,1.231,1.867-5.86359-3.80785-1.231Zm8.3666,1.231,3.80785-1.231L54.20962,6.495,50.40177,7.726Zm-4.55875,0a7.427,7.427,0,0,0,4.55875,0L50.40177,7.72193a1.272,1.272,0,0,1-.77962,0ZM66.64258,24.91469A11.522,11.522,0,0,0,54.20962,6.495l1.89162,5.8595A5.36709,5.36709,0,0,1,62.00176,20.873ZM38.02626,20.873a5.3671,5.3671,0,0,1,5.90053-8.52253L45.8184,6.495A11.522,11.522,0,0,0,33.38545,24.9188Z"/></svg>