<svg id="b30ebf6b-2a64-4685-bdfd-0bb019f1a2bc" data-name="Layer 1" xmlns="http://www.w3.org/2000/svg" viewBox="0 0 100 100"><defs><style>.e7faf268-a41e-4ca3-9587-9317f9d2d6b5{fill:#ff6c1a;}.a5f72f26-7d13-4312-9844-c0008f1ab26d{fill:none;stroke:#ff6c1a;stroke-miterlimit:10;stroke-width:6.57549px;}</style></defs><path id="a9c82ea1-2b70-4551-95a8-e01158f517d2" data-name="Rectangle 579" class="e7faf268-a41e-4ca3-9587-9317f9d2d6b5" d="M89.30864,41.23242m-78.61652,0,44.32316-33.535-1.8499,2.71786ZM91.838,32.75881l1.84991-2.71787ZM44.96794,7.69744l1.8499,2.71786h0ZM8.14522,32.75881,6.33476,30.05409h0Zm81.16342,5.18587H10.69212v6.57548H89.30864ZM53.161,10.43284,89.98372,35.49421l3.69981-5.43573L56.86519,4.9971ZM43.13557,4.9971,6.33476,30.05409l3.69981,5.43573L46.8573,10.42845Zm13.72962,0a12.169,12.169,0,0,0-13.72962,0l3.69981,5.43574a5.59354,5.59354,0,0,1,6.32562,0ZM10.69212,37.94468a1.10028,1.10028,0,0,1-.73207-.23234,1.40281,1.40281,0,0,1-.43837-.69262,1.3151,1.3151,0,0,1,.51727-1.52551L6.33476,30.05409a7.92127,7.92127,0,0,0,4.35736,14.46607Zm78.61652,6.57548A7.92127,7.92127,0,0,0,93.666,30.05409l-3.6998,5.43573a1.31511,1.31511,0,0,1,.51727,1.52552,1.40281,1.40281,0,0,1-.43837.69262,1.10033,1.10033,0,0,1-.73645.23672Z"/><rect id="bddaa6f6-1fe5-4afc-a4ab-65eaeb31bbe7" data-name="Rectangle 580" class="a5f72f26-7d13-4312-9844-c0008f1ab26d" x="14.93112" y="41.23242" width="21.91829" height="35.06926"/><rect id="b49ef4c9-8a09-4a78-ba46-6414ac5cb674" data-name="Rectangle 581" class="a5f72f26-7d13-4312-9844-c0008f1ab26d" x="63.15135" y="41.23242" width="21.91829" height="35.06926"/><path id="a3c70ac1-bbea-4b92-aa39-869d861b6ace" data-name="Rectangle 582" class="e7faf268-a41e-4ca3-9587-9317f9d2d6b5" d="M13.72123,78.71269l2.94143,1.46853ZM9.33757,87.48,12.279,88.94853Zm74.00491-7.28564,4.38366,8.76731L93.609,86.02025l-4.38366-8.76732Zm3.40172,10.3542H13.25656v6.57549H86.7442ZM12.279,88.96168l4.38366-8.76731-5.88287-2.94144L6.39614,86.02025Zm5.36122-9.37226H82.36054V73.01394H17.64022Zm-.98194.605a1.09594,1.09594,0,0,1,.98194-.605V73.01394a7.67141,7.67141,0,0,0-6.86043,4.239Zm-3.40172,10.3542a1.09592,1.09592,0,0,1-.98194-1.58689L6.39614,86.02025a7.67141,7.67141,0,0,0,6.86042,11.10381Zm74.46958-1.58689a1.09592,1.09592,0,0,1-.98194,1.58689v6.57549a7.67142,7.67142,0,0,0,6.86043-11.10381ZM89.221,77.25293a7.6714,7.6714,0,0,0-6.86042-4.239v6.57548a1.09594,1.09594,0,0,1,.98195.605Z"/></svg>