<svg id="aebe2f29-3154-46e3-b9e1-7583dd6364da" data-name="Layer 1" xmlns="http://www.w3.org/2000/svg" viewBox="0 0 100 100"><defs><style>.e440498f-ef66-406f-ba1c-b108e681aa2b{fill:#ff6c1a;}</style></defs><path id="ae5204f5-850b-41f9-90d8-2c3422da0f7e" data-name="Vector" class="e440498f-ef66-406f-ba1c-b108e681aa2b" d="M15.87971,75.34049l-3.10707.764h0ZM8.99915,47.814l3.0901-.77253h0ZM40.32034,37.26608v3.18348A3.18347,3.18347,0,0,0,42.969,35.50031Zm-5.98069-8.96892L31.691,30.06293h0Zm14.47-16.49891,2.76326-1.579a3.18348,3.18348,0,0,0-2.76326-1.60448Zm16.41826,28.732-2.76326,1.579h0ZM63.89507,80.96889l1.76577,2.64866h0Zm-6.55373,4.38046-1.76577-2.64866h0ZM82.76673,29.838H74.27746v6.367h8.48927ZM62.6047,41.51072V79.71247h6.36695V41.51072ZM74.27746,91.38523h8.48927v-6.367H74.27746Zm20.162-11.67276V41.51072h-6.367V79.71247ZM82.76673,91.38523A11.67276,11.67276,0,0,0,94.43949,79.71247h-6.367a5.3058,5.3058,0,0,1-5.3058,5.3058ZM62.6047,79.71247A11.67276,11.67276,0,0,0,74.27746,91.38523v-6.367a5.3058,5.3058,0,0,1-5.3058-5.3058ZM74.27746,29.838A11.67275,11.67275,0,0,0,62.6047,41.51072h6.367a5.3058,5.3058,0,0,1,5.3058-5.3058Zm8.48927,6.367a5.3058,5.3058,0,0,1,5.3058,5.3058h6.367A11.67275,11.67275,0,0,0,82.76673,29.838ZM47.914,85.01827H32.35316v6.367H47.914ZM18.96981,74.568,12.08925,47.04149l-6.18019,1.545,6.86358,27.518ZM17.23375,40.44956H40.32034v-6.367H17.23375ZM42.969,35.50031l-5.9807-8.96892L31.691,30.06293l5.9807,8.96892Zm.1995-20.51858h5.64112v-6.367H43.1685Zm2.87786-1.60447,16.41826,28.732,5.518-3.158L51.57288,10.21925ZM62.60045,42.63555v34.806h6.367v-34.806Zm-.47116,35.68468-6.56645,4.37623,3.53154,5.2973,6.56645-4.37622Zm.47116-.88288a1.06113,1.06113,0,0,1-.47116.88288l3.53154,5.29731a7.42812,7.42812,0,0,0,3.30658-6.18019ZM12.08925,47.04149a5.30581,5.30581,0,0,1,5.1445-6.59193v-6.367A11.67275,11.67275,0,0,0,5.90906,48.58653ZM32.35316,85.01827A13.79509,13.79509,0,0,1,18.96981,74.568l-6.19717,1.53656a20.162,20.162,0,0,0,19.55929,15.2807Zm15.56084,6.367a20.16213,20.16213,0,0,0,11.18463-3.39571l-3.53154-5.29731a13.79512,13.79512,0,0,1-7.64035,2.31758ZM36.9883,26.53139a7.42812,7.42812,0,0,1,6.1802-11.54966v-6.367A13.79508,13.79508,0,0,0,31.708,30.06293ZM62.45614,42.11346a1.06108,1.06108,0,0,1,.14007.52634h6.367a7.42813,7.42813,0,0,0-.98051-3.68435Z"/></svg>