<svg id="ba865fce-aeae-4265-b1ba-1964ec735a2d" data-name="Layer 1" xmlns="http://www.w3.org/2000/svg" viewBox="0 0 100 100"><defs><style>.ad4bf9e7-1eed-4bdd-b629-9f804143c039{fill:#ff6c1a;}</style></defs><path id="bc251463-02cc-4f4f-93b2-3ebd0bb02a30" data-name="Rectangle 16" class="ad4bf9e7-1eed-4bdd-b629-9f804143c039" d="M45.87447,15.96441h8.25106V9.77612H45.87447ZM11.83888,70.62763V50H5.65059V70.62763Zm42.28665,13.408H25.24684v6.18829H54.12553ZM5.65059,70.62763A19.59625,19.59625,0,0,0,25.24684,90.22388V84.03559a13.408,13.408,0,0,1-13.408-13.408ZM88.16112,50A34.03559,34.03559,0,0,1,54.12553,84.03559v6.18829A40.22387,40.22387,0,0,0,94.34941,50ZM54.12553,15.96441A34.03559,34.03559,0,0,1,88.16112,50h6.18829A40.22387,40.22387,0,0,0,54.12553,9.77612ZM45.87447,9.77612A40.22388,40.22388,0,0,0,5.65059,50h6.18829A34.03559,34.03559,0,0,1,45.87447,15.96441Z"/><path id="e6b366e4-44ca-4f6f-aba3-e45c30a23465" data-name="Ellipse 5" class="ad4bf9e7-1eed-4bdd-b629-9f804143c039" d="M54.12553,50A4.12553,4.12553,0,1,1,50,45.87447,4.12553,4.12553,0,0,1,54.12553,50Z"/><path id="e177896f-7015-4e0b-91c1-3e986c1ef4e9" data-name="Ellipse 6" class="ad4bf9e7-1eed-4bdd-b629-9f804143c039" d="M70.62763,50a4.12553,4.12553,0,1,1-4.12552-4.12553A4.12552,4.12552,0,0,1,70.62763,50Z"/><path id="afdf054e-9649-4b34-bf82-7802c7255c24" data-name="Ellipse 7" class="ad4bf9e7-1eed-4bdd-b629-9f804143c039" d="M37.62342,50a4.12553,4.12553,0,1,1-4.12553-4.12553A4.12553,4.12553,0,0,1,37.62342,50Z"/></svg>