<svg xmlns="http://www.w3.org/2000/svg" width="68.238" height="80" viewBox="0 0 68.238 80">
    <defs>
        <style>
            .cls-1{fill:#a4c639}
        </style>
    </defs>
    <g id="android.36c44339" transform="translate(-37.134)">
        <g id="Group_284" data-name="Group 284" transform="translate(37.134)">
            <g id="Group_283" data-name="Group 283">
                <path id="Path_1074" data-name="Path 1074" class="cls-1" d="M42.108 164.715h-.2a4.782 4.782 0 0 0-4.769 4.769v20.763a4.778 4.778 0 0 0 4.761 4.773h.208a4.783 4.783 0 0 0 4.769-4.772v-20.764a4.789 4.789 0 0 0-4.769-4.769z" transform="translate(-37.134 -138.629)"/>
                <path id="Path_1075" data-name="Path 1075" class="cls-1" d="M113.085 202.31a4.388 4.388 0 0 0 4.383 4.376h4.684V217.9a4.784 4.784 0 0 0 4.769 4.776h.2a4.785 4.785 0 0 0 4.779-4.776v-11.214h6.545V217.9a4.789 4.789 0 0 0 4.776 4.776h.2a4.782 4.782 0 0 0 4.779-4.776v-11.214h4.687a4.388 4.388 0 0 0 4.38-4.376v-32.785h-44.182z" transform="translate(-101.057 -142.677)"/>
                <path id="Path_1076" data-name="Path 1076" class="cls-1" d="m145.4 6.966 3.72-5.742a.79.79 0 0 0-.236-1.094.784.784 0 0 0-1.093.232L143.934 6.3a25.5 25.5 0 0 0-19.079 0L121 .362a.793.793 0 0 0-1.332.861l3.732 5.743c-6.713 3.29-11.239 9.49-11.239 16.6 0 .437.027.868.065 1.295h44.352c.038-.427.061-.857.061-1.295-.004-7.11-4.533-13.31-11.239-16.6zm-21.286 10.282a2.13 2.13 0 1 1 2.135-2.132 2.131 2.131 0 0 1-2.135 2.132zm20.562 0a2.13 2.13 0 1 1 2.132-2.132 2.131 2.131 0 0 1-2.132 2.132z" transform="translate(-100.276)"/>
                <path id="Path_1077" data-name="Path 1077" class="cls-1" d="M411.443 164.715h-.2a4.788 4.788 0 0 0-4.776 4.769v20.763a4.786 4.786 0 0 0 4.776 4.772h.2a4.781 4.781 0 0 0 4.769-4.772v-20.763a4.785 4.785 0 0 0-4.769-4.769z" transform="translate(-347.977 -138.629)"/>
            </g>
        </g>
    </g>
</svg>
