<svg xmlns="http://www.w3.org/2000/svg" width="102.41" height="75.244" viewBox="0 0 102.41 75.244">
    <g data-name="Group 798" transform="translate(-1056.798 -288.287)">
        <path data-name="Line 51" transform="translate(1063.475 289.787)" style="fill:none;stroke:#ff6c1a;stroke-linecap:round;stroke-linejoin:round;stroke-width:3px" d="M0 0h32.784"/>
        <path data-name="Line 52" transform="translate(1119.746 289.787)" style="fill:none;stroke:#ff6c1a;stroke-linecap:round;stroke-linejoin:round;stroke-width:3px" d="M0 0h32.784"/>
        <path data-name="Line 53" transform="translate(1079.868 289.787)" style="fill:none;stroke:#ff6c1a;stroke-linecap:round;stroke-linejoin:round;stroke-width:3px" d="M0 0v15.819"/>
        <path data-name="Line 54" transform="translate(1136.138 289.787)" style="fill:none;stroke:#ff6c1a;stroke-linecap:round;stroke-linejoin:round;stroke-width:3px" d="M0 0v15.819"/>
        <path data-name="Rectangle 377" d="M6.588 0h0a6.588 6.588 0 0 1 6.588 6.588v5h0H0h0v-5A6.588 6.588 0 0 1 6.588 0z" transform="translate(1129.55 305.606)" style="fill:none;stroke:#ff6c1a;stroke-linecap:round;stroke-linejoin:round;stroke-width:3px"/>
        <path data-name="Rectangle 378" d="M6.588 0h0a6.588 6.588 0 0 1 6.588 6.588v5h0H0h0v-5A6.588 6.588 0 0 1 6.588 0z" transform="translate(1073.28 305.606)" style="fill:none;stroke:#ff6c1a;stroke-linecap:round;stroke-linejoin:round;stroke-width:3px"/>
        <path data-name="Rectangle 379" d="M5.795 0h26.99v11.589h0-26.99A5.795 5.795 0 0 1 0 5.795v0A5.795 5.795 0 0 1 5.795 0z" transform="translate(1058.298 317.195)" style="fill:none;stroke:#ff6c1a;stroke-linecap:round;stroke-linejoin:round;stroke-width:3px"/>
        <path data-name="Rectangle 380" d="M0 0h26.99a5.795 5.795 0 0 1 5.795 5.795v0a5.795 5.795 0 0 1-5.795 5.795H0h0V0h0z" transform="translate(1124.924 317.195)" style="fill:none;stroke:#ff6c1a;stroke-linecap:round;stroke-linejoin:round;stroke-width:3px"/>
        <path data-name="Rectangle 381" d="M0 0h33.842v16.921a16.921 16.921 0 0 1-16.921 16.921h0A16.921 16.921 0 0 1 0 16.921V0h0z" transform="translate(1091.082 317.195)" style="fill:none;stroke:#ff6c1a;stroke-linecap:round;stroke-linejoin:round;stroke-width:3px"/>
        <path data-name="Path 2689" d="m1135.171 440.426-17.384 15.423v17.824" transform="translate(-44.089 -111.641)" style="fill:none;stroke:#ff6c1a;stroke-linecap:round;stroke-linejoin:round;stroke-width:3px"/>
        <path data-name="Path 2690" d="m1315.66 440.426 17.384 15.423v17.824" transform="translate(-190.736 -111.641)" style="fill:none;stroke:#ff6c1a;stroke-linecap:round;stroke-linejoin:round;stroke-width:3px"/>
        <circle data-name="Ellipse 956" cx="7.094" cy="7.094" r="7.094" transform="translate(1100.908 327.022)" style="fill:none;stroke:#ff6c1a;stroke-linecap:round;stroke-linejoin:round;stroke-width:3px"/>
    </g>
</svg>
