<svg xmlns="http://www.w3.org/2000/svg" width="64.604" height="79.808" viewBox="0 0 64.604 79.808">
    <g data-name="Group 285">
        <path data-name="Path 1080" d="M44.465 4.027 69.194 4 27.705 45.467 16.892 56.22 4.59 43.9zm-.23 37.025c.321-.424.911-.215 1.36-.269l23.578.006-21.49 21.468-12.366-12.29z" transform="translate(-4.59 -4)" style="fill:#44d1fd"/>
        <path data-name="Path 1082" d="m65.36 168.122 12.327-12.312 12.366 12.29.051.054-12.414 12.3z" transform="translate(-46.959 -109.844)" style="fill:#1fbcfd"/>
        <path data-name="Path 1083" d="m106.08 208.879 12.414-12.3 21.447 21.468c-8.078.018-16.154-.006-24.229.012-.46.1-.745-.318-1.039-.578l-8.593-8.6z" transform="translate(-75.35 -138.268)" style="fill:#08589c"/>
    </g>
</svg>
