<svg id="ios.592a3ddd_1_" data-name="ios.592a3ddd (1)" xmlns="http://www.w3.org/2000/svg" width="65.991" height="80" viewBox="0 0 65.991 80">
    <defs>
        <style>
            .cls-1{fill:#070707}
        </style>
    </defs>
    <path id="Path_1072" data-name="Path 1072" class="cls-1" d="M48.57 0h.576a17.224 17.224 0 0 1-4.365 13.012c-2.6 3.056-6.156 6.019-11.911 5.569a16.709 16.709 0 0 1 4.444-12.608A19.213 19.213 0 0 1 48.57 0z"/>
    <path id="Path_1073" data-name="Path 1073" class="cls-1" d="M65.991 58.555v.159a46.844 46.844 0 0 1-6.739 12.941c-2.57 3.523-5.719 8.264-11.342 8.264-4.859 0-8.086-3.112-13.066-3.2-5.268-.085-8.164 2.6-12.981 3.278h-1.642c-3.537-.51-6.391-3.3-8.47-5.814A50.827 50.827 0 0 1 0 44.885v-3.608c.373-8.788 4.66-15.933 10.358-19.4A17.545 17.545 0 0 1 22.1 19.173a29.628 29.628 0 0 1 5.755 1.643c1.674.641 3.768 1.777 5.751 1.717a13.844 13.844 0 0 0 4.035-1.233c3.967-1.427 7.855-3.063 12.981-2.294 6.16.928 10.532 3.654 13.233 7.86-5.211 3.3-9.33 8.281-8.626 16.782.625 7.727 5.132 12.245 10.762 14.907z"/>
</svg>
