<svg xmlns="http://www.w3.org/2000/svg" width="77.618" height="79.659" viewBox="0 0 77.618 79.659">
    <g data-name="Group 800" transform="translate(-2607.179 199.627)">
        <path data-name="Path 2691" d="M2618.6-123.759a35.865 35.865 0 0 1-.608-6.575 35.889 35.889 0 0 1 23.232-33.537" transform="translate(-7.327 -26.959)" style="fill:none;stroke:#ff6c1a;stroke-linecap:round;stroke-linejoin:round;stroke-width:3px"/>
        <path data-name="Path 2692" d="M2838.858-163.443a35.849 35.849 0 0 1 6.068 2.6 35.889 35.889 0 0 1 18.393 36.417" transform="translate(-181.136 -27.295)" style="fill:none;stroke:#ff6c1a;stroke-linecap:round;stroke-linejoin:round;stroke-width:3px"/>
        <path data-name="Path 2693" d="M2722.2 121.358a35.821 35.821 0 0 1-46.046-.707" transform="translate(-53.099 -250.858)" style="fill:none;stroke:#ff6c1a;stroke-linecap:round;stroke-linejoin:round;stroke-width:3px"/>
        <circle data-name="Ellipse 957" cx="6.8" cy="6.8" r="6.8" transform="translate(2638.902 -198.128)" style="fill:none;stroke:#ff6c1a;stroke-linecap:round;stroke-linejoin:round;stroke-width:3px"/>
        <circle data-name="Ellipse 958" cx="6.8" cy="6.8" r="6.8" transform="translate(2669.697 -147.538)" style="fill:none;stroke:#ff6c1a;stroke-linecap:round;stroke-linejoin:round;stroke-width:3px"/>
        <circle data-name="Ellipse 959" cx="6.8" cy="6.8" r="6.8" transform="translate(2608.679 -147.538)" style="fill:none;stroke:#ff6c1a;stroke-linecap:round;stroke-linejoin:round;stroke-width:3px"/>
        <circle data-name="Ellipse 960" cx="18.931" cy="18.931" r="18.931" transform="translate(2627.056 -176.605)" style="fill:none;stroke:#ff6c1a;stroke-linecap:round;stroke-linejoin:round;stroke-width:3px"/>
        <path data-name="Line 55" transform="translate(2645.702 -184.528)" style="fill:none;stroke:#ff6c1a;stroke-linecap:round;stroke-linejoin:round;stroke-width:3px" d="M0 0v7.926"/>
        <path data-name="Line 56" transform="translate(2621.514 -148.513)" style="fill:none;stroke:#ff6c1a;stroke-linecap:round;stroke-linejoin:round;stroke-width:3px" d="M0 4.642 7.904 0"/>
        <path data-name="Line 57" transform="translate(2662.662 -148.513)" style="fill:none;stroke:#ff6c1a;stroke-linecap:round;stroke-linejoin:round;stroke-width:3px" d="M7.616 4.473 0 0"/>
        <g data-name="Group 799">
            <path data-name="Path 2694" d="M2747.656-18.3a12.028 12.028 0 0 1 15.4 0" transform="translate(-109.366 -139.318)" style="fill:none;stroke:#ff6c1a;stroke-linecap:round;stroke-linejoin:round;stroke-width:3px"/>
            <path data-name="Path 2695" d="M2729.489-42.376a17.5 17.5 0 0 1 23.137 0" transform="translate(-95.07 -119.128)" style="fill:none;stroke:#ff6c1a;stroke-linecap:round;stroke-linejoin:round;stroke-width:3px"/>
            <path data-name="Path 2696" d="M2765.951 5.777a6.56 6.56 0 0 1 7.6 0" transform="translate(-123.763 -159.506)" style="fill:none;stroke:#ff6c1a;stroke-linecap:round;stroke-linejoin:round;stroke-width:3px"/>
            <path data-name="Line 58" transform="translate(2645.982 -149.476)" style="fill:none;stroke:#ff6c1a;stroke-linecap:round;stroke-linejoin:round;stroke-width:3px" d="M0 0h.011"/>
        </g>
    </g>
</svg>
