<svg xmlns="http://www.w3.org/2000/svg" width="89.833" height="80" viewBox="0 0 89.833 80">
    <defs>
        <style>
            .cls-1{fill:#61dbfb}
        </style>
    </defs>
    <g id="react.13d14b3b" transform="translate(-.718)">
        <path id="Path_1078" data-name="Path 1078" class="cls-1" d="M90.55 40.009c0-5.951-7.452-11.591-18.878-15.088 2.637-11.646 1.465-20.911-3.7-23.877a8.028 8.028 0 0 0-4.1-1.025V4.1a4.24 4.24 0 0 1 2.087.476c2.49 1.428 3.571 6.867 2.728 13.861-.2 1.721-.531 3.534-.934 5.383a88.748 88.748 0 0 0-11.627-2 89.33 89.33 0 0 0-7.617-9.155c5.969-5.542 11.572-8.582 15.381-8.582V0C58.854 0 52.263 3.589 45.6 9.815 38.932 3.626 32.34.073 27.3.073v4.084c3.79 0 9.412 3.021 15.381 8.533a86.482 86.482 0 0 0-7.562 9.137 85.516 85.516 0 0 0-11.646 2.014 55.048 55.048 0 0 1-.952-5.31c-.861-6.995.2-12.433 2.673-13.88a4.075 4.075 0 0 1 2.106-.476V.092a8.164 8.164 0 0 0-4.138 1.025c-5.145 2.966-6.3 12.213-3.644 23.822-11.385 3.516-18.8 9.137-18.8 15.07C.718 45.96 8.17 51.6 19.6 55.1c-2.637 11.646-1.465 20.911 3.7 23.877A8.049 8.049 0 0 0 27.415 80c5.035 0 11.627-3.589 18.292-9.815 6.665 6.189 13.257 9.742 18.293 9.742a8.164 8.164 0 0 0 4.138-1.027c5.145-2.966 6.3-12.213 3.644-23.822 11.352-3.496 18.768-9.136 18.768-15.069zM66.71 27.8a82.11 82.11 0 0 1-2.472 7.233 85.812 85.812 0 0 0-2.4-4.395 90.745 90.745 0 0 0-2.638-4.289c2.6.385 5.111.861 7.51 1.451zm-8.387 19.5c-1.428 2.472-2.893 4.816-4.413 6.995a95.285 95.285 0 0 1-8.277.366c-2.765 0-5.53-.128-8.24-.348q-2.28-3.268-4.431-6.958-2.087-3.6-3.809-7.288a95.483 95.483 0 0 1 3.79-7.306c1.428-2.472 2.893-4.816 4.413-6.995a95.285 95.285 0 0 1 8.277-.366c2.765 0 5.53.128 8.24.348q2.28 3.268 4.431 6.958 2.087 3.6 3.809 7.288a101.816 101.816 0 0 1-3.79 7.306zm5.914-2.38a78.447 78.447 0 0 1 2.527 7.288c-2.4.586-4.926 1.08-7.544 1.465.9-1.41 1.794-2.856 2.637-4.34.843-1.469 1.63-2.952 2.381-4.416zM45.671 64.454a75.479 75.479 0 0 1-5.09-5.86c1.648.073 3.333.128 5.035.128 1.721 0 3.424-.037 5.09-.128a71.465 71.465 0 0 1-5.035 5.86zM32.047 53.669a82.722 82.722 0 0 1-7.507-1.446 82.11 82.11 0 0 1 2.472-7.233c.751 1.465 1.538 2.93 2.4 4.395s1.738 2.892 2.635 4.284zm13.532-38.1a75.478 75.478 0 0 1 5.09 5.859 113.74 113.74 0 0 0-5.035-.128c-1.721 0-3.424.037-5.09.128a71.446 71.446 0 0 1 5.035-5.864zm-13.55 10.78a98.667 98.667 0 0 0-2.637 4.34c-.842 1.465-1.63 2.93-2.38 4.395a78.447 78.447 0 0 1-2.527-7.288 89.02 89.02 0 0 1 7.544-1.447zM15.458 49.274c-6.482-2.765-10.675-6.39-10.675-9.265s4.193-6.519 10.675-9.265c1.575-.677 3.3-1.282 5.072-1.849a87.962 87.962 0 0 0 4.12 11.151 86.7 86.7 0 0 0-4.065 11.1 56.435 56.435 0 0 1-5.127-1.872zm9.851 26.166c-2.49-1.428-3.571-6.867-2.728-13.861.2-1.721.531-3.534.934-5.383a88.746 88.746 0 0 0 11.627 2 89.317 89.317 0 0 0 7.617 9.155c-5.969 5.549-11.572 8.584-15.381 8.584a4.369 4.369 0 0 1-2.069-.494zm43.433-13.952c.861 6.995-.2 12.433-2.673 13.88a4.075 4.075 0 0 1-2.106.476c-3.79 0-9.412-3.021-15.381-8.533a86.484 86.484 0 0 0 7.562-9.137 85.519 85.519 0 0 0 11.646-2.015 51.265 51.265 0 0 1 .952 5.329zm7.05-12.213c-1.575.678-3.3 1.282-5.072 1.849a87.945 87.945 0 0 0-4.12-11.152 86.7 86.7 0 0 0 4.065-11.1 57.958 57.958 0 0 1 5.145 1.868c6.482 2.765 10.675 6.39 10.675 9.265-.018 2.879-4.211 6.523-10.693 9.269z"/>
        <path id="Path_1079" data-name="Path 1079" class="cls-1" d="M45.616 48.377a8.368 8.368 0 1 0-8.368-8.368 8.368 8.368 0 0 0 8.368 8.368z"/>
    </g>
</svg>
