<svg xmlns="http://www.w3.org/2000/svg" width="130" height="77.74" viewBox="0 0 130 77.74">
    <defs>
        <style>
            .cls-2{fill:#f90;fill-rule:evenodd}
        </style>
    </defs>
    <g id="Amazon_Web_Services_Logo" transform="translate(-1.668 -1.1)">
        <path id="Path_1157" data-name="Path 1157" d="M45.36 29.334a13.082 13.082 0 0 0 .476 3.848 23.144 23.144 0 0 0 1.384 3.113 1.881 1.881 0 0 1 .3.994 1.712 1.712 0 0 1-.821 1.3L43.977 40.4a2.073 2.073 0 0 1-1.124.389 1.989 1.989 0 0 1-1.3-.605A13.376 13.376 0 0 1 40 38.154a33.473 33.473 0 0 1-1.34-2.551 15.972 15.972 0 0 1-12.712 5.967 11.847 11.847 0 0 1-8.648-3.114 11.107 11.107 0 0 1-3.2-8.3 11.13 11.13 0 0 1 3.935-8.907c2.637-2.248 6.14-3.372 10.593-3.372a34.233 34.233 0 0 1 4.583.346c1.6.216 3.243.562 4.972.951v-3.157c0-3.286-.692-5.578-2.032-6.918C34.767 7.758 32.432 7.11 29.1 7.11a19.672 19.672 0 0 0-4.67.562 34.451 34.451 0 0 0-4.67 1.47 12.406 12.406 0 0 1-1.513.562 2.652 2.652 0 0 1-.692.13c-.605 0-.908-.432-.908-1.34V6.375a2.736 2.736 0 0 1 .3-1.513 3.237 3.237 0 0 1 1.211-.908 24.892 24.892 0 0 1 5.448-1.946 26.213 26.213 0 0 1 6.745-.821c5.145 0 8.907 1.167 11.328 3.5 2.378 2.335 3.589 5.88 3.589 10.636v14.011zm-17.554 6.571a14.012 14.012 0 0 0 4.453-.778 9.635 9.635 0 0 0 4.107-2.767 6.863 6.863 0 0 0 1.47-2.767 15.522 15.522 0 0 0 .432-3.762v-1.816a36.109 36.109 0 0 0-3.978-.735 32.579 32.579 0 0 0-4.064-.259c-2.9 0-5.015.562-6.442 1.729a6.026 6.026 0 0 0-2.119 4.972 6.035 6.035 0 0 0 1.6 4.583 6 6 0 0 0 4.541 1.6zm34.719 4.67a2.414 2.414 0 0 1-1.643-.432 3.524 3.524 0 0 1-.908-1.686L49.813 5.035a7.574 7.574 0 0 1-.389-1.729.948.948 0 0 1 1.038-1.081H54.7a2.4 2.4 0 0 1 1.686.432 3.538 3.538 0 0 1 .865 1.686l7.264 28.623 6.744-28.623a3.033 3.033 0 0 1 .821-1.686 2.974 2.974 0 0 1 1.729-.432h3.459A2.6 2.6 0 0 1 79 2.657a2.913 2.913 0 0 1 .821 1.686l6.831 28.969 7.48-28.969A3.708 3.708 0 0 1 95 2.657a2.821 2.821 0 0 1 1.686-.432h4.014a.961.961 0 0 1 1.081 1.081A4.314 4.314 0 0 1 101.7 4a6.153 6.153 0 0 1-.3 1.081L90.975 38.5a3.315 3.315 0 0 1-.908 1.686 2.766 2.766 0 0 1-1.643.432h-3.719a2.6 2.6 0 0 1-1.729-.432 3.065 3.065 0 0 1-.821-1.729l-6.7-27.888-6.661 27.844a3.375 3.375 0 0 1-.821 1.729 2.68 2.68 0 0 1-1.729.432zm55.559 1.167a28.612 28.612 0 0 1-6.658-.778 19.669 19.669 0 0 1-4.972-1.729 3.115 3.115 0 0 1-1.34-1.211 3.052 3.052 0 0 1-.259-1.211v-2.205c0-.908.346-1.34.994-1.34a2.448 2.448 0 0 1 .778.13c.259.086.649.259 1.081.432a23.519 23.519 0 0 0 4.756 1.513 25.966 25.966 0 0 0 5.145.519 11.666 11.666 0 0 0 6.313-1.427 4.656 4.656 0 0 0 2.248-4.107A4.211 4.211 0 0 0 125 27.3a10.848 10.848 0 0 0-4.367-2.248l-6.269-1.946a13.188 13.188 0 0 1-6.918-4.41 10.3 10.3 0 0 1-2.162-6.269 9.622 9.622 0 0 1 1.167-4.8 11.117 11.117 0 0 1 3.113-3.545 13.723 13.723 0 0 1 4.5-2.248 18.844 18.844 0 0 1 5.448-.735 21.705 21.705 0 0 1 2.9.173c.994.13 1.9.3 2.81.476.865.216 1.686.432 2.464.692a9.436 9.436 0 0 1 1.816.778A3.739 3.739 0 0 1 130.8 4.3a2.33 2.33 0 0 1 .389 1.427v2.031c0 .908-.346 1.384-.994 1.384a4.5 4.5 0 0 1-1.643-.519 19.78 19.78 0 0 0-8.3-1.686 11.16 11.16 0 0 0-5.75 1.211A4.175 4.175 0 0 0 112.463 12a4.083 4.083 0 0 0 1.3 3.07 12.915 12.915 0 0 0 4.756 2.378l6.14 1.946c3.113.994 5.361 2.378 6.7 4.151a9.784 9.784 0 0 1 1.989 6.053 11.115 11.115 0 0 1-1.124 5.015 11.628 11.628 0 0 1-3.156 3.8 13.937 13.937 0 0 1-4.8 2.421 20.56 20.56 0 0 1-6.184.908z" transform="translate(-7.057)" style="fill:#252f3e"/>
        <g id="Group_299" data-name="Group 299" transform="translate(1.668 49.565)">
            <path id="Path_1158" data-name="Path 1158" class="cls-2" d="M119.2 129.761c-14.225 10.507-34.892 16.084-52.662 16.084a95.272 95.272 0 0 1-64.294-24.516c-1.34-1.211-.13-2.854 1.47-1.9a129.661 129.661 0 0 0 64.336 17.076 128.385 128.385 0 0 0 49.074-10.031c2.376-1.08 4.41 1.557 2.076 3.287z" transform="translate(-1.668 -116.57)"/>
            <path id="Path_1159" data-name="Path 1159" class="cls-2" d="M263.806 119.638c-1.816-2.335-12.02-1.124-16.646-.562-1.384.173-1.6-1.038-.346-1.946 8.128-5.707 21.489-4.064 23.045-2.162 1.556 1.946-.432 15.306-8.042 21.7-1.167.994-2.292.476-1.773-.821 1.73-4.276 5.578-13.918 3.762-16.209z" transform="translate(-140.352 -113.192)"/>
        </g>
    </g>
</svg>
