<svg xmlns="http://www.w3.org/2000/svg" width="111.449" height="79.926" viewBox="0 0 111.449 79.926">
    <defs>
        <style>
            .cls-1{fill:#2496ed}
        </style>
    </defs>
    <g id="Group_341" data-name="Group 341" transform="translate(450.16 1605.003)">
        <path id="Path_1144" data-name="Path 1144" class="cls-1" d="M-365.193-1445.8c-.1-.207-.166-.357-.247-.5a14.566 14.566 0 0 1-1.921-5.627 18.128 18.128 0 0 1 1.047-8.554 21.346 21.346 0 0 1 2.9-5.41c.087-.117.179-.231.3-.387a17.5 17.5 0 0 1 6.352 5.231 16.435 16.435 0 0 1 3.224 7.533c.38-.043.705-.088 1.032-.114 1.269-.1 2.54-.289 3.808-.275a18.664 18.664 0 0 1 6.626 1.15 9.564 9.564 0 0 1 3.365 2.147 11.8 11.8 0 0 1-1.284 3.094 15.578 15.578 0 0 1-10.568 7.339 21.421 21.421 0 0 1-4.736.438c-.593-.006-.6 0-.809.535a88.367 88.367 0 0 1-3.741 8.229 56.631 56.631 0 0 1-6.748 10.275 57.21 57.21 0 0 1-3.715 4.039 45.848 45.848 0 0 1-6.295 5.166 50.144 50.144 0 0 1-6.368 3.716 57.076 57.076 0 0 1-10.292 3.789 62.873 62.873 0 0 1-6.777 1.417c-1.422.216-2.858.353-4.291.481-1.25.111-2.505.19-3.76.228-1.848.056-3.7.127-5.545.071-1.825-.055-3.646-.241-5.466-.4a49.25 49.25 0 0 1-9.457-1.8 27.319 27.319 0 0 1-9.19-4.437 24.9 24.9 0 0 1-5.068-5.323 37.371 37.371 0 0 1-5.361-11.63 46.2 46.2 0 0 1-1.3-6.064c-.219-1.515-.359-3.042-.479-4.569a81.101 81.101 0 0 1-.2-4.094 3.648 3.648 0 0 1 .716-2.344 3.29 3.29 0 0 1 2.595-1.389c.314-.013.629-.005.944-.005q36.085 0 72.17-.013a20.6 20.6 0 0 0 7.524-1.452c.335-.128.652-.311 1.015-.491z" transform="translate(0 -123.315)"/>
        <path id="Path_1145" data-name="Path 1145" class="cls-1" d="M-237.546-1491.309h4.66c.84 0 1.124.277 1.127 1.13.008 1.886 0 3.772 0 5.658 0 .8-.016 1.591 0 2.385a1.1 1.1 0 0 1-1.261 1.288c-3.033-.028-6.066-.01-9.1-.013a2.158 2.158 0 0 1-.6-.055.844.844 0 0 1-.619-.714 3.81 3.81 0 0 1-.045-.606v-7.766a3.02 3.02 0 0 1 .019-.5.845.845 0 0 1 .933-.816c1.632.018 3.258.01 4.886.009z" transform="translate(-183.801 -101.055)"/>
        <path id="Path_1146" data-name="Path 1146" class="cls-1" d="M-237.559-1367.759h-4.549a3.923 3.923 0 0 1-.5-.013.721.721 0 0 1-.692-.611 3.423 3.423 0 0 1-.077-.6q-.008-3.994 0-7.988a1.885 1.885 0 0 1 .1-.651.818.818 0 0 1 .793-.583h9.542c.111 0 .223-.006.333 0a.787.787 0 0 1 .759.62 3.277 3.277 0 0 1 .087.766q.009 3.883 0 7.766v.222c-.025.779-.312 1.069-1.086 1.071-1.566.005-3.138.001-4.71.001z" transform="translate(-183.802 -201.59)"/>
        <path id="Path_1147" data-name="Path 1147" class="cls-1" d="M-113.692-1367.84c-1.535 0-3.071-.024-4.605.01-.856.019-1.214-.314-1.212-1.183 0-2.681 0-5.363.007-8.044a2.3 2.3 0 0 1 .119-.7.772.772 0 0 1 .662-.519 1.788 1.788 0 0 1 .277-.009c3.163 0 6.325.012 9.488-.012a1.007 1.007 0 0 1 1.065.96c.015.147.011.3.011.443v7.656a3.558 3.558 0 0 1-.067.714.736.736 0 0 1-.8.681c-.517.019-1.036.007-1.553.008z" transform="translate(-293.908 -201.509)"/>
        <path id="Path_1148" data-name="Path 1148" class="cls-1" d="M-113.7-1491.323c1.572 0 3.144.016 4.715-.007.768-.011 1 .256 1.091 1.007a3.906 3.906 0 0 1 .008.443v7.6a4.121 4.121 0 0 1-.01.443.951.951 0 0 1-1.061.962q-4.743.009-9.486 0a.953.953 0 0 1-1.06-.964 4.093 4.093 0 0 1-.01-.443v-7.71a3.505 3.505 0 0 1 .009-.443.88.88 0 0 1 .977-.895c1.61.022 3.219.008 4.827.007z" transform="translate(-293.904 -101.041)"/>
        <path id="Path_1149" data-name="Path 1149" class="cls-1" d="M132.13-1367.752h-4.549c-1 0-1.266-.263-1.269-1.292-.005-2.292 0-4.585 0-6.877 0-.388-.011-.777 0-1.165.029-.777.371-1.115 1.135-1.115q4.687-.005 9.374 0c.767 0 1.107.338 1.112 1.119.008 1.331 0 2.662 0 3.993v4.049a3.105 3.105 0 0 1-.022.5.827.827 0 0 1-.9.786c-.48.015-.961 0-1.442 0z" transform="translate(-512.409 -201.597)"/>
        <path id="Path_1150" data-name="Path 1150" class="cls-1" d="M9.061-1491.271h4.66c.8 0 1.075.267 1.075 1.052v8.265c0 .848-.284 1.132-1.131 1.132h-9.32c-.807 0-1.1-.295-1.1-1.108v-8.265c0-.843.24-1.075 1.1-1.077q2.355-.002 4.716.001z" transform="translate(-403.021 -101.093)"/>
        <path id="Path_1151" data-name="Path 1151" class="cls-1" d="M8.921-1594.552c-1.553 0-3.106-.03-4.658.013a.982.982 0 0 1-1.121-1.09c.029-2.754.011-5.508.013-8.262 0-.818.286-1.109 1.093-1.109h9.372c.783 0 1.082.292 1.083 1.064q.007 4.159 0 8.318c0 .787-.283 1.065-1.069 1.067-1.571.002-3.142-.001-4.713-.001z" transform="translate(-402.929)"/>
        <path id="Path_1152" data-name="Path 1152" class="cls-1" d="M8.925-1367.763c-1.571 0-3.143-.027-4.714.012a.976.976 0 0 1-1.072-1.083c.03-2.754.011-5.508.014-8.262 0-.823.284-1.115 1.087-1.116h9.372c.324 0 .662.008.853.293a1.37 1.37 0 0 1 .228.713c.015 2.809.013 5.619.008 8.428 0 .715-.3 1.014-1.007 1.016-1.594.003-3.179-.001-4.769-.001z" transform="translate(-402.928 -201.587)"/>
        <path id="Path_1153" data-name="Path 1153" class="cls-1" d="M-359.549-1367.833h-4.713c-.769 0-1.072-.289-1.074-1.07-.009-2.772 0-5.544-.008-8.316a1.023 1.023 0 0 1 1.062-1.074c3.142.025 6.284.011 9.426.012a1.91 1.91 0 0 1 .386.022.828.828 0 0 1 .675.77c.01.129.006.259.006.388v8.095c0 .129 0 .259-.005.388a.747.747 0 0 1-.764.78c-.147.013-.3.007-.443.007z" transform="translate(-75.39 -201.516)"/>
    </g>
</svg>
