<svg xmlns="http://www.w3.org/2000/svg" width="73.577" height="101.734" viewBox="0 0 73.577 101.734">
    <defs>
        <style>
            .cls-1{fill:#d33833}.cls-1,.cls-10,.cls-11,.cls-14,.cls-15,.cls-16,.cls-17,.cls-4,.cls-5,.cls-7,.cls-8{fill-rule:evenodd}.cls-14{fill:#ef3d3a}.cls-15{fill:#231f20}.cls-4{fill:#f0d6b7}.cls-5{fill:#335061}.cls-7{fill:#dcd9d8}.cls-8,.cls-9{fill:#f7e4cd}.cls-10{fill:#49728b}.cls-11,.cls-12{fill:#fff}.cls-13{fill:none;stroke:#d33833;stroke-width:2.5px}.cls-16{fill:#81b0c4}.cls-17{fill:#1d1919}
        </style>
    </defs>
    <g id="g10" transform="translate(0 311.855)">
        <g id="g3393" transform="translate(0 -311.855)">
            <path id="path22" class="cls-1" d="M74.759-236.96c0 20.156-15.975 36.5-35.681 36.5S3.4-216.8 3.4-236.96s15.975-36.5 35.68-36.5 35.681 16.34 35.681 36.5" transform="translate(-2.29 285.983)"/>
            <path id="path24" d="M3.925-223.148s-2.583-38.059 32.486-39.147l-2.447-4.078-19.03 6.389-5.434 6.253-4.76 9.107-2.719 10.6.816 7.068" transform="translate(-1.362 281.21)" style="fill:#ef3d3a"/>
            <path id="path26" d="M12.351-263.864a35.7 35.7 0 0 0-10.134 25.033A35.692 35.692 0 0 0 12.351-213.8a34.06 34.06 0 0 0 24.437 10.356A34.059 34.059 0 0 0 61.226-213.8a35.694 35.694 0 0 0 10.135-25.031 35.7 35.7 0 0 0-10.135-25.033 34.067 34.067 0 0 0-24.438-10.355 34.068 34.068 0 0 0-24.438 10.355zm-1.585 51.614A37.914 37.914 0 0 1 0-238.831a37.915 37.915 0 0 1 10.766-26.581 36.281 36.281 0 0 1 26.022-11.023 36.279 36.279 0 0 1 26.022 11.023 37.911 37.911 0 0 1 10.767 26.581A37.908 37.908 0 0 1 62.81-212.25a36.286 36.286 0 0 1-26.022 11.023 36.288 36.288 0 0 1-26.022-11.023" transform="translate(0 287.99)" style="fill:#231f20"/>
            <path id="path28" class="cls-4" d="m79.644-259.5-5.437.816-7.34.816-4.758.136-4.621-.136-3.534-1.088-3.126-3.4-2.447-6.932-.544-1.5-3.262-1.087L42.671-275l-1.359-4.486 1.5-3.942 3.534-1.223 2.854 1.36 1.36 2.99 1.631-.272.543-.679-.543-3.126-.136-3.942.816-5.437-.032-3.106 2.479-3.962 4.35-3.126 7.612-3.262 8.427 1.223 7.34 5.3 3.4 5.437 2.175 3.942.544 9.787-1.631 8.428-2.99 7.476-2.854 3.942" transform="translate(-27.835 308.725)"/>
            <path id="path30" class="cls-5" d="m65.477-141.376-19.438.816v3.262l1.631 11.418-.816.952-13.591-4.622-.952-1.631-1.359-15.359-3.126-9.243-.68-2.175 10.874-7.476 3.4-1.36 2.99 3.67 2.583 2.311 2.991.951 1.359.408 1.631 7.068 1.223 1.5 3.127-1.087-2.175 4.214 11.826 5.573-1.495.816" transform="translate(-18.29 214.116)"/>
            <path id="path32" d="m44.772-280.9 3.534-1.223 2.854 1.36 1.36 2.99 1.631-.272.408-1.631-.816-3.126.816-7.476-.68-4.078 2.447-2.854 5.3-4.214-1.5-2.039-7.476 3.67-3.126 2.447-1.767 3.806-2.719 3.67-.816 4.35.544 4.621" transform="translate(-29.8 306.199)" style="fill:#6d6b6d;fill-rule:evenodd"/>
            <path id="path34" class="cls-7" d="M56.522-292.73s2.039-5.029 10.194-7.476.408-1.767.408-1.767l-8.835 3.4-3.4 3.4-1.489 2.715 3.126-.272" transform="translate(-35.977 305.255)"/>
            <path id="path36" class="cls-7" d="M46.267-263.038s-2.854-9.515 8.02-10.874l-.408-1.631-7.479 1.767-2.175 7.068.544 4.621 1.495-.951" transform="translate(-29.8 287.389)"/>
            <path id="path38" class="cls-8" d="m63.812-202.022 1.78-1.724a1.146 1.146 0 0 1 .939 1.045c.136.952.543 9.515 6.388 14.137.533.422-4.349-.68-4.349-.68l-4.35-6.8" transform="translate(-42.995 239.014)"/>
            <path id="path40" class="cls-8" d="M140.467-214.268s.317-4.12 1.426-3.8a1.527 1.527 0 0 1 1.11 1.426s-2.695 1.743-2.536 2.377" transform="translate(-94.639 248.677)"/>
            <path id="path42" class="cls-9" d="M169.986-252.626s-2.24.473-2.447 2.447 2.447.408 2.854.272" transform="translate(-112.876 271.948)"/>
            <path id="path44" class="cls-9" d="M118.469-252.209s-2.991.408-2.991 2.31 3.4 1.767 4.35.952" transform="translate(-77.807 271.667)"/>
            <path id="path46" class="cls-8" d="M49.731-233.268s-5.165-3.126-5.709-.136-1.767 5.165.816 8.291l-1.767-.544-1.631-4.214-.543-4.078 3.126-3.263 3.534.272 2.039 1.631.136 2.039" transform="translate(-27.555 261.561)"/>
            <path id="path48" class="cls-8" d="M75.193-291.349s2.311-11.961 14-14.272c9.624-1.9 14.68.408 16.583 2.582 0 0-8.563-10.194-16.719-7.068s-14.136 8.835-14 12.5a59.732 59.732 0 0 1 .136 6.253" transform="translate(-50.57 311.079)"/>
            <path id="path50" class="cls-8" d="M163.724-283.045s-3.942-.136-4.078 3.4a2.7 2.7 0 0 0 .272 1.087s3.127-3.534 5.03-1.631" transform="translate(-107.566 292.444)"/>
            <path id="path52" class="cls-8" d="M103.082-274.891s-.679-5.425-5.3-2.271c-2.99 2.039-2.718 4.893-2.175 5.437s.4 1.639.81.887.277-3.2 1.773-3.878 3.946-1.439 4.9-.176" transform="translate(-64.185 289.143)"/>
            <path id="path54" class="cls-10" d="m44.408-163.4-12.777 5.709s5.3 21.069 2.582 27.593l-1.9-.679-.136-8.02-3.534-15.223-1.5-4.214 13.32-8.971 3.942 3.805" transform="translate(-18.29 214.396)"/>
            <path id="path56" class="cls-10" d="m82.78-119.822 1.813 2.212v8.156h-2.175s-.272-5.709-.272-6.389.272-3.126.272-3.126" transform="translate(-55.348 182.468)"/>
            <path id="path58" class="cls-10" d="m71.6-84.292-6.117.272 1.763 1.22 4.349.68" transform="translate(-44.118 158.529)"/>
            <path id="path60" class="cls-5" d="m148.4-88.741 5.029-.136 1.223 12.505-5.165.679-1.087-13.048" transform="translate(-99.986 161.617)"/>
            <path id="path62" class="cls-5" d="m152.562-145.45 7.612-.408s3.126-7.884 3.126-8.291 2.719-11.418 2.719-11.418l-6.117-6.388-1.223-1.088-3.262 3.262v12.641l-2.854 11.689" transform="translate(-102.793 218.326)"/>
            <path id="path64" class="cls-10" d="m153.153-91.376-4.757.951.679 3.806c1.767.816 4.758-1.36 4.758-1.36" transform="translate(-99.986 163.302)"/>
            <path id="path66" class="cls-10" d="m163.4-170.188 9.515 7.068.272-3.262-7.2-6.66-2.582 2.854" transform="translate(-110.093 218.326)"/>
            <path id="path68" class="cls-11" d="M89.507-61.681 86.693-73.1l-1.4-8.426-.231-6.254 12.738-.679h7.924L105-74.186l1.223 11.01-.136 2.039-10.33.816-6.253-1.359" transform="translate(-57.313 161.336)"/>
            <path id="path70" class="cls-7" d="M125.011-90.562s-.679 14.137 1.36 24.195a25.967 25.967 0 0 1-10.059 3.267l11.418-.408 1.359-.816-1.631-22.296-.408-4.758" transform="translate(-78.368 163.302)"/>
            <path id="path72" class="cls-11" d="m165.267-85.035 5.3-1.5 10.058-.544 1.5-4.621-2.719-8.02-3.126-.408-4.35 1.359-4.173 2.038-2.215-.406-1.727.678" transform="translate(-110.373 169.194)"/>
            <path id="path74" class="cls-7" d="M167.979-82.142s3.534-1.631 4.078-1.495l-1.495-7.476 1.767-.679s1.223 7.068 1.223 7.883c0 0 7.612.408 8.291.408a12.346 12.346 0 0 0 1.223-6.389l1.5 4.35.136 2.447-2.175 3.262-2.447.544-4.08-.136-1.359-1.767-4.758.679-1.5.544" transform="translate(-113.18 163.582)"/>
            <path id="path76" class="cls-12" d="m138.972-120.706-2.99-7.612-3.126-4.486s.679-1.9 1.631-1.9h3.126l2.99 1.088-.272 5.029-1.36 7.884" transform="translate(-89.515 192.496)"/>
            <path id="path78" class="cls-7" d="M139.078-123.854s-3.806-7.34-3.806-8.427c0 0 .679-1.631 1.631-1.223s2.991 1.495 2.991 1.495v-2.582l-4.622-.952-3.126.408 5.3 12.505 1.087.136" transform="translate(-89.037 193.06)"/>
            <path id="path80" class="cls-12" d="m87.362-157.8-3.766-.409-3.534-1.088v1.223l1.727 1.9 5.437 2.447" transform="translate(-53.944 209.063)"/>
            <path id="path82" class="cls-7" d="M82.971-153.456s4.214 1.767 5.573 1.36l.135 1.63-3.805-.814-2.311-1.631.408-.544" transform="translate(-55.629 205.13)"/>
            <path id="path84" class="cls-1" d="M154.257-148.845a25.827 25.827 0 0 1-6.215-.856 19.25 19.25 0 0 1 .078-2.021 4.857 4.857 0 0 1 2.129-.447 3.7 3.7 0 0 0-2.366-.267 3.785 3.785 0 0 0-.392-1.247c1.3-.463 4.358-3.5 6.08-2.492.82.478 1.169 3.208 1.233 4.535a4.628 4.628 0 0 1-.548 2.795" transform="translate(-99.377 207.098)"/>
            <path id="path86" class="cls-13" d="M154.257-148.845a25.827 25.827 0 0 1-6.215-.856 19.25 19.25 0 0 1 .078-2.021 4.857 4.857 0 0 1 2.129-.447 3.7 3.7 0 0 0-2.366-.267 3.785 3.785 0 0 0-.392-1.247c1.3-.463 4.358-3.5 6.08-2.492.82.478 1.169 3.208 1.233 4.535a4.628 4.628 0 0 1-.547 2.795z" transform="translate(-99.377 207.098)"/>
            <path id="path88" class="cls-1" d="m113.606-151.382-.02.526c-.72.473-1.883.467-2.673.865a6.946 6.946 0 0 1 2.876.727l-.051 1.318a46.935 46.935 0 0 1-4.08 3.1c-.735.4-3.314 1.432-4.1 1.25-.442-.1-.482-.652-.659-1.169a16.724 16.724 0 0 1-1.32-4.539c-.1-2.107-.309-5.637 1.961-5.2a20.281 20.281 0 0 1 5.38 1.968 5.549 5.549 0 0 0 2.682 1.161" transform="translate(-69.756 205.864)"/>
            <path id="path90" class="cls-13" d="m113.606-151.382-.02.526c-.72.473-1.883.467-2.673.865a6.946 6.946 0 0 1 2.876.727l-.051 1.318a46.935 46.935 0 0 1-4.08 3.1c-.735.4-3.314 1.432-4.1 1.25-.442-.1-.482-.652-.659-1.169a16.724 16.724 0 0 1-1.32-4.539c-.1-2.107-.309-5.637 1.961-5.2a20.281 20.281 0 0 1 5.38 1.968 5.549 5.549 0 0 0 2.686 1.154z" transform="translate(-69.756 205.864)"/>
            <path id="path92" class="cls-1" d="M137.685-143.194a7.781 7.781 0 0 1-.344-2.476c3.06-2.041 3.635 3.5.344 2.476" transform="translate(-92.524 200.19)"/>
            <path id="path94" class="cls-13" d="M137.685-143.194a7.781 7.781 0 0 1-.344-2.476c3.059-2.04 3.635 3.505.344 2.476z" transform="translate(-92.524 200.19)"/>
            <path id="path96" class="cls-14" d="M148.091-151.133s-.952-1.36-.272-1.767 1.36 0 1.767-.679 0-1.088.136-1.9.816-.952 1.5-1.088 2.583-.408 2.854.272l-.816-2.447-1.631-.544-5.165 2.99-.272 1.5v2.99" transform="translate(-98.498 209.059)"/>
            <path id="path98" class="cls-14" d="M102.959-144.959q-.245-3.182-.528-6.359c-.288-3.164.76-2.612 3.5-2.612a7.228 7.228 0 0 1 2.734.816c.741 1.514-1.24 1.178.854 2.319 1.767.964 4.889-.585 4.175-2.727-.4-.476-2.082-.148-2.685-.461l-3.186-1.652c-1.351-.7-4.474-1.723-5.914-.743-3.65 2.482.23 8.684 1.532 11.273" transform="translate(-67.639 207.37)"/>
            <path id="path100" class="cls-15" d="M104.128-272.71c-3.7-.863-5.546 1.55-6.669 4.053-1-.243-.6-1.607-.35-2.3.663-1.824 3.335-4.251 5.519-3.922.94.142 2.211 1 1.5 2.17" transform="translate(-65.23 286.962)"/>
            <path id="path102" class="cls-15" d="m169.42-255.233.176.007a38.313 38.313 0 0 0 2.618 5.117c-.707 1.648-5.357 3.106-5.286.147 1.006-.44 2.741-.09 3.633-.651-.515-1.415-1.259-2.619-1.141-4.62" transform="translate(-112.472 273.704)"/>
            <path id="path104" class="cls-15" d="M118.824-255.094c.794 1.456 1.053 2.986 2.182 4.087.508.5 1.5 1.1 1.007 2.477a3.142 3.142 0 0 1-1.435 1.192c-1.765.521-5.879.108-4.486-2.093 1.46.068 3.422.948 4.513-.112-.838-1.34-2.332-3.99-1.782-5.551" transform="translate(-78.03 273.611)"/>
            <path id="path106" class="cls-15" d="M150.061-237.328c-2.658 1.707-5.622 3.564-9.977 3.133a2.953 2.953 0 0 1-.381-3.8c.471.809.175 2.3 1.486 2.521 2.471.423 5.347-1.512 7.125-2.188 1.1-1.858-.1-2.542-1.088-3.738-2.033-2.45-4.76-5.487-4.66-9.156.822-.6.893.909 1.01 1.183 1.061 2.484 3.733 5.661 5.682 7.787.479.524 1.267 1.026 1.355 1.372.253 1.007-.658 2.213-.552 2.883" transform="translate(-93.776 270.644)"/>
            <path id="path108" class="cls-15" d="M54.422-224.945c-.833-.475-1.031-2.57-2.009-2.629-1.4-.085-1.143 2.717-1.137 4.355-.962-.873-1.131-3.563-.424-4.944-.806-.4-1.165.436-1.612.73.574-4.172 6.1-1.935 5.183 2.488" transform="translate(-33.176 256.464)"/>
            <path id="path110" class="cls-15" d="M163.9-204.4c-1.237 2.355-2.987 4.948-6.618 5.024a8.964 8.964 0 0 1 0-2.376c2.775-.267 4.489-1.679 6.614-2.648" transform="translate(-105.919 239.455)"/>
            <path id="path112" class="cls-15" d="M124.408-199.721c2.316 1.218 6.571 1.349 9.718 1.256a11.02 11.02 0 0 1 .171 2.382c-4.046.2-8.829-.8-9.89-3.639" transform="translate(-83.824 236.302)"/>
            <path id="path114" class="cls-15" d="M121.028-192.761c1.6 4.02 7.1 3.557 11.745 3.447a2.482 2.482 0 0 1-1.2 1.362c-1.487.605-5.589 1.064-7.654-.032-1.309-.7-2.151-2.269-2.868-3.191-.346-.445-2.072-1.583-.026-1.585" transform="translate(-80.884 231.612)"/>
            <path id="path116" class="cls-16" d="M159.746-128.553a81.975 81.975 0 0 1-5.906 9.362c.935-2.748 1.335-7.347 1.476-10.854a3.42 3.42 0 0 1 4.43 1.492" transform="translate(-103.654 189.58)"/>
            <path id="path118" class="cls-15" d="M191.3-89.326c-2.1.421-3.582 2.466-5.634 2.335 1.128-1.59 3.1-2.26 5.634-2.335" transform="translate(-125.099 161.92)"/>
            <path id="path120" class="cls-15" d="M194.492-80.277a30.827 30.827 0 0 1-5.468.316c.823-1.258 4-.824 5.468-.316" transform="translate(-127.36 156.163)"/>
            <path id="path122" class="cls-15" d="M194.9-72.12c-1.927.042-4.322 0-6.154-.15 1.083-1.164 4.9-.432 6.154.15" transform="translate(-127.17 150.844)"/>
            <path id="path124" class="cls-7" d="M156.042-46.775c.276 2.42 1.236 4.872 1.116 7.523a7.879 7.879 0 0 1-3.105.672c-.1-2.253-.4-5.7-.312-7.844.7.046 1.738-.5 2.3-.351" transform="translate(-103.576 133.268)"/>
            <path id="path126" class="cls-4" d="M135.979-156.061c-.968.632-1.792 1.42-2.721 2.095a5.993 5.993 0 0 1-4.7-1.326c.025-.1.177-.053.183-.169 2.206.983 5.01-.4 7.238-.6" transform="translate(-86.62 206.885)"/>
            <path id="path128" class="cls-16" d="M115.806-121.186c.606-2.626 2.981-3.987 5.138-5.433 2.226 2.825 3.58 6.458 5.071 9.964a51.963 51.963 0 0 1-10.208-4.531" transform="translate(-78.027 187.047)"/>
            <path id="path130" class="cls-15" d="M65.981-225.012c-.09 2.147.211 5.591.312 7.844a7.878 7.878 0 0 0 3.105-.672c.12-2.651-.839-5.1-1.116-7.523-.564-.151-1.6.4-2.3.351zm-22.23-12.212a112.247 112.247 0 0 0 4.806 23.593 31.269 31.269 0 0 0 17.147.311c-.9-4.325-.507-9.591-1.034-14.207-.4-3.469-.195-6.96-.738-10.5-5.945-1.237-14.347-.289-20.181.8zm21.587-.748c-.05 3.717.166 7.383.45 11.1 1.427-.214 2.4-.357 3.722-.648-.431-3.583-.378-7.614-1.255-10.783a8.843 8.843 0 0 0-2.917.327zm7.24-.6a8.893 8.893 0 0 0-2.113.007c.3 3.03 1.042 6.373 1.3 9.553a8.849 8.849 0 0 0 2.4-.61c.045-2.792-.244-6.638-1.589-8.95zm10.963 10.016c2.122-.515 3.457-3.115 2.863-5.785-.4-1.794-1.108-5.173-1.867-6.321-.561-.849-2.083-1.961-3.3-1.183-1.976 1.265-5.457 1.633-6.9 3.164a51.06 51.06 0 0 1 1.245 8.759c2.469.154 5.506-.679 7.559.2-1.433.464-3.293.468-4.532 1.145 1.012.489 3.382.39 4.927.015zM63.8-241.463c-1.491-3.506-2.845-7.139-5.071-9.964-2.157 1.446-4.532 2.807-5.138 5.433a51.961 51.961 0 0 0 10.209 4.531zm3.675-10.857c-.141 3.506-.541 8.106-1.476 10.854a81.975 81.975 0 0 0 5.906-9.362 3.42 3.42 0 0 0-4.427-1.492zm-4.166-1.48c-.845-.091-1.561.971-2.66.512-.252.278-.48.579-.737.851 2.425 2.923 3.528 7.07 5.4 10.505 1.005-3.3.889-6.915 1.111-10.516-1.377.088-2.143-1.252-3.111-1.352zm-2.679-3.535a7.781 7.781 0 0 0 .344 2.476c3.294 1.029 2.72-4.517-.341-2.476zm-3.649-1.2A20.28 20.28 0 0 0 51.6-260.5c-2.27-.434-2.058 3.1-1.961 5.2a16.723 16.723 0 0 0 1.32 4.539c.177.517.217 1.066.659 1.169.782.182 3.361-.849 4.1-1.25a46.937 46.937 0 0 0 4.08-3.1l.051-1.318a6.945 6.945 0 0 0-2.876-.727c.79-.4 1.953-.392 2.673-.865l.02-.526a5.549 5.549 0 0 1-2.682-1.155zm-13.544-2.46c-1.177 1.195 3.3 2.823 4.726 2.911-.008-.756.431-1.469.342-2.011-1.689-.296-3.914-.1-5.064-.898zm14.5.561c-.006.117-.158.074-.183.169a5.993 5.993 0 0 0 4.7 1.326c.929-.674 1.753-1.463 2.721-2.095-2.227.201-5.031 1.585-7.237.602zm13.307 4.034c-.064-1.327-.412-4.057-1.233-4.535-1.722-1.005-4.783 2.03-6.08 2.492a3.785 3.785 0 0 1 .392 1.247 3.7 3.7 0 0 1 2.366.267 4.857 4.857 0 0 0-2.129.446 19.249 19.249 0 0 0-.078 2.021 25.827 25.827 0 0 0 6.215.856 4.628 4.628 0 0 0 .547-2.794zm-29.785-3.44c-.37-.263-2.87-3.516-3.212-3.381-4.524 1.784-8.754 4.869-12.534 7.786 3.6 7.733 5.059 17.207 5.316 26.339 4.128 1.931 7.755 4.714 13.357 5.005-.648-4.587-1.24-8.679-1.608-13-1.408-.593-3.427.027-4.744-.184-.011-1.587 2.012-.7 2.18-1.763.127-.807-1.113-.869-.709-2.14 1.03.374 1.571 1.2 2.669 1.512 1-2.2-.014-6.08.131-7.915.027-.345.172-1.909.944-1.634.683.243-.039 4.16.036 5.9.068 1.6-.193 3.148.455 4.153a154.693 154.693 0 0 1 16.772-1.374 40.581 40.581 0 0 1-4.5-2.022c-.91-.513-3.778-1.58-4.04-2.444-.419-1.377 1.1-2.111 1.359-3.291-2.733 1.49-3.266-1.428-3.912-3.5a27.176 27.176 0 0 1-1.063-4.352 47.094 47.094 0 0 1-6.9-3.7zm27.394-2.988c3.769-1.828 4.448 6.831 2.971 9.62.228.832 1.014 1.15 1.334 1.9-2.1 3.768-4.439 7.285-6.586 11.008 1.6-.994 3.877-.178 5.755-.922.687-.272 1.184-1.844 1.7-3.1a67.446 67.446 0 0 0 3.6-11.124 14.075 14.075 0 0 0 .47-3.061c-.164-1.2-1.791-2.088-2.618-2.829-1.524-1.369-2.484-2.574-4.074-3.855-.645.952-2.028 1.591-2.556 2.365zM32.839-296.25c-1.8 1.976-1.42 5.679-1.2 8.313 3.246-2.042 7.555.161 7.514 3.635 1.55-.041.579-1.936.3-3.156-.916-3.986 1.544-8.317.112-11.963a9.851 9.851 0 0 0-6.722 3.171zm12.851-11.469c-4.066 1.152-9.277 4.107-10.947 7.759 1.294-.188 2.192-.84 3.468-.921a8.528 8.528 0 0 0 1.669.064c1.1-.274 2.037-2.751 2.87-3.672.812-.9 1.789-1.284 2.457-2.1.429-.207 1.064-.193 1.088-.838-.186-.204-.382-.356-.605-.292zm21.165 1.084c-4.22-2.381-11.363-4.172-15.852-1.934-3.622 1.806-8.518 4.794-10.188 8.581 1.559 3.654-.462 7-.591 10.712-.069 1.974.929 3.7 1.006 5.846-.534.88-2.164.989-3.293.928-.38-1.9-1.045-4.038-3-4.252a4.544 4.544 0 0 0-4.921 4.385c-.149 2.817 2.164 7.487 5.442 7.163 1.266-.125 1.577-1.395 2.957-1.382.748 1.492-1.154 1.961-1.349 3.028a8.572 8.572 0 0 0 .279 1.858 25.36 25.36 0 0 0 3.229 7.517c1.658 2.376 4.916 2.734 8.421 2.967.626-1.349 2.932-1.238 4.435-.885-1.8-.713-3.475-2.442-4.862-3.973-1.594-1.756-3.208-3.639-3.29-5.934 3.012 4.178 5.5 7.827 10.976 9.665 4.144 1.39 8.983-.637 12.167-2.873a13.983 13.983 0 0 0 3.049-3.754c3.514-5.054 5.153-12.269 4.793-19.261-.148-2.884-.142-5.758-1.11-7.7-1.011-2.029-4.432-3.844-6.434-2.009-.371-1.973 1.665-3.193 4.057-2.483-1.705-2.2-3.5-4.845-5.919-6.213zm7.862 65.068c3.3-1.639 9.459-4.413 11.527.006A37.466 37.466 0 0 1 88.3-235.5c.558 2.372-.605 7.358-3.043 8.153a14.469 14.469 0 0 1-7.26.139 3.956 3.956 0 0 1-.883-1.158 10.017 10.017 0 0 0-5.05.861c.139 1.37-.788 1.59-1.656 1.872-.644 2.553 1.288 5.887.826 8.215-.33 1.659-2.37 1.915-3.87 2.225a12.741 12.741 0 0 0 .168 2.471c-.343 1.264-1.881 1.983-3.338 2.159-4.8.577-12.076.836-16.688-.823-1.287-3.157-2.3-7-3.373-10.6-4.5.48-8.136-1.941-11.566-3.527-1.187-.551-2.83-.854-3.274-1.8-.43-.915-.254-2.669-.361-4.326a65.729 65.729 0 0 0-1.622-12.646c-.5-1.944-1.376-3.66-1.986-5.533a39.919 39.919 0 0 1-1.806-5.613c-.381-2.566 2.035-2.709 3.58-3.821 2.389-1.72 4.263-2.671 6.85-4.223.766-.46 3.077-1.623 3.339-2.159.522-1.062-.9-2.56-1.276-3.393a10.2 10.2 0 0 1-1-3.734 7.2 7.2 0 0 1-4.811-3.089c-1.644-2.41-2.784-6.869-1.361-10.26.112-.267.668-.792.75-1.2.162-.808-.3-1.882-.334-2.741-.149-4.408.746-8.206 3.713-9.535 1.2-4.8 5.516-6.395 9.579-8.78a30.125 30.125 0 0 1 4.921-2.1c6.2-2.282 15.717-1.853 20.864 2.04 2.182 1.651 5.671 5.136 6.919 7.659 3.3 6.662 3.062 17.8.756 25.9a26.068 26.068 0 0 1-1.387 3.994c-.438.913-1.8 2.739-1.632 3.544.17.833 3.1 3.058 3.729 3.664 1.132 1.092 3.281 2.54 3.456 3.918.187 1.466-.646 3.471-1.068 4.886-1.411 4.721-2.788 9.085-4.387 13.293" transform="translate(-15.816 311.855)"/>
            <path id="path132" class="cls-8" d="M112.923-197.22c.179-.238 1.162-.6 2.539.063 0 0-1.631.272-1.5 2.991l-.68-.136s-.7-2.466-.364-2.918" transform="translate(-76.023 234.829)"/>
            <path id="path134" class="cls-17" d="M146.558-126.462a.748.748 0 0 1-.748.747.748.748 0 0 1-.747-.747.748.748 0 0 1 .747-.748.748.748 0 0 1 .748.748" transform="translate(-97.74 187.445)"/>
            <path id="path136" class="cls-17" d="M148.849-115.837a.748.748 0 0 1-.748.747.748.748 0 0 1-.747-.747.748.748 0 0 1 .747-.748.748.748 0 0 1 .748.748" transform="translate(-99.284 180.286)"/>
        </g>
    </g>
</svg>
