<svg xmlns="http://www.w3.org/2000/svg" width="104.475" height="101.735" viewBox="0 0 104.475 101.735">
    <defs>
        <style>
            .cls-2{fill:#fff}
        </style>
    </defs>
    <g id="kubernetes-seeklogo.com" transform="translate(-.531 -.165)">
        <path id="Path_1154" data-name="Path 1154" d="M36.264 102.426a7.968 7.968 0 0 1-6.282-3.04L6.338 70a7.931 7.931 0 0 1-1.554-6.89l8.444-36.681a7.992 7.992 0 0 1 4.391-5.472L51.8 4.609a8.016 8.016 0 0 1 7.026 0L93.009 20.89a7.992 7.992 0 0 1 4.391 5.472l8.444 36.681a8.149 8.149 0 0 1-1.553 6.891L80.646 99.319a8.178 8.178 0 0 1-6.282 3.04l-38.1.067z" transform="translate(-2.376 -2.147)" style="fill:#326de6"/>
        <path id="Path_1155" data-name="Path 1155" class="cls-2" d="M52.87 3.34a6.608 6.608 0 0 1 2.77.608l34.182 16.28a6.56 6.56 0 0 1 3.513 4.391l8.444 36.681a6.317 6.317 0 0 1-1.279 5.54L76.852 96.226a6.437 6.437 0 0 1-5.066 2.432h-37.9a6.436 6.436 0 0 1-5.066-2.432L5.178 66.84a6.763 6.763 0 0 1-1.284-5.54l8.444-36.681a6.451 6.451 0 0 1 3.513-4.391L50.033 3.881a8.136 8.136 0 0 1 2.837-.54zm0-3.175a10.223 10.223 0 0 0-4.188.946L14.5 17.459a9.567 9.567 0 0 0-5.269 6.553L.787 60.693a9.578 9.578 0 0 0 1.891 8.241L26.322 98.32a9.543 9.543 0 0 0 7.5 3.58h37.9a9.543 9.543 0 0 0 7.5-3.58l23.638-29.386a9.529 9.529 0 0 0 1.891-8.241l-8.444-36.682a9.567 9.567 0 0 0-5.269-6.553L56.991 1.111A9.683 9.683 0 0 0 52.87.165z"/>
        <path id="Path_1156" data-name="Path 1156" class="cls-2" d="M111.062 80.943h-.067c-.067 0-.135 0-.135-.067-.135 0-.27-.067-.405-.067a9.239 9.239 0 0 0-1.283-.135 2.523 2.523 0 0 1-.676-.068h-.067A17.822 17.822 0 0 1 104.78 80a1.318 1.318 0 0 1-.743-.743c0-.067-.067-.067-.067-.135l-.878-.27a26.719 26.719 0 0 0-.473-9.525 27.84 27.84 0 0 0-3.783-8.849l.676-.608v-.135a1.528 1.528 0 0 1 .337-1.013 19.712 19.712 0 0 1 3.04-2.094c.2-.135.405-.2.608-.338a10.168 10.168 0 0 0 1.149-.676c.067-.068.2-.135.338-.27.067-.068.135-.068.135-.135a2.256 2.256 0 0 0 .473-3.04 1.922 1.922 0 0 0-1.554-.743 2.51 2.51 0 0 0-1.486.54l-.135.135c-.135.068-.2.2-.338.27a11.158 11.158 0 0 0-.878.946 3.144 3.144 0 0 1-.473.473 17.192 17.192 0 0 1-2.7 2.432 1.089 1.089 0 0 1-.608.2.856.856 0 0 1-.405-.068h-.135l-.811.54a32.813 32.813 0 0 0-2.769-2.566 26.979 26.979 0 0 0-14.119-5.607l-.067-.878-.135-.135a1.412 1.412 0 0 1-.541-.878 23.732 23.732 0 0 1 .2-3.648v-.068a2.4 2.4 0 0 1 .135-.676c.067-.405.135-.811.2-1.284v-.608a2.061 2.061 0 0 0-3.581-1.554 2.14 2.14 0 0 0-.608 1.554v.54a3.937 3.937 0 0 0 .2 1.284c.067.2.067.405.135.676v.068a17.443 17.443 0 0 1 .2 3.648 1.412 1.412 0 0 1-.54.878l-.135.135-.067.878a33.935 33.935 0 0 0-3.648.54 26.042 26.042 0 0 0-13.369 7.566l-.676-.473h-.134c-.135 0-.27.068-.405.068a1.089 1.089 0 0 1-.608-.2 17.914 17.914 0 0 1-2.7-2.5 3.12 3.12 0 0 0-.473-.473 11.227 11.227 0 0 0-.878-.946c-.068-.068-.2-.135-.338-.27-.068-.068-.135-.068-.135-.135a2.361 2.361 0 0 0-1.486-.54 1.922 1.922 0 0 0-1.554.743 2.256 2.256 0 0 0 .473 3.04c.068 0 .068.068.135.068.135.068.2.2.338.27a10.157 10.157 0 0 0 1.148.676 2.738 2.738 0 0 1 .608.338 19.706 19.706 0 0 1 3.04 2.094 1.241 1.241 0 0 1 .338 1.013v.135l.676.608a2.371 2.371 0 0 0-.338.54A26.31 26.31 0 0 0 50.8 78.647l-.878.27c0 .068-.068.068-.068.135a1.571 1.571 0 0 1-.743.743 17.047 17.047 0 0 1-3.648.608H45.4a2.3 2.3 0 0 0-.676.067 9.24 9.24 0 0 0-1.284.135c-.135 0-.27.068-.405.068a.248.248 0 0 0-.2.067 2.215 2.215 0 0 0-1.756 2.5 2.082 2.082 0 0 0 2.162 1.553 1.489 1.489 0 0 0 .54-.067c.068 0 .135 0 .135-.067.135 0 .27-.067.405-.067a6.507 6.507 0 0 0 1.216-.473c.2-.067.405-.2.608-.27h.068a16.589 16.589 0 0 1 3.513-1.013h.135a1.5 1.5 0 0 1 .878.338c.068 0 .068.067.135.067l.946-.135a26.719 26.719 0 0 0 8.849 12.7 27.364 27.364 0 0 0 2.9 1.959l-.405.878c0 .068.068.068.068.135a1.386 1.386 0 0 1 .135 1.081 19.043 19.043 0 0 1-1.756 3.175v.067c-.135.2-.27.338-.405.54-.27.338-.473.676-.743 1.081a1.468 1.468 0 0 0-.2.338.236.236 0 0 1-.068.135 2.137 2.137 0 0 0 .878 2.9 1.8 1.8 0 0 0 .811.2 2.429 2.429 0 0 0 2.027-1.284.236.236 0 0 1 .068-.135 1.481 1.481 0 0 1 .2-.338 12.782 12.782 0 0 0 .405-1.216l.2-.608a15.887 15.887 0 0 1 1.419-3.378 1.738 1.738 0 0 1 .878-.608c.067 0 .067 0 .135-.067l.473-.878a26.391 26.391 0 0 0 9.457 1.756 24.521 24.521 0 0 0 5.877-.675 30.057 30.057 0 0 0 3.513-1.014l.405.743c.067 0 .067 0 .135.067a1.252 1.252 0 0 1 .878.608 23.132 23.132 0 0 1 1.418 3.378v.067l.2.608a8.513 8.513 0 0 0 .405 1.216c.067.135.135.2.2.338a.235.235 0 0 0 .068.135 2.3 2.3 0 0 0 2.026 1.284 1.8 1.8 0 0 0 .811-.2 2.014 2.014 0 0 0 1.014-1.216 2.443 2.443 0 0 0-.135-1.689c0-.067-.067-.067-.067-.135a1.47 1.47 0 0 0-.2-.338 6.129 6.129 0 0 0-.743-1.081c-.135-.2-.27-.337-.405-.54v-.067a15.159 15.159 0 0 1-1.746-3.17 1.883 1.883 0 0 1 .067-1.081c0-.067.067-.067.067-.135l-.338-.81a26.8 26.8 0 0 0 11.754-14.794l.811.135c.068 0 .068-.068.135-.068a1.717 1.717 0 0 1 .878-.337h.135a16.6 16.6 0 0 1 3.513 1.013h.067c.2.067.405.2.608.27a6.537 6.537 0 0 0 1.216.473c.135 0 .27.067.405.067a.248.248 0 0 1 .2.067 1.49 1.49 0 0 0 .541.067 2.274 2.274 0 0 0 2.162-1.553 2.6 2.6 0 0 0-1.959-2.23zm-31.277-3.31-2.973 1.419-2.972-1.419-.74-3.174 2.026-2.567h3.31l2.027 2.567-.675 3.175zm17.631-7.025a21.308 21.308 0 0 1 .473 6.823l-10.335-2.972A1.831 1.831 0 0 1 86.27 72.3a1.61 1.61 0 0 1 .405-.743l8.175-7.367a21.662 21.662 0 0 1 2.567 6.418zm-5.81-10.471-8.848 6.283a1.8 1.8 0 0 1-2.365-.405 1.5 1.5 0 0 1-.338-.743l-.607-11.012a20.5 20.5 0 0 1 12.16 5.877zM72.017 54.6c.743-.135 1.418-.27 2.162-.405L73.57 65a1.849 1.849 0 0 1-1.824 1.756 1.607 1.607 0 0 1-.811-.2l-8.984-6.418A20.608 20.608 0 0 1 72.017 54.6zm-13.308 9.59 8.039 7.161a1.8 1.8 0 0 1 .2 2.5 1.346 1.346 0 0 1-.811.541l-10.471 3.04a21.747 21.747 0 0 1 3.04-13.241zM56.885 82.5l10.741-1.824a1.821 1.821 0 0 1 1.891 1.418 1.932 1.932 0 0 1-.067 1.081L65.329 93.1a21.292 21.292 0 0 1-8.444-10.6zm24.657 13.44a22.06 22.06 0 0 1-4.729.54 22.9 22.9 0 0 1-6.823-1.08l5.337-9.66a1.773 1.773 0 0 1 2.162-.473 2.876 2.876 0 0 1 .811.743l5.2 9.39c-.608.2-1.283.338-1.959.54zm13.173-9.39a21.441 21.441 0 0 1-6.485 6.55l-4.256-10.2a1.818 1.818 0 0 1 .946-2.094 2.158 2.158 0 0 1 .946-.2l10.808 1.824a13.6 13.6 0 0 1-1.959 4.121z" transform="translate(-23.942 -22.547)"/>
    </g>
</svg>
