<svg xmlns="http://www.w3.org/2000/svg" width="106.608" height="82.574" viewBox="0 0 106.608 82.574">
    <path d="M29.9 74.656c13.7-2.42 25.009-4.422 25.139-4.449l.236-.05-12.927-15.381c-7.112-8.46-12.931-15.414-12.931-15.454 0-.076 13.352-36.845 13.427-36.976.026-.046 9.113 15.644 22.028 38.029 12.091 20.957 22.06 38.235 22.152 38.4l.168.294-41.1-.005L5 79.056l24.9-4.4zm-49.319-4.69c0-.022 6.093-10.6 13.54-23.5L7.665 23 23.444 9.755C32.122 2.472 39.247-3.5 39.275-3.507a2.775 2.775 0 0 1-.254.639L21.887 33.883 5.059 69.975l-12.237.015c-6.73.008-12.237 0-12.237-.024z" transform="translate(19.415 3.507)" style="fill:#0089d6"/>
</svg>
