<svg id="ab62a19d-400b-4cfd-a569-f95f1c7252c0" data-name="Layer 1" xmlns="http://www.w3.org/2000/svg" viewBox="0 0 104 104"><defs><style>.fd037e45-0827-43cc-8a1b-449d13c219e1{fill:#ff6c1a;}</style></defs><path id="bdc74dcb-9a92-4b2d-9d2a-8497ca87bd5e" data-name="Vector" class="fd037e45-0827-43cc-8a1b-449d13c219e1" d="M25.35234,26.46266a3.331,3.331,0,0,0,0,6.66192Zm35.53021,6.66192a3.331,3.331,0,0,0,0-6.66192ZM25.35234,48.669a3.331,3.331,0,0,0,0,6.66192ZM60.88255,55.331a3.331,3.331,0,0,0,0-6.66192ZM25.35234,70.87542a3.331,3.331,0,0,0,0,6.66192Zm17.76511,6.66192a3.331,3.331,0,1,0,0-6.66192ZM20.91107,10.9182H65.32383V4.25628H20.91107ZM87.53021,93.0818H20.91107v6.66192H87.53021Zm-76.612-9.99287V20.91107H4.25628V83.08893ZM78.64766,37.56585h8.88255V30.90394H78.64766Zm14.43414,5.5516V87.53021h6.66192V43.11745ZM81.97861,87.53021V34.2349H75.3167V87.53021Zm5.5516,5.55159a5.5516,5.5516,0,0,1-5.5516-5.55159H75.3167A12.21351,12.21351,0,0,0,87.53021,99.74372Zm5.55159-5.55159a5.55159,5.55159,0,0,1-5.55159,5.55159v6.66192A12.21352,12.21352,0,0,0,99.74372,87.53021ZM75.3167,20.91107V34.2349h6.66191V20.91107ZM20.91107,93.0818a9.99287,9.99287,0,0,1-9.99287-9.99287H4.25628A16.6548,16.6548,0,0,0,20.91107,99.74372h0ZM65.32383,10.9182a9.99287,9.99287,0,0,1,9.99287,9.99287h6.66191A16.65479,16.65479,0,0,0,65.32383,4.25628ZM87.53021,37.56585a5.5516,5.5516,0,0,1,5.55159,5.5516h6.66192A12.21351,12.21351,0,0,0,87.53021,30.90394ZM20.91107,4.25628A16.6548,16.6548,0,0,0,4.25628,20.91107H10.9182a9.99287,9.99287,0,0,1,9.99287-9.99287Zm4.44127,28.8683H60.88255V26.46266H25.35234Zm0,22.20638H60.88255V48.669H25.35234Zm0,22.20638H43.11745V70.87542H25.35234Z"/></svg>