<svg id="f2d3d4db-f3b2-4f07-abfa-46c486bf4391" data-name="Layer 1" xmlns="http://www.w3.org/2000/svg" viewBox="0 0 104 104"><defs><style>.e5e6b523-6875-4b33-8c21-d8417d77478a{fill:#ff6c1a;}</style></defs><path id="a2d17b12-155d-4c0e-a90e-b1caa95b54b7" data-name="Vector" class="e5e6b523-6875-4b33-8c21-d8417d77478a" d="M96.32045,64.09287a3.4763,3.4763,0,0,0,4.06031-5.64087ZM84.7328,51.46234l-2.03016,2.82275h0ZM61.49724,52.72771l2.31753,2.58173h0ZM42.49813,69.81254l2.31753,2.58173h0ZM19.26257,71.07791l2.03016-2.82275h0ZM7.67492,58.44737a3.4763,3.4763,0,0,0-4.06031,5.64087ZM24.18964,9.12569H79.81036V2.1731H24.18964Zm70.68467,15.064V79.81036h6.95259V24.18964ZM79.81036,94.87431H24.18964v6.95259H79.81036ZM9.12569,79.81036V24.18964H2.1731V79.81036Zm15.064,15.06395A15.064,15.064,0,0,1,9.12569,79.81036H2.1731A22.01654,22.01654,0,0,0,24.18964,101.8269ZM94.87431,79.81036A15.064,15.064,0,0,1,79.81036,94.87431v6.95259A22.01654,22.01654,0,0,0,101.8269,79.81036ZM79.81036,9.12569a15.064,15.064,0,0,1,15.06395,15.064h6.95259A22.01654,22.01654,0,0,0,79.81036,2.1731ZM24.18964,2.1731A22.01654,22.01654,0,0,0,2.1731,24.18964H9.12569a15.064,15.064,0,0,1,15.064-15.06395Zm76.19112,56.27427L86.75832,48.63958,82.698,54.28045l13.62244,9.80779Zm-41.19642-8.306L40.1806,67.23081l4.63506,5.16809L63.8194,55.31407ZM21.302,68.25516,7.67955,58.44737l-4.06031,5.6455,13.62244,9.80779Zm18.8786-1.02435a15.06394,15.06394,0,0,1-18.8786,1.029l-4.06032,5.64087a22.01653,22.01653,0,0,0,27.574-1.50176ZM86.75832,48.64422A22.01652,22.01652,0,0,0,59.16581,50.146l4.63506,5.16809a15.06394,15.06394,0,0,1,18.87859-1.029ZM43.88864,35.77729a8.11134,8.11134,0,0,1-8.11135,8.11135v6.95259A15.06393,15.06393,0,0,0,50.84123,35.77729H43.88864Zm-8.11135,8.11135a8.11135,8.11135,0,0,1-8.11136-8.11135H20.71334a15.06394,15.06394,0,0,0,15.064,15.06394Zm-8.11136-8.11135a8.11136,8.11136,0,0,1,8.11136-8.11136V20.71334a15.064,15.064,0,0,0-15.064,15.064Zm8.11136-8.11136a8.11135,8.11135,0,0,1,8.11135,8.11136h6.95259a15.06394,15.06394,0,0,0-15.06394-15.064Z"/></svg>