<svg id="e9ded649-eaed-43e5-9eef-7eda1bab3162" data-name="Layer 1" xmlns="http://www.w3.org/2000/svg" viewBox="0 0 104 104"><defs><style>.ecfbe913-28b4-4963-866c-ecd5add9be8a{fill:#ff6c1a;}</style></defs><path id="b9951f3f-f96c-469e-9aac-5b53da91ab80" data-name="Vector" class="ecfbe913-28b4-4963-866c-ecd5add9be8a" d="M70.88159,15.42105a3.5403,3.5403,0,0,0,0,7.0806Zm-37.76318,7.0806a3.5403,3.5403,0,1,0,0-7.0806ZM55.5403,85.04692a3.5403,3.5403,0,0,0-7.0806,0ZM37.83881,95.66781a3.5403,3.5403,0,1,0,0,7.0806Zm28.32238,7.0806a3.5403,3.5403,0,0,0,0-7.0806ZM55.5403,10.408a3.5403,3.5403,0,0,0-7.0806,0ZM48.4597,36.56371a3.5403,3.5403,0,0,0,7.0806,0ZM36.88529,4.82376l-.38708,3.5167Zm15.10527,4.7204-1.992,2.92664,1.992,1.35948,1.992-1.35948ZM36.88529,33.0423l-.38707,3.52141h0ZM52,37.84294l-1.992,2.92665a3.54032,3.54032,0,0,0,3.98874,0ZM67.10527,4.80016l.38707,3.52141h0Zm0,28.19965.38707,3.52142h0Zm23.838-4.59766v47.204h7.0806v-47.204Zm-5.9005,53.10447H18.95722v7.08059H85.04278Zm-71.98606-5.9005v-47.204H5.97612v47.204ZM70.88159,22.50165H85.04278v-7.0806H70.88159Zm-51.92437,0H33.11841v-7.0806H18.95722Zm0,59.005a5.9005,5.9005,0,0,1-5.9005-5.9005H5.97612a12.9811,12.9811,0,0,0,12.9811,12.98109Zm71.98606-5.9005a5.90051,5.90051,0,0,1-5.9005,5.9005v7.08059a12.98109,12.98109,0,0,0,12.9811-12.98109h-7.0806Zm7.0806-47.204a12.9811,12.9811,0,0,0-12.9811-12.9811v7.0806a5.9005,5.9005,0,0,1,5.9005,5.9005Zm-84.96716,0a5.9005,5.9005,0,0,1,5.9005-5.9005v-7.0806a12.9811,12.9811,0,0,0-12.9811,12.9811Zm35.403,56.64477V99.20811h7.0806V85.04692ZM52,95.66781H37.83881v7.0806H52Zm0,7.0806H66.16119v-7.0806H52ZM48.4597,10.408V36.56371h7.0806V10.408ZM36.49821,8.34046a45.56523,45.56523,0,0,1,7.05228,1.38779,23.16326,23.16326,0,0,1,6.4575,2.719l3.98874-5.85329A29.9695,29.9695,0,0,0,45.467,2.912a52.63219,52.63219,0,0,0-8.19461-1.60966Zm0,28.19965a42.95547,42.95547,0,0,1,7.01452,1.41612A24.13539,24.13539,0,0,1,50.008,40.746l3.98874-5.85329A30.9514,30.9514,0,0,0,45.5,31.15886,49.99873,49.99873,0,0,0,37.27236,29.502ZM29.57811,8.34046V29.03468h7.0806V8.34046Zm7.69425,21.14738a.82609.82609,0,0,1-.49564-.236.33044.33044,0,0,1-.118-.21714h-7.0806a7.67066,7.67066,0,0,0,6.9201,7.50543Zm0-28.19966a6.98624,6.98624,0,0,0-7.69425,7.05228h7.0806c0-.07081.0236-.085,0-.07081a.2124.2124,0,0,1-.07553.04248h-.085Zm29.46,0A52.61847,52.61847,0,0,0,58.533,2.912a29.96992,29.96992,0,0,0-8.525,3.68191l3.98874,5.85329a23.16326,23.16326,0,0,1,6.4575-2.719,45.56689,45.56689,0,0,1,7.04756-1.38779Zm0,28.19966A49.99315,49.99315,0,0,0,58.5,31.1683a30.9517,30.9517,0,0,0-8.49672,3.73383L53.992,40.75542a24.13559,24.13559,0,0,1,6.49527-2.78975,42.95514,42.95514,0,0,1,7.01451-1.41612Zm.60893-21.14738V29.03468h7.0806V8.34046Zm.1605,28.18549a7.67064,7.67064,0,0,0,6.9201-7.49127h-7.0806a.33043.33043,0,0,1-.118.2313.82135.82135,0,0,1-.472.236Zm0-28.19965h-.09913a.21259.21259,0,0,1-.06137-.04249v.07081h7.0806a6.98622,6.98622,0,0,0-7.69425-7.05228Z"/></svg>