<svg id="ba7e0e39-0516-4804-b2bc-b50ddd4f20ec" data-name="Layer 1" xmlns="http://www.w3.org/2000/svg" viewBox="0 0 104 104"><defs><style>.a71b1e72-90ad-4e25-9c0d-2b32a1c6ec9b{fill:#ff6c1a;}</style></defs><path id="ae21fcb2-10bf-4653-8844-94506dee72e9" data-name="Vector" class="a71b1e72-90ad-4e25-9c0d-2b32a1c6ec9b" d="M77.21359,34.04142l-3.4256.81182ZM42.615,39.09535a3.51945,3.51945,0,0,0,0,7.0389ZM29.71039,33.2296a3.51945,3.51945,0,1,0,7.0389,0ZM41.57329,13.286h5.21348V6.24714H41.57329ZM8.59369,62.55835V46.72082H1.55479V62.55835Zm-7.0389,0a14.0121,14.0121,0,0,0,13.9461,14.0778h.00031v-7.0389A6.9732,6.9732,0,0,1,8.59368,62.559l0-.00062Zm72.99809-21.1167a27.9632,27.9632,0,0,1-27.76611,28.1556v7.0389a35.0021,35.0021,0,0,0,34.805-35.1945ZM41.57329,6.24714A40.24845,40.24845,0,0,0,1.55479,46.72082h7.0389A33.20954,33.20954,0,0,1,41.57329,13.286ZM102.4457,83.67505V67.83753H95.4068V83.67505Zm-45.232,14.07781H88.49929V90.714H57.21373ZM95.4068,83.67505a6.9732,6.9732,0,0,1-6.90689,7.0389l-.00062,0v7.0389a14.0121,14.0121,0,0,0,13.94641-14.0775v-.00031ZM75.76827,37.25116A33.46293,33.46293,0,0,1,95.4068,67.83753h7.0389A40.50182,40.50182,0,0,0,78.65422,30.83168ZM46.78677,13.286A27.86,27.86,0,0,1,73.788,34.872l6.8512-1.619A34.89888,34.89888,0,0,0,46.78677,6.24714ZM73.788,34.872a28.62486,28.62486,0,0,1,.76489,6.56964h7.0389a35.6631,35.6631,0,0,0-.93852-8.21205ZM24.389,74.28985a34.84257,34.84257,0,0,0,32.84821,23.463V90.714a27.8037,27.8037,0,0,1-26.18-18.77041Zm22.39779-4.6926H27.71134v7.0389H46.78677Zm-19.07543,0H15.51058v7.0389H27.71134ZM48.48079,33.2296A5.86575,5.86575,0,0,1,42.615,39.09535v7.0389A12.90466,12.90466,0,0,0,55.5197,33.2296Zm-11.7315,0A5.86575,5.86575,0,0,1,42.615,27.36385V20.325A12.90465,12.90465,0,0,0,29.71039,33.2296ZM42.615,27.36385a5.86574,5.86574,0,0,1,5.86575,5.86575H55.5197A12.90465,12.90465,0,0,0,42.615,20.325Z"/><path id="b39bbf54-00b5-4474-bcc1-5ff4857118c5" data-name="Ellipse 579" class="a71b1e72-90ad-4e25-9c0d-2b32a1c6ec9b" d="M47.16308,57.41571a4.83717,4.83717,0,1,1-4.83717-4.83717A4.83716,4.83716,0,0,1,47.16308,57.41571Z"/></svg>