<svg id="b0790b1d-5a54-4b25-a50f-3d15d5666abf" data-name="Layer 1" xmlns="http://www.w3.org/2000/svg" viewBox="0 0 104 104"><defs><style>.a154c1c9-33e2-4178-86b7-76837c570692{fill:#ff6c1a;}</style></defs><path id="a938c178-5ddb-41e6-a421-44dbf121a576" data-name="Vector" class="a154c1c9-33e2-4178-86b7-76837c570692" d="M8.39442,4.85884a3.53559,3.53559,0,1,0-7.07117,0Zm90.74674,97.81791a3.53559,3.53559,0,1,0,0-7.07117ZM68.49941,34.32206a3.53559,3.53559,0,0,0,0,7.07118ZM81.5858,40.45042l-3.16317,1.57922h0Zm.24985,8.40527A3.53653,3.53653,0,0,0,88.162,45.69252Zm-.94283-6.71291,1.9375-2.95575-5.9115-3.875-1.93751,2.95575ZM65.03925,59.87729l-2.95576-1.9375h0ZM57.063,59.73115l-3.02647,1.82908h0ZM48.059,44.88168l-3.02647,1.82908h0Zm-8.17428.18857-3.1066-1.68766ZM25.32282,64.4547a3.53654,3.53654,0,1,0,6.2132,3.38ZM1.32325,4.85884V80.2847H8.39442V4.85884Zm22.392,97.81791H99.14116V95.60558H23.7153Zm-22.392-22.392a22.392,22.392,0,0,0,22.392,22.392V95.60558A15.32088,15.32088,0,0,1,8.39442,80.2847ZM68.49941,41.39324h8.872V34.32206h-8.872Zm9.92792.65054,3.413,6.82133,6.32634-3.16317-3.40358-6.82133Zm-1.056-.65054a1.17853,1.17853,0,0,1,1.056.65054l6.33577-3.16317a8.24972,8.24972,0,0,0-7.39174-4.55855Zm-2.39948-3.116-12.89782,19.672,5.91621,3.875,12.89312-19.672ZM60.08,57.89265l-8.99453-14.84-6.04821,3.66287,8.99453,14.85889ZM36.78283,43.38259,25.32753,64.4547l6.2132,3.38L42.996,46.76262Zm14.30735-.33a8.24971,8.24971,0,0,0-14.30735.33l6.21321,3.38a1.17853,1.17853,0,0,1,2.04592-.04715Zm10.9886,14.89661A1.17854,1.17854,0,0,1,60.08,57.89265l-6.04821,3.66287a8.2497,8.2497,0,0,0,13.9585.24985Z"/></svg>