<svg id="b8db785c-b673-49e5-bc7e-66755caa49e1" data-name="Layer 1" xmlns="http://www.w3.org/2000/svg" viewBox="0 0 104 104"><defs><style>.b6e9487f-8b33-441e-9c81-7a152de34e09{fill:#ff6c1a;}</style></defs><path id="ae470b7a-bd43-4c4b-aad1-ac203f1211de" data-name="Vector" class="b6e9487f-8b33-441e-9c81-7a152de34e09" d="M69.427,15.79383a3.52222,3.52222,0,1,0,4.98117-4.98117h0ZM39.55882,20.77969a3.52109,3.52109,0,0,0,4.97178,4.97178Zm-9.967-9.967A3.52222,3.52222,0,1,0,34.573,15.79383ZM59.4694,25.75147a3.52109,3.52109,0,0,0,4.97178-4.97178ZM52,8.57325a24.55839,24.55839,0,0,1,17.427,7.22058l4.98117-4.98117A31.60065,31.60065,0,0,0,52,1.53107ZM44.5306,25.75147A10.521,10.521,0,0,1,52,22.65761V15.61543a17.56322,17.56322,0,0,0-12.44118,5.16426ZM34.573,15.79383A24.55841,24.55841,0,0,1,52,8.57325V1.53107a31.60065,31.60065,0,0,0-22.40821,9.28159ZM52,22.65761a10.521,10.521,0,0,1,7.4694,3.09386l4.97178-4.97178A17.56322,17.56322,0,0,0,52,15.61543ZM33.22086,36.742H70.77914V29.69978H33.22086ZM81.34241,47.30523V84.86351h7.04217V47.30523ZM70.77914,95.42677H33.22086V102.469H70.77914ZM22.65759,84.86351V47.30523H15.61542V84.86351ZM33.22086,95.42677A10.56327,10.56327,0,0,1,22.65759,84.86351H15.61542A17.60544,17.60544,0,0,0,33.22086,102.469h0ZM81.34241,84.86351A10.56327,10.56327,0,0,1,70.77914,95.42677V102.469A17.60544,17.60544,0,0,0,88.38458,84.86351H81.34241ZM70.77914,36.742A10.56327,10.56327,0,0,1,81.34241,47.30523h7.04217A17.60544,17.60544,0,0,0,70.77914,29.69978ZM33.22086,29.69978A17.60544,17.60544,0,0,0,15.61542,47.30523h7.04217A10.56327,10.56327,0,0,1,33.22086,36.742ZM67.25805,66.08437A15.258,15.258,0,0,1,52,81.34242v7.04217A22.30022,22.30022,0,0,0,74.30023,66.08437ZM52,81.34242a15.258,15.258,0,0,1-15.258-15.258H29.69977A22.30022,22.30022,0,0,0,52,88.38459Zm-15.258-15.258A15.25806,15.25806,0,0,1,52,50.82631V43.78414A22.30023,22.30023,0,0,0,29.69977,66.08437ZM52,50.82631a15.25806,15.25806,0,0,1,15.258,15.25806h7.04218A22.30023,22.30023,0,0,0,52,43.78414Z"/><path id="b27dd1ba-097a-4392-b791-843f073a49b7" data-name="Ellipse 539" class="b6e9487f-8b33-441e-9c81-7a152de34e09" d="M48.57854,67.11391a3.42146,3.42146,0,1,1-3.42145-3.42146A3.42145,3.42145,0,0,1,48.57854,67.11391Z"/><path id="b60f14d6-9177-429b-ac1d-440960d610ca" data-name="Ellipse 540" class="b6e9487f-8b33-441e-9c81-7a152de34e09" d="M62.26437,67.11391a3.42146,3.42146,0,1,1-3.42146-3.42146A3.42146,3.42146,0,0,1,62.26437,67.11391Z"/></svg>